<svg xmlns="http://www.w3.org/2000/svg" xmlns:xlink="http://www.w3.org/1999/xlink" width="14" height="26.03" viewBox="0 0 14 26.03">
  <defs>
    <style>
      .cls-1 {
        fill: #fff;
        fill-rule: evenodd;
        opacity: 0.5;
        filter: url(#filter);
      }
    </style>
    <filter id="filter" x="376.031" y="1717" width="14" height="26.03" filterUnits="userSpaceOnUse">
      <feFlood result="flood"/>
      <feComposite result="composite" operator="in" in2="SourceGraphic"/>
      <feBlend result="blend" in2="SourceGraphic"/>
    </filter>
  </defs>
  <path id="arrow-prev.svg" class="cls-1" d="M376.217,1730.54l12.53,12.27a0.758,0.758,0,0,0,1.063,0,0.722,0.722,0,0,0,0-1.04l-12-11.75,12-11.76a0.722,0.722,0,0,0,0-1.04,0.776,0.776,0,0,0-.529-0.22,0.733,0.733,0,0,0-.529.22l-12.53,12.28A0.726,0.726,0,0,0,376.217,1730.54Z" transform="translate(-376.031 -1717)"/>
</svg>
