<svg width="30" height="30" viewBox="0 0 30 30" fill="none" xmlns="http://www.w3.org/2000/svg">
<path d="M25.4349 7.66308H4.56537C3.39145 7.66308 2.4458 6.71743 2.4458 5.54352C2.4458 4.3696 3.39145 3.42395 4.56537 3.42395H25.4349C26.6088 3.42395 27.5545 4.3696 27.5545 5.54352C27.5545 6.71743 26.6088 7.66308 25.4349 7.66308ZM27.5545 15C27.5545 13.8261 26.6088 12.8805 25.4349 12.8805H4.56537C3.39145 12.8805 2.4458 13.8261 2.4458 15C2.4458 16.174 3.39145 17.1196 4.56537 17.1196H25.4349C26.6088 17.1196 27.5545 16.174 27.5545 15ZM27.5545 24.4566C27.5545 23.2826 26.6088 22.337 25.4349 22.337H4.56537C3.39145 22.337 2.4458 23.2826 2.4458 24.4566C2.4458 25.6305 3.39145 26.5761 4.56537 26.5761H25.4349C26.6088 26.5761 27.5545 25.6305 27.5545 24.4566Z" fill="#0444A5"/>
</svg>
