<?xml version="1.0" encoding="UTF-8"?> <!-- Creator: CorelDRAW 2020 (64-Bit) --> <svg xmlns="http://www.w3.org/2000/svg" xmlns:xlink="http://www.w3.org/1999/xlink" xmlns:xodm="http://www.corel.com/coreldraw/odm/2003" xml:space="preserve" width="22.9588mm" height="22.9588mm" style="shape-rendering:geometricPrecision; text-rendering:geometricPrecision; image-rendering:optimizeQuality; fill-rule:evenodd; clip-rule:evenodd" viewBox="0 0 21.79 21.79"> <defs> <style type="text/css"> <![CDATA[ .fil0 {fill:white} ]]> </style> </defs> <g id="Слой_x0020_1"> <metadata id="CorelCorpID_0Corel-Layer"></metadata> <path class="fil0" d="M10.9 0c6.02,0 10.9,4.88 10.9,10.9 0,6.02 -4.88,10.9 -10.9,10.9 -6.02,0 -10.9,-4.88 -10.9,-10.9 0,-6.02 4.88,-10.9 10.9,-10.9zm-3.32 5.93c0,0.67 -0.54,1.21 -1.2,1.21 -0.66,0 -1.2,-0.54 -1.2,-1.21 0,-0.67 0.54,-1.21 1.2,-1.21 0.66,0 1.2,0.54 1.2,1.21zm0.01 2.17l-2.41 0 0 7.72 2.41 0 0 -7.72zm3.85 0l-2.4 0 0 7.72 2.4 0 0 -4.05c0,-2.25 2.91,-2.44 2.91,0l0 4.05 2.41 0 0 -4.89c0,-3.8 -4.3,-3.66 -5.32,-1.79l0 -1.04 0 0z"></path> </g> </svg> 