<?xml version="1.0" encoding="UTF-8"?> <!-- Creator: CorelDRAW 2020 (64-Bit) --> <svg xmlns="http://www.w3.org/2000/svg" xmlns:xlink="http://www.w3.org/1999/xlink" xmlns:xodm="http://www.corel.com/coreldraw/odm/2003" xml:space="preserve" width="22.9588mm" height="22.9588mm" style="shape-rendering:geometricPrecision; text-rendering:geometricPrecision; image-rendering:optimizeQuality; fill-rule:evenodd; clip-rule:evenodd" viewBox="0 0 21.23 21.23"> <defs> <style type="text/css"> <![CDATA[ .fil0 {fill:white} ]]> </style> </defs> <g id="Слой_x0020_1"> <metadata id="CorelCorpID_0Corel-Layer"></metadata> <path class="fil0" d="M10.62 0c5.86,0 10.62,4.75 10.62,10.62 0,5.86 -4.75,10.62 -10.62,10.62 -5.86,0 -10.62,-4.75 -10.62,-10.62 0,-5.86 4.75,-10.62 10.62,-10.62zm2.92 17.33c0.2,0.14 0.46,0.18 0.7,0.09 0.23,-0.09 0.4,-0.29 0.46,-0.53 0.55,-2.57 1.88,-9.09 2.37,-11.43 0.04,-0.18 -0.03,-0.36 -0.16,-0.48 -0.14,-0.12 -0.33,-0.15 -0.5,-0.09 -2.64,0.98 -10.78,4.03 -14.11,5.26 -0.21,0.08 -0.35,0.28 -0.34,0.5 0.01,0.22 0.16,0.42 0.37,0.48 1.49,0.45 3.45,1.07 3.45,1.07 0,0 0.91,2.76 1.39,4.17 0.06,0.18 0.2,0.32 0.38,0.36 0.18,0.05 0.38,-0 0.51,-0.13 0.77,-0.72 1.95,-1.84 1.95,-1.84 0,0 2.25,1.65 3.53,2.56l-0 0zm-6.94 -5.47l1.06 3.49 0.24 -2.21c0,0 4.09,-3.69 6.42,-5.79 0.07,-0.06 0.08,-0.17 0.02,-0.24 -0.06,-0.07 -0.16,-0.09 -0.24,-0.04 -2.7,1.72 -7.5,4.79 -7.5,4.79l0 -0z"></path> </g> </svg> 