<?xml version="1.0" encoding="UTF-8"?> <!-- Creator: CorelDRAW 2021.5 --> <svg xmlns="http://www.w3.org/2000/svg" xmlns:xlink="http://www.w3.org/1999/xlink" xmlns:xodm="http://www.corel.com/coreldraw/odm/2003" xml:space="preserve" width="81.7101mm" height="58.9519mm" style="shape-rendering:geometricPrecision; text-rendering:geometricPrecision; image-rendering:optimizeQuality; fill-rule:evenodd; clip-rule:evenodd" viewBox="0 0 150.86 108.85"> <defs> <style type="text/css"> <![CDATA[ .fil1 {fill:url(#id0)} .fil2 {fill:url(#id1)} .fil0 {fill:url(#id2)} .fil3 {fill:url(#id3)} .fil4 {fill:url(#id4);fill-rule:nonzero} .fil7 {fill:url(#id5);fill-rule:nonzero} .fil8 {fill:url(#id6);fill-rule:nonzero} .fil6 {fill:url(#id7);fill-rule:nonzero} .fil5 {fill:url(#id8);fill-rule:nonzero} ]]> </style> <linearGradient id="id0" gradientUnits="objectBoundingBox" x1="50%" y1="0%" x2="50%" y2="100%"> <stop offset="0" style="stop-opacity:1; stop-color:yellow"></stop> <stop offset="1" style="stop-opacity:1; stop-color:#F0A000"></stop> </linearGradient> <linearGradient id="id1" gradientUnits="userSpaceOnUse" xlink:href="#id0" x1="25.64" y1="74.49" x2="25.64" y2="85.14"> </linearGradient> <linearGradient id="id2" gradientUnits="userSpaceOnUse" xlink:href="#id0" x1="111.28" y1="20.05" x2="111.28" y2="31.08"> </linearGradient> <linearGradient id="id3" gradientUnits="userSpaceOnUse" xlink:href="#id0" x1="55.5" y1="7.78" x2="55.5" y2="14.76"> </linearGradient> <linearGradient id="id4" gradientUnits="userSpaceOnUse" x1="92.05" y1="-1.3" x2="80.46" y2="20.42"> <stop offset="0" style="stop-opacity:1; stop-color:#4A85D3"></stop> <stop offset="1" style="stop-opacity:1; stop-color:#1F0046"></stop> </linearGradient> <linearGradient id="id5" gradientUnits="userSpaceOnUse" xlink:href="#id4" x1="160.78" y1="92.57" x2="125.43" y2="105.63"> </linearGradient> <linearGradient id="id6" gradientUnits="userSpaceOnUse" xlink:href="#id4" x1="47.36" y1="2.53" x2="12.02" y2="15.58"> </linearGradient> <linearGradient id="id7" gradientUnits="userSpaceOnUse" xlink:href="#id4" x1="11.78" y1="90.68" x2="0.58" y2="112.35"> </linearGradient> <linearGradient id="id8" gradientUnits="userSpaceOnUse" xlink:href="#id4" x1="14.07" y1="27.28" x2="2.87" y2="48.95"> </linearGradient> </defs> <g id="Слой_x0020_1"> <metadata id="CorelCorpID_0Corel-Layer"></metadata> <polygon class="fil0" points="112.33,31.08 109.78,28.2 105.95,28.67 107.9,25.34 106.27,21.85 110.04,22.68 112.86,20.05 113.23,23.89 116.6,25.76 113.07,27.3 "></polygon> <polygon class="fil1" points="136.78,85.06 132.86,81.72 127.88,83.04 129.86,78.29 127.06,73.96 132.19,74.37 135.44,70.37 136.64,75.38 141.44,77.23 137.05,79.92 "></polygon> <polygon class="fil2" points="30.85,79.46 27.67,81.41 27.47,85.14 24.63,82.71 21.02,83.68 22.45,80.23 20.42,77.09 24.14,77.39 26.5,74.49 27.37,78.12 "></polygon> <polygon class="fil3" points="58.86,13.26 56.44,12.95 54.81,14.76 54.37,12.36 52.14,11.37 54.28,10.21 54.53,7.78 56.3,9.46 58.69,8.95 57.64,11.15 "></polygon> <polygon class="fil1" points="137.79,41.78 133.43,37.52 127.45,38.7 130.15,33.24 127.18,27.91 133.21,28.79 137.35,24.32 138.38,30.33 143.92,32.89 138.52,35.73 "></polygon> <polygon class="fil4" points="89.8,16.9 85.99,14.83 82.13,16.79 82.92,12.54 79.87,9.47 84.16,8.91 86.13,5.05 87.99,8.96 92.27,9.65 89.12,12.62 "></polygon> <polygon class="fil5" points="8.79,45.45 6.5,41.91 2.29,41.79 4.95,38.52 3.76,34.48 7.69,35.99 11.16,33.61 10.94,37.82 14.28,40.39 10.21,41.48 "></polygon> <polygon class="fil6" points="6.5,108.85 4.21,105.31 -0,105.19 2.65,101.92 1.47,97.88 5.4,99.39 8.87,97.01 8.65,101.22 11.98,103.79 7.91,104.88 "></polygon> <polygon class="fil1" points="118.95,92.7 115.93,91.93 113.58,93.98 113.38,90.87 110.71,89.27 113.6,88.12 114.3,85.08 116.29,87.48 119.39,87.2 117.73,89.83 "></polygon> <polygon class="fil1" points="17.61,58.07 14.74,57.61 12.73,59.7 12.29,56.83 9.67,55.56 12.27,54.25 12.66,51.37 14.71,53.44 17.57,52.92 16.24,55.51 "></polygon> <polygon class="fil7" points="135.84,107.8 136.91,101.38 132.23,96.86 138.66,95.9 141.52,90.05 144.42,95.87 150.86,96.78 146.23,101.34 147.36,107.75 141.58,104.74 "></polygon> <polygon class="fil8" points="22.43,17.75 23.5,11.33 18.82,6.81 25.25,5.85 28.1,0 31.01,5.82 37.45,6.73 32.81,11.29 33.94,17.7 28.17,14.7 "></polygon> </g> </svg> 