<?xml version="1.0" encoding="UTF-8"?> <!-- Creator: CorelDRAW 2021.5 --> <svg xmlns="http://www.w3.org/2000/svg" xmlns:xlink="http://www.w3.org/1999/xlink" xmlns:xodm="http://www.corel.com/coreldraw/odm/2003" xml:space="preserve" width="34.8188mm" height="34.8188mm" style="shape-rendering:geometricPrecision; text-rendering:geometricPrecision; image-rendering:optimizeQuality; fill-rule:evenodd; clip-rule:evenodd" viewBox="0 0 18.88 18.88"> <defs> <style type="text/css"> <![CDATA[ .fil0 {fill:url(#id0);fill-rule:nonzero} ]]> </style> <linearGradient id="id0" gradientUnits="objectBoundingBox" x1="98.2671%" y1="0%" x2="4.82326%" y2="129.656%"> <stop offset="0" style="stop-opacity:1; stop-color:#4A85D3"></stop> <stop offset="1" style="stop-opacity:1; stop-color:#1F0046"></stop> </linearGradient> </defs> <g id="Слой_x0020_1"> <metadata id="CorelCorpID_0Corel-Layer"></metadata> <path class="fil0" d="M9.44 8.39c2.32,0 4.28,-0.96 4.34,-2.1 -0.07,-1.15 -2.03,-2.1 -4.34,-2.1 -2.32,0 -4.28,0.96 -4.34,2.1 0.07,1.15 2.03,2.1 4.34,2.1zm4.35 -1.08c-0.75,0.89 -2.39,1.5 -4.35,1.5 -1.96,0 -3.61,-0.61 -4.35,-1.5l0 0.95c0,1.17 1.99,2.16 4.35,2.16 2.36,0 4.35,-0.99 4.35,-2.16l0 -0.95zm0 2.03c-0.75,0.89 -2.39,1.5 -4.35,1.5 -1.96,0 -3.61,-0.61 -4.35,-1.5l0 1.08c0,1.17 1.99,2.16 4.35,2.16 2.36,0 4.35,-0.99 4.35,-2.16l0 -1.08zm0 2.16c-0.75,0.89 -2.39,1.5 -4.35,1.5 -1.96,0 -3.61,-0.61 -4.35,-1.5l0 1.03c0,1.17 1.99,2.16 4.35,2.16 2.36,0 4.35,-0.99 4.35,-2.16l0 -1.03z"></path> <path class="fil0" d="M9.44 0c2.61,0 4.97,1.06 6.67,2.76 1.71,1.71 2.76,4.07 2.76,6.67 0,2.61 -1.06,4.97 -2.76,6.67 -1.71,1.71 -4.07,2.76 -6.67,2.76 -2.61,0 -4.97,-1.06 -6.67,-2.76 -1.71,-1.71 -2.76,-4.07 -2.76,-6.67 0,-2.61 1.06,-4.97 2.76,-6.67 1.71,-1.71 4.07,-2.76 6.67,-2.76zm5.86 3.58c-1.5,-1.5 -3.57,-2.43 -5.86,-2.43 -2.29,0 -4.36,0.93 -5.86,2.43 -1.5,1.5 -2.43,3.57 -2.43,5.86 0,2.29 0.93,4.36 2.43,5.86 1.5,1.5 3.57,2.43 5.86,2.43 2.29,0 4.36,-0.93 5.86,-2.43 1.5,-1.5 2.43,-3.57 2.43,-5.86 0,-2.29 -0.93,-4.36 -2.43,-5.86z"></path> </g> </svg> 