<?xml version="1.0" encoding="UTF-8"?> <!-- Creator: CorelDRAW 2021.5 --> <svg xmlns="http://www.w3.org/2000/svg" xmlns:xlink="http://www.w3.org/1999/xlink" xmlns:xodm="http://www.corel.com/coreldraw/odm/2003" xml:space="preserve" width="34.8188mm" height="34.8188mm" style="shape-rendering:geometricPrecision; text-rendering:geometricPrecision; image-rendering:optimizeQuality; fill-rule:evenodd; clip-rule:evenodd" viewBox="0 0 20.79 20.79"> <defs> <style type="text/css"> <![CDATA[ .fil0 {fill:url(#id0);fill-rule:nonzero} .fil1 {fill:url(#id1);fill-rule:nonzero} ]]> </style> <linearGradient id="id0" gradientUnits="userSpaceOnUse" x1="16.07" y1="-1.2" x2="5.08" y2="19.31"> <stop offset="0" style="stop-opacity:1; stop-color:#4A85D3"></stop> <stop offset="1" style="stop-opacity:1; stop-color:#1F0046"></stop> </linearGradient> <linearGradient id="id1" gradientUnits="userSpaceOnUse" xlink:href="#id0" x1="20.43" y1="-11.13" x2="1" y2="26.95"> </linearGradient> </defs> <g id="Слой_x0020_1"> <metadata id="CorelCorpID_0Corel-Layer"></metadata> <path class="fil0" d="M13.56 12.01c0.26,-0.36 0.6,-0.67 0.9,-1.01 0.63,-0.62 1.19,-1.3 1.81,-1.92 -1.27,-0.3 -2.57,-0.5 -3.84,-0.77 -0.11,-0.01 -0.16,-0.14 -0.21,-0.22 -0.53,-0.95 -1.05,-1.9 -1.57,-2.86 -0.08,-0.15 -0.18,-0.29 -0.28,-0.43 -0.56,1 -1.11,2.01 -1.65,3.02 -0.1,0.16 -0.17,0.35 -0.32,0.48 -1.28,0.29 -2.59,0.48 -3.87,0.79 0.37,0.45 0.81,0.83 1.19,1.28 0.51,0.56 1.05,1.08 1.53,1.66 -0.15,1.32 -0.36,2.62 -0.47,3.94 0.97,-0.41 1.9,-0.88 2.86,-1.32 0.26,-0.11 0.5,-0.29 0.8,-0.32 0.32,0.09 0.6,0.27 0.9,0.41 0.9,0.41 1.8,0.85 2.71,1.26 -0.12,-1.33 -0.37,-2.64 -0.47,-3.98z"></path> <path class="fil1" d="M10.39 0c2.87,0 5.47,1.16 7.35,3.04 1.88,1.88 3.04,4.48 3.04,7.35 0,2.87 -1.16,5.47 -3.04,7.35 -1.88,1.88 -4.48,3.04 -7.35,3.04 -2.87,0 -5.47,-1.16 -7.35,-3.04 -1.88,-1.88 -3.04,-4.48 -3.04,-7.35 0,-2.87 1.16,-5.47 3.04,-7.35 1.88,-1.88 4.48,-3.04 7.35,-3.04zm6.46 3.94c-1.65,-1.65 -3.93,-2.67 -6.46,-2.67 -2.52,0 -4.8,1.02 -6.46,2.67 -1.65,1.65 -2.67,3.93 -2.67,6.46 0,2.52 1.02,4.8 2.67,6.46 1.65,1.65 3.93,2.67 6.46,2.67 2.52,0 4.8,-1.02 6.46,-2.67 1.65,-1.65 2.67,-3.93 2.67,-6.46 0,-2.52 -1.02,-4.8 -2.67,-6.46z"></path> </g> </svg> 