<?xml version="1.0" encoding="UTF-8"?> <!-- Creator: CorelDRAW 2021.5 --> <svg xmlns="http://www.w3.org/2000/svg" xmlns:xlink="http://www.w3.org/1999/xlink" xmlns:xodm="http://www.corel.com/coreldraw/odm/2003" xml:space="preserve" width="27.7616mm" height="20.4454mm" style="shape-rendering:geometricPrecision; text-rendering:geometricPrecision; image-rendering:optimizeQuality; fill-rule:evenodd; clip-rule:evenodd" viewBox="0 0 24.57 18.1"> <defs> <style type="text/css"> <![CDATA[ .fil0 {fill:url(#id2);fill-rule:nonzero} ]]> </style> <mask id="id0"> <linearGradient id="id1" gradientUnits="userSpaceOnUse" x1="0.89" y1="5.27" x2="23.68" y2="12.83"> <stop offset="0" style="stop-opacity:0.101961; stop-color:white"></stop> <stop offset="1" style="stop-opacity:0.501961; stop-color:white"></stop> </linearGradient> <rect style="fill:url(#id1)" width="24.57" height="18.1"></rect> </mask> <linearGradient id="id2" gradientUnits="userSpaceOnUse" x1="24.57" y1="9.05" x2="-0" y2="9.05"> <stop offset="0" style="stop-opacity:1; stop-color:#E53974"></stop> <stop offset="0.588235" style="stop-opacity:1; stop-color:#9A7CAA"></stop> <stop offset="1" style="stop-opacity:1; stop-color:#4FC0E0"></stop> </linearGradient> </defs> <g id="Слой_x0020_1"> <metadata id="CorelCorpID_0Corel-Layer"></metadata> <path class="fil0" style="mask:url(#id0)" d="M15.75 10.6l-2.22 7.5 6.21 0 3.1 -6.61c1.55,-3.33 1.73,-4.39 1.73,-5.81 0,-3.46 -2.48,-5.68 -5.85,-5.68 -3.37,0 -5.85,2.22 -5.85,5.68 0,2.35 1.11,4.08 2.88,4.92zm-12.86 0l-2.22 7.5 6.21 0 3.1 -6.61c1.55,-3.33 1.73,-4.39 1.73,-5.81 0,-3.46 -2.48,-5.68 -5.85,-5.68 -3.37,0 -5.85,2.22 -5.85,5.68 0,2.35 1.11,4.08 2.88,4.92z"></path> </g> </svg> 