<?xml version="1.0" encoding="UTF-8"?> <!-- Creator: CorelDRAW 2020 (64-Bit) --> <svg xmlns="http://www.w3.org/2000/svg" xmlns:xlink="http://www.w3.org/1999/xlink" xmlns:xodm="http://www.corel.com/coreldraw/odm/2003" xml:space="preserve" width="22.9588mm" height="22.9588mm" style="shape-rendering:geometricPrecision; text-rendering:geometricPrecision; image-rendering:optimizeQuality; fill-rule:evenodd; clip-rule:evenodd" viewBox="0 0 54.7 54.7"> <defs> <style type="text/css"> <![CDATA[ .fil0 {fill:white} ]]> </style> </defs> <g id="Слой_x0020_1"> <metadata id="CorelCorpID_0Corel-Layer"></metadata> <path class="fil0" d="M27.35 0c15.1,0 27.35,12.24 27.35,27.35 0,15.1 -12.24,27.35 -27.35,27.35 -15.1,0 -27.35,-12.24 -27.35,-27.35 0,-15.1 12.24,-27.35 27.35,-27.35zm0.29 10.83c-8.94,0 -16.22,7.22 -16.22,16.1 0,2.87 0.77,5.68 2.22,8.14l-2.79 8.22c-0.05,0.15 -0.01,0.32 0.1,0.44 0.08,0.08 0.19,0.13 0.31,0.13 0.04,0 0.09,-0.01 0.13,-0.02l8.57 -2.72c2.35,1.25 5,1.91 7.68,1.91 8.94,0 16.22,-7.22 16.22,-16.1 0,-8.88 -7.28,-16.1 -16.22,-16.1zm0 28.84c-2.52,0 -4.97,-0.73 -7.07,-2.11 -0.07,-0.05 -0.15,-0.07 -0.23,-0.07 -0.04,0 -0.09,0.01 -0.13,0.02l-4.29 1.36 1.39 -4.09c0.04,-0.13 0.02,-0.28 -0.06,-0.39 -1.6,-2.19 -2.45,-4.77 -2.45,-7.47 0,-7.03 5.76,-12.75 12.85,-12.75 7.08,0 12.85,5.72 12.85,12.75 0,7.03 -5.76,12.74 -12.85,12.74zm7.63 -9.87c-0.06,-0.03 -2.47,-1.22 -2.9,-1.37 -0.17,-0.06 -0.36,-0.12 -0.56,-0.12 -0.32,0 -0.6,0.16 -0.81,0.48 -0.24,0.36 -0.97,1.21 -1.19,1.46 -0.03,0.03 -0.07,0.07 -0.09,0.07 -0.02,0 -0.39,-0.15 -0.51,-0.2 -2.58,-1.12 -4.54,-3.82 -4.81,-4.27 -0.04,-0.07 -0.04,-0.1 -0.04,-0.1 0.01,-0.03 0.1,-0.12 0.14,-0.17 0.13,-0.13 0.27,-0.3 0.41,-0.47 0.07,-0.08 0.13,-0.16 0.19,-0.23 0.2,-0.23 0.29,-0.41 0.39,-0.62l0.05 -0.11c0.25,-0.5 0.04,-0.92 -0.03,-1.06 -0.06,-0.11 -1.07,-2.57 -1.18,-2.83 -0.26,-0.62 -0.6,-0.91 -1.08,-0.91 -0.04,0 0,0 -0.19,0.01 -0.23,0.01 -1.46,0.17 -2,0.51 -0.58,0.36 -1.55,1.52 -1.55,3.57 0,1.84 1.17,3.57 1.67,4.23 0.01,0.02 0.04,0.05 0.07,0.1 1.92,2.8 4.31,4.87 6.73,5.84 2.33,0.93 3.44,1.04 4.06,1.04 0,0 0,0 0,0 0.26,0 0.47,-0.02 0.66,-0.04l0.12 -0.01c0.81,-0.07 2.58,-0.99 2.98,-2.11 0.32,-0.88 0.4,-1.84 0.19,-2.19 -0.14,-0.24 -0.39,-0.36 -0.71,-0.51z"></path> </g> </svg> 