<?xml version="1.0" encoding="UTF-8"?> <!-- Creator: CorelDRAW 2020 (64-Bit) --> <svg xmlns="http://www.w3.org/2000/svg" xmlns:xlink="http://www.w3.org/1999/xlink" xmlns:xodm="http://www.corel.com/coreldraw/odm/2003" xml:space="preserve" width="612.648mm" height="139.939mm" style="shape-rendering:geometricPrecision; text-rendering:geometricPrecision; image-rendering:optimizeQuality; fill-rule:evenodd; clip-rule:evenodd" viewBox="0 0 12265.61 2801.66"> <defs> <style type="text/css"> <![CDATA[ .fil0 {fill:white;fill-rule:nonzero} ]]> </style> </defs> <g id="Слой_x0020_1"> <metadata id="CorelCorpID_0Corel-Layer"></metadata> <path class="fil0" d="M3964.88 607.65c161.4,0 302.37,35.49 422.9,106.47 120.53,70.98 213.28,171.54 278.26,301.68 64.98,130.13 97.47,282.32 97.47,456.55 0,45.17 -1.05,78.51 -3.14,100.02l-1289.13 0c20.96,124.76 78.08,227.47 171.36,308.13 93.28,80.66 201.75,120.99 325.43,120.99 203.33,0 347.96,-76.36 433.9,-229.08l308.13 0c-50.31,150.57 -143.59,273.71 -279.83,369.43 -136.25,95.72 -290.32,143.58 -462.2,143.58 -153.02,0 -291.36,-36.03 -415.04,-108.09 -123.67,-72.06 -220.1,-172.08 -289.27,-300.06 -69.17,-127.98 -103.76,-271.56 -103.76,-430.74 0,-159.17 34.59,-302.75 103.76,-430.74 69.17,-127.98 165.07,-228.01 287.69,-300.06 122.62,-72.06 260.45,-108.09 413.46,-108.09zm-6.29 271.03c-123.67,0 -230.05,39.79 -319.14,119.38 -89.09,79.59 -144.11,181.76 -165.07,306.52l965.27 0c-12.58,-129.06 -63.41,-232.31 -152.5,-309.74 -89.09,-77.44 -198.61,-116.15 -328.57,-116.15zm2647.43 -238.76l-921.25 2161.75 -323.86 0 248.39 -577.54 -767.19 -1584.21 355.3 0 569.1 1258.33 509.36 -1258.33 330.14 0zm1650.71 0l0 1613.25 -298.7 0 0 -241.99c-64.98,86.04 -143.59,153.26 -235.82,201.65 -92.23,48.4 -190.75,72.6 -295.56,72.6 -138.34,0 -264.11,-36.03 -377.31,-108.09 -113.19,-72.06 -202.28,-171.54 -267.26,-298.45 -64.98,-126.91 -97.47,-271.02 -97.47,-432.35 0,-161.32 32.49,-305.44 97.47,-432.35 64.98,-126.91 154.06,-226.39 267.26,-298.45 113.19,-72.06 238.96,-108.09 377.31,-108.09 109,0 210.66,25.81 304.99,77.44 94.33,51.62 175.03,123.68 242.1,216.18l0 -261.35 282.98 0zm-779.76 1361.58c92.23,0 176.08,-23.66 251.54,-70.98 75.46,-47.32 134.15,-113.47 176.08,-198.43 41.92,-84.96 62.88,-180.14 62.88,-285.54 0,-105.4 -20.96,-200.58 -62.88,-285.55 -41.92,-84.96 -100.62,-151.1 -176.08,-198.43 -75.46,-47.32 -159.31,-70.98 -251.54,-70.98 -92.23,0 -175.03,23.66 -248.39,70.98 -73.36,47.32 -131.01,113.46 -172.93,198.43 -41.92,84.96 -62.89,180.15 -62.89,285.55 0,105.4 20.96,200.58 62.89,285.54 41.92,84.96 99.57,151.11 172.93,198.43 73.37,47.32 156.17,70.98 248.39,70.98zm2112.91 -1393.84c138.35,0 264.12,36.03 377.31,108.09 113.19,72.06 202.28,171.54 267.26,298.45 64.98,126.91 97.47,271.03 97.47,432.35 0,161.32 -32.49,305.44 -97.47,432.35 -64.98,126.91 -154.07,226.39 -267.26,298.45 -113.19,72.06 -238.96,108.09 -377.31,108.09 -104.8,0 -203.33,-24.2 -295.55,-72.6 -92.23,-48.4 -170.84,-115.62 -235.82,-201.65l0 790.49 -298.7 0 0 -2161.75 282.98 0 0 261.35c67.08,-92.49 147.78,-164.55 242.1,-216.18 94.33,-51.62 195.99,-77.44 304.99,-77.44zm-50.31 1393.84c92.23,0 175.03,-23.66 248.4,-70.98 73.36,-47.32 131.01,-113.47 172.93,-198.43 41.92,-84.96 62.88,-180.14 62.88,-285.54 0,-105.4 -20.96,-200.58 -62.88,-285.55 -41.92,-84.96 -99.57,-151.1 -172.93,-198.43 -73.37,-47.32 -156.17,-70.98 -248.4,-70.98 -92.23,0 -176.07,23.66 -251.54,70.98 -75.46,47.32 -134.15,113.46 -176.08,198.43 -41.92,84.96 -62.88,180.15 -62.88,285.55 0,105.4 20.96,200.58 62.88,285.54 41.92,84.96 100.61,151.11 176.08,198.43 75.46,47.32 159.31,70.98 251.54,70.98zm1984 -1393.84c138.34,0 264.11,36.03 377.31,108.09 113.19,72.06 202.28,171.54 267.26,298.45 64.98,126.91 97.47,271.03 97.47,432.35 0,161.32 -32.49,305.44 -97.47,432.35 -64.98,126.91 -154.07,226.39 -267.26,298.45 -113.19,72.06 -238.96,108.09 -377.31,108.09 -104.81,0 -203.33,-24.2 -295.56,-72.6 -92.23,-48.4 -170.83,-115.62 -235.81,-201.65l0 790.49 -298.7 0 0 -2161.75 282.98 0 0 261.35c67.08,-92.49 147.78,-164.55 242.1,-216.18 94.33,-51.62 195.99,-77.44 304.99,-77.44zm-50.31 1393.84c92.23,0 175.03,-23.66 248.39,-70.98 73.36,-47.32 131.01,-113.47 172.93,-198.43 41.92,-84.96 62.88,-180.14 62.88,-285.54 0,-105.4 -20.96,-200.58 -62.88,-285.55 -41.92,-84.96 -99.57,-151.1 -172.93,-198.43 -73.37,-47.32 -156.16,-70.98 -248.39,-70.98 -92.23,0 -176.08,23.66 -251.54,70.98 -75.46,47.32 -134.15,113.46 -176.07,198.43 -41.92,84.96 -62.88,180.15 -62.88,285.55 0,105.4 20.96,200.58 62.88,285.54 41.92,84.96 100.61,151.11 176.07,198.43 75.46,47.32 159.31,70.98 251.54,70.98zm-10378.19 -2001.5l905.19 0c438.95,0 798.1,359.14 798.1,798.1l0 1202.18c0,438.96 -359.14,798.1 -798.1,798.1l-1202.18 0c-438.95,0 -798.1,-359.14 -798.1,-798.1l0 -1202.18c0,-438.45 358.32,-797.25 796.58,-798.08l0 2253.14 298.5 0 0 -541.69 216.81 -206.36 578.15 748.05 399.05 0 -754.11 -960.86 688.12 -651.32 -395.91 0 -732.12 715.8 0 -1356.79z"></path> </g> </svg> 