<?xml version="1.0" encoding="UTF-8"?> <svg xmlns="http://www.w3.org/2000/svg" width="266" height="199" viewBox="0 0 266 199" fill="none"> <g filter="url(#filter0_d_355_1504)"> <rect width="250" height="183" rx="20" transform="matrix(-1 0 0 1 260 6)" fill="white"></rect> <path d="M42.9341 129H62.3952V162H42.9341V129Z" fill="url(#paint0_linear_355_1504)"></path> <path d="M75.8683 117H95.3293V162H75.8683V117Z" fill="url(#paint1_linear_355_1504)"></path> <path d="M108.802 123H128.263V162H108.802V123Z" fill="url(#paint2_linear_355_1504)"></path> <path d="M140.24 103.5H159.701V162H140.24V103.5Z" fill="url(#paint3_linear_355_1504)"></path> <path d="M173.174 85.5H192.635V162H173.174V85.5Z" fill="url(#paint4_linear_355_1504)"></path> <path d="M206.108 64.5H225.569V162H206.108V64.5Z" fill="url(#paint5_linear_355_1504)"></path> <path d="M119.281 63.75C119.281 80.7344 105.878 94.5 89.3413 94.5C72.8042 94.5 59.4012 80.7344 59.4012 63.75C59.4012 46.7656 72.8042 33 89.3413 33C105.878 33 119.281 46.7656 119.281 63.75Z" fill="#EBF3FB"></path> <path d="M119.249 66C119.273 65.5137 119.281 65.0359 119.281 64.5411C119.281 47.1197 106.055 33 89.7358 33C88.593 33 87.4582 33.0768 86.3473 33.2133L89.7358 64.5411L119.249 66Z" fill="url(#paint6_linear_355_1504)"></path> <path d="M89.3413 64.5L111.126 85.5C115.909 80.3389 118.949 73.4905 119.281 65.9143L89.3413 64.5Z" fill="url(#paint7_linear_355_1504)"></path> </g> <defs> <filter id="filter0_d_355_1504" x="0" y="0" width="266" height="199" filterUnits="userSpaceOnUse" color-interpolation-filters="sRGB"> <feFlood flood-opacity="0" result="BackgroundImageFix"></feFlood> <feColorMatrix in="SourceAlpha" type="matrix" values="0 0 0 0 0 0 0 0 0 0 0 0 0 0 0 0 0 0 127 0" result="hardAlpha"></feColorMatrix> <feOffset dx="-2" dy="2"></feOffset> <feGaussianBlur stdDeviation="4"></feGaussianBlur> <feComposite in2="hardAlpha" operator="out"></feComposite> <feColorMatrix type="matrix" values="0 0 0 0 0 0 0 0 0 0 0 0 0 0 0 0 0 0 0.25 0"></feColorMatrix> <feBlend mode="normal" in2="BackgroundImageFix" result="effect1_dropShadow_355_1504"></feBlend> <feBlend mode="normal" in="SourceGraphic" in2="effect1_dropShadow_355_1504" result="shape"></feBlend> </filter> <linearGradient id="paint0_linear_355_1504" x1="52.6644" y1="162.006" x2="52.6644" y2="129" gradientUnits="userSpaceOnUse"> <stop stop-color="#2A2169"></stop> <stop offset="1" stop-color="#3C5AA5"></stop> </linearGradient> <linearGradient id="paint1_linear_355_1504" x1="85.5985" y1="162.008" x2="85.5985" y2="117" gradientUnits="userSpaceOnUse"> <stop stop-color="#2A2169"></stop> <stop offset="1" stop-color="#3C5AA5"></stop> </linearGradient> <linearGradient id="paint2_linear_355_1504" x1="118.533" y1="162.007" x2="118.533" y2="123" gradientUnits="userSpaceOnUse"> <stop stop-color="#2A2169"></stop> <stop offset="1" stop-color="#3C5AA5"></stop> </linearGradient> <linearGradient id="paint3_linear_355_1504" x1="149.97" y1="162.01" x2="149.97" y2="103.5" gradientUnits="userSpaceOnUse"> <stop stop-color="#2A2169"></stop> <stop offset="1" stop-color="#3C5AA5"></stop> </linearGradient> <linearGradient id="paint4_linear_355_1504" x1="182.904" y1="162.013" x2="182.904" y2="85.5" gradientUnits="userSpaceOnUse"> <stop stop-color="#2A2169"></stop> <stop offset="1" stop-color="#3C5AA5"></stop> </linearGradient> <linearGradient id="paint5_linear_355_1504" x1="215.838" y1="162.016" x2="215.838" y2="64.5" gradientUnits="userSpaceOnUse"> <stop stop-color="#2A2169"></stop> <stop offset="1" stop-color="#3C5AA5"></stop> </linearGradient> <linearGradient id="paint6_linear_355_1504" x1="102.814" y1="33" x2="102.814" y2="66" gradientUnits="userSpaceOnUse"> <stop stop-color="#FFC655"></stop> <stop offset="1" stop-color="#FCFF98"></stop> </linearGradient> <linearGradient id="paint7_linear_355_1504" x1="104.311" y1="85.5035" x2="104.311" y2="64.5" gradientUnits="userSpaceOnUse"> <stop stop-color="#2A2169"></stop> <stop offset="1" stop-color="#3C5AA5"></stop> </linearGradient> </defs> </svg> 