<?xml version="1.0" encoding="UTF-8"?> <!-- Creator: CorelDRAW 2021.5 --> <svg xmlns="http://www.w3.org/2000/svg" xmlns:xlink="http://www.w3.org/1999/xlink" xmlns:xodm="http://www.corel.com/coreldraw/odm/2003" xml:space="preserve" width="34.8188mm" height="34.8188mm" style="shape-rendering:geometricPrecision; text-rendering:geometricPrecision; image-rendering:optimizeQuality; fill-rule:evenodd; clip-rule:evenodd" viewBox="0 0 19.25 19.25"> <defs> <style type="text/css"> <![CDATA[ .fil0 {fill:url(#id0);fill-rule:nonzero} .fil1 {fill:url(#id1);fill-rule:nonzero} ]]> </style> <linearGradient id="id0" gradientUnits="userSpaceOnUse" x1="18.92" y1="-10.31" x2="0.93" y2="24.96"> <stop offset="0" style="stop-opacity:1; stop-color:#4A85D3"></stop> <stop offset="1" style="stop-opacity:1; stop-color:#1F0046"></stop> </linearGradient> <linearGradient id="id1" gradientUnits="userSpaceOnUse" xlink:href="#id0" x1="14.75" y1="-1.36" x2="4.83" y2="18.07"> </linearGradient> </defs> <g id="Слой_x0020_1"> <metadata id="CorelCorpID_0Corel-Layer"></metadata> <path class="fil0" d="M9.62 0c2.66,0 5.06,1.08 6.81,2.82 1.74,1.74 2.82,4.15 2.82,6.81 0,2.66 -1.08,5.06 -2.82,6.81 -1.74,1.74 -4.15,2.82 -6.81,2.82 -2.66,0 -5.06,-1.08 -6.81,-2.82 -1.74,-1.74 -2.82,-4.15 -2.82,-6.81 0,-2.66 1.08,-5.06 2.82,-6.81 1.74,-1.74 4.15,-2.82 6.81,-2.82zm5.98 3.65c-1.53,-1.53 -3.64,-2.48 -5.98,-2.48 -2.33,0 -4.45,0.95 -5.98,2.48 -1.53,1.53 -2.48,3.64 -2.48,5.98 0,2.33 0.95,4.45 2.48,5.98 1.53,1.53 3.64,2.48 5.98,2.48 2.33,0 4.45,-0.95 5.98,-2.48 1.53,-1.53 2.48,-3.64 2.48,-5.98 0,-2.33 -0.95,-4.45 -2.48,-5.98z"></path> <path class="fil1" d="M11.78 5.55c0.15,0.29 0.27,0.6 0.38,0.93 0.05,-0.03 0.1,-0.05 0.15,-0.08 0.03,-0.02 0.07,-0.04 0.1,-0.06 0.3,-0.17 0.58,-0.37 0.84,-0.59 -0.62,-0.59 -1.37,-1.01 -2.18,-1.24 0.26,0.27 0.49,0.62 0.7,1.03zm0.08 1.07c-0.1,-0.31 -0.22,-0.6 -0.35,-0.86 -0.35,-0.69 -0.77,-1.17 -1.23,-1.4 -0.14,-0.02 -0.28,-0.03 -0.41,-0.04 -0.02,-0 -0.06,-0 -0.06,-0l0 2.73c0.25,-0 0.5,-0.02 0.73,-0.06 0.04,-0.01 0.09,-0.01 0.12,-0.02 0.41,-0.07 0.81,-0.19 1.19,-0.35zm-2.44 0.42l0 -2.72c-0.04,0 -0.03,0 -0.04,0 -0.14,0.01 -0.27,0.02 -0.41,0.04 -0.46,0.23 -0.88,0.71 -1.22,1.4 -0.12,0.24 -0.23,0.5 -0.32,0.77 0.37,0.18 0.77,0.31 1.17,0.4 0.04,0.01 0.07,0.02 0.11,0.02 0.23,0.05 0.46,0.07 0.71,0.09zm-2.29 -0.67c0.1,-0.29 0.22,-0.57 0.35,-0.83 0.21,-0.41 0.45,-0.76 0.7,-1.03 -0.76,0.22 -1.46,0.6 -2.06,1.13 0.24,0.22 0.5,0.41 0.78,0.58 0.03,0.02 0.07,0.04 0.1,0.06 0.05,0.03 0.09,0.05 0.14,0.08zm-0.32 0.26c-0.03,-0.02 -0.07,-0.04 -0.11,-0.06 -0.31,-0.19 -0.6,-0.41 -0.87,-0.66 -0.93,0.95 -1.46,2.18 -1.51,3.51l2.29 0c0.02,-0.97 0.15,-1.87 0.39,-2.68 -0.07,-0.04 -0.13,-0.07 -0.2,-0.11zm0.5 0.26c-0.22,0.76 -0.35,1.63 -0.36,2.53l2.48 0 0 -2.01c-0.29,-0.01 -0.52,-0.05 -0.77,-0.09 -0.04,-0.01 -0.08,-0.01 -0.12,-0.02 -0.42,-0.09 -0.83,-0.23 -1.22,-0.41zm2.51 0.53l0 2 2.5 0c-0.02,-0.86 -0.13,-1.7 -0.34,-2.44 -0.4,0.17 -0.82,0.29 -1.25,0.36 -0.03,0.01 -0.08,0.01 -0.12,0.02 -0.25,0.04 -0.53,0.06 -0.78,0.06zm2.47 -0.58c0.22,0.79 0.34,1.68 0.36,2.58l2.29 0c-0.05,-1.26 -0.54,-2.46 -1.4,-3.4 -0.29,0.25 -0.61,0.47 -0.94,0.66 -0.03,0.02 -0.07,0.04 -0.11,0.06 -0.07,0.04 -0.14,0.07 -0.21,0.1zm2.65 2.97l-2.29 0c-0.02,0.93 -0.14,1.78 -0.36,2.56 0.07,0.03 0.14,0.08 0.21,0.11 0.04,0.02 0.07,0.04 0.11,0.06 0.33,0.19 0.65,0.4 0.94,0.66 0.83,-0.9 1.34,-2.06 1.39,-3.39zm-2.95 2.42c0.2,-0.74 0.32,-1.56 0.34,-2.42l-2.5 0 0 1.99c0.25,0 0.53,0.02 0.78,0.06 0.05,0.01 0.09,0.01 0.13,0.02 0.43,0.07 0.85,0.19 1.25,0.36zm-2.56 -0.42l0 -2 -2.48 0c0.02,0.9 0.14,1.76 0.36,2.52 0.39,-0.18 0.8,-0.31 1.22,-0.4 0.04,-0.01 0.08,-0.02 0.12,-0.02 0.25,-0.05 0.48,-0.08 0.77,-0.09zm-2.41 0.67c-0.24,-0.8 -0.37,-1.7 -0.39,-2.67l-2.29 0c0.05,1.37 0.61,2.59 1.5,3.5 0.27,-0.25 0.57,-0.46 0.88,-0.66 0.04,-0.02 0.07,-0.05 0.11,-0.07 0.06,-0.04 0.13,-0.08 0.2,-0.11zm0.12 0.38c-0.05,0.02 -0.09,0.05 -0.14,0.08 -0.03,0.02 -0.07,0.04 -0.1,0.06 -0.28,0.17 -0.54,0.37 -0.78,0.59 0.58,0.52 1.29,0.91 2.07,1.13 -0.26,-0.27 -0.49,-0.62 -0.7,-1.03 -0.13,-0.26 -0.25,-0.53 -0.35,-0.83zm0.3 -0.15c0.09,0.27 0.2,0.53 0.32,0.77 0.35,0.69 0.77,1.17 1.22,1.4 0.14,0.02 0.27,0.03 0.41,0.04 0.01,0 0.01,0 0.04,0l0 -2.72c-0.25,0.01 -0.48,0.04 -0.71,0.09 -0.04,0.01 -0.08,0.01 -0.11,0.02 -0.41,0.09 -0.8,0.22 -1.17,0.4zm2.39 -0.52l0 2.73c0,0 0.04,-0 0.06,-0 0.14,-0.01 0.28,-0.02 0.41,-0.04 0.46,-0.23 0.88,-0.71 1.23,-1.4 0.13,-0.27 0.25,-0.55 0.35,-0.86 -0.38,-0.16 -0.78,-0.28 -1.19,-0.35 -0.04,-0.01 -0.08,-0.01 -0.12,-0.02 -0.24,-0.04 -0.48,-0.06 -0.73,-0.06zm2.35 0.57c-0.11,0.33 -0.24,0.64 -0.38,0.93 -0.21,0.41 -0.45,0.76 -0.7,1.03 0.84,-0.24 1.58,-0.67 2.19,-1.24 -0.26,-0.22 -0.55,-0.42 -0.85,-0.59 -0.04,-0.02 -0.07,-0.04 -0.1,-0.06 -0.05,-0.03 -0.1,-0.05 -0.15,-0.08z"></path> </g> </svg> 