<?xml version="1.0" encoding="UTF-8"?> <!-- Creator: CorelDRAW 2020 (64-Bit) --> <svg xmlns="http://www.w3.org/2000/svg" xmlns:xlink="http://www.w3.org/1999/xlink" xmlns:xodm="http://www.corel.com/coreldraw/odm/2003" xml:space="preserve" width="284.298mm" height="136.714mm" style="shape-rendering:geometricPrecision; text-rendering:geometricPrecision; image-rendering:optimizeQuality; fill-rule:evenodd; clip-rule:evenodd" viewBox="0 0 1073.55 516.25"> <defs> <style type="text/css"> <![CDATA[ .fil0 {fill:#8EAF0C;fill-rule:nonzero} ]]> </style> </defs> <g id="Слой_x0020_1"> <metadata id="CorelCorpID_0Corel-Layer"></metadata> <g id="_2522974523968"> <path class="fil0" d="M95.42 47.71c0,-26.35 -21.36,-47.71 -47.71,-47.71 -26.35,0 -47.72,21.36 -47.72,47.71 0,26.35 21.36,47.72 47.72,47.72 26.35,0 47.71,-21.36 47.71,-47.72z"></path> <polygon class="fil0" points="51.05,47.71 51.05,429.22 44.38,429.22 44.38,47.71 "></polygon> <path class="fil0" d="M51.05 429.22c0,22.19 8.99,42.29 23.54,56.83 14.54,14.54 34.63,23.54 56.82,23.54l0 6.66c-24.03,0 -45.79,-9.74 -61.53,-25.49 -15.75,-15.75 -25.49,-37.51 -25.49,-61.54l6.66 0z"></path> <polygon class="fil0" points="131.41,509.59 1073.55,509.59 1073.55,516.25 131.41,516.25 "></polygon> </g> </g> </svg> 