<?xml version="1.0" encoding="UTF-8"?> <!-- Creator: CorelDRAW 2018 (64-Bit) --> <svg xmlns="http://www.w3.org/2000/svg" xmlns:xlink="http://www.w3.org/1999/xlink" xml:space="preserve" width="46.2596mm" height="46.2593mm" style="shape-rendering:geometricPrecision; text-rendering:geometricPrecision; image-rendering:optimizeQuality; fill-rule:evenodd; clip-rule:evenodd" viewBox="0 0 115.11 115.11"> <defs> <style type="text/css"> <![CDATA[ .fil0 {fill:url(#id0);fill-rule:nonzero} .fil1 {fill:url(#id1);fill-rule:nonzero} ]]> </style> <linearGradient id="id0" gradientUnits="userSpaceOnUse" x1="52.41" y1="-97.03" x2="62.7" y2="216.95"> <stop offset="0" style="stop-opacity:1; stop-color:#B7E1F4"></stop> <stop offset="1" style="stop-opacity:1; stop-color:white"></stop> </linearGradient> <linearGradient id="id1" gradientUnits="userSpaceOnUse" xlink:href="#id0" x1="137.27" y1="140.22" x2="-22.17" y2="-21.63"> </linearGradient> </defs> <g id="Слой_x0020_1"> <metadata id="CorelCorpID_0Corel-Layer"></metadata> <g id="_1443096448"> <path class="fil0" d="M102.58 24.87l-7.2 2.97c-1.63,0.67 -3.49,0.23 -4.69,-1.06 -0.73,-0.79 -1.49,-1.55 -2.27,-2.28 -1.29,-1.2 -1.73,-3.06 -1.05,-4.69l2.99 -7.19c0.88,-2.13 -0.12,-4.57 -2.25,-5.45l-16.37 -6.81c-2.13,-0.88 -4.57,0.12 -5.45,2.25l-2.99 7.19c-0.68,1.63 -2.3,2.63 -4.07,2.56 -1.07,-0.04 -2.14,-0.04 -3.22,-0 -1.76,0.06 -3.39,-0.94 -4.06,-2.57l-2.97 -7.2c-0.88,-2.13 -3.32,-3.14 -5.45,-2.26l-16.39 6.76c-2.13,0.88 -3.14,3.32 -2.26,5.45l2.97 7.2c0.67,1.63 0.23,3.49 -1.06,4.69 -0.79,0.73 -1.55,1.49 -2.28,2.27 -1.2,1.29 -3.06,1.73 -4.69,1.05l-7.19 -2.99c-2.13,-0.88 -4.57,0.12 -5.45,2.25l-6.81 16.37c-0.88,2.13 0.12,4.57 2.25,5.45l7.19 2.99c1.63,0.68 2.63,2.3 2.56,4.07 -0.04,1.07 -0.04,2.14 -0,3.22 0.06,1.76 -0.94,3.39 -2.57,4.06l-7.2 2.97c-2.13,0.88 -3.14,3.32 -2.26,5.45l6.76 16.39c0.88,2.13 3.32,3.14 5.45,2.26l7.2 -2.97c1.63,-0.67 3.49,-0.23 4.69,1.06 0.73,0.79 1.49,1.55 2.27,2.28 1.29,1.2 1.73,3.06 1.05,4.69l-2.99 7.19c-0.88,2.13 0.12,4.57 2.25,5.45l16.37 6.81c2.13,0.88 4.57,-0.12 5.45,-2.25l2.99 -7.19c0.68,-1.63 2.3,-2.63 4.07,-2.56 1.07,0.04 2.14,0.04 3.22,0 1.76,-0.06 3.39,0.94 4.06,2.57l2.97 7.2c0.88,2.13 3.32,3.14 5.45,2.26l16.39 -6.76c2.13,-0.88 3.14,-3.32 2.26,-5.45l-2.97 -7.2c-0.67,-1.63 -0.23,-3.49 1.06,-4.69 0.79,-0.73 1.55,-1.49 2.28,-2.27 1.2,-1.29 3.06,-1.73 4.69,-1.05l7.19 2.99c2.13,0.88 4.57,-0.12 5.45,-2.25l6.81 -16.37c0.88,-2.13 -0.12,-4.57 -2.25,-5.45l-7.19 -2.99c-1.63,-0.68 -2.63,-2.3 -2.56,-4.07 0.04,-1.07 0.04,-2.14 0,-3.22 -0.06,-1.76 0.94,-3.39 2.57,-4.06l7.2 -2.97c2.13,-0.88 3.14,-3.32 2.26,-5.45l-6.76 -16.39c-0.88,-2.13 -3.32,-3.14 -5.45,-2.26zm-38.12 49.43l0 0c-9.25,3.82 -19.85,-0.59 -23.66,-9.84 -3.82,-9.25 0.59,-19.85 9.84,-23.66 9.25,-3.82 19.85,0.59 23.66,9.84 3.82,9.25 -0.59,19.85 -9.84,23.66z"></path> <path class="fil1" d="M41.68 19.09c-21.24,8.77 -31.36,33.09 -22.6,54.34 8.77,21.24 33.09,31.36 54.34,22.6 21.24,-8.77 31.36,-33.09 22.6,-54.34 -8.77,-21.24 -33.09,-31.36 -54.34,-22.6zm24.84 60.21l0 0c-12.01,4.95 -25.76,-0.76 -30.72,-12.77 -4.95,-12.01 0.76,-25.76 12.77,-30.72 12.01,-4.95 25.76,0.76 30.72,12.77 4.95,12.01 -0.76,25.76 -12.77,30.72z"></path> </g> </g> </svg> 