<?xml version="1.0" encoding="UTF-8"?> <!-- Creator: CorelDRAW 2020 (64-Bit) --> <svg xmlns="http://www.w3.org/2000/svg" xmlns:xlink="http://www.w3.org/1999/xlink" xmlns:xodm="http://www.corel.com/coreldraw/odm/2003" xml:space="preserve" width="268.111mm" height="81.5801mm" style="shape-rendering:geometricPrecision; text-rendering:geometricPrecision; image-rendering:optimizeQuality; fill-rule:evenodd; clip-rule:evenodd" viewBox="0 0 802.07 244.05"> <defs> <style type="text/css"> <![CDATA[ .str0 {stroke:#4D4D4D;stroke-width:1.06;stroke-miterlimit:22.9256} .fil2 {fill:none} .fil0 {fill:#F0F0F0} .fil1 {fill:#4D4D4D;fill-rule:nonzero} ]]> </style> </defs> <g id="Слой_x0020_1"> <metadata id="CorelCorpID_0Corel-Layer"></metadata> <rect class="fil0" x="0" y="0" width="401.04" height="244.05" rx="4.6" ry="9.39"></rect> <rect class="fil0" x="-0" y="0" width="802.07" height="244.05" rx="9.19" ry="9.39"></rect> <g id="_2217979612736"> <path class="fil1" d="M198.53 45.94l-1.61 1.73 0 4.29 -3.09 0 0 -15.01 3.09 0 0 6.8 1.36 -1.86 3.82 -4.94 3.81 0 -5.33 6.67 5.48 8.34 -3.68 0 -3.86 -6.02zm13.36 6.23c-0.87,0 -1.64,-0.14 -2.32,-0.43 -0.69,-0.28 -1.27,-0.67 -1.74,-1.15 -0.48,-0.49 -0.84,-1.06 -1.09,-1.71 -0.25,-0.66 -0.38,-1.36 -0.38,-2.11l0 -0.4c0,-0.84 0.12,-1.62 0.37,-2.33 0.24,-0.7 0.59,-1.31 1.04,-1.82 0.45,-0.51 1,-0.9 1.64,-1.19 0.64,-0.29 1.36,-0.43 2.16,-0.43 0.81,0 1.51,0.13 2.12,0.4 0.61,0.26 1.13,0.64 1.54,1.12 0.42,0.47 0.73,1.05 0.94,1.72 0.21,0.68 0.31,1.42 0.31,2.25l0 1.27 -7.1 0c0.05,0.37 0.15,0.7 0.3,0.99 0.15,0.3 0.34,0.55 0.57,0.76 0.23,0.21 0.5,0.37 0.81,0.49 0.31,0.12 0.65,0.18 1.04,0.18 0.54,0 1.04,-0.1 1.51,-0.3 0.46,-0.2 0.85,-0.52 1.18,-0.95l1.47 1.64c-0.18,0.26 -0.4,0.5 -0.67,0.74 -0.27,0.24 -0.58,0.46 -0.95,0.64 -0.37,0.19 -0.78,0.34 -1.23,0.45 -0.45,0.11 -0.96,0.17 -1.5,0.17zm-0.34 -9.15c-0.32,0 -0.61,0.06 -0.85,0.17 -0.24,0.12 -0.45,0.27 -0.63,0.48 -0.18,0.2 -0.32,0.45 -0.43,0.73 -0.11,0.28 -0.19,0.59 -0.24,0.94l4.14 0 0 -0.24c-0.01,-0.3 -0.05,-0.57 -0.13,-0.83 -0.08,-0.25 -0.2,-0.47 -0.36,-0.66 -0.16,-0.19 -0.37,-0.33 -0.62,-0.43 -0.25,-0.1 -0.55,-0.15 -0.89,-0.15zm10.65 4.73l2.06 -6.94 3.19 0 -4.46 12.82c-0.1,0.28 -0.24,0.59 -0.39,0.91 -0.16,0.33 -0.38,0.64 -0.65,0.93 -0.28,0.28 -0.62,0.52 -1.02,0.71 -0.41,0.19 -0.9,0.28 -1.5,0.28 -0.14,0 -0.26,-0 -0.37,-0.01 -0.11,-0.01 -0.21,-0.02 -0.32,-0.04 -0.1,-0.01 -0.2,-0.04 -0.3,-0.06 -0.1,-0.02 -0.21,-0.05 -0.32,-0.08l0 -2.26c0.07,0 0.15,0 0.23,0 0.08,0 0.15,0.01 0.22,0.01 0.3,0 0.55,-0.02 0.76,-0.07 0.21,-0.05 0.39,-0.12 0.54,-0.22 0.15,-0.1 0.28,-0.22 0.38,-0.38 0.1,-0.15 0.19,-0.33 0.27,-0.53l0.32 -0.83 -3.9 -11.18 3.2 0 2.07 6.94zm16.13 0.17l1.46 -7.1 2.87 0 -2.84 11.15 -2.49 0 -2.11 -7.02 -2.11 7.02 -2.48 0 -2.85 -11.15 2.87 0 1.46 7.09 2.04 -7.09 2.15 0 2.03 7.1zm5.35 -1.63c0,-0.81 0.12,-1.57 0.35,-2.26 0.23,-0.69 0.57,-1.29 1.02,-1.8 0.45,-0.51 1,-0.9 1.65,-1.19 0.66,-0.29 1.4,-0.43 2.24,-0.43 0.85,0 1.6,0.14 2.26,0.43 0.66,0.29 1.21,0.69 1.66,1.19 0.45,0.5 0.79,1.1 1.03,1.8 0.23,0.69 0.35,1.45 0.35,2.26l0 0.21c0,0.82 -0.12,1.57 -0.35,2.26 -0.24,0.69 -0.58,1.29 -1.03,1.79 -0.45,0.51 -1,0.9 -1.65,1.19 -0.65,0.29 -1.4,0.43 -2.25,0.43 -0.84,0 -1.59,-0.14 -2.25,-0.43 -0.65,-0.28 -1.21,-0.68 -1.66,-1.19 -0.45,-0.51 -0.79,-1.1 -1.02,-1.79 -0.23,-0.69 -0.35,-1.44 -0.35,-2.26l0 -0.21zm2.98 0.21c0,0.45 0.04,0.88 0.12,1.28 0.08,0.4 0.21,0.74 0.4,1.03 0.18,0.29 0.42,0.52 0.71,0.7 0.29,0.17 0.65,0.26 1.08,0.26 0.41,0 0.77,-0.08 1.06,-0.26 0.29,-0.17 0.53,-0.4 0.71,-0.7 0.19,-0.29 0.32,-0.64 0.4,-1.03 0.08,-0.4 0.12,-0.83 0.12,-1.28l0 -0.21c0,-0.44 -0.04,-0.86 -0.12,-1.25 -0.08,-0.4 -0.22,-0.74 -0.4,-1.04 -0.19,-0.3 -0.43,-0.53 -0.72,-0.71 -0.3,-0.18 -0.65,-0.26 -1.07,-0.26 -0.41,0 -0.76,0.09 -1.06,0.26 -0.29,0.18 -0.53,0.41 -0.71,0.71 -0.18,0.3 -0.31,0.64 -0.4,1.04 -0.08,0.39 -0.12,0.81 -0.12,1.25l0 0.21zm15.69 -2.9c-0.15,-0.02 -0.33,-0.04 -0.53,-0.06 -0.2,-0.02 -0.38,-0.02 -0.54,-0.02 -0.58,0 -1.06,0.1 -1.42,0.29 -0.36,0.2 -0.63,0.48 -0.8,0.85l0 7.3 -2.98 0 0 -11.15 2.81 0 0.08 1.33c0.28,-0.48 0.63,-0.86 1.04,-1.13 0.42,-0.27 0.89,-0.41 1.44,-0.41 0.16,0 0.33,0.01 0.5,0.04 0.17,0.03 0.32,0.06 0.43,0.1l-0.04 2.86zm0.77 2.7c0,-0.85 0.1,-1.62 0.3,-2.32 0.2,-0.7 0.48,-1.3 0.85,-1.8 0.37,-0.5 0.83,-0.89 1.37,-1.16 0.54,-0.28 1.16,-0.42 1.86,-0.42 0.57,0 1.08,0.11 1.52,0.32 0.44,0.21 0.83,0.51 1.17,0.9l0 -5.69 2.99 0 0 15.83 -2.69 0 -0.14 -1.19c-0.35,0.44 -0.76,0.78 -1.22,1.03 -0.47,0.24 -1.02,0.37 -1.64,0.37 -0.69,0 -1.3,-0.14 -1.84,-0.43 -0.54,-0.28 -1,-0.68 -1.37,-1.18 -0.37,-0.5 -0.65,-1.1 -0.85,-1.79 -0.2,-0.69 -0.3,-1.44 -0.3,-2.25l0 -0.21zm2.98 0.21c0,0.45 0.04,0.88 0.11,1.27 0.08,0.39 0.2,0.74 0.37,1.03 0.17,0.29 0.39,0.52 0.66,0.69 0.27,0.17 0.6,0.25 1,0.25 0.48,0 0.88,-0.1 1.2,-0.31 0.32,-0.2 0.57,-0.49 0.75,-0.85l0 -4.4c-0.18,-0.37 -0.43,-0.66 -0.75,-0.86 -0.32,-0.2 -0.71,-0.3 -1.18,-0.3 -0.39,0 -0.72,0.08 -1,0.25 -0.27,0.17 -0.5,0.4 -0.67,0.69 -0.17,0.3 -0.29,0.64 -0.37,1.04 -0.08,0.4 -0.12,0.83 -0.12,1.29l0 0.21zm-191.93 48.91l-7.02 0 0 6.12 8.07 0 0 1.07 -9.34 0 0 -15.01 9.29 0 0 1.08 -8.02 0 0 5.66 7.02 0 0 1.07zm4.61 -3.96l0.04 1.91c0.19,-0.32 0.41,-0.6 0.66,-0.87 0.25,-0.26 0.53,-0.49 0.84,-0.67 0.31,-0.19 0.64,-0.33 1,-0.43 0.36,-0.1 0.74,-0.15 1.13,-0.15 0.56,0 1.06,0.08 1.5,0.23 0.44,0.15 0.81,0.39 1.12,0.72 0.3,0.33 0.54,0.75 0.7,1.27 0.16,0.52 0.24,1.14 0.24,1.88l0 7.26 -1.23 0 0 -7.26c0,-0.58 -0.06,-1.06 -0.19,-1.45 -0.12,-0.38 -0.3,-0.69 -0.52,-0.93 -0.23,-0.24 -0.5,-0.4 -0.83,-0.5 -0.33,-0.1 -0.69,-0.15 -1.09,-0.15 -0.44,0 -0.84,0.07 -1.2,0.22 -0.36,0.15 -0.67,0.34 -0.95,0.59 -0.27,0.25 -0.51,0.53 -0.71,0.85 -0.2,0.32 -0.36,0.65 -0.47,0.98l0 7.64 -1.23 0 0 -11.15 1.18 0zm9.92 5.47c0,-0.87 0.1,-1.65 0.3,-2.35 0.2,-0.7 0.49,-1.29 0.86,-1.79 0.37,-0.5 0.82,-0.88 1.35,-1.14 0.53,-0.27 1.13,-0.4 1.8,-0.4 0.79,0 1.47,0.16 2.04,0.48 0.57,0.32 1.03,0.75 1.41,1.31l0 -6.25 1.22 0 0 15.83 -1.15 0 -0.05 -1.48c-0.37,0.53 -0.84,0.94 -1.41,1.24 -0.58,0.3 -1.26,0.45 -2.07,0.45 -0.66,0 -1.25,-0.14 -1.78,-0.42 -0.53,-0.28 -0.98,-0.67 -1.35,-1.16 -0.37,-0.5 -0.66,-1.09 -0.86,-1.79 -0.2,-0.7 -0.3,-1.46 -0.3,-2.3l0 -0.21zm1.25 0.21c0,0.65 0.06,1.26 0.2,1.82 0.13,0.56 0.33,1.05 0.59,1.46 0.27,0.41 0.61,0.74 1.02,0.97 0.41,0.24 0.89,0.35 1.46,0.35 0.42,0 0.8,-0.05 1.14,-0.15 0.34,-0.1 0.64,-0.24 0.91,-0.42 0.26,-0.18 0.5,-0.39 0.69,-0.64 0.2,-0.25 0.36,-0.51 0.5,-0.8l0 -5.24c-0.13,-0.28 -0.28,-0.55 -0.45,-0.81 -0.18,-0.26 -0.4,-0.49 -0.66,-0.7 -0.26,-0.2 -0.56,-0.36 -0.91,-0.49 -0.34,-0.12 -0.74,-0.18 -1.2,-0.18 -0.57,0 -1.06,0.12 -1.47,0.36 -0.41,0.24 -0.75,0.56 -1.02,0.97 -0.27,0.41 -0.46,0.9 -0.59,1.46 -0.13,0.56 -0.2,1.17 -0.2,1.81l0 0.21zm12.36 5.46l-1.24 0 0 -15.83 1.24 0 0 15.83zm7.67 0.21c-0.73,0 -1.4,-0.14 -2.01,-0.41 -0.61,-0.27 -1.14,-0.65 -1.58,-1.13 -0.44,-0.49 -0.79,-1.06 -1.04,-1.73 -0.25,-0.67 -0.37,-1.4 -0.37,-2.19l0 -0.44c0,-0.86 0.13,-1.64 0.39,-2.34 0.26,-0.7 0.61,-1.29 1.04,-1.78 0.44,-0.49 0.95,-0.87 1.52,-1.14 0.57,-0.27 1.18,-0.4 1.82,-0.4 0.71,0 1.34,0.13 1.89,0.38 0.55,0.25 1.01,0.61 1.39,1.06 0.38,0.45 0.66,0.99 0.85,1.62 0.19,0.62 0.29,1.31 0.29,2.05l0 0.75 -7.96 0 0 0.24c0,0.61 0.09,1.19 0.28,1.73 0.19,0.54 0.45,1.01 0.78,1.4 0.34,0.4 0.74,0.71 1.21,0.95 0.47,0.23 0.99,0.34 1.56,0.34 0.66,0 1.24,-0.12 1.75,-0.36 0.5,-0.24 0.96,-0.63 1.38,-1.15l0.77 0.59c-0.19,0.27 -0.4,0.52 -0.64,0.76 -0.25,0.24 -0.53,0.45 -0.85,0.63 -0.32,0.18 -0.69,0.32 -1.09,0.43 -0.4,0.1 -0.86,0.15 -1.36,0.15zm-0.23 -10.52c-0.47,0 -0.9,0.09 -1.3,0.27 -0.4,0.18 -0.75,0.44 -1.06,0.76 -0.31,0.33 -0.56,0.73 -0.75,1.19 -0.2,0.46 -0.33,0.97 -0.4,1.54l6.69 0 0 -0.13c-0.01,-0.47 -0.09,-0.92 -0.22,-1.36 -0.14,-0.44 -0.34,-0.82 -0.6,-1.16 -0.27,-0.34 -0.59,-0.61 -0.99,-0.81 -0.39,-0.2 -0.85,-0.31 -1.37,-0.31zm13.49 7.47c0,-0.23 -0.04,-0.45 -0.12,-0.68 -0.08,-0.23 -0.23,-0.44 -0.44,-0.64 -0.22,-0.2 -0.52,-0.39 -0.91,-0.57 -0.39,-0.18 -0.89,-0.33 -1.51,-0.46 -0.62,-0.13 -1.17,-0.28 -1.65,-0.45 -0.49,-0.17 -0.89,-0.38 -1.23,-0.62 -0.33,-0.24 -0.59,-0.53 -0.76,-0.87 -0.17,-0.34 -0.26,-0.73 -0.26,-1.19 0,-0.41 0.09,-0.81 0.27,-1.18 0.18,-0.37 0.44,-0.7 0.78,-0.97 0.34,-0.27 0.75,-0.49 1.23,-0.65 0.49,-0.16 1.03,-0.24 1.64,-0.24 0.64,0 1.22,0.08 1.73,0.25 0.51,0.17 0.95,0.4 1.3,0.7 0.36,0.3 0.63,0.65 0.81,1.06 0.19,0.4 0.28,0.84 0.28,1.32l-1.24 0c0,-0.29 -0.06,-0.57 -0.19,-0.84 -0.13,-0.28 -0.31,-0.52 -0.56,-0.73 -0.25,-0.21 -0.55,-0.38 -0.91,-0.51 -0.36,-0.13 -0.77,-0.2 -1.23,-0.2 -0.48,0 -0.89,0.06 -1.23,0.18 -0.34,0.12 -0.62,0.27 -0.83,0.45 -0.21,0.19 -0.37,0.39 -0.47,0.62 -0.1,0.23 -0.15,0.46 -0.15,0.7 0,0.25 0.04,0.47 0.11,0.68 0.08,0.2 0.22,0.39 0.44,0.57 0.21,0.18 0.52,0.34 0.91,0.49 0.39,0.15 0.89,0.29 1.52,0.44 0.67,0.16 1.25,0.33 1.74,0.53 0.49,0.19 0.89,0.42 1.21,0.68 0.32,0.27 0.56,0.57 0.71,0.91 0.15,0.34 0.23,0.74 0.23,1.18 0,0.46 -0.1,0.88 -0.29,1.26 -0.19,0.38 -0.47,0.71 -0.82,0.98 -0.36,0.27 -0.79,0.48 -1.3,0.63 -0.51,0.15 -1.07,0.23 -1.7,0.23 -0.71,0 -1.33,-0.09 -1.88,-0.27 -0.54,-0.18 -1,-0.43 -1.37,-0.74 -0.37,-0.31 -0.65,-0.66 -0.84,-1.07 -0.19,-0.4 -0.28,-0.82 -0.28,-1.25l1.23 0c0.03,0.44 0.14,0.81 0.34,1.1 0.2,0.29 0.45,0.53 0.74,0.7 0.3,0.18 0.62,0.3 0.99,0.38 0.36,0.08 0.72,0.12 1.07,0.12 0.47,0 0.88,-0.06 1.24,-0.17 0.36,-0.11 0.66,-0.26 0.9,-0.44 0.24,-0.19 0.43,-0.4 0.55,-0.64 0.12,-0.24 0.18,-0.49 0.18,-0.75zm10.69 0c0,-0.23 -0.04,-0.45 -0.12,-0.68 -0.08,-0.23 -0.23,-0.44 -0.44,-0.64 -0.22,-0.2 -0.52,-0.39 -0.91,-0.57 -0.39,-0.18 -0.89,-0.33 -1.51,-0.46 -0.62,-0.13 -1.17,-0.28 -1.65,-0.45 -0.49,-0.17 -0.89,-0.38 -1.23,-0.62 -0.33,-0.24 -0.59,-0.53 -0.76,-0.87 -0.17,-0.34 -0.26,-0.73 -0.26,-1.19 0,-0.41 0.09,-0.81 0.27,-1.18 0.18,-0.37 0.44,-0.7 0.78,-0.97 0.34,-0.27 0.75,-0.49 1.23,-0.65 0.49,-0.16 1.03,-0.24 1.64,-0.24 0.64,0 1.22,0.08 1.73,0.25 0.51,0.17 0.95,0.4 1.3,0.7 0.36,0.3 0.63,0.65 0.81,1.06 0.19,0.4 0.28,0.84 0.28,1.32l-1.24 0c0,-0.29 -0.06,-0.57 -0.19,-0.84 -0.13,-0.28 -0.31,-0.52 -0.56,-0.73 -0.25,-0.21 -0.55,-0.38 -0.91,-0.51 -0.36,-0.13 -0.77,-0.2 -1.23,-0.2 -0.48,0 -0.89,0.06 -1.23,0.18 -0.34,0.12 -0.62,0.27 -0.83,0.45 -0.21,0.19 -0.37,0.39 -0.47,0.62 -0.1,0.23 -0.15,0.46 -0.15,0.7 0,0.25 0.04,0.47 0.11,0.68 0.08,0.2 0.22,0.39 0.44,0.57 0.21,0.18 0.52,0.34 0.91,0.49 0.39,0.15 0.89,0.29 1.52,0.44 0.67,0.16 1.25,0.33 1.74,0.53 0.49,0.19 0.89,0.42 1.21,0.68 0.32,0.27 0.56,0.57 0.71,0.91 0.15,0.34 0.23,0.74 0.23,1.18 0,0.46 -0.1,0.88 -0.29,1.26 -0.19,0.38 -0.47,0.71 -0.82,0.98 -0.36,0.27 -0.79,0.48 -1.3,0.63 -0.51,0.15 -1.07,0.23 -1.7,0.23 -0.71,0 -1.33,-0.09 -1.88,-0.27 -0.54,-0.18 -1,-0.43 -1.37,-0.74 -0.37,-0.31 -0.65,-0.66 -0.84,-1.07 -0.19,-0.4 -0.28,-0.82 -0.28,-1.25l1.23 0c0.03,0.44 0.14,0.81 0.34,1.1 0.2,0.29 0.45,0.53 0.74,0.7 0.3,0.18 0.62,0.3 0.99,0.38 0.36,0.08 0.72,0.12 1.07,0.12 0.47,0 0.88,-0.06 1.24,-0.17 0.36,-0.11 0.66,-0.26 0.9,-0.44 0.24,-0.19 0.43,-0.4 0.55,-0.64 0.12,-0.24 0.18,-0.49 0.18,-0.75zm8.65 -2.84c0,-0.87 0.1,-1.65 0.3,-2.35 0.2,-0.7 0.48,-1.29 0.85,-1.79 0.37,-0.5 0.82,-0.88 1.35,-1.14 0.53,-0.27 1.14,-0.4 1.81,-0.4 0.8,0 1.48,0.16 2.05,0.48 0.57,0.32 1.04,0.76 1.41,1.33l0.06 -1.61 1.15 0 0 10.95c0,0.72 -0.11,1.37 -0.32,1.95 -0.21,0.57 -0.51,1.06 -0.9,1.46 -0.39,0.4 -0.86,0.7 -1.41,0.92 -0.55,0.21 -1.16,0.32 -1.84,0.32 -0.35,0 -0.71,-0.04 -1.07,-0.12 -0.37,-0.08 -0.72,-0.2 -1.06,-0.36 -0.34,-0.16 -0.66,-0.36 -0.96,-0.59 -0.3,-0.24 -0.57,-0.52 -0.79,-0.84l0.69 -0.74c0.45,0.56 0.94,0.96 1.45,1.22 0.51,0.26 1.06,0.39 1.67,0.39 0.53,0 1,-0.08 1.41,-0.24 0.41,-0.16 0.75,-0.39 1.04,-0.7 0.28,-0.31 0.5,-0.68 0.64,-1.12 0.15,-0.44 0.22,-0.93 0.22,-1.49l0 -1.3c-0.37,0.51 -0.84,0.92 -1.41,1.21 -0.57,0.29 -1.25,0.44 -2.04,0.44 -0.67,0 -1.26,-0.14 -1.79,-0.42 -0.53,-0.28 -0.98,-0.67 -1.35,-1.16 -0.37,-0.5 -0.65,-1.09 -0.85,-1.79 -0.2,-0.7 -0.3,-1.46 -0.3,-2.3l0 -0.21zm1.25 0.21c0,0.65 0.06,1.26 0.2,1.82 0.13,0.56 0.33,1.05 0.59,1.46 0.27,0.41 0.61,0.74 1.02,0.97 0.41,0.24 0.89,0.35 1.46,0.35 0.43,0 0.81,-0.05 1.15,-0.15 0.34,-0.1 0.64,-0.25 0.9,-0.43 0.26,-0.18 0.49,-0.39 0.68,-0.64 0.19,-0.25 0.36,-0.52 0.5,-0.81l0 -5.19c-0.12,-0.29 -0.27,-0.56 -0.45,-0.83 -0.18,-0.26 -0.4,-0.5 -0.66,-0.7 -0.26,-0.2 -0.56,-0.36 -0.9,-0.49 -0.34,-0.12 -0.74,-0.18 -1.2,-0.18 -0.57,0 -1.06,0.12 -1.47,0.36 -0.41,0.24 -0.75,0.56 -1.02,0.97 -0.27,0.41 -0.46,0.9 -0.59,1.46 -0.13,0.56 -0.2,1.17 -0.2,1.81l0 0.21zm17.99 5.46c-0.07,-0.19 -0.12,-0.43 -0.16,-0.71 -0.04,-0.28 -0.06,-0.56 -0.08,-0.85 -0.19,0.24 -0.41,0.46 -0.66,0.68 -0.25,0.21 -0.54,0.4 -0.85,0.56 -0.32,0.16 -0.66,0.28 -1.04,0.38 -0.38,0.09 -0.79,0.14 -1.23,0.14 -0.54,0 -1.03,-0.08 -1.48,-0.24 -0.44,-0.16 -0.82,-0.38 -1.13,-0.66 -0.31,-0.29 -0.56,-0.62 -0.73,-1 -0.17,-0.39 -0.26,-0.81 -0.26,-1.26 0,-0.54 0.12,-1.03 0.35,-1.47 0.23,-0.44 0.57,-0.81 1.01,-1.12 0.44,-0.31 0.97,-0.54 1.6,-0.7 0.63,-0.16 1.34,-0.24 2.12,-0.24l2.29 0 0 -1.27c0,-0.8 -0.25,-1.42 -0.74,-1.88 -0.49,-0.46 -1.21,-0.69 -2.15,-0.69 -0.43,0 -0.83,0.06 -1.19,0.18 -0.37,0.12 -0.68,0.28 -0.95,0.49 -0.26,0.2 -0.47,0.44 -0.62,0.71 -0.15,0.27 -0.22,0.56 -0.22,0.87l-1.24 -0.01c0,-0.42 0.1,-0.82 0.31,-1.22 0.21,-0.39 0.5,-0.74 0.87,-1.04 0.37,-0.31 0.82,-0.55 1.35,-0.74 0.53,-0.19 1.11,-0.28 1.75,-0.28 0.59,0 1.14,0.08 1.63,0.23 0.5,0.15 0.93,0.38 1.28,0.68 0.36,0.3 0.64,0.68 0.83,1.14 0.2,0.45 0.3,0.98 0.3,1.59l0 5.4c0,0.19 0.01,0.39 0.02,0.6 0.01,0.2 0.04,0.4 0.07,0.6 0.03,0.19 0.07,0.38 0.11,0.55 0.04,0.18 0.09,0.33 0.14,0.46l0 0.12 -1.32 0zm-3.88 -0.89c0.45,0 0.86,-0.06 1.24,-0.17 0.38,-0.12 0.73,-0.27 1.04,-0.47 0.31,-0.2 0.58,-0.43 0.8,-0.69 0.23,-0.27 0.41,-0.55 0.55,-0.86l0 -2.45 -2.11 0c-0.63,0 -1.2,0.06 -1.7,0.17 -0.5,0.11 -0.92,0.28 -1.26,0.49 -0.34,0.21 -0.6,0.47 -0.79,0.78 -0.18,0.31 -0.27,0.65 -0.27,1.04 0,0.3 0.06,0.58 0.17,0.85 0.12,0.26 0.28,0.49 0.5,0.69 0.22,0.2 0.48,0.35 0.79,0.46 0.31,0.11 0.65,0.17 1.04,0.17zm9.27 -10.27l0.04 1.82c0.19,-0.3 0.4,-0.58 0.64,-0.83 0.25,-0.25 0.52,-0.46 0.82,-0.64 0.3,-0.18 0.63,-0.31 0.99,-0.41 0.36,-0.09 0.74,-0.14 1.16,-0.14 0.82,0 1.52,0.17 2.1,0.52 0.58,0.34 1,0.89 1.25,1.65 0.18,-0.31 0.39,-0.6 0.64,-0.86 0.25,-0.26 0.53,-0.49 0.85,-0.69 0.32,-0.19 0.67,-0.34 1.06,-0.45 0.39,-0.11 0.8,-0.17 1.25,-0.17 0.58,0 1.09,0.08 1.54,0.23 0.45,0.15 0.84,0.4 1.15,0.73 0.31,0.33 0.55,0.76 0.71,1.27 0.17,0.52 0.25,1.13 0.25,1.86l0 7.26 -1.24 0 0 -7.27c0,-0.59 -0.06,-1.08 -0.19,-1.47 -0.13,-0.39 -0.32,-0.7 -0.56,-0.93 -0.24,-0.23 -0.53,-0.39 -0.86,-0.48 -0.33,-0.09 -0.7,-0.13 -1.1,-0.13 -0.52,0.01 -0.98,0.1 -1.37,0.28 -0.39,0.18 -0.72,0.41 -1,0.69 -0.27,0.28 -0.48,0.59 -0.63,0.93 -0.15,0.34 -0.24,0.68 -0.27,1l0 7.38 -1.24 0 0 -7.37c0,-0.56 -0.06,-1.02 -0.19,-1.39 -0.13,-0.37 -0.32,-0.67 -0.56,-0.9 -0.24,-0.23 -0.53,-0.39 -0.86,-0.49 -0.33,-0.1 -0.7,-0.14 -1.11,-0.14 -0.47,0 -0.88,0.07 -1.24,0.22 -0.36,0.15 -0.67,0.34 -0.93,0.59 -0.26,0.25 -0.48,0.53 -0.65,0.84 -0.17,0.32 -0.31,0.64 -0.41,0.98l0 7.65 -1.23 0 0 -11.15 1.18 0zm21.9 11.36c-0.73,0 -1.4,-0.14 -2.01,-0.41 -0.61,-0.27 -1.14,-0.65 -1.58,-1.13 -0.44,-0.49 -0.79,-1.06 -1.04,-1.73 -0.25,-0.67 -0.37,-1.4 -0.37,-2.19l0 -0.44c0,-0.86 0.13,-1.64 0.39,-2.34 0.26,-0.7 0.61,-1.29 1.04,-1.78 0.44,-0.49 0.95,-0.87 1.52,-1.14 0.57,-0.27 1.18,-0.4 1.82,-0.4 0.71,0 1.34,0.13 1.89,0.38 0.55,0.25 1.01,0.61 1.39,1.06 0.38,0.45 0.66,0.99 0.85,1.62 0.19,0.62 0.29,1.31 0.29,2.05l0 0.75 -7.96 0 0 0.24c0,0.61 0.09,1.19 0.28,1.73 0.19,0.54 0.45,1.01 0.78,1.4 0.34,0.4 0.74,0.71 1.21,0.95 0.47,0.23 0.99,0.34 1.56,0.34 0.66,0 1.24,-0.12 1.75,-0.36 0.5,-0.24 0.96,-0.63 1.38,-1.15l0.77 0.59c-0.19,0.27 -0.4,0.52 -0.64,0.76 -0.25,0.24 -0.53,0.45 -0.85,0.63 -0.32,0.18 -0.69,0.32 -1.09,0.43 -0.4,0.1 -0.86,0.15 -1.36,0.15zm-0.23 -10.52c-0.47,0 -0.9,0.09 -1.3,0.27 -0.4,0.18 -0.75,0.44 -1.06,0.76 -0.31,0.33 -0.56,0.73 -0.75,1.19 -0.2,0.46 -0.33,0.97 -0.4,1.54l6.69 0 0 -0.13c-0.01,-0.47 -0.09,-0.92 -0.22,-1.36 -0.14,-0.44 -0.34,-0.82 -0.6,-1.16 -0.27,-0.34 -0.59,-0.61 -0.99,-0.81 -0.39,-0.2 -0.85,-0.31 -1.37,-0.31zm12.83 10.31l0 -10.14 -1.84 0 0 -1.01 1.84 0 0 -1.38c0,-0.56 0.08,-1.06 0.23,-1.5 0.15,-0.44 0.37,-0.81 0.65,-1.1 0.29,-0.3 0.63,-0.52 1.04,-0.68 0.4,-0.15 0.87,-0.23 1.38,-0.23 0.21,0 0.43,0.01 0.65,0.04 0.22,0.03 0.44,0.07 0.65,0.13l-0.09 1.03c-0.17,-0.04 -0.34,-0.07 -0.52,-0.09 -0.18,-0.02 -0.38,-0.03 -0.6,-0.03 -0.68,0 -1.21,0.21 -1.59,0.63 -0.38,0.42 -0.57,1.02 -0.57,1.8l0 1.38 2.66 0 0 1.01 -2.66 0 0 10.14 -1.24 0zm5.42 -5.74c0,-0.81 0.12,-1.56 0.36,-2.25 0.24,-0.69 0.57,-1.28 1,-1.78 0.43,-0.5 0.96,-0.89 1.57,-1.17 0.61,-0.29 1.29,-0.43 2.04,-0.43 0.76,0 1.45,0.14 2.06,0.43 0.62,0.28 1.14,0.67 1.57,1.17 0.43,0.5 0.77,1.09 1,1.78 0.24,0.69 0.35,1.44 0.35,2.25l0 0.34c0,0.81 -0.12,1.56 -0.35,2.24 -0.23,0.69 -0.57,1.28 -1,1.78 -0.43,0.5 -0.95,0.89 -1.57,1.16 -0.61,0.28 -1.29,0.42 -2.05,0.42 -0.76,0 -1.44,-0.14 -2.05,-0.42 -0.61,-0.28 -1.14,-0.67 -1.57,-1.16 -0.44,-0.5 -0.77,-1.09 -1.01,-1.78 -0.24,-0.69 -0.36,-1.44 -0.36,-2.24l0 -0.34zm1.23 0.34c0,0.61 0.08,1.19 0.25,1.74 0.16,0.56 0.4,1.04 0.72,1.45 0.32,0.42 0.71,0.75 1.17,1 0.46,0.25 1,0.37 1.61,0.37 0.61,0 1.14,-0.12 1.6,-0.37 0.46,-0.25 0.85,-0.58 1.17,-1 0.32,-0.42 0.56,-0.9 0.72,-1.45 0.17,-0.55 0.25,-1.13 0.25,-1.74l0 -0.34c0,-0.6 -0.08,-1.17 -0.25,-1.73 -0.17,-0.55 -0.4,-1.04 -0.72,-1.46 -0.32,-0.42 -0.71,-0.75 -1.18,-1.01 -0.47,-0.25 -1.01,-0.38 -1.61,-0.38 -0.6,0 -1.13,0.13 -1.59,0.38 -0.46,0.25 -0.85,0.59 -1.17,1.01 -0.32,0.42 -0.56,0.9 -0.72,1.46 -0.17,0.56 -0.25,1.13 -0.25,1.73l0 0.34zm16.42 -4.7c-0.26,-0.05 -0.54,-0.07 -0.83,-0.07 -0.42,0 -0.8,0.06 -1.14,0.19 -0.33,0.12 -0.63,0.3 -0.89,0.52 -0.26,0.22 -0.47,0.49 -0.65,0.79 -0.17,0.31 -0.31,0.64 -0.42,1.01l0 7.66 -1.23 0 0 -11.15 1.21 0 0.02 1.77c0.3,-0.61 0.71,-1.09 1.23,-1.45 0.52,-0.35 1.15,-0.53 1.91,-0.53 0.15,0 0.31,0.01 0.46,0.04 0.16,0.03 0.27,0.06 0.35,0.1l-0.03 1.12z"></path> <path class="fil1" d="M240.84 97.16c0,0.84 -0.1,1.6 -0.29,2.3 -0.19,0.69 -0.46,1.29 -0.83,1.79 -0.36,0.5 -0.81,0.89 -1.34,1.16 -0.53,0.28 -1.13,0.42 -1.8,0.42 -0.82,0 -1.52,-0.15 -2.1,-0.46 -0.58,-0.31 -1.06,-0.73 -1.43,-1.27l-0.05 1.53 -1.15 0 0 -15.83 1.23 0 0 6.3c0.37,-0.58 0.84,-1.02 1.41,-1.34 0.57,-0.32 1.26,-0.48 2.07,-0.48 0.68,0 1.28,0.14 1.82,0.4 0.53,0.27 0.97,0.65 1.34,1.14 0.37,0.5 0.65,1.09 0.83,1.79 0.19,0.7 0.29,1.48 0.29,2.35l0 0.21zm-1.24 -0.21c0,-0.65 -0.06,-1.25 -0.18,-1.81 -0.13,-0.56 -0.32,-1.05 -0.58,-1.46 -0.26,-0.41 -0.6,-0.74 -1.02,-0.97 -0.41,-0.24 -0.9,-0.36 -1.48,-0.36 -0.47,0 -0.88,0.06 -1.24,0.19 -0.36,0.13 -0.67,0.3 -0.93,0.51 -0.26,0.21 -0.48,0.46 -0.66,0.73 -0.18,0.27 -0.32,0.56 -0.43,0.86l0 5.03c0.13,0.3 0.29,0.57 0.49,0.83 0.2,0.26 0.43,0.48 0.7,0.67 0.27,0.19 0.57,0.34 0.92,0.44 0.34,0.11 0.74,0.16 1.17,0.16 0.56,0 1.04,-0.12 1.45,-0.35 0.41,-0.23 0.75,-0.56 1.02,-0.97 0.27,-0.41 0.46,-0.9 0.59,-1.46 0.13,-0.56 0.19,-1.16 0.19,-1.82l0 -0.21zm3.28 -0.06c0,-0.81 0.12,-1.56 0.36,-2.25 0.24,-0.69 0.57,-1.28 1,-1.78 0.43,-0.5 0.96,-0.89 1.57,-1.17 0.61,-0.29 1.29,-0.43 2.04,-0.43 0.76,0 1.45,0.14 2.06,0.43 0.62,0.28 1.14,0.67 1.57,1.17 0.43,0.5 0.77,1.09 1,1.78 0.24,0.69 0.35,1.44 0.35,2.25l0 0.34c0,0.81 -0.12,1.56 -0.35,2.24 -0.23,0.69 -0.57,1.28 -1,1.78 -0.43,0.5 -0.95,0.89 -1.57,1.16 -0.61,0.28 -1.29,0.42 -2.05,0.42 -0.76,0 -1.44,-0.14 -2.05,-0.42 -0.61,-0.28 -1.14,-0.67 -1.57,-1.16 -0.44,-0.5 -0.77,-1.09 -1.01,-1.78 -0.24,-0.69 -0.36,-1.44 -0.36,-2.24l0 -0.34zm1.23 0.34c0,0.61 0.08,1.19 0.25,1.74 0.16,0.56 0.4,1.04 0.72,1.45 0.32,0.42 0.71,0.75 1.17,1 0.46,0.25 1,0.37 1.61,0.37 0.61,0 1.14,-0.12 1.6,-0.37 0.46,-0.25 0.85,-0.58 1.17,-1 0.32,-0.42 0.56,-0.9 0.72,-1.45 0.17,-0.55 0.25,-1.13 0.25,-1.74l0 -0.34c0,-0.6 -0.08,-1.17 -0.25,-1.73 -0.17,-0.55 -0.4,-1.04 -0.72,-1.46 -0.32,-0.42 -0.71,-0.75 -1.18,-1.01 -0.47,-0.25 -1.01,-0.38 -1.61,-0.38 -0.6,0 -1.13,0.13 -1.59,0.38 -0.46,0.25 -0.85,0.59 -1.17,1.01 -0.32,0.42 -0.56,0.9 -0.72,1.46 -0.17,0.56 -0.25,1.13 -0.25,1.73l0 0.34zm14.64 3.63l3.26 -9.38 1.33 0 -4.72 12.94c-0.09,0.25 -0.22,0.54 -0.37,0.85 -0.15,0.32 -0.34,0.61 -0.58,0.89 -0.24,0.27 -0.53,0.51 -0.89,0.7 -0.36,0.19 -0.78,0.28 -1.29,0.28 -0.07,0 -0.15,-0 -0.24,-0.01 -0.09,-0.01 -0.18,-0.02 -0.27,-0.04 -0.09,-0.01 -0.18,-0.03 -0.25,-0.05 -0.08,-0.01 -0.14,-0.03 -0.19,-0.05l-0.01 -1.02c0.08,0.01 0.19,0.03 0.33,0.04 0.14,0.01 0.24,0.02 0.3,0.02 0.33,0 0.62,-0.04 0.88,-0.13 0.26,-0.08 0.48,-0.21 0.66,-0.38 0.19,-0.17 0.36,-0.38 0.5,-0.63 0.14,-0.26 0.28,-0.55 0.39,-0.88l0.53 -1.47 -4.2 -11.06 1.35 0 3.46 9.38zm13.17 -1.06c0,-0.23 -0.04,-0.45 -0.12,-0.68 -0.08,-0.23 -0.23,-0.44 -0.44,-0.64 -0.22,-0.2 -0.52,-0.39 -0.91,-0.57 -0.39,-0.18 -0.89,-0.33 -1.51,-0.46 -0.62,-0.13 -1.17,-0.28 -1.65,-0.45 -0.49,-0.17 -0.89,-0.38 -1.23,-0.62 -0.33,-0.24 -0.59,-0.53 -0.76,-0.87 -0.17,-0.34 -0.26,-0.73 -0.26,-1.19 0,-0.41 0.09,-0.81 0.27,-1.18 0.18,-0.37 0.44,-0.7 0.78,-0.97 0.34,-0.27 0.75,-0.49 1.23,-0.65 0.49,-0.16 1.03,-0.24 1.64,-0.24 0.64,0 1.22,0.08 1.73,0.25 0.51,0.17 0.95,0.4 1.3,0.7 0.36,0.3 0.63,0.65 0.81,1.06 0.19,0.4 0.28,0.84 0.28,1.32l-1.24 0c0,-0.29 -0.06,-0.57 -0.19,-0.84 -0.13,-0.28 -0.31,-0.52 -0.56,-0.73 -0.25,-0.21 -0.55,-0.38 -0.91,-0.51 -0.36,-0.13 -0.77,-0.2 -1.23,-0.2 -0.48,0 -0.89,0.06 -1.23,0.18 -0.34,0.12 -0.62,0.27 -0.83,0.45 -0.21,0.19 -0.37,0.39 -0.47,0.62 -0.1,0.23 -0.15,0.46 -0.15,0.7 0,0.25 0.04,0.47 0.11,0.68 0.08,0.2 0.22,0.39 0.44,0.57 0.21,0.18 0.52,0.34 0.91,0.49 0.39,0.15 0.89,0.29 1.52,0.44 0.67,0.16 1.25,0.33 1.74,0.53 0.49,0.19 0.89,0.42 1.21,0.68 0.32,0.27 0.56,0.57 0.71,0.91 0.15,0.34 0.23,0.74 0.23,1.18 0,0.46 -0.1,0.88 -0.29,1.26 -0.19,0.38 -0.47,0.71 -0.82,0.98 -0.36,0.27 -0.79,0.48 -1.3,0.63 -0.51,0.15 -1.07,0.23 -1.7,0.23 -0.71,0 -1.33,-0.09 -1.88,-0.27 -0.54,-0.18 -1,-0.43 -1.37,-0.74 -0.37,-0.31 -0.65,-0.66 -0.84,-1.07 -0.19,-0.4 -0.28,-0.82 -0.28,-1.25l1.23 0c0.03,0.44 0.14,0.81 0.34,1.1 0.2,0.29 0.45,0.53 0.74,0.7 0.3,0.18 0.62,0.3 0.99,0.38 0.36,0.08 0.72,0.12 1.07,0.12 0.47,0 0.88,-0.06 1.24,-0.17 0.36,-0.11 0.66,-0.26 0.9,-0.44 0.24,-0.19 0.43,-0.4 0.55,-0.64 0.12,-0.24 0.18,-0.49 0.18,-0.75z"></path> </g> <g id="_2217979616144"> <path class="fil1" d="M314.11 48.03c0,-0.26 -0.04,-0.5 -0.11,-0.71 -0.08,-0.21 -0.22,-0.4 -0.44,-0.58 -0.21,-0.18 -0.51,-0.36 -0.9,-0.53 -0.38,-0.17 -0.87,-0.35 -1.48,-0.55 -0.69,-0.22 -1.34,-0.47 -1.95,-0.74 -0.6,-0.27 -1.14,-0.6 -1.6,-0.97 -0.45,-0.37 -0.82,-0.81 -1.08,-1.29 -0.26,-0.49 -0.4,-1.06 -0.4,-1.71 0,-0.63 0.14,-1.2 0.41,-1.72 0.27,-0.52 0.65,-0.96 1.14,-1.32 0.49,-0.37 1.08,-0.65 1.75,-0.85 0.68,-0.2 1.42,-0.3 2.23,-0.3 0.83,0 1.59,0.11 2.27,0.34 0.68,0.23 1.26,0.55 1.74,0.96 0.48,0.41 0.85,0.9 1.11,1.47 0.26,0.57 0.39,1.19 0.39,1.86l-3.09 0c0,-0.32 -0.05,-0.61 -0.15,-0.88 -0.1,-0.27 -0.25,-0.5 -0.46,-0.69 -0.21,-0.19 -0.46,-0.34 -0.77,-0.45 -0.31,-0.11 -0.67,-0.16 -1.09,-0.16 -0.41,0 -0.76,0.05 -1.06,0.13 -0.3,0.09 -0.55,0.21 -0.74,0.37 -0.19,0.15 -0.34,0.34 -0.44,0.56 -0.1,0.21 -0.15,0.44 -0.15,0.68 0,0.5 0.25,0.91 0.76,1.24 0.51,0.33 1.25,0.64 2.22,0.93 0.82,0.26 1.54,0.54 2.16,0.84 0.62,0.31 1.14,0.66 1.56,1.05 0.42,0.39 0.73,0.83 0.94,1.32 0.21,0.49 0.32,1.04 0.32,1.66 0,0.66 -0.13,1.25 -0.39,1.76 -0.26,0.51 -0.62,0.95 -1.1,1.31 -0.47,0.35 -1.05,0.62 -1.72,0.81 -0.67,0.19 -1.42,0.29 -2.24,0.29 -0.5,0 -0.99,-0.05 -1.48,-0.13 -0.5,-0.08 -0.97,-0.22 -1.42,-0.4 -0.45,-0.18 -0.87,-0.4 -1.25,-0.67 -0.38,-0.27 -0.72,-0.58 -1.01,-0.95 -0.28,-0.36 -0.51,-0.78 -0.67,-1.24 -0.16,-0.46 -0.24,-0.98 -0.24,-1.54l3.1 0c0,0.45 0.07,0.84 0.22,1.15 0.14,0.32 0.34,0.57 0.6,0.77 0.26,0.19 0.57,0.34 0.93,0.43 0.37,0.09 0.77,0.13 1.22,0.13 0.4,0 0.75,-0.04 1.04,-0.13 0.3,-0.09 0.54,-0.21 0.73,-0.36 0.19,-0.15 0.33,-0.33 0.43,-0.54 0.09,-0.21 0.14,-0.44 0.14,-0.68zm10.13 4.14c-0.87,0 -1.64,-0.14 -2.32,-0.43 -0.69,-0.28 -1.27,-0.67 -1.74,-1.15 -0.48,-0.49 -0.84,-1.06 -1.09,-1.71 -0.25,-0.66 -0.38,-1.36 -0.38,-2.11l0 -0.4c0,-0.84 0.12,-1.62 0.37,-2.33 0.24,-0.7 0.59,-1.31 1.04,-1.82 0.45,-0.51 1,-0.9 1.64,-1.19 0.64,-0.29 1.36,-0.43 2.16,-0.43 0.81,0 1.51,0.13 2.12,0.4 0.61,0.26 1.13,0.64 1.54,1.12 0.42,0.47 0.73,1.05 0.94,1.72 0.21,0.68 0.31,1.42 0.31,2.25l0 1.27 -7.1 0c0.05,0.37 0.15,0.7 0.3,0.99 0.15,0.3 0.34,0.55 0.57,0.76 0.23,0.21 0.5,0.37 0.81,0.49 0.31,0.12 0.65,0.18 1.04,0.18 0.54,0 1.04,-0.1 1.51,-0.3 0.46,-0.2 0.85,-0.52 1.18,-0.95l1.47 1.64c-0.18,0.26 -0.4,0.5 -0.67,0.74 -0.27,0.24 -0.58,0.46 -0.95,0.64 -0.37,0.19 -0.78,0.34 -1.23,0.45 -0.45,0.11 -0.96,0.17 -1.5,0.17zm-0.34 -9.15c-0.32,0 -0.61,0.06 -0.85,0.17 -0.24,0.12 -0.45,0.27 -0.63,0.48 -0.18,0.2 -0.32,0.45 -0.43,0.73 -0.11,0.28 -0.19,0.59 -0.24,0.94l4.14 0 0 -0.24c-0.01,-0.3 -0.05,-0.57 -0.13,-0.83 -0.08,-0.25 -0.2,-0.47 -0.36,-0.66 -0.16,-0.19 -0.37,-0.33 -0.62,-0.43 -0.25,-0.1 -0.55,-0.15 -0.89,-0.15zm13.08 8.95c-0.14,-0.27 -0.24,-0.6 -0.3,-1 -0.3,0.34 -0.68,0.62 -1.14,0.85 -0.45,0.23 -1.01,0.35 -1.67,0.35 -0.53,0 -1.03,-0.08 -1.5,-0.25 -0.46,-0.17 -0.87,-0.39 -1.21,-0.69 -0.34,-0.3 -0.61,-0.65 -0.8,-1.06 -0.19,-0.41 -0.29,-0.86 -0.29,-1.35 0,-0.58 0.11,-1.1 0.33,-1.55 0.21,-0.45 0.54,-0.84 0.97,-1.15 0.43,-0.32 0.97,-0.56 1.61,-0.72 0.64,-0.17 1.39,-0.25 2.24,-0.25l1.33 0 0 -0.64c0,-0.52 -0.13,-0.93 -0.4,-1.24 -0.26,-0.31 -0.68,-0.46 -1.25,-0.46 -0.5,0 -0.89,0.12 -1.18,0.36 -0.28,0.24 -0.43,0.57 -0.43,0.99l-2.98 0c0,-0.48 0.11,-0.94 0.33,-1.37 0.22,-0.43 0.54,-0.81 0.95,-1.14 0.41,-0.32 0.91,-0.58 1.5,-0.77 0.58,-0.19 1.23,-0.29 1.96,-0.29 0.65,0 1.25,0.08 1.79,0.25 0.55,0.17 1.02,0.41 1.42,0.74 0.4,0.33 0.71,0.74 0.93,1.23 0.23,0.49 0.34,1.06 0.34,1.72l0 4.72c0,0.32 0.01,0.6 0.03,0.85 0.02,0.25 0.05,0.48 0.08,0.68 0.04,0.2 0.08,0.38 0.13,0.55 0.06,0.16 0.12,0.31 0.2,0.46l0 0.18 -3.01 0zm-2.46 -2.07c0.25,0 0.49,-0.03 0.71,-0.09 0.21,-0.06 0.41,-0.14 0.58,-0.24 0.17,-0.1 0.32,-0.21 0.45,-0.34 0.13,-0.13 0.23,-0.26 0.3,-0.4l0 -1.91 -1.23 0c-0.39,0 -0.73,0.04 -1.02,0.13 -0.29,0.09 -0.52,0.21 -0.71,0.36 -0.19,0.15 -0.32,0.33 -0.41,0.55 -0.09,0.21 -0.13,0.44 -0.13,0.69 0,0.37 0.13,0.68 0.39,0.92 0.26,0.24 0.62,0.36 1.07,0.36zm13.58 -6.29c-0.15,-0.02 -0.33,-0.04 -0.53,-0.06 -0.2,-0.02 -0.38,-0.02 -0.54,-0.02 -0.58,0 -1.06,0.1 -1.42,0.29 -0.36,0.2 -0.63,0.48 -0.8,0.85l0 7.3 -2.98 0 0 -11.15 2.81 0 0.08 1.33c0.28,-0.48 0.63,-0.86 1.04,-1.13 0.42,-0.27 0.89,-0.41 1.44,-0.41 0.16,0 0.33,0.01 0.5,0.04 0.17,0.03 0.32,0.06 0.43,0.1l-0.04 2.86zm5.88 6.16c0.27,0 0.52,-0.04 0.75,-0.12 0.23,-0.08 0.43,-0.19 0.59,-0.33 0.17,-0.14 0.3,-0.32 0.39,-0.52 0.1,-0.2 0.14,-0.43 0.15,-0.69l2.79 0c-0.01,0.59 -0.13,1.14 -0.37,1.64 -0.24,0.5 -0.57,0.93 -0.98,1.29 -0.41,0.36 -0.9,0.64 -1.46,0.84 -0.56,0.2 -1.16,0.3 -1.81,0.3 -0.87,0 -1.62,-0.15 -2.27,-0.44 -0.65,-0.29 -1.18,-0.69 -1.61,-1.2 -0.43,-0.5 -0.75,-1.1 -0.96,-1.78 -0.21,-0.68 -0.32,-1.42 -0.32,-2.21l0 -0.29c0,-0.79 0.11,-1.53 0.32,-2.22 0.21,-0.69 0.53,-1.28 0.96,-1.79 0.43,-0.51 0.96,-0.91 1.6,-1.2 0.64,-0.29 1.39,-0.44 2.25,-0.44 0.69,0 1.32,0.1 1.88,0.31 0.57,0.2 1.05,0.49 1.46,0.87 0.4,0.38 0.72,0.84 0.95,1.38 0.23,0.54 0.34,1.14 0.35,1.81l-2.79 0c-0.01,-0.27 -0.05,-0.52 -0.14,-0.76 -0.08,-0.24 -0.21,-0.44 -0.37,-0.62 -0.16,-0.18 -0.35,-0.32 -0.59,-0.42 -0.23,-0.1 -0.5,-0.15 -0.8,-0.15 -0.43,0 -0.79,0.09 -1.06,0.27 -0.27,0.18 -0.49,0.42 -0.64,0.72 -0.15,0.3 -0.26,0.64 -0.31,1.03 -0.06,0.39 -0.08,0.8 -0.08,1.22l0 0.29c0,0.43 0.03,0.83 0.08,1.23 0.05,0.39 0.16,0.74 0.31,1.03 0.15,0.3 0.37,0.53 0.64,0.7 0.27,0.18 0.64,0.26 1.08,0.26zm9.27 -7.74c0.37,-0.45 0.81,-0.8 1.31,-1.05 0.5,-0.25 1.06,-0.38 1.67,-0.38 0.55,0 1.05,0.08 1.51,0.23 0.45,0.15 0.84,0.41 1.16,0.75 0.32,0.35 0.57,0.79 0.75,1.35 0.18,0.55 0.26,1.21 0.26,2l0 7.03 -2.98 0 0 -7.05c0,-0.36 -0.04,-0.65 -0.12,-0.9 -0.08,-0.24 -0.2,-0.43 -0.35,-0.58 -0.15,-0.15 -0.34,-0.25 -0.56,-0.32 -0.22,-0.06 -0.47,-0.09 -0.76,-0.09 -0.46,0 -0.85,0.09 -1.16,0.27 -0.31,0.18 -0.55,0.43 -0.73,0.74l0 7.93 -2.98 0 0 -15.83 2.98 0 0 5.9zm25.03 -2.57l-4.6 0 0 12.5 -3.09 0 0 -12.5 -4.53 0 0 -2.5 12.22 0 0 2.5zm5.78 12.71c-0.87,0 -1.64,-0.14 -2.32,-0.43 -0.69,-0.28 -1.27,-0.67 -1.74,-1.15 -0.48,-0.49 -0.84,-1.06 -1.09,-1.71 -0.25,-0.66 -0.38,-1.36 -0.38,-2.11l0 -0.4c0,-0.84 0.12,-1.62 0.37,-2.33 0.24,-0.7 0.59,-1.31 1.04,-1.82 0.45,-0.51 1,-0.9 1.64,-1.19 0.64,-0.29 1.36,-0.43 2.16,-0.43 0.81,0 1.51,0.13 2.12,0.4 0.61,0.26 1.13,0.64 1.54,1.12 0.42,0.47 0.73,1.05 0.94,1.72 0.21,0.68 0.31,1.42 0.31,2.25l0 1.27 -7.1 0c0.05,0.37 0.15,0.7 0.3,0.99 0.15,0.3 0.34,0.55 0.57,0.76 0.23,0.21 0.5,0.37 0.81,0.49 0.31,0.12 0.65,0.18 1.04,0.18 0.54,0 1.04,-0.1 1.51,-0.3 0.46,-0.2 0.85,-0.52 1.18,-0.95l1.47 1.64c-0.18,0.26 -0.4,0.5 -0.67,0.74 -0.27,0.24 -0.58,0.46 -0.95,0.64 -0.37,0.19 -0.78,0.34 -1.23,0.45 -0.45,0.11 -0.96,0.17 -1.5,0.17zm-0.34 -9.15c-0.32,0 -0.61,0.06 -0.85,0.17 -0.24,0.12 -0.45,0.27 -0.63,0.48 -0.18,0.2 -0.32,0.45 -0.43,0.73 -0.11,0.28 -0.19,0.59 -0.24,0.94l4.14 0 0 -0.24c-0.01,-0.3 -0.05,-0.57 -0.13,-0.83 -0.08,-0.25 -0.2,-0.47 -0.36,-0.66 -0.16,-0.19 -0.37,-0.33 -0.62,-0.43 -0.25,-0.1 -0.55,-0.15 -0.89,-0.15zm12.88 0.59c-0.15,-0.02 -0.33,-0.04 -0.53,-0.06 -0.2,-0.02 -0.38,-0.02 -0.54,-0.02 -0.58,0 -1.06,0.1 -1.42,0.29 -0.36,0.2 -0.63,0.48 -0.8,0.85l0 7.3 -2.98 0 0 -11.15 2.81 0 0.08 1.33c0.28,-0.48 0.63,-0.86 1.04,-1.13 0.42,-0.27 0.89,-0.41 1.44,-0.41 0.16,0 0.33,0.01 0.5,0.04 0.17,0.03 0.32,0.06 0.43,0.1l-0.04 2.86zm4.23 -2.79l0.09 1.25c0.37,-0.45 0.82,-0.81 1.35,-1.07 0.53,-0.26 1.15,-0.39 1.85,-0.39 0.66,0 1.26,0.14 1.77,0.4 0.51,0.27 0.91,0.7 1.19,1.3 0.37,-0.53 0.82,-0.95 1.38,-1.25 0.55,-0.3 1.21,-0.45 1.97,-0.45 0.54,0 1.03,0.08 1.48,0.23 0.44,0.15 0.82,0.39 1.13,0.73 0.31,0.34 0.56,0.77 0.72,1.31 0.17,0.54 0.25,1.2 0.25,1.98l0 7.1 -2.99 0 0 -7.1c0,-0.37 -0.04,-0.68 -0.12,-0.91 -0.08,-0.24 -0.19,-0.43 -0.33,-0.56 -0.14,-0.13 -0.32,-0.23 -0.53,-0.28 -0.2,-0.05 -0.44,-0.08 -0.7,-0.08 -0.46,0 -0.84,0.12 -1.15,0.34 -0.31,0.23 -0.54,0.54 -0.7,0.93 0,0.04 0,0.07 0,0.11 0,0.04 0.01,0.08 0.01,0.12l0 7.43 -2.98 0 0 -7.08c0,-0.37 -0.04,-0.68 -0.11,-0.91 -0.08,-0.24 -0.19,-0.43 -0.33,-0.57 -0.14,-0.14 -0.32,-0.23 -0.53,-0.29 -0.21,-0.05 -0.44,-0.08 -0.71,-0.08 -0.44,0 -0.81,0.09 -1.11,0.28 -0.3,0.19 -0.54,0.44 -0.72,0.77l0 7.88 -2.98 0 0 -11.15 2.79 0zm-95.25 56.35c0,0.84 -0.1,1.6 -0.29,2.3 -0.19,0.69 -0.46,1.29 -0.83,1.79 -0.36,0.5 -0.81,0.89 -1.34,1.16 -0.53,0.28 -1.13,0.42 -1.8,0.42 -0.82,0 -1.52,-0.15 -2.1,-0.46 -0.58,-0.31 -1.06,-0.73 -1.43,-1.27l-0.05 1.53 -1.15 0 0 -15.83 1.23 0 0 6.3c0.37,-0.58 0.84,-1.02 1.41,-1.34 0.57,-0.32 1.26,-0.48 2.07,-0.48 0.68,0 1.28,0.14 1.82,0.4 0.53,0.27 0.97,0.65 1.34,1.14 0.37,0.5 0.65,1.09 0.83,1.79 0.19,0.7 0.29,1.48 0.29,2.35l0 0.21zm-1.24 -0.21c0,-0.65 -0.06,-1.25 -0.18,-1.81 -0.13,-0.56 -0.32,-1.05 -0.58,-1.46 -0.26,-0.41 -0.6,-0.74 -1.02,-0.97 -0.41,-0.24 -0.9,-0.36 -1.48,-0.36 -0.47,0 -0.88,0.06 -1.24,0.19 -0.36,0.13 -0.67,0.3 -0.93,0.51 -0.26,0.21 -0.48,0.46 -0.66,0.73 -0.18,0.27 -0.32,0.56 -0.43,0.86l0 5.03c0.13,0.3 0.29,0.57 0.49,0.83 0.2,0.26 0.43,0.48 0.7,0.67 0.27,0.19 0.57,0.34 0.92,0.44 0.34,0.11 0.74,0.16 1.17,0.16 0.56,0 1.04,-0.12 1.45,-0.35 0.41,-0.23 0.75,-0.56 1.02,-0.97 0.27,-0.41 0.46,-0.9 0.59,-1.46 0.13,-0.56 0.19,-1.16 0.19,-1.82l0 -0.21zm3.28 -0.06c0,-0.81 0.12,-1.56 0.36,-2.25 0.24,-0.69 0.57,-1.28 1,-1.78 0.43,-0.5 0.96,-0.89 1.57,-1.17 0.61,-0.29 1.29,-0.43 2.04,-0.43 0.76,0 1.45,0.14 2.06,0.43 0.62,0.28 1.14,0.67 1.57,1.17 0.43,0.5 0.77,1.09 1,1.78 0.24,0.69 0.35,1.44 0.35,2.25l0 0.34c0,0.81 -0.12,1.56 -0.35,2.24 -0.23,0.69 -0.57,1.28 -1,1.78 -0.43,0.5 -0.95,0.89 -1.57,1.16 -0.61,0.28 -1.29,0.42 -2.05,0.42 -0.76,0 -1.44,-0.14 -2.05,-0.42 -0.61,-0.28 -1.14,-0.67 -1.57,-1.16 -0.44,-0.5 -0.77,-1.09 -1.01,-1.78 -0.24,-0.69 -0.36,-1.44 -0.36,-2.24l0 -0.34zm1.23 0.34c0,0.61 0.08,1.19 0.25,1.74 0.16,0.56 0.4,1.04 0.72,1.45 0.32,0.42 0.71,0.75 1.17,1 0.46,0.25 1,0.37 1.61,0.37 0.61,0 1.14,-0.12 1.6,-0.37 0.46,-0.25 0.85,-0.58 1.17,-1 0.32,-0.42 0.56,-0.9 0.72,-1.45 0.17,-0.55 0.25,-1.13 0.25,-1.74l0 -0.34c0,-0.6 -0.08,-1.17 -0.25,-1.73 -0.17,-0.55 -0.4,-1.04 -0.72,-1.46 -0.32,-0.42 -0.71,-0.75 -1.18,-1.01 -0.47,-0.25 -1.01,-0.38 -1.61,-0.38 -0.6,0 -1.13,0.13 -1.59,0.38 -0.46,0.25 -0.85,0.59 -1.17,1.01 -0.32,0.42 -0.56,0.9 -0.72,1.46 -0.17,0.56 -0.25,1.13 -0.25,1.73l0 0.34zm14.64 3.63l3.26 -9.38 1.33 0 -4.72 12.94c-0.09,0.25 -0.22,0.54 -0.37,0.85 -0.15,0.32 -0.34,0.61 -0.58,0.89 -0.24,0.27 -0.53,0.51 -0.89,0.7 -0.36,0.19 -0.78,0.28 -1.29,0.28 -0.07,0 -0.15,-0 -0.24,-0.01 -0.09,-0.01 -0.18,-0.02 -0.27,-0.04 -0.09,-0.01 -0.18,-0.03 -0.25,-0.05 -0.08,-0.01 -0.14,-0.03 -0.19,-0.05l-0.01 -1.02c0.08,0.01 0.19,0.03 0.33,0.04 0.14,0.01 0.24,0.02 0.3,0.02 0.33,0 0.62,-0.04 0.88,-0.13 0.26,-0.08 0.48,-0.21 0.66,-0.38 0.19,-0.17 0.36,-0.38 0.5,-0.63 0.14,-0.26 0.28,-0.55 0.39,-0.88l0.53 -1.47 -4.2 -11.06 1.35 0 3.46 9.38zm13.17 -1.06c0,-0.23 -0.04,-0.45 -0.12,-0.68 -0.08,-0.23 -0.23,-0.44 -0.44,-0.64 -0.22,-0.2 -0.52,-0.39 -0.91,-0.57 -0.39,-0.18 -0.89,-0.33 -1.51,-0.46 -0.62,-0.13 -1.17,-0.28 -1.65,-0.45 -0.49,-0.17 -0.89,-0.38 -1.23,-0.62 -0.33,-0.24 -0.59,-0.53 -0.76,-0.87 -0.17,-0.34 -0.26,-0.73 -0.26,-1.19 0,-0.41 0.09,-0.81 0.27,-1.18 0.18,-0.37 0.44,-0.7 0.78,-0.97 0.34,-0.27 0.75,-0.49 1.23,-0.65 0.49,-0.16 1.03,-0.24 1.64,-0.24 0.64,0 1.22,0.08 1.73,0.25 0.51,0.17 0.95,0.4 1.3,0.7 0.36,0.3 0.63,0.65 0.81,1.06 0.19,0.4 0.28,0.84 0.28,1.32l-1.24 0c0,-0.29 -0.06,-0.57 -0.19,-0.84 -0.13,-0.28 -0.31,-0.52 -0.56,-0.73 -0.25,-0.21 -0.55,-0.38 -0.91,-0.51 -0.36,-0.13 -0.77,-0.2 -1.23,-0.2 -0.48,0 -0.89,0.06 -1.23,0.18 -0.34,0.12 -0.62,0.27 -0.83,0.45 -0.21,0.19 -0.37,0.39 -0.47,0.62 -0.1,0.23 -0.15,0.46 -0.15,0.7 0,0.25 0.04,0.47 0.11,0.68 0.08,0.2 0.22,0.39 0.44,0.57 0.21,0.18 0.52,0.34 0.91,0.49 0.39,0.15 0.89,0.29 1.52,0.44 0.67,0.16 1.25,0.33 1.74,0.53 0.49,0.19 0.89,0.42 1.21,0.68 0.32,0.27 0.56,0.57 0.71,0.91 0.15,0.34 0.23,0.74 0.23,1.18 0,0.46 -0.1,0.88 -0.29,1.26 -0.19,0.38 -0.47,0.71 -0.82,0.98 -0.36,0.27 -0.79,0.48 -1.3,0.63 -0.51,0.15 -1.07,0.23 -1.7,0.23 -0.71,0 -1.33,-0.09 -1.88,-0.27 -0.54,-0.18 -1,-0.43 -1.37,-0.74 -0.37,-0.31 -0.65,-0.66 -0.84,-1.07 -0.19,-0.4 -0.28,-0.82 -0.28,-1.25l1.23 0c0.03,0.44 0.14,0.81 0.34,1.1 0.2,0.29 0.45,0.53 0.74,0.7 0.3,0.18 0.62,0.3 0.99,0.38 0.36,0.08 0.72,0.12 1.07,0.12 0.47,0 0.88,-0.06 1.24,-0.17 0.36,-0.11 0.66,-0.26 0.9,-0.44 0.24,-0.19 0.43,-0.4 0.55,-0.64 0.12,-0.24 0.18,-0.49 0.18,-0.75zm13.46 3.04c-0.73,0 -1.4,-0.14 -2.01,-0.41 -0.61,-0.27 -1.14,-0.65 -1.58,-1.13 -0.44,-0.49 -0.79,-1.06 -1.04,-1.73 -0.25,-0.67 -0.37,-1.4 -0.37,-2.19l0 -0.44c0,-0.86 0.13,-1.64 0.39,-2.34 0.26,-0.7 0.61,-1.29 1.04,-1.78 0.44,-0.49 0.95,-0.87 1.52,-1.14 0.57,-0.27 1.18,-0.4 1.82,-0.4 0.71,0 1.34,0.13 1.89,0.38 0.55,0.25 1.01,0.61 1.39,1.06 0.38,0.45 0.66,0.99 0.85,1.62 0.19,0.62 0.29,1.31 0.29,2.05l0 0.75 -7.96 0 0 0.24c0,0.61 0.09,1.19 0.28,1.73 0.19,0.54 0.45,1.01 0.78,1.4 0.34,0.4 0.74,0.71 1.21,0.95 0.47,0.23 0.99,0.34 1.56,0.34 0.66,0 1.24,-0.12 1.75,-0.36 0.5,-0.24 0.96,-0.63 1.38,-1.15l0.77 0.59c-0.19,0.27 -0.4,0.52 -0.64,0.76 -0.25,0.24 -0.53,0.45 -0.85,0.63 -0.32,0.18 -0.69,0.32 -1.09,0.43 -0.4,0.1 -0.86,0.15 -1.36,0.15zm-0.23 -10.52c-0.47,0 -0.9,0.09 -1.3,0.27 -0.4,0.18 -0.75,0.44 -1.06,0.76 -0.31,0.33 -0.56,0.73 -0.75,1.19 -0.2,0.46 -0.33,0.97 -0.4,1.54l6.69 0 0 -0.13c-0.01,-0.47 -0.09,-0.92 -0.22,-1.36 -0.14,-0.44 -0.34,-0.82 -0.6,-1.16 -0.27,-0.34 -0.59,-0.61 -0.99,-0.81 -0.39,-0.2 -0.85,-0.31 -1.37,-0.31zm7.99 -0.84l0.04 1.91c0.19,-0.32 0.41,-0.6 0.66,-0.87 0.25,-0.26 0.53,-0.49 0.84,-0.67 0.31,-0.19 0.64,-0.33 1,-0.43 0.36,-0.1 0.74,-0.15 1.13,-0.15 0.56,0 1.06,0.08 1.5,0.23 0.44,0.15 0.81,0.39 1.12,0.72 0.3,0.33 0.54,0.75 0.7,1.27 0.16,0.52 0.24,1.14 0.24,1.88l0 7.26 -1.23 0 0 -7.26c0,-0.58 -0.06,-1.06 -0.19,-1.45 -0.12,-0.38 -0.3,-0.69 -0.52,-0.93 -0.23,-0.24 -0.5,-0.4 -0.83,-0.5 -0.33,-0.1 -0.69,-0.15 -1.09,-0.15 -0.44,0 -0.84,0.07 -1.2,0.22 -0.36,0.15 -0.67,0.34 -0.95,0.59 -0.27,0.25 -0.51,0.53 -0.71,0.85 -0.2,0.32 -0.36,0.65 -0.47,0.98l0 7.64 -1.23 0 0 -11.15 1.18 0zm9.92 5.47c0,-0.87 0.1,-1.65 0.3,-2.35 0.2,-0.7 0.49,-1.29 0.86,-1.79 0.37,-0.5 0.82,-0.88 1.35,-1.14 0.53,-0.27 1.13,-0.4 1.8,-0.4 0.79,0 1.47,0.16 2.04,0.48 0.57,0.32 1.03,0.75 1.41,1.31l0 -6.25 1.22 0 0 15.83 -1.15 0 -0.05 -1.48c-0.37,0.53 -0.84,0.94 -1.41,1.24 -0.58,0.3 -1.26,0.45 -2.07,0.45 -0.66,0 -1.25,-0.14 -1.78,-0.42 -0.53,-0.28 -0.98,-0.67 -1.35,-1.16 -0.37,-0.5 -0.66,-1.09 -0.86,-1.79 -0.2,-0.7 -0.3,-1.46 -0.3,-2.3l0 -0.21zm1.25 0.21c0,0.65 0.06,1.26 0.2,1.82 0.13,0.56 0.33,1.05 0.59,1.46 0.27,0.41 0.61,0.74 1.02,0.97 0.41,0.24 0.89,0.35 1.46,0.35 0.42,0 0.8,-0.05 1.14,-0.15 0.34,-0.1 0.64,-0.24 0.91,-0.42 0.26,-0.18 0.5,-0.39 0.69,-0.64 0.2,-0.25 0.36,-0.51 0.5,-0.8l0 -5.24c-0.13,-0.28 -0.28,-0.55 -0.45,-0.81 -0.18,-0.26 -0.4,-0.49 -0.66,-0.7 -0.26,-0.2 -0.56,-0.36 -0.91,-0.49 -0.34,-0.12 -0.74,-0.18 -1.2,-0.18 -0.57,0 -1.06,0.12 -1.47,0.36 -0.41,0.24 -0.75,0.56 -1.02,0.97 -0.27,0.41 -0.46,0.9 -0.59,1.46 -0.13,0.56 -0.2,1.17 -0.2,1.81l0 0.21zm12.36 5.46l-1.24 0 0 -15.83 1.24 0 0 15.83zm7.67 0.21c-0.73,0 -1.4,-0.14 -2.01,-0.41 -0.61,-0.27 -1.14,-0.65 -1.58,-1.13 -0.44,-0.49 -0.79,-1.06 -1.04,-1.73 -0.25,-0.67 -0.37,-1.4 -0.37,-2.19l0 -0.44c0,-0.86 0.13,-1.64 0.39,-2.34 0.26,-0.7 0.61,-1.29 1.04,-1.78 0.44,-0.49 0.95,-0.87 1.52,-1.14 0.57,-0.27 1.18,-0.4 1.82,-0.4 0.71,0 1.34,0.13 1.89,0.38 0.55,0.25 1.01,0.61 1.39,1.06 0.38,0.45 0.66,0.99 0.85,1.62 0.19,0.62 0.29,1.31 0.29,2.05l0 0.75 -7.96 0 0 0.24c0,0.61 0.09,1.19 0.28,1.73 0.19,0.54 0.45,1.01 0.78,1.4 0.34,0.4 0.74,0.71 1.21,0.95 0.47,0.23 0.99,0.34 1.56,0.34 0.66,0 1.24,-0.12 1.75,-0.36 0.5,-0.24 0.96,-0.63 1.38,-1.15l0.77 0.59c-0.19,0.27 -0.4,0.52 -0.64,0.76 -0.25,0.24 -0.53,0.45 -0.85,0.63 -0.32,0.18 -0.69,0.32 -1.09,0.43 -0.4,0.1 -0.86,0.15 -1.36,0.15zm-0.23 -10.52c-0.47,0 -0.9,0.09 -1.3,0.27 -0.4,0.18 -0.75,0.44 -1.06,0.76 -0.31,0.33 -0.56,0.73 -0.75,1.19 -0.2,0.46 -0.33,0.97 -0.4,1.54l6.69 0 0 -0.13c-0.01,-0.47 -0.09,-0.92 -0.22,-1.36 -0.14,-0.44 -0.34,-0.82 -0.6,-1.16 -0.27,-0.34 -0.59,-0.61 -0.99,-0.81 -0.39,-0.2 -0.85,-0.31 -1.37,-0.31z"></path> <path class="fil1" d="M412.35 99.79c0,-0.23 -0.04,-0.45 -0.12,-0.68 -0.08,-0.23 -0.23,-0.44 -0.44,-0.64 -0.22,-0.2 -0.52,-0.39 -0.91,-0.57 -0.39,-0.18 -0.89,-0.33 -1.51,-0.46 -0.62,-0.13 -1.17,-0.28 -1.65,-0.45 -0.49,-0.17 -0.89,-0.38 -1.23,-0.62 -0.33,-0.24 -0.59,-0.53 -0.76,-0.87 -0.17,-0.34 -0.26,-0.73 -0.26,-1.19 0,-0.41 0.09,-0.81 0.27,-1.18 0.18,-0.37 0.44,-0.7 0.78,-0.97 0.34,-0.27 0.75,-0.49 1.23,-0.65 0.49,-0.16 1.03,-0.24 1.64,-0.24 0.64,0 1.22,0.08 1.73,0.25 0.51,0.17 0.95,0.4 1.3,0.7 0.36,0.3 0.63,0.65 0.81,1.06 0.19,0.4 0.28,0.84 0.28,1.32l-1.24 0c0,-0.29 -0.06,-0.57 -0.19,-0.84 -0.13,-0.28 -0.31,-0.52 -0.56,-0.73 -0.25,-0.21 -0.55,-0.38 -0.91,-0.51 -0.36,-0.13 -0.77,-0.2 -1.23,-0.2 -0.48,0 -0.89,0.06 -1.23,0.18 -0.34,0.12 -0.62,0.27 -0.83,0.45 -0.21,0.19 -0.37,0.39 -0.47,0.62 -0.1,0.23 -0.15,0.46 -0.15,0.7 0,0.25 0.04,0.47 0.11,0.68 0.08,0.2 0.22,0.39 0.44,0.57 0.21,0.18 0.52,0.34 0.91,0.49 0.39,0.15 0.89,0.29 1.52,0.44 0.67,0.16 1.25,0.33 1.74,0.53 0.49,0.19 0.89,0.42 1.21,0.68 0.32,0.27 0.56,0.57 0.71,0.91 0.15,0.34 0.23,0.74 0.23,1.18 0,0.46 -0.1,0.88 -0.29,1.26 -0.19,0.38 -0.47,0.71 -0.82,0.98 -0.36,0.27 -0.79,0.48 -1.3,0.63 -0.51,0.15 -1.07,0.23 -1.7,0.23 -0.71,0 -1.33,-0.09 -1.88,-0.27 -0.54,-0.18 -1,-0.43 -1.37,-0.74 -0.37,-0.31 -0.65,-0.66 -0.84,-1.07 -0.19,-0.4 -0.28,-0.82 -0.28,-1.25l1.23 0c0.03,0.44 0.14,0.81 0.34,1.1 0.2,0.29 0.45,0.53 0.74,0.7 0.3,0.18 0.62,0.3 0.99,0.38 0.36,0.08 0.72,0.12 1.07,0.12 0.47,0 0.88,-0.06 1.24,-0.17 0.36,-0.11 0.66,-0.26 0.9,-0.44 0.24,-0.19 0.43,-0.4 0.55,-0.64 0.12,-0.24 0.18,-0.49 0.18,-0.75zm10.69 0c0,-0.23 -0.04,-0.45 -0.12,-0.68 -0.08,-0.23 -0.23,-0.44 -0.44,-0.64 -0.22,-0.2 -0.52,-0.39 -0.91,-0.57 -0.39,-0.18 -0.89,-0.33 -1.51,-0.46 -0.62,-0.13 -1.17,-0.28 -1.65,-0.45 -0.49,-0.17 -0.89,-0.38 -1.23,-0.62 -0.33,-0.24 -0.59,-0.53 -0.76,-0.87 -0.17,-0.34 -0.26,-0.73 -0.26,-1.19 0,-0.41 0.09,-0.81 0.27,-1.18 0.18,-0.37 0.44,-0.7 0.78,-0.97 0.34,-0.27 0.75,-0.49 1.23,-0.65 0.49,-0.16 1.03,-0.24 1.64,-0.24 0.64,0 1.22,0.08 1.73,0.25 0.51,0.17 0.95,0.4 1.3,0.7 0.36,0.3 0.63,0.65 0.81,1.06 0.19,0.4 0.28,0.84 0.28,1.32l-1.24 0c0,-0.29 -0.06,-0.57 -0.19,-0.84 -0.13,-0.28 -0.31,-0.52 -0.56,-0.73 -0.25,-0.21 -0.55,-0.38 -0.91,-0.51 -0.36,-0.13 -0.77,-0.2 -1.23,-0.2 -0.48,0 -0.89,0.06 -1.23,0.18 -0.34,0.12 -0.62,0.27 -0.83,0.45 -0.21,0.19 -0.37,0.39 -0.47,0.62 -0.1,0.23 -0.15,0.46 -0.15,0.7 0,0.25 0.04,0.47 0.11,0.68 0.08,0.2 0.22,0.39 0.44,0.57 0.21,0.18 0.52,0.34 0.91,0.49 0.39,0.15 0.89,0.29 1.52,0.44 0.67,0.16 1.25,0.33 1.74,0.53 0.49,0.19 0.89,0.42 1.21,0.68 0.32,0.27 0.56,0.57 0.71,0.91 0.15,0.34 0.23,0.74 0.23,1.18 0,0.46 -0.1,0.88 -0.29,1.26 -0.19,0.38 -0.47,0.71 -0.82,0.98 -0.36,0.27 -0.79,0.48 -1.3,0.63 -0.51,0.15 -1.07,0.23 -1.7,0.23 -0.71,0 -1.33,-0.09 -1.88,-0.27 -0.54,-0.18 -1,-0.43 -1.37,-0.74 -0.37,-0.31 -0.65,-0.66 -0.84,-1.07 -0.19,-0.4 -0.28,-0.82 -0.28,-1.25l1.23 0c0.03,0.44 0.14,0.81 0.34,1.1 0.2,0.29 0.45,0.53 0.74,0.7 0.3,0.18 0.62,0.3 0.99,0.38 0.36,0.08 0.72,0.12 1.07,0.12 0.47,0 0.88,-0.06 1.24,-0.17 0.36,-0.11 0.66,-0.26 0.9,-0.44 0.24,-0.19 0.43,-0.4 0.55,-0.64 0.12,-0.24 0.18,-0.49 0.18,-0.75zm8.65 -2.84c0,-0.87 0.1,-1.65 0.3,-2.35 0.2,-0.7 0.48,-1.29 0.85,-1.79 0.37,-0.5 0.82,-0.88 1.35,-1.14 0.53,-0.27 1.14,-0.4 1.81,-0.4 0.8,0 1.48,0.16 2.05,0.48 0.57,0.32 1.04,0.76 1.41,1.33l0.06 -1.61 1.15 0 0 10.95c0,0.72 -0.11,1.37 -0.32,1.95 -0.21,0.57 -0.51,1.06 -0.9,1.46 -0.39,0.4 -0.86,0.7 -1.41,0.92 -0.55,0.21 -1.16,0.32 -1.84,0.32 -0.35,0 -0.71,-0.04 -1.07,-0.12 -0.37,-0.08 -0.72,-0.2 -1.06,-0.36 -0.34,-0.16 -0.66,-0.36 -0.96,-0.59 -0.3,-0.24 -0.57,-0.52 -0.79,-0.84l0.69 -0.74c0.45,0.56 0.94,0.96 1.45,1.22 0.51,0.26 1.06,0.39 1.67,0.39 0.53,0 1,-0.08 1.41,-0.24 0.41,-0.16 0.75,-0.39 1.04,-0.7 0.28,-0.31 0.5,-0.68 0.64,-1.12 0.15,-0.44 0.22,-0.93 0.22,-1.49l0 -1.3c-0.37,0.51 -0.84,0.92 -1.41,1.21 -0.57,0.29 -1.25,0.44 -2.04,0.44 -0.67,0 -1.26,-0.14 -1.79,-0.42 -0.53,-0.28 -0.98,-0.67 -1.35,-1.16 -0.37,-0.5 -0.65,-1.09 -0.85,-1.79 -0.2,-0.7 -0.3,-1.46 -0.3,-2.3l0 -0.21zm1.25 0.21c0,0.65 0.06,1.26 0.2,1.82 0.13,0.56 0.33,1.05 0.59,1.46 0.27,0.41 0.61,0.74 1.02,0.97 0.41,0.24 0.89,0.35 1.46,0.35 0.43,0 0.81,-0.05 1.15,-0.15 0.34,-0.1 0.64,-0.25 0.9,-0.43 0.26,-0.18 0.49,-0.39 0.68,-0.64 0.19,-0.25 0.36,-0.52 0.5,-0.81l0 -5.19c-0.12,-0.29 -0.27,-0.56 -0.45,-0.83 -0.18,-0.26 -0.4,-0.5 -0.66,-0.7 -0.26,-0.2 -0.56,-0.36 -0.9,-0.49 -0.34,-0.12 -0.74,-0.18 -1.2,-0.18 -0.57,0 -1.06,0.12 -1.47,0.36 -0.41,0.24 -0.75,0.56 -1.02,0.97 -0.27,0.41 -0.46,0.9 -0.59,1.46 -0.13,0.56 -0.2,1.17 -0.2,1.81l0 0.21zm17.99 5.46c-0.07,-0.19 -0.12,-0.43 -0.16,-0.71 -0.04,-0.28 -0.06,-0.56 -0.08,-0.85 -0.19,0.24 -0.41,0.46 -0.66,0.68 -0.25,0.21 -0.54,0.4 -0.85,0.56 -0.32,0.16 -0.66,0.28 -1.04,0.38 -0.38,0.09 -0.79,0.14 -1.23,0.14 -0.54,0 -1.03,-0.08 -1.48,-0.24 -0.44,-0.16 -0.82,-0.38 -1.13,-0.66 -0.31,-0.29 -0.56,-0.62 -0.73,-1 -0.17,-0.39 -0.26,-0.81 -0.26,-1.26 0,-0.54 0.12,-1.03 0.35,-1.47 0.23,-0.44 0.57,-0.81 1.01,-1.12 0.44,-0.31 0.97,-0.54 1.6,-0.7 0.63,-0.16 1.34,-0.24 2.12,-0.24l2.29 0 0 -1.27c0,-0.8 -0.25,-1.42 -0.74,-1.88 -0.49,-0.46 -1.21,-0.69 -2.15,-0.69 -0.43,0 -0.83,0.06 -1.19,0.18 -0.37,0.12 -0.68,0.28 -0.95,0.49 -0.26,0.2 -0.47,0.44 -0.62,0.71 -0.15,0.27 -0.22,0.56 -0.22,0.87l-1.24 -0.01c0,-0.42 0.1,-0.82 0.31,-1.22 0.21,-0.39 0.5,-0.74 0.87,-1.04 0.37,-0.31 0.82,-0.55 1.35,-0.74 0.53,-0.19 1.11,-0.28 1.75,-0.28 0.59,0 1.14,0.08 1.63,0.23 0.5,0.15 0.93,0.38 1.28,0.68 0.36,0.3 0.64,0.68 0.83,1.14 0.2,0.45 0.3,0.98 0.3,1.59l0 5.4c0,0.19 0.01,0.39 0.02,0.6 0.01,0.2 0.04,0.4 0.07,0.6 0.03,0.19 0.07,0.38 0.11,0.55 0.04,0.18 0.09,0.33 0.14,0.46l0 0.12 -1.32 0zm-3.88 -0.89c0.45,0 0.86,-0.06 1.24,-0.17 0.38,-0.12 0.73,-0.27 1.04,-0.47 0.31,-0.2 0.58,-0.43 0.8,-0.69 0.23,-0.27 0.41,-0.55 0.55,-0.86l0 -2.45 -2.11 0c-0.63,0 -1.2,0.06 -1.7,0.17 -0.5,0.11 -0.92,0.28 -1.26,0.49 -0.34,0.21 -0.6,0.47 -0.79,0.78 -0.18,0.31 -0.27,0.65 -0.27,1.04 0,0.3 0.06,0.58 0.17,0.85 0.12,0.26 0.28,0.49 0.5,0.69 0.22,0.2 0.48,0.35 0.79,0.46 0.31,0.11 0.65,0.17 1.04,0.17zm9.27 -10.27l0.04 1.82c0.19,-0.3 0.4,-0.58 0.64,-0.83 0.25,-0.25 0.52,-0.46 0.82,-0.64 0.3,-0.18 0.63,-0.31 0.99,-0.41 0.36,-0.09 0.74,-0.14 1.16,-0.14 0.82,0 1.52,0.17 2.1,0.52 0.58,0.34 1,0.89 1.25,1.65 0.18,-0.31 0.39,-0.6 0.64,-0.86 0.25,-0.26 0.53,-0.49 0.85,-0.69 0.32,-0.19 0.67,-0.34 1.06,-0.45 0.39,-0.11 0.8,-0.17 1.25,-0.17 0.58,0 1.09,0.08 1.54,0.23 0.45,0.15 0.84,0.4 1.15,0.73 0.31,0.33 0.55,0.76 0.71,1.27 0.17,0.52 0.25,1.13 0.25,1.86l0 7.26 -1.24 0 0 -7.27c0,-0.59 -0.06,-1.08 -0.19,-1.47 -0.13,-0.39 -0.32,-0.7 -0.56,-0.93 -0.24,-0.23 -0.53,-0.39 -0.86,-0.48 -0.33,-0.09 -0.7,-0.13 -1.1,-0.13 -0.52,0.01 -0.98,0.1 -1.37,0.28 -0.39,0.18 -0.72,0.41 -1,0.69 -0.27,0.28 -0.48,0.59 -0.63,0.93 -0.15,0.34 -0.24,0.68 -0.27,1l0 7.38 -1.24 0 0 -7.37c0,-0.56 -0.06,-1.02 -0.19,-1.39 -0.13,-0.37 -0.32,-0.67 -0.56,-0.9 -0.24,-0.23 -0.53,-0.39 -0.86,-0.49 -0.33,-0.1 -0.7,-0.14 -1.11,-0.14 -0.47,0 -0.88,0.07 -1.24,0.22 -0.36,0.15 -0.67,0.34 -0.93,0.59 -0.26,0.25 -0.48,0.53 -0.65,0.84 -0.17,0.32 -0.31,0.64 -0.41,0.98l0 7.65 -1.23 0 0 -11.15 1.18 0zm21.9 11.36c-0.73,0 -1.4,-0.14 -2.01,-0.41 -0.61,-0.27 -1.14,-0.65 -1.58,-1.13 -0.44,-0.49 -0.79,-1.06 -1.04,-1.73 -0.25,-0.67 -0.37,-1.4 -0.37,-2.19l0 -0.44c0,-0.86 0.13,-1.64 0.39,-2.34 0.26,-0.7 0.61,-1.29 1.04,-1.78 0.44,-0.49 0.95,-0.87 1.52,-1.14 0.57,-0.27 1.18,-0.4 1.82,-0.4 0.71,0 1.34,0.13 1.89,0.38 0.55,0.25 1.01,0.61 1.39,1.06 0.38,0.45 0.66,0.99 0.85,1.62 0.19,0.62 0.29,1.31 0.29,2.05l0 0.75 -7.96 0 0 0.24c0,0.61 0.09,1.19 0.28,1.73 0.19,0.54 0.45,1.01 0.78,1.4 0.34,0.4 0.74,0.71 1.21,0.95 0.47,0.23 0.99,0.34 1.56,0.34 0.66,0 1.24,-0.12 1.75,-0.36 0.5,-0.24 0.96,-0.63 1.38,-1.15l0.77 0.59c-0.19,0.27 -0.4,0.52 -0.64,0.76 -0.25,0.24 -0.53,0.45 -0.85,0.63 -0.32,0.18 -0.69,0.32 -1.09,0.43 -0.4,0.1 -0.86,0.15 -1.36,0.15zm-0.23 -10.52c-0.47,0 -0.9,0.09 -1.3,0.27 -0.4,0.18 -0.75,0.44 -1.06,0.76 -0.31,0.33 -0.56,0.73 -0.75,1.19 -0.2,0.46 -0.33,0.97 -0.4,1.54l6.69 0 0 -0.13c-0.01,-0.47 -0.09,-0.92 -0.22,-1.36 -0.14,-0.44 -0.34,-0.82 -0.6,-1.16 -0.27,-0.34 -0.59,-0.61 -0.99,-0.81 -0.39,-0.2 -0.85,-0.31 -1.37,-0.31zm8 9.81c0,0.31 -0.03,0.62 -0.1,0.93 -0.06,0.31 -0.16,0.61 -0.28,0.89 -0.13,0.28 -0.28,0.55 -0.45,0.8 -0.18,0.25 -0.38,0.48 -0.61,0.69l-0.73 -0.53c0.32,-0.43 0.56,-0.85 0.72,-1.28 0.17,-0.43 0.25,-0.92 0.25,-1.46l0 -1.46 1.21 0 0 1.44zm-175.08 26.04c-0.73,0 -1.4,-0.14 -2.01,-0.41 -0.61,-0.27 -1.14,-0.65 -1.58,-1.13 -0.44,-0.49 -0.79,-1.06 -1.04,-1.73 -0.25,-0.67 -0.37,-1.4 -0.37,-2.19l0 -0.44c0,-0.86 0.13,-1.64 0.39,-2.34 0.26,-0.7 0.61,-1.29 1.04,-1.78 0.44,-0.49 0.95,-0.87 1.52,-1.14 0.57,-0.27 1.18,-0.4 1.82,-0.4 0.71,0 1.34,0.13 1.89,0.38 0.55,0.25 1.01,0.61 1.39,1.06 0.38,0.45 0.66,0.99 0.85,1.62 0.19,0.62 0.29,1.31 0.29,2.05l0 0.75 -7.96 0 0 0.24c0,0.61 0.09,1.19 0.28,1.73 0.19,0.54 0.45,1.01 0.78,1.4 0.34,0.4 0.74,0.71 1.21,0.95 0.47,0.23 0.99,0.34 1.56,0.34 0.66,0 1.24,-0.12 1.75,-0.36 0.5,-0.24 0.96,-0.63 1.38,-1.15l0.77 0.59c-0.19,0.27 -0.4,0.52 -0.64,0.76 -0.25,0.24 -0.53,0.45 -0.85,0.63 -0.32,0.18 -0.69,0.32 -1.09,0.43 -0.4,0.1 -0.86,0.15 -1.36,0.15zm-0.23 -10.52c-0.47,0 -0.9,0.09 -1.3,0.27 -0.4,0.18 -0.75,0.44 -1.06,0.76 -0.31,0.33 -0.56,0.73 -0.75,1.19 -0.2,0.46 -0.33,0.97 -0.4,1.54l6.69 0 0 -0.13c-0.01,-0.47 -0.09,-0.92 -0.22,-1.36 -0.14,-0.44 -0.34,-0.82 -0.6,-1.16 -0.27,-0.34 -0.59,-0.61 -0.99,-0.81 -0.39,-0.2 -0.85,-0.31 -1.37,-0.31zm7.99 -0.84l0.04 1.91c0.19,-0.32 0.41,-0.6 0.66,-0.87 0.25,-0.26 0.53,-0.49 0.84,-0.67 0.31,-0.19 0.64,-0.33 1,-0.43 0.36,-0.1 0.74,-0.15 1.13,-0.15 0.56,0 1.06,0.08 1.5,0.23 0.44,0.15 0.81,0.39 1.12,0.72 0.3,0.33 0.54,0.75 0.7,1.27 0.16,0.52 0.24,1.14 0.24,1.88l0 7.26 -1.23 0 0 -7.26c0,-0.58 -0.06,-1.06 -0.19,-1.45 -0.12,-0.38 -0.3,-0.69 -0.52,-0.93 -0.23,-0.24 -0.5,-0.4 -0.83,-0.5 -0.33,-0.1 -0.69,-0.15 -1.09,-0.15 -0.44,0 -0.84,0.07 -1.2,0.22 -0.36,0.15 -0.67,0.34 -0.95,0.59 -0.27,0.25 -0.51,0.53 -0.71,0.85 -0.2,0.32 -0.36,0.65 -0.47,0.98l0 7.64 -1.23 0 0 -11.15 1.18 0zm9.92 5.47c0,-0.87 0.1,-1.65 0.3,-2.35 0.2,-0.7 0.49,-1.29 0.86,-1.79 0.37,-0.5 0.82,-0.88 1.35,-1.14 0.53,-0.27 1.13,-0.4 1.8,-0.4 0.79,0 1.47,0.16 2.04,0.48 0.57,0.32 1.03,0.75 1.41,1.31l0 -6.25 1.22 0 0 15.83 -1.15 0 -0.05 -1.48c-0.37,0.53 -0.84,0.94 -1.41,1.24 -0.58,0.3 -1.26,0.45 -2.07,0.45 -0.66,0 -1.25,-0.14 -1.78,-0.42 -0.53,-0.28 -0.98,-0.67 -1.35,-1.16 -0.37,-0.5 -0.66,-1.09 -0.86,-1.79 -0.2,-0.7 -0.3,-1.46 -0.3,-2.3l0 -0.21zm1.25 0.21c0,0.65 0.06,1.26 0.2,1.82 0.13,0.56 0.33,1.05 0.59,1.46 0.27,0.41 0.61,0.74 1.02,0.97 0.41,0.24 0.89,0.35 1.46,0.35 0.42,0 0.8,-0.05 1.14,-0.15 0.34,-0.1 0.64,-0.24 0.91,-0.42 0.26,-0.18 0.5,-0.39 0.69,-0.64 0.2,-0.25 0.36,-0.51 0.5,-0.8l0 -5.24c-0.13,-0.28 -0.28,-0.55 -0.45,-0.81 -0.18,-0.26 -0.4,-0.49 -0.66,-0.7 -0.26,-0.2 -0.56,-0.36 -0.91,-0.49 -0.34,-0.12 -0.74,-0.18 -1.2,-0.18 -0.57,0 -1.06,0.12 -1.47,0.36 -0.41,0.24 -0.75,0.56 -1.02,0.97 -0.27,0.41 -0.46,0.9 -0.59,1.46 -0.13,0.56 -0.2,1.17 -0.2,1.81l0 0.21zm12.36 5.46l-1.24 0 0 -15.83 1.24 0 0 15.83zm7.67 0.21c-0.73,0 -1.4,-0.14 -2.01,-0.41 -0.61,-0.27 -1.14,-0.65 -1.58,-1.13 -0.44,-0.49 -0.79,-1.06 -1.04,-1.73 -0.25,-0.67 -0.37,-1.4 -0.37,-2.19l0 -0.44c0,-0.86 0.13,-1.64 0.39,-2.34 0.26,-0.7 0.61,-1.29 1.04,-1.78 0.44,-0.49 0.95,-0.87 1.52,-1.14 0.57,-0.27 1.18,-0.4 1.82,-0.4 0.71,0 1.34,0.13 1.89,0.38 0.55,0.25 1.01,0.61 1.39,1.06 0.38,0.45 0.66,0.99 0.85,1.62 0.19,0.62 0.29,1.31 0.29,2.05l0 0.75 -7.96 0 0 0.24c0,0.61 0.09,1.19 0.28,1.73 0.19,0.54 0.45,1.01 0.78,1.4 0.34,0.4 0.74,0.71 1.21,0.95 0.47,0.23 0.99,0.34 1.56,0.34 0.66,0 1.24,-0.12 1.75,-0.36 0.5,-0.24 0.96,-0.63 1.38,-1.15l0.77 0.59c-0.19,0.27 -0.4,0.52 -0.64,0.76 -0.25,0.24 -0.53,0.45 -0.85,0.63 -0.32,0.18 -0.69,0.32 -1.09,0.43 -0.4,0.1 -0.86,0.15 -1.36,0.15zm-0.23 -10.52c-0.47,0 -0.9,0.09 -1.3,0.27 -0.4,0.18 -0.75,0.44 -1.06,0.76 -0.31,0.33 -0.56,0.73 -0.75,1.19 -0.2,0.46 -0.33,0.97 -0.4,1.54l6.69 0 0 -0.13c-0.01,-0.47 -0.09,-0.92 -0.22,-1.36 -0.14,-0.44 -0.34,-0.82 -0.6,-1.16 -0.27,-0.34 -0.59,-0.61 -0.99,-0.81 -0.39,-0.2 -0.85,-0.31 -1.37,-0.31zm13.49 7.47c0,-0.23 -0.04,-0.45 -0.12,-0.68 -0.08,-0.23 -0.23,-0.44 -0.44,-0.64 -0.22,-0.2 -0.52,-0.39 -0.91,-0.57 -0.39,-0.18 -0.89,-0.33 -1.51,-0.46 -0.62,-0.13 -1.17,-0.28 -1.65,-0.45 -0.49,-0.17 -0.89,-0.38 -1.23,-0.62 -0.33,-0.24 -0.59,-0.53 -0.76,-0.87 -0.17,-0.34 -0.26,-0.73 -0.26,-1.19 0,-0.41 0.09,-0.81 0.27,-1.18 0.18,-0.37 0.44,-0.7 0.78,-0.97 0.34,-0.27 0.75,-0.49 1.23,-0.65 0.49,-0.16 1.03,-0.24 1.64,-0.24 0.64,0 1.22,0.08 1.73,0.25 0.51,0.17 0.95,0.4 1.3,0.7 0.36,0.3 0.63,0.65 0.81,1.06 0.19,0.4 0.28,0.84 0.28,1.32l-1.24 0c0,-0.29 -0.06,-0.57 -0.19,-0.84 -0.13,-0.28 -0.31,-0.52 -0.56,-0.73 -0.25,-0.21 -0.55,-0.38 -0.91,-0.51 -0.36,-0.13 -0.77,-0.2 -1.23,-0.2 -0.48,0 -0.89,0.06 -1.23,0.18 -0.34,0.12 -0.62,0.27 -0.83,0.45 -0.21,0.19 -0.37,0.39 -0.47,0.62 -0.1,0.23 -0.15,0.46 -0.15,0.7 0,0.25 0.04,0.47 0.11,0.68 0.08,0.2 0.22,0.39 0.44,0.57 0.21,0.18 0.52,0.34 0.91,0.49 0.39,0.15 0.89,0.29 1.52,0.44 0.67,0.16 1.25,0.33 1.74,0.53 0.49,0.19 0.89,0.42 1.21,0.68 0.32,0.27 0.56,0.57 0.71,0.91 0.15,0.34 0.23,0.74 0.23,1.18 0,0.46 -0.1,0.88 -0.29,1.26 -0.19,0.38 -0.47,0.71 -0.82,0.98 -0.36,0.27 -0.79,0.48 -1.3,0.63 -0.51,0.15 -1.07,0.23 -1.7,0.23 -0.71,0 -1.33,-0.09 -1.88,-0.27 -0.54,-0.18 -1,-0.43 -1.37,-0.74 -0.37,-0.31 -0.65,-0.66 -0.84,-1.07 -0.19,-0.4 -0.28,-0.82 -0.28,-1.25l1.23 0c0.03,0.44 0.14,0.81 0.34,1.1 0.2,0.29 0.45,0.53 0.74,0.7 0.3,0.18 0.62,0.3 0.99,0.38 0.36,0.08 0.72,0.12 1.07,0.12 0.47,0 0.88,-0.06 1.24,-0.17 0.36,-0.11 0.66,-0.26 0.9,-0.44 0.24,-0.19 0.43,-0.4 0.55,-0.64 0.12,-0.24 0.18,-0.49 0.18,-0.75zm10.69 0c0,-0.23 -0.04,-0.45 -0.12,-0.68 -0.08,-0.23 -0.23,-0.44 -0.44,-0.64 -0.22,-0.2 -0.52,-0.39 -0.91,-0.57 -0.39,-0.18 -0.89,-0.33 -1.51,-0.46 -0.62,-0.13 -1.17,-0.28 -1.65,-0.45 -0.49,-0.17 -0.89,-0.38 -1.23,-0.62 -0.33,-0.24 -0.59,-0.53 -0.76,-0.87 -0.17,-0.34 -0.26,-0.73 -0.26,-1.19 0,-0.41 0.09,-0.81 0.27,-1.18 0.18,-0.37 0.44,-0.7 0.78,-0.97 0.34,-0.27 0.75,-0.49 1.23,-0.65 0.49,-0.16 1.03,-0.24 1.64,-0.24 0.64,0 1.22,0.08 1.73,0.25 0.51,0.17 0.95,0.4 1.3,0.7 0.36,0.3 0.63,0.65 0.81,1.06 0.19,0.4 0.28,0.84 0.28,1.32l-1.24 0c0,-0.29 -0.06,-0.57 -0.19,-0.84 -0.13,-0.28 -0.31,-0.52 -0.56,-0.73 -0.25,-0.21 -0.55,-0.38 -0.91,-0.51 -0.36,-0.13 -0.77,-0.2 -1.23,-0.2 -0.48,0 -0.89,0.06 -1.23,0.18 -0.34,0.12 -0.62,0.27 -0.83,0.45 -0.21,0.19 -0.37,0.39 -0.47,0.62 -0.1,0.23 -0.15,0.46 -0.15,0.7 0,0.25 0.04,0.47 0.11,0.68 0.08,0.2 0.22,0.39 0.44,0.57 0.21,0.18 0.52,0.34 0.91,0.49 0.39,0.15 0.89,0.29 1.52,0.44 0.67,0.16 1.25,0.33 1.74,0.53 0.49,0.19 0.89,0.42 1.21,0.68 0.32,0.27 0.56,0.57 0.71,0.91 0.15,0.34 0.23,0.74 0.23,1.18 0,0.46 -0.1,0.88 -0.29,1.26 -0.19,0.38 -0.47,0.71 -0.82,0.98 -0.36,0.27 -0.79,0.48 -1.3,0.63 -0.51,0.15 -1.07,0.23 -1.7,0.23 -0.71,0 -1.33,-0.09 -1.88,-0.27 -0.54,-0.18 -1,-0.43 -1.37,-0.74 -0.37,-0.31 -0.65,-0.66 -0.84,-1.07 -0.19,-0.4 -0.28,-0.82 -0.28,-1.25l1.23 0c0.03,0.44 0.14,0.81 0.34,1.1 0.2,0.29 0.45,0.53 0.74,0.7 0.3,0.18 0.62,0.3 0.99,0.38 0.36,0.08 0.72,0.12 1.07,0.12 0.47,0 0.88,-0.06 1.24,-0.17 0.36,-0.11 0.66,-0.26 0.9,-0.44 0.24,-0.19 0.43,-0.4 0.55,-0.64 0.12,-0.24 0.18,-0.49 0.18,-0.75zm8.65 -2.84c0,-0.87 0.1,-1.65 0.3,-2.35 0.2,-0.7 0.48,-1.29 0.85,-1.79 0.37,-0.5 0.82,-0.88 1.35,-1.14 0.53,-0.27 1.14,-0.4 1.81,-0.4 0.8,0 1.48,0.16 2.05,0.48 0.57,0.32 1.04,0.76 1.41,1.33l0.06 -1.61 1.15 0 0 10.95c0,0.72 -0.11,1.37 -0.32,1.95 -0.21,0.57 -0.51,1.06 -0.9,1.46 -0.39,0.4 -0.86,0.7 -1.41,0.92 -0.55,0.21 -1.16,0.32 -1.84,0.32 -0.35,0 -0.71,-0.04 -1.07,-0.12 -0.37,-0.08 -0.72,-0.2 -1.06,-0.36 -0.34,-0.16 -0.66,-0.36 -0.96,-0.59 -0.3,-0.24 -0.57,-0.52 -0.79,-0.84l0.69 -0.74c0.45,0.56 0.94,0.96 1.45,1.22 0.51,0.26 1.06,0.39 1.67,0.39 0.53,0 1,-0.08 1.41,-0.24 0.41,-0.16 0.75,-0.39 1.04,-0.7 0.28,-0.31 0.5,-0.68 0.64,-1.12 0.15,-0.44 0.22,-0.93 0.22,-1.49l0 -1.3c-0.37,0.51 -0.84,0.92 -1.41,1.21 -0.57,0.29 -1.25,0.44 -2.04,0.44 -0.67,0 -1.26,-0.14 -1.79,-0.42 -0.53,-0.28 -0.98,-0.67 -1.35,-1.16 -0.37,-0.5 -0.65,-1.09 -0.85,-1.79 -0.2,-0.7 -0.3,-1.46 -0.3,-2.3l0 -0.21zm1.25 0.21c0,0.65 0.06,1.26 0.2,1.82 0.13,0.56 0.33,1.05 0.59,1.46 0.27,0.41 0.61,0.74 1.02,0.97 0.41,0.24 0.89,0.35 1.46,0.35 0.43,0 0.81,-0.05 1.15,-0.15 0.34,-0.1 0.64,-0.25 0.9,-0.43 0.26,-0.18 0.49,-0.39 0.68,-0.64 0.19,-0.25 0.36,-0.52 0.5,-0.81l0 -5.19c-0.12,-0.29 -0.27,-0.56 -0.45,-0.83 -0.18,-0.26 -0.4,-0.5 -0.66,-0.7 -0.26,-0.2 -0.56,-0.36 -0.9,-0.49 -0.34,-0.12 -0.74,-0.18 -1.2,-0.18 -0.57,0 -1.06,0.12 -1.47,0.36 -0.41,0.24 -0.75,0.56 -1.02,0.97 -0.27,0.41 -0.46,0.9 -0.59,1.46 -0.13,0.56 -0.2,1.17 -0.2,1.81l0 0.21z"></path> <path class="fil1" d="M401.72 127.96c-0.07,-0.19 -0.12,-0.43 -0.16,-0.71 -0.04,-0.28 -0.06,-0.56 -0.08,-0.85 -0.19,0.24 -0.41,0.46 -0.66,0.68 -0.25,0.21 -0.54,0.4 -0.85,0.56 -0.32,0.16 -0.66,0.28 -1.04,0.38 -0.38,0.09 -0.79,0.14 -1.23,0.14 -0.54,0 -1.03,-0.08 -1.48,-0.24 -0.44,-0.16 -0.82,-0.38 -1.13,-0.66 -0.31,-0.29 -0.56,-0.62 -0.73,-1 -0.17,-0.39 -0.26,-0.81 -0.26,-1.26 0,-0.54 0.12,-1.03 0.35,-1.47 0.23,-0.44 0.57,-0.81 1.01,-1.12 0.44,-0.31 0.97,-0.54 1.6,-0.7 0.63,-0.16 1.34,-0.24 2.12,-0.24l2.29 0 0 -1.27c0,-0.8 -0.25,-1.42 -0.74,-1.88 -0.49,-0.46 -1.21,-0.69 -2.15,-0.69 -0.43,0 -0.83,0.06 -1.19,0.18 -0.37,0.12 -0.68,0.28 -0.95,0.49 -0.26,0.2 -0.47,0.44 -0.62,0.71 -0.15,0.27 -0.22,0.56 -0.22,0.87l-1.24 -0.01c0,-0.42 0.1,-0.82 0.31,-1.22 0.21,-0.39 0.5,-0.74 0.87,-1.04 0.37,-0.31 0.82,-0.55 1.35,-0.74 0.53,-0.19 1.11,-0.28 1.75,-0.28 0.59,0 1.14,0.08 1.63,0.23 0.5,0.15 0.93,0.38 1.28,0.68 0.36,0.3 0.64,0.68 0.83,1.14 0.2,0.45 0.3,0.98 0.3,1.59l0 5.4c0,0.19 0.01,0.39 0.02,0.6 0.01,0.2 0.04,0.4 0.07,0.6 0.03,0.19 0.07,0.38 0.11,0.55 0.04,0.18 0.09,0.33 0.14,0.46l0 0.12 -1.32 0zm-3.88 -0.89c0.45,0 0.86,-0.06 1.24,-0.17 0.38,-0.12 0.73,-0.27 1.04,-0.47 0.31,-0.2 0.58,-0.43 0.8,-0.69 0.23,-0.27 0.41,-0.55 0.55,-0.86l0 -2.45 -2.11 0c-0.63,0 -1.2,0.06 -1.7,0.17 -0.5,0.11 -0.92,0.28 -1.26,0.49 -0.34,0.21 -0.6,0.47 -0.79,0.78 -0.18,0.31 -0.27,0.65 -0.27,1.04 0,0.3 0.06,0.58 0.17,0.85 0.12,0.26 0.28,0.49 0.5,0.69 0.22,0.2 0.48,0.35 0.79,0.46 0.31,0.11 0.65,0.17 1.04,0.17zm9.27 -10.27l0.04 1.82c0.19,-0.3 0.4,-0.58 0.64,-0.83 0.25,-0.25 0.52,-0.46 0.82,-0.64 0.3,-0.18 0.63,-0.31 0.99,-0.41 0.36,-0.09 0.74,-0.14 1.16,-0.14 0.82,0 1.52,0.17 2.1,0.52 0.58,0.34 1,0.89 1.25,1.65 0.18,-0.31 0.39,-0.6 0.64,-0.86 0.25,-0.26 0.53,-0.49 0.85,-0.69 0.32,-0.19 0.67,-0.34 1.06,-0.45 0.39,-0.11 0.8,-0.17 1.25,-0.17 0.58,0 1.09,0.08 1.54,0.23 0.45,0.15 0.84,0.4 1.15,0.73 0.31,0.33 0.55,0.76 0.71,1.27 0.17,0.52 0.25,1.13 0.25,1.86l0 7.26 -1.24 0 0 -7.27c0,-0.59 -0.06,-1.08 -0.19,-1.47 -0.13,-0.39 -0.32,-0.7 -0.56,-0.93 -0.24,-0.23 -0.53,-0.39 -0.86,-0.48 -0.33,-0.09 -0.7,-0.13 -1.1,-0.13 -0.52,0.01 -0.98,0.1 -1.37,0.28 -0.39,0.18 -0.72,0.41 -1,0.69 -0.27,0.28 -0.48,0.59 -0.63,0.93 -0.15,0.34 -0.24,0.68 -0.27,1l0 7.38 -1.24 0 0 -7.37c0,-0.56 -0.06,-1.02 -0.19,-1.39 -0.13,-0.37 -0.32,-0.67 -0.56,-0.9 -0.24,-0.23 -0.53,-0.39 -0.86,-0.49 -0.33,-0.1 -0.7,-0.14 -1.11,-0.14 -0.47,0 -0.88,0.07 -1.24,0.22 -0.36,0.15 -0.67,0.34 -0.93,0.59 -0.26,0.25 -0.48,0.53 -0.65,0.84 -0.17,0.32 -0.31,0.64 -0.41,0.98l0 7.65 -1.23 0 0 -11.15 1.18 0zm21.9 11.36c-0.73,0 -1.4,-0.14 -2.01,-0.41 -0.61,-0.27 -1.14,-0.65 -1.58,-1.13 -0.44,-0.49 -0.79,-1.06 -1.04,-1.73 -0.25,-0.67 -0.37,-1.4 -0.37,-2.19l0 -0.44c0,-0.86 0.13,-1.64 0.39,-2.34 0.26,-0.7 0.61,-1.29 1.04,-1.78 0.44,-0.49 0.95,-0.87 1.52,-1.14 0.57,-0.27 1.18,-0.4 1.82,-0.4 0.71,0 1.34,0.13 1.89,0.38 0.55,0.25 1.01,0.61 1.39,1.06 0.38,0.45 0.66,0.99 0.85,1.62 0.19,0.62 0.29,1.31 0.29,2.05l0 0.75 -7.96 0 0 0.24c0,0.61 0.09,1.19 0.28,1.73 0.19,0.54 0.45,1.01 0.78,1.4 0.34,0.4 0.74,0.71 1.21,0.95 0.47,0.23 0.99,0.34 1.56,0.34 0.66,0 1.24,-0.12 1.75,-0.36 0.5,-0.24 0.96,-0.63 1.38,-1.15l0.77 0.59c-0.19,0.27 -0.4,0.52 -0.64,0.76 -0.25,0.24 -0.53,0.45 -0.85,0.63 -0.32,0.18 -0.69,0.32 -1.09,0.43 -0.4,0.1 -0.86,0.15 -1.36,0.15zm-0.23 -10.52c-0.47,0 -0.9,0.09 -1.3,0.27 -0.4,0.18 -0.75,0.44 -1.06,0.76 -0.31,0.33 -0.56,0.73 -0.75,1.19 -0.2,0.46 -0.33,0.97 -0.4,1.54l6.69 0 0 -0.13c-0.01,-0.47 -0.09,-0.92 -0.22,-1.36 -0.14,-0.44 -0.34,-0.82 -0.6,-1.16 -0.27,-0.34 -0.59,-0.61 -0.99,-0.81 -0.39,-0.2 -0.85,-0.31 -1.37,-0.31zm13.49 7.47c0,-0.23 -0.04,-0.45 -0.12,-0.68 -0.08,-0.23 -0.23,-0.44 -0.44,-0.64 -0.22,-0.2 -0.52,-0.39 -0.91,-0.57 -0.39,-0.18 -0.89,-0.33 -1.51,-0.46 -0.62,-0.13 -1.17,-0.28 -1.65,-0.45 -0.49,-0.17 -0.89,-0.38 -1.23,-0.62 -0.33,-0.24 -0.59,-0.53 -0.76,-0.87 -0.17,-0.34 -0.26,-0.73 -0.26,-1.19 0,-0.41 0.09,-0.81 0.27,-1.18 0.18,-0.37 0.44,-0.7 0.78,-0.97 0.34,-0.27 0.75,-0.49 1.23,-0.65 0.49,-0.16 1.03,-0.24 1.64,-0.24 0.64,0 1.22,0.08 1.73,0.25 0.51,0.17 0.95,0.4 1.3,0.7 0.36,0.3 0.63,0.65 0.81,1.06 0.19,0.4 0.28,0.84 0.28,1.32l-1.24 0c0,-0.29 -0.06,-0.57 -0.19,-0.84 -0.13,-0.28 -0.31,-0.52 -0.56,-0.73 -0.25,-0.21 -0.55,-0.38 -0.91,-0.51 -0.36,-0.13 -0.77,-0.2 -1.23,-0.2 -0.48,0 -0.89,0.06 -1.23,0.18 -0.34,0.12 -0.62,0.27 -0.83,0.45 -0.21,0.19 -0.37,0.39 -0.47,0.62 -0.1,0.23 -0.15,0.46 -0.15,0.7 0,0.25 0.04,0.47 0.11,0.68 0.08,0.2 0.22,0.39 0.44,0.57 0.21,0.18 0.52,0.34 0.91,0.49 0.39,0.15 0.89,0.29 1.52,0.44 0.67,0.16 1.25,0.33 1.74,0.53 0.49,0.19 0.89,0.42 1.21,0.68 0.32,0.27 0.56,0.57 0.71,0.91 0.15,0.34 0.23,0.74 0.23,1.18 0,0.46 -0.1,0.88 -0.29,1.26 -0.19,0.38 -0.47,0.71 -0.82,0.98 -0.36,0.27 -0.79,0.48 -1.3,0.63 -0.51,0.15 -1.07,0.23 -1.7,0.23 -0.71,0 -1.33,-0.09 -1.88,-0.27 -0.54,-0.18 -1,-0.43 -1.37,-0.74 -0.37,-0.31 -0.65,-0.66 -0.84,-1.07 -0.19,-0.4 -0.28,-0.82 -0.28,-1.25l1.23 0c0.03,0.44 0.14,0.81 0.34,1.1 0.2,0.29 0.45,0.53 0.74,0.7 0.3,0.18 0.62,0.3 0.99,0.38 0.36,0.08 0.72,0.12 1.07,0.12 0.47,0 0.88,-0.06 1.24,-0.17 0.36,-0.11 0.66,-0.26 0.9,-0.44 0.24,-0.19 0.43,-0.4 0.55,-0.64 0.12,-0.24 0.18,-0.49 0.18,-0.75zm10.03 2.84l0 -10.14 -1.84 0 0 -1.01 1.84 0 0 -1.38c0,-0.56 0.08,-1.06 0.23,-1.5 0.15,-0.44 0.37,-0.81 0.65,-1.1 0.29,-0.3 0.63,-0.52 1.04,-0.68 0.4,-0.15 0.87,-0.23 1.38,-0.23 0.21,0 0.43,0.01 0.65,0.04 0.22,0.03 0.44,0.07 0.65,0.13l-0.09 1.03c-0.17,-0.04 -0.34,-0.07 -0.52,-0.09 -0.18,-0.02 -0.38,-0.03 -0.6,-0.03 -0.68,0 -1.21,0.21 -1.59,0.63 -0.38,0.42 -0.57,1.02 -0.57,1.8l0 1.38 2.66 0 0 1.01 -2.66 0 0 10.14 -1.24 0zm5.42 -5.74c0,-0.81 0.12,-1.56 0.36,-2.25 0.24,-0.69 0.57,-1.28 1,-1.78 0.43,-0.5 0.96,-0.89 1.57,-1.17 0.61,-0.29 1.29,-0.43 2.04,-0.43 0.76,0 1.45,0.14 2.06,0.43 0.62,0.28 1.14,0.67 1.57,1.17 0.43,0.5 0.77,1.09 1,1.78 0.24,0.69 0.35,1.44 0.35,2.25l0 0.34c0,0.81 -0.12,1.56 -0.35,2.24 -0.23,0.69 -0.57,1.28 -1,1.78 -0.43,0.5 -0.95,0.89 -1.57,1.16 -0.61,0.28 -1.29,0.42 -2.05,0.42 -0.76,0 -1.44,-0.14 -2.05,-0.42 -0.61,-0.28 -1.14,-0.67 -1.57,-1.16 -0.44,-0.5 -0.77,-1.09 -1.01,-1.78 -0.24,-0.69 -0.36,-1.44 -0.36,-2.24l0 -0.34zm1.23 0.34c0,0.61 0.08,1.19 0.25,1.74 0.16,0.56 0.4,1.04 0.72,1.45 0.32,0.42 0.71,0.75 1.17,1 0.46,0.25 1,0.37 1.61,0.37 0.61,0 1.14,-0.12 1.6,-0.37 0.46,-0.25 0.85,-0.58 1.17,-1 0.32,-0.42 0.56,-0.9 0.72,-1.45 0.17,-0.55 0.25,-1.13 0.25,-1.74l0 -0.34c0,-0.6 -0.08,-1.17 -0.25,-1.73 -0.17,-0.55 -0.4,-1.04 -0.72,-1.46 -0.32,-0.42 -0.71,-0.75 -1.18,-1.01 -0.47,-0.25 -1.01,-0.38 -1.61,-0.38 -0.6,0 -1.13,0.13 -1.59,0.38 -0.46,0.25 -0.85,0.59 -1.17,1.01 -0.32,0.42 -0.56,0.9 -0.72,1.46 -0.17,0.56 -0.25,1.13 -0.25,1.73l0 0.34zm16.42 -4.7c-0.26,-0.05 -0.54,-0.07 -0.83,-0.07 -0.42,0 -0.8,0.06 -1.14,0.19 -0.33,0.12 -0.63,0.3 -0.89,0.52 -0.26,0.22 -0.47,0.49 -0.65,0.79 -0.17,0.31 -0.31,0.64 -0.42,1.01l0 7.66 -1.23 0 0 -11.15 1.21 0 0.02 1.77c0.3,-0.61 0.71,-1.09 1.23,-1.45 0.52,-0.35 1.15,-0.53 1.91,-0.53 0.15,0 0.31,0.01 0.46,0.04 0.16,0.03 0.27,0.06 0.35,0.1l-0.03 1.12zm16.06 4.64c0,0.84 -0.1,1.6 -0.29,2.3 -0.19,0.69 -0.46,1.29 -0.83,1.79 -0.36,0.5 -0.81,0.89 -1.34,1.16 -0.53,0.28 -1.13,0.42 -1.8,0.42 -0.82,0 -1.52,-0.15 -2.1,-0.46 -0.58,-0.31 -1.06,-0.73 -1.43,-1.27l-0.05 1.53 -1.15 0 0 -15.83 1.23 0 0 6.3c0.37,-0.58 0.84,-1.02 1.41,-1.34 0.57,-0.32 1.26,-0.48 2.07,-0.48 0.68,0 1.28,0.14 1.82,0.4 0.53,0.27 0.97,0.65 1.34,1.14 0.37,0.5 0.65,1.09 0.83,1.79 0.19,0.7 0.29,1.48 0.29,2.35l0 0.21zm-1.24 -0.21c0,-0.65 -0.06,-1.25 -0.18,-1.81 -0.13,-0.56 -0.32,-1.05 -0.58,-1.46 -0.26,-0.41 -0.6,-0.74 -1.02,-0.97 -0.41,-0.24 -0.9,-0.36 -1.48,-0.36 -0.47,0 -0.88,0.06 -1.24,0.19 -0.36,0.13 -0.67,0.3 -0.93,0.51 -0.26,0.21 -0.48,0.46 -0.66,0.73 -0.18,0.27 -0.32,0.56 -0.43,0.86l0 5.03c0.13,0.3 0.29,0.57 0.49,0.83 0.2,0.26 0.43,0.48 0.7,0.67 0.27,0.19 0.57,0.34 0.92,0.44 0.34,0.11 0.74,0.16 1.17,0.16 0.56,0 1.04,-0.12 1.45,-0.35 0.41,-0.23 0.75,-0.56 1.02,-0.97 0.27,-0.41 0.46,-0.9 0.59,-1.46 0.13,-0.56 0.19,-1.16 0.19,-1.82l0 -0.21zm3.28 -0.06c0,-0.81 0.12,-1.56 0.36,-2.25 0.24,-0.69 0.57,-1.28 1,-1.78 0.43,-0.5 0.96,-0.89 1.57,-1.17 0.61,-0.29 1.29,-0.43 2.04,-0.43 0.76,0 1.45,0.14 2.06,0.43 0.62,0.28 1.14,0.67 1.57,1.17 0.43,0.5 0.77,1.09 1,1.78 0.24,0.69 0.35,1.44 0.35,2.25l0 0.34c0,0.81 -0.12,1.56 -0.35,2.24 -0.23,0.69 -0.57,1.28 -1,1.78 -0.43,0.5 -0.95,0.89 -1.57,1.16 -0.61,0.28 -1.29,0.42 -2.05,0.42 -0.76,0 -1.44,-0.14 -2.05,-0.42 -0.61,-0.28 -1.14,-0.67 -1.57,-1.16 -0.44,-0.5 -0.77,-1.09 -1.01,-1.78 -0.24,-0.69 -0.36,-1.44 -0.36,-2.24l0 -0.34zm1.23 0.34c0,0.61 0.08,1.19 0.25,1.74 0.16,0.56 0.4,1.04 0.72,1.45 0.32,0.42 0.71,0.75 1.17,1 0.46,0.25 1,0.37 1.61,0.37 0.61,0 1.14,-0.12 1.6,-0.37 0.46,-0.25 0.85,-0.58 1.17,-1 0.32,-0.42 0.56,-0.9 0.72,-1.45 0.17,-0.55 0.25,-1.13 0.25,-1.74l0 -0.34c0,-0.6 -0.08,-1.17 -0.25,-1.73 -0.17,-0.55 -0.4,-1.04 -0.72,-1.46 -0.32,-0.42 -0.71,-0.75 -1.18,-1.01 -0.47,-0.25 -1.01,-0.38 -1.61,-0.38 -0.6,0 -1.13,0.13 -1.59,0.38 -0.46,0.25 -0.85,0.59 -1.17,1.01 -0.32,0.42 -0.56,0.9 -0.72,1.46 -0.17,0.56 -0.25,1.13 -0.25,1.73l0 0.34zm14.64 3.63l3.26 -9.38 1.33 0 -4.72 12.94c-0.09,0.25 -0.22,0.54 -0.37,0.85 -0.15,0.32 -0.34,0.61 -0.58,0.89 -0.24,0.27 -0.53,0.51 -0.89,0.7 -0.36,0.19 -0.78,0.28 -1.29,0.28 -0.07,0 -0.15,-0 -0.24,-0.01 -0.09,-0.01 -0.18,-0.02 -0.27,-0.04 -0.09,-0.01 -0.18,-0.03 -0.25,-0.05 -0.08,-0.01 -0.14,-0.03 -0.19,-0.05l-0.01 -1.02c0.08,0.01 0.19,0.03 0.33,0.04 0.14,0.01 0.24,0.02 0.3,0.02 0.33,0 0.62,-0.04 0.88,-0.13 0.26,-0.08 0.48,-0.21 0.66,-0.38 0.19,-0.17 0.36,-0.38 0.5,-0.63 0.14,-0.26 0.28,-0.55 0.39,-0.88l0.53 -1.47 -4.2 -11.06 1.35 0 3.46 9.38zm13.17 -1.06c0,-0.23 -0.04,-0.45 -0.12,-0.68 -0.08,-0.23 -0.23,-0.44 -0.44,-0.64 -0.22,-0.2 -0.52,-0.39 -0.91,-0.57 -0.39,-0.18 -0.89,-0.33 -1.51,-0.46 -0.62,-0.13 -1.17,-0.28 -1.65,-0.45 -0.49,-0.17 -0.89,-0.38 -1.23,-0.62 -0.33,-0.24 -0.59,-0.53 -0.76,-0.87 -0.17,-0.34 -0.26,-0.73 -0.26,-1.19 0,-0.41 0.09,-0.81 0.27,-1.18 0.18,-0.37 0.44,-0.7 0.78,-0.97 0.34,-0.27 0.75,-0.49 1.23,-0.65 0.49,-0.16 1.03,-0.24 1.64,-0.24 0.64,0 1.22,0.08 1.73,0.25 0.51,0.17 0.95,0.4 1.3,0.7 0.36,0.3 0.63,0.65 0.81,1.06 0.19,0.4 0.28,0.84 0.28,1.32l-1.24 0c0,-0.29 -0.06,-0.57 -0.19,-0.84 -0.13,-0.28 -0.31,-0.52 -0.56,-0.73 -0.25,-0.21 -0.55,-0.38 -0.91,-0.51 -0.36,-0.13 -0.77,-0.2 -1.23,-0.2 -0.48,0 -0.89,0.06 -1.23,0.18 -0.34,0.12 -0.62,0.27 -0.83,0.45 -0.21,0.19 -0.37,0.39 -0.47,0.62 -0.1,0.23 -0.15,0.46 -0.15,0.7 0,0.25 0.04,0.47 0.11,0.68 0.08,0.2 0.22,0.39 0.44,0.57 0.21,0.18 0.52,0.34 0.91,0.49 0.39,0.15 0.89,0.29 1.52,0.44 0.67,0.16 1.25,0.33 1.74,0.53 0.49,0.19 0.89,0.42 1.21,0.68 0.32,0.27 0.56,0.57 0.71,0.91 0.15,0.34 0.23,0.74 0.23,1.18 0,0.46 -0.1,0.88 -0.29,1.26 -0.19,0.38 -0.47,0.71 -0.82,0.98 -0.36,0.27 -0.79,0.48 -1.3,0.63 -0.51,0.15 -1.07,0.23 -1.7,0.23 -0.71,0 -1.33,-0.09 -1.88,-0.27 -0.54,-0.18 -1,-0.43 -1.37,-0.74 -0.37,-0.31 -0.65,-0.66 -0.84,-1.07 -0.19,-0.4 -0.28,-0.82 -0.28,-1.25l1.23 0c0.03,0.44 0.14,0.81 0.34,1.1 0.2,0.29 0.45,0.53 0.74,0.7 0.3,0.18 0.62,0.3 0.99,0.38 0.36,0.08 0.72,0.12 1.07,0.12 0.47,0 0.88,-0.06 1.24,-0.17 0.36,-0.11 0.66,-0.26 0.9,-0.44 0.24,-0.19 0.43,-0.4 0.55,-0.64 0.12,-0.24 0.18,-0.49 0.18,-0.75zm5.2 2.34c0,0.31 -0.03,0.62 -0.1,0.93 -0.06,0.31 -0.16,0.61 -0.28,0.89 -0.13,0.28 -0.28,0.55 -0.45,0.8 -0.18,0.25 -0.38,0.48 -0.61,0.69l-0.73 -0.53c0.32,-0.43 0.56,-0.85 0.72,-1.28 0.17,-0.43 0.25,-0.92 0.25,-1.46l0 -1.46 1.21 0 0 1.44zm-212.15 20.37c0,0.84 -0.1,1.6 -0.29,2.3 -0.19,0.69 -0.46,1.29 -0.83,1.79 -0.36,0.5 -0.81,0.89 -1.34,1.16 -0.53,0.28 -1.13,0.42 -1.8,0.42 -0.82,0 -1.52,-0.15 -2.1,-0.46 -0.58,-0.31 -1.06,-0.73 -1.43,-1.27l-0.05 1.53 -1.15 0 0 -15.83 1.23 0 0 6.3c0.37,-0.58 0.84,-1.02 1.41,-1.34 0.57,-0.32 1.26,-0.48 2.07,-0.48 0.68,0 1.28,0.14 1.82,0.4 0.53,0.27 0.97,0.65 1.34,1.14 0.37,0.5 0.65,1.09 0.83,1.79 0.19,0.7 0.29,1.48 0.29,2.35l0 0.21zm-1.24 -0.21c0,-0.65 -0.06,-1.25 -0.18,-1.81 -0.13,-0.56 -0.32,-1.05 -0.58,-1.46 -0.26,-0.41 -0.6,-0.74 -1.02,-0.97 -0.41,-0.24 -0.9,-0.36 -1.48,-0.36 -0.47,0 -0.88,0.06 -1.24,0.19 -0.36,0.13 -0.67,0.3 -0.93,0.51 -0.26,0.21 -0.48,0.46 -0.66,0.73 -0.18,0.27 -0.32,0.56 -0.43,0.86l0 5.03c0.13,0.3 0.29,0.57 0.49,0.83 0.2,0.26 0.43,0.48 0.7,0.67 0.27,0.19 0.57,0.34 0.92,0.44 0.34,0.11 0.74,0.16 1.17,0.16 0.56,0 1.04,-0.12 1.45,-0.35 0.41,-0.23 0.75,-0.56 1.02,-0.97 0.27,-0.41 0.46,-0.9 0.59,-1.46 0.13,-0.56 0.19,-1.16 0.19,-1.82l0 -0.21zm3.28 -0.06c0,-0.81 0.12,-1.56 0.36,-2.25 0.24,-0.69 0.57,-1.28 1,-1.78 0.43,-0.5 0.96,-0.89 1.57,-1.17 0.61,-0.29 1.29,-0.43 2.04,-0.43 0.76,0 1.45,0.14 2.06,0.43 0.62,0.28 1.14,0.67 1.57,1.17 0.43,0.5 0.77,1.09 1,1.78 0.24,0.69 0.35,1.44 0.35,2.25l0 0.34c0,0.81 -0.12,1.56 -0.35,2.24 -0.23,0.69 -0.57,1.28 -1,1.78 -0.43,0.5 -0.95,0.89 -1.57,1.16 -0.61,0.28 -1.29,0.42 -2.05,0.42 -0.76,0 -1.44,-0.14 -2.05,-0.42 -0.61,-0.28 -1.14,-0.67 -1.57,-1.16 -0.44,-0.5 -0.77,-1.09 -1.01,-1.78 -0.24,-0.69 -0.36,-1.44 -0.36,-2.24l0 -0.34zm1.23 0.34c0,0.61 0.08,1.19 0.25,1.74 0.16,0.56 0.4,1.04 0.72,1.45 0.32,0.42 0.71,0.75 1.17,1 0.46,0.25 1,0.37 1.61,0.37 0.61,0 1.14,-0.12 1.6,-0.37 0.46,-0.25 0.85,-0.58 1.17,-1 0.32,-0.42 0.56,-0.9 0.72,-1.45 0.17,-0.55 0.25,-1.13 0.25,-1.74l0 -0.34c0,-0.6 -0.08,-1.17 -0.25,-1.73 -0.17,-0.55 -0.4,-1.04 -0.72,-1.46 -0.32,-0.42 -0.71,-0.75 -1.18,-1.01 -0.47,-0.25 -1.01,-0.38 -1.61,-0.38 -0.6,0 -1.13,0.13 -1.59,0.38 -0.46,0.25 -0.85,0.59 -1.17,1.01 -0.32,0.42 -0.56,0.9 -0.72,1.46 -0.17,0.56 -0.25,1.13 -0.25,1.73l0 0.34zm14.64 3.63l3.26 -9.38 1.33 0 -4.72 12.94c-0.09,0.25 -0.22,0.54 -0.37,0.85 -0.15,0.32 -0.34,0.61 -0.58,0.89 -0.24,0.27 -0.53,0.51 -0.89,0.7 -0.36,0.19 -0.78,0.28 -1.29,0.28 -0.07,0 -0.15,-0 -0.24,-0.01 -0.09,-0.01 -0.18,-0.02 -0.27,-0.04 -0.09,-0.01 -0.18,-0.03 -0.25,-0.05 -0.08,-0.01 -0.14,-0.03 -0.19,-0.05l-0.01 -1.02c0.08,0.01 0.19,0.03 0.33,0.04 0.14,0.01 0.24,0.02 0.3,0.02 0.33,0 0.62,-0.04 0.88,-0.13 0.26,-0.08 0.48,-0.21 0.66,-0.38 0.19,-0.17 0.36,-0.38 0.5,-0.63 0.14,-0.26 0.28,-0.55 0.39,-0.88l0.53 -1.47 -4.2 -11.06 1.35 0 3.46 9.38zm7.86 -12.86c0,0.63 -0.13,1.24 -0.38,1.82 -0.25,0.58 -0.61,1.08 -1.06,1.49l-0.73 -0.53c0.16,-0.21 0.3,-0.43 0.42,-0.64 0.12,-0.21 0.22,-0.43 0.3,-0.65 0.08,-0.22 0.14,-0.45 0.18,-0.69 0.04,-0.24 0.06,-0.5 0.06,-0.77l0 -1.22 1.22 0 0 1.2zm8.07 11.8c0,-0.23 -0.04,-0.45 -0.12,-0.68 -0.08,-0.23 -0.23,-0.44 -0.44,-0.64 -0.22,-0.2 -0.52,-0.39 -0.91,-0.57 -0.39,-0.18 -0.89,-0.33 -1.51,-0.46 -0.62,-0.13 -1.17,-0.28 -1.65,-0.45 -0.49,-0.17 -0.89,-0.38 -1.23,-0.62 -0.33,-0.24 -0.59,-0.53 -0.76,-0.87 -0.17,-0.34 -0.26,-0.73 -0.26,-1.19 0,-0.41 0.09,-0.81 0.27,-1.18 0.18,-0.37 0.44,-0.7 0.78,-0.97 0.34,-0.27 0.75,-0.49 1.23,-0.65 0.49,-0.16 1.03,-0.24 1.64,-0.24 0.64,0 1.22,0.08 1.73,0.25 0.51,0.17 0.95,0.4 1.3,0.7 0.36,0.3 0.63,0.65 0.81,1.06 0.19,0.4 0.28,0.84 0.28,1.32l-1.24 0c0,-0.29 -0.06,-0.57 -0.19,-0.84 -0.13,-0.28 -0.31,-0.52 -0.56,-0.73 -0.25,-0.21 -0.55,-0.38 -0.91,-0.51 -0.36,-0.13 -0.77,-0.2 -1.23,-0.2 -0.48,0 -0.89,0.06 -1.23,0.18 -0.34,0.12 -0.62,0.27 -0.83,0.45 -0.21,0.19 -0.37,0.39 -0.47,0.62 -0.1,0.23 -0.15,0.46 -0.15,0.7 0,0.25 0.04,0.47 0.11,0.68 0.08,0.2 0.22,0.39 0.44,0.57 0.21,0.18 0.52,0.34 0.91,0.49 0.39,0.15 0.89,0.29 1.52,0.44 0.67,0.16 1.25,0.33 1.74,0.53 0.49,0.19 0.89,0.42 1.21,0.68 0.32,0.27 0.56,0.57 0.71,0.91 0.15,0.34 0.23,0.74 0.23,1.18 0,0.46 -0.1,0.88 -0.29,1.26 -0.19,0.38 -0.47,0.71 -0.82,0.98 -0.36,0.27 -0.79,0.48 -1.3,0.63 -0.51,0.15 -1.07,0.23 -1.7,0.23 -0.71,0 -1.33,-0.09 -1.88,-0.27 -0.54,-0.18 -1,-0.43 -1.37,-0.74 -0.37,-0.31 -0.65,-0.66 -0.84,-1.07 -0.19,-0.4 -0.28,-0.82 -0.28,-1.25l1.23 0c0.03,0.44 0.14,0.81 0.34,1.1 0.2,0.29 0.45,0.53 0.74,0.7 0.3,0.18 0.62,0.3 0.99,0.38 0.36,0.08 0.72,0.12 1.07,0.12 0.47,0 0.88,-0.06 1.24,-0.17 0.36,-0.11 0.66,-0.26 0.9,-0.44 0.24,-0.19 0.43,-0.4 0.55,-0.64 0.12,-0.24 0.18,-0.49 0.18,-0.75zm13.46 3.04c-0.73,0 -1.4,-0.14 -2.01,-0.41 -0.61,-0.27 -1.14,-0.65 -1.58,-1.13 -0.44,-0.49 -0.79,-1.06 -1.04,-1.73 -0.25,-0.67 -0.37,-1.4 -0.37,-2.19l0 -0.44c0,-0.86 0.13,-1.64 0.39,-2.34 0.26,-0.7 0.61,-1.29 1.04,-1.78 0.44,-0.49 0.95,-0.87 1.52,-1.14 0.57,-0.27 1.18,-0.4 1.82,-0.4 0.71,0 1.34,0.13 1.89,0.38 0.55,0.25 1.01,0.61 1.39,1.06 0.38,0.45 0.66,0.99 0.85,1.62 0.19,0.62 0.29,1.31 0.29,2.05l0 0.75 -7.96 0 0 0.24c0,0.61 0.09,1.19 0.28,1.73 0.19,0.54 0.45,1.01 0.78,1.4 0.34,0.4 0.74,0.71 1.21,0.95 0.47,0.23 0.99,0.34 1.56,0.34 0.66,0 1.24,-0.12 1.75,-0.36 0.5,-0.24 0.96,-0.63 1.38,-1.15l0.77 0.59c-0.19,0.27 -0.4,0.52 -0.64,0.76 -0.25,0.24 -0.53,0.45 -0.85,0.63 -0.32,0.18 -0.69,0.32 -1.09,0.43 -0.4,0.1 -0.86,0.15 -1.36,0.15zm-0.23 -10.52c-0.47,0 -0.9,0.09 -1.3,0.27 -0.4,0.18 -0.75,0.44 -1.06,0.76 -0.31,0.33 -0.56,0.73 -0.75,1.19 -0.2,0.46 -0.33,0.97 -0.4,1.54l6.69 0 0 -0.13c-0.01,-0.47 -0.09,-0.92 -0.22,-1.36 -0.14,-0.44 -0.34,-0.82 -0.6,-1.16 -0.27,-0.34 -0.59,-0.61 -0.99,-0.81 -0.39,-0.2 -0.85,-0.31 -1.37,-0.31z"></path> <path class="fil1" d="M370.64 142.14l0.04 1.91c0.19,-0.32 0.41,-0.6 0.66,-0.87 0.25,-0.26 0.53,-0.49 0.84,-0.67 0.31,-0.19 0.64,-0.33 1,-0.43 0.36,-0.1 0.74,-0.15 1.13,-0.15 0.56,0 1.06,0.08 1.5,0.23 0.44,0.15 0.81,0.39 1.12,0.72 0.3,0.33 0.54,0.75 0.7,1.27 0.16,0.52 0.24,1.14 0.24,1.88l0 7.26 -1.23 0 0 -7.26c0,-0.58 -0.06,-1.06 -0.19,-1.45 -0.12,-0.38 -0.3,-0.69 -0.52,-0.93 -0.23,-0.24 -0.5,-0.4 -0.83,-0.5 -0.33,-0.1 -0.69,-0.15 -1.09,-0.15 -0.44,0 -0.84,0.07 -1.2,0.22 -0.36,0.15 -0.67,0.34 -0.95,0.59 -0.27,0.25 -0.51,0.53 -0.71,0.85 -0.2,0.32 -0.36,0.65 -0.47,0.98l0 7.64 -1.23 0 0 -11.15 1.18 0zm9.92 5.47c0,-0.87 0.1,-1.65 0.3,-2.35 0.2,-0.7 0.49,-1.29 0.86,-1.79 0.37,-0.5 0.82,-0.88 1.35,-1.14 0.53,-0.27 1.13,-0.4 1.8,-0.4 0.79,0 1.47,0.16 2.04,0.48 0.57,0.32 1.03,0.75 1.41,1.31l0 -6.25 1.22 0 0 15.83 -1.15 0 -0.05 -1.48c-0.37,0.53 -0.84,0.94 -1.41,1.24 -0.58,0.3 -1.26,0.45 -2.07,0.45 -0.66,0 -1.25,-0.14 -1.78,-0.42 -0.53,-0.28 -0.98,-0.67 -1.35,-1.16 -0.37,-0.5 -0.66,-1.09 -0.86,-1.79 -0.2,-0.7 -0.3,-1.46 -0.3,-2.3l0 -0.21zm1.25 0.21c0,0.65 0.06,1.26 0.2,1.82 0.13,0.56 0.33,1.05 0.59,1.46 0.27,0.41 0.61,0.74 1.02,0.97 0.41,0.24 0.89,0.35 1.46,0.35 0.42,0 0.8,-0.05 1.14,-0.15 0.34,-0.1 0.64,-0.24 0.91,-0.42 0.26,-0.18 0.5,-0.39 0.69,-0.64 0.2,-0.25 0.36,-0.51 0.5,-0.8l0 -5.24c-0.13,-0.28 -0.28,-0.55 -0.45,-0.81 -0.18,-0.26 -0.4,-0.49 -0.66,-0.7 -0.26,-0.2 -0.56,-0.36 -0.91,-0.49 -0.34,-0.12 -0.74,-0.18 -1.2,-0.18 -0.57,0 -1.06,0.12 -1.47,0.36 -0.41,0.24 -0.75,0.56 -1.02,0.97 -0.27,0.41 -0.46,0.9 -0.59,1.46 -0.13,0.56 -0.2,1.17 -0.2,1.81l0 0.21zm12.36 5.46l-1.24 0 0 -15.83 1.24 0 0 15.83zm7.67 0.21c-0.73,0 -1.4,-0.14 -2.01,-0.41 -0.61,-0.27 -1.14,-0.65 -1.58,-1.13 -0.44,-0.49 -0.79,-1.06 -1.04,-1.73 -0.25,-0.67 -0.37,-1.4 -0.37,-2.19l0 -0.44c0,-0.86 0.13,-1.64 0.39,-2.34 0.26,-0.7 0.61,-1.29 1.04,-1.78 0.44,-0.49 0.95,-0.87 1.52,-1.14 0.57,-0.27 1.18,-0.4 1.82,-0.4 0.71,0 1.34,0.13 1.89,0.38 0.55,0.25 1.01,0.61 1.39,1.06 0.38,0.45 0.66,0.99 0.85,1.62 0.19,0.62 0.29,1.31 0.29,2.05l0 0.75 -7.96 0 0 0.24c0,0.61 0.09,1.19 0.28,1.73 0.19,0.54 0.45,1.01 0.78,1.4 0.34,0.4 0.74,0.71 1.21,0.95 0.47,0.23 0.99,0.34 1.56,0.34 0.66,0 1.24,-0.12 1.75,-0.36 0.5,-0.24 0.96,-0.63 1.38,-1.15l0.77 0.59c-0.19,0.27 -0.4,0.52 -0.64,0.76 -0.25,0.24 -0.53,0.45 -0.85,0.63 -0.32,0.18 -0.69,0.32 -1.09,0.43 -0.4,0.1 -0.86,0.15 -1.36,0.15zm-0.23 -10.52c-0.47,0 -0.9,0.09 -1.3,0.27 -0.4,0.18 -0.75,0.44 -1.06,0.76 -0.31,0.33 -0.56,0.73 -0.75,1.19 -0.2,0.46 -0.33,0.97 -0.4,1.54l6.69 0 0 -0.13c-0.01,-0.47 -0.09,-0.92 -0.22,-1.36 -0.14,-0.44 -0.34,-0.82 -0.6,-1.16 -0.27,-0.34 -0.59,-0.61 -0.99,-0.81 -0.39,-0.2 -0.85,-0.31 -1.37,-0.31zm13.49 7.47c0,-0.23 -0.04,-0.45 -0.12,-0.68 -0.08,-0.23 -0.23,-0.44 -0.44,-0.64 -0.22,-0.2 -0.52,-0.39 -0.91,-0.57 -0.39,-0.18 -0.89,-0.33 -1.51,-0.46 -0.62,-0.13 -1.17,-0.28 -1.65,-0.45 -0.49,-0.17 -0.89,-0.38 -1.23,-0.62 -0.33,-0.24 -0.59,-0.53 -0.76,-0.87 -0.17,-0.34 -0.26,-0.73 -0.26,-1.19 0,-0.41 0.09,-0.81 0.27,-1.18 0.18,-0.37 0.44,-0.7 0.78,-0.97 0.34,-0.27 0.75,-0.49 1.23,-0.65 0.49,-0.16 1.03,-0.24 1.64,-0.24 0.64,0 1.22,0.08 1.73,0.25 0.51,0.17 0.95,0.4 1.3,0.7 0.36,0.3 0.63,0.65 0.81,1.06 0.19,0.4 0.28,0.84 0.28,1.32l-1.24 0c0,-0.29 -0.06,-0.57 -0.19,-0.84 -0.13,-0.28 -0.31,-0.52 -0.56,-0.73 -0.25,-0.21 -0.55,-0.38 -0.91,-0.51 -0.36,-0.13 -0.77,-0.2 -1.23,-0.2 -0.48,0 -0.89,0.06 -1.23,0.18 -0.34,0.12 -0.62,0.27 -0.83,0.45 -0.21,0.19 -0.37,0.39 -0.47,0.62 -0.1,0.23 -0.15,0.46 -0.15,0.7 0,0.25 0.04,0.47 0.11,0.68 0.08,0.2 0.22,0.39 0.44,0.57 0.21,0.18 0.52,0.34 0.91,0.49 0.39,0.15 0.89,0.29 1.52,0.44 0.67,0.16 1.25,0.33 1.74,0.53 0.49,0.19 0.89,0.42 1.21,0.68 0.32,0.27 0.56,0.57 0.71,0.91 0.15,0.34 0.23,0.74 0.23,1.18 0,0.46 -0.1,0.88 -0.29,1.26 -0.19,0.38 -0.47,0.71 -0.82,0.98 -0.36,0.27 -0.79,0.48 -1.3,0.63 -0.51,0.15 -1.07,0.23 -1.7,0.23 -0.71,0 -1.33,-0.09 -1.88,-0.27 -0.54,-0.18 -1,-0.43 -1.37,-0.74 -0.37,-0.31 -0.65,-0.66 -0.84,-1.07 -0.19,-0.4 -0.28,-0.82 -0.28,-1.25l1.23 0c0.03,0.44 0.14,0.81 0.34,1.1 0.2,0.29 0.45,0.53 0.74,0.7 0.3,0.18 0.62,0.3 0.99,0.38 0.36,0.08 0.72,0.12 1.07,0.12 0.47,0 0.88,-0.06 1.24,-0.17 0.36,-0.11 0.66,-0.26 0.9,-0.44 0.24,-0.19 0.43,-0.4 0.55,-0.64 0.12,-0.24 0.18,-0.49 0.18,-0.75zm10.69 0c0,-0.23 -0.04,-0.45 -0.12,-0.68 -0.08,-0.23 -0.23,-0.44 -0.44,-0.64 -0.22,-0.2 -0.52,-0.39 -0.91,-0.57 -0.39,-0.18 -0.89,-0.33 -1.51,-0.46 -0.62,-0.13 -1.17,-0.28 -1.65,-0.45 -0.49,-0.17 -0.89,-0.38 -1.23,-0.62 -0.33,-0.24 -0.59,-0.53 -0.76,-0.87 -0.17,-0.34 -0.26,-0.73 -0.26,-1.19 0,-0.41 0.09,-0.81 0.27,-1.18 0.18,-0.37 0.44,-0.7 0.78,-0.97 0.34,-0.27 0.75,-0.49 1.23,-0.65 0.49,-0.16 1.03,-0.24 1.64,-0.24 0.64,0 1.22,0.08 1.73,0.25 0.51,0.17 0.95,0.4 1.3,0.7 0.36,0.3 0.63,0.65 0.81,1.06 0.19,0.4 0.28,0.84 0.28,1.32l-1.24 0c0,-0.29 -0.06,-0.57 -0.19,-0.84 -0.13,-0.28 -0.31,-0.52 -0.56,-0.73 -0.25,-0.21 -0.55,-0.38 -0.91,-0.51 -0.36,-0.13 -0.77,-0.2 -1.23,-0.2 -0.48,0 -0.89,0.06 -1.23,0.18 -0.34,0.12 -0.62,0.27 -0.83,0.45 -0.21,0.19 -0.37,0.39 -0.47,0.62 -0.1,0.23 -0.15,0.46 -0.15,0.7 0,0.25 0.04,0.47 0.11,0.68 0.08,0.2 0.22,0.39 0.44,0.57 0.21,0.18 0.52,0.34 0.91,0.49 0.39,0.15 0.89,0.29 1.52,0.44 0.67,0.16 1.25,0.33 1.74,0.53 0.49,0.19 0.89,0.42 1.21,0.68 0.32,0.27 0.56,0.57 0.71,0.91 0.15,0.34 0.23,0.74 0.23,1.18 0,0.46 -0.1,0.88 -0.29,1.26 -0.19,0.38 -0.47,0.71 -0.82,0.98 -0.36,0.27 -0.79,0.48 -1.3,0.63 -0.51,0.15 -1.07,0.23 -1.7,0.23 -0.71,0 -1.33,-0.09 -1.88,-0.27 -0.54,-0.18 -1,-0.43 -1.37,-0.74 -0.37,-0.31 -0.65,-0.66 -0.84,-1.07 -0.19,-0.4 -0.28,-0.82 -0.28,-1.25l1.23 0c0.03,0.44 0.14,0.81 0.34,1.1 0.2,0.29 0.45,0.53 0.74,0.7 0.3,0.18 0.62,0.3 0.99,0.38 0.36,0.08 0.72,0.12 1.07,0.12 0.47,0 0.88,-0.06 1.24,-0.17 0.36,-0.11 0.66,-0.26 0.9,-0.44 0.24,-0.19 0.43,-0.4 0.55,-0.64 0.12,-0.24 0.18,-0.49 0.18,-0.75zm8.65 -2.84c0,-0.87 0.1,-1.65 0.3,-2.35 0.2,-0.7 0.48,-1.29 0.85,-1.79 0.37,-0.5 0.82,-0.88 1.35,-1.14 0.53,-0.27 1.14,-0.4 1.81,-0.4 0.8,0 1.48,0.16 2.05,0.48 0.57,0.32 1.04,0.76 1.41,1.33l0.06 -1.61 1.15 0 0 10.95c0,0.72 -0.11,1.37 -0.32,1.95 -0.21,0.57 -0.51,1.06 -0.9,1.46 -0.39,0.4 -0.86,0.7 -1.41,0.92 -0.55,0.21 -1.16,0.32 -1.84,0.32 -0.35,0 -0.71,-0.04 -1.07,-0.12 -0.37,-0.08 -0.72,-0.2 -1.06,-0.36 -0.34,-0.16 -0.66,-0.36 -0.96,-0.59 -0.3,-0.24 -0.57,-0.52 -0.79,-0.84l0.69 -0.74c0.45,0.56 0.94,0.96 1.45,1.22 0.51,0.26 1.06,0.39 1.67,0.39 0.53,0 1,-0.08 1.41,-0.24 0.41,-0.16 0.75,-0.39 1.04,-0.7 0.28,-0.31 0.5,-0.68 0.64,-1.12 0.15,-0.44 0.22,-0.93 0.22,-1.49l0 -1.3c-0.37,0.51 -0.84,0.92 -1.41,1.21 -0.57,0.29 -1.25,0.44 -2.04,0.44 -0.67,0 -1.26,-0.14 -1.79,-0.42 -0.53,-0.28 -0.98,-0.67 -1.35,-1.16 -0.37,-0.5 -0.65,-1.09 -0.85,-1.79 -0.2,-0.7 -0.3,-1.46 -0.3,-2.3l0 -0.21zm1.25 0.21c0,0.65 0.06,1.26 0.2,1.82 0.13,0.56 0.33,1.05 0.59,1.46 0.27,0.41 0.61,0.74 1.02,0.97 0.41,0.24 0.89,0.35 1.46,0.35 0.43,0 0.81,-0.05 1.15,-0.15 0.34,-0.1 0.64,-0.25 0.9,-0.43 0.26,-0.18 0.49,-0.39 0.68,-0.64 0.19,-0.25 0.36,-0.52 0.5,-0.81l0 -5.19c-0.12,-0.29 -0.27,-0.56 -0.45,-0.83 -0.18,-0.26 -0.4,-0.5 -0.66,-0.7 -0.26,-0.2 -0.56,-0.36 -0.9,-0.49 -0.34,-0.12 -0.74,-0.18 -1.2,-0.18 -0.57,0 -1.06,0.12 -1.47,0.36 -0.41,0.24 -0.75,0.56 -1.02,0.97 -0.27,0.41 -0.46,0.9 -0.59,1.46 -0.13,0.56 -0.2,1.17 -0.2,1.81l0 0.21zm17.99 5.46c-0.07,-0.19 -0.12,-0.43 -0.16,-0.71 -0.04,-0.28 -0.06,-0.56 -0.08,-0.85 -0.19,0.24 -0.41,0.46 -0.66,0.68 -0.25,0.21 -0.54,0.4 -0.85,0.56 -0.32,0.16 -0.66,0.28 -1.04,0.38 -0.38,0.09 -0.79,0.14 -1.23,0.14 -0.54,0 -1.03,-0.08 -1.48,-0.24 -0.44,-0.16 -0.82,-0.38 -1.13,-0.66 -0.31,-0.29 -0.56,-0.62 -0.73,-1 -0.17,-0.39 -0.26,-0.81 -0.26,-1.26 0,-0.54 0.12,-1.03 0.35,-1.47 0.23,-0.44 0.57,-0.81 1.01,-1.12 0.44,-0.31 0.97,-0.54 1.6,-0.7 0.63,-0.16 1.34,-0.24 2.12,-0.24l2.29 0 0 -1.27c0,-0.8 -0.25,-1.42 -0.74,-1.88 -0.49,-0.46 -1.21,-0.69 -2.15,-0.69 -0.43,0 -0.83,0.06 -1.19,0.18 -0.37,0.12 -0.68,0.28 -0.95,0.49 -0.26,0.2 -0.47,0.44 -0.62,0.71 -0.15,0.27 -0.22,0.56 -0.22,0.87l-1.24 -0.01c0,-0.42 0.1,-0.82 0.31,-1.22 0.21,-0.39 0.5,-0.74 0.87,-1.04 0.37,-0.31 0.82,-0.55 1.35,-0.74 0.53,-0.19 1.11,-0.28 1.75,-0.28 0.59,0 1.14,0.08 1.63,0.23 0.5,0.15 0.93,0.38 1.28,0.68 0.36,0.3 0.64,0.68 0.83,1.14 0.2,0.45 0.3,0.98 0.3,1.59l0 5.4c0,0.19 0.01,0.39 0.02,0.6 0.01,0.2 0.04,0.4 0.07,0.6 0.03,0.19 0.07,0.38 0.11,0.55 0.04,0.18 0.09,0.33 0.14,0.46l0 0.12 -1.32 0zm-3.88 -0.89c0.45,0 0.86,-0.06 1.24,-0.17 0.38,-0.12 0.73,-0.27 1.04,-0.47 0.31,-0.2 0.58,-0.43 0.8,-0.69 0.23,-0.27 0.41,-0.55 0.55,-0.86l0 -2.45 -2.11 0c-0.63,0 -1.2,0.06 -1.7,0.17 -0.5,0.11 -0.92,0.28 -1.26,0.49 -0.34,0.21 -0.6,0.47 -0.79,0.78 -0.18,0.31 -0.27,0.65 -0.27,1.04 0,0.3 0.06,0.58 0.17,0.85 0.12,0.26 0.28,0.49 0.5,0.69 0.22,0.2 0.48,0.35 0.79,0.46 0.31,0.11 0.65,0.17 1.04,0.17zm9.27 -10.27l0.04 1.82c0.19,-0.3 0.4,-0.58 0.64,-0.83 0.25,-0.25 0.52,-0.46 0.82,-0.64 0.3,-0.18 0.63,-0.31 0.99,-0.41 0.36,-0.09 0.74,-0.14 1.16,-0.14 0.82,0 1.52,0.17 2.1,0.52 0.58,0.34 1,0.89 1.25,1.65 0.18,-0.31 0.39,-0.6 0.64,-0.86 0.25,-0.26 0.53,-0.49 0.85,-0.69 0.32,-0.19 0.67,-0.34 1.06,-0.45 0.39,-0.11 0.8,-0.17 1.25,-0.17 0.58,0 1.09,0.08 1.54,0.23 0.45,0.15 0.84,0.4 1.15,0.73 0.31,0.33 0.55,0.76 0.71,1.27 0.17,0.52 0.25,1.13 0.25,1.86l0 7.26 -1.24 0 0 -7.27c0,-0.59 -0.06,-1.08 -0.19,-1.47 -0.13,-0.39 -0.32,-0.7 -0.56,-0.93 -0.24,-0.23 -0.53,-0.39 -0.86,-0.48 -0.33,-0.09 -0.7,-0.13 -1.1,-0.13 -0.52,0.01 -0.98,0.1 -1.37,0.28 -0.39,0.18 -0.72,0.41 -1,0.69 -0.27,0.28 -0.48,0.59 -0.63,0.93 -0.15,0.34 -0.24,0.68 -0.27,1l0 7.38 -1.24 0 0 -7.37c0,-0.56 -0.06,-1.02 -0.19,-1.39 -0.13,-0.37 -0.32,-0.67 -0.56,-0.9 -0.24,-0.23 -0.53,-0.39 -0.86,-0.49 -0.33,-0.1 -0.7,-0.14 -1.11,-0.14 -0.47,0 -0.88,0.07 -1.24,0.22 -0.36,0.15 -0.67,0.34 -0.93,0.59 -0.26,0.25 -0.48,0.53 -0.65,0.84 -0.17,0.32 -0.31,0.64 -0.41,0.98l0 7.65 -1.23 0 0 -11.15 1.18 0zm21.9 11.36c-0.73,0 -1.4,-0.14 -2.01,-0.41 -0.61,-0.27 -1.14,-0.65 -1.58,-1.13 -0.44,-0.49 -0.79,-1.06 -1.04,-1.73 -0.25,-0.67 -0.37,-1.4 -0.37,-2.19l0 -0.44c0,-0.86 0.13,-1.64 0.39,-2.34 0.26,-0.7 0.61,-1.29 1.04,-1.78 0.44,-0.49 0.95,-0.87 1.52,-1.14 0.57,-0.27 1.18,-0.4 1.82,-0.4 0.71,0 1.34,0.13 1.89,0.38 0.55,0.25 1.01,0.61 1.39,1.06 0.38,0.45 0.66,0.99 0.85,1.62 0.19,0.62 0.29,1.31 0.29,2.05l0 0.75 -7.96 0 0 0.24c0,0.61 0.09,1.19 0.28,1.73 0.19,0.54 0.45,1.01 0.78,1.4 0.34,0.4 0.74,0.71 1.21,0.95 0.47,0.23 0.99,0.34 1.56,0.34 0.66,0 1.24,-0.12 1.75,-0.36 0.5,-0.24 0.96,-0.63 1.38,-1.15l0.77 0.59c-0.19,0.27 -0.4,0.52 -0.64,0.76 -0.25,0.24 -0.53,0.45 -0.85,0.63 -0.32,0.18 -0.69,0.32 -1.09,0.43 -0.4,0.1 -0.86,0.15 -1.36,0.15zm-0.23 -10.52c-0.47,0 -0.9,0.09 -1.3,0.27 -0.4,0.18 -0.75,0.44 -1.06,0.76 -0.31,0.33 -0.56,0.73 -0.75,1.19 -0.2,0.46 -0.33,0.97 -0.4,1.54l6.69 0 0 -0.13c-0.01,-0.47 -0.09,-0.92 -0.22,-1.36 -0.14,-0.44 -0.34,-0.82 -0.6,-1.16 -0.27,-0.34 -0.59,-0.61 -0.99,-0.81 -0.39,-0.2 -0.85,-0.31 -1.37,-0.31zm13.49 7.47c0,-0.23 -0.04,-0.45 -0.12,-0.68 -0.08,-0.23 -0.23,-0.44 -0.44,-0.64 -0.22,-0.2 -0.52,-0.39 -0.91,-0.57 -0.39,-0.18 -0.89,-0.33 -1.51,-0.46 -0.62,-0.13 -1.17,-0.28 -1.65,-0.45 -0.49,-0.17 -0.89,-0.38 -1.23,-0.62 -0.33,-0.24 -0.59,-0.53 -0.76,-0.87 -0.17,-0.34 -0.26,-0.73 -0.26,-1.19 0,-0.41 0.09,-0.81 0.27,-1.18 0.18,-0.37 0.44,-0.7 0.78,-0.97 0.34,-0.27 0.75,-0.49 1.23,-0.65 0.49,-0.16 1.03,-0.24 1.64,-0.24 0.64,0 1.22,0.08 1.73,0.25 0.51,0.17 0.95,0.4 1.3,0.7 0.36,0.3 0.63,0.65 0.81,1.06 0.19,0.4 0.28,0.84 0.28,1.32l-1.24 0c0,-0.29 -0.06,-0.57 -0.19,-0.84 -0.13,-0.28 -0.31,-0.52 -0.56,-0.73 -0.25,-0.21 -0.55,-0.38 -0.91,-0.51 -0.36,-0.13 -0.77,-0.2 -1.23,-0.2 -0.48,0 -0.89,0.06 -1.23,0.18 -0.34,0.12 -0.62,0.27 -0.83,0.45 -0.21,0.19 -0.37,0.39 -0.47,0.62 -0.1,0.23 -0.15,0.46 -0.15,0.7 0,0.25 0.04,0.47 0.11,0.68 0.08,0.2 0.22,0.39 0.44,0.57 0.21,0.18 0.52,0.34 0.91,0.49 0.39,0.15 0.89,0.29 1.52,0.44 0.67,0.16 1.25,0.33 1.74,0.53 0.49,0.19 0.89,0.42 1.21,0.68 0.32,0.27 0.56,0.57 0.71,0.91 0.15,0.34 0.23,0.74 0.23,1.18 0,0.46 -0.1,0.88 -0.29,1.26 -0.19,0.38 -0.47,0.71 -0.82,0.98 -0.36,0.27 -0.79,0.48 -1.3,0.63 -0.51,0.15 -1.07,0.23 -1.7,0.23 -0.71,0 -1.33,-0.09 -1.88,-0.27 -0.54,-0.18 -1,-0.43 -1.37,-0.74 -0.37,-0.31 -0.65,-0.66 -0.84,-1.07 -0.19,-0.4 -0.28,-0.82 -0.28,-1.25l1.23 0c0.03,0.44 0.14,0.81 0.34,1.1 0.2,0.29 0.45,0.53 0.74,0.7 0.3,0.18 0.62,0.3 0.99,0.38 0.36,0.08 0.72,0.12 1.07,0.12 0.47,0 0.88,-0.06 1.24,-0.17 0.36,-0.11 0.66,-0.26 0.9,-0.44 0.24,-0.19 0.43,-0.4 0.55,-0.64 0.12,-0.24 0.18,-0.49 0.18,-0.75zm5.2 2.34c0,0.31 -0.03,0.62 -0.1,0.93 -0.06,0.31 -0.16,0.61 -0.28,0.89 -0.13,0.28 -0.28,0.55 -0.45,0.8 -0.18,0.25 -0.38,0.48 -0.61,0.69l-0.73 -0.53c0.32,-0.43 0.56,-0.85 0.72,-1.28 0.17,-0.43 0.25,-0.92 0.25,-1.46l0 -1.46 1.21 0 0 1.44zm-183.86 20.37c0,0.84 -0.1,1.6 -0.29,2.3 -0.19,0.69 -0.46,1.29 -0.83,1.79 -0.36,0.5 -0.81,0.89 -1.34,1.16 -0.53,0.28 -1.13,0.42 -1.8,0.42 -0.82,0 -1.52,-0.15 -2.1,-0.46 -0.58,-0.31 -1.06,-0.73 -1.43,-1.27l-0.05 1.53 -1.15 0 0 -15.83 1.23 0 0 6.3c0.37,-0.58 0.84,-1.02 1.41,-1.34 0.57,-0.32 1.26,-0.48 2.07,-0.48 0.68,0 1.28,0.14 1.82,0.4 0.53,0.27 0.97,0.65 1.34,1.14 0.37,0.5 0.65,1.09 0.83,1.79 0.19,0.7 0.29,1.48 0.29,2.35l0 0.21zm-1.24 -0.21c0,-0.65 -0.06,-1.25 -0.18,-1.81 -0.13,-0.56 -0.32,-1.05 -0.58,-1.46 -0.26,-0.41 -0.6,-0.74 -1.02,-0.97 -0.41,-0.24 -0.9,-0.36 -1.48,-0.36 -0.47,0 -0.88,0.06 -1.24,0.19 -0.36,0.13 -0.67,0.3 -0.93,0.51 -0.26,0.21 -0.48,0.46 -0.66,0.73 -0.18,0.27 -0.32,0.56 -0.43,0.86l0 5.03c0.13,0.3 0.29,0.57 0.49,0.83 0.2,0.26 0.43,0.48 0.7,0.67 0.27,0.19 0.57,0.34 0.92,0.44 0.34,0.11 0.74,0.16 1.17,0.16 0.56,0 1.04,-0.12 1.45,-0.35 0.41,-0.23 0.75,-0.56 1.02,-0.97 0.27,-0.41 0.46,-0.9 0.59,-1.46 0.13,-0.56 0.19,-1.16 0.19,-1.82l0 -0.21zm3.28 -0.06c0,-0.81 0.12,-1.56 0.36,-2.25 0.24,-0.69 0.57,-1.28 1,-1.78 0.43,-0.5 0.96,-0.89 1.57,-1.17 0.61,-0.29 1.29,-0.43 2.04,-0.43 0.76,0 1.45,0.14 2.06,0.43 0.62,0.28 1.14,0.67 1.57,1.17 0.43,0.5 0.77,1.09 1,1.78 0.24,0.69 0.35,1.44 0.35,2.25l0 0.34c0,0.81 -0.12,1.56 -0.35,2.24 -0.23,0.69 -0.57,1.28 -1,1.78 -0.43,0.5 -0.95,0.89 -1.57,1.16 -0.61,0.28 -1.29,0.42 -2.05,0.42 -0.76,0 -1.44,-0.14 -2.05,-0.42 -0.61,-0.28 -1.14,-0.67 -1.57,-1.16 -0.44,-0.5 -0.77,-1.09 -1.01,-1.78 -0.24,-0.69 -0.36,-1.44 -0.36,-2.24l0 -0.34zm1.23 0.34c0,0.61 0.08,1.19 0.25,1.74 0.16,0.56 0.4,1.04 0.72,1.45 0.32,0.42 0.71,0.75 1.17,1 0.46,0.25 1,0.37 1.61,0.37 0.61,0 1.14,-0.12 1.6,-0.37 0.46,-0.25 0.85,-0.58 1.17,-1 0.32,-0.42 0.56,-0.9 0.72,-1.45 0.17,-0.55 0.25,-1.13 0.25,-1.74l0 -0.34c0,-0.6 -0.08,-1.17 -0.25,-1.73 -0.17,-0.55 -0.4,-1.04 -0.72,-1.46 -0.32,-0.42 -0.71,-0.75 -1.18,-1.01 -0.47,-0.25 -1.01,-0.38 -1.61,-0.38 -0.6,0 -1.13,0.13 -1.59,0.38 -0.46,0.25 -0.85,0.59 -1.17,1.01 -0.32,0.42 -0.56,0.9 -0.72,1.46 -0.17,0.56 -0.25,1.13 -0.25,1.73l0 0.34zm14.64 3.63l3.26 -9.38 1.33 0 -4.72 12.94c-0.09,0.25 -0.22,0.54 -0.37,0.85 -0.15,0.32 -0.34,0.61 -0.58,0.89 -0.24,0.27 -0.53,0.51 -0.89,0.7 -0.36,0.19 -0.78,0.28 -1.29,0.28 -0.07,0 -0.15,-0 -0.24,-0.01 -0.09,-0.01 -0.18,-0.02 -0.27,-0.04 -0.09,-0.01 -0.18,-0.03 -0.25,-0.05 -0.08,-0.01 -0.14,-0.03 -0.19,-0.05l-0.01 -1.02c0.08,0.01 0.19,0.03 0.33,0.04 0.14,0.01 0.24,0.02 0.3,0.02 0.33,0 0.62,-0.04 0.88,-0.13 0.26,-0.08 0.48,-0.21 0.66,-0.38 0.19,-0.17 0.36,-0.38 0.5,-0.63 0.14,-0.26 0.28,-0.55 0.39,-0.88l0.53 -1.47 -4.2 -11.06 1.35 0 3.46 9.38zm11.13 -3.9c0,-0.87 0.1,-1.65 0.3,-2.35 0.2,-0.7 0.48,-1.29 0.85,-1.79 0.37,-0.5 0.82,-0.88 1.35,-1.14 0.53,-0.27 1.14,-0.4 1.81,-0.4 0.8,0 1.48,0.16 2.05,0.48 0.57,0.32 1.04,0.76 1.41,1.33l0.06 -1.61 1.15 0 0 10.95c0,0.72 -0.11,1.37 -0.32,1.95 -0.21,0.57 -0.51,1.06 -0.9,1.46 -0.39,0.4 -0.86,0.7 -1.41,0.92 -0.55,0.21 -1.16,0.32 -1.84,0.32 -0.35,0 -0.71,-0.04 -1.07,-0.12 -0.37,-0.08 -0.72,-0.2 -1.06,-0.36 -0.34,-0.16 -0.66,-0.36 -0.96,-0.59 -0.3,-0.24 -0.57,-0.52 -0.79,-0.84l0.69 -0.74c0.45,0.56 0.94,0.96 1.45,1.22 0.51,0.26 1.06,0.39 1.67,0.39 0.53,0 1,-0.08 1.41,-0.24 0.41,-0.16 0.75,-0.39 1.04,-0.7 0.28,-0.31 0.5,-0.68 0.64,-1.12 0.15,-0.44 0.22,-0.93 0.22,-1.49l0 -1.3c-0.37,0.51 -0.84,0.92 -1.41,1.21 -0.57,0.29 -1.25,0.44 -2.04,0.44 -0.67,0 -1.26,-0.14 -1.79,-0.42 -0.53,-0.28 -0.98,-0.67 -1.35,-1.16 -0.37,-0.5 -0.65,-1.09 -0.85,-1.79 -0.2,-0.7 -0.3,-1.46 -0.3,-2.3l0 -0.21zm1.25 0.21c0,0.65 0.06,1.26 0.2,1.82 0.13,0.56 0.33,1.05 0.59,1.46 0.27,0.41 0.61,0.74 1.02,0.97 0.41,0.24 0.89,0.35 1.46,0.35 0.43,0 0.81,-0.05 1.15,-0.15 0.34,-0.1 0.64,-0.25 0.9,-0.43 0.26,-0.18 0.49,-0.39 0.68,-0.64 0.19,-0.25 0.36,-0.52 0.5,-0.81l0 -5.19c-0.12,-0.29 -0.27,-0.56 -0.45,-0.83 -0.18,-0.26 -0.4,-0.5 -0.66,-0.7 -0.26,-0.2 -0.56,-0.36 -0.9,-0.49 -0.34,-0.12 -0.74,-0.18 -1.2,-0.18 -0.57,0 -1.06,0.12 -1.47,0.36 -0.41,0.24 -0.75,0.56 -1.02,0.97 -0.27,0.41 -0.46,0.9 -0.59,1.46 -0.13,0.56 -0.2,1.17 -0.2,1.81l0 0.21z"></path> <path class="fil1" d="M363.87 178.62c-0.07,-0.19 -0.12,-0.43 -0.16,-0.71 -0.04,-0.28 -0.06,-0.56 -0.08,-0.85 -0.19,0.24 -0.41,0.46 -0.66,0.68 -0.25,0.21 -0.54,0.4 -0.85,0.56 -0.32,0.16 -0.66,0.28 -1.04,0.38 -0.38,0.09 -0.79,0.14 -1.23,0.14 -0.54,0 -1.03,-0.08 -1.48,-0.24 -0.44,-0.16 -0.82,-0.38 -1.13,-0.66 -0.31,-0.29 -0.56,-0.62 -0.73,-1 -0.17,-0.39 -0.26,-0.81 -0.26,-1.26 0,-0.54 0.12,-1.03 0.35,-1.47 0.23,-0.44 0.57,-0.81 1.01,-1.12 0.44,-0.31 0.97,-0.54 1.6,-0.7 0.63,-0.16 1.34,-0.24 2.12,-0.24l2.29 0 0 -1.27c0,-0.8 -0.25,-1.42 -0.74,-1.88 -0.49,-0.46 -1.21,-0.69 -2.15,-0.69 -0.43,0 -0.83,0.06 -1.19,0.18 -0.37,0.12 -0.68,0.28 -0.95,0.49 -0.26,0.2 -0.47,0.44 -0.62,0.71 -0.15,0.27 -0.22,0.56 -0.22,0.87l-1.24 -0.01c0,-0.42 0.1,-0.82 0.31,-1.22 0.21,-0.39 0.5,-0.74 0.87,-1.04 0.37,-0.31 0.82,-0.55 1.35,-0.74 0.53,-0.19 1.11,-0.28 1.75,-0.28 0.59,0 1.14,0.08 1.63,0.23 0.5,0.15 0.93,0.38 1.28,0.68 0.36,0.3 0.64,0.68 0.83,1.14 0.2,0.45 0.3,0.98 0.3,1.59l0 5.4c0,0.19 0.01,0.39 0.02,0.6 0.01,0.2 0.04,0.4 0.07,0.6 0.03,0.19 0.07,0.38 0.11,0.55 0.04,0.18 0.09,0.33 0.14,0.46l0 0.12 -1.32 0zm-3.88 -0.89c0.45,0 0.86,-0.06 1.24,-0.17 0.38,-0.12 0.73,-0.27 1.04,-0.47 0.31,-0.2 0.58,-0.43 0.8,-0.69 0.23,-0.27 0.41,-0.55 0.55,-0.86l0 -2.45 -2.11 0c-0.63,0 -1.2,0.06 -1.7,0.17 -0.5,0.11 -0.92,0.28 -1.26,0.49 -0.34,0.21 -0.6,0.47 -0.79,0.78 -0.18,0.31 -0.27,0.65 -0.27,1.04 0,0.3 0.06,0.58 0.17,0.85 0.12,0.26 0.28,0.49 0.5,0.69 0.22,0.2 0.48,0.35 0.79,0.46 0.31,0.11 0.65,0.17 1.04,0.17zm9.27 -10.27l0.04 1.82c0.19,-0.3 0.4,-0.58 0.64,-0.83 0.25,-0.25 0.52,-0.46 0.82,-0.64 0.3,-0.18 0.63,-0.31 0.99,-0.41 0.36,-0.09 0.74,-0.14 1.16,-0.14 0.82,0 1.52,0.17 2.1,0.52 0.58,0.34 1,0.89 1.25,1.65 0.18,-0.31 0.39,-0.6 0.64,-0.86 0.25,-0.26 0.53,-0.49 0.85,-0.69 0.32,-0.19 0.67,-0.34 1.06,-0.45 0.39,-0.11 0.8,-0.17 1.25,-0.17 0.58,0 1.09,0.08 1.54,0.23 0.45,0.15 0.84,0.4 1.15,0.73 0.31,0.33 0.55,0.76 0.71,1.27 0.17,0.52 0.25,1.13 0.25,1.86l0 7.26 -1.24 0 0 -7.27c0,-0.59 -0.06,-1.08 -0.19,-1.47 -0.13,-0.39 -0.32,-0.7 -0.56,-0.93 -0.24,-0.23 -0.53,-0.39 -0.86,-0.48 -0.33,-0.09 -0.7,-0.13 -1.1,-0.13 -0.52,0.01 -0.98,0.1 -1.37,0.28 -0.39,0.18 -0.72,0.41 -1,0.69 -0.27,0.28 -0.48,0.59 -0.63,0.93 -0.15,0.34 -0.24,0.68 -0.27,1l0 7.38 -1.24 0 0 -7.37c0,-0.56 -0.06,-1.02 -0.19,-1.39 -0.13,-0.37 -0.32,-0.67 -0.56,-0.9 -0.24,-0.23 -0.53,-0.39 -0.86,-0.49 -0.33,-0.1 -0.7,-0.14 -1.11,-0.14 -0.47,0 -0.88,0.07 -1.24,0.22 -0.36,0.15 -0.67,0.34 -0.93,0.59 -0.26,0.25 -0.48,0.53 -0.65,0.84 -0.17,0.32 -0.31,0.64 -0.41,0.98l0 7.65 -1.23 0 0 -11.15 1.18 0zm21.9 11.36c-0.73,0 -1.4,-0.14 -2.01,-0.41 -0.61,-0.27 -1.14,-0.65 -1.58,-1.13 -0.44,-0.49 -0.79,-1.06 -1.04,-1.73 -0.25,-0.67 -0.37,-1.4 -0.37,-2.19l0 -0.44c0,-0.86 0.13,-1.64 0.39,-2.34 0.26,-0.7 0.61,-1.29 1.04,-1.78 0.44,-0.49 0.95,-0.87 1.52,-1.14 0.57,-0.27 1.18,-0.4 1.82,-0.4 0.71,0 1.34,0.13 1.89,0.38 0.55,0.25 1.01,0.61 1.39,1.06 0.38,0.45 0.66,0.99 0.85,1.62 0.19,0.62 0.29,1.31 0.29,2.05l0 0.75 -7.96 0 0 0.24c0,0.61 0.09,1.19 0.28,1.73 0.19,0.54 0.45,1.01 0.78,1.4 0.34,0.4 0.74,0.71 1.21,0.95 0.47,0.23 0.99,0.34 1.56,0.34 0.66,0 1.24,-0.12 1.75,-0.36 0.5,-0.24 0.96,-0.63 1.38,-1.15l0.77 0.59c-0.19,0.27 -0.4,0.52 -0.64,0.76 -0.25,0.24 -0.53,0.45 -0.85,0.63 -0.32,0.18 -0.69,0.32 -1.09,0.43 -0.4,0.1 -0.86,0.15 -1.36,0.15zm-0.23 -10.52c-0.47,0 -0.9,0.09 -1.3,0.27 -0.4,0.18 -0.75,0.44 -1.06,0.76 -0.31,0.33 -0.56,0.73 -0.75,1.19 -0.2,0.46 -0.33,0.97 -0.4,1.54l6.69 0 0 -0.13c-0.01,-0.47 -0.09,-0.92 -0.22,-1.36 -0.14,-0.44 -0.34,-0.82 -0.6,-1.16 -0.27,-0.34 -0.59,-0.61 -0.99,-0.81 -0.39,-0.2 -0.85,-0.31 -1.37,-0.31zm16.27 10.52c-0.73,0 -1.4,-0.14 -2.01,-0.41 -0.61,-0.27 -1.14,-0.65 -1.58,-1.13 -0.44,-0.49 -0.79,-1.06 -1.04,-1.73 -0.25,-0.67 -0.37,-1.4 -0.37,-2.19l0 -0.44c0,-0.86 0.13,-1.64 0.39,-2.34 0.26,-0.7 0.61,-1.29 1.04,-1.78 0.44,-0.49 0.95,-0.87 1.52,-1.14 0.57,-0.27 1.18,-0.4 1.82,-0.4 0.71,0 1.34,0.13 1.89,0.38 0.55,0.25 1.01,0.61 1.39,1.06 0.38,0.45 0.66,0.99 0.85,1.62 0.19,0.62 0.29,1.31 0.29,2.05l0 0.75 -7.96 0 0 0.24c0,0.61 0.09,1.19 0.28,1.73 0.19,0.54 0.45,1.01 0.78,1.4 0.34,0.4 0.74,0.71 1.21,0.95 0.47,0.23 0.99,0.34 1.56,0.34 0.66,0 1.24,-0.12 1.75,-0.36 0.5,-0.24 0.96,-0.63 1.38,-1.15l0.77 0.59c-0.19,0.27 -0.4,0.52 -0.64,0.76 -0.25,0.24 -0.53,0.45 -0.85,0.63 -0.32,0.18 -0.69,0.32 -1.09,0.43 -0.4,0.1 -0.86,0.15 -1.36,0.15zm-0.23 -10.52c-0.47,0 -0.9,0.09 -1.3,0.27 -0.4,0.18 -0.75,0.44 -1.06,0.76 -0.31,0.33 -0.56,0.73 -0.75,1.19 -0.2,0.46 -0.33,0.97 -0.4,1.54l6.69 0 0 -0.13c-0.01,-0.47 -0.09,-0.92 -0.22,-1.36 -0.14,-0.44 -0.34,-0.82 -0.6,-1.16 -0.27,-0.34 -0.59,-0.61 -0.99,-0.81 -0.39,-0.2 -0.85,-0.31 -1.37,-0.31zm7.99 -0.84l0.04 1.91c0.19,-0.32 0.41,-0.6 0.66,-0.87 0.25,-0.26 0.53,-0.49 0.84,-0.67 0.31,-0.19 0.64,-0.33 1,-0.43 0.36,-0.1 0.74,-0.15 1.13,-0.15 0.56,0 1.06,0.08 1.5,0.23 0.44,0.15 0.81,0.39 1.12,0.72 0.3,0.33 0.54,0.75 0.7,1.27 0.16,0.52 0.24,1.14 0.24,1.88l0 7.26 -1.23 0 0 -7.26c0,-0.58 -0.06,-1.06 -0.19,-1.45 -0.12,-0.38 -0.3,-0.69 -0.52,-0.93 -0.23,-0.24 -0.5,-0.4 -0.83,-0.5 -0.33,-0.1 -0.69,-0.15 -1.09,-0.15 -0.44,0 -0.84,0.07 -1.2,0.22 -0.36,0.15 -0.67,0.34 -0.95,0.59 -0.27,0.25 -0.51,0.53 -0.71,0.85 -0.2,0.32 -0.36,0.65 -0.47,0.98l0 7.64 -1.23 0 0 -11.15 1.18 0zm9.92 5.47c0,-0.87 0.1,-1.65 0.3,-2.35 0.2,-0.7 0.49,-1.29 0.86,-1.79 0.37,-0.5 0.82,-0.88 1.35,-1.14 0.53,-0.27 1.13,-0.4 1.8,-0.4 0.79,0 1.47,0.16 2.04,0.48 0.57,0.32 1.03,0.75 1.41,1.31l0 -6.25 1.22 0 0 15.83 -1.15 0 -0.05 -1.48c-0.37,0.53 -0.84,0.94 -1.41,1.24 -0.58,0.3 -1.26,0.45 -2.07,0.45 -0.66,0 -1.25,-0.14 -1.78,-0.42 -0.53,-0.28 -0.98,-0.67 -1.35,-1.16 -0.37,-0.5 -0.66,-1.09 -0.86,-1.79 -0.2,-0.7 -0.3,-1.46 -0.3,-2.3l0 -0.21zm1.25 0.21c0,0.65 0.06,1.26 0.2,1.82 0.13,0.56 0.33,1.05 0.59,1.46 0.27,0.41 0.61,0.74 1.02,0.97 0.41,0.24 0.89,0.35 1.46,0.35 0.42,0 0.8,-0.05 1.14,-0.15 0.34,-0.1 0.64,-0.24 0.91,-0.42 0.26,-0.18 0.5,-0.39 0.69,-0.64 0.2,-0.25 0.36,-0.51 0.5,-0.8l0 -5.24c-0.13,-0.28 -0.28,-0.55 -0.45,-0.81 -0.18,-0.26 -0.4,-0.49 -0.66,-0.7 -0.26,-0.2 -0.56,-0.36 -0.91,-0.49 -0.34,-0.12 -0.74,-0.18 -1.2,-0.18 -0.57,0 -1.06,0.12 -1.47,0.36 -0.41,0.24 -0.75,0.56 -1.02,0.97 -0.27,0.41 -0.46,0.9 -0.59,1.46 -0.13,0.56 -0.2,1.17 -0.2,1.81l0 0.21zm12.36 5.46l-1.24 0 0 -15.83 1.24 0 0 15.83zm7.67 0.21c-0.73,0 -1.4,-0.14 -2.01,-0.41 -0.61,-0.27 -1.14,-0.65 -1.58,-1.13 -0.44,-0.49 -0.79,-1.06 -1.04,-1.73 -0.25,-0.67 -0.37,-1.4 -0.37,-2.19l0 -0.44c0,-0.86 0.13,-1.64 0.39,-2.34 0.26,-0.7 0.61,-1.29 1.04,-1.78 0.44,-0.49 0.95,-0.87 1.52,-1.14 0.57,-0.27 1.18,-0.4 1.82,-0.4 0.71,0 1.34,0.13 1.89,0.38 0.55,0.25 1.01,0.61 1.39,1.06 0.38,0.45 0.66,0.99 0.85,1.62 0.19,0.62 0.29,1.31 0.29,2.05l0 0.75 -7.96 0 0 0.24c0,0.61 0.09,1.19 0.28,1.73 0.19,0.54 0.45,1.01 0.78,1.4 0.34,0.4 0.74,0.71 1.21,0.95 0.47,0.23 0.99,0.34 1.56,0.34 0.66,0 1.24,-0.12 1.75,-0.36 0.5,-0.24 0.96,-0.63 1.38,-1.15l0.77 0.59c-0.19,0.27 -0.4,0.52 -0.64,0.76 -0.25,0.24 -0.53,0.45 -0.85,0.63 -0.32,0.18 -0.69,0.32 -1.09,0.43 -0.4,0.1 -0.86,0.15 -1.36,0.15zm-0.23 -10.52c-0.47,0 -0.9,0.09 -1.3,0.27 -0.4,0.18 -0.75,0.44 -1.06,0.76 -0.31,0.33 -0.56,0.73 -0.75,1.19 -0.2,0.46 -0.33,0.97 -0.4,1.54l6.69 0 0 -0.13c-0.01,-0.47 -0.09,-0.92 -0.22,-1.36 -0.14,-0.44 -0.34,-0.82 -0.6,-1.16 -0.27,-0.34 -0.59,-0.61 -0.99,-0.81 -0.39,-0.2 -0.85,-0.31 -1.37,-0.31zm13.49 7.47c0,-0.23 -0.04,-0.45 -0.12,-0.68 -0.08,-0.23 -0.23,-0.44 -0.44,-0.64 -0.22,-0.2 -0.52,-0.39 -0.91,-0.57 -0.39,-0.18 -0.89,-0.33 -1.51,-0.46 -0.62,-0.13 -1.17,-0.28 -1.65,-0.45 -0.49,-0.17 -0.89,-0.38 -1.23,-0.62 -0.33,-0.24 -0.59,-0.53 -0.76,-0.87 -0.17,-0.34 -0.26,-0.73 -0.26,-1.19 0,-0.41 0.09,-0.81 0.27,-1.18 0.18,-0.37 0.44,-0.7 0.78,-0.97 0.34,-0.27 0.75,-0.49 1.23,-0.65 0.49,-0.16 1.03,-0.24 1.64,-0.24 0.64,0 1.22,0.08 1.73,0.25 0.51,0.17 0.95,0.4 1.3,0.7 0.36,0.3 0.63,0.65 0.81,1.06 0.19,0.4 0.28,0.84 0.28,1.32l-1.24 0c0,-0.29 -0.06,-0.57 -0.19,-0.84 -0.13,-0.28 -0.31,-0.52 -0.56,-0.73 -0.25,-0.21 -0.55,-0.38 -0.91,-0.51 -0.36,-0.13 -0.77,-0.2 -1.23,-0.2 -0.48,0 -0.89,0.06 -1.23,0.18 -0.34,0.12 -0.62,0.27 -0.83,0.45 -0.21,0.19 -0.37,0.39 -0.47,0.62 -0.1,0.23 -0.15,0.46 -0.15,0.7 0,0.25 0.04,0.47 0.11,0.68 0.08,0.2 0.22,0.39 0.44,0.57 0.21,0.18 0.52,0.34 0.91,0.49 0.39,0.15 0.89,0.29 1.52,0.44 0.67,0.16 1.25,0.33 1.74,0.53 0.49,0.19 0.89,0.42 1.21,0.68 0.32,0.27 0.56,0.57 0.71,0.91 0.15,0.34 0.23,0.74 0.23,1.18 0,0.46 -0.1,0.88 -0.29,1.26 -0.19,0.38 -0.47,0.71 -0.82,0.98 -0.36,0.27 -0.79,0.48 -1.3,0.63 -0.51,0.15 -1.07,0.23 -1.7,0.23 -0.71,0 -1.33,-0.09 -1.88,-0.27 -0.54,-0.18 -1,-0.43 -1.37,-0.74 -0.37,-0.31 -0.65,-0.66 -0.84,-1.07 -0.19,-0.4 -0.28,-0.82 -0.28,-1.25l1.23 0c0.03,0.44 0.14,0.81 0.34,1.1 0.2,0.29 0.45,0.53 0.74,0.7 0.3,0.18 0.62,0.3 0.99,0.38 0.36,0.08 0.72,0.12 1.07,0.12 0.47,0 0.88,-0.06 1.24,-0.17 0.36,-0.11 0.66,-0.26 0.9,-0.44 0.24,-0.19 0.43,-0.4 0.55,-0.64 0.12,-0.24 0.18,-0.49 0.18,-0.75zm10.69 0c0,-0.23 -0.04,-0.45 -0.12,-0.68 -0.08,-0.23 -0.23,-0.44 -0.44,-0.64 -0.22,-0.2 -0.52,-0.39 -0.91,-0.57 -0.39,-0.18 -0.89,-0.33 -1.51,-0.46 -0.62,-0.13 -1.17,-0.28 -1.65,-0.45 -0.49,-0.17 -0.89,-0.38 -1.23,-0.62 -0.33,-0.24 -0.59,-0.53 -0.76,-0.87 -0.17,-0.34 -0.26,-0.73 -0.26,-1.19 0,-0.41 0.09,-0.81 0.27,-1.18 0.18,-0.37 0.44,-0.7 0.78,-0.97 0.34,-0.27 0.75,-0.49 1.23,-0.65 0.49,-0.16 1.03,-0.24 1.64,-0.24 0.64,0 1.22,0.08 1.73,0.25 0.51,0.17 0.95,0.4 1.3,0.7 0.36,0.3 0.63,0.65 0.81,1.06 0.19,0.4 0.28,0.84 0.28,1.32l-1.24 0c0,-0.29 -0.06,-0.57 -0.19,-0.84 -0.13,-0.28 -0.31,-0.52 -0.56,-0.73 -0.25,-0.21 -0.55,-0.38 -0.91,-0.51 -0.36,-0.13 -0.77,-0.2 -1.23,-0.2 -0.48,0 -0.89,0.06 -1.23,0.18 -0.34,0.12 -0.62,0.27 -0.83,0.45 -0.21,0.19 -0.37,0.39 -0.47,0.62 -0.1,0.23 -0.15,0.46 -0.15,0.7 0,0.25 0.04,0.47 0.11,0.68 0.08,0.2 0.22,0.39 0.44,0.57 0.21,0.18 0.52,0.34 0.91,0.49 0.39,0.15 0.89,0.29 1.52,0.44 0.67,0.16 1.25,0.33 1.74,0.53 0.49,0.19 0.89,0.42 1.21,0.68 0.32,0.27 0.56,0.57 0.71,0.91 0.15,0.34 0.23,0.74 0.23,1.18 0,0.46 -0.1,0.88 -0.29,1.26 -0.19,0.38 -0.47,0.71 -0.82,0.98 -0.36,0.27 -0.79,0.48 -1.3,0.63 -0.51,0.15 -1.07,0.23 -1.7,0.23 -0.71,0 -1.33,-0.09 -1.88,-0.27 -0.54,-0.18 -1,-0.43 -1.37,-0.74 -0.37,-0.31 -0.65,-0.66 -0.84,-1.07 -0.19,-0.4 -0.28,-0.82 -0.28,-1.25l1.23 0c0.03,0.44 0.14,0.81 0.34,1.1 0.2,0.29 0.45,0.53 0.74,0.7 0.3,0.18 0.62,0.3 0.99,0.38 0.36,0.08 0.72,0.12 1.07,0.12 0.47,0 0.88,-0.06 1.24,-0.17 0.36,-0.11 0.66,-0.26 0.9,-0.44 0.24,-0.19 0.43,-0.4 0.55,-0.64 0.12,-0.24 0.18,-0.49 0.18,-0.75z"></path> </g> <line class="fil2 str0" x1="289.45" y1="36.12" x2="289.45" y2="181.76"></line> </g> </svg> 