<?xml version="1.0" encoding="UTF-8"?> <!-- Creator: CorelDRAW 2021.5 --> <svg xmlns="http://www.w3.org/2000/svg" xmlns:xlink="http://www.w3.org/1999/xlink" xmlns:xodm="http://www.corel.com/coreldraw/odm/2003" xml:space="preserve" width="34.8188mm" height="34.8188mm" style="shape-rendering:geometricPrecision; text-rendering:geometricPrecision; image-rendering:optimizeQuality; fill-rule:evenodd; clip-rule:evenodd" viewBox="0 0 21.12 21.12"> <defs> <style type="text/css"> <![CDATA[ .fil0 {fill:url(#id0);fill-rule:nonzero} .fil1 {fill:url(#id1);fill-rule:nonzero} ]]> </style> <linearGradient id="id0" gradientUnits="userSpaceOnUse" x1="16.32" y1="-4.36" x2="5.17" y2="22.03"> <stop offset="0" style="stop-opacity:1; stop-color:#4A85D3"></stop> <stop offset="1" style="stop-opacity:1; stop-color:#1F0046"></stop> </linearGradient> <linearGradient id="id1" gradientUnits="userSpaceOnUse" xlink:href="#id0" x1="20.75" y1="-11.31" x2="1.02" y2="27.38"> </linearGradient> </defs> <g id="Слой_x0020_1"> <metadata id="CorelCorpID_0Corel-Layer"></metadata> <path class="fil0" d="M11.77 11.02l-1.14 -0.83 -1.14 0.83 0.43 -1.34 -1.14 -0.83 1.41 0 0.43 -1.34 0.44 1.34 1.41 0 -1.14 0.83 0.43 1.34zm-1.27 1.65c1.82,0.03 3.32,-1.42 3.36,-3.24 0.03,-1.82 -1.42,-3.33 -3.24,-3.36 -1.82,-0.03 -3.32,1.42 -3.36,3.24 -0.03,1.82 1.42,3.32 3.24,3.36zm-3.65 -1.48c-0,0 -0,-0 0,0zm2.66 1.81c-0.34,-0.1 -0.81,0.12 -1.11,-0.05 -0.3,-0.18 -0.33,-0.7 -0.57,-0.95 -0.3,-0.31 -0.94,-0.28 -0.99,-0.8 -0.02,-0.23 0.07,-0.5 0.06,-0.77 -0.01,-0.44 -0.53,-0.71 -0.52,-1.12 0,-0.29 0.32,-0.56 0.46,-0.79 0.19,-0.3 0.08,-0.57 0.06,-0.92 -0.03,-0.73 0.65,-0.57 1.02,-0.93 0.25,-0.24 0.29,-0.76 0.6,-0.93 0.3,-0.17 0.77,0.07 1.11,-0.01 0.33,-0.08 0.63,-0.51 0.99,-0.51 0.36,0.01 0.64,0.45 0.97,0.54 0.34,0.1 0.81,-0.12 1.11,0.05 0.3,0.18 0.33,0.7 0.57,0.95 0.24,0.25 0.76,0.29 0.93,0.6 0.17,0.3 -0.07,0.77 0.01,1.11 0.08,0.33 0.43,0.53 0.5,0.93 0.02,0.23 -0.12,0.41 -0.26,0.58 -0.41,0.51 -0.3,0.58 -0.26,1.2 0.05,0.67 -0.69,0.59 -1.03,0.91 -0.22,0.22 -0.28,0.67 -0.52,0.88 -0.32,0.27 -0.8,-0.02 -1.19,0.07 -0.33,0.08 -0.63,0.51 -0.99,0.51 -0.35,-0.01 -0.64,-0.45 -0.97,-0.54zm6.23 -2.19c0.12,-0.4 0.6,-0.76 0.74,-1.17 0.02,-0.07 0.04,-0.14 0.04,-0.21 0.01,-0.51 -0.61,-0.94 -0.73,-1.41 -0,-0.02 -0.01,-0.03 -0.01,-0.05 -0.05,-0.27 0.02,-0.59 0.06,-0.89 0.03,-0.24 0.03,-0.47 -0.07,-0.65 -0.24,-0.43 -0.99,-0.5 -1.33,-0.86 -0.34,-0.36 -0.38,-1.11 -0.81,-1.36 -0.42,-0.25 -1.1,0.06 -1.58,-0.08 -0.47,-0.13 -0.88,-0.77 -1.38,-0.78 -0.51,-0.01 -0.94,0.61 -1.41,0.73 -0.49,0.12 -1.16,-0.22 -1.59,0.02 -0.44,0.24 -0.5,0.99 -0.86,1.34 -0.36,0.34 -1.11,0.38 -1.37,0.81 -0.12,0.19 -0.11,0.44 -0.09,0.7 0.03,0.26 0.07,0.54 0.03,0.78 -0.01,0.04 -0.01,0.07 -0.02,0.1 -0.13,0.47 -0.77,0.88 -0.78,1.38 -0,0.08 0.01,0.16 0.04,0.24 0.14,0.41 0.59,0.78 0.69,1.17 0.04,0.15 0.03,0.32 0.01,0.5 -0.04,0.3 -0.11,0.62 -0.06,0.89 0.01,0.07 0.04,0.14 0.07,0.2 0.24,0.44 0.99,0.5 1.34,0.86 0.03,0.04 0.06,0.07 0.09,0.12l-0.07 0.1 -0.11 0.18 -1.53 2.51c-0.08,0.14 -0.02,0.25 0.14,0.25l1.33 0.02c0.16,0 0.35,0.12 0.42,0.26l0.57 1.1c0.07,0.14 0.2,0.14 0.27,0l1.49 -2.78 0.1 -0.19c0.13,0.09 0.25,0.19 0.38,0.29 0.22,0.17 0.45,0.33 0.7,0.33 0.25,0 0.49,-0.15 0.72,-0.31 0.2,-0.14 0.4,-0.3 0.6,-0.38l0.11 0.23 1.39 2.83c0.07,0.14 0.19,0.15 0.27,0.01l0.61 -1.08c0.08,-0.14 0.27,-0.25 0.43,-0.25l1.33 0.02c0.16,0 0.23,-0.11 0.15,-0.25l-1.44 -2.56 -0.11 -0.2 -0.11 -0.2c0.38,-0.29 1.05,-0.35 1.29,-0.75 0.05,-0.08 0.07,-0.16 0.09,-0.25 0.04,-0.24 -0.01,-0.51 -0.03,-0.78 -0.02,-0.2 -0.03,-0.39 0.02,-0.56z"></path> <path class="fil1" d="M10.56 0c2.92,0 5.56,1.18 7.47,3.09 1.91,1.91 3.09,4.55 3.09,7.47 0,2.92 -1.18,5.56 -3.09,7.47 -1.91,1.91 -4.55,3.09 -7.47,3.09 -2.92,0 -5.56,-1.18 -7.47,-3.09 -1.91,-1.91 -3.09,-4.55 -3.09,-7.47 0,-2.92 1.18,-5.56 3.09,-7.47 1.91,-1.91 4.55,-3.09 7.47,-3.09zm6.56 4c-1.68,-1.68 -4,-2.72 -6.56,-2.72 -2.56,0 -4.88,1.04 -6.56,2.72 -1.68,1.68 -2.72,4 -2.72,6.56 0,2.56 1.04,4.88 2.72,6.56 1.68,1.68 4,2.72 6.56,2.72 2.56,0 4.88,-1.04 6.56,-2.72 1.68,-1.68 2.72,-4 2.72,-6.56 0,-2.56 -1.04,-4.88 -2.72,-6.56z"></path> </g> </svg> 