<?xml version="1.0" encoding="UTF-8"?> <!-- Creator: CorelDRAW 2020 (64-Bit) --> <svg xmlns="http://www.w3.org/2000/svg" xmlns:xlink="http://www.w3.org/1999/xlink" xmlns:xodm="http://www.corel.com/coreldraw/odm/2003" xml:space="preserve" width="93.1751mm" height="93.4328mm" style="shape-rendering:geometricPrecision; text-rendering:geometricPrecision; image-rendering:optimizeQuality; fill-rule:evenodd; clip-rule:evenodd" viewBox="0 0 955.05 957.69"> <defs> <style type="text/css"> <![CDATA[ .str0 {stroke:#8EAF0C;stroke-width:1.81;stroke-miterlimit:22.9256} .str1 {stroke:#8EAF0C;stroke-width:1.81;stroke-miterlimit:22.9256;stroke-dasharray:10.773872 10.773872} .fil6 {fill:none} .fil16 {fill:#100B0F;fill-rule:nonzero} .fil20 {fill:#168080;fill-rule:nonzero} .fil18 {fill:#1C151B;fill-rule:nonzero} .fil12 {fill:#3C5876;fill-rule:nonzero} .fil7 {fill:#8EAF0C;fill-rule:nonzero} .fil15 {fill:#A63824;fill-rule:nonzero} .fil19 {fill:#BF422C;fill-rule:nonzero} .fil9 {fill:#CF4B34;fill-rule:nonzero} .fil21 {fill:#DBA10F;fill-rule:nonzero} .fil23 {fill:#EBB326;fill-rule:nonzero} .fil8 {fill:#ED9E00;fill-rule:nonzero} .fil17 {fill:#F9AF8A;fill-rule:nonzero} .fil22 {fill:#FFC433;fill-rule:nonzero} .fil13 {fill:white;fill-rule:nonzero} .fil14 {fill:white;fill-rule:nonzero;fill-opacity:0.050980} .fil5 {fill:url(#id3)} .fil1 {fill:url(#id4);fill-rule:nonzero} .fil3 {fill:url(#id5);fill-rule:nonzero} .fil4 {fill:url(#id6);fill-rule:nonzero} .fil0 {fill:url(#id7);fill-rule:nonzero} .fil11 {fill:url(#id8);fill-rule:nonzero} .fil2 {fill:url(#id9);fill-rule:nonzero} .fil10 {fill:url(#id10);fill-rule:nonzero} ]]> </style> <clipPath id="id0"> <path d="M866.69 467.91l4.99 0 0 -6.19 -4.99 0 0 6.19z"></path> </clipPath> <mask id="id1"> <linearGradient id="id2" gradientUnits="userSpaceOnUse" x1="868.55" y1="465.78" x2="868.55" y2="462.8"> <stop offset="0" style="stop-opacity:0; stop-color:white"></stop> <stop offset="0.180392" style="stop-opacity:0; stop-color:white"></stop> <stop offset="1" style="stop-opacity:1; stop-color:white"></stop> </linearGradient> <rect style="fill:url(#id2)" x="866.69" y="461.72" width="4.99" height="6.19"></rect> </mask> <linearGradient id="id3" gradientUnits="userSpaceOnUse" x1="868.18" y1="466.17" x2="868.18" y2="461.97"> <stop offset="0" style="stop-opacity:0; stop-color:white"></stop> <stop offset="0.180392" style="stop-opacity:0; stop-color:white"></stop> <stop offset="1" style="stop-opacity:1; stop-color:white"></stop> </linearGradient> <linearGradient id="id4" gradientUnits="userSpaceOnUse" x1="696.71" y1="794.48" x2="403" y2="495.58"> <stop offset="0" style="stop-opacity:1; stop-color:#B7E1F4"></stop> <stop offset="1" style="stop-opacity:1; stop-color:white"></stop> </linearGradient> <linearGradient id="id5" gradientUnits="userSpaceOnUse" x1="311.9" y1="221.83" x2="240.83" y2="1224.25"> <stop offset="0" style="stop-opacity:1; stop-color:#B7E1F4"></stop> <stop offset="0.54902" style="stop-opacity:1; stop-color:white"></stop> <stop offset="1" style="stop-opacity:1; stop-color:white"></stop> </linearGradient> <linearGradient id="id6" gradientUnits="userSpaceOnUse" xlink:href="#id5" x1="815.82" y1="81.2" x2="752.96" y2="1216.27"> </linearGradient> <linearGradient id="id7" gradientUnits="userSpaceOnUse" xlink:href="#id4" x1="539.86" y1="348.59" x2="559.84" y2="943.66"> </linearGradient> <linearGradient id="id8" gradientUnits="userSpaceOnUse" xlink:href="#id4" x1="450.78" y1="452.76" x2="50.16" y2="45.91"> </linearGradient> <linearGradient id="id9" gradientUnits="userSpaceOnUse" xlink:href="#id5" x1="655.8" y1="-248.47" x2="464.9" y2="581.54"> </linearGradient> <linearGradient id="id10" gradientUnits="userSpaceOnUse" xlink:href="#id4" x1="236.79" y1="-154.3" x2="264.13" y2="657.27"> </linearGradient> </defs> <g id="Слой_x0020_1"> <metadata id="CorelCorpID_0Corel-Layer"></metadata> <g id="_2248163221648"> <path class="fil0" d="M650.66 615.1l-14.56 0.38c-3.29,0.08 -6.24,-1.94 -7.47,-4.99 -0.75,-1.87 -1.57,-3.7 -2.44,-5.5 -1.45,-2.97 -0.97,-6.5 1.29,-8.89l10.03 -10.55c2.97,-3.13 2.84,-8.06 -0.28,-11.03l-24.05 -22.84c-3.13,-2.97 -8.06,-2.84 -11.03,0.28l-10.03 10.55c-2.27,2.39 -5.78,3.05 -8.82,1.76 -1.84,-0.79 -3.71,-1.5 -5.62,-2.16 -3.12,-1.07 -5.28,-3.91 -5.37,-7.21l-0.38 -14.56c-0.12,-4.3 -3.69,-7.7 -8,-7.6l-33.15 0.86c-4.3,0.12 -7.7,3.69 -7.6,8l0.38 14.56c0.08,3.29 -1.94,6.24 -4.99,7.47 -1.87,0.75 -3.7,1.57 -5.5,2.44 -2.97,1.45 -6.5,0.97 -8.89,-1.29l-10.55 -10.03c-3.13,-2.97 -8.06,-2.84 -11.03,0.28l-22.84 24.05c-2.97,3.13 -2.84,8.06 0.28,11.03l10.55 10.03c2.39,2.27 3.05,5.78 1.76,8.82 -0.79,1.84 -1.5,3.71 -2.16,5.62 -1.07,3.12 -3.9,5.28 -7.21,5.37l-14.56 0.38c-4.3,0.12 -7.7,3.69 -7.6,8l0.85 33.15c0.12,4.3 3.69,7.7 8,7.6l14.56 -0.38c3.29,-0.08 6.24,1.94 7.47,4.99 0.75,1.87 1.57,3.7 2.44,5.5 1.45,2.97 0.97,6.5 -1.29,8.89l-10.03 10.55c-2.97,3.13 -2.84,8.06 0.28,11.03l24.04 22.84c3.13,2.97 8.06,2.84 11.03,-0.28l10.03 -10.55c2.27,-2.39 5.78,-3.05 8.82,-1.76 1.84,0.78 3.71,1.5 5.62,2.16 3.12,1.07 5.28,3.91 5.37,7.21l0.38 14.56c0.12,4.3 3.69,7.7 8,7.6l33.15 -0.86c4.3,-0.12 7.7,-3.69 7.6,-8l-0.38 -14.56c-0.08,-3.29 1.94,-6.24 4.99,-7.47 1.87,-0.75 3.7,-1.57 5.5,-2.44 2.97,-1.45 6.5,-0.97 8.89,1.29l10.55 10.03c3.13,2.97 8.06,2.84 11.03,-0.28l22.84 -24.05c2.97,-3.13 2.84,-8.06 -0.28,-11.03l-10.55 -10.03c-2.39,-2.27 -3.05,-5.78 -1.76,-8.82 0.79,-1.84 1.5,-3.71 2.16,-5.62 1.07,-3.12 3.9,-5.28 7.21,-5.37l14.56 -0.38c4.3,-0.12 7.7,-3.69 7.6,-8l-0.86 -33.15c-0.12,-4.3 -3.69,-7.7 -8,-7.6l0.01 0zm-99.62 60.87l0 0c-18.71,0.48 -34.28,-14.29 -34.76,-33 -0.48,-18.71 14.29,-34.28 33,-34.76 18.71,-0.48 34.28,14.29 34.76,33 0.48,18.71 -14.29,34.28 -33,34.76z"></path> <path class="fil1" d="M548.17 564.29c-42.97,1.12 -76.89,36.84 -75.78,79.8 1.12,42.97 36.84,76.9 79.8,75.78 42.97,-1.12 76.9,-36.84 75.78,-79.8 -1.12,-42.97 -36.84,-76.9 -79.8,-75.78zm3.15 121.77l0 0c-24.29,0.63 -44.48,-18.55 -45.11,-42.84 -0.63,-24.29 18.55,-44.48 42.84,-45.11 24.29,-0.63 44.48,18.55 45.11,42.84 0.63,24.29 -18.55,44.48 -42.84,45.11z"></path> <g id="_2430527280"> <path class="fil2" d="M417.79 128.51c9.56,-31.97 43.33,-50.26 75.1,-50.9 31.79,-0.65 62.19,12.5 91.53,25.44 14.35,-49.61 55.65,-89.43 103.78,-100.1 48.13,-10.67 101.15,8.25 133.24,47.56 32.09,39.31 41.94,97.39 24.75,145.98 -4.24,11.99 -10,23.49 -12.35,36.03 -2.36,12.55 -0.61,26.95 8.24,35.71 11.95,11.85 31.16,8.86 46.62,3.07 15.46,-5.79 31.71,-13.74 47.58,-9.36 15.87,4.4 26.02,29.39 12.41,39.06 -5.05,3.59 -11.54,3.78 -17.65,3.84 -31.62,0.32 -63.24,0.63 -94.86,0.95 -26.99,0.27 -55.1,0.29 -79.4,-12.12 -19.77,-10.1 -35.6,-27.81 -56.02,-36.39 -34.59,-14.53 -73.27,-0.01 -108.64,12.28 -115.24,40.04 -237.9,56.18 -358.94,47.24 -15.61,-1.16 -31.85,-2.95 -45.07,-11.78 -13.22,-8.82 -22.27,-26.82 -16.51,-42.16 6.12,-16.34 26.04,-22.48 42.34,-18.85 16.3,3.63 30.21,14.34 44.64,23.15 14.42,8.8 31.26,16.04 47.43,11.78 15.59,-4.1 26.92,-17.87 40.47,-26.98 16.12,-10.85 34.94,-14.59 53.82,-14.65 10.94,-0.03 44.76,9.93 51.44,-5.02 5.62,-12.59 -19.72,-31.89 -25.86,-43.72 -9.41,-18.13 -14.12,-39.86 -8.09,-60.05l0.01 -0.01z"></path> <g> <path class="fil3" d="M175.98 639.6c5.1,-18.86 3.89,-29.02 -1.08,-35.02 -4.98,-6.04 -13.12,-8.57 -22.92,-12.36 -4.85,-1.95 -9.25,-5.18 -12.7,-9.31 -3.42,-4.16 -6.17,-8.95 -7.3,-14.4 -2.32,-10.81 1.06,-23.79 15.03,-35.07 13.91,-11.24 28.8,-6.44 41.71,3.28 6.37,4.94 12.34,10.94 17.53,16.66 5.05,5.83 9.42,11.28 12.93,14.87 7.07,7.12 15.95,4.13 27.78,1.84 11.73,-2.2 26.49,-3.7 43.79,8.14 4.34,2.95 8.04,6.12 11.01,9.61 2.95,3.5 5.29,7.2 7.16,11.01 3.74,7.62 5.57,15.66 6.1,23.83 0.61,8.11 0.24,16.13 -0.13,23.63 -0.43,7.53 -0.99,14.63 -0.41,20.75 2.3,24.41 23.99,38.97 54.9,45.85 15.44,3.41 23.38,11.2 27.08,20.76 3.55,9.65 2.37,21.31 -0.24,32.88 -5.66,23.39 -5.97,35.39 16,54.81 5.63,4.82 8.11,11.69 8.57,19.16 0.39,7.49 -1.45,15.65 -5.48,23.53 -7.88,15.75 -23.2,29.67 -41.73,35.11 -18.51,5.46 -41.83,3.97 -63.27,-2.82 -21.57,-6.84 -41.71,-18.67 -54.85,-36.13 -9.16,-11.67 -12.41,-23.47 -13.41,-35.35 -0.69,-12 0.88,-24.01 2.75,-36.13 1.84,-12.09 3.25,-23.9 2.38,-35.22 -0.62,-5.56 -1.89,-10.93 -4.14,-16.03 -2.22,-5.11 -5.44,-9.92 -10.15,-14.15 -4.65,-4.27 -9.28,-7.97 -13.78,-11.25 -4.59,-3.22 -9.1,-5.98 -13.32,-8.56 -4.2,-2.57 -8.16,-4.98 -11.82,-7.23 -3.71,-2.25 -7.06,-4.48 -9.94,-6.88 -5.75,-4.84 -9.67,-10.34 -11.31,-18 -1.62,-7.67 -0.45,-17.87 3.27,-31.8l-0 0z"></path> </g> <g> <path class="fil4" d="M797.09 498.73c21.25,-2.57 30.67,-7.11 36.11,-13.95 2.63,-3.45 4.09,-7.52 5.22,-12.2 0.57,-2.33 1.02,-4.83 1.56,-7.42 0.58,-2.56 1.19,-5.25 1.92,-8.07 1.45,-5.64 4.44,-11.19 8.47,-15.85 3.99,-4.7 9.45,-8.18 15.19,-10.21 11.64,-4.03 25.13,-1.3 37.43,12.86 6.17,7.06 8.42,14.33 8.22,21.42 -0.13,7.16 -3.06,13.86 -6.54,20.67 -3.53,6.76 -8.25,13.09 -12.67,18.82 -4.2,5.88 -8.23,11.05 -10.71,15.05 -5.07,7.94 1.25,16.04 7.64,26.2 6.52,10.25 13.07,22.54 11.2,40.03 -0.5,4.37 -1.65,8.09 -3.06,11.51 -1.37,3.44 -3.21,6.43 -5.42,9.09 -4.42,5.31 -10.39,9.27 -16.49,12.87 -6.22,3.54 -13.05,6.46 -19.52,9.38 -6.36,2.96 -12.15,5.99 -16.73,9.45 -18.44,13.89 -13.92,40 5.3,62.97 9.59,11.54 11.66,20.42 8.5,28.02 -2.92,7.64 -10.27,14.2 -19.36,20.51 -17.47,12.67 -24.71,22.74 -12.83,45.99 2.76,5.76 2.99,11.75 0.32,17.61 -2.57,5.86 -7.73,11.63 -14.05,16.87 -12.9,10.39 -32.58,19.03 -52.64,19.24 -20.06,0.16 -42.59,-8.04 -61.43,-24.5 -18.65,-16.32 -32.72,-41.08 -35.13,-70.18 -1.18,-19.49 2.92,-35.8 10.48,-49.4 7.1,-13.74 17.65,-24.79 27.79,-35.01 4.99,-5.15 10.43,-9.93 15.38,-14.79 4.98,-4.85 9.62,-9.72 13.66,-14.88 4.26,-5.08 7.94,-10.44 10.73,-16.37 1.4,-2.97 2.58,-6.08 3.51,-9.39 0.96,-3.29 1.85,-6.7 2.38,-10.38 1.09,-7.33 1.71,-14.31 2.12,-20.96 0.56,-6.58 0.99,-12.79 1.32,-18.7 0.37,-5.9 0.59,-11.53 1.2,-16.74 0.67,-5.19 1.51,-10.05 2.76,-14.57 1.23,-4.53 2.85,-8.71 5.07,-12.54 2.25,-3.81 5.31,-7.15 9.06,-10.12 7.62,-5.89 18.09,-10.42 34.09,-12.28l-0.03 -0.03z"></path> </g> </g> <g id="_2430523952"> <g> <polygon class="fil5" points="866.69,467.91 871.68,467.91 871.68,461.72 866.69,461.72 "></polygon> <g style="clip-path:url(#id0)"> <g> <path id="1" class="fil6 str0" style="mask:url(#id1)" d="M867.59 467.01c1.08,-1.43 2.15,-2.89 3.18,-4.38"></path> </g> </g> <polygon class="fil6" points="866.69,467.91 871.68,467.91 871.68,461.72 866.69,461.72 "></polygon> <path class="fil6 str1" d="M876.56 453.56c33.18,-56.55 34.09,-145.9 -41.02,-195.92 -80.86,-53.85 -176.45,-48.37 -259.97,-146.03 -10.44,-12.21 -19.82,-25.74 -21.85,-41.96 -2.66,-21.18 14.3,-42.67 29.62,-30.28 17.1,13.83 7.56,54.45 -32.19,84.63 -44.48,33.77 -99.99,51.58 -155.16,50.41 -56.98,-1.21 -112.76,-22.12 -169.69,-19.23 -91.14,4.64 -175.07,77.44 -195.37,169.47 -11.8,53.47 -1.51,110.72 24.9,158.15"></path> <path class="fil6 str0" d="M58.52 487.48c0.92,1.56 1.85,3.1 2.8,4.64"></path> </g> </g> <g id="_2430500176"> <g> <path class="fil7" d="M945.5 704.66c-3.79,0.89 -8.52,2.65 -13.94,5.27 -2.66,1.4 -5.55,2.93 -8.65,4.56 -3.07,1.62 -6.21,3.68 -9.59,5.62 -13.42,8.1 -28.84,18.39 -46.64,29.4 -10.82,6.88 -21.13,13.52 -30.76,20.06 -9.47,6.69 -18.49,13.02 -26.25,19.41 -15.73,12.54 -27.36,24.38 -32.81,32.98 5.45,-8.55 11.67,-23.89 23.41,-41.51 5.75,-8.89 13.08,-18.05 21.77,-27.2 8.83,-8.99 19.26,-17.69 31.18,-25.27 19.7,-12.21 39.73,-17.52 55.88,-19.85 16.23,-2.48 28.83,-1.76 36.4,-3.47l-0.01 0.01z"></path> </g> <g> <path class="fil7" d="M933.45 664.67c-6.4,1.69 -15.66,7.23 -26.41,15.11 -10.85,7.8 -23.15,17.49 -37.6,27.49 -8.78,6.25 -17.21,12.19 -25.12,18.01 -7.77,5.95 -15.23,11.54 -21.63,17.19 -13,11.08 -22.6,21.56 -26.73,29.17 4.11,-7.56 8.09,-21.16 16.82,-37.11 4.24,-8.03 9.88,-16.37 16.75,-24.76 7,-8.24 15.46,-16.28 25.35,-23.31 16.36,-11.34 33.55,-16.31 47.41,-18.45 13.93,-2.29 24.79,-1.62 31.15,-3.33l0.01 -0.01z"></path> </g> <g> <path class="fil7" d="M927.45 608.27c-3.19,0.81 -7.17,2.44 -11.63,4.94 -2.17,1.34 -4.53,2.8 -7.05,4.37 -2.49,1.55 -4.98,3.56 -7.67,5.41 -10.65,7.81 -22.43,17.71 -35.98,28.34 -8.21,6.66 -16.01,13.1 -23.25,19.52 -7.04,6.55 -13.8,12.82 -19.35,19.14 -11.41,12.45 -19.15,24.35 -21.89,32.52 2.75,-8.09 4.37,-22.17 11.06,-39.15 3.19,-8.53 7.93,-17.49 14.01,-26.56 6.24,-8.91 14.12,-17.68 23.65,-25.37 15.8,-12.42 33.07,-17.95 46.96,-20.19 3.53,-0.48 6.76,-1.07 9.86,-1.25 3.07,-0.21 5.93,-0.4 8.57,-0.58 5.25,-0.24 9.53,-0.31 12.72,-1.12l0 -0.01z"></path> </g> <g> <path class="fil7" d="M822.09 497.58c1.58,6.39 7.35,15.56 12.4,28.64 5.13,12.98 9.74,29.97 9.06,49.62 -0.54,11.98 -2.53,23.33 -5.37,33.65 -3,10.3 -6.58,19.63 -10.57,27.71 -7.78,16.27 -16.09,27.71 -19.52,35.59 3.46,-7.91 5.88,-21.88 7.28,-38.98 0.81,-8.53 1.14,-17.91 1.65,-27.77 0.36,-9.83 0.74,-20.27 1.14,-31.18 0.61,-17.74 2.52,-33.44 3.76,-46.81 1.35,-13.32 1.77,-24.08 0.17,-30.5l0 0.02z"></path> </g> </g> <g id="_2430494416"> <path class="fil7" d="M89.97 901.45c-5.81,-2.65 -16.23,-4.33 -29.02,-10.06 -12.64,-5.63 -27.72,-15.87 -38.43,-32.95 -3.22,-5.21 -5.85,-10.62 -7.99,-16.03 -2.04,-5.45 -3.62,-10.87 -4.68,-16.2 -2.13,-10.65 -2.34,-20.76 -1.64,-29.69 1.47,-17.97 6.7,-30.85 8.31,-39.03 -1.66,8.24 -0.42,22.17 4.34,37.81 4.77,15.71 12.64,32.82 23.23,49.7 8.67,13.82 16.68,26.24 24.59,36.3 7.84,10.01 15.43,17.5 21.3,20.15l0 -0.01z"></path> </g> <g id="_2430530864"> <path class="fil7" d="M54.95 900.25c-4.05,-1.36 -16.65,7.82 -28.12,3.99 -14.03,-4.69 -21.54,-20.6 -26.83,-22.37 5.29,1.77 20.88,-6.41 34.9,-1.71 11.47,3.84 16.01,18.75 20.06,20.11l0 -0.01z"></path> </g> <g id="_2430524720"> <path class="fil7" d="M921.32 874.94c-5.72,2.03 -13.61,18.3 -29.81,24.06 -19.83,7.03 -40.41,0.86 -47.89,3.51 7.48,-2.65 19.57,-20.43 39.4,-27.46 16.22,-5.76 32.58,1.92 38.31,-0.12z"></path> </g> <g id="_2430500208"> <path class="fil8" d="M238.6 730.62c17.92,21.69 29.56,47.02 35.91,71.41 2.81,12.44 5.03,24.26 5.47,35.86 0.32,5.76 0.53,11.28 0.45,16.65 -0.23,5.44 -0.61,10.65 -1.09,15.61 -0.79,9.84 -2.76,18.94 -4.66,26.78 -0.96,3.92 -1.93,7.55 -2.92,10.87 -1.14,3.37 -2.24,6.43 -3.28,9.17 -4.19,10.93 -7.36,16.83 -7.36,16.83 0,0 -5.8,-4 -14.69,-10.76 -2.19,-1.68 -4.6,-3.54 -7.2,-5.54 -2.67,-1.95 -5.55,-4.04 -8.59,-6.25 -6,-4.41 -12.27,-9.35 -19.42,-14.37 -3.48,-2.55 -7,-5.18 -10.49,-7.89 -3.65,-2.65 -7.44,-5.32 -11.09,-8.11 -7.1,-5.67 -15.08,-11.16 -22.14,-17.24 -14.94,-11.79 -29.03,-24.38 -41.24,-39.25 -12.45,-14.67 -22.33,-30.78 -31.25,-47.6 -4.73,-8.03 -8.69,-16.86 -13.01,-24.87 -2.09,-4.09 -4.04,-8.29 -6,-12.35 -2.04,-3.92 -4.01,-7.85 -5.88,-11.72 -3.67,-7.92 -7.41,-14.99 -10.67,-21.68 -1.63,-3.39 -3.18,-6.59 -4.61,-9.57 -1.5,-2.92 -2.89,-5.61 -4.16,-8.06 -5.06,-9.95 -7.96,-16.37 -7.96,-16.37 0,0 6.37,-2.06 17.87,-4.23 2.88,-0.54 6.08,-1.08 9.61,-1.6 3.45,-0.38 7.19,-0.68 11.22,-0.93 8.05,-0.47 17.36,-0.78 27.18,0.2 4.96,0.41 10.15,0.97 15.54,1.71 5.29,0.88 10.69,2.07 16.3,3.42 11.34,2.52 22.57,6.81 34.32,11.8 22.87,10.6 45.71,26.57 63.85,48.08l-0.01 -0z"></path> <g> <path class="fil9" d="M187 688.83l-3.69 -2.03c0.36,5.93 0.97,13.65 1.97,22.38 0.84,8.9 1.89,19.01 3.61,29.39 0.83,5.22 1.55,10.78 2.59,16.23 0.95,5.54 2.34,10.86 3.49,16.55 1.22,5.63 2.67,11.23 4.43,16.73 1.82,5.45 3.4,11.22 5.65,16.65 -3.27,-4.51 -6.24,-9.25 -9.76,-13.59l-10.35 -13.14c-3.53,-4.33 -7.33,-8.4 -10.99,-12.61 -1.86,-2.07 -3.65,-4.21 -5.58,-6.23l-5.88 -5.95c-3.22,-3.23 -6.08,-6.68 -8.75,-10.21 -2.8,-3.39 -5.31,-6.94 -7.62,-10.61 -4.47,-7.48 -8.58,-14.86 -11.95,-22.54 -3.28,-7.8 -6.35,-15.27 -8.87,-22.59 -2.53,-7.32 -4.54,-14.5 -6.43,-20.6 -1.25,-0.15 -2.49,-0.28 -3.72,-0.43 2.99,9.67 6.46,21.77 11.36,33.71 2.53,5.87 4.93,12.35 8.01,18.32 1.5,3.03 3.16,5.98 4.86,8.93 1.63,3.05 3.39,6.04 5.29,8.95 -29.38,-26.78 -63.29,-48.42 -99.53,-64.68 -1.54,0.44 -2.4,0.69 -2.4,0.69 0,0 0.38,0.83 1.07,2.33 35.92,16.11 69.53,37.56 98.66,64.12 -3.06,-1.57 -6.16,-2.96 -9.26,-4.18 -3.18,-1.12 -6.42,-2 -9.6,-2.76 -6.43,-1.42 -12.5,-2.56 -18.71,-2.6 -12.3,-0.28 -23.23,1.18 -32.27,3.8 0.46,0.93 0.95,1.86 1.42,2.8 5.72,-1.61 12.08,-2.61 19.12,-3.14 7.04,-0.52 14.79,-0.56 22.43,0.83 7.73,1.26 15.87,3.31 23.33,7.11 3.79,1.83 7.55,3.95 11.19,6.36 3.51,2.56 6.85,5.48 10.04,8.69l5.83 5.89c1.9,2 3.68,4.13 5.52,6.18 3.62,4.18 7.41,8.22 10.9,12.5l10.27 13.03c3.48,4.3 6.43,9 9.67,13.47 -4.45,-3.84 -8.79,-7.49 -13.73,-10.35 -4.87,-2.92 -9.82,-5.43 -14.73,-7.58 -4.85,-2.2 -10.15,-3.65 -15.07,-5 -5.01,-1.26 -9.78,-2.35 -14.61,-2.92 -9.71,-1.09 -18.56,-1.22 -26.3,-0.68 -7.9,0.71 -14.52,1.89 -19.51,3.01l1.54 2.68c6,-1.22 14.46,-2.8 23.84,-2.87 9.47,-0.19 20.64,0.37 31.79,3.24 11.5,2.55 22.88,7.46 33.89,14.43 5.24,3.67 10.35,7.87 15.18,12.62 4.7,4.82 8.76,10.41 12.52,16.37 2.45,3.71 4.35,7.76 6.54,11.63 2.09,3.92 4.3,7.79 6.3,11.75l5.67 12.07 2.84 6.04c0.91,2.03 1.67,4.11 2.52,6.18 -4.02,-6.01 -9.31,-11.08 -14.39,-15.75 -5.03,-4.69 -10.78,-8.56 -16.46,-11.89 -11.11,-6.83 -23.33,-10.79 -33.77,-13.43 -10.8,-2.44 -20.53,-3.18 -27.79,-3.4 -7.31,-0.18 -12.65,0.46 -14.46,0.63l2.57 2.62c4.21,-0.4 11.37,-0.55 20.86,0.29 4.68,0.46 10.1,1.07 15.59,2.3 5.46,1.24 11.29,2.9 17.33,5.09 6.18,2.12 11.92,5.1 17.94,8.57 2.98,1.75 5.96,3.64 8.9,5.69 2.78,2.14 5.52,4.44 8.21,6.89 2.68,2.46 5.31,5.08 7.85,7.86 2.47,2.81 4.62,5.87 6.78,9.04 2.13,3.18 4.13,6.51 5.97,9.99 1.69,3.54 3.1,7.25 4.39,11.08 3.49,9.63 5.83,19.61 8.51,29.49 1.35,0.95 2.09,1.46 2.09,1.46 0,0 0.4,-0.8 1.12,-2.23 -2.69,-9.97 -5.07,-20.04 -8.59,-29.76 -1.29,-3.86 -2.3,-7.76 -3.22,-11.62 -1.07,-3.81 -1.94,-7.64 -2.63,-11.48 -0.72,-3.83 -1.14,-7.73 -1.62,-11.57 -0.56,-3.8 -0.95,-7.61 -1.22,-11.43 -0.26,-3.82 -0.4,-7.65 -0.42,-11.48 -0.19,-3.75 -0.27,-7.48 -0.26,-11.21 -0.03,-7.42 0.56,-14.94 0.76,-21.9 0.34,-7.03 0.91,-13.88 1.58,-20.34 0.66,-6.46 1.13,-12.32 1.81,-17.76 1.25,-10.79 2.8,-19.45 3.46,-23.96l-2.96 -4.39c-0.43,2.12 -1.25,7.84 -2.45,16.31 -1.25,8.51 -2.46,19.44 -3.44,31.71 -1.32,12.51 -1.74,25.93 -2.04,40.18 -0.02,7.05 0.35,14.11 0.63,21.42 0.33,7.27 1.53,14.33 2.44,21.7 -0.85,-2.07 -1.63,-4.18 -2.54,-6.23l-2.86 -6.09 -5.72 -12.19c-2.01,-4.01 -4.24,-7.9 -6.36,-11.86 -2.21,-3.9 -4.13,-7.98 -6.59,-11.72 -3.79,-6.02 -6.71,-12.35 -9.44,-18.64 -2.84,-6.2 -5.15,-12.58 -7.03,-19.08 -4.28,-12.61 -6.8,-25.88 -9.2,-38.31 -2.03,-12.72 -3.81,-24.66 -4.9,-35.57 -0.98,-11.02 -2.02,-20.24 -2.41,-27.48l-0.03 0.04z"></path> </g> </g> <g id="_2430487632"> <path class="fil8" d="M114.93 815.75c7.03,7.65 12.92,16.26 18.85,25.22 5.9,8.88 11.74,18.19 17.47,26.48 5.67,8.29 11.08,15.8 15.14,21.07 4.03,5.3 6.57,8.65 6.57,8.65 0,0 -0.93,0.47 -2.58,1.34 -1.68,0.81 -4.23,2.09 -7.51,3.28 -6.59,2.57 -16.33,5.31 -28.58,6.19 -12.21,0.91 -26.84,-0.4 -41.9,-5.51 -14.99,-5.1 -30.27,-14.26 -42.44,-27.59 -12.12,-13.38 -19.81,-29.44 -23.48,-44.84 -3.67,-15.48 -3.59,-30.17 -1.54,-42.24 2.02,-12.11 5.67,-21.55 8.85,-27.87 1.49,-3.15 3.01,-5.57 3.98,-7.17 1.01,-1.57 1.58,-2.44 1.58,-2.44 0,0 3.08,2.84 7.99,7.35 4.87,4.54 11.83,10.63 19.55,17.06 7.71,6.47 16.43,13.17 24.72,19.88 8.37,6.75 16.38,13.42 23.34,21.14l-0 0.01z"></path> <g> <path class="fil9" d="M96.03 798.26l-1.3 -1.13c-2.67,5.41 -6.22,14.61 -6.79,25.97 -0.66,11.29 2.06,24.76 10.39,36.18 -10.09,-8.6 -19.14,-18.41 -26.92,-29.15 -6.41,-8.81 -8.44,-19.31 -7.81,-28.6 0.6,-9.36 3.83,-17.57 7.24,-23.53l-1.43 -1.17c-2.72,4.69 -5.49,10.85 -6.85,17.93 -1.39,7.07 -1.53,15.16 0.77,23.11 -12.08,-20.29 -20.03,-43.07 -22.87,-66.53 -0.73,-0.65 -1.14,-1.02 -1.14,-1.02 0,0 -0.31,0.45 -0.83,1.26 2.87,23.74 10.91,46.78 23.13,67.31 -11.86,-11.53 -26.46,-20.5 -37.27,-27.09l-0.25 2.28c6.81,4.09 15.19,9.29 23.31,15.33 8.16,6.08 15.95,13.03 22.38,21.88 7.86,10.87 17.03,20.8 27.23,29.5 -12.54,-6.45 -26.07,-11.07 -38.43,-15.29 -12.35,-4.11 -23.57,-7.57 -30.55,-9.65l0.8 2.54c8.55,2.48 22.5,6.67 37.2,11.78 14.89,5.18 30.12,11.05 44.1,20.74 8.83,6.21 18.28,11.51 28.12,15.94 -8.67,-1.67 -17.4,-2.53 -25.97,-3.05 -8.52,-0.58 -16.9,-0.79 -24.5,-0.96 -15.19,-0.29 -27.22,-0.33 -29.87,-0.19l2.58 2.19c5.83,-0.14 21.12,-0.17 38.44,0.31 8.68,0.26 17.84,0.77 27.04,1.82 9.22,1.08 18.41,2.83 27.67,5.96 5.9,1.94 11.87,3.65 17.94,4.97 0.85,-0.45 1.34,-0.71 1.34,-0.71 0,0 -0.33,-0.44 -0.91,-1.23 -6,-1.29 -11.9,-3 -17.73,-4.9 -9.19,-3.1 -16.75,-8.83 -22.29,-15.49 -5.58,-6.66 -9.09,-14.35 -11.06,-21.57 -4.01,-14.55 -1.63,-27.17 -0.53,-31.76l-1.26 -1.55c-0.54,2.06 -3.28,11.79 -1.77,24.66 0.75,6.41 2.59,13.58 6.06,20.6 3.49,6.96 8.67,13.75 15.61,19.1 -9.72,-4.38 -19.08,-9.62 -27.8,-15.75 -6.95,-4.85 -12.19,-11.25 -15.67,-18.1 -3.48,-6.88 -5.22,-14.16 -5.73,-20.96 -0.97,-13.78 3.09,-25.46 6.16,-31.96l0.02 -0.01z"></path> </g> </g> <g id="_2430481040"> <path class="fil8" d="M859.88 867.02c-13.2,13.94 -29.3,24.04 -45.26,30.58 -8.17,3.06 -15.99,5.67 -23.82,7.12 -3.87,0.78 -7.61,1.46 -11.27,1.95 -3.71,0.39 -7.29,0.67 -10.71,0.85 -6.78,0.46 -13.18,0.11 -18.72,-0.35 -2.78,-0.23 -5.36,-0.5 -7.73,-0.81 -2.42,-0.39 -4.63,-0.8 -6.61,-1.2 -7.93,-1.62 -12.33,-3.09 -12.33,-3.09 0,0 2.05,-4.41 5.67,-11.28 0.92,-1.7 1.92,-3.57 2.98,-5.57 1.05,-2.06 2.17,-4.26 3.36,-6.58 2.38,-4.61 5.1,-9.48 7.85,-14.92 2.85,-5.3 5.85,-10.88 8.91,-16.56 3.23,-5.51 6.3,-11.55 9.88,-17.08 6.85,-11.51 14.45,-22.54 23.85,-32.42 9.25,-10.01 19.76,-18.31 30.82,-25.88 5.28,-3.92 11.11,-7.39 16.41,-10.97 5.47,-3.42 10.85,-6.77 15.95,-9.95 5.25,-3.08 9.94,-6.11 14.39,-8.79 2.23,-1.33 4.36,-2.59 6.35,-3.77 1.93,-1.2 3.72,-2.32 5.37,-3.34 6.62,-4.05 10.89,-6.38 10.89,-6.38 0,0 1.76,4.3 3.88,12.11 0.53,1.96 1.08,4.14 1.63,6.52 0.46,2.36 0.89,4.9 1.3,7.67 0.81,5.5 1.57,11.86 1.55,18.66 0.04,3.42 0,7.01 -0.16,10.74 -0.24,3.68 -0.68,7.45 -1.21,11.37 -0.94,7.9 -3.04,15.88 -5.58,24.23 -5.5,16.34 -14.53,33.07 -27.6,47.14l-0.03 -0.01z"></path> <g> <path class="fil9" d="M884.13 828.69l1.09 -2.66c-4.04,0.65 -9.27,1.61 -15.2,2.93 -6.04,1.22 -12.87,2.7 -19.87,4.68 -14.35,3.7 -29.62,8.89 -44.01,16.64 11.53,-10.28 22.1,-21.64 31.82,-33.63 1.97,-2.46 4.11,-4.71 6.34,-6.82 2.13,-2.18 4.38,-4.18 6.74,-6.04 4.8,-3.64 9.61,-6.99 14.65,-9.84 5.13,-2.8 10.06,-5.4 14.93,-7.6 4.87,-2.21 9.66,-4.03 13.74,-5.69l0.05 -2.58c-13.2,5.22 -31.3,12.86 -46.07,24.97 16.23,-22.25 28.97,-46.95 38.32,-72.83 -0.39,-1.04 -0.61,-1.62 -0.61,-1.62 0,0 -0.56,0.31 -1.55,0.86 -9.27,25.68 -21.91,50.19 -38.01,72.26 6.87,-18 3.78,-36.76 -0.76,-48.78l-1.85 1.18c1.45,3.87 2.55,8.23 3.37,13.08 0.81,4.85 1.34,10.2 0.93,15.6 -0.34,5.44 -1.18,11.19 -3.23,16.63 -0.98,2.76 -2.16,5.49 -3.55,8.19 -1.48,2.62 -3.24,5.15 -5.2,7.6 -9.65,11.91 -20.13,23.17 -31.58,33.38 9.33,-13.31 12.61,-29.05 12.92,-42.33 0.01,-6.8 -0.57,-12.94 -1.5,-18.28 -1.05,-5.42 -2.34,-9.93 -3.45,-13.32l-1.76 1.29c1.26,4.08 2.94,9.83 3.68,16.34 0.83,6.57 1.28,14.32 0.21,22.28 -0.84,8.14 -3.26,16.43 -7.1,24.6 -2.06,3.95 -4.49,7.84 -7.31,11.58 -2.88,3.67 -6.34,6.99 -10.08,10.13 -4.81,3.85 -9.84,7.44 -14.81,11.09 -5.19,3.34 -10.15,7.01 -15.52,10.06 14.48,-14.31 20.52,-33.43 22.02,-48.56 0.73,-7.68 0.42,-14.47 -0.04,-19.53 -0.48,-5.09 -1.35,-8.72 -1.61,-9.97l-1.62 2.03c0.61,2.87 1.3,7.84 1.54,14.48 0.08,3.28 0.12,7.08 -0.24,10.98 -0.37,3.89 -1,8.07 -1.95,12.45 -0.89,4.44 -2.41,8.71 -4.21,13.19 -0.92,2.22 -1.94,4.45 -3.06,6.68 -1.19,2.13 -2.49,4.25 -3.91,6.35 -1.42,2.09 -2.96,4.17 -4.6,6.19 -1.67,1.99 -3.55,3.79 -5.48,5.6 -1.96,1.79 -4.03,3.51 -6.22,5.15 -2.23,1.55 -4.62,2.93 -7.1,4.23 -6.22,3.43 -12.75,6.2 -19.21,9.17 -0.48,1.02 -0.76,1.6 -0.76,1.6 0,0 0.6,0.18 1.65,0.51 6.5,-2.99 13.09,-5.78 19.36,-9.24 19.87,-10.31 41.42,-13.51 61.08,-15.06 4.84,-0.41 9.57,-0.64 14.04,-0.76 4.46,-0.12 8.52,-0.31 12.29,-0.29 7.48,-0.06 13.51,0.27 16.66,0.36l2.73 -2.38c-1.48,-0.13 -5.46,-0.23 -11.36,-0.34 -5.91,-0.14 -13.48,-0.04 -21.96,0.37 -17.19,0.75 -37.57,2.5 -56.85,8.75 5.41,-3.07 10.42,-6.78 15.65,-10.13 5.01,-3.67 10.07,-7.29 14.92,-11.18 15.4,-12.18 32.97,-19.12 49.87,-24.27 16.9,-4.97 32.9,-8.04 42.62,-9.7l-0.01 -0.01z"></path> </g> </g> <path class="fil10" d="M388.2 208.51l-19.86 0.52c-4.49,0.12 -8.51,-2.63 -10.2,-6.81 -1.02,-2.55 -2.14,-5.05 -3.34,-7.5 -1.97,-4.04 -1.33,-8.87 1.77,-12.13l13.67 -14.41c4.04,-4.26 3.87,-11 -0.39,-15.04l-32.8 -31.15c-4.26,-4.04 -11,-3.87 -15.04,0.39l-13.67 14.41c-3.09,3.26 -7.88,4.16 -12.03,2.4 -2.52,-1.07 -5.07,-2.05 -7.67,-2.95 -4.25,-1.46 -7.21,-5.34 -7.32,-9.83l-0.52 -19.86c-0.15,-5.87 -5.04,-10.51 -10.91,-10.35l-45.22 1.17c-5.87,0.15 -10.51,5.04 -10.35,10.91l0.52 19.86c0.12,4.49 -2.63,8.51 -6.81,10.2 -2.55,1.02 -5.05,2.14 -7.5,3.34 -4.04,1.97 -8.87,1.33 -12.13,-1.77l-14.41 -13.68c-4.26,-4.04 -11,-3.87 -15.04,0.39l-31.15 32.8c-4.04,4.26 -3.87,11 0.39,15.04l14.4 13.67c3.26,3.09 4.16,7.88 2.4,12.03 -1.07,2.52 -2.05,5.07 -2.95,7.67 -1.46,4.25 -5.34,7.21 -9.83,7.32l-19.86 0.52c-5.87,0.15 -10.51,5.04 -10.35,10.91l1.17 45.22c0.15,5.87 5.03,10.51 10.91,10.35l19.86 -0.52c4.49,-0.12 8.51,2.63 10.2,6.81 1.02,2.55 2.14,5.05 3.34,7.5 1.97,4.04 1.33,8.87 -1.77,12.13l-13.67 14.41c-4.04,4.26 -3.87,11 0.39,15.04l32.8 31.15c4.26,4.04 11,3.87 15.04,-0.39l13.67 -14.41c3.09,-3.26 7.88,-4.16 12.03,-2.4 2.52,1.07 5.07,2.05 7.67,2.95 4.25,1.46 7.21,5.34 7.32,9.83l0.52 19.86c0.15,5.87 5.03,10.51 10.91,10.35l45.22 -1.17c5.87,-0.15 10.51,-5.04 10.35,-10.91l-0.52 -19.86c-0.12,-4.49 2.63,-8.51 6.81,-10.2 2.55,-1.02 5.05,-2.14 7.5,-3.34 4.04,-1.97 8.87,-1.33 12.13,1.77l14.41 13.67c4.26,4.04 11,3.87 15.04,-0.39l31.15 -32.8c4.04,-4.26 3.87,-11 -0.39,-15.04l-14.4 -13.67c-3.26,-3.09 -4.16,-7.88 -2.4,-12.03 1.07,-2.52 2.05,-5.07 2.95,-7.67 1.46,-4.25 5.34,-7.21 9.83,-7.32l19.86 -0.52c5.87,-0.15 10.51,-5.04 10.35,-10.91l-1.17 -45.22c-0.15,-5.87 -5.04,-10.51 -10.91,-10.35l0 0.01zm-135.85 83.01l0 0c-25.52,0.66 -46.75,-19.49 -47.4,-45.01 -0.66,-25.52 19.49,-46.75 45.01,-47.4 25.52,-0.66 46.75,19.49 47.4,45.01 0.66,25.52 -19.49,46.75 -45.01,47.4z"></path> <path class="fil11" d="M248.41 139.22c-58.59,1.51 -104.87,50.25 -103.35,108.84 1.51,58.59 50.25,104.87 108.84,103.35 58.59,-1.51 104.87,-50.25 103.35,-108.84 -1.51,-58.59 -50.25,-104.87 -108.84,-103.35zm4.29 166.07l0 0c-33.13,0.85 -60.67,-25.3 -61.53,-58.43 -0.85,-33.13 25.3,-60.67 58.43,-61.53 33.13,-0.85 60.67,25.3 61.53,58.43 0.85,33.13 -25.3,60.67 -58.43,61.53z"></path> <g id="_2430498608"> <g> <polygon class="fil12" points="280.63,231.29 306.91,567.84 633.37,567.84 661.23,211.44 "></polygon> </g> <path class="fil8" d="M500.49 138.95c-5.42,-1.15 -11.7,4.39 -14.92,8 -5.66,6.35 -9.84,14.25 -13.67,21.77 -7.89,15.5 -13.3,32.1 -16.29,49.2 -1.56,-18.81 -3.01,-37.62 -4.76,-56.41 -1.7,-18.31 -4.1,-36.78 -10.38,-54.16 -1.3,-3.63 -3.27,-9.98 -8.43,-8.46 -5.82,1.71 -7.79,12.86 -8.71,17.6 -3.47,17.96 0.88,36.09 6.04,53.26 5.77,19.17 12.36,38.33 24.32,54.63 0.6,0.81 1.69,0.56 2.1,-0.07 0,0 0.01,0 0.02,0 0.35,0.68 1.22,1.06 1.81,0.31 12.14,-15.68 23.46,-31.99 33.74,-48.96 4.59,-7.57 10.55,-15.65 12.69,-24.35 0.99,-4.01 1.74,-11.24 -3.57,-12.35l0 0.01zm-68.15 32.36l0 0c-6.23,-20.44 -12.28,-43.56 -3.74,-64.28 0.39,-1.15 0.88,-2.25 1.49,-3.3 4.63,-2.05 7.2,-0.98 7.7,3.22 0.78,2.05 1.47,4.14 2.13,6.23 1.54,4.87 2.8,9.84 3.85,14.84 2.18,10.32 3.46,20.8 4.47,31.3 1.94,20.09 3.44,40.23 5.11,60.35 -9.89,-14.71 -15.87,-31.45 -21.03,-48.37l0 0.01zm69.15 -19.7l0 0c-1.15,4.1 -3.41,7.85 -5.5,11.52 -3.8,6.66 -7.77,13.24 -11.87,19.72 -8.28,13.07 -17.18,25.74 -26.6,38.02 2.29,-14.25 6.22,-28.18 11.98,-41.43 3.06,-7.06 6.62,-13.92 10.61,-20.51 3.71,-6.13 7.93,-13.06 14.68,-16.2 2.86,-1.33 5.48,-2.55 7.53,2.56 0.72,1.78 -0.36,4.67 -0.82,6.32l-0 -0.01z"></path> <g> <g> <path class="fil13" d="M565.76 474.3l0 -21.09 -12.8 -2.17c-0.66,-2.04 -1.48,-4.01 -2.44,-5.89l7.51 -10.59 -14.91 -14.91 -10.59 7.51c-1.88,-0.96 -3.85,-1.78 -5.89,-2.44l-2.17 -12.8 -10.54 0 -10.54 0 -2.17 12.8c-2.04,0.66 -4.01,1.48 -5.89,2.44l-10.59 -7.51 -14.91 14.91 7.51 10.59c-0.96,1.88 -1.78,3.85 -2.44,5.89l-12.8 2.17 0 21.09 12.8 2.17c0.66,2.04 1.48,4.01 2.44,5.89l-7.51 10.59 14.91 14.91 10.59 -7.51c1.88,0.96 3.85,1.78 5.89,2.44l2.17 12.8 10.54 0 10.54 0 2.17 -12.8c2.04,-0.66 4.01,-1.48 5.89,-2.44l10.59 7.51 14.91 -14.91 -7.51 -10.59c0.96,-1.88 1.78,-3.85 2.44,-5.89l12.8 -2.17zm-51.84 9.21l0 0c-10.91,0 -19.75,-8.84 -19.75,-19.75 0,-10.91 8.84,-19.75 19.75,-19.75 10.91,0 19.75,8.84 19.75,19.75 0,10.91 -8.84,19.75 -19.75,19.75z"></path> </g> </g> <polygon class="fil14" points="470.94,555.32 640.26,322.91 632.9,417.05 542.76,555.74 "></polygon> <g> <g> <path class="fil13" d="M510.89 362.67l0 -33.46 -20.3 -3.44c-1.05,-3.23 -2.35,-6.36 -3.87,-9.35l11.92 -16.8 -23.66 -23.66 -16.8 11.92c-2.99,-1.53 -6.11,-2.82 -9.35,-3.87l-3.44 -20.3 -16.73 0 -16.73 0 -3.44 20.3c-3.23,1.05 -6.36,2.35 -9.35,3.87l-16.8 -11.92 -23.66 23.66 11.92 16.8c-1.53,2.99 -2.82,6.11 -3.87,9.35l-20.3 3.44 0 33.46 20.3 3.44c1.05,3.23 2.35,6.36 3.87,9.35l-11.92 16.8 23.66 23.67 16.8 -11.92c2.99,1.53 6.11,2.82 9.35,3.87l3.44 20.3 16.73 0 16.73 0 3.44 -20.3c3.23,-1.05 6.36,-2.35 9.35,-3.87l16.8 11.92 23.66 -23.67 -11.92 -16.8c1.53,-2.99 2.82,-6.11 3.87,-9.35l20.3 -3.44zm-82.23 14.61l0 0c-17.31,0 -31.34,-14.03 -31.34,-31.34 0,-17.31 14.03,-31.34 31.34,-31.34 17.31,0 31.34,14.03 31.34,31.34 0,17.31 -14.03,31.34 -31.34,31.34z"></path> </g> </g> <path class="fil15" d="M303.83 528.49c-7.76,-2.43 -13.72,-4.5 -15.38,-5.23 -24.66,-10.91 -52.43,-34.54 -64.12,-58.43 -9.79,-19.99 -16.4,-67.78 -43.25,-70.14 -12.54,-1.1 -25.69,6.27 -30.57,18.47 -4.6,11.48 -1.42,24.59 3.34,36.01 5.91,14.17 14.13,27.26 22.31,40.25 12,19.07 24.69,38.82 43.97,50.49 17.64,10.68 38.82,13.37 59.3,15.81 8.92,1.06 17.86,2.14 26.78,3.2l-2.38 -30.43z"></path> <path class="fil16" d="M216.83 935.73c4.97,6.94 17.31,6.8 24.85,8.83 3.83,1.03 11.05,2.46 10.31,7.76 -0.4,2.86 -2.57,3.95 -5.15,4.65 -5.48,1.51 -11.3,0.19 -16.87,0.2 -9.3,0.02 -18.61,0.04 -27.91,0.05 -3.45,0.01 -7.15,-0.58 -9.27,-3.29 -2.9,-3.72 0.36,-14.02 2.97,-17.25 5.04,-6.25 14.2,-6.09 20.36,-1.65 0.31,0.22 0.53,0.45 0.71,0.71l0 -0z"></path> <path class="fil9" d="M220.02 936.94c-1.53,1.19 -3.02,2.41 -4.51,3.64 -0.99,0.82 0.43,2.22 1.41,1.41 1.48,-1.23 2.99,-2.45 4.51,-3.64 1.01,-0.79 -0.41,-2.19 -1.41,-1.41z"></path> <path class="fil9" d="M223.7 938.81c-1,1.07 -1.94,2.19 -2.82,3.35 -0.78,1.02 0.95,2.01 1.71,1 0.79,-1.02 1.63,-2 2.52,-2.95 0.87,-0.94 -0.53,-2.35 -1.41,-1.41l0 0.01z"></path> <path class="fil9" d="M227.73 940.02c-0.67,0.83 -1.24,1.69 -1.67,2.67 -0.52,1.16 1.2,2.17 1.71,1 0.37,-0.81 0.8,-1.58 1.37,-2.27 0.8,-0.99 -0.6,-2.4 -1.41,-1.41l0 0.01z"></path> <path class="fil17" d="M220.53 914.55c-1.29,5.96 -4.05,16.75 -5.35,22.7 -4.74,3.63 -11.12,3.8 -17.09,0.79 1.49,-10.58 2.59,-20.15 4.06,-26.18 5.91,1.23 12.36,2.08 18.37,2.68l-0 0.01z"></path> <path class="fil16" d="M84.43 930.06c1.58,11.2 12.52,13.24 21.84,15.01 3.25,0.62 12.77,1.63 12.34,6.56 -0.51,5.88 -16.72,4.88 -20.84,5.26 -1.76,0.17 -3.53,0.32 -5.28,0.23 -11,-0.51 -21.59,-9.9 -31.09,-14.83 -3.06,-1.59 -6.06,-3.82 -6.7,-7.21 -0.85,-4.65 6.8,-12.27 10.61,-13.92 7.36,-3.21 15.41,1.17 18.82,7.94 0.17,0.34 0.25,0.64 0.31,0.96l0 0z"></path> <path class="fil9" d="M86.69 932.61c-1.9,0.36 -3.8,0.74 -5.68,1.15 -1.25,0.27 -0.64,2.17 0.6,1.89 1.89,-0.41 3.79,-0.79 5.68,-1.15 1.26,-0.23 0.65,-2.13 -0.6,-1.89z"></path> <path class="fil9" d="M89.09 935.97c-1.38,0.48 -2.73,1.05 -4.05,1.66 -1.16,0.54 -0.08,2.22 1.06,1.68 1.17,-0.55 2.37,-1.02 3.59,-1.45 1.21,-0.42 0.61,-2.33 -0.6,-1.89z"></path> <path class="fil9" d="M92.1 938.91c-0.98,0.42 -1.88,0.94 -2.73,1.6 -1,0.79 0.05,2.48 1.06,1.68 0.71,-0.56 1.44,-1.03 2.26,-1.38 1.17,-0.51 0.58,-2.41 -0.6,-1.89l0 -0.01z"></path> <path class="fil17" d="M97.5 912.99c-3.9,4.67 -11.33,12.98 -15.24,17.66 -5.88,1.03 -11.62,-1.78 -15.52,-7.2 6.21,-8.68 11.62,-16.67 15.71,-21.33 4.67,3.82 10,7.57 15.05,10.88l0 -0.01z"></path> <path class="fil17" d="M322 560.67c2.81,-0.5 6.2,0.41 9.02,0.18 6.18,-0.5 17.92,-8.11 23.32,-2.98 0.69,0.66 1.28,1.58 1.15,2.53 -0.28,2.07 -9.63,4.73 -11.74,5.83 1.66,-0.86 8.57,2.58 10.29,3.01 4.35,1.07 8.96,1.5 13.24,-0.06 1.18,-0.43 2.36,-1.02 3.62,-1.04 4.34,-0.05 4.85,5.04 2.47,7.49 -2.5,2.58 -7.42,3.16 -10.79,3.65 -3.18,0.46 -6.42,0.25 -9.63,0.04 -9.48,-0.62 -28.08,0.34 -35.84,-6.05 -5.05,-4.16 -1.67,-10.49 3.86,-12.34 0.34,-0.12 0.68,-0.2 1.03,-0.26l-0 0.01z"></path> <path class="fil16" d="M211.42 634.45c-5.06,98.69 -42.25,219.57 -113.35,284.6 -12.79,0.96 -22.38,-4.5 -28.07,-9.86 14.05,-24.54 35.64,-62.51 39.63,-74.81 6.55,-20.15 6.24,-42.21 5.22,-63.81 -1.83,-38.91 -11.48,-97.37 -17.5,-136.12 34.97,0 82.89,0 114.06,0l0 0.01z"></path> <path class="fil18" d="M223.59 920.32c-7.47,-0.01 -17.91,-0.02 -26.87,-3.59 1.83,-50.82 4.63,-108.19 -21.79,-151.64 -13.71,-22.55 -33.83,-40.37 -51.09,-60.34 -17.26,-19.97 -35.52,-45.7 -32.39,-75.05 30.91,-0.35 57.31,4.73 77.49,4.76 42.41,31.8 50.79,72.74 63.15,124.28 12.38,51.54 11.77,112.6 -8.5,161.58l0 0.01z"></path> <path class="fil9" d="M158.61 365.09c-24.45,12.16 -42.58,51.59 -48.05,74.37 -15.07,62.77 -22.55,127.37 -22.22,191.94 39.9,20.02 86.33,16.86 128.84,3.22 -23.97,-105.41 18.47,-238.05 -13.11,-263.25 -17.07,-13.62 -32.52,-12.72 -45.46,-6.28l0 0.01z"></path> <path class="fil18" d="M195.31 293.87c18.52,1.46 43.89,-3.78 53.76,-21.36 4.41,-7.86 6.47,-21.84 -0.26,-28.94 -6.31,-6.66 -18.09,-7.18 -26.61,-6.72 -11.86,0.64 -24.41,2.3 -35.7,6.2 -3.92,1.36 -7.56,2.77 -10.7,5.52 -1.54,1.35 -3.53,5.97 -5.92,5.93 -3.66,-0.37 -6.89,-2.73 -10.55,-3.06 -4.99,-0.45 -9.67,3.08 -11.99,7.52 -2.32,4.44 -2.69,9.61 -2.75,14.62 -0.21,21.24 3.19,48.71 26.55,56.74 6.38,2.19 12.66,-1.9 17.24,-6.85 7.29,-7.88 8.82,-19.03 6.95,-29.59l-0.01 -0.01z"></path> <path class="fil17" d="M199.55 370.25l3.76 -22.91 38.21 -1.12 -2.68 -31 9.01 -2.37 -8.45 -40.2c-17.42,15.22 -43.27,7.04 -43.27,7.04l-6.3 20.48c-3.75,-6.89 -10.03,-17.82 -17.49,-9.2 -7.46,8.62 4.08,23.5 4.08,23.5l-16.11 51.19c0,0 21.61,22.44 39.25,4.59l0 0z"></path> <path class="fil19" d="M165.16 410.62c-12.54,-1.09 -25.69,6.27 -30.57,18.47 -4.6,11.48 -1.42,24.59 3.34,36.01 5.91,14.17 14.13,27.25 22.31,40.25 12.01,19.07 24.69,38.82 43.97,50.49 17.64,10.68 38.82,13.37 59.3,15.81 22.02,2.63 44.04,5.26 66.06,7.89 0.42,-7.51 1.2,-14.4 2.29,-24.23 -17.32,-1.9 -54.75,-14.11 -59.33,-16.14 -24.66,-10.91 -52.43,-34.54 -64.12,-58.43 -9.79,-19.99 -16.4,-67.78 -43.25,-70.14l0.01 0.01z"></path> <path class="fil20" d="M573.36 567.84c0.14,1.74 0.25,3.46 0.36,5.22 14.56,-1.74 29.13,-3.48 43.69,-5.22l-44.04 0 -0.01 0z"></path> <path class="fil21" d="M768.69 422.6c-4.88,-12.2 -18.02,-19.57 -30.57,-18.47 -26.86,2.36 -33.46,50.14 -43.25,70.14 -10.82,22.1 -35.39,43.96 -58.53,55.75l-2.81 35.9c2.08,-0.25 4.17,-0.5 6.24,-0.75 20.48,-2.45 41.65,-5.13 59.3,-15.81 19.28,-11.67 31.96,-31.42 43.97,-50.49 8.19,-13 16.41,-26.08 22.31,-40.25 4.76,-11.42 7.93,-24.53 3.34,-36.01l0.01 -0.01z"></path> <path class="fil16" d="M660.9 928.7c-7.96,3.06 -18.19,-3.85 -25.6,-6.3 -3.77,-1.24 -10.58,-4.02 -12.88,0.8 -1.24,2.6 -0.03,4.7 1.74,6.71 3.74,4.28 9.33,6.39 13.97,9.45 7.76,5.14 15.51,10.27 23.27,15.41 2.87,1.9 6.28,3.45 9.56,2.36 4.47,-1.5 7.42,-11.9 7.02,-16.04 -0.77,-8 -8.5,-12.9 -16.09,-12.59 -0.38,0.01 -0.68,0.08 -0.98,0.2l0 0z"></path> <path class="fil9" d="M657.57 927.96c0.61,1.83 1.2,3.67 1.76,5.52 0.37,1.23 -1.58,1.62 -1.95,0.4 -0.56,-1.85 -1.15,-3.69 -1.76,-5.52 -0.4,-1.21 1.55,-1.6 1.95,-0.4z"></path> <path class="fil9" d="M653.47 927.5c0.24,1.44 0.41,2.89 0.52,4.35 0.09,1.27 -1.89,1.16 -1.99,-0.11 -0.09,-1.28 -0.26,-2.57 -0.47,-3.84 -0.21,-1.26 1.74,-1.66 1.95,-0.4z"></path> <path class="fil9" d="M649.44 926.29c0.11,1.06 0.11,2.09 -0.07,3.16 -0.2,1.25 -2.19,1.16 -1.99,-0.11 0.15,-0.88 0.2,-1.76 0.12,-2.65 -0.13,-1.26 1.82,-1.67 1.95,-0.4z"></path> <path class="fil17" d="M669.48 908.98c-2.19,5.68 -5.84,16.22 -8.03,21.9 1.96,5.64 7.19,9.29 13.83,10.07 4.58,-9.65 8.93,-18.25 11.02,-24.1 -5.61,-2.23 -11.47,-5.07 -16.82,-7.87z"></path> <path class="fil16" d="M812.38 625.75c-4.13,19.52 -2.99,33.15 -8.57,52.22 -24.64,84.29 -76.02,174.24 -117.52,249.95 -9.94,-0.35 -16.98,-2.41 -25.85,-9.51 22.16,-95.65 45.67,-202.09 68.96,-297.41 25.78,0.45 57.9,-1.95 82.97,4.75l-0 0.01z"></path> <path class="fil16" d="M810.38 935.22c-4.97,6.94 -17.31,6.8 -24.85,8.83 -3.83,1.03 -11.05,2.46 -10.31,7.76 0.39,2.86 2.57,3.95 5.15,4.65 5.48,1.51 11.3,0.19 16.87,0.2 9.3,0.02 18.61,0.04 27.91,0.05 3.44,0.01 7.15,-0.58 9.27,-3.29 2.9,-3.72 -0.36,-14.02 -2.97,-17.25 -5.04,-6.25 -14.2,-6.09 -20.36,-1.65 -0.31,0.22 -0.53,0.45 -0.71,0.71l0 -0z"></path> <path class="fil9" d="M807.19 936.44c1.53,1.19 3.02,2.41 4.51,3.64 0.99,0.82 -0.43,2.22 -1.41,1.41 -1.48,-1.23 -2.99,-2.45 -4.51,-3.64 -1.01,-0.79 0.41,-2.19 1.41,-1.41z"></path> <path class="fil9" d="M803.52 938.31c1,1.07 1.94,2.19 2.82,3.35 0.78,1.02 -0.95,2.01 -1.71,1 -0.79,-1.02 -1.63,-2 -2.52,-2.95 -0.87,-0.94 0.53,-2.35 1.41,-1.41l0 0.01z"></path> <path class="fil9" d="M799.49 939.52c0.67,0.83 1.24,1.69 1.67,2.67 0.52,1.16 -1.2,2.17 -1.71,1 -0.37,-0.81 -0.8,-1.58 -1.37,-2.27 -0.8,-0.99 0.6,-2.4 1.41,-1.41l0 0.01z"></path> <path class="fil17" d="M806.69 914.04c1.3,5.96 4.05,16.75 5.35,22.7 4.74,3.63 11.12,3.8 17.09,0.79 -1.49,-10.58 -2.59,-20.15 -4.06,-26.18 -5.91,1.23 -12.36,2.08 -18.37,2.68l0 0.01z"></path> <path class="fil18" d="M814.84 629.88c1.78,94.47 8.93,199.18 20.64,292.93 -10.25,5.13 -21.19,6.94 -33.64,4.42 -25.49,-90 -54.57,-190.21 -54.49,-283.74 21.24,-3.21 46.26,-10.4 67.51,-13.61l-0.01 0z"></path> <path class="fil17" d="M597.02 560.67c-2.81,-0.5 -6.2,0.41 -9.02,0.18 -6.18,-0.5 -17.92,-8.11 -23.32,-2.98 -0.69,0.66 -1.28,1.58 -1.15,2.53 0.28,2.07 9.63,4.73 11.74,5.83 -1.66,-0.86 -8.57,2.58 -10.29,3.01 -4.34,1.07 -8.96,1.5 -13.24,-0.06 -1.18,-0.43 -2.36,-1.02 -3.62,-1.04 -4.34,-0.05 -4.85,5.04 -2.47,7.49 2.5,2.58 7.42,3.16 10.79,3.65 3.18,0.46 6.42,0.25 9.63,0.04 9.48,-0.62 28.08,0.34 35.84,-6.05 5.05,-4.16 1.67,-10.49 -3.86,-12.34 -0.34,-0.12 -0.68,-0.2 -1.03,-0.26l0 0.01z"></path> <path class="fil22" d="M760.4 365.09c24.45,12.16 42.58,51.59 48.05,74.37 15.07,62.77 22.55,127.37 22.22,191.94 -39.9,20.02 -86.33,16.86 -128.84,3.22 23.97,-105.41 -18.47,-238.05 13.11,-263.25 17.07,-13.62 32.52,-12.72 45.46,-6.28l0 0.01z"></path> <path class="fil18" d="M723.71 293.88c-0.23,1.29 -79.52,-7.05 -58.6,-45.83 4.44,-8.24 14.2,-13.26 23.48,-12.09 10.42,1.32 18.55,9.27 27.71,14.45 17.72,10.02 57.85,-7.41 58.14,23.19 0.21,21.24 -3.19,48.71 -26.55,56.74 -6.38,2.19 -12.66,-1.9 -17.24,-6.85 -7.29,-7.88 -8.82,-19.03 -6.95,-29.59l0.01 -0.02z"></path> <path class="fil17" d="M719.47 370.25l-3.76 -22.91 -38.21 -1.12 2.68 -31 -9.01 -2.37 8.45 -40.2c17.41,15.22 43.27,7.04 43.27,7.04l6.3 20.48c3.75,-6.89 10.03,-17.82 17.49,-9.2 7.46,8.62 -4.08,23.5 -4.08,23.5l16.11 51.19c0,0 -21.61,22.44 -39.25,4.59l-0 0z"></path> <path class="fil23" d="M753.86 410.62c12.54,-1.09 25.69,6.27 30.57,18.47 4.6,11.48 1.42,24.59 -3.34,36.01 -5.91,14.17 -14.13,27.25 -22.31,40.25 -12,19.07 -24.69,38.82 -43.97,50.49 -17.64,10.68 -38.82,13.37 -59.3,15.81 -22.02,2.63 -44.04,5.26 -66.06,7.89 -0.42,-7.51 -1.2,-14.4 -2.29,-24.23 17.32,-1.9 54.75,-14.11 59.33,-16.14 24.66,-10.91 52.43,-34.54 64.12,-58.43 9.79,-19.99 16.4,-67.78 43.25,-70.14l-0.01 0.01z"></path> <path class="fil18" d="M680.42 315.49c4.54,-2.21 10.23,-1.84 14.45,0.94 2.4,1.58 4.29,3.85 6.77,5.31 6.35,3.75 15.12,0.93 19.6,-4.93 4.47,-5.85 2.92,-29.84 1.67,-37.11 2.87,0 9.02,0 11.89,0 0.89,8.11 0.01,30.87 0,39.03 -0.01,7.53 -0.51,15.44 -4.43,21.87 -5.95,9.73 -18.11,13.59 -29.42,15.02 -7.52,0.96 -15.82,0.98 -21.9,-3.56 -5.32,-3.98 -7.91,-11.01 -7.29,-17.62 0.62,-6.62 2.72,-16.05 8.68,-18.95l-0.01 -0.01z"></path> <polygon class="fil14" points="648,223.85 425.54,555.45 318.31,555.45 293.87,242.31 "></polygon> <path class="fil8" d="M454.68 219.88l15.02 350.81c0.06,1.46 2.44,1.46 2.38,0l-15.02 -350.81c-0.06,-1.46 -2.44,-1.46 -2.38,0z"></path> <path class="fil8" d="M459.94 219.69l4.49 351.1c0.02,1.46 2.4,1.54 2.38,0.07l-4.49 -351.1c-0.02,-1.46 -2.4,-1.54 -2.38,-0.07z"></path> <path class="fil8" d="M652.68 400.78l-357.25 4.28c-1.48,0.02 -1.56,2.4 -0.07,2.38l357.25 -4.28c1.48,-0.02 1.56,-2.4 0.07,-2.38z"></path> <path class="fil8" d="M650.57 395.57l-356.98 14.69c-1.48,0.06 -1.49,2.44 0,2.38l356.98 -14.69c1.48,-0.06 1.49,-2.44 0,-2.38z"></path> </g> </g> </g> </svg> 