<?xml version="1.0" encoding="UTF-8"?> <!-- Creator: CorelDRAW 2021.5 --> <svg xmlns="http://www.w3.org/2000/svg" xmlns:xlink="http://www.w3.org/1999/xlink" xmlns:xodm="http://www.corel.com/coreldraw/odm/2003" xml:space="preserve" width="27.7616mm" height="20.4454mm" style="shape-rendering:geometricPrecision; text-rendering:geometricPrecision; image-rendering:optimizeQuality; fill-rule:evenodd; clip-rule:evenodd" viewBox="0 0 23.98 17.66"> <defs> <style type="text/css"> <![CDATA[ .fil0 {fill:url(#id2);fill-rule:nonzero} ]]> </style> <mask id="id0"> <linearGradient id="id1" gradientUnits="userSpaceOnUse" x1="23.11" y1="12.52" x2="0.87" y2="5.14"> <stop offset="0" style="stop-opacity:0.101961; stop-color:white"></stop> <stop offset="1" style="stop-opacity:0.501961; stop-color:white"></stop> </linearGradient> <rect style="fill:url(#id1)" width="23.98" height="17.66"></rect> </mask> <linearGradient id="id2" gradientUnits="userSpaceOnUse" x1="-0" y1="8.83" x2="23.98" y2="8.83"> <stop offset="0" style="stop-opacity:1; stop-color:#F5C02D"></stop> <stop offset="0.34902" style="stop-opacity:1; stop-color:#F2D239"></stop> <stop offset="1" style="stop-opacity:1; stop-color:#EEE545"></stop> </linearGradient> </defs> <g id="Слой_x0020_1"> <metadata id="CorelCorpID_0Corel-Layer"></metadata> <path class="fil0" style="mask:url(#id0)" d="M8.61 7.31l2.16 -7.31 -6.06 0 -3.03 6.45c-1.51,3.25 -1.69,4.28 -1.69,5.67 0,3.38 2.42,5.54 5.71,5.54 3.29,0 5.71,-2.16 5.71,-5.54 0,-2.29 -1.08,-3.98 -2.81,-4.8zm12.55 0l2.16 -7.31 -6.06 0 -3.03 6.45c-1.51,3.25 -1.69,4.28 -1.69,5.67 0,3.38 2.42,5.54 5.71,5.54 3.29,0 5.71,-2.16 5.71,-5.54 0,-2.29 -1.08,-3.98 -2.81,-4.8z"></path> </g> </svg> 