<?xml version="1.0" encoding="UTF-8"?> <!-- Creator: CorelDRAW 2020 (64-Bit) --> <svg xmlns="http://www.w3.org/2000/svg" xmlns:xlink="http://www.w3.org/1999/xlink" xmlns:xodm="http://www.corel.com/coreldraw/odm/2003" xml:space="preserve" width="309.033mm" height="309.033mm" style="shape-rendering:geometricPrecision; text-rendering:geometricPrecision; image-rendering:optimizeQuality; fill-rule:evenodd; clip-rule:evenodd" viewBox="0 0 23622.43 23622.43"> <defs> <style type="text/css"> <![CDATA[ .fil0 {fill:#4D4D4D} .fil1 {fill:white;fill-rule:nonzero} ]]> </style> </defs> <g id="Слой_x0020_1"> <metadata id="CorelCorpID_0Corel-Layer"></metadata> <circle class="fil0" cx="11811.22" cy="11811.22" r="11811.22"></circle> <g id="_1836509558720"> <g> <g> <path class="fil1" d="M5475.41 8722.34c-302.24,0 -558.69,105.4 -769.5,316.2 -210.8,210.8 -316.23,463.76 -316.23,758.99l0 4533.04c0,302.63 105.4,558.86 316.23,769.69 210.81,210.81 467.25,316.24 769.5,316.24 302.03,0 556.92,-105.4 764.45,-316.24 207.12,-210.8 310.97,-467.05 310.97,-769.69l0 -4533.04c0,-295.27 -105.4,-548.2 -316.24,-758.99 -210.83,-210.81 -463.95,-316.2 -759.18,-316.2z"></path> <path class="fil1" d="M14204.33 4653.01l748.49 -1380.77c49.13,-91.41 31.66,-161.52 -52.59,-210.8 -91.45,-42.5 -161.7,-20.97 -210.81,63.09l-758.97 1391.82c-667.83,-295.27 -1374.17,-443.18 -2119.03,-443.18 -745.01,0 -1451.42,147.93 -2119,443.18l-758.99 -1391.82c-49.32,-84.05 -119.58,-105.4 -210.8,-63.09 -84.44,49.51 -101.91,119.39 -52.59,210.8l748.53 1380.77c-758.99,387.07 -1363.49,926.12 -1813.26,1618.35 -449.77,692.61 -674.76,1449.48 -674.76,2271.95l9751.16 0c0,-822.28 -225.02,-1579.18 -674.75,-2271.95 -449.81,-692.23 -1050.81,-1231.28 -1802.63,-1618.35zm-4327.48 2008.36c-80.94,81.14 -177.63,121.52 -290,121.52 -112.6,0 -207.31,-40.38 -284.58,-121.52 -77.26,-80.75 -115.9,-177.05 -115.9,-289.81 0,-112.37 38.64,-208.86 115.9,-289.81 77.27,-80.75 172.2,-121.13 284.58,-121.13 112.37,0 209.06,40.38 290,121.13 80.75,81.14 121.32,177.44 121.32,289.81 -0.21,112.57 -40.76,209.06 -121.32,289.81zm4443.34 0c-77.42,81.14 -172.35,121.52 -284.55,121.52 -112.63,0 -209.28,-40.38 -290.07,-121.52 -80.92,-80.75 -121.29,-177.05 -121.29,-289.81 0,-112.37 40.38,-208.86 121.29,-289.81 80.79,-80.75 177.43,-121.13 290.07,-121.13 112.37,0 207.09,40.38 284.55,121.13 77.33,81.14 115.91,177.44 115.91,289.81 0,112.57 -38.6,209.06 -115.91,289.81z"></path> <path class="fil1" d="M6972.43 15943.5c0,323.6 112.38,597.51 337.17,822.3 224.99,224.79 498.9,337.17 822.29,337.17l780.15 0.02 10.69 2393.3c0,302.23 105.4,558.86 316.19,769.69 210.81,210.84 463.96,316.24 759,316.24 302.05,0 558.66,-105.4 769.49,-316.24 210.84,-210.83 316.24,-467.44 316.24,-769.69l0 -2393.07 1454.74 -0.02 0 2393.08c0,302.22 105.36,558.85 316.2,769.69 210.84,210.84 467.22,316.23 769.5,316.23 302.05,0 558.66,-105.4 769.49,-316.23 210.84,-210.84 316.2,-467.44 316.2,-769.69l0 -2393.08 790.69 0c316.2,0 586.61,-112.41 811.81,-337.2 224.75,-224.79 337.2,-498.71 337.2,-822.29l0.02 -7021.27 -9677.06 0 0 7021.06z"></path> <path class="fil1" d="M18147.05 8722.34c-295.26,0 -548.19,103.84 -759.02,310.97 -210.81,207.5 -316.2,462.39 -316.2,764.23l0 4533.05c0,302.63 105.36,558.85 316.2,769.69 210.84,210.84 463.95,316.24 759.02,316.24 302.06,0 558.66,-105.4 769.5,-316.24 210.84,-210.84 316.2,-467.05 316.2,-769.69l0 -4533.05c0,-301.87 -105.36,-556.73 -316.2,-764.24 -210.84,-207.12 -467.44,-310.96 -769.5,-310.96z"></path> </g> </g> <g> </g> <g> </g> <g> </g> <g> </g> <g> </g> <g> </g> <g> </g> <g> </g> <g> </g> <g> </g> <g> </g> <g> </g> <g> </g> <g> </g> <g> </g> </g> </g> </svg> 