<?xml version="1.0" encoding="UTF-8"?> <!-- Creator: CorelDRAW 2021.5 --> <svg xmlns="http://www.w3.org/2000/svg" xmlns:xlink="http://www.w3.org/1999/xlink" xmlns:xodm="http://www.corel.com/coreldraw/odm/2003" xml:space="preserve" width="34.8188mm" height="34.8188mm" style="shape-rendering:geometricPrecision; text-rendering:geometricPrecision; image-rendering:optimizeQuality; fill-rule:evenodd; clip-rule:evenodd" viewBox="0 0 19 19"> <defs> <style type="text/css"> <![CDATA[ .fil0 {fill:url(#id0);fill-rule:nonzero} .fil1 {fill:url(#id1);fill-rule:nonzero} ]]> </style> <linearGradient id="id0" gradientUnits="userSpaceOnUse" x1="14.6" y1="-1.65" x2="4.73" y2="18.07"> <stop offset="0" style="stop-opacity:1; stop-color:#4A85D3"></stop> <stop offset="1" style="stop-opacity:1; stop-color:#1F0046"></stop> </linearGradient> <linearGradient id="id1" gradientUnits="userSpaceOnUse" xlink:href="#id0" x1="18.67" y1="-10.18" x2="0.92" y2="24.63"> </linearGradient> </defs> <g id="Слой_x0020_1"> <metadata id="CorelCorpID_0Corel-Layer"></metadata> <path class="fil0" d="M14.49 13.19l-3.19 -3.11c0.4,-0.61 0.63,-1.33 0.63,-2.11 0,-2.13 -1.73,-3.85 -3.85,-3.85 -2.13,0 -3.85,1.73 -3.85,3.85 0,2.13 1.73,3.85 3.85,3.85 0.63,0 1.23,-0.16 1.75,-0.42l3.29 3.2c0.19,0.19 0.44,0.28 0.69,0.28 0.26,0 0.51,-0.1 0.71,-0.3 0.38,-0.39 0.37,-1.01 -0.02,-1.39zm-4.45 -3.64c-0.18,0.22 -0.39,0.41 -0.63,0.56 -0.39,0.24 -0.84,0.38 -1.33,0.38 -1.39,0 -2.53,-1.13 -2.53,-2.53 0,-1.39 1.13,-2.53 2.53,-2.53 1.39,0 2.53,1.13 2.53,2.53 0,0.6 -0.21,1.15 -0.56,1.58z"></path> <path class="fil1" d="M9.5 0c2.62,0 5,1.06 6.72,2.78 1.72,1.72 2.78,4.09 2.78,6.72 0,2.62 -1.06,5 -2.78,6.72 -1.72,1.72 -4.09,2.78 -6.72,2.78 -2.62,0 -5,-1.06 -6.72,-2.78 -1.72,-1.72 -2.78,-4.09 -2.78,-6.72 0,-2.62 1.06,-5 2.78,-6.72 1.72,-1.72 4.09,-2.78 6.72,-2.78zm5.9 3.6c-1.51,-1.51 -3.6,-2.44 -5.9,-2.44 -2.3,0 -4.39,0.93 -5.9,2.44 -1.51,1.51 -2.44,3.6 -2.44,5.9 0,2.3 0.93,4.39 2.44,5.9 1.51,1.51 3.6,2.44 5.9,2.44 2.3,0 4.39,-0.93 5.9,-2.44 1.51,-1.51 2.44,-3.6 2.44,-5.9 0,-2.3 -0.93,-4.39 -2.44,-5.9z"></path> </g> </svg> 