<?xml version="1.0" encoding="UTF-8"?> <!-- Creator: CorelDRAW 2020 (64-Bit) --> <svg xmlns="http://www.w3.org/2000/svg" xmlns:xlink="http://www.w3.org/1999/xlink" xmlns:xodm="http://www.corel.com/coreldraw/odm/2003" xml:space="preserve" width="140.335mm" height="216.63mm" style="shape-rendering:geometricPrecision; text-rendering:geometricPrecision; image-rendering:optimizeQuality; fill-rule:evenodd; clip-rule:evenodd" viewBox="0 0 813.72 1256.11"> <defs> <style type="text/css"> <![CDATA[ .fil0 {fill:#8EAF0C} ]]> </style> </defs> <g id="Слой_x0020_1"> <metadata id="CorelCorpID_0Corel-Layer"></metadata> <path class="fil0" d="M531.74 231.93c45.58,-53.76 112.71,-30.78 191.86,-83.34 80.8,-53.66 105.27,-115.64 81.39,-138.13 -18.26,-17.2 -68.26,-20.02 -145.8,45.65 -50.99,43.19 -89.65,96.88 -114.06,139.54 -34,46.75 -61.09,94.36 -83.73,142.8 5.7,-45.77 5.34,-105.17 -1.28,-157.31 -12.78,-100.8 -44.09,-136.29 -76.63,-132.17 -32.54,4.13 -58.53,67.57 -41.22,147.11 18.86,86.68 104.29,137.47 97.04,193.17 -31.17,77.05 -53.4,156.15 -76.18,237.19 -0.61,2.16 -1.21,4.32 -1.82,6.48 -1.37,-48.35 -18.03,-121.12 -41.18,-181.11 -36.58,-94.79 -75.48,-121.75 -106.09,-109.94 -30.61,11.81 -40.62,79.63 -4.74,152.7 43.22,88.03 154.91,113.98 139.39,182.93 -0.73,2.55 -1.46,5.09 -2.19,7.64 -20.07,69.78 -42.01,140.47 -71.64,212.36 3.32,-46.62 -14.6,-131.19 -40.87,-199.27 -36.58,-94.79 -75.48,-121.75 -106.09,-109.94 -30.6,11.81 -40.61,79.63 -4.74,152.7 44.59,90.83 162.09,115.57 137.51,189.66 -27.9,62.79 -62.29,126.51 -106.95,191.37 9.57,-43.93 -1.7,-135.41 -23.7,-209.3 -29,-97.38 -65.66,-127.31 -97.1,-117.95 -31.44,9.36 -46.76,76.19 -16.75,151.85 36.33,91.6 146.52,126.16 124.24,194.33 -25.37,35.35 -53.89,71.05 -86.16,107.11 -1.77,1.98 -1.6,5.02 0.38,6.79 0.3,0.27 0.62,0.49 0.96,0.67 1.91,1.01 4.33,0.63 5.83,-1.05 73.04,-81.61 126.96,-161.28 168.75,-239.37 38.41,-57.43 134.94,2.04 227.03,-29.38 77.04,-26.29 117.93,-81.31 104.65,-111.31 -13.28,-30 -59.85,-38.45 -152.75,2.69 -60.66,26.87 -126.08,68.24 -160.48,102.07 33.32,-67.65 58.25,-134.16 79.4,-199.77 26.36,-63.43 132.61,-24.83 216.34,-74.01 70.19,-41.23 99.19,-103.35 80.15,-130.07 -19.04,-26.71 -66.36,-25.64 -149.1,33.33 -52.44,37.38 -106.53,89.05 -134.26,128.68 11.01,-36.36 21.16,-72.45 31.24,-108.32 9.56,-33.99 19.02,-67.64 29.08,-100.94 26.82,-62.52 132.62,-24.34 216.06,-73.36 70.19,-41.23 99.19,-103.35 80.15,-130.07 -19.04,-26.71 -66.36,-25.64 -149.1,33.33 -52.34,37.3 -106.31,88.84 -134.09,128.44 9.34,-28.8 19.37,-57.32 30.55,-85.56 2.93,-5.15 5.55,-11.68 7.85,-19.32 21.22,-50.83 46.57,-100.72 78.82,-149.65z"></path> </g> </svg> 