<?xml version="1.0" encoding="UTF-8"?> <!-- Creator: CorelDRAW 2018 (64-Bit) --> <svg xmlns="http://www.w3.org/2000/svg" xmlns:xlink="http://www.w3.org/1999/xlink" xml:space="preserve" width="46.2596mm" height="46.2593mm" style="shape-rendering:geometricPrecision; text-rendering:geometricPrecision; image-rendering:optimizeQuality; fill-rule:evenodd; clip-rule:evenodd" viewBox="0 0 123.15 123.14"> <defs> <style type="text/css"> <![CDATA[ .fil1 {fill:#334357;fill-rule:nonzero} .fil0 {fill:#3C5876;fill-rule:nonzero} ]]> </style> </defs> <g id="Слой_x0020_1"> <metadata id="CorelCorpID_0Corel-Layer"></metadata> <g id="_1448013856"> <path class="fil0" d="M109.74 26.61l-7.7 3.18c-1.74,0.72 -3.73,0.25 -5.01,-1.14 -0.78,-0.84 -1.59,-1.66 -2.43,-2.44 -1.38,-1.29 -1.85,-3.28 -1.12,-5.02l3.2 -7.69c0.95,-2.28 -0.13,-4.89 -2.41,-5.83l-17.52 -7.28c-2.28,-0.95 -4.89,0.13 -5.83,2.41l-3.2 7.69c-0.72,1.74 -2.47,2.81 -4.35,2.74 -1.14,-0.04 -2.29,-0.04 -3.44,-0 -1.89,0.07 -3.62,-1.01 -4.34,-2.75l-3.18 -7.7c-0.94,-2.28 -3.55,-3.36 -5.83,-2.42l-17.54 7.24c-2.28,0.94 -3.36,3.55 -2.42,5.83l3.18 7.7c0.72,1.74 0.24,3.73 -1.14,5.01 -0.84,0.78 -1.66,1.59 -2.44,2.43 -1.29,1.38 -3.28,1.85 -5.02,1.12l-7.69 -3.2c-2.28,-0.95 -4.89,0.13 -5.83,2.41l-7.28 17.52c-0.95,2.28 0.13,4.89 2.41,5.83l7.69 3.2c1.74,0.72 2.81,2.47 2.74,4.35 -0.04,1.14 -0.04,2.29 -0,3.44 0.07,1.89 -1.01,3.62 -2.75,4.34l-7.7 3.18c-2.28,0.94 -3.36,3.55 -2.42,5.83l7.24 17.54c0.94,2.28 3.55,3.36 5.83,2.42l7.7 -3.18c1.74,-0.72 3.73,-0.24 5.01,1.14 0.78,0.84 1.59,1.66 2.43,2.44 1.38,1.29 1.85,3.28 1.12,5.02l-3.2 7.69c-0.95,2.28 0.13,4.89 2.41,5.83l17.52 7.28c2.28,0.95 4.89,-0.13 5.83,-2.41l3.2 -7.69c0.72,-1.74 2.47,-2.81 4.35,-2.74 1.14,0.04 2.29,0.04 3.44,0 1.89,-0.07 3.62,1.01 4.34,2.75l3.18 7.7c0.94,2.28 3.55,3.36 5.83,2.42l17.54 -7.24c2.28,-0.94 3.36,-3.55 2.42,-5.83l-3.18 -7.7c-0.72,-1.74 -0.24,-3.73 1.14,-5.01 0.84,-0.78 1.66,-1.59 2.44,-2.43 1.29,-1.38 3.28,-1.85 5.02,-1.12l7.69 3.2c2.28,0.95 4.89,-0.13 5.83,-2.41l7.28 -17.52c0.95,-2.28 -0.13,-4.89 -2.41,-5.83l-7.69 -3.2c-1.74,-0.72 -2.81,-2.47 -2.74,-4.35 0.04,-1.14 0.04,-2.29 0,-3.44 -0.07,-1.89 1.01,-3.62 2.75,-4.34l7.7 -3.18c2.28,-0.94 3.36,-3.55 2.42,-5.83l-7.24 -17.54c-0.94,-2.28 -3.55,-3.36 -5.83,-2.42zm-40.78 52.89l0 0c-9.9,4.08 -21.23,-0.63 -25.32,-10.53 -4.08,-9.9 0.63,-21.23 10.53,-25.32 9.9,-4.08 21.23,0.63 25.32,10.53 4.08,9.9 -0.63,21.23 -10.53,25.32z"></path> <path class="fil1" d="M44.59 20.42c-22.73,9.38 -33.55,35.4 -24.17,58.13 9.38,22.73 35.4,33.55 58.13,24.17 22.73,-9.38 33.55,-35.4 24.17,-58.13 -9.38,-22.73 -35.4,-33.55 -58.13,-24.17zm26.58 64.42l0 0c-12.85,5.3 -27.56,-0.82 -32.86,-13.67 -5.3,-12.85 0.82,-27.56 13.66,-32.86 12.85,-5.3 27.56,0.82 32.86,13.67 5.3,12.85 -0.82,27.56 -13.66,32.86z"></path> </g> </g> </svg> 