<?xml version="1.0" encoding="UTF-8"?> <!-- Creator: CorelDRAW 2021.5 --> <svg xmlns="http://www.w3.org/2000/svg" xmlns:xlink="http://www.w3.org/1999/xlink" xmlns:xodm="http://www.corel.com/coreldraw/odm/2003" xml:space="preserve" width="104.338mm" height="107.736mm" style="shape-rendering:geometricPrecision; text-rendering:geometricPrecision; image-rendering:optimizeQuality; fill-rule:evenodd; clip-rule:evenodd" viewBox="0 0 218.29 225.39"> <defs> <style type="text/css"> <![CDATA[ .fil0 {fill:url(#id0);fill-rule:nonzero} .fil22 {fill:url(#id1);fill-rule:nonzero} .fil12 {fill:url(#id2);fill-rule:nonzero} .fil11 {fill:url(#id3);fill-rule:nonzero} .fil23 {fill:url(#id4);fill-rule:nonzero} .fil13 {fill:url(#id5);fill-rule:nonzero} .fil7 {fill:url(#id6);fill-rule:nonzero} .fil2 {fill:url(#id7);fill-rule:nonzero} .fil9 {fill:url(#id8);fill-rule:nonzero} .fil3 {fill:url(#id9);fill-rule:nonzero} .fil14 {fill:url(#id10);fill-rule:nonzero} .fil26 {fill:url(#id11);fill-rule:nonzero} .fil24 {fill:url(#id12);fill-rule:nonzero} .fil15 {fill:url(#id13);fill-rule:nonzero} .fil21 {fill:url(#id14);fill-rule:nonzero} .fil25 {fill:url(#id15);fill-rule:nonzero} .fil20 {fill:url(#id16);fill-rule:nonzero} .fil17 {fill:url(#id17);fill-rule:nonzero} .fil18 {fill:url(#id18);fill-rule:nonzero} .fil1 {fill:url(#id19);fill-rule:nonzero} .fil5 {fill:url(#id20);fill-rule:nonzero} .fil6 {fill:url(#id21);fill-rule:nonzero} .fil4 {fill:url(#id22);fill-rule:nonzero} .fil19 {fill:url(#id23);fill-rule:nonzero} .fil16 {fill:url(#id24);fill-rule:nonzero} .fil8 {fill:url(#id25);fill-rule:nonzero} .fil10 {fill:url(#id26);fill-rule:nonzero} ]]> </style> <linearGradient id="id0" gradientUnits="userSpaceOnUse" x1="178.43" y1="78.35" x2="197.99" y2="78.35"> <stop offset="0" style="stop-opacity:1; stop-color:#F5C02D"></stop> <stop offset="0.34902" style="stop-opacity:1; stop-color:#F2D239"></stop> <stop offset="1" style="stop-opacity:1; stop-color:#EEE545"></stop> </linearGradient> <linearGradient id="id1" gradientUnits="objectBoundingBox" xlink:href="#id0" x1="0%" y1="50.0009%" x2="99.9998%" y2="50.0009%"> </linearGradient> <linearGradient id="id2" gradientUnits="objectBoundingBox" xlink:href="#id0" x1="0%" y1="50.0009%" x2="99.9998%" y2="50.0009%"> </linearGradient> <linearGradient id="id3" gradientUnits="objectBoundingBox" xlink:href="#id0" x1="0%" y1="50.0009%" x2="99.9998%" y2="50.0009%"> </linearGradient> <linearGradient id="id4" gradientUnits="objectBoundingBox" xlink:href="#id0" x1="0%" y1="50.0009%" x2="99.9998%" y2="50.0009%"> </linearGradient> <linearGradient id="id5" gradientUnits="objectBoundingBox" xlink:href="#id0" x1="0%" y1="50.0009%" x2="99.9998%" y2="50.0009%"> </linearGradient> <linearGradient id="id6" gradientUnits="objectBoundingBox" xlink:href="#id0" x1="0.000360328%" y1="49.9997%" x2="99.9998%" y2="49.9997%"> </linearGradient> <linearGradient id="id7" gradientUnits="objectBoundingBox" xlink:href="#id0" x1="0%" y1="49.9999%" x2="99.9998%" y2="49.9999%"> </linearGradient> <linearGradient id="id8" gradientUnits="userSpaceOnUse" xlink:href="#id0" x1="53.24" y1="200.43" x2="61.73" y2="200.43"> </linearGradient> <linearGradient id="id9" gradientUnits="userSpaceOnUse" xlink:href="#id0" x1="189.8" y1="139.21" x2="201.84" y2="139.21"> </linearGradient> <linearGradient id="id10" gradientUnits="objectBoundingBox" x1="98.2671%" y1="0%" x2="4.8215%" y2="129.659%"> <stop offset="0" style="stop-opacity:1; stop-color:#4A85D3"></stop> <stop offset="1" style="stop-opacity:1; stop-color:#1F0046"></stop> </linearGradient> <linearGradient id="id11" gradientUnits="userSpaceOnUse" xlink:href="#id10" x1="150.7" y1="9.85" x2="147.37" y2="16.39"> </linearGradient> <linearGradient id="id12" gradientUnits="objectBoundingBox" xlink:href="#id10" x1="98.2671%" y1="0%" x2="4.8215%" y2="129.659%"> </linearGradient> <linearGradient id="id13" gradientUnits="objectBoundingBox" xlink:href="#id10" x1="98.2671%" y1="0%" x2="4.8215%" y2="129.659%"> </linearGradient> <linearGradient id="id14" gradientUnits="objectBoundingBox" xlink:href="#id10" x1="98.2671%" y1="0%" x2="4.8215%" y2="129.659%"> </linearGradient> <linearGradient id="id15" gradientUnits="userSpaceOnUse" xlink:href="#id10" x1="111.9" y1="8.82" x2="108.56" y2="15.36"> </linearGradient> <linearGradient id="id16" gradientUnits="userSpaceOnUse" xlink:href="#id10" x1="104.92" y1="205.03" x2="100.16" y2="214.36"> </linearGradient> <linearGradient id="id17" gradientUnits="userSpaceOnUse" xlink:href="#id10" x1="27.86" y1="61.93" x2="23.11" y2="71.26"> </linearGradient> <linearGradient id="id18" gradientUnits="userSpaceOnUse" xlink:href="#id10" x1="22.51" y1="103.28" x2="17.75" y2="112.61"> </linearGradient> <linearGradient id="id19" gradientUnits="userSpaceOnUse" xlink:href="#id10" x1="42.68" y1="153.83" x2="24.4" y2="189.66"> </linearGradient> <linearGradient id="id20" gradientUnits="objectBoundingBox" xlink:href="#id10" x1="98.2672%" y1="0%" x2="4.82333%" y2="129.656%"> </linearGradient> <linearGradient id="id21" gradientUnits="userSpaceOnUse" xlink:href="#id10" x1="14.73" y1="80.21" x2="4.58" y2="100.11"> </linearGradient> <linearGradient id="id22" gradientUnits="objectBoundingBox" xlink:href="#id10" x1="98.2672%" y1="0%" x2="4.82333%" y2="129.656%"> </linearGradient> <linearGradient id="id23" gradientUnits="objectBoundingBox" xlink:href="#id10" x1="98.2671%" y1="0%" x2="4.8215%" y2="129.659%"> </linearGradient> <linearGradient id="id24" gradientUnits="userSpaceOnUse" xlink:href="#id10" x1="76.06" y1="40.51" x2="71.3" y2="49.84"> </linearGradient> <linearGradient id="id25" gradientUnits="userSpaceOnUse" xlink:href="#id10" x1="137.91" y1="182.59" x2="129.97" y2="198.15"> </linearGradient> <linearGradient id="id26" gradientUnits="userSpaceOnUse" xlink:href="#id10" x1="163.09" y1="50" x2="155.15" y2="65.57"> </linearGradient> </defs> <g id="Слой_x0020_1"> <metadata id="CorelCorpID_0Corel-Layer"></metadata> <circle class="fil0" cx="188.21" cy="78.35" r="9.78"></circle> <circle class="fil1" cx="33.24" cy="174.08" r="9.78"></circle> <circle class="fil2" cx="44.11" cy="57.62" r="5.43"></circle> <circle class="fil3" cx="195.82" cy="139.21" r="6.02"></circle> <circle class="fil4" cx="137.35" cy="32.44" r="5.43"></circle> <circle class="fil4" cx="87.39" cy="196.89" r="5.43"></circle> <circle class="fil5" cx="160.17" cy="192.96" r="5.43"></circle> <circle class="fil5" cx="207.77" cy="107.59" r="5.43"></circle> <circle class="fil5" cx="88.96" cy="26.54" r="5.43"></circle> <circle class="fil6" cx="9.49" cy="91.46" r="5.43"></circle> <circle class="fil2" cx="27.59" cy="129.62" r="5.43"></circle> <circle class="fil7" cx="32.7" cy="85.95" r="4.25"></circle> <circle class="fil7" cx="174.33" cy="165.81" r="4.25"></circle> <circle class="fil8" cx="133.81" cy="191.39" r="4.25"></circle> <circle class="fil7" cx="118.86" cy="208.3" r="4.25"></circle> <circle class="fil9" cx="57.49" cy="200.43" r="4.25"></circle> <circle class="fil10" cx="158.99" cy="58.8" r="4.25"></circle> <circle class="fil7" cx="166.86" cy="26.94" r="4.25"></circle> <circle class="fil11" cx="189.28" cy="44.25" r="1.79"></circle> <circle class="fil12" cx="213.13" cy="87.44" r="2.55"></circle> <circle class="fil13" cx="216.5" cy="133.32" r="1.79"></circle> <circle class="fil14" cx="191.76" cy="100.03" r="1.79"></circle> <circle class="fil15" cx="210.43" cy="71.69" r="1.79"></circle> <circle class="fil12" cx="180.4" cy="54.12" r="2.55"></circle> <circle class="fil12" cx="119.41" cy="25.85" r="2.55"></circle> <circle class="fil12" cx="104.54" cy="36.86" r="2.55"></circle> <circle class="fil16" cx="73.6" cy="45.79" r="2.55"></circle> <circle class="fil12" cx="54.86" cy="36.27" r="2.55"></circle> <circle class="fil12" cx="69.73" cy="18.12" r="2.55"></circle> <circle class="fil17" cx="25.41" cy="67.21" r="2.55"></circle> <circle class="fil18" cx="20.05" cy="108.56" r="2.55"></circle> <circle class="fil19" cx="18.56" cy="152.59" r="2.55"></circle> <circle class="fil12" cx="54.86" cy="180.85" r="2.55"></circle> <circle class="fil20" cx="102.46" cy="210.3" r="2.55"></circle> <circle class="fil11" cx="112.29" cy="196.33" r="2.55"></circle> <circle class="fil12" cx="144.11" cy="210.56" r="2.55"></circle> <circle class="fil12" cx="158.08" cy="174.86" r="2.55"></circle> <circle class="fil12" cx="182.65" cy="187.8" r="2.55"></circle> <circle class="fil19" cx="194.81" cy="164.51" r="2.55"></circle> <circle class="fil21" cx="196.84" cy="182.48" r="1.79"></circle> <circle class="fil22" cx="210.29" cy="171.61" r="1.79"></circle> <circle class="fil14" cx="200.2" cy="122.46" r="1.79"></circle> <circle class="fil15" cx="177.44" cy="208.6" r="1.79"></circle> <circle class="fil23" cx="158.55" cy="211.19" r="1.79"></circle> <circle class="fil24" cx="129.32" cy="223.61" r="1.79"></circle> <circle class="fil23" cx="85.08" cy="216.88" r="1.79"></circle> <circle class="fil24" cx="72.67" cy="210.16" r="1.79"></circle> <circle class="fil15" cx="37.48" cy="195.41" r="1.79"></circle> <circle class="fil13" cx="13.68" cy="166.18" r="1.79"></circle> <circle class="fil13" cx="30.5" cy="154.28" r="1.79"></circle> <circle class="fil22" cx="1.78" cy="134.1" r="1.79"></circle> <circle class="fil13" cx="13.17" cy="119.87" r="1.79"></circle> <circle class="fil23" cx="6.18" cy="68.91" r="1.79"></circle> <circle class="fil21" cx="29.47" cy="44.85" r="1.79"></circle> <circle class="fil15" cx="59.47" cy="52.09" r="1.79"></circle> <circle class="fil23" cx="71.11" cy="30.11" r="1.79"></circle> <circle class="fil25" cx="110.18" cy="12.51" r="1.79"></circle> <circle class="fil26" cx="148.98" cy="13.55" r="1.79"></circle> <circle class="fil23" cx="129.98" cy="1.79" r="1.79"></circle> </g> </svg> 