<?xml version="1.0" encoding="UTF-8"?> <!-- Creator: CorelDRAW 2021.5 --> <svg xmlns="http://www.w3.org/2000/svg" xmlns:xlink="http://www.w3.org/1999/xlink" xmlns:xodm="http://www.corel.com/coreldraw/odm/2003" xml:space="preserve" width="27.7616mm" height="20.4454mm" style="shape-rendering:geometricPrecision; text-rendering:geometricPrecision; image-rendering:optimizeQuality; fill-rule:evenodd; clip-rule:evenodd" viewBox="0 0 26.4 19.44"> <defs> <style type="text/css"> <![CDATA[ .fil0 {fill:url(#id0);fill-rule:nonzero} ]]> </style> <linearGradient id="id0" gradientUnits="userSpaceOnUse" x1="25.94" y1="-10.41" x2="1.27" y2="25.21"> <stop offset="0" style="stop-opacity:1; stop-color:#4A85D3"></stop> <stop offset="1" style="stop-opacity:1; stop-color:#1F0046"></stop> </linearGradient> </defs> <g id="Слой_x0020_1"> <metadata id="CorelCorpID_0Corel-Layer"></metadata> <path class="fil0" d="M9.48 8.05l2.38 -8.05 -6.67 0 -3.34 7.1c-1.67,3.57 -1.86,4.72 -1.86,6.24 0,3.72 2.67,6.1 6.29,6.1 3.62,0 6.29,-2.38 6.29,-6.1 0,-2.53 -1.19,-4.38 -3.1,-5.29zm13.82 0l2.38 -8.05 -6.67 0 -3.34 7.1c-1.67,3.57 -1.86,4.72 -1.86,6.24 0,3.72 2.67,6.1 6.29,6.1 3.62,0 6.29,-2.38 6.29,-6.1 0,-2.53 -1.19,-4.38 -3.1,-5.29z"></path> </g> </svg> 