<?xml version="1.0" encoding="UTF-8"?> <svg xmlns="http://www.w3.org/2000/svg" width="266" height="174" viewBox="0 0 266 174" fill="none"> <g filter="url(#filter0_d_355_1497)"> <rect width="250" height="157.202" rx="20" transform="matrix(-1 0 0 1 260 6)" fill="white"></rect> <path d="M228.746 34H41.2442C33.387 34 27 40.3028 27 48.0779V121.922C27 129.688 33.3773 136 41.2442 136H228.756C236.613 136 243 129.697 243 121.922V48.0779C243 40.3125 236.623 34 228.756 34H228.746Z" fill="url(#paint0_linear_355_1497)"></path> <path d="M117 85C117 104.332 101.108 120 81.5 120C61.8919 120 46 104.332 46 85C46 65.6681 61.8919 50 81.5 50C101.108 50 117 65.6681 117 85ZM101.425 85C101.425 74.1507 92.5043 65.3462 81.4904 65.3462C70.4765 65.3462 61.5559 74.1412 61.5559 85C61.5559 95.8588 70.4765 104.654 81.4904 104.654C92.5043 104.654 101.425 95.8588 101.425 85Z" fill="url(#paint1_linear_355_1497)"></path> <path d="M81.58 104.6C70.5539 104.6 61.6059 95.7736 61.6059 84.8765C61.6059 73.9794 70.0343 65.7044 80.6179 65.2009L77.3658 50C59.7105 52.0616 46 66.8825 46 84.8765C46 104.277 61.9234 120 81.5704 120C85.1977 120 88.7095 119.458 92 118.461L88.748 103.26C86.5158 104.106 84.1008 104.6 81.5704 104.6H81.58Z" fill="url(#paint2_linear_355_1497)"></path> <g style="mix-blend-mode:multiply" opacity="0.6"> <path d="M217.748 125.495H140.505V48.2525C140.505 47.5641 139.941 47 139.252 47C138.564 47 138 47.5641 138 48.2525V126.748C138 127.436 138.564 128 139.252 128H217.748C218.436 128 219 127.436 219 126.748C219 126.059 218.436 125.495 217.748 125.495Z" fill="url(#paint3_linear_355_1497)"></path> </g> <path d="M212.206 69.4046V84.3282H218.828C218.924 84.3282 219 84.4046 219 84.5C219 84.5954 218.924 84.6718 218.828 84.6718H212.206V99.5954H218.828C218.924 99.5954 219 99.6718 219 99.7672C219 99.8626 218.924 99.9389 218.828 99.9389H212.206V114.863H218.828C218.924 114.863 219 114.939 219 115.034C219 115.13 218.924 115.206 218.828 115.206H212.206V121.828C212.206 121.924 212.13 122 212.034 122C211.939 122 211.863 121.924 211.863 121.828V115.206H196.939V121.828C196.939 121.924 196.863 122 196.767 122C196.672 122 196.595 121.924 196.595 121.828V115.206H181.672V121.828C181.672 121.924 181.595 122 181.5 122C181.405 122 181.328 121.924 181.328 121.828V115.206H166.405V121.828C166.405 121.924 166.328 122 166.233 122C166.137 122 166.061 121.924 166.061 121.828V115.206H151.137V121.828C151.137 121.924 151.061 122 150.966 122C150.87 122 150.794 121.924 150.794 121.828V115.206H144.172C144.076 115.206 144 115.13 144 115.034C144 114.939 144.076 114.863 144.172 114.863H150.794V99.9389H144.172C144.076 99.9389 144 99.8626 144 99.7672C144 99.6718 144.076 99.5954 144.172 99.5954H150.794V84.6718H144.172C144.076 84.6718 144 84.5954 144 84.5C144 84.4046 144.076 84.3282 144.172 84.3282H150.794V69.4046H144.172C144.076 69.4046 144 69.3282 144 69.2328C144 69.1374 144.076 69.0611 144.172 69.0611H150.794V54.1374H144.172C144.076 54.1374 144 54.0611 144 53.9656C144 53.8702 144.076 53.7939 144.172 53.7939H150.794V47.1718C150.794 47.0763 150.87 47 150.966 47C151.061 47 151.137 47.0763 151.137 47.1718V53.7939H166.061V47.1718C166.061 47.0763 166.137 47 166.233 47C166.328 47 166.405 47.0763 166.405 47.1718V53.7939H181.328V47.1718C181.328 47.0763 181.405 47 181.5 47C181.595 47 181.672 47.0763 181.672 47.1718V53.7939H196.595V47.1718C196.595 47.0763 196.672 47 196.767 47C196.863 47 196.939 47.0763 196.939 47.1718V53.7939H211.863V47.1718C211.863 47.0763 211.939 47 212.034 47C212.13 47 212.206 47.0763 212.206 47.1718V53.7939H218.828C218.924 53.7939 219 53.8702 219 53.9656C219 54.0611 218.924 54.1374 218.828 54.1374H212.206V69.0611H218.828C218.924 69.0611 219 69.1374 219 69.2328C219 69.3282 218.924 69.4046 218.828 69.4046H212.206ZM196.939 54.1374V69.0611H211.863V54.1374H196.939ZM181.672 54.1374V69.0611H196.595V54.1374H181.672ZM166.405 84.6813V99.605H181.328V84.6813H166.405ZM181.328 84.3282V69.4046H166.405V84.3282H181.328ZM181.681 99.5954H196.605V84.6718H181.681V99.5954ZM196.605 84.3282V69.4046H181.681V84.3282H196.605ZM166.414 54.1374V69.0611H181.338V54.1374H166.414ZM151.147 69.0611H166.071V54.1374H151.147V69.0611ZM151.147 84.3282H166.071V69.4046H151.147V84.3282ZM151.147 99.5954H166.071V84.6718H151.147V99.5954ZM166.071 114.863V99.9389H151.147V114.863H166.071ZM181.338 114.863V99.9389H166.414V114.863H181.338ZM196.605 114.863V99.9389H181.681V114.863H196.605ZM211.872 99.9389H196.948V114.863H211.872V99.9389ZM211.872 84.6718H196.948V99.5954H211.872V84.6718ZM211.872 69.4046H196.948V84.3282H211.872V69.4046Z" fill="white"></path> <path d="M142.706 124C142.553 124 142.408 123.952 142.274 123.855C141.966 123.612 141.908 123.166 142.149 122.856L162.304 96.8116C162.468 96.5983 162.737 96.5013 162.997 96.5498L180.989 100.06L194.451 77.6808C194.624 77.3899 194.98 77.2639 195.297 77.3802L209.183 82.4902L217.626 57.4834C217.751 57.115 218.146 56.9113 218.521 57.0374C218.886 57.1634 219.088 57.5707 218.963 57.9391L210.279 83.6246C210.222 83.8089 210.087 83.9543 209.914 84.0319C209.741 84.1191 209.549 84.1192 209.366 84.061L195.346 78.8928L181.931 101.194C181.777 101.446 181.489 101.582 181.2 101.524L163.15 98.0042L143.255 123.709C143.11 123.884 142.908 123.981 142.697 123.981L142.706 124Z" fill="url(#paint4_linear_355_1497)"></path> </g> <defs> <filter id="filter0_d_355_1497" x="0" y="0" width="266" height="173.202" filterUnits="userSpaceOnUse" color-interpolation-filters="sRGB"> <feFlood flood-opacity="0" result="BackgroundImageFix"></feFlood> <feColorMatrix in="SourceAlpha" type="matrix" values="0 0 0 0 0 0 0 0 0 0 0 0 0 0 0 0 0 0 127 0" result="hardAlpha"></feColorMatrix> <feOffset dx="-2" dy="2"></feOffset> <feGaussianBlur stdDeviation="4"></feGaussianBlur> <feComposite in2="hardAlpha" operator="out"></feComposite> <feColorMatrix type="matrix" values="0 0 0 0 0 0 0 0 0 0 0 0 0 0 0 0 0 0 0.25 0"></feColorMatrix> <feBlend mode="normal" in2="BackgroundImageFix" result="effect1_dropShadow_355_1497"></feBlend> <feBlend mode="normal" in="SourceGraphic" in2="effect1_dropShadow_355_1497" result="shape"></feBlend> </filter> <linearGradient id="paint0_linear_355_1497" x1="27" y1="84.9904" x2="242.99" y2="84.9904" gradientUnits="userSpaceOnUse"> <stop stop-color="#EBF3FB"></stop> <stop offset="1" stop-color="#B7DEEB"></stop> </linearGradient> <linearGradient id="paint1_linear_355_1497" x1="81.4989" y1="120.012" x2="81.4989" y2="50" gradientUnits="userSpaceOnUse"> <stop stop-color="#2A2169"></stop> <stop offset="1" stop-color="#3C5AA5"></stop> </linearGradient> <linearGradient id="paint2_linear_355_1497" x1="54.1614" y1="80.1603" x2="73.0824" y2="82.8395" gradientUnits="userSpaceOnUse"> <stop stop-color="#EA3939"></stop> <stop offset="1" stop-color="#B91616"></stop> </linearGradient> <linearGradient id="paint3_linear_355_1497" x1="178.499" y1="128.014" x2="178.499" y2="47" gradientUnits="userSpaceOnUse"> <stop stop-color="#2A2169"></stop> <stop offset="1" stop-color="#3C5AA5"></stop> </linearGradient> <linearGradient id="paint4_linear_355_1497" x1="155.661" y1="85.8677" x2="186.102" y2="93.4059" gradientUnits="userSpaceOnUse"> <stop stop-color="#EA3939"></stop> <stop offset="1" stop-color="#B91616"></stop> </linearGradient> </defs> </svg> 