<?xml version="1.0" encoding="UTF-8"?> <!-- Creator: CorelDRAW 2021.5 --> <svg xmlns="http://www.w3.org/2000/svg" xmlns:xlink="http://www.w3.org/1999/xlink" xmlns:xodm="http://www.corel.com/coreldraw/odm/2003" xml:space="preserve" width="34.8188mm" height="34.8188mm" style="shape-rendering:geometricPrecision; text-rendering:geometricPrecision; image-rendering:optimizeQuality; fill-rule:evenodd; clip-rule:evenodd" viewBox="0 0 19.49 19.49"> <defs> <style type="text/css"> <![CDATA[ .fil0 {fill:url(#id0);fill-rule:nonzero} .fil1 {fill:url(#id1);fill-rule:nonzero} ]]> </style> <linearGradient id="id0" gradientUnits="userSpaceOnUse" x1="13.71" y1="-1.34" x2="5.03" y2="17.85"> <stop offset="0" style="stop-opacity:1; stop-color:#4A85D3"></stop> <stop offset="1" style="stop-opacity:1; stop-color:#1F0046"></stop> </linearGradient> <linearGradient id="id1" gradientUnits="userSpaceOnUse" xlink:href="#id0" x1="19.16" y1="-10.44" x2="0.94" y2="25.27"> </linearGradient> </defs> <g id="Слой_x0020_1"> <metadata id="CorelCorpID_0Corel-Layer"></metadata> <path class="fil0" d="M12.75 5.67c0.36,0.26 0.44,0.76 0.19,1.12 -0.26,0.36 -0.76,0.44 -1.12,0.19 -0.36,-0.26 -0.44,-0.76 -0.18,-1.12 0.25,-0.36 0.75,-0.44 1.1,-0.19l0 0zm-6.3 7.6l0.07 0.24 0.24 -0.09 -0.14 0.2 0.21 0.12 -0.25 0.01 0.04 0.25 -0.17 -0.18 -0.16 0.18 0.04 -0.25 -0.25 -0.01 0.21 -0.12 -0.14 -0.2 0.22 0.09 0.07 -0.24zm-1.17 -1.43l0.05 0.19 0.19 -0.07 -0.12 0.16 0.17 0.09 -0.19 0.02 0.03 0.19 -0.13 -0.15 -0.13 0.15 0.03 -0.19 -0.2 -0.02 0.17 -0.09 -0.11 -0.16 0.18 0.07 0.06 -0.19zm-0.16 0.95l0.1 0.34 0.33 -0.13 -0.2 0.29 0.31 0.17 -0.35 0.02 0.05 0.35 -0.24 -0.26 -0.24 0.26 0.06 -0.35 -0.36 -0.02 0.31 -0.17 -0.19 -0.29 0.32 0.13 0.1 -0.34zm6.22 -1.46l0.8 -1.13c1.78,-2.53 1.79,-4.81 1.72,-5.65 -0.01,-0.09 -0.05,-0.17 -0.13,-0.22 -0.07,-0.05 -0.16,-0.07 -0.26,-0.05 -0.83,0.2 -2.99,0.96 -4.78,3.49l-0.8 1.14 -0.31 -0.01c-0.59,-0.01 -1.16,0.27 -1.5,0.76l-0.95 1.35c-0.05,0.08 -0.06,0.18 -0.02,0.28 0.05,0.08 0.13,0.14 0.24,0.14l0.99 0.03c0.29,0 0.55,0.09 0.79,0.26l0.07 0.05 -0.01 0.01 -0.47 0.67c-0.1,0.15 -0.07,0.37 0.08,0.48l1.13 0.79c0.15,0.11 0.37,0.07 0.48,-0.08l0.47 -0.67 0 -0.01 0.08 0.05c0.23,0.16 0.4,0.39 0.5,0.65l0.36 0.93c0.04,0.09 0.12,0.15 0.22,0.16 0.1,0.02 0.19,-0.03 0.26,-0.11l0.95 -1.35c0.35,-0.48 0.42,-1.1 0.21,-1.67l-0.11 -0.29z"></path> <path class="fil1" d="M9.75 0c2.69,0 5.13,1.09 6.89,2.85 1.76,1.76 2.85,4.2 2.85,6.89 0,2.69 -1.09,5.13 -2.85,6.89 -1.76,1.76 -4.2,2.85 -6.89,2.85 -2.69,0 -5.13,-1.09 -6.89,-2.85 -1.76,-1.76 -2.85,-4.2 -2.85,-6.89 0,-2.69 1.09,-5.13 2.85,-6.89 1.76,-1.76 4.2,-2.85 6.89,-2.85zm6.05 3.69c-1.55,-1.55 -3.69,-2.51 -6.05,-2.51 -2.36,0 -4.5,0.96 -6.05,2.51 -1.55,1.55 -2.51,3.69 -2.51,6.05 0,2.36 0.96,4.5 2.51,6.05 1.55,1.55 3.69,2.51 6.05,2.51 2.36,0 4.5,-0.96 6.05,-2.51 1.55,-1.55 2.51,-3.69 2.51,-6.05 0,-2.36 -0.96,-4.5 -2.51,-6.05z"></path> </g> </svg> 