<?xml version="1.0" encoding="UTF-8"?> <!-- Creator: CorelDRAW 2021.5 --> <svg xmlns="http://www.w3.org/2000/svg" xmlns:xlink="http://www.w3.org/1999/xlink" xmlns:xodm="http://www.corel.com/coreldraw/odm/2003" xml:space="preserve" width="34.8188mm" height="34.8188mm" style="shape-rendering:geometricPrecision; text-rendering:geometricPrecision; image-rendering:optimizeQuality; fill-rule:evenodd; clip-rule:evenodd" viewBox="0 0 20.14 20.14"> <defs> <style type="text/css"> <![CDATA[ .fil0 {fill:url(#id0);fill-rule:nonzero} .fil1 {fill:url(#id1);fill-rule:nonzero} ]]> </style> <linearGradient id="id0" gradientUnits="userSpaceOnUse" x1="19.79" y1="-10.79" x2="0.97" y2="26.11"> <stop offset="0" style="stop-opacity:1; stop-color:#4A85D3"></stop> <stop offset="1" style="stop-opacity:1; stop-color:#1F0046"></stop> </linearGradient> <linearGradient id="id1" gradientUnits="userSpaceOnUse" xlink:href="#id0" x1="16.23" y1="-3.14" x2="4.31" y2="20.23"> </linearGradient> </defs> <g id="Слой_x0020_1"> <metadata id="CorelCorpID_0Corel-Layer"></metadata> <path class="fil0" d="M10.07 0c2.78,0 5.3,1.13 7.12,2.95 1.82,1.82 2.95,4.34 2.95,7.12 0,2.78 -1.13,5.3 -2.95,7.12 -1.82,1.82 -4.34,2.95 -7.12,2.95 -2.78,0 -5.3,-1.13 -7.12,-2.95 -1.82,-1.82 -2.95,-4.34 -2.95,-7.12 0,-2.78 1.13,-5.3 2.95,-7.12 1.82,-1.82 4.34,-2.95 7.12,-2.95zm6.26 3.82c-1.6,-1.6 -3.81,-2.59 -6.26,-2.59 -2.44,0 -4.65,0.99 -6.26,2.59 -1.6,1.6 -2.59,3.81 -2.59,6.26 0,2.44 0.99,4.65 2.59,6.26 1.6,1.6 3.81,2.59 6.26,2.59 2.44,0 4.65,-0.99 6.26,-2.59 1.6,-1.6 2.59,-3.81 2.59,-6.26 0,-2.44 -0.99,-4.65 -2.59,-6.26z"></path> <path class="fil1" d="M10.07 16.45c3.52,0 6.38,-2.86 6.38,-6.38 0,-3.52 -2.86,-6.38 -6.38,-6.38 -3.52,0 -6.38,2.86 -6.38,6.38 0,3.52 2.86,6.38 6.38,6.38zm-0.29 -4.62c-0.42,0.04 -0.82,0.16 -1.19,0.35 -0.22,0.11 -0.43,0.25 -0.63,0.4 -0.08,0.06 -0.2,0.21 -0.29,0.23l-0.01 0c-0.07,0.01 -0.1,-0.07 -0.1,-0.14 0,-0.28 0.08,-0.57 0.22,-0.86 0.14,-0.26 0.34,-0.51 0.57,-0.71 0.47,-0.39 1.1,-0.62 1.72,-0.62 0.63,-0.01 1.26,0.22 1.73,0.62 0.48,0.41 0.78,1 0.79,1.57 0,0.07 -0.04,0.15 -0.12,0.14 -0.06,-0.01 -0.11,-0.09 -0.15,-0.13 -0.07,-0.06 -0.14,-0.11 -0.21,-0.16 -0.14,-0.1 -0.3,-0.19 -0.45,-0.28 -0.57,-0.31 -1.23,-0.47 -1.88,-0.42zm-1.59 -3.31c0,0.44 -0.21,0.79 -0.47,0.79 -0.26,0 -0.47,-0.35 -0.47,-0.79 0,-0.44 0.21,-0.79 0.47,-0.79 0.26,0 0.47,0.35 0.47,0.79zm-1.21 -1.17c-0.25,0.01 -0.48,-0.03 -0.68,-0.12 -0.01,-0.01 -0.02,-0.02 -0.02,-0.03 0,-0.01 0.01,-0.02 0.02,-0.02 0.07,-0.02 0.14,-0.04 0.2,-0.06 0.14,-0.04 0.28,-0.08 0.41,-0.12 0.2,-0.07 0.37,-0.14 0.54,-0.23 0.17,-0.09 0.33,-0.2 0.49,-0.32 0.17,-0.13 0.32,-0.28 0.46,-0.42 0.01,-0.01 0.02,-0.01 0.03,-0.01 0.01,0 0.02,0.01 0.02,0.03 -0.01,0.22 -0.1,0.44 -0.25,0.65 -0.14,0.19 -0.33,0.35 -0.54,0.46 -0.2,0.11 -0.43,0.17 -0.65,0.19 -0.01,0 -0.02,0 -0.03,0zm6.86 -0.12c-0.2,0.09 -0.43,0.13 -0.68,0.12 -0.01,0 -0.02,-0 -0.03,-0 -0.23,-0.02 -0.45,-0.08 -0.65,-0.19 -0.21,-0.11 -0.4,-0.27 -0.54,-0.46 -0.15,-0.21 -0.24,-0.43 -0.25,-0.65 -0,-0.01 0.01,-0.02 0.02,-0.03 0.01,-0.01 0.02,-0 0.03,0.01 0.14,0.14 0.3,0.29 0.46,0.42 0.15,0.12 0.31,0.22 0.49,0.32 0.17,0.09 0.34,0.16 0.54,0.23 0.13,0.05 0.27,0.08 0.41,0.12 0.07,0.02 0.13,0.04 0.2,0.06 0.01,0 0.02,0.01 0.02,0.02 0,0.01 -0.01,0.02 -0.02,0.03zm-0.95 1.29c0,0.44 -0.21,0.79 -0.47,0.79 -0.26,0 -0.47,-0.35 -0.47,-0.79 0,-0.44 0.21,-0.79 0.47,-0.79 0.26,0 0.47,0.35 0.47,0.79z"></path> </g> </svg> 