<?xml version="1.0" encoding="UTF-8"?> <svg xmlns="http://www.w3.org/2000/svg" width="111" height="154" viewBox="0 0 111 154" fill="none"> <g filter="url(#filter0_d_355_2094)"> <path d="M4.62952 138.411L43.6636 69.5299C44.9216 70.4848 46.2484 71.3755 47.6625 72.1744C49.072 72.9732 50.5182 73.6619 51.9828 74.2542L12.9487 143.126C11.6448 145.426 8.72943 146.234 6.42466 144.931C4.12908 143.627 3.32104 140.707 4.62034 138.411H4.62952Z" fill="url(#paint0_linear_355_2094)"></path> <path d="M35.1883 84.4879L4.62952 138.411C3.32563 140.711 4.13367 143.631 6.43385 144.931C8.73402 146.234 11.654 145.426 12.9579 143.126L43.5167 89.203L35.1929 84.4833L35.1883 84.4879Z" fill="url(#paint1_linear_355_2094)"></path> <g style="mix-blend-mode:multiply" opacity="0.3"> <path d="M39.3479 86.8477L35.1883 84.4879L4.62952 138.411C3.32563 140.711 4.13367 143.631 6.43385 144.93L39.3525 86.8477H39.3479Z" fill="#02126A"></path> </g> <path d="M44.8572 77.1328C64.6727 88.3628 89.8414 81.4026 101.076 61.5872C112.306 41.7717 105.346 16.603 85.5303 5.3684C65.7149 -5.86158 40.5461 1.09861 29.3116 20.9141C18.0816 40.7295 25.0418 65.8983 44.8572 77.1328ZM34.2654 23.7239C43.9436 6.64474 65.6368 0.644093 82.716 10.3223C99.7951 20.0004 105.796 41.6937 96.1176 58.7728C86.4394 75.8519 64.7461 81.8525 47.667 72.1744C30.5879 62.4962 24.5873 40.803 34.27 23.7239H34.2654Z" fill="url(#paint2_linear_355_2094)"></path> <path style="mix-blend-mode:screen" opacity="0.8" d="M34.2655 23.7237C24.5873 40.8029 30.5834 62.4961 47.6625 72.1743C64.7416 81.8524 86.4349 75.8564 96.113 58.7727C105.791 41.6935 99.7906 20.0003 82.7114 10.3221C65.6323 0.64398 43.9391 6.64004 34.2609 23.7237H34.2655Z" fill="url(#paint3_linear_355_2094)"></path> <path d="M82.2936 21.9699C81.5591 24.8807 83.3267 27.8328 86.2374 28.5628C89.1437 29.2974 92.1004 27.5298 92.8304 24.619C93.5603 21.7082 91.7973 18.7561 88.8911 18.0261C85.9803 17.2915 83.0282 19.0591 82.2936 21.9699Z" fill="white"></path> <path d="M88.6936 33.5214C88.2712 35.1926 89.2859 36.8867 90.957 37.3091C92.6282 37.7315 94.3224 36.7168 94.7447 35.0456C95.1671 33.3744 94.1525 31.6803 92.4813 31.2579C90.8101 30.8355 89.116 31.8502 88.6936 33.5214Z" fill="white"></path> <path d="M33.1085 83.3079C32.6723 84.0747 32.9432 85.048 33.7099 85.4796L43.4248 90.9843C44.1916 91.4205 45.1649 91.1496 45.601 90.3829C46.0372 89.6162 45.7663 88.6429 44.9996 88.2067L35.2847 82.7019C34.518 82.2657 33.5446 82.5366 33.1131 83.3033L33.1085 83.3079Z" fill="url(#paint4_linear_355_2094)"></path> <path style="mix-blend-mode:multiply" d="M69.14 5.91929C62.7307 8.94028 57.1571 13.8941 53.3969 20.5238C43.7187 37.6029 49.7148 59.2961 66.7939 68.9743C71.1142 71.4214 75.7283 72.863 80.3746 73.3818C70.2832 78.1428 58.112 78.0969 47.6625 72.1743C30.5834 62.4962 24.5828 40.8029 34.2655 23.7238C41.4966 10.965 55.4308 4.39503 69.14 5.91929Z" fill="url(#paint5_linear_355_2094)"></path> </g> <defs> <filter id="filter0_d_355_2094" x="0" y="0" width="110.444" height="153.554" filterUnits="userSpaceOnUse" color-interpolation-filters="sRGB"> <feFlood flood-opacity="0" result="BackgroundImageFix"></feFlood> <feColorMatrix in="SourceAlpha" type="matrix" values="0 0 0 0 0 0 0 0 0 0 0 0 0 0 0 0 0 0 127 0" result="hardAlpha"></feColorMatrix> <feOffset dy="4"></feOffset> <feGaussianBlur stdDeviation="2"></feGaussianBlur> <feComposite in2="hardAlpha" operator="out"></feComposite> <feColorMatrix type="matrix" values="0 0 0 0 0 0 0 0 0 0 0 0 0 0 0 0 0 0 0.25 0"></feColorMatrix> <feBlend mode="normal" in2="BackgroundImageFix" result="effect1_dropShadow_355_2094"></feBlend> <feBlend mode="normal" in="SourceGraphic" in2="effect1_dropShadow_355_2094" result="shape"></feBlend> </filter> <linearGradient id="paint0_linear_355_2094" x1="27.9921" y1="145.567" x2="27.9921" y2="69.5299" gradientUnits="userSpaceOnUse"> <stop stop-color="#2A2169"></stop> <stop offset="1" stop-color="#3C5AA5"></stop> </linearGradient> <linearGradient id="paint1_linear_355_2094" x1="23.762" y1="145.564" x2="23.762" y2="84.4833" gradientUnits="userSpaceOnUse"> <stop stop-color="#2A2169"></stop> <stop offset="1" stop-color="#3C5AA5"></stop> </linearGradient> <linearGradient id="paint2_linear_355_2094" x1="91.8069" y1="35.5466" x2="58.7275" y2="42.6745" gradientUnits="userSpaceOnUse"> <stop stop-color="#EA3939"></stop> <stop offset="1" stop-color="#B91616"></stop> </linearGradient> <linearGradient id="paint3_linear_355_2094" x1="81.8253" y1="23.5493" x2="53.3877" y2="53.8096" gradientUnits="userSpaceOnUse"> <stop stop-color="white"></stop> <stop offset="1" stop-color="#D9ECF6"></stop> </linearGradient> <linearGradient id="paint4_linear_355_2094" x1="43.5191" y1="86.2417" x2="38.6051" y2="87.813" gradientUnits="userSpaceOnUse"> <stop stop-color="#EA3939"></stop> <stop offset="1" stop-color="#B91616"></stop> </linearGradient> <linearGradient id="paint5_linear_355_2094" x1="89.7624" y1="56.8474" x2="33.5617" y2="24.9988" gradientUnits="userSpaceOnUse"> <stop stop-color="#D9ECF6"></stop> <stop offset="1" stop-color="#E1E7FF" stop-opacity="0"></stop> </linearGradient> </defs> </svg> 