<?xml version="1.0" encoding="UTF-8"?> <!-- Creator: CorelDRAW 2021.5 --> <svg xmlns="http://www.w3.org/2000/svg" xmlns:xlink="http://www.w3.org/1999/xlink" xmlns:xodm="http://www.corel.com/coreldraw/odm/2003" xml:space="preserve" width="19.9974mm" height="19.9974mm" style="shape-rendering:geometricPrecision; text-rendering:geometricPrecision; image-rendering:optimizeQuality; fill-rule:evenodd; clip-rule:evenodd" viewBox="0 0 13.52 13.52"> <defs> <style type="text/css"> <![CDATA[ .fil0 {fill:url(#id2);fill-rule:nonzero} .fil1 {fill:url(#id3);fill-rule:nonzero} ]]> </style> <mask id="id0"> <linearGradient id="id1" gradientUnits="userSpaceOnUse" x1="11.74" y1="2.18" x2="1.79" y2="11.34"> <stop offset="0" style="stop-opacity:0; stop-color:white"></stop> <stop offset="0.141176" style="stop-opacity:0; stop-color:white"></stop> <stop offset="1" style="stop-opacity:1; stop-color:white"></stop> </linearGradient> <rect style="fill:url(#id1)" width="13.52" height="13.52"></rect> </mask> <linearGradient id="id2" gradientUnits="userSpaceOnUse" x1="10.08" y1="2.56" x2="3.65" y2="9.99"> <stop offset="0" style="stop-opacity:1; stop-color:#4A85D3"></stop> <stop offset="1" style="stop-opacity:1; stop-color:#1F0046"></stop> </linearGradient> <linearGradient id="id3" gradientUnits="userSpaceOnUse" xlink:href="#id2" x1="13.29" y1="-7.24" x2="0.65" y2="17.53"> </linearGradient> </defs> <g id="Слой_x0020_1"> <metadata id="CorelCorpID_0Corel-Layer"></metadata> <path class="fil0" d="M5.08 8.79c1.02,0 1.76,-0.74 1.76,-2.03 0,-1.28 -0.73,-2.03 -1.76,-2.03 -1.02,0 -1.76,0.74 -1.76,2.03 0,1.28 0.73,2.03 1.76,2.03zm0 -1.05c-0.25,0 -0.44,-0.23 -0.44,-0.98 0,-0.75 0.19,-0.98 0.44,-0.98 0.25,0 0.44,0.23 0.44,0.98 0,0.75 -0.19,0.98 -0.44,0.98zm3.82 -0.06l0.55 -0.5c0.56,-0.51 0.66,-0.85 0.66,-1.23 0,-0.74 -0.65,-1.21 -1.57,-1.21 -0.84,0 -1.4,0.37 -1.68,0.9l0.99 0.49c0.12,-0.23 0.34,-0.36 0.57,-0.36 0.25,0 0.38,0.12 0.38,0.3 0,0.13 -0.04,0.28 -0.3,0.53l-1.4 1.3 0 0.8 3.11 0 0 -1.01 -1.31 0z"></path> <path class="fil1" style="mask:url(#id0)" d="M12.63 6.76c0,-0.25 0.2,-0.45 0.45,-0.45 0.25,0 0.45,0.2 0.45,0.45 0,1.87 -0.76,3.56 -1.98,4.78 -1.22,1.22 -2.91,1.98 -4.78,1.98 -1.87,0 -3.56,-0.76 -4.78,-1.98 -1.22,-1.22 -1.98,-2.91 -1.98,-4.78 0,-1.87 0.76,-3.56 1.98,-4.78 1.22,-1.22 2.91,-1.98 4.78,-1.98 0.25,0 0.45,0.2 0.45,0.45 0,0.25 -0.2,0.45 -0.45,0.45 -1.62,0 -3.09,0.66 -4.15,1.72 -1.06,1.06 -1.72,2.53 -1.72,4.15 0,1.62 0.66,3.09 1.72,4.15 1.06,1.06 2.53,1.72 4.15,1.72 1.62,0 3.09,-0.66 4.15,-1.72 1.06,-1.06 1.72,-2.53 1.72,-4.15z"></path> </g> </svg> 