<?xml version="1.0" encoding="UTF-8"?> <!-- Creator: CorelDRAW 2021.5 --> <svg xmlns="http://www.w3.org/2000/svg" xmlns:xlink="http://www.w3.org/1999/xlink" xmlns:xodm="http://www.corel.com/coreldraw/odm/2003" xml:space="preserve" width="34.8188mm" height="34.8188mm" style="shape-rendering:geometricPrecision; text-rendering:geometricPrecision; image-rendering:optimizeQuality; fill-rule:evenodd; clip-rule:evenodd" viewBox="0 0 19.49 19.49"> <defs> <style type="text/css"> <![CDATA[ .fil0 {fill:url(#id0);fill-rule:nonzero} .fil1 {fill:url(#id1);fill-rule:nonzero} ]]> </style> <linearGradient id="id0" gradientUnits="userSpaceOnUse" x1="13.24" y1="-0.64" x2="6.48" y2="17.73"> <stop offset="0" style="stop-opacity:1; stop-color:#4A85D3"></stop> <stop offset="1" style="stop-opacity:1; stop-color:#1F0046"></stop> </linearGradient> <linearGradient id="id1" gradientUnits="userSpaceOnUse" xlink:href="#id0" x1="19.16" y1="-10.44" x2="0.94" y2="25.27"> </linearGradient> </defs> <g id="Слой_x0020_1"> <metadata id="CorelCorpID_0Corel-Layer"></metadata> <path class="fil0" d="M11.85 13.77l-0.89 -1.04 -1.12 -1.32 -1.12 1.32 -0.89 1.04 -0.58 0c0.07,-1.29 0.45,-2.71 1.78,-3.04l0.19 -0.05 0 -1.81 -0.19 -0.05c-1.35,-0.34 -1.73,-1.8 -1.78,-3.1l5.1 0c-0.06,1.3 -0.43,2.76 -1.78,3.1l-0.19 0.05 0 1.81 0.19 0.05c1.33,0.33 1.72,1.76 1.78,3.04l-0.5 0zm1.52 0.99l0 -0.99 -0.53 0c-0.09,-1.86 -0.78,-3.07 -1.97,-3.47l0 -1.05c1.2,-0.4 1.89,-1.64 1.97,-3.53l0.52 0 0 -0.99 -7.24 0 0 0.99 0.63 0c0.08,1.89 0.77,3.13 1.97,3.53l0 1.05c-1.19,0.4 -1.88,1.61 -1.97,3.47l-0.63 0 0 0.99 7.24 0zm-3.62 -6.03c1.27,0 1.76,-1.02 1.76,-1.02l-3.15 0 -0.08 0c0,0 0.2,1.02 1.46,1.02zm0.13 0.5c0,-0.07 -0.06,-0.13 -0.13,-0.13 -0.07,0 -0.13,0.06 -0.13,0.13 0,0.07 0.06,0.13 0.13,0.13 0.07,0 0.13,-0.06 0.13,-0.13zm0 0.52c0,-0.07 -0.06,-0.13 -0.13,-0.13 -0.07,0 -0.13,0.06 -0.13,0.13 0,0.07 0.06,0.13 0.13,0.13 0.07,0 0.13,-0.06 0.13,-0.13zm0.01 0.66c0,-0.08 -0.06,-0.14 -0.14,-0.14 -0.08,0 -0.14,0.06 -0.14,0.14 0,0.08 0.06,0.14 0.14,0.14 0.08,0 0.14,-0.06 0.14,-0.14z"></path> <path class="fil1" d="M9.75 0c2.69,0 5.13,1.09 6.89,2.85 1.76,1.76 2.85,4.2 2.85,6.89 0,2.69 -1.09,5.13 -2.85,6.89 -1.76,1.76 -4.2,2.85 -6.89,2.85 -2.69,0 -5.13,-1.09 -6.89,-2.85 -1.76,-1.76 -2.85,-4.2 -2.85,-6.89 0,-2.69 1.09,-5.13 2.85,-6.89 1.76,-1.76 4.2,-2.85 6.89,-2.85zm6.05 3.69c-1.55,-1.55 -3.69,-2.51 -6.05,-2.51 -2.36,0 -4.5,0.96 -6.05,2.51 -1.55,1.55 -2.51,3.69 -2.51,6.05 0,2.36 0.96,4.5 2.51,6.05 1.55,1.55 3.69,2.51 6.05,2.51 2.36,0 4.5,-0.96 6.05,-2.51 1.55,-1.55 2.51,-3.69 2.51,-6.05 0,-2.36 -0.96,-4.5 -2.51,-6.05z"></path> </g> </svg> 