<?xml version="1.0" encoding="UTF-8"?>
<!-- Creator: CorelDRAW 2020 (64-Bit) -->
<svg xmlns="http://www.w3.org/2000/svg" xmlns:xlink="http://www.w3.org/1999/xlink" xmlns:xodm="http://www.corel.com/coreldraw/odm/2003" xml:space="preserve" width="268.111mm" height="81.5801mm" style="shape-rendering:geometricPrecision; text-rendering:geometricPrecision; image-rendering:optimizeQuality; fill-rule:evenodd; clip-rule:evenodd" viewBox="0 0 801.13 243.77"> <defs> <style type="text/css"> <![CDATA[ .str0 {stroke:#4D4D4D;stroke-width:1.05;stroke-miterlimit:22.9256} .str1 {stroke:white;stroke-width:0.6;stroke-miterlimit:22.9256} .fil2 {fill:none} .fil0 {fill:#F0F0F0} .fil1 {fill:#4D4D4D;fill-rule:nonzero} ]]> </style> </defs> <g id="Слой_x0020_1"> <metadata id="CorelCorpID_0Corel-Layer"/> <rect class="fil0" x="0" y="0" width="400.57" height="243.77" rx="4.59" ry="9.38"/> <rect class="fil0" x="-0" y="0" width="801.13" height="243.77" rx="9.18" ry="9.38"/> <g id="_1577826139456"> <path class="fil1" d="M225.85 45.78l-1.78 0 0 6.12 -3.09 0 0 -14.99 3.09 0 0 6 1.41 0 3.66 -6 3.77 0 -4.62 7.09 5.11 7.9 -3.69 0 -3.86 -6.12zm18.22 -5.01l0 11.14 -2.98 0 0 -8.73 -2.59 0 -0.1 2.34c-0.05,1.06 -0.15,1.99 -0.31,2.79 -0.15,0.79 -0.4,1.46 -0.73,2 -0.34,0.53 -0.78,0.94 -1.33,1.21 -0.55,0.27 -1.24,0.4 -2.08,0.4l-0.48 0 -0.03 -2.44 0.32 -0.01c0.36,0 0.65,-0.07 0.85,-0.21 0.2,-0.14 0.36,-0.37 0.47,-0.68 0.11,-0.31 0.19,-0.72 0.22,-1.22 0.04,-0.5 0.07,-1.11 0.11,-1.83l0.21 -4.75 8.45 0zm5.52 4.26l1.61 0c0.11,-0.65 0.3,-1.25 0.57,-1.8 0.28,-0.55 0.64,-1.02 1.08,-1.42 0.44,-0.39 0.95,-0.7 1.54,-0.92 0.59,-0.22 1.25,-0.33 1.98,-0.33 0.84,0 1.6,0.14 2.26,0.43 0.66,0.29 1.21,0.69 1.66,1.19 0.45,0.5 0.79,1.1 1.02,1.8 0.24,0.69 0.35,1.44 0.35,2.26l0 0.21c0,0.82 -0.12,1.57 -0.35,2.26 -0.23,0.69 -0.57,1.29 -1.02,1.79 -0.45,0.51 -1,0.9 -1.66,1.18 -0.65,0.28 -1.4,0.43 -2.24,0.43 -0.76,0 -1.44,-0.12 -2.05,-0.35 -0.61,-0.23 -1.13,-0.55 -1.57,-0.96 -0.44,-0.41 -0.79,-0.9 -1.06,-1.48 -0.27,-0.57 -0.45,-1.2 -0.54,-1.89l-1.57 0 0 4.47 -2.97 0 0 -11.14 2.97 0 0 4.26zm4.49 1.42c0,0.45 0.04,0.88 0.12,1.28 0.08,0.4 0.21,0.74 0.39,1.03 0.18,0.29 0.42,0.52 0.71,0.7 0.29,0.17 0.65,0.26 1.08,0.26 0.41,0 0.76,-0.08 1.05,-0.26 0.29,-0.17 0.53,-0.4 0.72,-0.7 0.18,-0.29 0.32,-0.64 0.4,-1.03 0.08,-0.4 0.12,-0.83 0.12,-1.28l0 -0.21c0,-0.44 -0.04,-0.86 -0.12,-1.25 -0.08,-0.4 -0.22,-0.74 -0.4,-1.04 -0.19,-0.3 -0.43,-0.53 -0.72,-0.71 -0.3,-0.18 -0.65,-0.26 -1.07,-0.26 -0.41,0 -0.76,0.09 -1.05,0.26 -0.29,0.18 -0.53,0.41 -0.71,0.71 -0.18,0.3 -0.31,0.64 -0.39,1.04 -0.08,0.39 -0.12,0.81 -0.12,1.25l0 0.21zm18.79 5.46l-2.98 0 0 -3.5c-0.26,0.05 -0.52,0.08 -0.79,0.11 -0.27,0.03 -0.52,0.04 -0.76,0.04 -0.79,0 -1.5,-0.08 -2.13,-0.25 -0.63,-0.17 -1.17,-0.43 -1.61,-0.77 -0.44,-0.35 -0.78,-0.79 -1.01,-1.34 -0.23,-0.54 -0.35,-1.18 -0.35,-1.92l0 -3.52 2.97 0 0 3.52c0,0.37 0.04,0.66 0.13,0.91 0.08,0.24 0.21,0.43 0.38,0.58 0.17,0.14 0.39,0.25 0.66,0.3 0.27,0.06 0.59,0.09 0.96,0.09 0.27,0 0.54,-0.01 0.79,-0.05 0.25,-0.03 0.51,-0.07 0.76,-0.13l0 -5.22 2.98 0 0 11.14zm-198.79 43.42l-7.01 0 0 6.11 8.06 0 0 1.07 -9.33 0 0 -14.99 9.28 0 0 1.08 -8.01 0 0 5.65 7.01 0 0 1.07zm4.6 -3.95l0.04 1.9c0.19,-0.32 0.41,-0.6 0.66,-0.86 0.25,-0.26 0.53,-0.48 0.84,-0.67 0.31,-0.19 0.64,-0.33 1,-0.43 0.35,-0.1 0.73,-0.15 1.13,-0.15 0.56,0 1.05,0.08 1.49,0.23 0.44,0.15 0.81,0.39 1.12,0.72 0.3,0.33 0.54,0.75 0.7,1.27 0.16,0.52 0.24,1.14 0.24,1.88l0 7.25 -1.23 0 0 -7.26c0,-0.58 -0.06,-1.06 -0.19,-1.44 -0.12,-0.38 -0.3,-0.69 -0.52,-0.92 -0.23,-0.24 -0.5,-0.4 -0.83,-0.5 -0.33,-0.1 -0.69,-0.15 -1.09,-0.15 -0.44,0 -0.84,0.07 -1.19,0.22 -0.35,0.15 -0.67,0.34 -0.95,0.59 -0.27,0.25 -0.51,0.53 -0.71,0.85 -0.2,0.32 -0.35,0.65 -0.47,0.98l0 7.63 -1.23 0 0 -11.14 1.17 0zm9.91 5.47c0,-0.86 0.1,-1.65 0.3,-2.34 0.2,-0.7 0.48,-1.29 0.86,-1.79 0.37,-0.5 0.82,-0.87 1.35,-1.14 0.53,-0.27 1.13,-0.4 1.8,-0.4 0.79,0 1.47,0.16 2.03,0.47 0.57,0.32 1.03,0.75 1.41,1.31l0 -6.25 1.22 0 0 15.81 -1.15 0 -0.05 -1.48c-0.37,0.53 -0.84,0.94 -1.41,1.24 -0.58,0.3 -1.26,0.45 -2.07,0.45 -0.66,0 -1.25,-0.14 -1.78,-0.42 -0.53,-0.28 -0.98,-0.67 -1.35,-1.16 -0.37,-0.5 -0.66,-1.09 -0.86,-1.79 -0.2,-0.7 -0.3,-1.46 -0.3,-2.3l0 -0.21zm1.25 0.21c0,0.65 0.06,1.26 0.2,1.82 0.13,0.56 0.33,1.05 0.59,1.46 0.27,0.41 0.61,0.73 1.02,0.97 0.41,0.24 0.89,0.35 1.46,0.35 0.42,0 0.8,-0.05 1.13,-0.15 0.34,-0.1 0.64,-0.24 0.91,-0.41 0.26,-0.18 0.5,-0.39 0.69,-0.64 0.2,-0.25 0.36,-0.51 0.5,-0.8l0 -5.23c-0.13,-0.28 -0.28,-0.55 -0.45,-0.81 -0.18,-0.26 -0.4,-0.49 -0.66,-0.7 -0.26,-0.2 -0.56,-0.36 -0.91,-0.48 -0.34,-0.12 -0.74,-0.18 -1.19,-0.18 -0.57,0 -1.06,0.12 -1.47,0.35 -0.41,0.24 -0.75,0.56 -1.02,0.97 -0.27,0.41 -0.46,0.9 -0.59,1.46 -0.13,0.56 -0.2,1.17 -0.2,1.81l0 0.21zm12.34 5.46l-1.24 0 0 -15.81 1.24 0 0 15.81zm7.66 0.21c-0.73,0 -1.4,-0.14 -2.01,-0.41 -0.61,-0.27 -1.13,-0.65 -1.58,-1.13 -0.44,-0.48 -0.79,-1.06 -1.04,-1.73 -0.25,-0.67 -0.37,-1.4 -0.37,-2.19l0 -0.44c0,-0.86 0.13,-1.63 0.39,-2.33 0.26,-0.7 0.6,-1.29 1.04,-1.78 0.44,-0.49 0.95,-0.87 1.52,-1.14 0.57,-0.27 1.18,-0.4 1.82,-0.4 0.71,0 1.34,0.13 1.88,0.38 0.55,0.25 1.01,0.61 1.38,1.06 0.38,0.45 0.66,0.99 0.85,1.62 0.19,0.62 0.29,1.31 0.29,2.05l0 0.75 -7.95 0 0 0.24c0,0.61 0.09,1.18 0.28,1.73 0.19,0.54 0.45,1.01 0.78,1.4 0.34,0.4 0.74,0.71 1.21,0.95 0.47,0.23 0.98,0.34 1.55,0.34 0.66,0 1.24,-0.12 1.75,-0.36 0.5,-0.24 0.96,-0.63 1.37,-1.15l0.77 0.59c-0.19,0.27 -0.4,0.52 -0.64,0.76 -0.25,0.24 -0.53,0.45 -0.85,0.63 -0.32,0.18 -0.69,0.32 -1.09,0.42 -0.4,0.1 -0.86,0.15 -1.36,0.15zm-0.23 -10.5c-0.47,0 -0.9,0.09 -1.3,0.27 -0.4,0.18 -0.75,0.44 -1.05,0.76 -0.31,0.33 -0.56,0.73 -0.75,1.19 -0.2,0.46 -0.33,0.97 -0.4,1.54l6.68 0 0 -0.13c-0.01,-0.47 -0.09,-0.92 -0.22,-1.36 -0.14,-0.44 -0.34,-0.82 -0.6,-1.16 -0.27,-0.34 -0.59,-0.61 -0.98,-0.81 -0.39,-0.2 -0.85,-0.31 -1.37,-0.31zm13.48 7.46c0,-0.23 -0.04,-0.45 -0.12,-0.68 -0.08,-0.23 -0.23,-0.44 -0.44,-0.64 -0.22,-0.2 -0.52,-0.39 -0.91,-0.57 -0.39,-0.18 -0.89,-0.33 -1.51,-0.46 -0.62,-0.13 -1.17,-0.28 -1.65,-0.45 -0.48,-0.17 -0.89,-0.38 -1.23,-0.62 -0.33,-0.24 -0.59,-0.53 -0.76,-0.87 -0.17,-0.34 -0.26,-0.73 -0.26,-1.18 0,-0.41 0.09,-0.8 0.27,-1.17 0.18,-0.37 0.44,-0.7 0.78,-0.97 0.34,-0.27 0.75,-0.49 1.23,-0.65 0.48,-0.16 1.03,-0.24 1.63,-0.24 0.64,0 1.22,0.08 1.73,0.25 0.51,0.17 0.95,0.4 1.3,0.7 0.35,0.3 0.63,0.65 0.81,1.06 0.19,0.4 0.28,0.84 0.28,1.32l-1.24 0c0,-0.29 -0.06,-0.57 -0.19,-0.84 -0.13,-0.28 -0.31,-0.52 -0.56,-0.73 -0.25,-0.21 -0.55,-0.38 -0.91,-0.51 -0.36,-0.13 -0.77,-0.2 -1.23,-0.2 -0.48,0 -0.89,0.06 -1.23,0.18 -0.34,0.12 -0.61,0.27 -0.83,0.45 -0.21,0.19 -0.37,0.39 -0.47,0.62 -0.1,0.23 -0.15,0.46 -0.15,0.7 0,0.25 0.04,0.47 0.11,0.67 0.08,0.2 0.22,0.39 0.44,0.57 0.21,0.18 0.52,0.34 0.91,0.48 0.39,0.15 0.89,0.29 1.52,0.44 0.67,0.16 1.25,0.33 1.74,0.53 0.48,0.19 0.89,0.42 1.21,0.68 0.32,0.27 0.56,0.57 0.71,0.91 0.15,0.34 0.23,0.73 0.23,1.18 0,0.46 -0.1,0.88 -0.29,1.26 -0.19,0.38 -0.47,0.71 -0.82,0.98 -0.36,0.27 -0.79,0.48 -1.3,0.63 -0.51,0.15 -1.07,0.23 -1.7,0.23 -0.71,0 -1.33,-0.09 -1.87,-0.27 -0.54,-0.18 -1,-0.43 -1.37,-0.74 -0.37,-0.31 -0.65,-0.66 -0.84,-1.06 -0.19,-0.4 -0.28,-0.82 -0.28,-1.25l1.23 0c0.03,0.44 0.14,0.8 0.34,1.1 0.2,0.29 0.45,0.53 0.74,0.7 0.3,0.18 0.62,0.3 0.98,0.38 0.36,0.08 0.72,0.12 1.06,0.12 0.47,0 0.88,-0.06 1.24,-0.17 0.35,-0.11 0.66,-0.26 0.9,-0.44 0.24,-0.19 0.43,-0.4 0.55,-0.64 0.12,-0.24 0.18,-0.49 0.18,-0.75zm10.67 0c0,-0.23 -0.04,-0.45 -0.12,-0.68 -0.08,-0.23 -0.23,-0.44 -0.44,-0.64 -0.22,-0.2 -0.52,-0.39 -0.91,-0.57 -0.39,-0.18 -0.89,-0.33 -1.51,-0.46 -0.62,-0.13 -1.17,-0.28 -1.65,-0.45 -0.48,-0.17 -0.89,-0.38 -1.23,-0.62 -0.33,-0.24 -0.59,-0.53 -0.76,-0.87 -0.17,-0.34 -0.26,-0.73 -0.26,-1.18 0,-0.41 0.09,-0.8 0.27,-1.17 0.18,-0.37 0.44,-0.7 0.78,-0.97 0.34,-0.27 0.75,-0.49 1.23,-0.65 0.48,-0.16 1.03,-0.24 1.63,-0.24 0.64,0 1.22,0.08 1.73,0.25 0.51,0.17 0.95,0.4 1.3,0.7 0.35,0.3 0.63,0.65 0.81,1.06 0.19,0.4 0.28,0.84 0.28,1.32l-1.24 0c0,-0.29 -0.06,-0.57 -0.19,-0.84 -0.13,-0.28 -0.31,-0.52 -0.56,-0.73 -0.25,-0.21 -0.55,-0.38 -0.91,-0.51 -0.36,-0.13 -0.77,-0.2 -1.23,-0.2 -0.48,0 -0.89,0.06 -1.23,0.18 -0.34,0.12 -0.61,0.27 -0.83,0.45 -0.21,0.19 -0.37,0.39 -0.47,0.62 -0.1,0.23 -0.15,0.46 -0.15,0.7 0,0.25 0.04,0.47 0.11,0.67 0.08,0.2 0.22,0.39 0.44,0.57 0.21,0.18 0.52,0.34 0.91,0.48 0.39,0.15 0.89,0.29 1.52,0.44 0.67,0.16 1.25,0.33 1.74,0.53 0.48,0.19 0.89,0.42 1.21,0.68 0.32,0.27 0.56,0.57 0.71,0.91 0.15,0.34 0.23,0.73 0.23,1.18 0,0.46 -0.1,0.88 -0.29,1.26 -0.19,0.38 -0.47,0.71 -0.82,0.98 -0.36,0.27 -0.79,0.48 -1.3,0.63 -0.51,0.15 -1.07,0.23 -1.7,0.23 -0.71,0 -1.33,-0.09 -1.87,-0.27 -0.54,-0.18 -1,-0.43 -1.37,-0.74 -0.37,-0.31 -0.65,-0.66 -0.84,-1.06 -0.19,-0.4 -0.28,-0.82 -0.28,-1.25l1.23 0c0.03,0.44 0.14,0.8 0.34,1.1 0.2,0.29 0.45,0.53 0.74,0.7 0.3,0.18 0.62,0.3 0.98,0.38 0.36,0.08 0.72,0.12 1.06,0.12 0.47,0 0.88,-0.06 1.24,-0.17 0.35,-0.11 0.66,-0.26 0.9,-0.44 0.24,-0.19 0.43,-0.4 0.55,-0.64 0.12,-0.24 0.18,-0.49 0.18,-0.75zm8.64 -2.84c0,-0.86 0.1,-1.65 0.3,-2.34 0.2,-0.7 0.48,-1.29 0.85,-1.79 0.37,-0.5 0.82,-0.87 1.35,-1.14 0.53,-0.27 1.13,-0.4 1.81,-0.4 0.8,0 1.48,0.16 2.05,0.48 0.57,0.32 1.04,0.76 1.41,1.33l0.06 -1.61 1.15 0 0 10.94c0,0.72 -0.11,1.37 -0.32,1.94 -0.21,0.57 -0.51,1.06 -0.9,1.45 -0.39,0.4 -0.86,0.7 -1.41,0.92 -0.55,0.21 -1.16,0.32 -1.84,0.32 -0.35,0 -0.71,-0.04 -1.07,-0.12 -0.37,-0.08 -0.72,-0.2 -1.05,-0.35 -0.34,-0.16 -0.66,-0.35 -0.96,-0.59 -0.3,-0.24 -0.57,-0.52 -0.79,-0.84l0.69 -0.74c0.45,0.56 0.93,0.96 1.44,1.22 0.51,0.26 1.06,0.39 1.67,0.39 0.53,0 1,-0.08 1.41,-0.24 0.41,-0.16 0.75,-0.39 1.04,-0.7 0.28,-0.31 0.5,-0.68 0.64,-1.11 0.15,-0.44 0.22,-0.93 0.22,-1.49l0 -1.3c-0.37,0.51 -0.84,0.92 -1.41,1.21 -0.57,0.29 -1.25,0.44 -2.04,0.44 -0.66,0 -1.26,-0.14 -1.79,-0.42 -0.53,-0.28 -0.98,-0.67 -1.35,-1.16 -0.37,-0.5 -0.65,-1.09 -0.85,-1.79 -0.2,-0.7 -0.3,-1.46 -0.3,-2.3l0 -0.21zm1.25 0.21c0,0.65 0.06,1.26 0.2,1.82 0.13,0.56 0.33,1.05 0.59,1.46 0.27,0.41 0.61,0.73 1.02,0.97 0.41,0.24 0.89,0.35 1.46,0.35 0.43,0 0.81,-0.05 1.15,-0.15 0.34,-0.1 0.64,-0.25 0.9,-0.43 0.26,-0.18 0.48,-0.39 0.68,-0.64 0.19,-0.25 0.36,-0.52 0.5,-0.81l0 -5.18c-0.12,-0.29 -0.27,-0.56 -0.45,-0.83 -0.18,-0.26 -0.4,-0.5 -0.66,-0.7 -0.26,-0.2 -0.56,-0.36 -0.9,-0.48 -0.34,-0.12 -0.74,-0.18 -1.19,-0.18 -0.57,0 -1.06,0.12 -1.47,0.35 -0.41,0.24 -0.75,0.56 -1.02,0.97 -0.27,0.41 -0.46,0.9 -0.59,1.46 -0.13,0.56 -0.2,1.17 -0.2,1.81l0 0.21zm17.97 5.46c-0.07,-0.19 -0.12,-0.43 -0.16,-0.71 -0.04,-0.28 -0.06,-0.56 -0.08,-0.85 -0.19,0.24 -0.41,0.46 -0.66,0.68 -0.25,0.21 -0.54,0.4 -0.85,0.56 -0.32,0.16 -0.66,0.28 -1.04,0.38 -0.38,0.09 -0.79,0.14 -1.23,0.14 -0.54,0 -1.03,-0.08 -1.48,-0.24 -0.44,-0.16 -0.82,-0.38 -1.13,-0.66 -0.31,-0.28 -0.56,-0.62 -0.73,-1 -0.17,-0.39 -0.26,-0.8 -0.26,-1.26 0,-0.54 0.12,-1.03 0.35,-1.47 0.23,-0.44 0.57,-0.81 1.01,-1.11 0.44,-0.31 0.97,-0.54 1.6,-0.7 0.63,-0.16 1.34,-0.24 2.12,-0.24l2.29 0 0 -1.27c0,-0.8 -0.25,-1.42 -0.74,-1.88 -0.49,-0.46 -1.21,-0.69 -2.15,-0.69 -0.43,0 -0.83,0.06 -1.19,0.18 -0.37,0.12 -0.68,0.28 -0.95,0.48 -0.26,0.2 -0.47,0.44 -0.61,0.71 -0.15,0.27 -0.22,0.56 -0.22,0.87l-1.24 -0.01c0,-0.42 0.1,-0.82 0.31,-1.22 0.21,-0.39 0.5,-0.74 0.87,-1.04 0.37,-0.31 0.82,-0.55 1.35,-0.73 0.53,-0.19 1.11,-0.28 1.75,-0.28 0.59,0 1.13,0.08 1.63,0.23 0.5,0.15 0.93,0.38 1.28,0.68 0.36,0.3 0.64,0.68 0.83,1.13 0.2,0.45 0.3,0.98 0.3,1.58l0 5.39c0,0.19 0.01,0.39 0.02,0.6 0.01,0.2 0.04,0.4 0.07,0.6 0.03,0.19 0.07,0.38 0.11,0.55 0.04,0.18 0.09,0.33 0.14,0.46l0 0.12 -1.32 0zm-3.87 -0.89c0.45,0 0.86,-0.06 1.24,-0.17 0.38,-0.12 0.73,-0.27 1.04,-0.47 0.31,-0.2 0.58,-0.43 0.8,-0.69 0.23,-0.27 0.41,-0.55 0.55,-0.86l0 -2.45 -2.11 0c-0.63,0 -1.19,0.06 -1.69,0.17 -0.5,0.11 -0.92,0.28 -1.26,0.49 -0.34,0.21 -0.6,0.47 -0.79,0.78 -0.18,0.31 -0.27,0.65 -0.27,1.04 0,0.3 0.06,0.58 0.17,0.85 0.12,0.26 0.28,0.49 0.5,0.69 0.22,0.2 0.48,0.35 0.79,0.46 0.31,0.11 0.65,0.17 1.04,0.17zm9.25 -10.25l0.04 1.81c0.19,-0.3 0.4,-0.58 0.64,-0.83 0.25,-0.25 0.52,-0.46 0.82,-0.64 0.3,-0.18 0.63,-0.31 0.99,-0.41 0.36,-0.09 0.74,-0.14 1.16,-0.14 0.82,0 1.51,0.17 2.1,0.52 0.58,0.34 1,0.89 1.25,1.65 0.18,-0.31 0.39,-0.6 0.64,-0.86 0.25,-0.26 0.53,-0.49 0.85,-0.69 0.32,-0.19 0.67,-0.34 1.05,-0.45 0.39,-0.11 0.8,-0.17 1.25,-0.17 0.58,0 1.09,0.08 1.54,0.23 0.45,0.15 0.84,0.4 1.15,0.73 0.31,0.33 0.55,0.76 0.71,1.27 0.17,0.52 0.25,1.13 0.25,1.86l0 7.26 -1.24 0 0 -7.27c0,-0.59 -0.06,-1.08 -0.19,-1.47 -0.13,-0.39 -0.32,-0.7 -0.56,-0.93 -0.24,-0.23 -0.53,-0.39 -0.86,-0.48 -0.33,-0.09 -0.7,-0.13 -1.1,-0.13 -0.52,0.01 -0.98,0.1 -1.37,0.28 -0.39,0.18 -0.72,0.41 -0.99,0.69 -0.27,0.28 -0.48,0.59 -0.63,0.93 -0.15,0.34 -0.24,0.68 -0.27,1l0 7.37 -1.24 0 0 -7.36c0,-0.56 -0.06,-1.02 -0.19,-1.39 -0.13,-0.37 -0.32,-0.67 -0.56,-0.9 -0.24,-0.23 -0.53,-0.39 -0.86,-0.48 -0.33,-0.1 -0.7,-0.14 -1.11,-0.14 -0.47,0 -0.88,0.07 -1.24,0.22 -0.35,0.15 -0.67,0.34 -0.93,0.59 -0.26,0.25 -0.48,0.53 -0.65,0.84 -0.17,0.32 -0.31,0.64 -0.41,0.98l0 7.64 -1.23 0 0 -11.14 1.18 0zm21.88 11.35c-0.73,0 -1.4,-0.14 -2.01,-0.41 -0.61,-0.27 -1.13,-0.65 -1.58,-1.13 -0.44,-0.48 -0.79,-1.06 -1.04,-1.73 -0.25,-0.67 -0.37,-1.4 -0.37,-2.19l0 -0.44c0,-0.86 0.13,-1.63 0.39,-2.33 0.26,-0.7 0.6,-1.29 1.04,-1.78 0.44,-0.49 0.95,-0.87 1.52,-1.14 0.57,-0.27 1.18,-0.4 1.82,-0.4 0.71,0 1.34,0.13 1.88,0.38 0.55,0.25 1.01,0.61 1.38,1.06 0.38,0.45 0.66,0.99 0.85,1.62 0.19,0.62 0.29,1.31 0.29,2.05l0 0.75 -7.95 0 0 0.24c0,0.61 0.09,1.18 0.28,1.73 0.19,0.54 0.45,1.01 0.78,1.4 0.34,0.4 0.74,0.71 1.21,0.95 0.47,0.23 0.98,0.34 1.55,0.34 0.66,0 1.24,-0.12 1.75,-0.36 0.5,-0.24 0.96,-0.63 1.37,-1.15l0.77 0.59c-0.19,0.27 -0.4,0.52 -0.64,0.76 -0.25,0.24 -0.53,0.45 -0.85,0.63 -0.32,0.18 -0.69,0.32 -1.09,0.42 -0.4,0.1 -0.86,0.15 -1.36,0.15zm-0.23 -10.5c-0.47,0 -0.9,0.09 -1.3,0.27 -0.4,0.18 -0.75,0.44 -1.05,0.76 -0.31,0.33 -0.56,0.73 -0.75,1.19 -0.2,0.46 -0.33,0.97 -0.4,1.54l6.68 0 0 -0.13c-0.01,-0.47 -0.09,-0.92 -0.22,-1.36 -0.14,-0.44 -0.34,-0.82 -0.6,-1.16 -0.27,-0.34 -0.59,-0.61 -0.98,-0.81 -0.39,-0.2 -0.85,-0.31 -1.37,-0.31zm12.82 10.3l0 -10.13 -1.84 0 0 -1.01 1.84 0 0 -1.38c0,-0.56 0.08,-1.06 0.23,-1.5 0.15,-0.44 0.37,-0.81 0.65,-1.1 0.29,-0.3 0.63,-0.52 1.04,-0.67 0.4,-0.15 0.86,-0.23 1.38,-0.23 0.21,0 0.43,0.01 0.65,0.04 0.22,0.03 0.44,0.07 0.65,0.13l-0.09 1.03c-0.17,-0.04 -0.34,-0.07 -0.52,-0.09 -0.18,-0.02 -0.38,-0.03 -0.6,-0.03 -0.68,0 -1.21,0.21 -1.58,0.63 -0.38,0.42 -0.57,1.02 -0.57,1.8l0 1.38 2.65 0 0 1.01 -2.65 0 0 10.13 -1.24 0zm5.41 -5.73c0,-0.81 0.12,-1.56 0.35,-2.25 0.24,-0.69 0.57,-1.28 1,-1.77 0.43,-0.5 0.96,-0.89 1.57,-1.17 0.61,-0.28 1.29,-0.43 2.04,-0.43 0.76,0 1.45,0.14 2.06,0.43 0.61,0.28 1.14,0.67 1.57,1.17 0.43,0.5 0.77,1.09 1,1.77 0.24,0.69 0.35,1.44 0.35,2.25l0 0.34c0,0.81 -0.12,1.56 -0.35,2.24 -0.23,0.69 -0.57,1.28 -1,1.78 -0.43,0.5 -0.95,0.89 -1.56,1.16 -0.61,0.28 -1.29,0.42 -2.05,0.42 -0.76,0 -1.44,-0.14 -2.05,-0.42 -0.61,-0.28 -1.14,-0.67 -1.57,-1.16 -0.44,-0.5 -0.77,-1.09 -1.01,-1.78 -0.24,-0.69 -0.35,-1.43 -0.35,-2.24l0 -0.34zm1.23 0.34c0,0.61 0.08,1.19 0.25,1.74 0.16,0.56 0.4,1.04 0.72,1.45 0.32,0.42 0.71,0.75 1.17,0.99 0.46,0.25 1,0.37 1.61,0.37 0.6,0 1.13,-0.12 1.6,-0.37 0.46,-0.25 0.85,-0.58 1.17,-0.99 0.32,-0.41 0.56,-0.9 0.72,-1.45 0.17,-0.55 0.25,-1.13 0.25,-1.74l0 -0.34c0,-0.6 -0.08,-1.17 -0.25,-1.73 -0.16,-0.55 -0.4,-1.04 -0.72,-1.45 -0.32,-0.42 -0.71,-0.75 -1.18,-1.01 -0.47,-0.25 -1,-0.38 -1.61,-0.38 -0.6,0 -1.13,0.13 -1.59,0.38 -0.46,0.25 -0.85,0.59 -1.17,1.01 -0.32,0.42 -0.56,0.9 -0.72,1.45 -0.17,0.56 -0.25,1.13 -0.25,1.73l0 0.34zm16.4 -4.69c-0.26,-0.05 -0.54,-0.07 -0.83,-0.07 -0.42,0 -0.8,0.06 -1.13,0.19 -0.33,0.12 -0.63,0.3 -0.89,0.52 -0.26,0.22 -0.47,0.49 -0.65,0.79 -0.17,0.31 -0.31,0.64 -0.41,1.01l0 7.65 -1.23 0 0 -11.14 1.21 0 0.02 1.77c0.3,-0.61 0.71,-1.09 1.23,-1.45 0.52,-0.35 1.15,-0.53 1.91,-0.53 0.15,0 0.31,0.01 0.46,0.04 0.16,0.03 0.27,0.06 0.35,0.1l-0.03 1.12zm16.04 4.63c0,0.84 -0.1,1.6 -0.28,2.3 -0.19,0.69 -0.46,1.29 -0.83,1.79 -0.36,0.5 -0.81,0.89 -1.34,1.16 -0.53,0.28 -1.13,0.42 -1.8,0.42 -0.82,0 -1.51,-0.15 -2.09,-0.46 -0.58,-0.31 -1.06,-0.73 -1.43,-1.27l-0.05 1.53 -1.15 0 0 -15.81 1.23 0 0 6.29c0.37,-0.58 0.84,-1.02 1.41,-1.34 0.57,-0.32 1.26,-0.48 2.07,-0.48 0.68,0 1.28,0.14 1.81,0.4 0.53,0.27 0.97,0.65 1.34,1.14 0.37,0.5 0.65,1.09 0.83,1.79 0.19,0.7 0.28,1.48 0.28,2.34l0 0.21zm-1.24 -0.21c0,-0.65 -0.06,-1.25 -0.18,-1.81 -0.13,-0.56 -0.32,-1.05 -0.58,-1.46 -0.26,-0.41 -0.6,-0.73 -1.02,-0.97 -0.41,-0.24 -0.9,-0.35 -1.48,-0.35 -0.47,0 -0.88,0.06 -1.24,0.19 -0.36,0.13 -0.66,0.3 -0.93,0.51 -0.26,0.21 -0.48,0.46 -0.66,0.73 -0.18,0.27 -0.32,0.56 -0.43,0.86l0 5.02c0.13,0.3 0.29,0.57 0.49,0.83 0.2,0.26 0.43,0.48 0.7,0.67 0.27,0.19 0.57,0.34 0.92,0.44 0.34,0.11 0.73,0.16 1.17,0.16 0.56,0 1.04,-0.12 1.45,-0.35 0.41,-0.23 0.74,-0.56 1.02,-0.97 0.27,-0.41 0.46,-0.9 0.59,-1.46 0.13,-0.56 0.19,-1.16 0.19,-1.82l0 -0.21zm3.27 -0.06c0,-0.81 0.12,-1.56 0.35,-2.25 0.24,-0.69 0.57,-1.28 1,-1.77 0.43,-0.5 0.96,-0.89 1.57,-1.17 0.61,-0.28 1.29,-0.43 2.04,-0.43 0.76,0 1.45,0.14 2.06,0.43 0.61,0.28 1.14,0.67 1.57,1.17 0.43,0.5 0.77,1.09 1,1.77 0.24,0.69 0.35,1.44 0.35,2.25l0 0.34c0,0.81 -0.12,1.56 -0.35,2.24 -0.23,0.69 -0.57,1.28 -1,1.78 -0.43,0.5 -0.95,0.89 -1.56,1.16 -0.61,0.28 -1.29,0.42 -2.05,0.42 -0.76,0 -1.44,-0.14 -2.05,-0.42 -0.61,-0.28 -1.14,-0.67 -1.57,-1.16 -0.44,-0.5 -0.77,-1.09 -1.01,-1.78 -0.24,-0.69 -0.35,-1.43 -0.35,-2.24l0 -0.34zm1.23 0.34c0,0.61 0.08,1.19 0.25,1.74 0.16,0.56 0.4,1.04 0.72,1.45 0.32,0.42 0.71,0.75 1.17,0.99 0.46,0.25 1,0.37 1.61,0.37 0.6,0 1.13,-0.12 1.6,-0.37 0.46,-0.25 0.85,-0.58 1.17,-0.99 0.32,-0.41 0.56,-0.9 0.72,-1.45 0.17,-0.55 0.25,-1.13 0.25,-1.74l0 -0.34c0,-0.6 -0.08,-1.17 -0.25,-1.73 -0.16,-0.55 -0.4,-1.04 -0.72,-1.45 -0.32,-0.42 -0.71,-0.75 -1.18,-1.01 -0.47,-0.25 -1,-0.38 -1.61,-0.38 -0.6,0 -1.13,0.13 -1.59,0.38 -0.46,0.25 -0.85,0.59 -1.17,1.01 -0.32,0.42 -0.56,0.9 -0.72,1.45 -0.17,0.56 -0.25,1.13 -0.25,1.73l0 0.34zm14.63 3.62l3.25 -9.37 1.33 0 -4.72 12.92c-0.09,0.25 -0.22,0.54 -0.37,0.85 -0.15,0.32 -0.34,0.61 -0.58,0.89 -0.24,0.27 -0.53,0.51 -0.89,0.7 -0.35,0.19 -0.78,0.28 -1.29,0.28 -0.07,0 -0.15,-0 -0.24,-0.01 -0.09,-0.01 -0.18,-0.02 -0.27,-0.04 -0.09,-0.01 -0.18,-0.03 -0.25,-0.05 -0.08,-0.01 -0.14,-0.03 -0.19,-0.05l-0.01 -1.02c0.08,0.01 0.19,0.03 0.33,0.04 0.14,0.01 0.24,0.02 0.3,0.02 0.33,0 0.62,-0.04 0.87,-0.13 0.26,-0.08 0.48,-0.21 0.66,-0.38 0.19,-0.17 0.35,-0.38 0.5,-0.63 0.14,-0.26 0.28,-0.55 0.39,-0.87l0.53 -1.47 -4.2 -11.05 1.35 0 3.46 9.37z"/> <path class="fil1" d="M271.62 99.67c0,-0.23 -0.04,-0.45 -0.12,-0.68 -0.08,-0.23 -0.23,-0.44 -0.44,-0.64 -0.22,-0.2 -0.52,-0.39 -0.91,-0.57 -0.39,-0.18 -0.89,-0.33 -1.51,-0.46 -0.62,-0.13 -1.17,-0.28 -1.65,-0.45 -0.48,-0.17 -0.89,-0.38 -1.23,-0.62 -0.33,-0.24 -0.59,-0.53 -0.76,-0.87 -0.17,-0.34 -0.26,-0.73 -0.26,-1.18 0,-0.41 0.09,-0.8 0.27,-1.17 0.18,-0.37 0.44,-0.7 0.78,-0.97 0.34,-0.27 0.75,-0.49 1.23,-0.65 0.48,-0.16 1.03,-0.24 1.63,-0.24 0.64,0 1.22,0.08 1.73,0.25 0.51,0.17 0.95,0.4 1.3,0.7 0.35,0.3 0.63,0.65 0.81,1.06 0.19,0.4 0.28,0.84 0.28,1.32l-1.24 0c0,-0.29 -0.06,-0.57 -0.19,-0.84 -0.13,-0.28 -0.31,-0.52 -0.56,-0.73 -0.25,-0.21 -0.55,-0.38 -0.91,-0.51 -0.36,-0.13 -0.77,-0.2 -1.23,-0.2 -0.48,0 -0.89,0.06 -1.23,0.18 -0.34,0.12 -0.61,0.27 -0.83,0.45 -0.21,0.19 -0.37,0.39 -0.47,0.62 -0.1,0.23 -0.15,0.46 -0.15,0.7 0,0.25 0.04,0.47 0.11,0.67 0.08,0.2 0.22,0.39 0.44,0.57 0.21,0.18 0.52,0.34 0.91,0.48 0.39,0.15 0.89,0.29 1.52,0.44 0.67,0.16 1.25,0.33 1.74,0.53 0.48,0.19 0.89,0.42 1.21,0.68 0.32,0.27 0.56,0.57 0.71,0.91 0.15,0.34 0.23,0.73 0.23,1.18 0,0.46 -0.1,0.88 -0.29,1.26 -0.19,0.38 -0.47,0.71 -0.82,0.98 -0.36,0.27 -0.79,0.48 -1.3,0.63 -0.51,0.15 -1.07,0.23 -1.7,0.23 -0.71,0 -1.33,-0.09 -1.87,-0.27 -0.54,-0.18 -1,-0.43 -1.37,-0.74 -0.37,-0.31 -0.65,-0.66 -0.84,-1.06 -0.19,-0.4 -0.28,-0.82 -0.28,-1.25l1.23 0c0.03,0.44 0.14,0.8 0.34,1.1 0.2,0.29 0.45,0.53 0.74,0.7 0.3,0.18 0.62,0.3 0.98,0.38 0.36,0.08 0.72,0.12 1.06,0.12 0.47,0 0.88,-0.06 1.24,-0.17 0.35,-0.11 0.66,-0.26 0.9,-0.44 0.24,-0.19 0.43,-0.4 0.55,-0.64 0.12,-0.24 0.18,-0.49 0.18,-0.75z"/> </g> <g id="_1577826139840"> <path class="fil1" d="M318.18 51.9l-3.1 0 0 -12.49 -6 0 0 12.49 -3.09 0 0 -14.99 12.19 0 0 14.99zm2.05 -5.67c0,-0.81 0.12,-1.56 0.35,-2.26 0.23,-0.69 0.57,-1.29 1.02,-1.8 0.45,-0.51 1,-0.9 1.65,-1.19 0.66,-0.29 1.4,-0.43 2.24,-0.43 0.85,0 1.6,0.14 2.26,0.43 0.66,0.29 1.21,0.69 1.66,1.19 0.45,0.5 0.79,1.1 1.03,1.8 0.23,0.69 0.35,1.44 0.35,2.26l0 0.21c0,0.82 -0.12,1.57 -0.35,2.26 -0.24,0.69 -0.58,1.29 -1.03,1.79 -0.45,0.51 -1,0.9 -1.65,1.18 -0.65,0.28 -1.4,0.43 -2.25,0.43 -0.84,0 -1.59,-0.14 -2.25,-0.43 -0.65,-0.28 -1.21,-0.68 -1.66,-1.18 -0.45,-0.51 -0.79,-1.1 -1.02,-1.79 -0.23,-0.69 -0.35,-1.44 -0.35,-2.26l0 -0.21zm2.98 0.21c0,0.45 0.04,0.88 0.12,1.28 0.08,0.4 0.21,0.74 0.4,1.03 0.18,0.29 0.42,0.52 0.71,0.7 0.29,0.17 0.65,0.26 1.08,0.26 0.41,0 0.77,-0.08 1.06,-0.26 0.29,-0.17 0.53,-0.4 0.71,-0.7 0.19,-0.29 0.32,-0.64 0.4,-1.03 0.08,-0.4 0.12,-0.83 0.12,-1.28l0 -0.21c0,-0.44 -0.04,-0.86 -0.12,-1.25 -0.08,-0.4 -0.22,-0.74 -0.4,-1.04 -0.19,-0.3 -0.43,-0.53 -0.72,-0.71 -0.3,-0.18 -0.65,-0.26 -1.07,-0.26 -0.41,0 -0.76,0.09 -1.05,0.26 -0.29,0.18 -0.53,0.41 -0.71,0.71 -0.18,0.3 -0.31,0.64 -0.4,1.04 -0.08,0.39 -0.12,0.81 -0.12,1.25l0 0.21zm16.12 -5.68l2.98 0 0 11.14 -2.98 0 0 -6.88 -3.72 6.88 -2.99 0 0 -11.14 2.99 0 0 6.87 3.72 -6.87zm9.88 8.95c0.27,0 0.52,-0.04 0.75,-0.12 0.23,-0.08 0.43,-0.19 0.59,-0.33 0.17,-0.14 0.3,-0.32 0.39,-0.52 0.1,-0.2 0.14,-0.43 0.15,-0.69l2.79 0c-0.01,0.59 -0.13,1.13 -0.37,1.63 -0.24,0.5 -0.57,0.92 -0.98,1.29 -0.41,0.36 -0.9,0.64 -1.46,0.84 -0.56,0.2 -1.16,0.3 -1.81,0.3 -0.86,0 -1.62,-0.15 -2.26,-0.44 -0.65,-0.29 -1.18,-0.69 -1.61,-1.19 -0.43,-0.5 -0.74,-1.1 -0.96,-1.78 -0.21,-0.68 -0.32,-1.42 -0.32,-2.21l0 -0.29c0,-0.79 0.11,-1.53 0.32,-2.21 0.21,-0.69 0.53,-1.28 0.96,-1.79 0.43,-0.51 0.96,-0.91 1.6,-1.2 0.64,-0.29 1.39,-0.44 2.25,-0.44 0.69,0 1.31,0.1 1.88,0.31 0.57,0.2 1.05,0.49 1.46,0.87 0.4,0.38 0.72,0.84 0.95,1.38 0.23,0.54 0.34,1.14 0.35,1.81l-2.79 0c-0.01,-0.27 -0.05,-0.52 -0.14,-0.76 -0.08,-0.24 -0.21,-0.44 -0.37,-0.61 -0.16,-0.18 -0.35,-0.32 -0.59,-0.42 -0.23,-0.1 -0.5,-0.15 -0.8,-0.15 -0.43,0 -0.79,0.09 -1.06,0.27 -0.27,0.18 -0.49,0.42 -0.64,0.72 -0.15,0.3 -0.26,0.64 -0.31,1.03 -0.06,0.39 -0.08,0.8 -0.08,1.22l0 0.29c0,0.43 0.03,0.83 0.08,1.23 0.05,0.39 0.16,0.73 0.31,1.03 0.15,0.3 0.37,0.53 0.64,0.7 0.27,0.18 0.64,0.26 1.08,0.26zm10.72 -1.92l-1.19 0 0 4.11 -2.98 0 0 -11.14 2.98 0 0 4.19 1.06 0 2.43 -4.19 3.76 0 -3.64 5.3 3.98 5.84 -3.96 0 -2.43 -4.11zm6.47 -1.56c0,-0.81 0.12,-1.56 0.35,-2.26 0.23,-0.69 0.57,-1.29 1.02,-1.8 0.45,-0.51 1,-0.9 1.65,-1.19 0.66,-0.29 1.4,-0.43 2.24,-0.43 0.85,0 1.6,0.14 2.26,0.43 0.66,0.29 1.21,0.69 1.66,1.19 0.45,0.5 0.79,1.1 1.03,1.8 0.23,0.69 0.35,1.44 0.35,2.26l0 0.21c0,0.82 -0.12,1.57 -0.35,2.26 -0.24,0.69 -0.58,1.29 -1.03,1.79 -0.45,0.51 -1,0.9 -1.65,1.18 -0.65,0.28 -1.4,0.43 -2.25,0.43 -0.84,0 -1.59,-0.14 -2.25,-0.43 -0.65,-0.28 -1.21,-0.68 -1.66,-1.18 -0.45,-0.51 -0.79,-1.1 -1.02,-1.79 -0.23,-0.69 -0.35,-1.44 -0.35,-2.26l0 -0.21zm2.98 0.21c0,0.45 0.04,0.88 0.12,1.28 0.08,0.4 0.21,0.74 0.4,1.03 0.18,0.29 0.42,0.52 0.71,0.7 0.29,0.17 0.65,0.26 1.08,0.26 0.41,0 0.77,-0.08 1.06,-0.26 0.29,-0.17 0.53,-0.4 0.71,-0.7 0.19,-0.29 0.32,-0.64 0.4,-1.03 0.08,-0.4 0.12,-0.83 0.12,-1.28l0 -0.21c0,-0.44 -0.04,-0.86 -0.12,-1.25 -0.08,-0.4 -0.22,-0.74 -0.4,-1.04 -0.19,-0.3 -0.43,-0.53 -0.72,-0.71 -0.3,-0.18 -0.65,-0.26 -1.07,-0.26 -0.41,0 -0.76,0.09 -1.05,0.26 -0.29,0.18 -0.53,0.41 -0.71,0.71 -0.18,0.3 -0.31,0.64 -0.4,1.04 -0.08,0.39 -0.12,0.81 -0.12,1.25l0 0.21zm9.61 5.46l0 -11.14 4.65 0c0.72,0 1.37,0.06 1.96,0.19 0.58,0.13 1.08,0.32 1.48,0.58 0.4,0.26 0.72,0.58 0.93,0.97 0.22,0.39 0.33,0.84 0.33,1.37 0,0.51 -0.17,0.98 -0.51,1.38 -0.34,0.41 -0.84,0.72 -1.49,0.94 0.44,0.08 0.82,0.2 1.13,0.37 0.32,0.17 0.59,0.36 0.8,0.58 0.21,0.22 0.37,0.46 0.47,0.73 0.1,0.27 0.15,0.55 0.15,0.85 0,0.53 -0.1,0.99 -0.3,1.39 -0.2,0.4 -0.5,0.73 -0.89,0.99 -0.39,0.26 -0.86,0.46 -1.43,0.6 -0.56,0.13 -1.21,0.2 -1.94,0.2l-5.37 0zm2.98 -4.62l0 2.24 2.4 0c0.55,0 0.95,-0.09 1.2,-0.28 0.25,-0.19 0.38,-0.46 0.38,-0.82 0,-0.34 -0.12,-0.62 -0.35,-0.83 -0.24,-0.21 -0.64,-0.31 -1.22,-0.31l-2.4 0zm0 -2l1.84 0c0.54,-0.01 0.94,-0.09 1.19,-0.26 0.25,-0.17 0.38,-0.42 0.38,-0.75 0,-0.4 -0.14,-0.69 -0.43,-0.86 -0.28,-0.17 -0.72,-0.26 -1.3,-0.26l-1.68 0 0 2.13zm11.94 -1.25l2.11 0c0.76,0 1.44,0.1 2.04,0.29 0.6,0.19 1.1,0.46 1.51,0.81 0.41,0.34 0.72,0.76 0.94,1.25 0.21,0.48 0.32,1.03 0.32,1.62 0,0.57 -0.11,1.09 -0.32,1.57 -0.22,0.48 -0.53,0.89 -0.94,1.24 -0.41,0.35 -0.91,0.62 -1.51,0.82 -0.6,0.19 -1.28,0.29 -2.04,0.29l-5.09 0 0 -11.14 2.98 0 0 3.26zm11.66 7.87l-2.98 0 0 -11.14 2.98 0 0 11.14zm-11.66 -5.49l0 3.11 2.11 0c0.33,0 0.61,-0.04 0.84,-0.12 0.24,-0.08 0.42,-0.19 0.57,-0.33 0.14,-0.14 0.25,-0.31 0.32,-0.49 0.07,-0.19 0.11,-0.38 0.11,-0.59 0,-0.21 -0.04,-0.41 -0.11,-0.61 -0.07,-0.19 -0.18,-0.36 -0.32,-0.51 -0.14,-0.14 -0.33,-0.26 -0.57,-0.34 -0.23,-0.08 -0.51,-0.13 -0.84,-0.13l-2.11 0zm20.98 -5.65l2.98 0 0 11.14 -2.98 0 0 -6.88 -3.72 6.88 -2.99 0 0 -11.14 2.99 0 0 6.87 3.72 -6.87zm1.75 -4.53c0,0.45 -0.08,0.87 -0.25,1.24 -0.17,0.38 -0.41,0.7 -0.71,0.96 -0.31,0.27 -0.69,0.48 -1.12,0.63 -0.44,0.15 -0.93,0.23 -1.47,0.23 -0.55,0 -1.04,-0.07 -1.48,-0.23 -0.44,-0.15 -0.81,-0.36 -1.12,-0.63 -0.31,-0.27 -0.54,-0.59 -0.71,-0.96 -0.17,-0.37 -0.25,-0.79 -0.25,-1.24l2.11 0c0,0.18 0.02,0.35 0.08,0.52 0.05,0.16 0.14,0.31 0.25,0.43 0.12,0.12 0.27,0.22 0.45,0.3 0.18,0.07 0.41,0.11 0.67,0.11 0.26,0 0.48,-0.04 0.66,-0.11 0.18,-0.08 0.33,-0.18 0.44,-0.3 0.11,-0.12 0.2,-0.27 0.25,-0.43 0.05,-0.17 0.08,-0.34 0.08,-0.52l2.13 0zm13.1 9.01c0.54,0 0.92,-0.11 1.15,-0.33 0.23,-0.22 0.34,-0.51 0.34,-0.86 0,-0.15 -0.02,-0.3 -0.07,-0.45 -0.05,-0.15 -0.13,-0.28 -0.24,-0.4 -0.11,-0.12 -0.26,-0.21 -0.45,-0.28 -0.19,-0.07 -0.43,-0.11 -0.72,-0.11 -0.48,0 -0.88,0.1 -1.19,0.3 -0.31,0.2 -0.46,0.49 -0.46,0.86l-2.98 0c0,-0.53 0.12,-1.01 0.35,-1.43 0.23,-0.42 0.55,-0.78 0.96,-1.07 0.4,-0.29 0.88,-0.52 1.42,-0.67 0.54,-0.15 1.12,-0.23 1.74,-0.23 0.7,0 1.34,0.07 1.9,0.21 0.57,0.14 1.06,0.35 1.46,0.62 0.4,0.27 0.71,0.61 0.93,1.02 0.21,0.4 0.32,0.87 0.32,1.4 0,0.5 -0.15,0.95 -0.45,1.36 -0.3,0.42 -0.72,0.75 -1.26,0.99 0.62,0.22 1.1,0.54 1.42,0.98 0.32,0.44 0.48,0.97 0.48,1.61 0,0.53 -0.12,1 -0.35,1.42 -0.24,0.42 -0.57,0.77 -0.99,1.06 -0.42,0.29 -0.93,0.51 -1.52,0.66 -0.59,0.15 -1.23,0.23 -1.94,0.23 -0.58,0 -1.14,-0.07 -1.69,-0.21 -0.56,-0.14 -1.05,-0.35 -1.49,-0.63 -0.44,-0.28 -0.79,-0.65 -1.06,-1.09 -0.27,-0.44 -0.4,-0.97 -0.4,-1.58l2.98 0c0,0.17 0.04,0.33 0.11,0.48 0.08,0.15 0.19,0.28 0.34,0.4 0.15,0.12 0.34,0.21 0.57,0.28 0.23,0.07 0.49,0.1 0.79,0.1 0.3,0 0.56,-0.04 0.77,-0.11 0.21,-0.08 0.39,-0.18 0.52,-0.31 0.13,-0.13 0.23,-0.27 0.3,-0.43 0.06,-0.16 0.09,-0.32 0.09,-0.49 0,-0.49 -0.14,-0.84 -0.42,-1.04 -0.28,-0.21 -0.7,-0.32 -1.27,-0.32l-1.62 0 0 -1.94 1.62 0zm12.93 6.66c-0.14,-0.27 -0.24,-0.6 -0.3,-1 -0.3,0.34 -0.68,0.62 -1.14,0.85 -0.45,0.23 -1.01,0.35 -1.67,0.35 -0.53,0 -1.03,-0.08 -1.5,-0.25 -0.46,-0.17 -0.86,-0.39 -1.21,-0.69 -0.34,-0.3 -0.6,-0.65 -0.8,-1.05 -0.19,-0.41 -0.29,-0.86 -0.29,-1.35 0,-0.58 0.11,-1.1 0.33,-1.55 0.21,-0.45 0.54,-0.84 0.97,-1.15 0.43,-0.32 0.97,-0.56 1.61,-0.72 0.64,-0.17 1.39,-0.25 2.24,-0.25l1.33 0 0 -0.64c0,-0.52 -0.13,-0.93 -0.4,-1.24 -0.26,-0.31 -0.68,-0.46 -1.25,-0.46 -0.5,0 -0.89,0.12 -1.18,0.36 -0.28,0.24 -0.43,0.57 -0.43,0.99l-2.97 0c0,-0.48 0.11,-0.93 0.33,-1.37 0.22,-0.43 0.54,-0.81 0.95,-1.13 0.41,-0.32 0.91,-0.58 1.49,-0.77 0.58,-0.19 1.23,-0.28 1.95,-0.28 0.65,0 1.24,0.08 1.79,0.25 0.55,0.17 1.02,0.41 1.42,0.73 0.4,0.33 0.71,0.73 0.93,1.23 0.23,0.49 0.34,1.06 0.34,1.71l0 4.71c0,0.32 0.01,0.6 0.03,0.85 0.02,0.25 0.05,0.48 0.08,0.68 0.04,0.2 0.08,0.38 0.13,0.54 0.06,0.16 0.12,0.31 0.2,0.46l0 0.18 -3.01 0zm-2.46 -2.07c0.25,0 0.49,-0.03 0.71,-0.09 0.21,-0.06 0.41,-0.14 0.58,-0.24 0.17,-0.1 0.32,-0.21 0.45,-0.34 0.13,-0.13 0.23,-0.26 0.3,-0.4l0 -1.91 -1.23 0c-0.39,0 -0.73,0.04 -1.02,0.13 -0.29,0.09 -0.52,0.21 -0.71,0.36 -0.19,0.15 -0.32,0.33 -0.41,0.54 -0.09,0.21 -0.13,0.44 -0.13,0.69 0,0.37 0.13,0.67 0.39,0.92 0.26,0.24 0.62,0.36 1.07,0.36zm17 2.07l-2.99 0 0 -8.73 -3.72 0 0 8.73 -2.98 0 0 -11.14 9.69 0 0 11.14zm12.3 -5.47c0,0.81 -0.1,1.56 -0.28,2.26 -0.19,0.69 -0.46,1.29 -0.83,1.8 -0.36,0.51 -0.82,0.9 -1.35,1.19 -0.54,0.29 -1.16,0.43 -1.86,0.43 -0.59,0 -1.11,-0.11 -1.56,-0.31 -0.45,-0.21 -0.84,-0.5 -1.17,-0.86l0 5.25 -2.98 0 0 -15.42 2.76 0 0.11 1.09c0.34,-0.41 0.74,-0.73 1.2,-0.96 0.46,-0.23 1,-0.34 1.62,-0.34 0.71,0 1.33,0.14 1.88,0.41 0.54,0.27 0.99,0.66 1.36,1.15 0.37,0.5 0.64,1.1 0.83,1.79 0.19,0.7 0.28,1.47 0.28,2.31l0 0.21zm-2.98 -0.21c0,-0.46 -0.04,-0.89 -0.12,-1.28 -0.08,-0.39 -0.2,-0.74 -0.38,-1.03 -0.17,-0.29 -0.39,-0.52 -0.66,-0.69 -0.27,-0.16 -0.6,-0.25 -0.99,-0.25 -0.49,0 -0.89,0.09 -1.2,0.27 -0.31,0.18 -0.55,0.45 -0.72,0.8l0 4.56c0.17,0.34 0.41,0.61 0.72,0.81 0.31,0.2 0.72,0.3 1.22,0.3 0.39,0 0.72,-0.08 0.99,-0.26 0.27,-0.17 0.49,-0.41 0.66,-0.71 0.17,-0.3 0.29,-0.65 0.37,-1.04 0.07,-0.4 0.11,-0.82 0.11,-1.27l0 -0.21zm4.35 0.01c0,-0.81 0.12,-1.56 0.35,-2.26 0.23,-0.69 0.57,-1.29 1.02,-1.8 0.45,-0.51 1,-0.9 1.65,-1.19 0.66,-0.29 1.4,-0.43 2.24,-0.43 0.85,0 1.6,0.14 2.26,0.43 0.66,0.29 1.21,0.69 1.66,1.19 0.45,0.5 0.79,1.1 1.03,1.8 0.23,0.69 0.35,1.44 0.35,2.26l0 0.21c0,0.82 -0.12,1.57 -0.35,2.26 -0.24,0.69 -0.58,1.29 -1.03,1.79 -0.45,0.51 -1,0.9 -1.65,1.18 -0.65,0.28 -1.4,0.43 -2.25,0.43 -0.84,0 -1.59,-0.14 -2.25,-0.43 -0.65,-0.28 -1.21,-0.68 -1.66,-1.18 -0.45,-0.51 -0.79,-1.1 -1.02,-1.79 -0.23,-0.69 -0.35,-1.44 -0.35,-2.26l0 -0.21zm2.98 0.21c0,0.45 0.04,0.88 0.12,1.28 0.08,0.4 0.21,0.74 0.4,1.03 0.18,0.29 0.42,0.52 0.71,0.7 0.29,0.17 0.65,0.26 1.08,0.26 0.41,0 0.77,-0.08 1.06,-0.26 0.29,-0.17 0.53,-0.4 0.71,-0.7 0.19,-0.29 0.32,-0.64 0.4,-1.03 0.08,-0.4 0.12,-0.83 0.12,-1.28l0 -0.21c0,-0.44 -0.04,-0.86 -0.12,-1.25 -0.08,-0.4 -0.22,-0.74 -0.4,-1.04 -0.19,-0.3 -0.43,-0.53 -0.72,-0.71 -0.3,-0.18 -0.65,-0.26 -1.07,-0.26 -0.41,0 -0.76,0.09 -1.05,0.26 -0.29,0.18 -0.53,0.41 -0.71,0.71 -0.18,0.3 -0.31,0.64 -0.4,1.04 -0.08,0.39 -0.12,0.81 -0.12,1.25l0 0.21zm14.04 3.26c0.27,0 0.52,-0.04 0.75,-0.12 0.23,-0.08 0.43,-0.19 0.59,-0.33 0.17,-0.14 0.3,-0.32 0.39,-0.52 0.1,-0.2 0.14,-0.43 0.15,-0.69l2.79 0c-0.01,0.59 -0.13,1.13 -0.37,1.63 -0.24,0.5 -0.57,0.92 -0.98,1.29 -0.41,0.36 -0.9,0.64 -1.46,0.84 -0.56,0.2 -1.16,0.3 -1.81,0.3 -0.86,0 -1.62,-0.15 -2.26,-0.44 -0.65,-0.29 -1.18,-0.69 -1.61,-1.19 -0.43,-0.5 -0.74,-1.1 -0.96,-1.78 -0.21,-0.68 -0.32,-1.42 -0.32,-2.21l0 -0.29c0,-0.79 0.11,-1.53 0.32,-2.21 0.21,-0.69 0.53,-1.28 0.96,-1.79 0.43,-0.51 0.96,-0.91 1.6,-1.2 0.64,-0.29 1.39,-0.44 2.25,-0.44 0.69,0 1.31,0.1 1.88,0.31 0.57,0.2 1.05,0.49 1.46,0.87 0.4,0.38 0.72,0.84 0.95,1.38 0.23,0.54 0.34,1.14 0.35,1.81l-2.79 0c-0.01,-0.27 -0.05,-0.52 -0.14,-0.76 -0.08,-0.24 -0.21,-0.44 -0.37,-0.61 -0.16,-0.18 -0.35,-0.32 -0.59,-0.42 -0.23,-0.1 -0.5,-0.15 -0.8,-0.15 -0.43,0 -0.79,0.09 -1.06,0.27 -0.27,0.18 -0.49,0.42 -0.64,0.72 -0.15,0.3 -0.26,0.64 -0.31,1.03 -0.06,0.39 -0.08,0.8 -0.08,1.22l0 0.29c0,0.43 0.03,0.83 0.08,1.23 0.05,0.39 0.16,0.73 0.31,1.03 0.15,0.3 0.37,0.53 0.64,0.7 0.27,0.18 0.64,0.26 1.08,0.26zm-172.69 47.34c0,0.84 -0.1,1.6 -0.28,2.3 -0.19,0.69 -0.46,1.29 -0.83,1.79 -0.36,0.5 -0.81,0.89 -1.34,1.16 -0.53,0.28 -1.13,0.42 -1.8,0.42 -0.82,0 -1.51,-0.15 -2.09,-0.46 -0.58,-0.31 -1.06,-0.73 -1.43,-1.27l-0.05 1.53 -1.15 0 0 -15.81 1.23 0 0 6.29c0.37,-0.58 0.84,-1.02 1.41,-1.34 0.57,-0.32 1.26,-0.48 2.07,-0.48 0.68,0 1.28,0.14 1.81,0.4 0.53,0.27 0.97,0.65 1.34,1.14 0.37,0.5 0.65,1.09 0.83,1.79 0.19,0.7 0.28,1.48 0.28,2.34l0 0.21zm-1.24 -0.21c0,-0.65 -0.06,-1.25 -0.18,-1.81 -0.13,-0.56 -0.32,-1.05 -0.58,-1.46 -0.26,-0.41 -0.6,-0.73 -1.02,-0.97 -0.41,-0.24 -0.9,-0.35 -1.48,-0.35 -0.47,0 -0.88,0.06 -1.24,0.19 -0.36,0.13 -0.66,0.3 -0.93,0.51 -0.26,0.21 -0.48,0.46 -0.66,0.73 -0.18,0.27 -0.32,0.56 -0.43,0.86l0 5.02c0.13,0.3 0.29,0.57 0.49,0.83 0.2,0.26 0.43,0.48 0.7,0.67 0.27,0.19 0.57,0.34 0.92,0.44 0.34,0.11 0.73,0.16 1.17,0.16 0.56,0 1.04,-0.12 1.45,-0.35 0.41,-0.23 0.74,-0.56 1.02,-0.97 0.27,-0.41 0.46,-0.9 0.59,-1.46 0.13,-0.56 0.19,-1.16 0.19,-1.82l0 -0.21zm3.27 -0.06c0,-0.81 0.12,-1.56 0.35,-2.25 0.24,-0.69 0.57,-1.28 1,-1.77 0.43,-0.5 0.96,-0.89 1.57,-1.17 0.61,-0.28 1.29,-0.43 2.04,-0.43 0.76,0 1.45,0.14 2.06,0.43 0.61,0.28 1.14,0.67 1.57,1.17 0.43,0.5 0.77,1.09 1,1.77 0.24,0.69 0.35,1.44 0.35,2.25l0 0.34c0,0.81 -0.12,1.56 -0.35,2.24 -0.23,0.69 -0.57,1.28 -1,1.78 -0.43,0.5 -0.95,0.89 -1.56,1.16 -0.61,0.28 -1.29,0.42 -2.05,0.42 -0.76,0 -1.44,-0.14 -2.05,-0.42 -0.61,-0.28 -1.14,-0.67 -1.57,-1.16 -0.44,-0.5 -0.77,-1.09 -1.01,-1.78 -0.24,-0.69 -0.35,-1.43 -0.35,-2.24l0 -0.34zm1.23 0.34c0,0.61 0.08,1.19 0.25,1.74 0.16,0.56 0.4,1.04 0.72,1.45 0.32,0.42 0.71,0.75 1.17,0.99 0.46,0.25 1,0.37 1.61,0.37 0.6,0 1.13,-0.12 1.6,-0.37 0.46,-0.25 0.85,-0.58 1.17,-0.99 0.32,-0.41 0.56,-0.9 0.72,-1.45 0.17,-0.55 0.25,-1.13 0.25,-1.74l0 -0.34c0,-0.6 -0.08,-1.17 -0.25,-1.73 -0.16,-0.55 -0.4,-1.04 -0.72,-1.45 -0.32,-0.42 -0.71,-0.75 -1.18,-1.01 -0.47,-0.25 -1,-0.38 -1.61,-0.38 -0.6,0 -1.13,0.13 -1.59,0.38 -0.46,0.25 -0.85,0.59 -1.17,1.01 -0.32,0.42 -0.56,0.9 -0.72,1.45 -0.17,0.56 -0.25,1.13 -0.25,1.73l0 0.34zm14.63 3.62l3.25 -9.37 1.33 0 -4.72 12.92c-0.09,0.25 -0.22,0.54 -0.37,0.85 -0.15,0.32 -0.34,0.61 -0.58,0.89 -0.24,0.27 -0.53,0.51 -0.89,0.7 -0.35,0.19 -0.78,0.28 -1.29,0.28 -0.07,0 -0.15,-0 -0.24,-0.01 -0.09,-0.01 -0.18,-0.02 -0.27,-0.04 -0.09,-0.01 -0.18,-0.03 -0.25,-0.05 -0.08,-0.01 -0.14,-0.03 -0.19,-0.05l-0.01 -1.02c0.08,0.01 0.19,0.03 0.33,0.04 0.14,0.01 0.24,0.02 0.3,0.02 0.33,0 0.62,-0.04 0.87,-0.13 0.26,-0.08 0.48,-0.21 0.66,-0.38 0.19,-0.17 0.35,-0.38 0.5,-0.63 0.14,-0.26 0.28,-0.55 0.39,-0.87l0.53 -1.47 -4.2 -11.05 1.35 0 3.46 9.37zm13.16 -1.06c0,-0.23 -0.04,-0.45 -0.12,-0.68 -0.08,-0.23 -0.23,-0.44 -0.44,-0.64 -0.22,-0.2 -0.52,-0.39 -0.91,-0.57 -0.39,-0.18 -0.89,-0.33 -1.51,-0.46 -0.62,-0.13 -1.17,-0.28 -1.65,-0.45 -0.48,-0.17 -0.89,-0.38 -1.23,-0.62 -0.33,-0.24 -0.59,-0.53 -0.76,-0.87 -0.17,-0.34 -0.26,-0.73 -0.26,-1.18 0,-0.41 0.09,-0.8 0.27,-1.17 0.18,-0.37 0.44,-0.7 0.78,-0.97 0.34,-0.27 0.75,-0.49 1.23,-0.65 0.48,-0.16 1.03,-0.24 1.63,-0.24 0.64,0 1.22,0.08 1.73,0.25 0.51,0.17 0.95,0.4 1.3,0.7 0.35,0.3 0.63,0.65 0.81,1.06 0.19,0.4 0.28,0.84 0.28,1.32l-1.24 0c0,-0.29 -0.06,-0.57 -0.19,-0.84 -0.13,-0.28 -0.31,-0.52 -0.56,-0.73 -0.25,-0.21 -0.55,-0.38 -0.91,-0.51 -0.36,-0.13 -0.77,-0.2 -1.23,-0.2 -0.48,0 -0.89,0.06 -1.23,0.18 -0.34,0.12 -0.61,0.27 -0.83,0.45 -0.21,0.19 -0.37,0.39 -0.47,0.62 -0.1,0.23 -0.15,0.46 -0.15,0.7 0,0.25 0.04,0.47 0.11,0.67 0.08,0.2 0.22,0.39 0.44,0.57 0.21,0.18 0.52,0.34 0.91,0.48 0.39,0.15 0.89,0.29 1.52,0.44 0.67,0.16 1.25,0.33 1.74,0.53 0.48,0.19 0.89,0.42 1.21,0.68 0.32,0.27 0.56,0.57 0.71,0.91 0.15,0.34 0.23,0.73 0.23,1.18 0,0.46 -0.1,0.88 -0.29,1.26 -0.19,0.38 -0.47,0.71 -0.82,0.98 -0.36,0.27 -0.79,0.48 -1.3,0.63 -0.51,0.15 -1.07,0.23 -1.7,0.23 -0.71,0 -1.33,-0.09 -1.87,-0.27 -0.54,-0.18 -1,-0.43 -1.37,-0.74 -0.37,-0.31 -0.65,-0.66 -0.84,-1.06 -0.19,-0.4 -0.28,-0.82 -0.28,-1.25l1.23 0c0.03,0.44 0.14,0.8 0.34,1.1 0.2,0.29 0.45,0.53 0.74,0.7 0.3,0.18 0.62,0.3 0.98,0.38 0.36,0.08 0.72,0.12 1.06,0.12 0.47,0 0.88,-0.06 1.24,-0.17 0.35,-0.11 0.66,-0.26 0.9,-0.44 0.24,-0.19 0.43,-0.4 0.55,-0.64 0.12,-0.24 0.18,-0.49 0.18,-0.75zm13.45 3.04c-0.73,0 -1.4,-0.14 -2.01,-0.41 -0.61,-0.27 -1.13,-0.65 -1.58,-1.13 -0.44,-0.48 -0.79,-1.06 -1.04,-1.73 -0.25,-0.67 -0.37,-1.4 -0.37,-2.19l0 -0.44c0,-0.86 0.13,-1.63 0.39,-2.33 0.26,-0.7 0.6,-1.29 1.04,-1.78 0.44,-0.49 0.95,-0.87 1.52,-1.14 0.57,-0.27 1.18,-0.4 1.82,-0.4 0.71,0 1.34,0.13 1.88,0.38 0.55,0.25 1.01,0.61 1.38,1.06 0.38,0.45 0.66,0.99 0.85,1.62 0.19,0.62 0.29,1.31 0.29,2.05l0 0.75 -7.95 0 0 0.24c0,0.61 0.09,1.18 0.28,1.73 0.19,0.54 0.45,1.01 0.78,1.4 0.34,0.4 0.74,0.71 1.21,0.95 0.47,0.23 0.98,0.34 1.55,0.34 0.66,0 1.24,-0.12 1.75,-0.36 0.5,-0.24 0.96,-0.63 1.37,-1.15l0.77 0.59c-0.19,0.27 -0.4,0.52 -0.64,0.76 -0.25,0.24 -0.53,0.45 -0.85,0.63 -0.32,0.18 -0.69,0.32 -1.09,0.42 -0.4,0.1 -0.86,0.15 -1.36,0.15zm-0.23 -10.5c-0.47,0 -0.9,0.09 -1.3,0.27 -0.4,0.18 -0.75,0.44 -1.05,0.76 -0.31,0.33 -0.56,0.73 -0.75,1.19 -0.2,0.46 -0.33,0.97 -0.4,1.54l6.68 0 0 -0.13c-0.01,-0.47 -0.09,-0.92 -0.22,-1.36 -0.14,-0.44 -0.34,-0.82 -0.6,-1.16 -0.27,-0.34 -0.59,-0.61 -0.98,-0.81 -0.39,-0.2 -0.85,-0.31 -1.37,-0.31zm7.98 -0.84l0.04 1.9c0.19,-0.32 0.41,-0.6 0.66,-0.86 0.25,-0.26 0.53,-0.48 0.84,-0.67 0.31,-0.19 0.64,-0.33 1,-0.43 0.35,-0.1 0.73,-0.15 1.13,-0.15 0.56,0 1.05,0.08 1.49,0.23 0.44,0.15 0.81,0.39 1.12,0.72 0.3,0.33 0.54,0.75 0.7,1.27 0.16,0.52 0.24,1.14 0.24,1.88l0 7.25 -1.23 0 0 -7.26c0,-0.58 -0.06,-1.06 -0.19,-1.44 -0.12,-0.38 -0.3,-0.69 -0.52,-0.92 -0.23,-0.24 -0.5,-0.4 -0.83,-0.5 -0.33,-0.1 -0.69,-0.15 -1.09,-0.15 -0.44,0 -0.84,0.07 -1.19,0.22 -0.35,0.15 -0.67,0.34 -0.95,0.59 -0.27,0.25 -0.51,0.53 -0.71,0.85 -0.2,0.32 -0.35,0.65 -0.47,0.98l0 7.63 -1.23 0 0 -11.14 1.17 0z"/> <path class="fil1" d="M377.37 96.83c0,-0.86 0.1,-1.65 0.3,-2.34 0.2,-0.7 0.48,-1.29 0.86,-1.79 0.37,-0.5 0.82,-0.87 1.35,-1.14 0.53,-0.27 1.13,-0.4 1.8,-0.4 0.79,0 1.47,0.16 2.03,0.47 0.57,0.32 1.03,0.75 1.41,1.31l0 -6.25 1.22 0 0 15.81 -1.15 0 -0.05 -1.48c-0.37,0.53 -0.84,0.94 -1.41,1.24 -0.58,0.3 -1.26,0.45 -2.07,0.45 -0.66,0 -1.25,-0.14 -1.78,-0.42 -0.53,-0.28 -0.98,-0.67 -1.35,-1.16 -0.37,-0.5 -0.66,-1.09 -0.86,-1.79 -0.2,-0.7 -0.3,-1.46 -0.3,-2.3l0 -0.21zm1.25 0.21c0,0.65 0.06,1.26 0.2,1.82 0.13,0.56 0.33,1.05 0.59,1.46 0.27,0.41 0.61,0.73 1.02,0.97 0.41,0.24 0.89,0.35 1.46,0.35 0.42,0 0.8,-0.05 1.13,-0.15 0.34,-0.1 0.64,-0.24 0.91,-0.41 0.26,-0.18 0.5,-0.39 0.69,-0.64 0.2,-0.25 0.36,-0.51 0.5,-0.8l0 -5.23c-0.13,-0.28 -0.28,-0.55 -0.45,-0.81 -0.18,-0.26 -0.4,-0.49 -0.66,-0.7 -0.26,-0.2 -0.56,-0.36 -0.91,-0.48 -0.34,-0.12 -0.74,-0.18 -1.19,-0.18 -0.57,0 -1.06,0.12 -1.47,0.35 -0.41,0.24 -0.75,0.56 -1.02,0.97 -0.27,0.41 -0.46,0.9 -0.59,1.46 -0.13,0.56 -0.2,1.17 -0.2,1.81l0 0.21zm12.34 5.46l-1.24 0 0 -15.81 1.24 0 0 15.81zm7.66 0.21c-0.73,0 -1.4,-0.14 -2.01,-0.41 -0.61,-0.27 -1.13,-0.65 -1.58,-1.13 -0.44,-0.48 -0.79,-1.06 -1.04,-1.73 -0.25,-0.67 -0.37,-1.4 -0.37,-2.19l0 -0.44c0,-0.86 0.13,-1.63 0.39,-2.33 0.26,-0.7 0.6,-1.29 1.04,-1.78 0.44,-0.49 0.95,-0.87 1.52,-1.14 0.57,-0.27 1.18,-0.4 1.82,-0.4 0.71,0 1.34,0.13 1.88,0.38 0.55,0.25 1.01,0.61 1.38,1.06 0.38,0.45 0.66,0.99 0.85,1.62 0.19,0.62 0.29,1.31 0.29,2.05l0 0.75 -7.95 0 0 0.24c0,0.61 0.09,1.18 0.28,1.73 0.19,0.54 0.45,1.01 0.78,1.4 0.34,0.4 0.74,0.71 1.21,0.95 0.47,0.23 0.98,0.34 1.55,0.34 0.66,0 1.24,-0.12 1.75,-0.36 0.5,-0.24 0.96,-0.63 1.37,-1.15l0.77 0.59c-0.19,0.27 -0.4,0.52 -0.64,0.76 -0.25,0.24 -0.53,0.45 -0.85,0.63 -0.32,0.18 -0.69,0.32 -1.09,0.42 -0.4,0.1 -0.86,0.15 -1.36,0.15zm-0.23 -10.5c-0.47,0 -0.9,0.09 -1.3,0.27 -0.4,0.18 -0.75,0.44 -1.05,0.76 -0.31,0.33 -0.56,0.73 -0.75,1.19 -0.2,0.46 -0.33,0.97 -0.4,1.54l6.68 0 0 -0.13c-0.01,-0.47 -0.09,-0.92 -0.22,-1.36 -0.14,-0.44 -0.34,-0.82 -0.6,-1.16 -0.27,-0.34 -0.59,-0.61 -0.98,-0.81 -0.39,-0.2 -0.85,-0.31 -1.37,-0.31zm13.48 7.46c0,-0.23 -0.04,-0.45 -0.12,-0.68 -0.08,-0.23 -0.23,-0.44 -0.44,-0.64 -0.22,-0.2 -0.52,-0.39 -0.91,-0.57 -0.39,-0.18 -0.89,-0.33 -1.51,-0.46 -0.62,-0.13 -1.17,-0.28 -1.65,-0.45 -0.48,-0.17 -0.89,-0.38 -1.23,-0.62 -0.33,-0.24 -0.59,-0.53 -0.76,-0.87 -0.17,-0.34 -0.26,-0.73 -0.26,-1.18 0,-0.41 0.09,-0.8 0.27,-1.17 0.18,-0.37 0.44,-0.7 0.78,-0.97 0.34,-0.27 0.75,-0.49 1.23,-0.65 0.48,-0.16 1.03,-0.24 1.63,-0.24 0.64,0 1.22,0.08 1.73,0.25 0.51,0.17 0.95,0.4 1.3,0.7 0.35,0.3 0.63,0.65 0.81,1.06 0.19,0.4 0.28,0.84 0.28,1.32l-1.24 0c0,-0.29 -0.06,-0.57 -0.19,-0.84 -0.13,-0.28 -0.31,-0.52 -0.56,-0.73 -0.25,-0.21 -0.55,-0.38 -0.91,-0.51 -0.36,-0.13 -0.77,-0.2 -1.23,-0.2 -0.48,0 -0.89,0.06 -1.23,0.18 -0.34,0.12 -0.61,0.27 -0.83,0.45 -0.21,0.19 -0.37,0.39 -0.47,0.62 -0.1,0.23 -0.15,0.46 -0.15,0.7 0,0.25 0.04,0.47 0.11,0.67 0.08,0.2 0.22,0.39 0.44,0.57 0.21,0.18 0.52,0.34 0.91,0.48 0.39,0.15 0.89,0.29 1.52,0.44 0.67,0.16 1.25,0.33 1.74,0.53 0.48,0.19 0.89,0.42 1.21,0.68 0.32,0.27 0.56,0.57 0.71,0.91 0.15,0.34 0.23,0.73 0.23,1.18 0,0.46 -0.1,0.88 -0.29,1.26 -0.19,0.38 -0.47,0.71 -0.82,0.98 -0.36,0.27 -0.79,0.48 -1.3,0.63 -0.51,0.15 -1.07,0.23 -1.7,0.23 -0.71,0 -1.33,-0.09 -1.87,-0.27 -0.54,-0.18 -1,-0.43 -1.37,-0.74 -0.37,-0.31 -0.65,-0.66 -0.84,-1.06 -0.19,-0.4 -0.28,-0.82 -0.28,-1.25l1.23 0c0.03,0.44 0.14,0.8 0.34,1.1 0.2,0.29 0.45,0.53 0.74,0.7 0.3,0.18 0.62,0.3 0.98,0.38 0.36,0.08 0.72,0.12 1.06,0.12 0.47,0 0.88,-0.06 1.24,-0.17 0.35,-0.11 0.66,-0.26 0.9,-0.44 0.24,-0.19 0.43,-0.4 0.55,-0.64 0.12,-0.24 0.18,-0.49 0.18,-0.75zm10.67 0c0,-0.23 -0.04,-0.45 -0.12,-0.68 -0.08,-0.23 -0.23,-0.44 -0.44,-0.64 -0.22,-0.2 -0.52,-0.39 -0.91,-0.57 -0.39,-0.18 -0.89,-0.33 -1.51,-0.46 -0.62,-0.13 -1.17,-0.28 -1.65,-0.45 -0.48,-0.17 -0.89,-0.38 -1.23,-0.62 -0.33,-0.24 -0.59,-0.53 -0.76,-0.87 -0.17,-0.34 -0.26,-0.73 -0.26,-1.18 0,-0.41 0.09,-0.8 0.27,-1.17 0.18,-0.37 0.44,-0.7 0.78,-0.97 0.34,-0.27 0.75,-0.49 1.23,-0.65 0.48,-0.16 1.03,-0.24 1.63,-0.24 0.64,0 1.22,0.08 1.73,0.25 0.51,0.17 0.95,0.4 1.3,0.7 0.35,0.3 0.63,0.65 0.81,1.06 0.19,0.4 0.28,0.84 0.28,1.32l-1.24 0c0,-0.29 -0.06,-0.57 -0.19,-0.84 -0.13,-0.28 -0.31,-0.52 -0.56,-0.73 -0.25,-0.21 -0.55,-0.38 -0.91,-0.51 -0.36,-0.13 -0.77,-0.2 -1.23,-0.2 -0.48,0 -0.89,0.06 -1.23,0.18 -0.34,0.12 -0.61,0.27 -0.83,0.45 -0.21,0.19 -0.37,0.39 -0.47,0.62 -0.1,0.23 -0.15,0.46 -0.15,0.7 0,0.25 0.04,0.47 0.11,0.67 0.08,0.2 0.22,0.39 0.44,0.57 0.21,0.18 0.52,0.34 0.91,0.48 0.39,0.15 0.89,0.29 1.52,0.44 0.67,0.16 1.25,0.33 1.74,0.53 0.48,0.19 0.89,0.42 1.21,0.68 0.32,0.27 0.56,0.57 0.71,0.91 0.15,0.34 0.23,0.73 0.23,1.18 0,0.46 -0.1,0.88 -0.29,1.26 -0.19,0.38 -0.47,0.71 -0.82,0.98 -0.36,0.27 -0.79,0.48 -1.3,0.63 -0.51,0.15 -1.07,0.23 -1.7,0.23 -0.71,0 -1.33,-0.09 -1.87,-0.27 -0.54,-0.18 -1,-0.43 -1.37,-0.74 -0.37,-0.31 -0.65,-0.66 -0.84,-1.06 -0.19,-0.4 -0.28,-0.82 -0.28,-1.25l1.23 0c0.03,0.44 0.14,0.8 0.34,1.1 0.2,0.29 0.45,0.53 0.74,0.7 0.3,0.18 0.62,0.3 0.98,0.38 0.36,0.08 0.72,0.12 1.06,0.12 0.47,0 0.88,-0.06 1.24,-0.17 0.35,-0.11 0.66,-0.26 0.9,-0.44 0.24,-0.19 0.43,-0.4 0.55,-0.64 0.12,-0.24 0.18,-0.49 0.18,-0.75zm8.64 -2.84c0,-0.86 0.1,-1.65 0.3,-2.34 0.2,-0.7 0.48,-1.29 0.85,-1.79 0.37,-0.5 0.82,-0.87 1.35,-1.14 0.53,-0.27 1.13,-0.4 1.81,-0.4 0.8,0 1.48,0.16 2.05,0.48 0.57,0.32 1.04,0.76 1.41,1.33l0.06 -1.61 1.15 0 0 10.94c0,0.72 -0.11,1.37 -0.32,1.94 -0.21,0.57 -0.51,1.06 -0.9,1.45 -0.39,0.4 -0.86,0.7 -1.41,0.92 -0.55,0.21 -1.16,0.32 -1.84,0.32 -0.35,0 -0.71,-0.04 -1.07,-0.12 -0.37,-0.08 -0.72,-0.2 -1.05,-0.35 -0.34,-0.16 -0.66,-0.35 -0.96,-0.59 -0.3,-0.24 -0.57,-0.52 -0.79,-0.84l0.69 -0.74c0.45,0.56 0.93,0.96 1.44,1.22 0.51,0.26 1.06,0.39 1.67,0.39 0.53,0 1,-0.08 1.41,-0.24 0.41,-0.16 0.75,-0.39 1.04,-0.7 0.28,-0.31 0.5,-0.68 0.64,-1.11 0.15,-0.44 0.22,-0.93 0.22,-1.49l0 -1.3c-0.37,0.51 -0.84,0.92 -1.41,1.21 -0.57,0.29 -1.25,0.44 -2.04,0.44 -0.66,0 -1.26,-0.14 -1.79,-0.42 -0.53,-0.28 -0.98,-0.67 -1.35,-1.16 -0.37,-0.5 -0.65,-1.09 -0.85,-1.79 -0.2,-0.7 -0.3,-1.46 -0.3,-2.3l0 -0.21zm1.25 0.21c0,0.65 0.06,1.26 0.2,1.82 0.13,0.56 0.33,1.05 0.59,1.46 0.27,0.41 0.61,0.73 1.02,0.97 0.41,0.24 0.89,0.35 1.46,0.35 0.43,0 0.81,-0.05 1.15,-0.15 0.34,-0.1 0.64,-0.25 0.9,-0.43 0.26,-0.18 0.48,-0.39 0.68,-0.64 0.19,-0.25 0.36,-0.52 0.5,-0.81l0 -5.18c-0.12,-0.29 -0.27,-0.56 -0.45,-0.83 -0.18,-0.26 -0.4,-0.5 -0.66,-0.7 -0.26,-0.2 -0.56,-0.36 -0.9,-0.48 -0.34,-0.12 -0.74,-0.18 -1.19,-0.18 -0.57,0 -1.06,0.12 -1.47,0.35 -0.41,0.24 -0.75,0.56 -1.02,0.97 -0.27,0.41 -0.46,0.9 -0.59,1.46 -0.13,0.56 -0.2,1.17 -0.2,1.81l0 0.21zm17.97 5.46c-0.07,-0.19 -0.12,-0.43 -0.16,-0.71 -0.04,-0.28 -0.06,-0.56 -0.08,-0.85 -0.19,0.24 -0.41,0.46 -0.66,0.68 -0.25,0.21 -0.54,0.4 -0.85,0.56 -0.32,0.16 -0.66,0.28 -1.04,0.38 -0.38,0.09 -0.79,0.14 -1.23,0.14 -0.54,0 -1.03,-0.08 -1.48,-0.24 -0.44,-0.16 -0.82,-0.38 -1.13,-0.66 -0.31,-0.28 -0.56,-0.62 -0.73,-1 -0.17,-0.39 -0.26,-0.8 -0.26,-1.26 0,-0.54 0.12,-1.03 0.35,-1.47 0.23,-0.44 0.57,-0.81 1.01,-1.11 0.44,-0.31 0.97,-0.54 1.6,-0.7 0.63,-0.16 1.34,-0.24 2.12,-0.24l2.29 0 0 -1.27c0,-0.8 -0.25,-1.42 -0.74,-1.88 -0.49,-0.46 -1.21,-0.69 -2.15,-0.69 -0.43,0 -0.83,0.06 -1.19,0.18 -0.37,0.12 -0.68,0.28 -0.95,0.48 -0.26,0.2 -0.47,0.44 -0.61,0.71 -0.15,0.27 -0.22,0.56 -0.22,0.87l-1.24 -0.01c0,-0.42 0.1,-0.82 0.31,-1.22 0.21,-0.39 0.5,-0.74 0.87,-1.04 0.37,-0.31 0.82,-0.55 1.35,-0.73 0.53,-0.19 1.11,-0.28 1.75,-0.28 0.59,0 1.13,0.08 1.63,0.23 0.5,0.15 0.93,0.38 1.28,0.68 0.36,0.3 0.64,0.68 0.83,1.13 0.2,0.45 0.3,0.98 0.3,1.58l0 5.39c0,0.19 0.01,0.39 0.02,0.6 0.01,0.2 0.04,0.4 0.07,0.6 0.03,0.19 0.07,0.38 0.11,0.55 0.04,0.18 0.09,0.33 0.14,0.46l0 0.12 -1.32 0zm-3.87 -0.89c0.45,0 0.86,-0.06 1.24,-0.17 0.38,-0.12 0.73,-0.27 1.04,-0.47 0.31,-0.2 0.58,-0.43 0.8,-0.69 0.23,-0.27 0.41,-0.55 0.55,-0.86l0 -2.45 -2.11 0c-0.63,0 -1.19,0.06 -1.69,0.17 -0.5,0.11 -0.92,0.28 -1.26,0.49 -0.34,0.21 -0.6,0.47 -0.79,0.78 -0.18,0.31 -0.27,0.65 -0.27,1.04 0,0.3 0.06,0.58 0.17,0.85 0.12,0.26 0.28,0.49 0.5,0.69 0.22,0.2 0.48,0.35 0.79,0.46 0.31,0.11 0.65,0.17 1.04,0.17zm9.25 -10.25l0.04 1.81c0.19,-0.3 0.4,-0.58 0.64,-0.83 0.25,-0.25 0.52,-0.46 0.82,-0.64 0.3,-0.18 0.63,-0.31 0.99,-0.41 0.36,-0.09 0.74,-0.14 1.16,-0.14 0.82,0 1.51,0.17 2.1,0.52 0.58,0.34 1,0.89 1.25,1.65 0.18,-0.31 0.39,-0.6 0.64,-0.86 0.25,-0.26 0.53,-0.49 0.85,-0.69 0.32,-0.19 0.67,-0.34 1.05,-0.45 0.39,-0.11 0.8,-0.17 1.25,-0.17 0.58,0 1.09,0.08 1.54,0.23 0.45,0.15 0.84,0.4 1.15,0.73 0.31,0.33 0.55,0.76 0.71,1.27 0.17,0.52 0.25,1.13 0.25,1.86l0 7.26 -1.24 0 0 -7.27c0,-0.59 -0.06,-1.08 -0.19,-1.47 -0.13,-0.39 -0.32,-0.7 -0.56,-0.93 -0.24,-0.23 -0.53,-0.39 -0.86,-0.48 -0.33,-0.09 -0.7,-0.13 -1.1,-0.13 -0.52,0.01 -0.98,0.1 -1.37,0.28 -0.39,0.18 -0.72,0.41 -0.99,0.69 -0.27,0.28 -0.48,0.59 -0.63,0.93 -0.15,0.34 -0.24,0.68 -0.27,1l0 7.37 -1.24 0 0 -7.36c0,-0.56 -0.06,-1.02 -0.19,-1.39 -0.13,-0.37 -0.32,-0.67 -0.56,-0.9 -0.24,-0.23 -0.53,-0.39 -0.86,-0.48 -0.33,-0.1 -0.7,-0.14 -1.11,-0.14 -0.47,0 -0.88,0.07 -1.24,0.22 -0.35,0.15 -0.67,0.34 -0.93,0.59 -0.26,0.25 -0.48,0.53 -0.65,0.84 -0.17,0.32 -0.31,0.64 -0.41,0.98l0 7.64 -1.23 0 0 -11.14 1.18 0zm21.88 11.35c-0.73,0 -1.4,-0.14 -2.01,-0.41 -0.61,-0.27 -1.13,-0.65 -1.58,-1.13 -0.44,-0.48 -0.79,-1.06 -1.04,-1.73 -0.25,-0.67 -0.37,-1.4 -0.37,-2.19l0 -0.44c0,-0.86 0.13,-1.63 0.39,-2.33 0.26,-0.7 0.6,-1.29 1.04,-1.78 0.44,-0.49 0.95,-0.87 1.52,-1.14 0.57,-0.27 1.18,-0.4 1.82,-0.4 0.71,0 1.34,0.13 1.88,0.38 0.55,0.25 1.01,0.61 1.38,1.06 0.38,0.45 0.66,0.99 0.85,1.62 0.19,0.62 0.29,1.31 0.29,2.05l0 0.75 -7.95 0 0 0.24c0,0.61 0.09,1.18 0.28,1.73 0.19,0.54 0.45,1.01 0.78,1.4 0.34,0.4 0.74,0.71 1.21,0.95 0.47,0.23 0.98,0.34 1.55,0.34 0.66,0 1.24,-0.12 1.75,-0.36 0.5,-0.24 0.96,-0.63 1.37,-1.15l0.77 0.59c-0.19,0.27 -0.4,0.52 -0.64,0.76 -0.25,0.24 -0.53,0.45 -0.85,0.63 -0.32,0.18 -0.69,0.32 -1.09,0.42 -0.4,0.1 -0.86,0.15 -1.36,0.15zm-0.23 -10.5c-0.47,0 -0.9,0.09 -1.3,0.27 -0.4,0.18 -0.75,0.44 -1.05,0.76 -0.31,0.33 -0.56,0.73 -0.75,1.19 -0.2,0.46 -0.33,0.97 -0.4,1.54l6.68 0 0 -0.13c-0.01,-0.47 -0.09,-0.92 -0.22,-1.36 -0.14,-0.44 -0.34,-0.82 -0.6,-1.16 -0.27,-0.34 -0.59,-0.61 -0.98,-0.81 -0.39,-0.2 -0.85,-0.31 -1.37,-0.31zm7.99 9.8c0,0.31 -0.03,0.62 -0.1,0.93 -0.06,0.31 -0.16,0.6 -0.28,0.89 -0.13,0.28 -0.28,0.55 -0.45,0.8 -0.18,0.25 -0.38,0.48 -0.61,0.69l-0.73 -0.53c0.32,-0.43 0.56,-0.85 0.72,-1.28 0.17,-0.43 0.25,-0.92 0.25,-1.46l0 -1.46 1.21 0 0 1.44zm-174.87 26.01c-0.73,0 -1.4,-0.14 -2.01,-0.41 -0.61,-0.27 -1.13,-0.65 -1.58,-1.13 -0.44,-0.48 -0.79,-1.06 -1.04,-1.73 -0.25,-0.67 -0.37,-1.4 -0.37,-2.19l0 -0.44c0,-0.86 0.13,-1.63 0.39,-2.33 0.26,-0.7 0.6,-1.29 1.04,-1.78 0.44,-0.49 0.95,-0.87 1.52,-1.14 0.57,-0.27 1.18,-0.4 1.82,-0.4 0.71,0 1.34,0.13 1.88,0.38 0.55,0.25 1.01,0.61 1.38,1.06 0.38,0.45 0.66,0.99 0.85,1.62 0.19,0.62 0.29,1.31 0.29,2.05l0 0.75 -7.95 0 0 0.24c0,0.61 0.09,1.18 0.28,1.73 0.19,0.54 0.45,1.01 0.78,1.4 0.34,0.4 0.74,0.71 1.21,0.95 0.47,0.23 0.98,0.34 1.55,0.34 0.66,0 1.24,-0.12 1.75,-0.36 0.5,-0.24 0.96,-0.63 1.37,-1.15l0.77 0.59c-0.19,0.27 -0.4,0.52 -0.64,0.76 -0.25,0.24 -0.53,0.45 -0.85,0.63 -0.32,0.18 -0.69,0.32 -1.09,0.42 -0.4,0.1 -0.86,0.15 -1.36,0.15zm-0.23 -10.5c-0.47,0 -0.9,0.09 -1.3,0.27 -0.4,0.18 -0.75,0.44 -1.05,0.76 -0.31,0.33 -0.56,0.73 -0.75,1.19 -0.2,0.46 -0.33,0.97 -0.4,1.54l6.68 0 0 -0.13c-0.01,-0.47 -0.09,-0.92 -0.22,-1.36 -0.14,-0.44 -0.34,-0.82 -0.6,-1.16 -0.27,-0.34 -0.59,-0.61 -0.98,-0.81 -0.39,-0.2 -0.85,-0.31 -1.37,-0.31zm7.98 -0.84l0.04 1.9c0.19,-0.32 0.41,-0.6 0.66,-0.86 0.25,-0.26 0.53,-0.48 0.84,-0.67 0.31,-0.19 0.64,-0.33 1,-0.43 0.35,-0.1 0.73,-0.15 1.13,-0.15 0.56,0 1.05,0.08 1.49,0.23 0.44,0.15 0.81,0.39 1.12,0.72 0.3,0.33 0.54,0.75 0.7,1.27 0.16,0.52 0.24,1.14 0.24,1.88l0 7.25 -1.23 0 0 -7.26c0,-0.58 -0.06,-1.06 -0.19,-1.44 -0.12,-0.38 -0.3,-0.69 -0.52,-0.92 -0.23,-0.24 -0.5,-0.4 -0.83,-0.5 -0.33,-0.1 -0.69,-0.15 -1.09,-0.15 -0.44,0 -0.84,0.07 -1.19,0.22 -0.35,0.15 -0.67,0.34 -0.95,0.59 -0.27,0.25 -0.51,0.53 -0.71,0.85 -0.2,0.32 -0.35,0.65 -0.47,0.98l0 7.63 -1.23 0 0 -11.14 1.17 0zm9.91 5.47c0,-0.86 0.1,-1.65 0.3,-2.34 0.2,-0.7 0.48,-1.29 0.86,-1.79 0.37,-0.5 0.82,-0.87 1.35,-1.14 0.53,-0.27 1.13,-0.4 1.8,-0.4 0.79,0 1.47,0.16 2.03,0.47 0.57,0.32 1.03,0.75 1.41,1.31l0 -6.25 1.22 0 0 15.81 -1.15 0 -0.05 -1.48c-0.37,0.53 -0.84,0.94 -1.41,1.24 -0.58,0.3 -1.26,0.45 -2.07,0.45 -0.66,0 -1.25,-0.14 -1.78,-0.42 -0.53,-0.28 -0.98,-0.67 -1.35,-1.16 -0.37,-0.5 -0.66,-1.09 -0.86,-1.79 -0.2,-0.7 -0.3,-1.46 -0.3,-2.3l0 -0.21zm1.25 0.21c0,0.65 0.06,1.26 0.2,1.82 0.13,0.56 0.33,1.05 0.59,1.46 0.27,0.41 0.61,0.73 1.02,0.97 0.41,0.24 0.89,0.35 1.46,0.35 0.42,0 0.8,-0.05 1.13,-0.15 0.34,-0.1 0.64,-0.24 0.91,-0.41 0.26,-0.18 0.5,-0.39 0.69,-0.64 0.2,-0.25 0.36,-0.51 0.5,-0.8l0 -5.23c-0.13,-0.28 -0.28,-0.55 -0.45,-0.81 -0.18,-0.26 -0.4,-0.49 -0.66,-0.7 -0.26,-0.2 -0.56,-0.36 -0.91,-0.48 -0.34,-0.12 -0.74,-0.18 -1.19,-0.18 -0.57,0 -1.06,0.12 -1.47,0.35 -0.41,0.24 -0.75,0.56 -1.02,0.97 -0.27,0.41 -0.46,0.9 -0.59,1.46 -0.13,0.56 -0.2,1.17 -0.2,1.81l0 0.21zm12.34 5.46l-1.24 0 0 -15.81 1.24 0 0 15.81zm7.66 0.21c-0.73,0 -1.4,-0.14 -2.01,-0.41 -0.61,-0.27 -1.13,-0.65 -1.58,-1.13 -0.44,-0.48 -0.79,-1.06 -1.04,-1.73 -0.25,-0.67 -0.37,-1.4 -0.37,-2.19l0 -0.44c0,-0.86 0.13,-1.63 0.39,-2.33 0.26,-0.7 0.6,-1.29 1.04,-1.78 0.44,-0.49 0.95,-0.87 1.52,-1.14 0.57,-0.27 1.18,-0.4 1.82,-0.4 0.71,0 1.34,0.13 1.88,0.38 0.55,0.25 1.01,0.61 1.38,1.06 0.38,0.45 0.66,0.99 0.85,1.62 0.19,0.62 0.29,1.31 0.29,2.05l0 0.75 -7.95 0 0 0.24c0,0.61 0.09,1.18 0.28,1.73 0.19,0.54 0.45,1.01 0.78,1.4 0.34,0.4 0.74,0.71 1.21,0.95 0.47,0.23 0.98,0.34 1.55,0.34 0.66,0 1.24,-0.12 1.75,-0.36 0.5,-0.24 0.96,-0.63 1.37,-1.15l0.77 0.59c-0.19,0.27 -0.4,0.52 -0.64,0.76 -0.25,0.24 -0.53,0.45 -0.85,0.63 -0.32,0.18 -0.69,0.32 -1.09,0.42 -0.4,0.1 -0.86,0.15 -1.36,0.15zm-0.23 -10.5c-0.47,0 -0.9,0.09 -1.3,0.27 -0.4,0.18 -0.75,0.44 -1.05,0.76 -0.31,0.33 -0.56,0.73 -0.75,1.19 -0.2,0.46 -0.33,0.97 -0.4,1.54l6.68 0 0 -0.13c-0.01,-0.47 -0.09,-0.92 -0.22,-1.36 -0.14,-0.44 -0.34,-0.82 -0.6,-1.16 -0.27,-0.34 -0.59,-0.61 -0.98,-0.81 -0.39,-0.2 -0.85,-0.31 -1.37,-0.31zm13.48 7.46c0,-0.23 -0.04,-0.45 -0.12,-0.68 -0.08,-0.23 -0.23,-0.44 -0.44,-0.64 -0.22,-0.2 -0.52,-0.39 -0.91,-0.57 -0.39,-0.18 -0.89,-0.33 -1.51,-0.46 -0.62,-0.13 -1.17,-0.28 -1.65,-0.45 -0.48,-0.17 -0.89,-0.38 -1.23,-0.62 -0.33,-0.24 -0.59,-0.53 -0.76,-0.87 -0.17,-0.34 -0.26,-0.73 -0.26,-1.18 0,-0.41 0.09,-0.8 0.27,-1.17 0.18,-0.37 0.44,-0.7 0.78,-0.97 0.34,-0.27 0.75,-0.49 1.23,-0.65 0.48,-0.16 1.03,-0.24 1.63,-0.24 0.64,0 1.22,0.08 1.73,0.25 0.51,0.17 0.95,0.4 1.3,0.7 0.35,0.3 0.63,0.65 0.81,1.06 0.19,0.4 0.28,0.84 0.28,1.32l-1.24 0c0,-0.29 -0.06,-0.57 -0.19,-0.84 -0.13,-0.28 -0.31,-0.52 -0.56,-0.73 -0.25,-0.21 -0.55,-0.38 -0.91,-0.51 -0.36,-0.13 -0.77,-0.2 -1.23,-0.2 -0.48,0 -0.89,0.06 -1.23,0.18 -0.34,0.12 -0.61,0.27 -0.83,0.45 -0.21,0.19 -0.37,0.39 -0.47,0.62 -0.1,0.23 -0.15,0.46 -0.15,0.7 0,0.25 0.04,0.47 0.11,0.67 0.08,0.2 0.22,0.39 0.44,0.57 0.21,0.18 0.52,0.34 0.91,0.48 0.39,0.15 0.89,0.29 1.52,0.44 0.67,0.16 1.25,0.33 1.74,0.53 0.48,0.19 0.89,0.42 1.21,0.68 0.32,0.27 0.56,0.57 0.71,0.91 0.15,0.34 0.23,0.73 0.23,1.18 0,0.46 -0.1,0.88 -0.29,1.26 -0.19,0.38 -0.47,0.71 -0.82,0.98 -0.36,0.27 -0.79,0.48 -1.3,0.63 -0.51,0.15 -1.07,0.23 -1.7,0.23 -0.71,0 -1.33,-0.09 -1.87,-0.27 -0.54,-0.18 -1,-0.43 -1.37,-0.74 -0.37,-0.31 -0.65,-0.66 -0.84,-1.06 -0.19,-0.4 -0.28,-0.82 -0.28,-1.25l1.23 0c0.03,0.44 0.14,0.8 0.34,1.1 0.2,0.29 0.45,0.53 0.74,0.7 0.3,0.18 0.62,0.3 0.98,0.38 0.36,0.08 0.72,0.12 1.06,0.12 0.47,0 0.88,-0.06 1.24,-0.17 0.35,-0.11 0.66,-0.26 0.9,-0.44 0.24,-0.19 0.43,-0.4 0.55,-0.64 0.12,-0.24 0.18,-0.49 0.18,-0.75z"/> <path class="fil1" d="M373.39 124.98c0,-0.23 -0.04,-0.45 -0.12,-0.68 -0.08,-0.23 -0.23,-0.44 -0.44,-0.64 -0.22,-0.2 -0.52,-0.39 -0.91,-0.57 -0.39,-0.18 -0.89,-0.33 -1.51,-0.46 -0.62,-0.13 -1.17,-0.28 -1.65,-0.45 -0.48,-0.17 -0.89,-0.38 -1.23,-0.62 -0.33,-0.24 -0.59,-0.53 -0.76,-0.87 -0.17,-0.34 -0.26,-0.73 -0.26,-1.18 0,-0.41 0.09,-0.8 0.27,-1.17 0.18,-0.37 0.44,-0.7 0.78,-0.97 0.34,-0.27 0.75,-0.49 1.23,-0.65 0.48,-0.16 1.03,-0.24 1.63,-0.24 0.64,0 1.22,0.08 1.73,0.25 0.51,0.17 0.95,0.4 1.3,0.7 0.35,0.3 0.63,0.65 0.81,1.06 0.19,0.4 0.28,0.84 0.28,1.32l-1.24 0c0,-0.29 -0.06,-0.57 -0.19,-0.84 -0.13,-0.28 -0.31,-0.52 -0.56,-0.73 -0.25,-0.21 -0.55,-0.38 -0.91,-0.51 -0.36,-0.13 -0.77,-0.2 -1.23,-0.2 -0.48,0 -0.89,0.06 -1.23,0.18 -0.34,0.12 -0.61,0.27 -0.83,0.45 -0.21,0.19 -0.37,0.39 -0.47,0.62 -0.1,0.23 -0.15,0.46 -0.15,0.7 0,0.25 0.04,0.47 0.11,0.67 0.08,0.2 0.22,0.39 0.44,0.57 0.21,0.18 0.52,0.34 0.91,0.48 0.39,0.15 0.89,0.29 1.52,0.44 0.67,0.16 1.25,0.33 1.74,0.53 0.48,0.19 0.89,0.42 1.21,0.68 0.32,0.27 0.56,0.57 0.71,0.91 0.15,0.34 0.23,0.73 0.23,1.18 0,0.46 -0.1,0.88 -0.29,1.26 -0.19,0.38 -0.47,0.71 -0.82,0.98 -0.36,0.27 -0.79,0.48 -1.3,0.63 -0.51,0.15 -1.07,0.23 -1.7,0.23 -0.71,0 -1.33,-0.09 -1.87,-0.27 -0.54,-0.18 -1,-0.43 -1.37,-0.74 -0.37,-0.31 -0.65,-0.66 -0.84,-1.06 -0.19,-0.4 -0.28,-0.82 -0.28,-1.25l1.23 0c0.03,0.44 0.14,0.8 0.34,1.1 0.2,0.29 0.45,0.53 0.74,0.7 0.3,0.18 0.62,0.3 0.98,0.38 0.36,0.08 0.72,0.12 1.06,0.12 0.47,0 0.88,-0.06 1.24,-0.17 0.35,-0.11 0.66,-0.26 0.9,-0.44 0.24,-0.19 0.43,-0.4 0.55,-0.64 0.12,-0.24 0.18,-0.49 0.18,-0.75zm8.64 -2.84c0,-0.86 0.1,-1.65 0.3,-2.34 0.2,-0.7 0.48,-1.29 0.85,-1.79 0.37,-0.5 0.82,-0.87 1.35,-1.14 0.53,-0.27 1.13,-0.4 1.81,-0.4 0.8,0 1.48,0.16 2.05,0.48 0.57,0.32 1.04,0.76 1.41,1.33l0.06 -1.61 1.15 0 0 10.94c0,0.72 -0.11,1.37 -0.32,1.94 -0.21,0.57 -0.51,1.06 -0.9,1.45 -0.39,0.4 -0.86,0.7 -1.41,0.92 -0.55,0.21 -1.16,0.32 -1.84,0.32 -0.35,0 -0.71,-0.04 -1.07,-0.12 -0.37,-0.08 -0.72,-0.2 -1.05,-0.35 -0.34,-0.16 -0.66,-0.35 -0.96,-0.59 -0.3,-0.24 -0.57,-0.52 -0.79,-0.84l0.69 -0.74c0.45,0.56 0.93,0.96 1.44,1.22 0.51,0.26 1.06,0.39 1.67,0.39 0.53,0 1,-0.08 1.41,-0.24 0.41,-0.16 0.75,-0.39 1.04,-0.7 0.28,-0.31 0.5,-0.68 0.64,-1.11 0.15,-0.44 0.22,-0.93 0.22,-1.49l0 -1.3c-0.37,0.51 -0.84,0.92 -1.41,1.21 -0.57,0.29 -1.25,0.44 -2.04,0.44 -0.66,0 -1.26,-0.14 -1.79,-0.42 -0.53,-0.28 -0.98,-0.67 -1.35,-1.16 -0.37,-0.5 -0.65,-1.09 -0.85,-1.79 -0.2,-0.7 -0.3,-1.46 -0.3,-2.3l0 -0.21zm1.25 0.21c0,0.65 0.06,1.26 0.2,1.82 0.13,0.56 0.33,1.05 0.59,1.46 0.27,0.41 0.61,0.73 1.02,0.97 0.41,0.24 0.89,0.35 1.46,0.35 0.43,0 0.81,-0.05 1.15,-0.15 0.34,-0.1 0.64,-0.25 0.9,-0.43 0.26,-0.18 0.48,-0.39 0.68,-0.64 0.19,-0.25 0.36,-0.52 0.5,-0.81l0 -5.18c-0.12,-0.29 -0.27,-0.56 -0.45,-0.83 -0.18,-0.26 -0.4,-0.5 -0.66,-0.7 -0.26,-0.2 -0.56,-0.36 -0.9,-0.48 -0.34,-0.12 -0.74,-0.18 -1.19,-0.18 -0.57,0 -1.06,0.12 -1.47,0.35 -0.41,0.24 -0.75,0.56 -1.02,0.97 -0.27,0.41 -0.46,0.9 -0.59,1.46 -0.13,0.56 -0.2,1.17 -0.2,1.81l0 0.21zm17.97 5.46c-0.07,-0.19 -0.12,-0.43 -0.16,-0.71 -0.04,-0.28 -0.06,-0.56 -0.08,-0.85 -0.19,0.24 -0.41,0.46 -0.66,0.68 -0.25,0.21 -0.54,0.4 -0.85,0.56 -0.32,0.16 -0.66,0.28 -1.04,0.38 -0.38,0.09 -0.79,0.14 -1.23,0.14 -0.54,0 -1.03,-0.08 -1.48,-0.24 -0.44,-0.16 -0.82,-0.38 -1.13,-0.66 -0.31,-0.28 -0.56,-0.62 -0.73,-1 -0.17,-0.39 -0.26,-0.8 -0.26,-1.26 0,-0.54 0.12,-1.03 0.35,-1.47 0.23,-0.44 0.57,-0.81 1.01,-1.11 0.44,-0.31 0.97,-0.54 1.6,-0.7 0.63,-0.16 1.34,-0.24 2.12,-0.24l2.29 0 0 -1.27c0,-0.8 -0.25,-1.42 -0.74,-1.88 -0.49,-0.46 -1.21,-0.69 -2.15,-0.69 -0.43,0 -0.83,0.06 -1.19,0.18 -0.37,0.12 -0.68,0.28 -0.95,0.48 -0.26,0.2 -0.47,0.44 -0.61,0.71 -0.15,0.27 -0.22,0.56 -0.22,0.87l-1.24 -0.01c0,-0.42 0.1,-0.82 0.31,-1.22 0.21,-0.39 0.5,-0.74 0.87,-1.04 0.37,-0.31 0.82,-0.55 1.35,-0.73 0.53,-0.19 1.11,-0.28 1.75,-0.28 0.59,0 1.13,0.08 1.63,0.23 0.5,0.15 0.93,0.38 1.28,0.68 0.36,0.3 0.64,0.68 0.83,1.13 0.2,0.45 0.3,0.98 0.3,1.58l0 5.39c0,0.19 0.01,0.39 0.02,0.6 0.01,0.2 0.04,0.4 0.07,0.6 0.03,0.19 0.07,0.38 0.11,0.55 0.04,0.18 0.09,0.33 0.14,0.46l0 0.12 -1.32 0zm-3.87 -0.89c0.45,0 0.86,-0.06 1.24,-0.17 0.38,-0.12 0.73,-0.27 1.04,-0.47 0.31,-0.2 0.58,-0.43 0.8,-0.69 0.23,-0.27 0.41,-0.55 0.55,-0.86l0 -2.45 -2.11 0c-0.63,0 -1.19,0.06 -1.69,0.17 -0.5,0.11 -0.92,0.28 -1.26,0.49 -0.34,0.21 -0.6,0.47 -0.79,0.78 -0.18,0.31 -0.27,0.65 -0.27,1.04 0,0.3 0.06,0.58 0.17,0.85 0.12,0.26 0.28,0.49 0.5,0.69 0.22,0.2 0.48,0.35 0.79,0.46 0.31,0.11 0.65,0.17 1.04,0.17zm9.25 -10.25l0.04 1.81c0.19,-0.3 0.4,-0.58 0.64,-0.83 0.25,-0.25 0.52,-0.46 0.82,-0.64 0.3,-0.18 0.63,-0.31 0.99,-0.41 0.36,-0.09 0.74,-0.14 1.16,-0.14 0.82,0 1.51,0.17 2.1,0.52 0.58,0.34 1,0.89 1.25,1.65 0.18,-0.31 0.39,-0.6 0.64,-0.86 0.25,-0.26 0.53,-0.49 0.85,-0.69 0.32,-0.19 0.67,-0.34 1.05,-0.45 0.39,-0.11 0.8,-0.17 1.25,-0.17 0.58,0 1.09,0.08 1.54,0.23 0.45,0.15 0.84,0.4 1.15,0.73 0.31,0.33 0.55,0.76 0.71,1.27 0.17,0.52 0.25,1.13 0.25,1.86l0 7.26 -1.24 0 0 -7.27c0,-0.59 -0.06,-1.08 -0.19,-1.47 -0.13,-0.39 -0.32,-0.7 -0.56,-0.93 -0.24,-0.23 -0.53,-0.39 -0.86,-0.48 -0.33,-0.09 -0.7,-0.13 -1.1,-0.13 -0.52,0.01 -0.98,0.1 -1.37,0.28 -0.39,0.18 -0.72,0.41 -0.99,0.69 -0.27,0.28 -0.48,0.59 -0.63,0.93 -0.15,0.34 -0.24,0.68 -0.27,1l0 7.37 -1.24 0 0 -7.36c0,-0.56 -0.06,-1.02 -0.19,-1.39 -0.13,-0.37 -0.32,-0.67 -0.56,-0.9 -0.24,-0.23 -0.53,-0.39 -0.86,-0.48 -0.33,-0.1 -0.7,-0.14 -1.11,-0.14 -0.47,0 -0.88,0.07 -1.24,0.22 -0.35,0.15 -0.67,0.34 -0.93,0.59 -0.26,0.25 -0.48,0.53 -0.65,0.84 -0.17,0.32 -0.31,0.64 -0.41,0.98l0 7.64 -1.23 0 0 -11.14 1.18 0zm21.88 11.35c-0.73,0 -1.4,-0.14 -2.01,-0.41 -0.61,-0.27 -1.13,-0.65 -1.58,-1.13 -0.44,-0.48 -0.79,-1.06 -1.04,-1.73 -0.25,-0.67 -0.37,-1.4 -0.37,-2.19l0 -0.44c0,-0.86 0.13,-1.63 0.39,-2.33 0.26,-0.7 0.6,-1.29 1.04,-1.78 0.44,-0.49 0.95,-0.87 1.52,-1.14 0.57,-0.27 1.18,-0.4 1.82,-0.4 0.71,0 1.34,0.13 1.88,0.38 0.55,0.25 1.01,0.61 1.38,1.06 0.38,0.45 0.66,0.99 0.85,1.62 0.19,0.62 0.29,1.31 0.29,2.05l0 0.75 -7.95 0 0 0.24c0,0.61 0.09,1.18 0.28,1.73 0.19,0.54 0.45,1.01 0.78,1.4 0.34,0.4 0.74,0.71 1.21,0.95 0.47,0.23 0.98,0.34 1.55,0.34 0.66,0 1.24,-0.12 1.75,-0.36 0.5,-0.24 0.96,-0.63 1.37,-1.15l0.77 0.59c-0.19,0.27 -0.4,0.52 -0.64,0.76 -0.25,0.24 -0.53,0.45 -0.85,0.63 -0.32,0.18 -0.69,0.32 -1.09,0.42 -0.4,0.1 -0.86,0.15 -1.36,0.15zm-0.23 -10.5c-0.47,0 -0.9,0.09 -1.3,0.27 -0.4,0.18 -0.75,0.44 -1.05,0.76 -0.31,0.33 -0.56,0.73 -0.75,1.19 -0.2,0.46 -0.33,0.97 -0.4,1.54l6.68 0 0 -0.13c-0.01,-0.47 -0.09,-0.92 -0.22,-1.36 -0.14,-0.44 -0.34,-0.82 -0.6,-1.16 -0.27,-0.34 -0.59,-0.61 -0.98,-0.81 -0.39,-0.2 -0.85,-0.31 -1.37,-0.31zm13.48 7.46c0,-0.23 -0.04,-0.45 -0.12,-0.68 -0.08,-0.23 -0.23,-0.44 -0.44,-0.64 -0.22,-0.2 -0.52,-0.39 -0.91,-0.57 -0.39,-0.18 -0.89,-0.33 -1.51,-0.46 -0.62,-0.13 -1.17,-0.28 -1.65,-0.45 -0.48,-0.17 -0.89,-0.38 -1.23,-0.62 -0.33,-0.24 -0.59,-0.53 -0.76,-0.87 -0.17,-0.34 -0.26,-0.73 -0.26,-1.18 0,-0.41 0.09,-0.8 0.27,-1.17 0.18,-0.37 0.44,-0.7 0.78,-0.97 0.34,-0.27 0.75,-0.49 1.23,-0.65 0.48,-0.16 1.03,-0.24 1.63,-0.24 0.64,0 1.22,0.08 1.73,0.25 0.51,0.17 0.95,0.4 1.3,0.7 0.35,0.3 0.63,0.65 0.81,1.06 0.19,0.4 0.28,0.84 0.28,1.32l-1.24 0c0,-0.29 -0.06,-0.57 -0.19,-0.84 -0.13,-0.28 -0.31,-0.52 -0.56,-0.73 -0.25,-0.21 -0.55,-0.38 -0.91,-0.51 -0.36,-0.13 -0.77,-0.2 -1.23,-0.2 -0.48,0 -0.89,0.06 -1.23,0.18 -0.34,0.12 -0.61,0.27 -0.83,0.45 -0.21,0.19 -0.37,0.39 -0.47,0.62 -0.1,0.23 -0.15,0.46 -0.15,0.7 0,0.25 0.04,0.47 0.11,0.67 0.08,0.2 0.22,0.39 0.44,0.57 0.21,0.18 0.52,0.34 0.91,0.48 0.39,0.15 0.89,0.29 1.52,0.44 0.67,0.16 1.25,0.33 1.74,0.53 0.48,0.19 0.89,0.42 1.21,0.68 0.32,0.27 0.56,0.57 0.71,0.91 0.15,0.34 0.23,0.73 0.23,1.18 0,0.46 -0.1,0.88 -0.29,1.26 -0.19,0.38 -0.47,0.71 -0.82,0.98 -0.36,0.27 -0.79,0.48 -1.3,0.63 -0.51,0.15 -1.07,0.23 -1.7,0.23 -0.71,0 -1.33,-0.09 -1.87,-0.27 -0.54,-0.18 -1,-0.43 -1.37,-0.74 -0.37,-0.31 -0.65,-0.66 -0.84,-1.06 -0.19,-0.4 -0.28,-0.82 -0.28,-1.25l1.23 0c0.03,0.44 0.14,0.8 0.34,1.1 0.2,0.29 0.45,0.53 0.74,0.7 0.3,0.18 0.62,0.3 0.98,0.38 0.36,0.08 0.72,0.12 1.06,0.12 0.47,0 0.88,-0.06 1.24,-0.17 0.35,-0.11 0.66,-0.26 0.9,-0.44 0.24,-0.19 0.43,-0.4 0.55,-0.64 0.12,-0.24 0.18,-0.49 0.18,-0.75zm10.02 2.83l0 -10.13 -1.84 0 0 -1.01 1.84 0 0 -1.38c0,-0.56 0.08,-1.06 0.23,-1.5 0.15,-0.44 0.37,-0.81 0.65,-1.1 0.29,-0.3 0.63,-0.52 1.04,-0.67 0.4,-0.15 0.86,-0.23 1.38,-0.23 0.21,0 0.43,0.01 0.65,0.04 0.22,0.03 0.44,0.07 0.65,0.13l-0.09 1.03c-0.17,-0.04 -0.34,-0.07 -0.52,-0.09 -0.18,-0.02 -0.38,-0.03 -0.6,-0.03 -0.68,0 -1.21,0.21 -1.58,0.63 -0.38,0.42 -0.57,1.02 -0.57,1.8l0 1.38 2.65 0 0 1.01 -2.65 0 0 10.13 -1.24 0zm5.41 -5.73c0,-0.81 0.12,-1.56 0.35,-2.25 0.24,-0.69 0.57,-1.28 1,-1.77 0.43,-0.5 0.96,-0.89 1.57,-1.17 0.61,-0.28 1.29,-0.43 2.04,-0.43 0.76,0 1.45,0.14 2.06,0.43 0.61,0.28 1.14,0.67 1.57,1.17 0.43,0.5 0.77,1.09 1,1.77 0.24,0.69 0.35,1.44 0.35,2.25l0 0.34c0,0.81 -0.12,1.56 -0.35,2.24 -0.23,0.69 -0.57,1.28 -1,1.78 -0.43,0.5 -0.95,0.89 -1.56,1.16 -0.61,0.28 -1.29,0.42 -2.05,0.42 -0.76,0 -1.44,-0.14 -2.05,-0.42 -0.61,-0.28 -1.14,-0.67 -1.57,-1.16 -0.44,-0.5 -0.77,-1.09 -1.01,-1.78 -0.24,-0.69 -0.35,-1.43 -0.35,-2.24l0 -0.34zm1.23 0.34c0,0.61 0.08,1.19 0.25,1.74 0.16,0.56 0.4,1.04 0.72,1.45 0.32,0.42 0.71,0.75 1.17,0.99 0.46,0.25 1,0.37 1.61,0.37 0.6,0 1.13,-0.12 1.6,-0.37 0.46,-0.25 0.85,-0.58 1.17,-0.99 0.32,-0.41 0.56,-0.9 0.72,-1.45 0.17,-0.55 0.25,-1.13 0.25,-1.74l0 -0.34c0,-0.6 -0.08,-1.17 -0.25,-1.73 -0.16,-0.55 -0.4,-1.04 -0.72,-1.45 -0.32,-0.42 -0.71,-0.75 -1.18,-1.01 -0.47,-0.25 -1,-0.38 -1.61,-0.38 -0.6,0 -1.13,0.13 -1.59,0.38 -0.46,0.25 -0.85,0.59 -1.17,1.01 -0.32,0.42 -0.56,0.9 -0.72,1.45 -0.17,0.56 -0.25,1.13 -0.25,1.73l0 0.34zm16.4 -4.69c-0.26,-0.05 -0.54,-0.07 -0.83,-0.07 -0.42,0 -0.8,0.06 -1.13,0.19 -0.33,0.12 -0.63,0.3 -0.89,0.52 -0.26,0.22 -0.47,0.49 -0.65,0.79 -0.17,0.31 -0.31,0.64 -0.41,1.01l0 7.65 -1.23 0 0 -11.14 1.21 0 0.02 1.77c0.3,-0.61 0.71,-1.09 1.23,-1.45 0.52,-0.35 1.15,-0.53 1.91,-0.53 0.15,0 0.31,0.01 0.46,0.04 0.16,0.03 0.27,0.06 0.35,0.1l-0.03 1.12zm16.04 4.63c0,0.84 -0.1,1.6 -0.28,2.3 -0.19,0.69 -0.46,1.29 -0.83,1.79 -0.36,0.5 -0.81,0.89 -1.34,1.16 -0.53,0.28 -1.13,0.42 -1.8,0.42 -0.82,0 -1.51,-0.15 -2.09,-0.46 -0.58,-0.31 -1.06,-0.73 -1.43,-1.27l-0.05 1.53 -1.15 0 0 -15.81 1.23 0 0 6.29c0.37,-0.58 0.84,-1.02 1.41,-1.34 0.57,-0.32 1.26,-0.48 2.07,-0.48 0.68,0 1.28,0.14 1.81,0.4 0.53,0.27 0.97,0.65 1.34,1.14 0.37,0.5 0.65,1.09 0.83,1.79 0.19,0.7 0.28,1.48 0.28,2.34l0 0.21zm-1.24 -0.21c0,-0.65 -0.06,-1.25 -0.18,-1.81 -0.13,-0.56 -0.32,-1.05 -0.58,-1.46 -0.26,-0.41 -0.6,-0.73 -1.02,-0.97 -0.41,-0.24 -0.9,-0.35 -1.48,-0.35 -0.47,0 -0.88,0.06 -1.24,0.19 -0.36,0.13 -0.66,0.3 -0.93,0.51 -0.26,0.21 -0.48,0.46 -0.66,0.73 -0.18,0.27 -0.32,0.56 -0.43,0.86l0 5.02c0.13,0.3 0.29,0.57 0.49,0.83 0.2,0.26 0.43,0.48 0.7,0.67 0.27,0.19 0.57,0.34 0.92,0.44 0.34,0.11 0.73,0.16 1.17,0.16 0.56,0 1.04,-0.12 1.45,-0.35 0.41,-0.23 0.74,-0.56 1.02,-0.97 0.27,-0.41 0.46,-0.9 0.59,-1.46 0.13,-0.56 0.19,-1.16 0.19,-1.82l0 -0.21zm3.27 -0.06c0,-0.81 0.12,-1.56 0.35,-2.25 0.24,-0.69 0.57,-1.28 1,-1.77 0.43,-0.5 0.96,-0.89 1.57,-1.17 0.61,-0.28 1.29,-0.43 2.04,-0.43 0.76,0 1.45,0.14 2.06,0.43 0.61,0.28 1.14,0.67 1.57,1.17 0.43,0.5 0.77,1.09 1,1.77 0.24,0.69 0.35,1.44 0.35,2.25l0 0.34c0,0.81 -0.12,1.56 -0.35,2.24 -0.23,0.69 -0.57,1.28 -1,1.78 -0.43,0.5 -0.95,0.89 -1.56,1.16 -0.61,0.28 -1.29,0.42 -2.05,0.42 -0.76,0 -1.44,-0.14 -2.05,-0.42 -0.61,-0.28 -1.14,-0.67 -1.57,-1.16 -0.44,-0.5 -0.77,-1.09 -1.01,-1.78 -0.24,-0.69 -0.35,-1.43 -0.35,-2.24l0 -0.34zm1.23 0.34c0,0.61 0.08,1.19 0.25,1.74 0.16,0.56 0.4,1.04 0.72,1.45 0.32,0.42 0.71,0.75 1.17,0.99 0.46,0.25 1,0.37 1.61,0.37 0.6,0 1.13,-0.12 1.6,-0.37 0.46,-0.25 0.85,-0.58 1.17,-0.99 0.32,-0.41 0.56,-0.9 0.72,-1.45 0.17,-0.55 0.25,-1.13 0.25,-1.74l0 -0.34c0,-0.6 -0.08,-1.17 -0.25,-1.73 -0.16,-0.55 -0.4,-1.04 -0.72,-1.45 -0.32,-0.42 -0.71,-0.75 -1.18,-1.01 -0.47,-0.25 -1,-0.38 -1.61,-0.38 -0.6,0 -1.13,0.13 -1.59,0.38 -0.46,0.25 -0.85,0.59 -1.17,1.01 -0.32,0.42 -0.56,0.9 -0.72,1.45 -0.17,0.56 -0.25,1.13 -0.25,1.73l0 0.34zm14.63 3.62l3.25 -9.37 1.33 0 -4.72 12.92c-0.09,0.25 -0.22,0.54 -0.37,0.85 -0.15,0.32 -0.34,0.61 -0.58,0.89 -0.24,0.27 -0.53,0.51 -0.89,0.7 -0.35,0.19 -0.78,0.28 -1.29,0.28 -0.07,0 -0.15,-0 -0.24,-0.01 -0.09,-0.01 -0.18,-0.02 -0.27,-0.04 -0.09,-0.01 -0.18,-0.03 -0.25,-0.05 -0.08,-0.01 -0.14,-0.03 -0.19,-0.05l-0.01 -1.02c0.08,0.01 0.19,0.03 0.33,0.04 0.14,0.01 0.24,0.02 0.3,0.02 0.33,0 0.62,-0.04 0.87,-0.13 0.26,-0.08 0.48,-0.21 0.66,-0.38 0.19,-0.17 0.35,-0.38 0.5,-0.63 0.14,-0.26 0.28,-0.55 0.39,-0.87l0.53 -1.47 -4.2 -11.05 1.35 0 3.46 9.37zm13.16 -1.06c0,-0.23 -0.04,-0.45 -0.12,-0.68 -0.08,-0.23 -0.23,-0.44 -0.44,-0.64 -0.22,-0.2 -0.52,-0.39 -0.91,-0.57 -0.39,-0.18 -0.89,-0.33 -1.51,-0.46 -0.62,-0.13 -1.17,-0.28 -1.65,-0.45 -0.48,-0.17 -0.89,-0.38 -1.23,-0.62 -0.33,-0.24 -0.59,-0.53 -0.76,-0.87 -0.17,-0.34 -0.26,-0.73 -0.26,-1.18 0,-0.41 0.09,-0.8 0.27,-1.17 0.18,-0.37 0.44,-0.7 0.78,-0.97 0.34,-0.27 0.75,-0.49 1.23,-0.65 0.48,-0.16 1.03,-0.24 1.63,-0.24 0.64,0 1.22,0.08 1.73,0.25 0.51,0.17 0.95,0.4 1.3,0.7 0.35,0.3 0.63,0.65 0.81,1.06 0.19,0.4 0.28,0.84 0.28,1.32l-1.24 0c0,-0.29 -0.06,-0.57 -0.19,-0.84 -0.13,-0.28 -0.31,-0.52 -0.56,-0.73 -0.25,-0.21 -0.55,-0.38 -0.91,-0.51 -0.36,-0.13 -0.77,-0.2 -1.23,-0.2 -0.48,0 -0.89,0.06 -1.23,0.18 -0.34,0.12 -0.61,0.27 -0.83,0.45 -0.21,0.19 -0.37,0.39 -0.47,0.62 -0.1,0.23 -0.15,0.46 -0.15,0.7 0,0.25 0.04,0.47 0.11,0.67 0.08,0.2 0.22,0.39 0.44,0.57 0.21,0.18 0.52,0.34 0.91,0.48 0.39,0.15 0.89,0.29 1.52,0.44 0.67,0.16 1.25,0.33 1.74,0.53 0.48,0.19 0.89,0.42 1.21,0.68 0.32,0.27 0.56,0.57 0.71,0.91 0.15,0.34 0.23,0.73 0.23,1.18 0,0.46 -0.1,0.88 -0.29,1.26 -0.19,0.38 -0.47,0.71 -0.82,0.98 -0.36,0.27 -0.79,0.48 -1.3,0.63 -0.51,0.15 -1.07,0.23 -1.7,0.23 -0.71,0 -1.33,-0.09 -1.87,-0.27 -0.54,-0.18 -1,-0.43 -1.37,-0.74 -0.37,-0.31 -0.65,-0.66 -0.84,-1.06 -0.19,-0.4 -0.28,-0.82 -0.28,-1.25l1.23 0c0.03,0.44 0.14,0.8 0.34,1.1 0.2,0.29 0.45,0.53 0.74,0.7 0.3,0.18 0.62,0.3 0.98,0.38 0.36,0.08 0.72,0.12 1.06,0.12 0.47,0 0.88,-0.06 1.24,-0.17 0.35,-0.11 0.66,-0.26 0.9,-0.44 0.24,-0.19 0.43,-0.4 0.55,-0.64 0.12,-0.24 0.18,-0.49 0.18,-0.75zm5.19 2.34c0,0.31 -0.03,0.62 -0.1,0.93 -0.06,0.31 -0.16,0.6 -0.28,0.89 -0.13,0.28 -0.28,0.55 -0.45,0.8 -0.18,0.25 -0.38,0.48 -0.61,0.69l-0.73 -0.53c0.32,-0.43 0.56,-0.85 0.72,-1.28 0.17,-0.43 0.25,-0.92 0.25,-1.46l0 -1.46 1.21 0 0 1.44zm-211.9 20.34c0,0.84 -0.1,1.6 -0.28,2.3 -0.19,0.69 -0.46,1.29 -0.83,1.79 -0.36,0.5 -0.81,0.89 -1.34,1.16 -0.53,0.28 -1.13,0.42 -1.8,0.42 -0.82,0 -1.51,-0.15 -2.09,-0.46 -0.58,-0.31 -1.06,-0.73 -1.43,-1.27l-0.05 1.53 -1.15 0 0 -15.81 1.23 0 0 6.29c0.37,-0.58 0.84,-1.02 1.41,-1.34 0.57,-0.32 1.26,-0.48 2.07,-0.48 0.68,0 1.28,0.14 1.81,0.4 0.53,0.27 0.97,0.65 1.34,1.14 0.37,0.5 0.65,1.09 0.83,1.79 0.19,0.7 0.28,1.48 0.28,2.34l0 0.21zm-1.24 -0.21c0,-0.65 -0.06,-1.25 -0.18,-1.81 -0.13,-0.56 -0.32,-1.05 -0.58,-1.46 -0.26,-0.41 -0.6,-0.73 -1.02,-0.97 -0.41,-0.24 -0.9,-0.35 -1.48,-0.35 -0.47,0 -0.88,0.06 -1.24,0.19 -0.36,0.13 -0.66,0.3 -0.93,0.51 -0.26,0.21 -0.48,0.46 -0.66,0.73 -0.18,0.27 -0.32,0.56 -0.43,0.86l0 5.02c0.13,0.3 0.29,0.57 0.49,0.83 0.2,0.26 0.43,0.48 0.7,0.67 0.27,0.19 0.57,0.34 0.92,0.44 0.34,0.11 0.73,0.16 1.17,0.16 0.56,0 1.04,-0.12 1.45,-0.35 0.41,-0.23 0.74,-0.56 1.02,-0.97 0.27,-0.41 0.46,-0.9 0.59,-1.46 0.13,-0.56 0.19,-1.16 0.19,-1.82l0 -0.21zm3.27 -0.06c0,-0.81 0.12,-1.56 0.35,-2.25 0.24,-0.69 0.57,-1.28 1,-1.77 0.43,-0.5 0.96,-0.89 1.57,-1.17 0.61,-0.28 1.29,-0.43 2.04,-0.43 0.76,0 1.45,0.14 2.06,0.43 0.61,0.28 1.14,0.67 1.57,1.17 0.43,0.5 0.77,1.09 1,1.77 0.24,0.69 0.35,1.44 0.35,2.25l0 0.34c0,0.81 -0.12,1.56 -0.35,2.24 -0.23,0.69 -0.57,1.28 -1,1.78 -0.43,0.5 -0.95,0.89 -1.56,1.16 -0.61,0.28 -1.29,0.42 -2.05,0.42 -0.76,0 -1.44,-0.14 -2.05,-0.42 -0.61,-0.28 -1.14,-0.67 -1.57,-1.16 -0.44,-0.5 -0.77,-1.09 -1.01,-1.78 -0.24,-0.69 -0.35,-1.43 -0.35,-2.24l0 -0.34zm1.23 0.34c0,0.61 0.08,1.19 0.25,1.74 0.16,0.56 0.4,1.04 0.72,1.45 0.32,0.42 0.71,0.75 1.17,0.99 0.46,0.25 1,0.37 1.61,0.37 0.6,0 1.13,-0.12 1.6,-0.37 0.46,-0.25 0.85,-0.58 1.17,-0.99 0.32,-0.41 0.56,-0.9 0.72,-1.45 0.17,-0.55 0.25,-1.13 0.25,-1.74l0 -0.34c0,-0.6 -0.08,-1.17 -0.25,-1.73 -0.16,-0.55 -0.4,-1.04 -0.72,-1.45 -0.32,-0.42 -0.71,-0.75 -1.18,-1.01 -0.47,-0.25 -1,-0.38 -1.61,-0.38 -0.6,0 -1.13,0.13 -1.59,0.38 -0.46,0.25 -0.85,0.59 -1.17,1.01 -0.32,0.42 -0.56,0.9 -0.72,1.45 -0.17,0.56 -0.25,1.13 -0.25,1.73l0 0.34zm14.63 3.62l3.25 -9.37 1.33 0 -4.72 12.92c-0.09,0.25 -0.22,0.54 -0.37,0.85 -0.15,0.32 -0.34,0.61 -0.58,0.89 -0.24,0.27 -0.53,0.51 -0.89,0.7 -0.35,0.19 -0.78,0.28 -1.29,0.28 -0.07,0 -0.15,-0 -0.24,-0.01 -0.09,-0.01 -0.18,-0.02 -0.27,-0.04 -0.09,-0.01 -0.18,-0.03 -0.25,-0.05 -0.08,-0.01 -0.14,-0.03 -0.19,-0.05l-0.01 -1.02c0.08,0.01 0.19,0.03 0.33,0.04 0.14,0.01 0.24,0.02 0.3,0.02 0.33,0 0.62,-0.04 0.87,-0.13 0.26,-0.08 0.48,-0.21 0.66,-0.38 0.19,-0.17 0.35,-0.38 0.5,-0.63 0.14,-0.26 0.28,-0.55 0.39,-0.87l0.53 -1.47 -4.2 -11.05 1.35 0 3.46 9.37z"/> <path class="fil1" d="M340.95 138.49c0,0.63 -0.13,1.24 -0.38,1.82 -0.25,0.58 -0.6,1.08 -1.06,1.49l-0.73 -0.53c0.16,-0.21 0.3,-0.43 0.41,-0.64 0.12,-0.21 0.22,-0.43 0.3,-0.65 0.08,-0.22 0.14,-0.45 0.18,-0.69 0.04,-0.24 0.06,-0.5 0.06,-0.77l0 -1.22 1.22 0 0 1.19zm8.06 11.79c0,-0.23 -0.04,-0.45 -0.12,-0.68 -0.08,-0.23 -0.23,-0.44 -0.44,-0.64 -0.22,-0.2 -0.52,-0.39 -0.91,-0.57 -0.39,-0.18 -0.89,-0.33 -1.51,-0.46 -0.62,-0.13 -1.17,-0.28 -1.65,-0.45 -0.48,-0.17 -0.89,-0.38 -1.23,-0.62 -0.33,-0.24 -0.59,-0.53 -0.76,-0.87 -0.17,-0.34 -0.26,-0.73 -0.26,-1.18 0,-0.41 0.09,-0.8 0.27,-1.17 0.18,-0.37 0.44,-0.7 0.78,-0.97 0.34,-0.27 0.75,-0.49 1.23,-0.65 0.48,-0.16 1.03,-0.24 1.63,-0.24 0.64,0 1.22,0.08 1.73,0.25 0.51,0.17 0.95,0.4 1.3,0.7 0.35,0.3 0.63,0.65 0.81,1.06 0.19,0.4 0.28,0.84 0.28,1.32l-1.24 0c0,-0.29 -0.06,-0.57 -0.19,-0.84 -0.13,-0.28 -0.31,-0.52 -0.56,-0.73 -0.25,-0.21 -0.55,-0.38 -0.91,-0.51 -0.36,-0.13 -0.77,-0.2 -1.23,-0.2 -0.48,0 -0.89,0.06 -1.23,0.18 -0.34,0.12 -0.61,0.27 -0.83,0.45 -0.21,0.19 -0.37,0.39 -0.47,0.62 -0.1,0.23 -0.15,0.46 -0.15,0.7 0,0.25 0.04,0.47 0.11,0.67 0.08,0.2 0.22,0.39 0.44,0.57 0.21,0.18 0.52,0.34 0.91,0.48 0.39,0.15 0.89,0.29 1.52,0.44 0.67,0.16 1.25,0.33 1.74,0.53 0.48,0.19 0.89,0.42 1.21,0.68 0.32,0.27 0.56,0.57 0.71,0.91 0.15,0.34 0.23,0.73 0.23,1.18 0,0.46 -0.1,0.88 -0.29,1.26 -0.19,0.38 -0.47,0.71 -0.82,0.98 -0.36,0.27 -0.79,0.48 -1.3,0.63 -0.51,0.15 -1.07,0.23 -1.7,0.23 -0.71,0 -1.33,-0.09 -1.87,-0.27 -0.54,-0.18 -1,-0.43 -1.37,-0.74 -0.37,-0.31 -0.65,-0.66 -0.84,-1.06 -0.19,-0.4 -0.28,-0.82 -0.28,-1.25l1.23 0c0.03,0.44 0.14,0.8 0.34,1.1 0.2,0.29 0.45,0.53 0.74,0.7 0.3,0.18 0.62,0.3 0.98,0.38 0.36,0.08 0.72,0.12 1.06,0.12 0.47,0 0.88,-0.06 1.24,-0.17 0.35,-0.11 0.66,-0.26 0.9,-0.44 0.24,-0.19 0.43,-0.4 0.55,-0.64 0.12,-0.24 0.18,-0.49 0.18,-0.75zm13.45 3.04c-0.73,0 -1.4,-0.14 -2.01,-0.41 -0.61,-0.27 -1.13,-0.65 -1.58,-1.13 -0.44,-0.48 -0.79,-1.06 -1.04,-1.73 -0.25,-0.67 -0.37,-1.4 -0.37,-2.19l0 -0.44c0,-0.86 0.13,-1.63 0.39,-2.33 0.26,-0.7 0.6,-1.29 1.04,-1.78 0.44,-0.49 0.95,-0.87 1.52,-1.14 0.57,-0.27 1.18,-0.4 1.82,-0.4 0.71,0 1.34,0.13 1.88,0.38 0.55,0.25 1.01,0.61 1.38,1.06 0.38,0.45 0.66,0.99 0.85,1.62 0.19,0.62 0.29,1.31 0.29,2.05l0 0.75 -7.95 0 0 0.24c0,0.61 0.09,1.18 0.28,1.73 0.19,0.54 0.45,1.01 0.78,1.4 0.34,0.4 0.74,0.71 1.21,0.95 0.47,0.23 0.98,0.34 1.55,0.34 0.66,0 1.24,-0.12 1.75,-0.36 0.5,-0.24 0.96,-0.63 1.37,-1.15l0.77 0.59c-0.19,0.27 -0.4,0.52 -0.64,0.76 -0.25,0.24 -0.53,0.45 -0.85,0.63 -0.32,0.18 -0.69,0.32 -1.09,0.42 -0.4,0.1 -0.86,0.15 -1.36,0.15zm-0.23 -10.5c-0.47,0 -0.9,0.09 -1.3,0.27 -0.4,0.18 -0.75,0.44 -1.05,0.76 -0.31,0.33 -0.56,0.73 -0.75,1.19 -0.2,0.46 -0.33,0.97 -0.4,1.54l6.68 0 0 -0.13c-0.01,-0.47 -0.09,-0.92 -0.22,-1.36 -0.14,-0.44 -0.34,-0.82 -0.6,-1.16 -0.27,-0.34 -0.59,-0.61 -0.98,-0.81 -0.39,-0.2 -0.85,-0.31 -1.37,-0.31zm7.98 -0.84l0.04 1.9c0.19,-0.32 0.41,-0.6 0.66,-0.86 0.25,-0.26 0.53,-0.48 0.84,-0.67 0.31,-0.19 0.64,-0.33 1,-0.43 0.35,-0.1 0.73,-0.15 1.13,-0.15 0.56,0 1.05,0.08 1.49,0.23 0.44,0.15 0.81,0.39 1.12,0.72 0.3,0.33 0.54,0.75 0.7,1.27 0.16,0.52 0.24,1.14 0.24,1.88l0 7.25 -1.23 0 0 -7.26c0,-0.58 -0.06,-1.06 -0.19,-1.44 -0.12,-0.38 -0.3,-0.69 -0.52,-0.92 -0.23,-0.24 -0.5,-0.4 -0.83,-0.5 -0.33,-0.1 -0.69,-0.15 -1.09,-0.15 -0.44,0 -0.84,0.07 -1.19,0.22 -0.35,0.15 -0.67,0.34 -0.95,0.59 -0.27,0.25 -0.51,0.53 -0.71,0.85 -0.2,0.32 -0.35,0.65 -0.47,0.98l0 7.63 -1.23 0 0 -11.14 1.17 0zm9.91 5.47c0,-0.86 0.1,-1.65 0.3,-2.34 0.2,-0.7 0.48,-1.29 0.86,-1.79 0.37,-0.5 0.82,-0.87 1.35,-1.14 0.53,-0.27 1.13,-0.4 1.8,-0.4 0.79,0 1.47,0.16 2.03,0.47 0.57,0.32 1.03,0.75 1.41,1.31l0 -6.25 1.22 0 0 15.81 -1.15 0 -0.05 -1.48c-0.37,0.53 -0.84,0.94 -1.41,1.24 -0.58,0.3 -1.26,0.45 -2.07,0.45 -0.66,0 -1.25,-0.14 -1.78,-0.42 -0.53,-0.28 -0.98,-0.67 -1.35,-1.16 -0.37,-0.5 -0.66,-1.09 -0.86,-1.79 -0.2,-0.7 -0.3,-1.46 -0.3,-2.3l0 -0.21zm1.25 0.21c0,0.65 0.06,1.26 0.2,1.82 0.13,0.56 0.33,1.05 0.59,1.46 0.27,0.41 0.61,0.73 1.02,0.97 0.41,0.24 0.89,0.35 1.46,0.35 0.42,0 0.8,-0.05 1.13,-0.15 0.34,-0.1 0.64,-0.24 0.91,-0.41 0.26,-0.18 0.5,-0.39 0.69,-0.64 0.2,-0.25 0.36,-0.51 0.5,-0.8l0 -5.23c-0.13,-0.28 -0.28,-0.55 -0.45,-0.81 -0.18,-0.26 -0.4,-0.49 -0.66,-0.7 -0.26,-0.2 -0.56,-0.36 -0.91,-0.48 -0.34,-0.12 -0.74,-0.18 -1.19,-0.18 -0.57,0 -1.06,0.12 -1.47,0.35 -0.41,0.24 -0.75,0.56 -1.02,0.97 -0.27,0.41 -0.46,0.9 -0.59,1.46 -0.13,0.56 -0.2,1.17 -0.2,1.81l0 0.21zm12.34 5.46l-1.24 0 0 -15.81 1.24 0 0 15.81zm7.66 0.21c-0.73,0 -1.4,-0.14 -2.01,-0.41 -0.61,-0.27 -1.13,-0.65 -1.58,-1.13 -0.44,-0.48 -0.79,-1.06 -1.04,-1.73 -0.25,-0.67 -0.37,-1.4 -0.37,-2.19l0 -0.44c0,-0.86 0.13,-1.63 0.39,-2.33 0.26,-0.7 0.6,-1.29 1.04,-1.78 0.44,-0.49 0.95,-0.87 1.52,-1.14 0.57,-0.27 1.18,-0.4 1.82,-0.4 0.71,0 1.34,0.13 1.88,0.38 0.55,0.25 1.01,0.61 1.38,1.06 0.38,0.45 0.66,0.99 0.85,1.62 0.19,0.62 0.29,1.31 0.29,2.05l0 0.75 -7.95 0 0 0.24c0,0.61 0.09,1.18 0.28,1.73 0.19,0.54 0.45,1.01 0.78,1.4 0.34,0.4 0.74,0.71 1.21,0.95 0.47,0.23 0.98,0.34 1.55,0.34 0.66,0 1.24,-0.12 1.75,-0.36 0.5,-0.24 0.96,-0.63 1.37,-1.15l0.77 0.59c-0.19,0.27 -0.4,0.52 -0.64,0.76 -0.25,0.24 -0.53,0.45 -0.85,0.63 -0.32,0.18 -0.69,0.32 -1.09,0.42 -0.4,0.1 -0.86,0.15 -1.36,0.15zm-0.23 -10.5c-0.47,0 -0.9,0.09 -1.3,0.27 -0.4,0.18 -0.75,0.44 -1.05,0.76 -0.31,0.33 -0.56,0.73 -0.75,1.19 -0.2,0.46 -0.33,0.97 -0.4,1.54l6.68 0 0 -0.13c-0.01,-0.47 -0.09,-0.92 -0.22,-1.36 -0.14,-0.44 -0.34,-0.82 -0.6,-1.16 -0.27,-0.34 -0.59,-0.61 -0.98,-0.81 -0.39,-0.2 -0.85,-0.31 -1.37,-0.31zm13.48 7.46c0,-0.23 -0.04,-0.45 -0.12,-0.68 -0.08,-0.23 -0.23,-0.44 -0.44,-0.64 -0.22,-0.2 -0.52,-0.39 -0.91,-0.57 -0.39,-0.18 -0.89,-0.33 -1.51,-0.46 -0.62,-0.13 -1.17,-0.28 -1.65,-0.45 -0.48,-0.17 -0.89,-0.38 -1.23,-0.62 -0.33,-0.24 -0.59,-0.53 -0.76,-0.87 -0.17,-0.34 -0.26,-0.73 -0.26,-1.18 0,-0.41 0.09,-0.8 0.27,-1.17 0.18,-0.37 0.44,-0.7 0.78,-0.97 0.34,-0.27 0.75,-0.49 1.23,-0.65 0.48,-0.16 1.03,-0.24 1.63,-0.24 0.64,0 1.22,0.08 1.73,0.25 0.51,0.17 0.95,0.4 1.3,0.7 0.35,0.3 0.63,0.65 0.81,1.06 0.19,0.4 0.28,0.84 0.28,1.32l-1.24 0c0,-0.29 -0.06,-0.57 -0.19,-0.84 -0.13,-0.28 -0.31,-0.52 -0.56,-0.73 -0.25,-0.21 -0.55,-0.38 -0.91,-0.51 -0.36,-0.13 -0.77,-0.2 -1.23,-0.2 -0.48,0 -0.89,0.06 -1.23,0.18 -0.34,0.12 -0.61,0.27 -0.83,0.45 -0.21,0.19 -0.37,0.39 -0.47,0.62 -0.1,0.23 -0.15,0.46 -0.15,0.7 0,0.25 0.04,0.47 0.11,0.67 0.08,0.2 0.22,0.39 0.44,0.57 0.21,0.18 0.52,0.34 0.91,0.48 0.39,0.15 0.89,0.29 1.52,0.44 0.67,0.16 1.25,0.33 1.74,0.53 0.48,0.19 0.89,0.42 1.21,0.68 0.32,0.27 0.56,0.57 0.71,0.91 0.15,0.34 0.23,0.73 0.23,1.18 0,0.46 -0.1,0.88 -0.29,1.26 -0.19,0.38 -0.47,0.71 -0.82,0.98 -0.36,0.27 -0.79,0.48 -1.3,0.63 -0.51,0.15 -1.07,0.23 -1.7,0.23 -0.71,0 -1.33,-0.09 -1.87,-0.27 -0.54,-0.18 -1,-0.43 -1.37,-0.74 -0.37,-0.31 -0.65,-0.66 -0.84,-1.06 -0.19,-0.4 -0.28,-0.82 -0.28,-1.25l1.23 0c0.03,0.44 0.14,0.8 0.34,1.1 0.2,0.29 0.45,0.53 0.74,0.7 0.3,0.18 0.62,0.3 0.98,0.38 0.36,0.08 0.72,0.12 1.06,0.12 0.47,0 0.88,-0.06 1.24,-0.17 0.35,-0.11 0.66,-0.26 0.9,-0.44 0.24,-0.19 0.43,-0.4 0.55,-0.64 0.12,-0.24 0.18,-0.49 0.18,-0.75zm10.67 0c0,-0.23 -0.04,-0.45 -0.12,-0.68 -0.08,-0.23 -0.23,-0.44 -0.44,-0.64 -0.22,-0.2 -0.52,-0.39 -0.91,-0.57 -0.39,-0.18 -0.89,-0.33 -1.51,-0.46 -0.62,-0.13 -1.17,-0.28 -1.65,-0.45 -0.48,-0.17 -0.89,-0.38 -1.23,-0.62 -0.33,-0.24 -0.59,-0.53 -0.76,-0.87 -0.17,-0.34 -0.26,-0.73 -0.26,-1.18 0,-0.41 0.09,-0.8 0.27,-1.17 0.18,-0.37 0.44,-0.7 0.78,-0.97 0.34,-0.27 0.75,-0.49 1.23,-0.65 0.48,-0.16 1.03,-0.24 1.63,-0.24 0.64,0 1.22,0.08 1.73,0.25 0.51,0.17 0.95,0.4 1.3,0.7 0.35,0.3 0.63,0.65 0.81,1.06 0.19,0.4 0.28,0.84 0.28,1.32l-1.24 0c0,-0.29 -0.06,-0.57 -0.19,-0.84 -0.13,-0.28 -0.31,-0.52 -0.56,-0.73 -0.25,-0.21 -0.55,-0.38 -0.91,-0.51 -0.36,-0.13 -0.77,-0.2 -1.23,-0.2 -0.48,0 -0.89,0.06 -1.23,0.18 -0.34,0.12 -0.61,0.27 -0.83,0.45 -0.21,0.19 -0.37,0.39 -0.47,0.62 -0.1,0.23 -0.15,0.46 -0.15,0.7 0,0.25 0.04,0.47 0.11,0.67 0.08,0.2 0.22,0.39 0.44,0.57 0.21,0.18 0.52,0.34 0.91,0.48 0.39,0.15 0.89,0.29 1.52,0.44 0.67,0.16 1.25,0.33 1.74,0.53 0.48,0.19 0.89,0.42 1.21,0.68 0.32,0.27 0.56,0.57 0.71,0.91 0.15,0.34 0.23,0.73 0.23,1.18 0,0.46 -0.1,0.88 -0.29,1.26 -0.19,0.38 -0.47,0.71 -0.82,0.98 -0.36,0.27 -0.79,0.48 -1.3,0.63 -0.51,0.15 -1.07,0.23 -1.7,0.23 -0.71,0 -1.33,-0.09 -1.87,-0.27 -0.54,-0.18 -1,-0.43 -1.37,-0.74 -0.37,-0.31 -0.65,-0.66 -0.84,-1.06 -0.19,-0.4 -0.28,-0.82 -0.28,-1.25l1.23 0c0.03,0.44 0.14,0.8 0.34,1.1 0.2,0.29 0.45,0.53 0.74,0.7 0.3,0.18 0.62,0.3 0.98,0.38 0.36,0.08 0.72,0.12 1.06,0.12 0.47,0 0.88,-0.06 1.24,-0.17 0.35,-0.11 0.66,-0.26 0.9,-0.44 0.24,-0.19 0.43,-0.4 0.55,-0.64 0.12,-0.24 0.18,-0.49 0.18,-0.75zm8.64 -2.84c0,-0.86 0.1,-1.65 0.3,-2.34 0.2,-0.7 0.48,-1.29 0.85,-1.79 0.37,-0.5 0.82,-0.87 1.35,-1.14 0.53,-0.27 1.13,-0.4 1.81,-0.4 0.8,0 1.48,0.16 2.05,0.48 0.57,0.32 1.04,0.76 1.41,1.33l0.06 -1.61 1.15 0 0 10.94c0,0.72 -0.11,1.37 -0.32,1.94 -0.21,0.57 -0.51,1.06 -0.9,1.45 -0.39,0.4 -0.86,0.7 -1.41,0.92 -0.55,0.21 -1.16,0.32 -1.84,0.32 -0.35,0 -0.71,-0.04 -1.07,-0.12 -0.37,-0.08 -0.72,-0.2 -1.05,-0.35 -0.34,-0.16 -0.66,-0.35 -0.96,-0.59 -0.3,-0.24 -0.57,-0.52 -0.79,-0.84l0.69 -0.74c0.45,0.56 0.93,0.96 1.44,1.22 0.51,0.26 1.06,0.39 1.67,0.39 0.53,0 1,-0.08 1.41,-0.24 0.41,-0.16 0.75,-0.39 1.04,-0.7 0.28,-0.31 0.5,-0.68 0.64,-1.11 0.15,-0.44 0.22,-0.93 0.22,-1.49l0 -1.3c-0.37,0.51 -0.84,0.92 -1.41,1.21 -0.57,0.29 -1.25,0.44 -2.04,0.44 -0.66,0 -1.26,-0.14 -1.79,-0.42 -0.53,-0.28 -0.98,-0.67 -1.35,-1.16 -0.37,-0.5 -0.65,-1.09 -0.85,-1.79 -0.2,-0.7 -0.3,-1.46 -0.3,-2.3l0 -0.21zm1.25 0.21c0,0.65 0.06,1.26 0.2,1.82 0.13,0.56 0.33,1.05 0.59,1.46 0.27,0.41 0.61,0.73 1.02,0.97 0.41,0.24 0.89,0.35 1.46,0.35 0.43,0 0.81,-0.05 1.15,-0.15 0.34,-0.1 0.64,-0.25 0.9,-0.43 0.26,-0.18 0.48,-0.39 0.68,-0.64 0.19,-0.25 0.36,-0.52 0.5,-0.81l0 -5.18c-0.12,-0.29 -0.27,-0.56 -0.45,-0.83 -0.18,-0.26 -0.4,-0.5 -0.66,-0.7 -0.26,-0.2 -0.56,-0.36 -0.9,-0.48 -0.34,-0.12 -0.74,-0.18 -1.19,-0.18 -0.57,0 -1.06,0.12 -1.47,0.35 -0.41,0.24 -0.75,0.56 -1.02,0.97 -0.27,0.41 -0.46,0.9 -0.59,1.46 -0.13,0.56 -0.2,1.17 -0.2,1.81l0 0.21zm17.97 5.46c-0.07,-0.19 -0.12,-0.43 -0.16,-0.71 -0.04,-0.28 -0.06,-0.56 -0.08,-0.85 -0.19,0.24 -0.41,0.46 -0.66,0.68 -0.25,0.21 -0.54,0.4 -0.85,0.56 -0.32,0.16 -0.66,0.28 -1.04,0.38 -0.38,0.09 -0.79,0.14 -1.23,0.14 -0.54,0 -1.03,-0.08 -1.48,-0.24 -0.44,-0.16 -0.82,-0.38 -1.13,-0.66 -0.31,-0.28 -0.56,-0.62 -0.73,-1 -0.17,-0.39 -0.26,-0.8 -0.26,-1.26 0,-0.54 0.12,-1.03 0.35,-1.47 0.23,-0.44 0.57,-0.81 1.01,-1.11 0.44,-0.31 0.97,-0.54 1.6,-0.7 0.63,-0.16 1.34,-0.24 2.12,-0.24l2.29 0 0 -1.27c0,-0.8 -0.25,-1.42 -0.74,-1.88 -0.49,-0.46 -1.21,-0.69 -2.15,-0.69 -0.43,0 -0.83,0.06 -1.19,0.18 -0.37,0.12 -0.68,0.28 -0.95,0.48 -0.26,0.2 -0.47,0.44 -0.61,0.71 -0.15,0.27 -0.22,0.56 -0.22,0.87l-1.24 -0.01c0,-0.42 0.1,-0.82 0.31,-1.22 0.21,-0.39 0.5,-0.74 0.87,-1.04 0.37,-0.31 0.82,-0.55 1.35,-0.73 0.53,-0.19 1.11,-0.28 1.75,-0.28 0.59,0 1.13,0.08 1.63,0.23 0.5,0.15 0.93,0.38 1.28,0.68 0.36,0.3 0.64,0.68 0.83,1.13 0.2,0.45 0.3,0.98 0.3,1.58l0 5.39c0,0.19 0.01,0.39 0.02,0.6 0.01,0.2 0.04,0.4 0.07,0.6 0.03,0.19 0.07,0.38 0.11,0.55 0.04,0.18 0.09,0.33 0.14,0.46l0 0.12 -1.32 0zm-3.87 -0.89c0.45,0 0.86,-0.06 1.24,-0.17 0.38,-0.12 0.73,-0.27 1.04,-0.47 0.31,-0.2 0.58,-0.43 0.8,-0.69 0.23,-0.27 0.41,-0.55 0.55,-0.86l0 -2.45 -2.11 0c-0.63,0 -1.19,0.06 -1.69,0.17 -0.5,0.11 -0.92,0.28 -1.26,0.49 -0.34,0.21 -0.6,0.47 -0.79,0.78 -0.18,0.31 -0.27,0.65 -0.27,1.04 0,0.3 0.06,0.58 0.17,0.85 0.12,0.26 0.28,0.49 0.5,0.69 0.22,0.2 0.48,0.35 0.79,0.46 0.31,0.11 0.65,0.17 1.04,0.17zm9.25 -10.25l0.04 1.81c0.19,-0.3 0.4,-0.58 0.64,-0.83 0.25,-0.25 0.52,-0.46 0.82,-0.64 0.3,-0.18 0.63,-0.31 0.99,-0.41 0.36,-0.09 0.74,-0.14 1.16,-0.14 0.82,0 1.51,0.17 2.1,0.52 0.58,0.34 1,0.89 1.25,1.65 0.18,-0.31 0.39,-0.6 0.64,-0.86 0.25,-0.26 0.53,-0.49 0.85,-0.69 0.32,-0.19 0.67,-0.34 1.05,-0.45 0.39,-0.11 0.8,-0.17 1.25,-0.17 0.58,0 1.09,0.08 1.54,0.23 0.45,0.15 0.84,0.4 1.15,0.73 0.31,0.33 0.55,0.76 0.71,1.27 0.17,0.52 0.25,1.13 0.25,1.86l0 7.26 -1.24 0 0 -7.27c0,-0.59 -0.06,-1.08 -0.19,-1.47 -0.13,-0.39 -0.32,-0.7 -0.56,-0.93 -0.24,-0.23 -0.53,-0.39 -0.86,-0.48 -0.33,-0.09 -0.7,-0.13 -1.1,-0.13 -0.52,0.01 -0.98,0.1 -1.37,0.28 -0.39,0.18 -0.72,0.41 -0.99,0.69 -0.27,0.28 -0.48,0.59 -0.63,0.93 -0.15,0.34 -0.24,0.68 -0.27,1l0 7.37 -1.24 0 0 -7.36c0,-0.56 -0.06,-1.02 -0.19,-1.39 -0.13,-0.37 -0.32,-0.67 -0.56,-0.9 -0.24,-0.23 -0.53,-0.39 -0.86,-0.48 -0.33,-0.1 -0.7,-0.14 -1.11,-0.14 -0.47,0 -0.88,0.07 -1.24,0.22 -0.35,0.15 -0.67,0.34 -0.93,0.59 -0.26,0.25 -0.48,0.53 -0.65,0.84 -0.17,0.32 -0.31,0.64 -0.41,0.98l0 7.64 -1.23 0 0 -11.14 1.18 0zm21.88 11.35c-0.73,0 -1.4,-0.14 -2.01,-0.41 -0.61,-0.27 -1.13,-0.65 -1.58,-1.13 -0.44,-0.48 -0.79,-1.06 -1.04,-1.73 -0.25,-0.67 -0.37,-1.4 -0.37,-2.19l0 -0.44c0,-0.86 0.13,-1.63 0.39,-2.33 0.26,-0.7 0.6,-1.29 1.04,-1.78 0.44,-0.49 0.95,-0.87 1.52,-1.14 0.57,-0.27 1.18,-0.4 1.82,-0.4 0.71,0 1.34,0.13 1.88,0.38 0.55,0.25 1.01,0.61 1.38,1.06 0.38,0.45 0.66,0.99 0.85,1.62 0.19,0.62 0.29,1.31 0.29,2.05l0 0.75 -7.95 0 0 0.24c0,0.61 0.09,1.18 0.28,1.73 0.19,0.54 0.45,1.01 0.78,1.4 0.34,0.4 0.74,0.71 1.21,0.95 0.47,0.23 0.98,0.34 1.55,0.34 0.66,0 1.24,-0.12 1.75,-0.36 0.5,-0.24 0.96,-0.63 1.37,-1.15l0.77 0.59c-0.19,0.27 -0.4,0.52 -0.64,0.76 -0.25,0.24 -0.53,0.45 -0.85,0.63 -0.32,0.18 -0.69,0.32 -1.09,0.42 -0.4,0.1 -0.86,0.15 -1.36,0.15zm-0.23 -10.5c-0.47,0 -0.9,0.09 -1.3,0.27 -0.4,0.18 -0.75,0.44 -1.05,0.76 -0.31,0.33 -0.56,0.73 -0.75,1.19 -0.2,0.46 -0.33,0.97 -0.4,1.54l6.68 0 0 -0.13c-0.01,-0.47 -0.09,-0.92 -0.22,-1.36 -0.14,-0.44 -0.34,-0.82 -0.6,-1.16 -0.27,-0.34 -0.59,-0.61 -0.98,-0.81 -0.39,-0.2 -0.85,-0.31 -1.37,-0.31zm13.48 7.46c0,-0.23 -0.04,-0.45 -0.12,-0.68 -0.08,-0.23 -0.23,-0.44 -0.44,-0.64 -0.22,-0.2 -0.52,-0.39 -0.91,-0.57 -0.39,-0.18 -0.89,-0.33 -1.51,-0.46 -0.62,-0.13 -1.17,-0.28 -1.65,-0.45 -0.48,-0.17 -0.89,-0.38 -1.23,-0.62 -0.33,-0.24 -0.59,-0.53 -0.76,-0.87 -0.17,-0.34 -0.26,-0.73 -0.26,-1.18 0,-0.41 0.09,-0.8 0.27,-1.17 0.18,-0.37 0.44,-0.7 0.78,-0.97 0.34,-0.27 0.75,-0.49 1.23,-0.65 0.48,-0.16 1.03,-0.24 1.63,-0.24 0.64,0 1.22,0.08 1.73,0.25 0.51,0.17 0.95,0.4 1.3,0.7 0.35,0.3 0.63,0.65 0.81,1.06 0.19,0.4 0.28,0.84 0.28,1.32l-1.24 0c0,-0.29 -0.06,-0.57 -0.19,-0.84 -0.13,-0.28 -0.31,-0.52 -0.56,-0.73 -0.25,-0.21 -0.55,-0.38 -0.91,-0.51 -0.36,-0.13 -0.77,-0.2 -1.23,-0.2 -0.48,0 -0.89,0.06 -1.23,0.18 -0.34,0.12 -0.61,0.27 -0.83,0.45 -0.21,0.19 -0.37,0.39 -0.47,0.62 -0.1,0.23 -0.15,0.46 -0.15,0.7 0,0.25 0.04,0.47 0.11,0.67 0.08,0.2 0.22,0.39 0.44,0.57 0.21,0.18 0.52,0.34 0.91,0.48 0.39,0.15 0.89,0.29 1.52,0.44 0.67,0.16 1.25,0.33 1.74,0.53 0.48,0.19 0.89,0.42 1.21,0.68 0.32,0.27 0.56,0.57 0.71,0.91 0.15,0.34 0.23,0.73 0.23,1.18 0,0.46 -0.1,0.88 -0.29,1.26 -0.19,0.38 -0.47,0.71 -0.82,0.98 -0.36,0.27 -0.79,0.48 -1.3,0.63 -0.51,0.15 -1.07,0.23 -1.7,0.23 -0.71,0 -1.33,-0.09 -1.87,-0.27 -0.54,-0.18 -1,-0.43 -1.37,-0.74 -0.37,-0.31 -0.65,-0.66 -0.84,-1.06 -0.19,-0.4 -0.28,-0.82 -0.28,-1.25l1.23 0c0.03,0.44 0.14,0.8 0.34,1.1 0.2,0.29 0.45,0.53 0.74,0.7 0.3,0.18 0.62,0.3 0.98,0.38 0.36,0.08 0.72,0.12 1.06,0.12 0.47,0 0.88,-0.06 1.24,-0.17 0.35,-0.11 0.66,-0.26 0.9,-0.44 0.24,-0.19 0.43,-0.4 0.55,-0.64 0.12,-0.24 0.18,-0.49 0.18,-0.75zm5.19 2.34c0,0.31 -0.03,0.62 -0.1,0.93 -0.06,0.31 -0.16,0.6 -0.28,0.89 -0.13,0.28 -0.28,0.55 -0.45,0.8 -0.18,0.25 -0.38,0.48 -0.61,0.69l-0.73 -0.53c0.32,-0.43 0.56,-0.85 0.72,-1.28 0.17,-0.43 0.25,-0.92 0.25,-1.46l0 -1.46 1.21 0 0 1.44zm-183.64 20.34c0,0.84 -0.1,1.6 -0.28,2.3 -0.19,0.69 -0.46,1.29 -0.83,1.79 -0.36,0.5 -0.81,0.89 -1.34,1.16 -0.53,0.28 -1.13,0.42 -1.8,0.42 -0.82,0 -1.51,-0.15 -2.09,-0.46 -0.58,-0.31 -1.06,-0.73 -1.43,-1.27l-0.05 1.53 -1.15 0 0 -15.81 1.23 0 0 6.29c0.37,-0.58 0.84,-1.02 1.41,-1.34 0.57,-0.32 1.26,-0.48 2.07,-0.48 0.68,0 1.28,0.14 1.81,0.4 0.53,0.27 0.97,0.65 1.34,1.14 0.37,0.5 0.65,1.09 0.83,1.79 0.19,0.7 0.28,1.48 0.28,2.34l0 0.21zm-1.24 -0.21c0,-0.65 -0.06,-1.25 -0.18,-1.81 -0.13,-0.56 -0.32,-1.05 -0.58,-1.46 -0.26,-0.41 -0.6,-0.73 -1.02,-0.97 -0.41,-0.24 -0.9,-0.35 -1.48,-0.35 -0.47,0 -0.88,0.06 -1.24,0.19 -0.36,0.13 -0.66,0.3 -0.93,0.51 -0.26,0.21 -0.48,0.46 -0.66,0.73 -0.18,0.27 -0.32,0.56 -0.43,0.86l0 5.02c0.13,0.3 0.29,0.57 0.49,0.83 0.2,0.26 0.43,0.48 0.7,0.67 0.27,0.19 0.57,0.34 0.92,0.44 0.34,0.11 0.73,0.16 1.17,0.16 0.56,0 1.04,-0.12 1.45,-0.35 0.41,-0.23 0.74,-0.56 1.02,-0.97 0.27,-0.41 0.46,-0.9 0.59,-1.46 0.13,-0.56 0.19,-1.16 0.19,-1.82l0 -0.21z"/> <path class="fil1" d="M317.24 172.68c0,-0.81 0.12,-1.56 0.35,-2.25 0.24,-0.69 0.57,-1.28 1,-1.77 0.43,-0.5 0.96,-0.89 1.57,-1.17 0.61,-0.28 1.29,-0.43 2.04,-0.43 0.76,0 1.45,0.14 2.06,0.43 0.61,0.28 1.14,0.67 1.57,1.17 0.43,0.5 0.77,1.09 1,1.77 0.24,0.69 0.35,1.44 0.35,2.25l0 0.34c0,0.81 -0.12,1.56 -0.35,2.24 -0.23,0.69 -0.57,1.28 -1,1.78 -0.43,0.5 -0.95,0.89 -1.56,1.16 -0.61,0.28 -1.29,0.42 -2.05,0.42 -0.76,0 -1.44,-0.14 -2.05,-0.42 -0.61,-0.28 -1.14,-0.67 -1.57,-1.16 -0.44,-0.5 -0.77,-1.09 -1.01,-1.78 -0.24,-0.69 -0.35,-1.43 -0.35,-2.24l0 -0.34zm1.23 0.34c0,0.61 0.08,1.19 0.25,1.74 0.16,0.56 0.4,1.04 0.72,1.45 0.32,0.42 0.71,0.75 1.17,0.99 0.46,0.25 1,0.37 1.61,0.37 0.6,0 1.13,-0.12 1.6,-0.37 0.46,-0.25 0.85,-0.58 1.17,-0.99 0.32,-0.41 0.56,-0.9 0.72,-1.45 0.17,-0.55 0.25,-1.13 0.25,-1.74l0 -0.34c0,-0.6 -0.08,-1.17 -0.25,-1.73 -0.16,-0.55 -0.4,-1.04 -0.72,-1.45 -0.32,-0.42 -0.71,-0.75 -1.18,-1.01 -0.47,-0.25 -1,-0.38 -1.61,-0.38 -0.6,0 -1.13,0.13 -1.59,0.38 -0.46,0.25 -0.85,0.59 -1.17,1.01 -0.32,0.42 -0.56,0.9 -0.72,1.45 -0.17,0.56 -0.25,1.13 -0.25,1.73l0 0.34zm14.63 3.62l3.25 -9.37 1.33 0 -4.72 12.92c-0.09,0.25 -0.22,0.54 -0.37,0.85 -0.15,0.32 -0.34,0.61 -0.58,0.89 -0.24,0.27 -0.53,0.51 -0.89,0.7 -0.35,0.19 -0.78,0.28 -1.29,0.28 -0.07,0 -0.15,-0 -0.24,-0.01 -0.09,-0.01 -0.18,-0.02 -0.27,-0.04 -0.09,-0.01 -0.18,-0.03 -0.25,-0.05 -0.08,-0.01 -0.14,-0.03 -0.19,-0.05l-0.01 -1.02c0.08,0.01 0.19,0.03 0.33,0.04 0.14,0.01 0.24,0.02 0.3,0.02 0.33,0 0.62,-0.04 0.87,-0.13 0.26,-0.08 0.48,-0.21 0.66,-0.38 0.19,-0.17 0.35,-0.38 0.5,-0.63 0.14,-0.26 0.28,-0.55 0.39,-0.87l0.53 -1.47 -4.2 -11.05 1.35 0 3.46 9.37zm11.12 -3.9c0,-0.86 0.1,-1.65 0.3,-2.34 0.2,-0.7 0.48,-1.29 0.85,-1.79 0.37,-0.5 0.82,-0.87 1.35,-1.14 0.53,-0.27 1.13,-0.4 1.81,-0.4 0.8,0 1.48,0.16 2.05,0.48 0.57,0.32 1.04,0.76 1.41,1.33l0.06 -1.61 1.15 0 0 10.94c0,0.72 -0.11,1.37 -0.32,1.94 -0.21,0.57 -0.51,1.06 -0.9,1.45 -0.39,0.4 -0.86,0.7 -1.41,0.92 -0.55,0.21 -1.16,0.32 -1.84,0.32 -0.35,0 -0.71,-0.04 -1.07,-0.12 -0.37,-0.08 -0.72,-0.2 -1.05,-0.35 -0.34,-0.16 -0.66,-0.35 -0.96,-0.59 -0.3,-0.24 -0.57,-0.52 -0.79,-0.84l0.69 -0.74c0.45,0.56 0.93,0.96 1.44,1.22 0.51,0.26 1.06,0.39 1.67,0.39 0.53,0 1,-0.08 1.41,-0.24 0.41,-0.16 0.75,-0.39 1.04,-0.7 0.28,-0.31 0.5,-0.68 0.64,-1.11 0.15,-0.44 0.22,-0.93 0.22,-1.49l0 -1.3c-0.37,0.51 -0.84,0.92 -1.41,1.21 -0.57,0.29 -1.25,0.44 -2.04,0.44 -0.66,0 -1.26,-0.14 -1.79,-0.42 -0.53,-0.28 -0.98,-0.67 -1.35,-1.16 -0.37,-0.5 -0.65,-1.09 -0.85,-1.79 -0.2,-0.7 -0.3,-1.46 -0.3,-2.3l0 -0.21zm1.25 0.21c0,0.65 0.06,1.26 0.2,1.82 0.13,0.56 0.33,1.05 0.59,1.46 0.27,0.41 0.61,0.73 1.02,0.97 0.41,0.24 0.89,0.35 1.46,0.35 0.43,0 0.81,-0.05 1.15,-0.15 0.34,-0.1 0.64,-0.25 0.9,-0.43 0.26,-0.18 0.48,-0.39 0.68,-0.64 0.19,-0.25 0.36,-0.52 0.5,-0.81l0 -5.18c-0.12,-0.29 -0.27,-0.56 -0.45,-0.83 -0.18,-0.26 -0.4,-0.5 -0.66,-0.7 -0.26,-0.2 -0.56,-0.36 -0.9,-0.48 -0.34,-0.12 -0.74,-0.18 -1.19,-0.18 -0.57,0 -1.06,0.12 -1.47,0.35 -0.41,0.24 -0.75,0.56 -1.02,0.97 -0.27,0.41 -0.46,0.9 -0.59,1.46 -0.13,0.56 -0.2,1.17 -0.2,1.81l0 0.21zm17.97 5.46c-0.07,-0.19 -0.12,-0.43 -0.16,-0.71 -0.04,-0.28 -0.06,-0.56 -0.08,-0.85 -0.19,0.24 -0.41,0.46 -0.66,0.68 -0.25,0.21 -0.54,0.4 -0.85,0.56 -0.32,0.16 -0.66,0.28 -1.04,0.38 -0.38,0.09 -0.79,0.14 -1.23,0.14 -0.54,0 -1.03,-0.08 -1.48,-0.24 -0.44,-0.16 -0.82,-0.38 -1.13,-0.66 -0.31,-0.28 -0.56,-0.62 -0.73,-1 -0.17,-0.39 -0.26,-0.8 -0.26,-1.26 0,-0.54 0.12,-1.03 0.35,-1.47 0.23,-0.44 0.57,-0.81 1.01,-1.11 0.44,-0.31 0.97,-0.54 1.6,-0.7 0.63,-0.16 1.34,-0.24 2.12,-0.24l2.29 0 0 -1.27c0,-0.8 -0.25,-1.42 -0.74,-1.88 -0.49,-0.46 -1.21,-0.69 -2.15,-0.69 -0.43,0 -0.83,0.06 -1.19,0.18 -0.37,0.12 -0.68,0.28 -0.95,0.48 -0.26,0.2 -0.47,0.44 -0.61,0.71 -0.15,0.27 -0.22,0.56 -0.22,0.87l-1.24 -0.01c0,-0.42 0.1,-0.82 0.31,-1.22 0.21,-0.39 0.5,-0.74 0.87,-1.04 0.37,-0.31 0.82,-0.55 1.35,-0.73 0.53,-0.19 1.11,-0.28 1.75,-0.28 0.59,0 1.13,0.08 1.63,0.23 0.5,0.15 0.93,0.38 1.28,0.68 0.36,0.3 0.64,0.68 0.83,1.13 0.2,0.45 0.3,0.98 0.3,1.58l0 5.39c0,0.19 0.01,0.39 0.02,0.6 0.01,0.2 0.04,0.4 0.07,0.6 0.03,0.19 0.07,0.38 0.11,0.55 0.04,0.18 0.09,0.33 0.14,0.46l0 0.12 -1.32 0zm-3.87 -0.89c0.45,0 0.86,-0.06 1.24,-0.17 0.38,-0.12 0.73,-0.27 1.04,-0.47 0.31,-0.2 0.58,-0.43 0.8,-0.69 0.23,-0.27 0.41,-0.55 0.55,-0.86l0 -2.45 -2.11 0c-0.63,0 -1.19,0.06 -1.69,0.17 -0.5,0.11 -0.92,0.28 -1.26,0.49 -0.34,0.21 -0.6,0.47 -0.79,0.78 -0.18,0.31 -0.27,0.65 -0.27,1.04 0,0.3 0.06,0.58 0.17,0.85 0.12,0.26 0.28,0.49 0.5,0.69 0.22,0.2 0.48,0.35 0.79,0.46 0.31,0.11 0.65,0.17 1.04,0.17zm9.25 -10.25l0.04 1.81c0.19,-0.3 0.4,-0.58 0.64,-0.83 0.25,-0.25 0.52,-0.46 0.82,-0.64 0.3,-0.18 0.63,-0.31 0.99,-0.41 0.36,-0.09 0.74,-0.14 1.16,-0.14 0.82,0 1.51,0.17 2.1,0.52 0.58,0.34 1,0.89 1.25,1.65 0.18,-0.31 0.39,-0.6 0.64,-0.86 0.25,-0.26 0.53,-0.49 0.85,-0.69 0.32,-0.19 0.67,-0.34 1.05,-0.45 0.39,-0.11 0.8,-0.17 1.25,-0.17 0.58,0 1.09,0.08 1.54,0.23 0.45,0.15 0.84,0.4 1.15,0.73 0.31,0.33 0.55,0.76 0.71,1.27 0.17,0.52 0.25,1.13 0.25,1.86l0 7.26 -1.24 0 0 -7.27c0,-0.59 -0.06,-1.08 -0.19,-1.47 -0.13,-0.39 -0.32,-0.7 -0.56,-0.93 -0.24,-0.23 -0.53,-0.39 -0.86,-0.48 -0.33,-0.09 -0.7,-0.13 -1.1,-0.13 -0.52,0.01 -0.98,0.1 -1.37,0.28 -0.39,0.18 -0.72,0.41 -0.99,0.69 -0.27,0.28 -0.48,0.59 -0.63,0.93 -0.15,0.34 -0.24,0.68 -0.27,1l0 7.37 -1.24 0 0 -7.36c0,-0.56 -0.06,-1.02 -0.19,-1.39 -0.13,-0.37 -0.32,-0.67 -0.56,-0.9 -0.24,-0.23 -0.53,-0.39 -0.86,-0.48 -0.33,-0.1 -0.7,-0.14 -1.11,-0.14 -0.47,0 -0.88,0.07 -1.24,0.22 -0.35,0.15 -0.67,0.34 -0.93,0.59 -0.26,0.25 -0.48,0.53 -0.65,0.84 -0.17,0.32 -0.31,0.64 -0.41,0.98l0 7.64 -1.23 0 0 -11.14 1.18 0zm21.88 11.35c-0.73,0 -1.4,-0.14 -2.01,-0.41 -0.61,-0.27 -1.13,-0.65 -1.58,-1.13 -0.44,-0.48 -0.79,-1.06 -1.04,-1.73 -0.25,-0.67 -0.37,-1.4 -0.37,-2.19l0 -0.44c0,-0.86 0.13,-1.63 0.39,-2.33 0.26,-0.7 0.6,-1.29 1.04,-1.78 0.44,-0.49 0.95,-0.87 1.52,-1.14 0.57,-0.27 1.18,-0.4 1.82,-0.4 0.71,0 1.34,0.13 1.88,0.38 0.55,0.25 1.01,0.61 1.38,1.06 0.38,0.45 0.66,0.99 0.85,1.62 0.19,0.62 0.29,1.31 0.29,2.05l0 0.75 -7.95 0 0 0.24c0,0.61 0.09,1.18 0.28,1.73 0.19,0.54 0.45,1.01 0.78,1.4 0.34,0.4 0.74,0.71 1.21,0.95 0.47,0.23 0.98,0.34 1.55,0.34 0.66,0 1.24,-0.12 1.75,-0.36 0.5,-0.24 0.96,-0.63 1.37,-1.15l0.77 0.59c-0.19,0.27 -0.4,0.52 -0.64,0.76 -0.25,0.24 -0.53,0.45 -0.85,0.63 -0.32,0.18 -0.69,0.32 -1.09,0.42 -0.4,0.1 -0.86,0.15 -1.36,0.15zm-0.23 -10.5c-0.47,0 -0.9,0.09 -1.3,0.27 -0.4,0.18 -0.75,0.44 -1.05,0.76 -0.31,0.33 -0.56,0.73 -0.75,1.19 -0.2,0.46 -0.33,0.97 -0.4,1.54l6.68 0 0 -0.13c-0.01,-0.47 -0.09,-0.92 -0.22,-1.36 -0.14,-0.44 -0.34,-0.82 -0.6,-1.16 -0.27,-0.34 -0.59,-0.61 -0.98,-0.81 -0.39,-0.2 -0.85,-0.31 -1.37,-0.31zm16.25 10.5c-0.73,0 -1.4,-0.14 -2.01,-0.41 -0.61,-0.27 -1.13,-0.65 -1.58,-1.13 -0.44,-0.48 -0.79,-1.06 -1.04,-1.73 -0.25,-0.67 -0.37,-1.4 -0.37,-2.19l0 -0.44c0,-0.86 0.13,-1.63 0.39,-2.33 0.26,-0.7 0.6,-1.29 1.04,-1.78 0.44,-0.49 0.95,-0.87 1.52,-1.14 0.57,-0.27 1.18,-0.4 1.82,-0.4 0.71,0 1.34,0.13 1.88,0.38 0.55,0.25 1.01,0.61 1.38,1.06 0.38,0.45 0.66,0.99 0.85,1.62 0.19,0.62 0.29,1.31 0.29,2.05l0 0.75 -7.95 0 0 0.24c0,0.61 0.09,1.18 0.28,1.73 0.19,0.54 0.45,1.01 0.78,1.4 0.34,0.4 0.74,0.71 1.21,0.95 0.47,0.23 0.98,0.34 1.55,0.34 0.66,0 1.24,-0.12 1.75,-0.36 0.5,-0.24 0.96,-0.63 1.37,-1.15l0.77 0.59c-0.19,0.27 -0.4,0.52 -0.64,0.76 -0.25,0.24 -0.53,0.45 -0.85,0.63 -0.32,0.18 -0.69,0.32 -1.09,0.42 -0.4,0.1 -0.86,0.15 -1.36,0.15zm-0.23 -10.5c-0.47,0 -0.9,0.09 -1.3,0.27 -0.4,0.18 -0.75,0.44 -1.05,0.76 -0.31,0.33 -0.56,0.73 -0.75,1.19 -0.2,0.46 -0.33,0.97 -0.4,1.54l6.68 0 0 -0.13c-0.01,-0.47 -0.09,-0.92 -0.22,-1.36 -0.14,-0.44 -0.34,-0.82 -0.6,-1.16 -0.27,-0.34 -0.59,-0.61 -0.98,-0.81 -0.39,-0.2 -0.85,-0.31 -1.37,-0.31zm7.98 -0.84l0.04 1.9c0.19,-0.32 0.41,-0.6 0.66,-0.86 0.25,-0.26 0.53,-0.48 0.84,-0.67 0.31,-0.19 0.64,-0.33 1,-0.43 0.35,-0.1 0.73,-0.15 1.13,-0.15 0.56,0 1.05,0.08 1.49,0.23 0.44,0.15 0.81,0.39 1.12,0.72 0.3,0.33 0.54,0.75 0.7,1.27 0.16,0.52 0.24,1.14 0.24,1.88l0 7.25 -1.23 0 0 -7.26c0,-0.58 -0.06,-1.06 -0.19,-1.44 -0.12,-0.38 -0.3,-0.69 -0.52,-0.92 -0.23,-0.24 -0.5,-0.4 -0.83,-0.5 -0.33,-0.1 -0.69,-0.15 -1.09,-0.15 -0.44,0 -0.84,0.07 -1.19,0.22 -0.35,0.15 -0.67,0.34 -0.95,0.59 -0.27,0.25 -0.51,0.53 -0.71,0.85 -0.2,0.32 -0.35,0.65 -0.47,0.98l0 7.63 -1.23 0 0 -11.14 1.17 0zm9.91 5.47c0,-0.86 0.1,-1.65 0.3,-2.34 0.2,-0.7 0.48,-1.29 0.86,-1.79 0.37,-0.5 0.82,-0.87 1.35,-1.14 0.53,-0.27 1.13,-0.4 1.8,-0.4 0.79,0 1.47,0.16 2.03,0.47 0.57,0.32 1.03,0.75 1.41,1.31l0 -6.25 1.22 0 0 15.81 -1.15 0 -0.05 -1.48c-0.37,0.53 -0.84,0.94 -1.41,1.24 -0.58,0.3 -1.26,0.45 -2.07,0.45 -0.66,0 -1.25,-0.14 -1.78,-0.42 -0.53,-0.28 -0.98,-0.67 -1.35,-1.16 -0.37,-0.5 -0.66,-1.09 -0.86,-1.79 -0.2,-0.7 -0.3,-1.46 -0.3,-2.3l0 -0.21zm1.25 0.21c0,0.65 0.06,1.26 0.2,1.82 0.13,0.56 0.33,1.05 0.59,1.46 0.27,0.41 0.61,0.73 1.02,0.97 0.41,0.24 0.89,0.35 1.46,0.35 0.42,0 0.8,-0.05 1.13,-0.15 0.34,-0.1 0.64,-0.24 0.91,-0.41 0.26,-0.18 0.5,-0.39 0.69,-0.64 0.2,-0.25 0.36,-0.51 0.5,-0.8l0 -5.23c-0.13,-0.28 -0.28,-0.55 -0.45,-0.81 -0.18,-0.26 -0.4,-0.49 -0.66,-0.7 -0.26,-0.2 -0.56,-0.36 -0.91,-0.48 -0.34,-0.12 -0.74,-0.18 -1.19,-0.18 -0.57,0 -1.06,0.12 -1.47,0.35 -0.41,0.24 -0.75,0.56 -1.02,0.97 -0.27,0.41 -0.46,0.9 -0.59,1.46 -0.13,0.56 -0.2,1.17 -0.2,1.81l0 0.21zm12.34 5.46l-1.24 0 0 -15.81 1.24 0 0 15.81zm7.66 0.21c-0.73,0 -1.4,-0.14 -2.01,-0.41 -0.61,-0.27 -1.13,-0.65 -1.58,-1.13 -0.44,-0.48 -0.79,-1.06 -1.04,-1.73 -0.25,-0.67 -0.37,-1.4 -0.37,-2.19l0 -0.44c0,-0.86 0.13,-1.63 0.39,-2.33 0.26,-0.7 0.6,-1.29 1.04,-1.78 0.44,-0.49 0.95,-0.87 1.52,-1.14 0.57,-0.27 1.18,-0.4 1.82,-0.4 0.71,0 1.34,0.13 1.88,0.38 0.55,0.25 1.01,0.61 1.38,1.06 0.38,0.45 0.66,0.99 0.85,1.62 0.19,0.62 0.29,1.31 0.29,2.05l0 0.75 -7.95 0 0 0.24c0,0.61 0.09,1.18 0.28,1.73 0.19,0.54 0.45,1.01 0.78,1.4 0.34,0.4 0.74,0.71 1.21,0.95 0.47,0.23 0.98,0.34 1.55,0.34 0.66,0 1.24,-0.12 1.75,-0.36 0.5,-0.24 0.96,-0.63 1.37,-1.15l0.77 0.59c-0.19,0.27 -0.4,0.52 -0.64,0.76 -0.25,0.24 -0.53,0.45 -0.85,0.63 -0.32,0.18 -0.69,0.32 -1.09,0.42 -0.4,0.1 -0.86,0.15 -1.36,0.15zm-0.23 -10.5c-0.47,0 -0.9,0.09 -1.3,0.27 -0.4,0.18 -0.75,0.44 -1.05,0.76 -0.31,0.33 -0.56,0.73 -0.75,1.19 -0.2,0.46 -0.33,0.97 -0.4,1.54l6.68 0 0 -0.13c-0.01,-0.47 -0.09,-0.92 -0.22,-1.36 -0.14,-0.44 -0.34,-0.82 -0.6,-1.16 -0.27,-0.34 -0.59,-0.61 -0.98,-0.81 -0.39,-0.2 -0.85,-0.31 -1.37,-0.31zm13.48 7.46c0,-0.23 -0.04,-0.45 -0.12,-0.68 -0.08,-0.23 -0.23,-0.44 -0.44,-0.64 -0.22,-0.2 -0.52,-0.39 -0.91,-0.57 -0.39,-0.18 -0.89,-0.33 -1.51,-0.46 -0.62,-0.13 -1.17,-0.28 -1.65,-0.45 -0.48,-0.17 -0.89,-0.38 -1.23,-0.62 -0.33,-0.24 -0.59,-0.53 -0.76,-0.87 -0.17,-0.34 -0.26,-0.73 -0.26,-1.18 0,-0.41 0.09,-0.8 0.27,-1.17 0.18,-0.37 0.44,-0.7 0.78,-0.97 0.34,-0.27 0.75,-0.49 1.23,-0.65 0.48,-0.16 1.03,-0.24 1.63,-0.24 0.64,0 1.22,0.08 1.73,0.25 0.51,0.17 0.95,0.4 1.3,0.7 0.35,0.3 0.63,0.65 0.81,1.06 0.19,0.4 0.28,0.84 0.28,1.32l-1.24 0c0,-0.29 -0.06,-0.57 -0.19,-0.84 -0.13,-0.28 -0.31,-0.52 -0.56,-0.73 -0.25,-0.21 -0.55,-0.38 -0.91,-0.51 -0.36,-0.13 -0.77,-0.2 -1.23,-0.2 -0.48,0 -0.89,0.06 -1.23,0.18 -0.34,0.12 -0.61,0.27 -0.83,0.45 -0.21,0.19 -0.37,0.39 -0.47,0.62 -0.1,0.23 -0.15,0.46 -0.15,0.7 0,0.25 0.04,0.47 0.11,0.67 0.08,0.2 0.22,0.39 0.44,0.57 0.21,0.18 0.52,0.34 0.91,0.48 0.39,0.15 0.89,0.29 1.52,0.44 0.67,0.16 1.25,0.33 1.74,0.53 0.48,0.19 0.89,0.42 1.21,0.68 0.32,0.27 0.56,0.57 0.71,0.91 0.15,0.34 0.23,0.73 0.23,1.18 0,0.46 -0.1,0.88 -0.29,1.26 -0.19,0.38 -0.47,0.71 -0.82,0.98 -0.36,0.27 -0.79,0.48 -1.3,0.63 -0.51,0.15 -1.07,0.23 -1.7,0.23 -0.71,0 -1.33,-0.09 -1.87,-0.27 -0.54,-0.18 -1,-0.43 -1.37,-0.74 -0.37,-0.31 -0.65,-0.66 -0.84,-1.06 -0.19,-0.4 -0.28,-0.82 -0.28,-1.25l1.23 0c0.03,0.44 0.14,0.8 0.34,1.1 0.2,0.29 0.45,0.53 0.74,0.7 0.3,0.18 0.62,0.3 0.98,0.38 0.36,0.08 0.72,0.12 1.06,0.12 0.47,0 0.88,-0.06 1.24,-0.17 0.35,-0.11 0.66,-0.26 0.9,-0.44 0.24,-0.19 0.43,-0.4 0.55,-0.64 0.12,-0.24 0.18,-0.49 0.18,-0.75zm10.67 0c0,-0.23 -0.04,-0.45 -0.12,-0.68 -0.08,-0.23 -0.23,-0.44 -0.44,-0.64 -0.22,-0.2 -0.52,-0.39 -0.91,-0.57 -0.39,-0.18 -0.89,-0.33 -1.51,-0.46 -0.62,-0.13 -1.17,-0.28 -1.65,-0.45 -0.48,-0.17 -0.89,-0.38 -1.23,-0.62 -0.33,-0.24 -0.59,-0.53 -0.76,-0.87 -0.17,-0.34 -0.26,-0.73 -0.26,-1.18 0,-0.41 0.09,-0.8 0.27,-1.17 0.18,-0.37 0.44,-0.7 0.78,-0.97 0.34,-0.27 0.75,-0.49 1.23,-0.65 0.48,-0.16 1.03,-0.24 1.63,-0.24 0.64,0 1.22,0.08 1.73,0.25 0.51,0.17 0.95,0.4 1.3,0.7 0.35,0.3 0.63,0.65 0.81,1.06 0.19,0.4 0.28,0.84 0.28,1.32l-1.24 0c0,-0.29 -0.06,-0.57 -0.19,-0.84 -0.13,-0.28 -0.31,-0.52 -0.56,-0.73 -0.25,-0.21 -0.55,-0.38 -0.91,-0.51 -0.36,-0.13 -0.77,-0.2 -1.23,-0.2 -0.48,0 -0.89,0.06 -1.23,0.18 -0.34,0.12 -0.61,0.27 -0.83,0.45 -0.21,0.19 -0.37,0.39 -0.47,0.62 -0.1,0.23 -0.15,0.46 -0.15,0.7 0,0.25 0.04,0.47 0.11,0.67 0.08,0.2 0.22,0.39 0.44,0.57 0.21,0.18 0.52,0.34 0.91,0.48 0.39,0.15 0.89,0.29 1.52,0.44 0.67,0.16 1.25,0.33 1.74,0.53 0.48,0.19 0.89,0.42 1.21,0.68 0.32,0.27 0.56,0.57 0.71,0.91 0.15,0.34 0.23,0.73 0.23,1.18 0,0.46 -0.1,0.88 -0.29,1.26 -0.19,0.38 -0.47,0.71 -0.82,0.98 -0.36,0.27 -0.79,0.48 -1.3,0.63 -0.51,0.15 -1.07,0.23 -1.7,0.23 -0.71,0 -1.33,-0.09 -1.87,-0.27 -0.54,-0.18 -1,-0.43 -1.37,-0.74 -0.37,-0.31 -0.65,-0.66 -0.84,-1.06 -0.19,-0.4 -0.28,-0.82 -0.28,-1.25l1.23 0c0.03,0.44 0.14,0.8 0.34,1.1 0.2,0.29 0.45,0.53 0.74,0.7 0.3,0.18 0.62,0.3 0.98,0.38 0.36,0.08 0.72,0.12 1.06,0.12 0.47,0 0.88,-0.06 1.24,-0.17 0.35,-0.11 0.66,-0.26 0.9,-0.44 0.24,-0.19 0.43,-0.4 0.55,-0.64 0.12,-0.24 0.18,-0.49 0.18,-0.75z"/> </g> <line class="fil2 str0" x1="289.11" y1="36.07" x2="289.11" y2="181.54"/> <line class="fil2 str1" x1="660.23" y1="125.84" x2="663.35" y2="127.65"/> <line class="fil2 str1" x1="658.31" y1="128.01" x2="660.88" y2="129.5"/> <line class="fil2 str1" x1="655.71" y1="129.85" x2="658.71" y2="131.58"/> <line class="fil2 str1" x1="647.5" y1="109.43" x2="650.28" y2="111.03"/> <line class="fil2 str1" x1="645.74" y1="111.94" x2="648.24" y2="113.38"/> <line class="fil2 str1" x1="643.32" y1="114.1" x2="645.84" y2="115.56"/> </g> </svg>