<?xml version="1.0" encoding="UTF-8"?> <svg xmlns="http://www.w3.org/2000/svg" width="215" height="215" viewBox="0 0 215 215" fill="none"> <path d="M215 131.028V83.9721H183.942C182.44 79.1275 180.487 74.5083 178.159 70.1144L200.128 48.145L166.855 14.8716L144.886 36.8411C140.492 34.5127 135.873 32.5598 131.028 31.0577V0H83.9721V31.0577C79.1276 32.5598 74.5083 34.5127 70.1145 36.8411L48.145 14.8716L14.8717 48.145L36.841 70.1144C34.5127 74.5083 32.5599 79.1275 31.0577 83.9721H0V131.028H31.0577C32.5599 135.872 34.5127 140.492 36.841 144.886L14.8717 166.855L48.145 200.128L70.1145 178.159C74.5083 180.487 79.1276 182.44 83.9721 183.942V215H131.028V183.942C135.873 182.44 140.492 180.487 144.886 178.159L166.855 200.128L200.128 166.855L178.159 144.886C180.487 140.492 182.44 135.872 183.942 131.028H215ZM107.519 155.363C81.0804 155.363 59.6743 133.92 59.6743 107.519C59.6743 81.1179 81.1179 59.6742 107.519 59.6742C133.92 59.6742 155.363 81.1179 155.363 107.519C155.363 133.92 133.92 155.363 107.519 155.363Z" fill="url(#paint0_linear_347_120)"></path> <defs> <linearGradient id="paint0_linear_347_120" x1="0" y1="107.481" x2="215" y2="107.481" gradientUnits="userSpaceOnUse"> <stop stop-color="#FFBB0F"></stop> <stop offset="0.13" stop-color="#FFC80F" stop-opacity="0.8"></stop> <stop offset="0.31" stop-color="#FFD80F" stop-opacity="0.56"></stop> <stop offset="0.48" stop-color="#FFE60F" stop-opacity="0.36"></stop> <stop offset="0.64" stop-color="#FFF10F" stop-opacity="0.2"></stop> <stop offset="0.78" stop-color="#FFF80F" stop-opacity="0.09"></stop> <stop offset="0.91" stop-color="#FFFD0F" stop-opacity="0.02"></stop> <stop offset="1" stop-color="#FFFF0F" stop-opacity="0"></stop> </linearGradient> </defs> </svg> 