<?xml version="1.0" encoding="UTF-8"?> <!-- Creator: CorelDRAW 2021.5 --> <svg xmlns="http://www.w3.org/2000/svg" xmlns:xlink="http://www.w3.org/1999/xlink" xmlns:xodm="http://www.corel.com/coreldraw/odm/2003" xml:space="preserve" width="34.8188mm" height="34.8188mm" style="shape-rendering:geometricPrecision; text-rendering:geometricPrecision; image-rendering:optimizeQuality; fill-rule:evenodd; clip-rule:evenodd" viewBox="0 0 20.45 20.45"> <defs> <style type="text/css"> <![CDATA[ .fil0 {fill:url(#id0);fill-rule:nonzero} ]]> </style> <linearGradient id="id0" gradientUnits="objectBoundingBox" x1="98.2671%" y1="0%" x2="4.82326%" y2="129.656%"> <stop offset="0" style="stop-opacity:1; stop-color:#4A85D3"></stop> <stop offset="1" style="stop-opacity:1; stop-color:#1F0046"></stop> </linearGradient> </defs> <g id="Слой_x0020_1"> <metadata id="CorelCorpID_0Corel-Layer"></metadata> <path class="fil0" d="M10.23 0c2.82,0 5.38,1.14 7.23,3 1.85,1.85 3,4.41 3,7.23 0,2.82 -1.14,5.38 -3,7.23 -1.85,1.85 -4.41,3 -7.23,3 -2.82,0 -5.38,-1.14 -7.23,-3 -1.85,-1.85 -3,-4.41 -3,-7.23 0,-2.82 1.14,-5.38 3,-7.23 1.85,-1.85 4.41,-3 7.23,-3zm6.35 3.87c-1.63,-1.63 -3.87,-2.63 -6.35,-2.63 -2.48,0 -4.73,1.01 -6.35,2.63 -1.63,1.63 -2.63,3.87 -2.63,6.35 0,2.48 1.01,4.73 2.63,6.35 1.63,1.63 3.87,2.63 6.35,2.63 2.48,0 4.73,-1.01 6.35,-2.63 1.63,-1.63 2.63,-3.87 2.63,-6.35 0,-2.48 -1.01,-4.73 -2.63,-6.35z"></path> <path class="fil0" d="M16.75 10.23c0,-1.8 -0.73,-3.43 -1.91,-4.61 -0.6,-0.6 -1.33,-1.09 -2.13,-1.42l-3.02 4.9 3.05 0 -4.07 7.47c0.5,0.12 1.02,0.19 1.55,0.19 1.8,0 3.43,-0.73 4.61,-1.91 1.18,-1.18 1.91,-2.81 1.91,-4.61zm-5.99 -6.5c-0.18,-0.01 -0.35,-0.02 -0.53,-0.02 -1.8,0 -3.43,0.73 -4.61,1.91 -1.18,1.18 -1.91,2.81 -1.91,4.61 0,1.8 0.73,3.43 1.91,4.61 0.75,0.76 1.69,1.33 2.74,1.64l2.48 -6.17 -3.69 0.7 3.61 -7.28z"></path> </g> </svg> 