<?xml version="1.0" encoding="UTF-8"?> <svg xmlns="http://www.w3.org/2000/svg" width="187" height="187" viewBox="0 0 187 187" fill="none"> <path d="M187 113.966V73.0341H159.99C158.704 68.828 157.001 64.7956 154.967 60.9718L174.086 41.853L145.147 12.9139L126.028 32.0328C122.204 29.9993 118.172 28.3133 113.966 27.0098V0H73.0341V27.0098C68.828 28.296 64.7956 29.9993 60.9718 32.0328L41.8529 12.9139L12.9139 41.853L32.0328 60.9718C29.9993 64.7956 28.3133 68.828 27.0097 73.0341H0V113.966H27.0097C28.2959 118.172 29.9993 122.204 32.0328 126.028L12.9139 145.147L41.8529 174.086L60.9718 154.967C64.7956 157.001 68.828 158.687 73.0341 159.99V187H113.966V159.99C118.172 158.704 122.204 157.001 126.028 154.967L145.147 174.086L174.086 145.147L154.967 126.028C157.001 122.204 158.704 118.172 159.99 113.966H187ZM93.4913 135.136C70.4965 135.136 51.8469 116.504 51.8469 93.4913C51.8469 70.4792 70.4965 51.8643 93.4913 51.8643C116.486 51.8643 135.136 70.5139 135.136 93.4913C135.136 116.469 116.486 135.136 93.4913 135.136Z" fill="url(#paint0_linear_347_117)"></path> <defs> <linearGradient id="paint0_linear_347_117" x1="-0.0347616" y1="93.4913" x2="187" y2="93.4913" gradientUnits="userSpaceOnUse"> <stop stop-color="#F10064"></stop> <stop offset="0.09" stop-color="#E70869" stop-opacity="0.97"></stop> <stop offset="0.23" stop-color="#CF1E79" stop-opacity="0.87"></stop> <stop offset="0.42" stop-color="#A64193" stop-opacity="0.72"></stop> <stop offset="0.63" stop-color="#6E73B7" stop-opacity="0.51"></stop> <stop offset="0.87" stop-color="#28B2E5" stop-opacity="0.25"></stop> <stop offset="1" stop-color="#00D6FF" stop-opacity="0.1"></stop> </linearGradient> </defs> </svg> 