<?xml version="1.0" encoding="UTF-8"?> <!-- Creator: CorelDRAW 2020 (64-Bit) --> <svg xmlns="http://www.w3.org/2000/svg" xmlns:xlink="http://www.w3.org/1999/xlink" xmlns:xodm="http://www.corel.com/coreldraw/odm/2003" xml:space="preserve" width="559.998mm" height="1489.1mm" style="shape-rendering:geometricPrecision; text-rendering:geometricPrecision; image-rendering:optimizeQuality; fill-rule:evenodd; clip-rule:evenodd" viewBox="0 0 4009.88 10662.71"> <defs> <style type="text/css"> <![CDATA[ .fil20 {fill:#032246;fill-rule:nonzero} .fil31 {fill:#5B2F2A;fill-rule:nonzero} .fil34 {fill:#5B453D;fill-rule:nonzero} .fil32 {fill:#66453B;fill-rule:nonzero} .fil3 {fill:#6E827E;fill-rule:nonzero} .fil30 {fill:#70443D;fill-rule:nonzero} .fil25 {fill:#728C09;fill-rule:nonzero} .fil21 {fill:#9AC1BC;fill-rule:nonzero} .fil28 {fill:#C4C1B5;fill-rule:nonzero} .fil24 {fill:#D6EAE7;fill-rule:nonzero} .fil27 {fill:#DFBBBA;fill-rule:nonzero} .fil18 {fill:#E0DCCE;fill-rule:nonzero} .fil7 {fill:#ED9E00;fill-rule:nonzero} .fil29 {fill:#F3A783;fill-rule:nonzero} .fil0 {fill:#F9AD8F;fill-rule:nonzero} .fil17 {fill:#F9F5E5;fill-rule:nonzero} .fil14 {fill:#FFC433;fill-rule:nonzero} .fil22 {fill:#FFCBA4;fill-rule:nonzero} .fil1 {fill:#FFD0AB;fill-rule:nonzero} .fil33 {fill:#FFF2DC;fill-rule:nonzero} .fil35 {fill:white;fill-rule:nonzero} .fil13 {fill:url(#id0)} .fil8 {fill:url(#id1)} .fil16 {fill:url(#id2)} .fil15 {fill:url(#id3)} .fil2 {fill:url(#id4)} .fil26 {fill:url(#id5)} .fil9 {fill:url(#id6)} .fil23 {fill:url(#id7)} .fil10 {fill:url(#id8)} .fil6 {fill:url(#id9)} .fil19 {fill:url(#id10)} .fil11 {fill:url(#id11)} .fil5 {fill:url(#id12)} .fil4 {fill:url(#id13)} .fil12 {fill:url(#id14)} ]]> </style> <linearGradient id="id0" gradientUnits="userSpaceOnUse" x1="3818.74" y1="2081.68" x2="3818.74" y2="1793.15"> <stop offset="0" style="stop-opacity:1; stop-color:#ED9E00"></stop> <stop offset="1" style="stop-opacity:1; stop-color:#FFC433"></stop> </linearGradient> <linearGradient id="id1" gradientUnits="userSpaceOnUse" xlink:href="#id0" x1="3634.2" y1="1869.41" x2="3634.2" y2="1629.46"> </linearGradient> <linearGradient id="id2" gradientUnits="userSpaceOnUse" xlink:href="#id0" x1="2004.21" y1="946.71" x2="2004.21" y2="661.47"> </linearGradient> <linearGradient id="id3" gradientUnits="userSpaceOnUse" xlink:href="#id0" x1="2417.67" y1="773.12" x2="2417.67" y2="-212.28"> </linearGradient> <linearGradient id="id4" gradientUnits="userSpaceOnUse" x1="884.89" y1="10240.05" x2="884.89" y2="10685.48"> <stop offset="0" style="stop-opacity:1; stop-color:#CF4B34"></stop> <stop offset="1" style="stop-opacity:1; stop-color:#BA432E"></stop> </linearGradient> <linearGradient id="id5" gradientUnits="userSpaceOnUse" xlink:href="#id4" x1="2179.49" y1="8834.55" x2="2179.49" y2="9289.17"> </linearGradient> <linearGradient id="id6" gradientUnits="userSpaceOnUse" xlink:href="#id0" x1="3527.22" y1="1698.61" x2="3527.22" y2="1618.04"> </linearGradient> <linearGradient id="id7" gradientUnits="userSpaceOnUse" x1="1848.18" y1="6094.6" x2="1848.18" y2="3216.38"> <stop offset="0" style="stop-opacity:1; stop-color:#728C09"></stop> <stop offset="1" style="stop-opacity:1; stop-color:#8EAF0C"></stop> </linearGradient> <linearGradient id="id8" gradientUnits="userSpaceOnUse" xlink:href="#id0" x1="3434.77" y1="1625.01" x2="3434.77" y2="1395.18"> </linearGradient> <linearGradient id="id9" gradientUnits="userSpaceOnUse" xlink:href="#id0" x1="2315.21" y1="1356.12" x2="2315.21" y2="784.91"> </linearGradient> <linearGradient id="id10" gradientUnits="userSpaceOnUse" x1="2284.41" y1="5576.09" x2="2284.41" y2="10170.92"> <stop offset="0" style="stop-opacity:1; stop-color:#3C5876"></stop> <stop offset="1" style="stop-opacity:1; stop-color:#002756"></stop> </linearGradient> <linearGradient id="id11" gradientUnits="userSpaceOnUse" xlink:href="#id0" x1="2731.26" y1="1298.98" x2="2731.26" y2="-314.13"> </linearGradient> <linearGradient id="id12" gradientUnits="userSpaceOnUse" xlink:href="#id0" x1="3123.88" y1="700.7" x2="3123.88" y2="-42.24"> </linearGradient> <linearGradient id="id13" gradientUnits="userSpaceOnUse" xlink:href="#id0" x1="3127.73" y1="699.39" x2="3127.73" y2="-124.52"> </linearGradient> <linearGradient id="id14" gradientUnits="userSpaceOnUse" xlink:href="#id0" x1="2731.24" y1="1495.06" x2="2731.24" y2="672.81"> </linearGradient> </defs> <g id="Слой_x0020_1"> <metadata id="CorelCorpID_0Corel-Layer"></metadata> <path class="fil0" d="M2492.62 1637.38c0,0 -118.28,-169.35 -95.48,-210.25 22.85,-40.78 134.16,-36.58 153.02,-16.8 18.95,19.77 34.56,252.53 34.56,252.53l-92.1 -25.48z"></path> <polygon class="fil1" points="861.1,10184.94 947.2,9992.76 996.33,10039.96 911.35,10267.71 "></polygon> <path class="fil2" d="M988.8 10662.71c-66.08,-144.25 -207.81,-446.55 -207.81,-446.55 0,0 90.16,-76.49 126.1,-33.16 52.74,63.65 81.71,479.7 81.71,479.7z"></path> <polygon class="fil1" points="2199.69,8776.8 2355.03,8634.72 2381.46,8697.4 2212.91,8872.63 "></polygon> <path class="fil3" d="M1099.12 3951.54c0,0 121.91,-210.38 565,-325l-19.66 229.13 -545.34 95.87z"></path> <path class="fil4" d="M3296.84 190.02c0,0 -196.11,-45.21 -388.8,117.41l-63.12 -89.11c211.85,-243.27 518.75,-120.08 518.75,-120.08 122.42,238.36 -33.72,805.41 -33.72,805.41l-34.17 -48.24c37.88,-183.72 85.03,-501.88 1.06,-665.39z"></path> <path class="fil5" d="M3316.62 884.89c42.79,-210.91 93.2,-564.54 -1,-747.93 0,0 -219.28,-50.2 -436.94,128.98l29.36 41.49c192.68,-162.62 388.8,-117.41 388.8,-117.41 83.96,163.51 36.82,481.67 -1.06,665.39l20.84 29.48z"></path> <path class="fil6" d="M2018.48 1365.62c0,0 -28.73,-199.19 149.45,-377.67l-83.47 -70.23c-260.11,190.77 -163.06,506.84 -163.06,506.84 227.27,141.9 805.36,33.71 805.36,33.71l-45.19 -38c-186.22,22.31 -507.25,42.72 -663.1,-54.65z"></path> <path class="fil7" d="M2438.55 1491.65l0.56 1.19c159.4,-10.58 287.66,-34.56 287.66,-34.56l-45.19 -38c-76.44,9.17 -175.64,17.84 -276.76,18.35 12.25,17.18 23.77,34.76 33.73,53.03z"></path> <path class="fil7" d="M2045.66 1177.25c21.56,-59.11 58.55,-125.42 122.27,-189.3l-83.47 -70.23c-89.77,65.83 -136.94,146.57 -160.32,224.12 39.98,8.16 80.81,20.18 121.52,35.41z"></path> <polygon class="fil7" points="3503.83,1691.88 3485.66,1715.13 3671.22,1990.37 3786.6,1885.12 "></polygon> <polygon class="fil8" points="3512.64,1685.25 3494.47,1708.51 3714.5,1928.9 3773.94,1878.22 "></polygon> <polygon class="fil7" points="3677.01,1889.23 3643.88,2212.59 4009.88,1875.97 "></polygon> <path class="fil7" d="M3430.45 1684.79c-6.17,42.02 22.92,81.1 64.96,87.2 42,6.2 81.08,-22.85 87.28,-64.94 6.17,-42.02 -22.94,-81.1 -65.01,-87.28 -42.02,-6.13 -81.08,22.97 -87.23,65.01z"></path> <path class="fil9" d="M3486.96 1671.86c-3.12,22.29 12.32,43.08 34.58,46.3 22.17,3.25 42.77,-12.2 45.91,-34.61 3.18,-22.34 -12.36,-43.11 -34.56,-46.35 -22.19,-3.22 -42.82,12.25 -45.94,34.66z"></path> <path class="fil7" d="M3158.57 1621.3c60.61,47.46 176.61,156.5 317.19,32.14 140.65,-124.28 6.75,-287.44 6.75,-287.44l-323.94 255.3z"></path> <path class="fil10" d="M3337.68 1660.08c52.35,41 97.88,22.56 160.88,-39.62 67.87,-66.95 11.01,-171.84 11.01,-171.84l-171.89 211.46z"></path> <path class="fil11" d="M1939.12 945.74c130.91,-388.13 627.78,-790.02 941.63,-884.83 0,0 677.38,1055.29 641.29,1301.73 -13.89,94.58 -230.42,342.19 -362.35,336.16 -147.1,-6.7 -859.89,-409.54 -1220.56,-753.06z"></path> <path class="fil7" d="M3295.83 1552.15c-147.13,-6.77 -800.44,-476.15 -1161.12,-819.64 30.1,-89.16 168.28,-273.2 230.36,-359.95 -162.48,140.89 -308.86,312.47 -390.49,486.13 63.22,120.58 663.48,560.93 1230.93,812.42 123.67,-47.31 263.95,-215.67 286.44,-301.83 -26.67,12.27 -173.03,183.9 -196.12,182.87z"></path> <path class="fil12" d="M3159.68 1586.43c-142.79,-6.51 -818.19,-386.12 -1187.62,-722.44 -12.56,27.23 -23.72,54.56 -32.94,81.76 360.68,343.52 1073.46,746.35 1220.56,753.06 131.93,6.03 348.46,-241.57 362.35,-336.16 3.27,-22.75 0.51,-52.42 -7.21,-87.45 -40.23,106.9 -233.49,316.84 -355.14,311.23z"></path> <polygon class="fil13" points="3689.66,1860.23 3669.84,2153.21 3967.64,1879.53 "></polygon> <polygon class="fil14" points="3732.09,1884.85 3928.21,1893.66 3848.87,1948.72 "></polygon> <path class="fil14" d="M3525.03 1527.95c0,-23.75 -6.97,-42.99 -15.46,-42.99 -8.52,0 -15.44,19.24 -15.44,42.99 0,23.69 6.92,42.96 15.44,42.96 8.49,0 15.46,-19.27 15.46,-42.96z"></path> <path class="fil14" d="M2635.93 233.47l231.39 -132.22c0,0 551.93,935.31 614.71,1179.86l-52.88 66.14 -793.21 -1113.78z"></path> <path class="fil7" d="M2920.17 127.72c-26.34,-42.04 -42.14,-58.62 -42.14,-58.62 -313.72,94.78 -810.32,496.51 -941.17,884.41 21.03,20.04 64.42,49.47 87.66,69.8 148.47,-371.88 572.24,-763.01 895.64,-895.59z"></path> <path class="fil15" d="M2938.13 87.08c-27.83,-44.46 -44.36,-70.26 -44.36,-70.26 -332.22,100.35 -858.03,525.69 -996.55,936.45 22.24,21.23 45.84,42.65 70.5,64.16 157.23,-393.76 627.98,-789.84 970.41,-930.35z"></path> <path class="fil16" d="M2009.07 727.79c-47.9,74.26 -86.4,150.13 -111.84,225.48 22.24,21.23 45.84,42.65 70.5,64.16 34.37,-86.07 83.72,-172.3 143.48,-255.93 -36.28,-9.58 -70.45,-20.88 -102.14,-33.71z"></path> <path class="fil14" d="M2715.85 203.19c76.9,-47.83 152.31,-87.35 222.28,-116.11 -27.83,-44.46 -44.36,-70.26 -44.36,-70.26 -95.05,28.68 -205.97,84.11 -319.12,158.02 49.76,6.72 97.08,16.24 141.2,28.34z"></path> <path class="fil17" d="M2972.55 3362.07c82.14,-229.93 -338.87,-1527.54 -363,-1697.59l-125.28 -6.68c-88.27,338.75 -111.53,1405.65 -33.62,1699.97 80.48,304.01 448.63,209.45 521.9,4.31z"></path> <path class="fil18" d="M2822.39 2442.01c74.72,369.68 134.16,737.45 94.49,848.54 -73.31,205.2 -332.65,347 -413.15,42.96 -76.31,-288.5 -70.99,-1311.38 11.86,-1674.02l-31.32 -1.69c-88.27,338.75 -111.53,1405.65 -33.62,1699.97 80.48,304.01 448.63,209.45 521.9,4.31 41.29,-115.67 -48.07,-522.48 -150.16,-920.06z"></path> <path class="fil17" d="M2913.37 3450.8c-180.24,225.84 -622.28,759.16 -1008.94,994.99 -497.13,303.05 -444.8,-576.2 -356.99,-661.47 87.8,-85.44 747.9,-584.19 1088.53,-722.01 161.32,-65.25 456.23,164.31 277.39,388.48z"></path> <path class="fil18" d="M2870.61 3409.54c-52.04,95.38 -561.9,641.84 -948.55,877.61 -338.63,206.45 -422.28,-135.64 -413.47,-401.75 -51,246.58 3.29,837.1 416.78,585.04 386.65,-235.81 827.82,-785.54 1008.02,-1011.34 56.18,-70.41 79.34,-228.04 0,-413.12 0,165.21 -23.16,290.85 -62.78,363.56z"></path> <path class="fil1" d="M320.58 7344.2c40.75,-76.96 64.53,-272.77 89.38,-362.08l-62.52 -9.93c-47.31,109.16 -145.75,241.07 -145.12,281.97 0.22,14.28 104.26,116.42 118.26,90.03z"></path> <path class="fil1" d="M211.1 7230.21c-16.8,37.51 -86.18,123.92 -72.83,136.02 20.84,18.87 67.5,-53.25 95.41,-93.67 36.38,-52.76 -22.59,-42.35 -22.59,-42.35z"></path> <path class="fil1" d="M294.29 7306.45c-14.13,38.48 -60.82,131.42 -46.37,142.31 25.12,18.88 71.54,-86.4 83.63,-126.58 18.49,-61.47 -37.25,-15.73 -37.25,-15.73z"></path> <path class="fil1" d="M336.38 7279.58c62.21,-30.5 26.79,85.68 58.65,89.31 44.41,4.84 5.56,-166.76 -17.38,-218.56 -22.58,-51.07 -41.27,129.24 -41.27,129.24z"></path> <path class="fil1" d="M248.23 7279.1c-18.93,36.3 -81.22,135.29 -68.66,148.36 19.94,20.33 78.49,-81.08 100.22,-117.39 32.87,-55.18 -31.56,-30.98 -31.56,-30.98z"></path> <path class="fil19" d="M2626.42 5576.11c-375.78,264.56 -454.46,147.4 -950.85,491.61 143.01,411.24 -6.81,1496.97 -130.33,2001.36 -84.42,344.41 -698.7,2004.75 -698.7,2004.75l152.09 97.06c0,0 826.95,-1676.08 937.76,-1951.51 149.28,-371.04 406.62,-1419.2 551.83,-1469.79 175.21,-61.11 769.35,506.75 763.76,618.81 -17.67,351.68 -985.55,1281.07 -985.55,1281.07l70.19 151.75c0,0 1331.64,-1121.33 1383.22,-1384.18 62.59,-319.24 -1093.41,-1840.95 -1093.41,-1840.95z"></path> <path class="fil20" d="M3375.36 7350.98c5.67,-112.3 -610.45,-694.27 -785.68,-633.21 -10.07,3.54 -12.05,23.82 -23.16,36.38 233.39,76.92 690.27,517.44 685.46,614.25 -17.67,351.68 -985.55,1281.07 -985.55,1281.07l37.93 82.05c199.8,-199.44 1055.45,-1070.26 1071.01,-1380.55z"></path> <path class="fil20" d="M1668.62 8051.42c123.51,-504.4 245.79,-1096.65 214.88,-1488.98 445.07,-237.97 669.82,-370.12 903.41,-766.73 -20.65,-27.5 -145.46,-211.49 -145.46,-211.49 -375.76,264.52 -469.5,139.29 -965.88,483.5 143.01,411.24 -6.81,1496.97 -130.33,2001.36 -84.42,344.41 -698.7,2004.75 -698.7,2004.75l81.9 52.29c124.21,-329.17 665.53,-1769.99 740.18,-2074.71z"></path> <path class="fil20" d="M2308.77 6727.7c79.29,9.92 294.12,-36.36 403.16,-181.74 0,0 -9.88,168.55 -165.21,221.43 -155.36,52.84 -237.94,-39.69 -237.94,-39.69z"></path> <polygon class="fil20" points="2223.65,6253.42 2412,6506.31 2442.69,6500 2291.74,6221.75 "></polygon> <path class="fil17" d="M2150.03 3589.6c-1209.85,289.57 -1454.38,1016.73 -1454.38,1016.73 961.99,826.93 948.31,1710.76 1051.27,1810.72 127.67,124.02 1049.78,-539.69 998.28,-662.01 -604.89,-1196.95 -324.93,-1933.79 -595.18,-2165.44z"></path> <polygon class="fil21" points="1723.78,3706.96 1604.78,3806.15 1165.22,4004.4 1125.6,4077.13 1603.71,4088.14 1632.34,3900.83 1822.89,3915.16 "></polygon> <path class="fil18" d="M2149.11 6044.7c99.52,-480.38 32.72,-1645.38 -524.99,-2223.33l-101.94 64.07c0,0 652.81,537.68 391.97,2055.92l54.24 221.75 180.73 -118.4z"></path> <path class="fil18" d="M1857.07 6289.26c-20.14,-19.6 -214.22,-962.03 -652.18,-1462.96 -138.11,-158.05 -324.98,-148.12 -506.74,-211.56 961.98,826.91 920.95,1735.35 1023.89,1835.31 93.91,91.22 630.71,-261.39 887.78,-503.06 -276.35,207.52 -671.01,421.67 -752.75,342.28z"></path> <path class="fil22" d="M1195.11 3976.06l-183.85 -480.94 391.32 -169.79 285.67 407.42c0,0 -379.91,238.57 -493.14,243.31z"></path> <path class="fil17" d="M393.04 5638.55c54.96,-266.84 198.03,-904.16 418.14,-1266.89 282.93,-466.04 601.69,298.04 564.9,407.34 -37.03,109.09 -393.4,827.29 -596.34,1064.73 -96.04,112.4 -441.13,59.78 -386.69,-205.17z"></path> <path class="fil18" d="M847.94 4318.37l449.5 -280.93 -112.37 -39.62c0,0 -271.01,218.12 -337.13,320.55z"></path> <path class="fil18" d="M765.19 5770.8c-72.46,91.54 -303.9,85.92 -376.12,-51.85 23.38,194.04 333.84,247.23 419.23,147.3 202.89,-237.43 465.38,-767.8 502.36,-876.96 5.37,-15.97 38.29,-173.54 29.75,-211.49 -112.35,245.31 -409.55,783.78 -575.21,992.99z"></path> <path class="fil23" d="M2069.43 5979.97c117.2,-474.17 94.03,-1623.87 -440.98,-2193.83l-59.08 32.41c0,0 586.32,561.07 269.4,2059.69l45.92 218.73 184.74 -117z"></path> <polygon class="fil24" points="1112.31,4050.72 1099.12,3951.54 1611.02,3776.21 1582.09,4027.13 "></polygon> <polygon class="fil24" points="1591.71,3785.82 1789.62,3877.55 1741.31,3669.96 1664.12,3626.54 "></polygon> <polygon class="fil25" points="2315.38,6249.59 2363.82,6333.31 2509.25,6245.21 2447.58,6165.87 "></polygon> <path class="fil17" d="M428.52 5580.78c-139.84,177.19 -124.02,1353.42 -158.68,1531.8l115.4 44.77c194.18,-315.15 474.02,-1198.04 486.92,-1449.33 12.87,-251.28 -320.72,-283.06 -443.65,-127.24z"></path> <polygon class="fil18" points="286.11,6915.03 278.8,7032.47 414.99,7064.9 464.59,6932.75 "></polygon> <path class="fil18" d="M856.27 5609.61c-51.14,336.35 -293.87,1176.59 -471.02,1464l-106.44 -41.14c-2.66,34.85 -5.57,62.69 -8.96,80.11l115.4 44.77c194.18,-315.15 480.67,-1185.26 493.6,-1436.51 1.87,-37.78 -10.79,-83.3 -22.58,-111.23z"></path> <polygon class="fil17" points="402.92,7197.05 473.4,7025.2 257.48,6950.17 235.45,7117.66 "></polygon> <path class="fil18" d="M2196.4 3310.37l366.82 -185.08 -112.35 -26.43c0,0 -23.16,-125.59 -23.16,-115.69 0,9.93 -23.09,148.73 -23.09,148.73l-208.22 178.48z"></path> <path class="fil26" d="M2126.96 9265.93c-3.29,-158.76 -13.21,-492.53 -13.21,-492.53 0,0 113.12,-34.12 128.88,19.85 23.16,79.38 -115.67,472.68 -115.67,472.68z"></path> <polygon class="fil18" points="2480.59,1847.89 2649.14,1834.7 2630.97,1735.54 2490.54,1737.21 "></polygon> <path class="fil17" d="M2434.32 1780.18l23.11 -155.34 168.58 6.63c0,0 52.93,181.74 52.93,171.82 0,-9.93 -244.62,-23.11 -244.62,-23.11z"></path> <path class="fil27" d="M1117.01 4054.23c1.59,-1.36 3.17,-2.69 4.71,-3.99l0 0c-1.54,1.3 -3.12,2.64 -4.71,3.99zm-17.89 -102.69l0 0zm618.12 -304.8c0.22,-0.16 0.44,-0.34 0.68,-0.51 -0.24,0.19 -0.43,0.34 -0.68,0.51zm0.85 -0.65c0.43,-0.32 0.87,-0.65 1.3,-0.97 -0.43,0.32 -0.87,0.65 -1.3,0.97zm2.06 -1.57c0.12,-0.08 0.24,-0.17 0.34,-0.24 -0.12,0.07 -0.22,0.16 -0.34,0.24zm-98.31 -6.49l0 0c1.28,-0.36 2.54,-0.72 3.8,-1.06 -1.26,0.34 -2.52,0.7 -3.8,1.06z"></path> <path class="fil28" d="M1099.12 3951.54l0 0 0 0c0.16,-0.3 16.89,-28.85 59.71,-70.41l16.89 44.18 -76.6 26.24zm545.2 -281.44l-22.48 -32.07c1.28,-0.36 2.54,-0.72 3.8,-1.06 12.56,-3.53 25.34,-7.02 38.48,-10.43l-19.8 43.57z"></path> <path class="fil28" d="M1751.13 3712.19l-9.82 -42.23 -31.37 -17.64c2.42,-1.84 4.84,-3.7 7.31,-5.57 0.25,-0.16 0.44,-0.32 0.68,-0.51 0.05,-0.05 0.12,-0.1 0.17,-0.14 0.43,-0.32 0.87,-0.65 1.3,-0.97 0.25,-0.22 0.51,-0.38 0.75,-0.6 0.12,-0.08 0.22,-0.17 0.34,-0.24 28.83,-21.95 60.34,-45.53 93.64,-70.14 19.17,25.99 41,57.48 62.97,93.01 -43.52,14.45 -85.46,29.51 -125.98,45.04z"></path> <path class="fil18" d="M1591.01 4440.23c-123.53,0 -253.48,-39.98 -380.24,-84.28 -59.11,-77.23 -129.37,-133.57 -203.5,-133.57 -1.96,0 -3.94,0.05 -5.93,0.12l228.74 -142.96 373.63 8.61 14.81 -96.98c60.94,78.68 140.91,203.91 209.72,384.17 -74.25,46.88 -154.3,64.89 -237.24,64.89zm341.1 -156.47c-54.05,-135.88 -121.04,-263.38 -202.9,-375.63l93.69 7.04 -47.99 -100.85 -23.77 -102.12c40.52,-15.53 82.46,-30.59 125.98,-45.04 103.67,167.42 210.57,424.33 55,616.6zm-323.48 -486.73l0.36 -3.19 2.93 1.38 -3.29 1.81z"></path> <path class="fil28" d="M1603.71 4088.14l-373.63 -8.61 60.42 -37.76 291.6 -14.64 8.18 -70.91c8.81,10.43 18.27,22.04 28.25,34.95l-14.81 96.98zm219.18 -172.98l-93.69 -7.04c-23.59,-32.38 -48.35,-63.39 -74.49,-93.09l134.91 62.52 -14.72 -63.24 47.99 100.85z"></path> <path class="fil28" d="M1828.24 4375.34c-68.81,-180.27 -148.78,-305.5 -209.72,-384.17 -9.98,-12.9 -19.44,-24.52 -28.25,-34.95l11.64 -101c54.48,67.07 165.89,228.84 244.3,508.12 -5.96,4.19 -11.96,8.21 -17.98,12.01z"></path> <polygon class="fil29" points="1175.72,3925.31 1158.83,3881.13 1158.83,3881.13 1011.27,3495.12 1302.38,3368.82 1465.24,3414.76 1621.84,3638.03 1621.84,3638.03 1621.84,3638.03 1644.32,3670.11 1593.33,3782.26 "></polygon> <path class="fil18" d="M1210.77 4355.95c-95.12,-33.23 -188.47,-68.9 -275.89,-91.9l66.46 -41.56c1.99,-0.07 3.97,-0.12 5.93,-0.12 74.13,0 144.39,56.34 203.5,133.57z"></path> <path class="fil28" d="M934.88 4264.05c-11.98,-3.14 -23.81,-6.05 -35.55,-8.69 62.08,-66.8 154.85,-147.98 217.68,-201.13 1.59,-1.36 3.17,-2.69 4.71,-3.99l168.77 -8.47 -60.42 37.76 -228.74 142.96 -66.46 41.56z"></path> <path class="fil25" d="M1846.23 4363.33c-78.42,-279.28 -189.82,-441.05 -244.3,-508.12l6.7 -58.19 3.29 -1.81 42.79 19.82c26.14,29.7 50.9,60.7 74.49,93.09 81.86,112.26 148.85,239.76 202.9,375.63 -16.2,20.01 -35.22,39.3 -57.41,57.75 -9.37,7.82 -18.85,15.08 -28.47,21.83z"></path> <path class="fil18" d="M1112.31 4050.72l-13.19 -99.18 0 0 76.6 -26.24 417.6 -143.05 -1.62 3.56 17.28 8.01 -0.36 3.19 -6.7 58.19 -11.64 101 -8.18 70.91 -291.6 14.64 -168.77 8.47 0 0c0,0 0,0 0.03,-0.03l-9.44 0.51z"></path> <path class="fil18" d="M1789.62 3877.55l-134.91 -62.52 -42.79 -19.82 -2.93 -1.38 -17.28 -8.01 1.62 -3.56 51 -112.15 19.8 -43.57 0 0 45.8 25.82c0,-0.03 0.02,-0.03 0.02,-0.05l31.37 17.64 9.82 42.23 23.77 102.12 14.72 63.24z"></path> <path class="fil30" d="M799.17 3214.87l176.1 -553.75c0,0 -997.15,-444.47 -974.91,186.8 9.97,283.47 140.06,446.7 298.35,552.59 12.56,67.43 18.01,122.81 62.88,162.64 204.2,181.36 440.16,28.51 872.38,12.2l-434.81 -360.48z"></path> <path class="fil31" d="M856.17 3262.11c-95.34,-124.06 -241.81,-135.18 -368.88,-135.18 -235.02,0 -400.93,97.54 -473.32,-141.9 34.97,210.32 131.78,360.36 263.09,448.24 12.58,67.45 38.07,126.22 82.92,166.06 204.27,181.34 441.78,-7.67 874,-23.98l-377.81 -313.23z"></path> <path class="fil1" d="M1366.01 3643.48c-128.98,27.74 -544.21,-293.78 -810.1,-265.97 -87.1,-461.63 -92.87,-621.2 -14.4,-717.62 109.83,-99.93 311.04,-49.6 458.58,2.44 260.94,92 694.44,521.7 740.59,645.82 30.62,81.73 -118.88,280.25 -374.67,335.33z"></path> <path class="fil31" d="M285.53 3281.21c-41.68,-103.18 474.77,-108.82 878.36,111.65l-16.56 184.69c0,0 -781.09,-96.76 -861.81,-296.34z"></path> <path class="fil1" d="M1093.99 3434.92c-133.8,-38.34 -324.69,103.54 -202.32,208.15 122.32,104.68 451.25,-136.89 202.32,-208.15z"></path> <path class="fil29" d="M1081.86 3471.81c-86.33,-24.74 -209.28,66.97 -130.24,134.66 79.08,67.6 290.9,-88.59 130.24,-134.66z"></path> <path class="fil1" d="M1133.98 3478.73c-46.23,-15.44 -113.08,43.54 -71.21,86.43 41.89,42.93 157.12,-57.58 71.21,-86.43z"></path> <path class="fil1" d="M1049.24 2876.99c211.8,-21.13 454.44,26.7 468.84,40.1 14.3,13.37 -83.11,200.48 -83.11,200.48 0,0 -373.07,-225.69 -385.73,-240.58z"></path> <path class="fil29" d="M1522.02 2908.53c-14.32,-13.41 -256.21,-61.58 -467.12,-40.95 1.36,1.64 7.63,6.17 17.47,12.73 198.91,-8.91 403.32,31.42 416.69,43.79 10.87,10.17 -26.58,113.22 -54.17,167.75 12.4,7.51 13.65,9.25 13.65,9.25 0,0 87.76,-179.25 73.48,-192.56z"></path> <path class="fil30" d="M911.18 3124.44c-17.4,9.51 -71.45,-12.32 -71.45,-34.52 0,-22.22 -32.02,-224.24 -4.93,-241.52 27.11,-17.31 106.01,-4.94 110.92,24.66 4.92,29.53 -7.38,236.59 -34.54,251.38z"></path> <path class="fil30" d="M999.72 2631.11c-10.89,-12.8 -59.63,-33.11 -64.09,-21.74 -4.33,11.74 -90.62,116.15 -59.25,137.16 27.37,18.54 101.42,28.8 109.72,15 8.16,-13.43 29.36,-111.86 13.63,-130.43z"></path> <path class="fil32" d="M1343.16 3359.05l177.27 -272.34c0,0 97.18,123.1 77.23,174.02 -46.28,118.16 -254.5,98.31 -254.5,98.31z"></path> <path class="fil33" d="M1550.36 3185.58c-19.48,-36.01 -45.11,-68.44 -45.11,-68.44l-147.69 226.85c0,0 43.93,4.19 92.43,-4.16l100.37 -154.25z"></path> <path class="fil34" d="M1116.91 3045.3c3.42,-21.8 -21.73,-47.07 -56.32,-56.37 -34.54,-9.27 -65.35,0.89 -68.83,22.7 -3.51,21.88 21.69,47.1 56.22,56.4 34.59,9.27 65.4,-0.85 68.93,-22.73z"></path> <path class="fil34" d="M1185.89 2825.77c4.91,-21.52 -18.52,-48.38 -52.4,-60 -33.86,-11.55 -65.3,-3.46 -70.21,18.08 -4.94,21.56 18.52,48.46 52.33,60.05 33.89,11.55 65.3,3.46 70.29,-18.13z"></path> <path class="fil18" d="M851.26 5765.99c13.21,-161.95 -9.9,-277.64 -6.61,-347.05 2.21,-45.82 105.77,188.37 105.77,188.37l-99.16 158.68z"></path> <path class="fil18" d="M2310.97 4165.26c0,0 -30.88,-158.65 -66.14,-312.85 -12.29,-53.83 145.43,211.49 145.43,211.49l-79.29 101.36z"></path> <path class="fil1" d="M2453.82 1430.87c-8.16,-24.03 -27.71,-39.14 -43.68,-33.74 -16.03,5.45 -22.39,29.21 -14.33,53.27 8.18,24.01 27.72,39.13 43.74,33.76 16,-5.45 22.39,-29.34 14.28,-53.29z"></path> <path class="fil1" d="M2482.26 1505.83c-82.6,-19.79 -72.7,-94.12 -120.67,-79.29 -16.1,5.01 40.73,122.3 60.29,138.49 19.51,16.12 62.8,67.85 73.6,54.87 10.76,-13.02 11.42,-108.14 -13.22,-114.07z"></path> <path class="fil1" d="M2515.66 1428.33c-9.3,-27.47 -29.8,-45.28 -45.75,-39.86 -16.02,5.4 -21.47,32.02 -12.17,59.42 9.24,27.44 29.72,45.31 45.72,39.83 16,-5.39 21.42,-31.99 12.2,-59.39z"></path> <path class="fil1" d="M2566.47 1440.6c-6.27,-20.96 -21.08,-34.76 -33.11,-30.72 -12.05,4.02 -16.66,24.2 -10.48,45.14 6.24,21.01 21.13,34.78 33.16,30.74 12.05,-3.94 16.75,-24.23 10.44,-45.16z"></path> <polygon class="fil35" points="2849.59,262.98 2827.87,347.24 2746.88,366.96 2827.87,395.71 2849.59,495.58 2864.91,395.71 2934.28,366.96 2866.34,347.24 "></polygon> <polygon class="fil35" points="2363.84,589.87 2352.38,634.29 2309.68,644.68 2352.38,659.84 2363.84,712.5 2371.9,659.84 2408.48,644.68 2372.66,634.29 "></polygon> <polygon class="fil35" points="2490.24,0 2478.8,44.41 2436.09,54.82 2478.8,69.98 2490.24,122.64 2498.32,69.98 2534.89,54.82 2499.07,44.41 "></polygon> </g> </svg> 