<svg width="30" height="30" viewBox="0 0 30 30" fill="none" xmlns="http://www.w3.org/2000/svg">
<path d="M25.4348 7.66308H4.56524C3.39133 7.66308 2.44568 6.71743 2.44568 5.54352C2.44568 4.3696 3.39133 3.42395 4.56524 3.42395H25.4348C26.6087 3.42395 27.5544 4.3696 27.5544 5.54352C27.5544 6.71743 26.6087 7.66308 25.4348 7.66308ZM27.5544 15C27.5544 13.8261 26.6087 12.8805 25.4348 12.8805H4.56524C3.39133 12.8805 2.44568 13.8261 2.44568 15C2.44568 16.174 3.39133 17.1196 4.56524 17.1196H25.4348C26.6087 17.1196 27.5544 16.174 27.5544 15ZM27.5544 24.4566C27.5544 23.2826 26.6087 22.337 25.4348 22.337H4.56524C3.39133 22.337 2.44568 23.2826 2.44568 24.4566C2.44568 25.6305 3.39133 26.5761 4.56524 26.5761H25.4348C26.6087 26.5761 27.5544 25.6305 27.5544 24.4566Z" fill="#E54E43"/>
</svg>
