<svg width="34" height="34" viewBox="0 0 34 34" fill="none" xmlns="http://www.w3.org/2000/svg">
<g id="18661471221608672866 1" clip-path="url(#clip0_1_74)">
<g id="Group">
<path id="Vector" d="M19.2744 1.12061C19.2744 0.503581 19.8831 0 20.6413 0C21.3994 0 22.0081 0.500814 22.0081 1.12061V6.0236C22.0081 6.64063 21.3994 7.14421 20.6413 7.14421C19.8831 7.14421 19.2744 6.64339 19.2744 6.0236V1.12061ZM25.2814 15.7798C26.4601 15.7798 27.5863 16.015 28.6156 16.4411C29.6864 16.8838 30.6465 17.5313 31.4489 18.3337C32.2513 19.1361 32.8988 20.099 33.3415 21.1642C33.7676 22.1935 34.0028 23.3197 34.0028 24.4984C34.0028 25.6771 33.7676 26.8032 33.3415 27.8325C32.8988 28.9033 32.2513 29.8634 31.4489 30.6659C30.6465 31.4683 29.6836 32.1157 28.6183 32.5584C27.589 32.9845 26.4629 33.2197 25.2842 33.2197C24.1055 33.2197 22.9793 32.9845 21.95 32.5584C20.8792 32.1157 19.9191 31.4683 19.1167 30.6659C18.3143 29.8634 17.6668 28.9006 17.2241 27.8325C16.798 26.8032 16.5628 25.6771 16.5628 24.4984C16.5628 23.3197 16.798 22.1935 17.2241 21.1642C17.6668 20.0934 18.3143 19.1333 19.1167 18.3309C19.9191 17.5285 20.882 16.881 21.9473 16.4383C22.9766 16.015 24.0999 15.7798 25.2814 15.7798ZM24.6284 20.8543C24.6284 20.644 24.7142 20.4531 24.8525 20.3148C24.9909 20.1764 25.1818 20.0907 25.3949 20.0907C25.6079 20.0907 25.7988 20.1764 25.9372 20.3148C26.0755 20.4531 26.1613 20.644 26.1613 20.8571V24.9355L29.2104 26.7451L29.2354 26.7617C29.4041 26.8696 29.5148 27.0329 29.5591 27.2127C29.6061 27.4009 29.584 27.6056 29.4816 27.7827L29.4761 27.791C29.4705 27.8021 29.465 27.8104 29.4567 27.8187C29.3488 27.9847 29.1855 28.0954 29.0085 28.1396C28.8203 28.1867 28.6156 28.1646 28.4385 28.0622L25.0296 26.0451C24.9106 25.9814 24.811 25.8846 24.7391 25.7712C24.6672 25.6549 24.6256 25.5194 24.6256 25.3755L24.6284 20.8543ZM30.367 19.4128C29.703 18.7487 28.9116 18.2147 28.0345 17.8522C27.1878 17.5008 26.2581 17.3099 25.2814 17.3099C24.3047 17.3099 23.375 17.5036 22.5283 17.8522C21.6512 18.2147 20.8599 18.7487 20.1958 19.4128C19.5317 20.0768 18.9977 20.8682 18.6353 21.7453C18.2839 22.592 18.0929 23.5216 18.0929 24.4984C18.0929 25.4751 18.2866 26.4048 18.6353 27.2515C18.9977 28.1286 19.5317 28.9199 20.1958 29.584C20.8599 30.248 21.6512 30.7821 22.5283 31.1445C23.375 31.4959 24.3047 31.6868 25.2814 31.6868C26.2581 31.6868 27.1878 31.4932 28.0345 31.1445C28.9116 30.7821 29.703 30.248 30.367 29.584C31.6702 28.2808 32.4727 26.485 32.4727 24.4984C32.4727 23.5216 32.279 22.592 31.9303 21.7453C31.5651 20.8682 31.0311 20.0768 30.367 19.4128ZM3.72152 15.8711C3.64404 15.8711 3.57487 15.5308 3.57487 15.113C3.57487 14.6951 3.63574 14.3576 3.72152 14.3576H7.45133C7.52881 14.3576 7.59798 14.6979 7.59798 15.113C7.59798 15.5308 7.53711 15.8711 7.45133 15.8711H3.72152ZM9.66764 15.8711C9.59017 15.8711 9.521 15.5308 9.521 15.113C9.521 14.6951 9.58187 14.3576 9.66764 14.3576H13.3975C13.4749 14.3576 13.5441 14.6979 13.5441 15.113C13.5441 15.5308 13.4832 15.8711 13.3975 15.8711H9.66764ZM15.6138 15.8711C15.5363 15.8711 15.4671 15.5308 15.4671 15.113C15.4671 14.6951 15.528 14.3576 15.6138 14.3576H19.3436C19.4211 14.3576 19.4902 14.6952 19.4902 15.1102C19.1167 15.3426 18.757 15.5972 18.4139 15.8711H15.6138ZM3.72982 20.2096C3.65234 20.2096 3.58317 19.8693 3.58317 19.4515C3.58317 19.0337 3.64404 18.6934 3.72982 18.6934H7.45963C7.53711 18.6934 7.60628 19.0337 7.60628 19.4515C7.60628 19.8693 7.54541 20.2096 7.45963 20.2096H3.72982ZM9.67594 20.2096C9.59847 20.2096 9.5293 19.8693 9.5293 19.4515C9.5293 19.0337 9.59017 18.6934 9.67594 18.6934H13.4058C13.4832 18.6934 13.5524 19.0337 13.5524 19.4515C13.5524 19.8693 13.4915 20.2096 13.4058 20.2096H9.67594ZM3.73812 24.5509C3.66064 24.5509 3.59147 24.2106 3.59147 23.7928C3.59147 23.375 3.65234 23.0347 3.73812 23.0347H7.46794C7.54541 23.0347 7.61458 23.375 7.61458 23.7928C7.61458 24.2106 7.55371 24.5509 7.46794 24.5509H3.73812ZM9.68424 24.5509C9.60677 24.5509 9.5376 24.2106 9.5376 23.7928C9.5376 23.375 9.59847 23.0347 9.68424 23.0347H13.4141C13.4915 23.0347 13.5607 23.375 13.5607 23.7928C13.5607 24.2106 13.4998 24.5509 13.4141 24.5509H9.68424ZM6.99756 1.12061C6.99756 0.503581 7.60628 0 8.36442 0C9.12256 0 9.73128 0.500814 9.73128 1.12061V6.0236C9.73128 6.64063 9.11979 7.14421 8.36442 7.14421C7.60628 7.14421 6.99756 6.64339 6.99756 6.0236V1.12061ZM1.50521 10.7191H27.5365V5.07454C27.5365 4.88086 27.459 4.71208 27.3345 4.58757C27.21 4.46305 27.0329 4.38558 26.8475 4.38558H24.3517C23.9339 4.38558 23.5936 4.04525 23.5936 3.62744C23.5936 3.20964 23.9339 2.8693 24.3517 2.8693H26.8475C27.459 2.8693 28.0068 3.11556 28.408 3.51676C28.8092 3.91797 29.0555 4.46582 29.0555 5.07731V14.0394C28.5575 13.8678 28.0456 13.7295 27.5199 13.6271V12.2271H27.5365H1.50521V26.8447C1.50521 27.0384 1.58268 27.2072 1.70719 27.3317C1.83171 27.4562 2.00879 27.5337 2.19417 27.5337H14.5651C14.7062 28.0594 14.8833 28.5713 15.0964 29.0638H2.20801C1.59928 29.0638 1.04867 28.8175 0.647461 28.4163C0.246256 28.0179 0 27.4701 0 26.8586V5.08008C0 4.47135 0.246256 3.92074 0.647461 3.51953C1.04867 3.11833 1.59652 2.87207 2.20801 2.87207H4.87256C5.29036 2.87207 5.6307 3.2124 5.6307 3.63021C5.6307 4.04801 5.29036 4.38835 4.87256 4.38835H2.20801C2.01432 4.38835 1.84554 4.46582 1.72103 4.59033C1.59652 4.71484 1.51904 4.89193 1.51904 5.07731V10.7218H1.50521V10.7191ZM11.9172 4.38558C11.4993 4.38558 11.159 4.04525 11.159 3.62744C11.159 3.20964 11.4993 2.8693 11.9172 2.8693H16.9972C17.415 2.8693 17.7554 3.20964 17.7554 3.62744C17.7554 4.04525 17.415 4.38558 16.9972 4.38558H11.9172Z" fill="black"/>
</g>
</g>
<defs>
<clipPath id="clip0_1_74">
<rect width="34" height="33.2197" fill="white"/>
</clipPath>
</defs>
</svg>
