<svg width="178" height="25" viewBox="0 0 178 25" fill="none" xmlns="http://www.w3.org/2000/svg">
<g clip-path="url(#clip0_1_352)">
<path d="M58.0293 1.31965C60.9659 1.31965 63.9049 1.247 66.8367 1.34145C69.3963 1.42379 71.6465 3.70499 71.8688 6.22352C72.1468 9.36442 70.5202 11.5221 67.1098 12.3479C68.8065 15.3266 70.4815 18.2689 72.2724 21.4122C71.1075 21.4122 70.1238 21.4727 69.1546 21.3759C68.8621 21.3468 68.5334 20.9303 68.3546 20.6155C66.9285 18.1381 65.5122 15.6535 64.1466 13.1446C63.7309 12.3818 63.2523 12.0573 62.3025 12.4642V21.3008C60.2263 21.6544 59.378 20.9957 59.3683 19.0123C59.3417 14.0503 59.3345 9.09077 59.3683 4.12878C59.3755 2.95185 59.2015 1.9735 58.0293 1.31723V1.31965ZM62.3508 3.55485V9.98921C62.6771 10.0255 62.9478 10.0788 63.2161 10.0812C64.34 10.0885 65.4615 10.1006 66.5829 10.0594C66.8826 10.0473 67.2065 9.90203 67.4675 9.73494C68.6494 8.97211 69.2488 7.37139 68.8911 6.03948C68.5431 4.74389 67.2983 3.64929 65.9424 3.56938C64.7871 3.50157 63.627 3.55485 62.3508 3.55485Z" fill="black"/>
<path d="M157.357 21.463C154.819 21.4412 152.963 20.2933 151.87 18.0073C150.742 15.6438 150.601 13.1906 151.578 10.7423C152.61 8.15597 154.768 6.72234 157.47 6.73445C160.139 6.74656 162.372 8.24073 163.348 10.7835C164.325 13.3262 164.165 15.8714 162.899 18.2688C161.746 20.4532 159.834 21.4921 157.354 21.463H157.357ZM160.941 14.1641C160.777 13.193 160.702 12.2631 160.45 11.384C160.02 9.88261 158.86 9.01566 157.468 9.00113C156.069 8.9866 154.899 9.83902 154.444 11.3332C153.83 13.3601 153.913 15.404 154.626 17.3898C155.109 18.7386 156.146 19.3973 157.49 19.3828C158.821 19.3683 159.87 18.6805 160.298 17.322C160.622 16.2976 160.736 15.2079 160.941 14.1641Z" fill="black"/>
<path d="M107.062 13.9679C106.878 14.9511 106.791 15.9658 106.496 16.9151C105.532 20.0148 103.294 21.5574 100.058 21.4509C97.2975 21.3613 95.1101 19.5039 94.3488 16.5785C93.8823 14.7865 93.8533 12.9847 94.414 11.2121C95.3567 8.23344 98.0443 6.45836 101.08 6.76833C104.232 7.09041 106.596 9.55567 106.905 12.8612C106.939 13.2196 106.91 13.5853 106.91 13.9486C106.96 13.9558 107.011 13.9631 107.062 13.9704V13.9679ZM103.971 14.1617C103.777 13.0889 103.705 12.1129 103.417 11.2072C102.965 9.7833 101.793 8.99142 100.43 9.00837C99.115 9.0229 97.9694 9.8051 97.5368 11.1709C96.86 13.3092 96.9156 15.4645 97.7446 17.5593C98.2232 18.7701 99.1658 19.3682 100.471 19.3779C101.834 19.3876 102.837 18.758 103.258 17.4866C103.618 16.3944 103.753 15.2248 103.971 14.1641V14.1617Z" fill="black"/>
<path d="M122.637 10.6336C122.888 9.50029 122.784 7.94801 123.488 7.34985C124.184 6.75897 125.694 7.07863 126.847 7.09558C127.722 7.10769 128.636 7.14159 129.462 7.39344C131.384 7.97949 132.348 9.37437 132.358 11.3553C132.37 13.6946 132.375 16.0339 132.358 18.3733C132.343 20.3663 131.425 21.3398 129.429 21.4343C128.225 21.49 127.014 21.4924 125.808 21.4391C123.289 21.3253 121.54 19.6592 121.334 17.2448C121.129 14.8522 122.499 12.9609 124.998 12.4886C126.444 12.215 127.947 12.2537 129.533 12.1448C129.752 11.1591 129.658 10.1009 128.713 9.54388C126.427 8.19986 124.442 8.90456 122.796 11.0041C122.743 10.8806 122.69 10.7547 122.639 10.6312L122.637 10.6336ZM129.508 14.4647C128.399 14.4647 127.398 14.3727 126.422 14.4865C124.998 14.6536 124.244 15.6198 124.329 16.9445C124.457 18.9157 127.435 20.4099 129.054 19.2911C129.279 19.1361 129.479 18.7753 129.489 18.5016C129.535 17.1891 129.508 15.8741 129.508 14.4623V14.4647Z" fill="black"/>
<path d="M165.555 7.1753C168.325 7.1753 171.097 7.07602 173.86 7.20436C176.615 7.33271 177.997 8.93101 177.997 11.6505C177.997 14.8714 177.997 18.0922 177.997 21.296C175.846 21.7198 175.095 21.1023 175.092 18.993C175.09 16.7748 175.102 14.5565 175.087 12.3383C175.073 10.1951 174.222 9.35238 172.076 9.32574C171.402 9.31848 170.727 9.32574 169.918 9.32574V21.4123H166.993C166.993 20.7681 166.993 20.1409 166.993 19.5113C166.993 16.5278 166.983 13.5419 167 10.5584C167.008 9.23614 167.053 7.9236 165.289 7.43684C165.376 7.34966 165.465 7.26491 165.553 7.17773L165.555 7.1753Z" fill="black"/>
<path d="M85.3629 14.5639H77.2298C76.8117 16.2736 77.5754 18.3731 79.0111 19.2837C81.2589 20.7125 82.8396 19.4338 84.2632 17.683C84.3381 17.7483 84.4106 17.8137 84.4855 17.8791C84.2922 18.9568 84.1181 20.0392 83.8861 21.1072C83.8547 21.2573 83.5356 21.4462 83.352 21.4462C81.7858 21.4317 80.2002 21.514 78.6606 21.2985C76.4685 20.991 75.0376 19.613 74.4551 17.4771C73.7155 14.7721 73.8847 12.118 75.3131 9.64788C76.4757 7.6379 78.3247 6.95015 80.5507 7.19474C82.709 7.43206 84.0819 8.69617 84.6716 10.7328C85.0124 11.9097 85.1212 13.1545 85.3677 14.5639H85.3629ZM82.2305 12.4449C82.0782 10.3768 81.2299 9.24347 79.8764 9.20714C78.4165 9.1684 77.4981 10.2848 77.2588 12.4449H82.2329H82.2305Z" fill="black"/>
<path d="M91.4098 21.3881H88.5554C88.5554 20.8941 88.5554 20.4316 88.5554 19.969C88.5626 14.3241 88.5554 8.68167 88.594 3.03677C88.6013 2.05841 88.4708 1.55713 87.2961 1.42878C84.1831 1.08491 81.0942 0.549718 78.0005 0H91.4098V21.3881Z" fill="#E54E43"/>
<path d="M119.21 7.10269V10.3477C118.221 9.91424 117.18 9.32336 116.063 9.00854C114.717 8.62834 113.578 9.19259 112.873 10.3913C111.502 12.7185 111.403 15.1353 112.662 17.5401C113.436 19.0197 114.685 19.5476 116.317 19.1335C117.247 18.8962 118.142 18.5233 119.166 18.1721C119.418 18.6758 119.679 19.2013 119.993 19.831C117.675 21.2234 115.256 22.1122 112.672 21.0491C110.086 19.9859 109.059 17.62 108.947 15.0046C108.882 13.4862 109.177 11.8492 109.731 10.4301C110.514 8.42008 112.208 7.26494 114.405 7.12449C115.964 7.0252 117.535 7.10511 119.215 7.10511L119.21 7.10269Z" fill="black"/>
<path d="M136.259 3.23291H139.097V7.20928C139.989 7.2674 140.762 7.31584 141.591 7.36911V9.32824C140.813 9.37425 140.068 9.41784 139.162 9.47112C139.162 10.7522 139.162 11.9872 139.162 13.2223C139.162 14.9174 139.179 16.6102 139.157 18.3029C139.14 19.5622 139.222 20.7464 140.624 21.4366C139.686 21.4366 138.739 21.5092 137.811 21.4196C136.588 21.3009 136.298 20.3928 136.298 19.3249C136.298 16.46 136.298 13.5976 136.298 10.7328C136.298 10.3381 136.298 9.94092 136.298 9.49533C135.778 9.42995 135.353 9.37667 134.853 9.31613V7.38849C135.305 7.33037 135.732 7.27709 136.264 7.20928V3.23291H136.259Z" fill="black"/>
<path d="M143.358 7.30371H147.721V21.3034C145.669 21.7296 144.876 21.0975 144.869 19.0052C144.859 16.2251 144.823 13.4451 144.883 10.6674C144.912 9.27737 144.714 8.0956 143.358 7.30371Z" fill="black"/>
<path d="M148.17 2.91797C148.199 3.95202 147.343 4.84804 146.292 4.87952C145.229 4.91342 144.375 4.0949 144.349 3.01726C144.322 1.92751 145.113 1.09203 146.191 1.07024C147.242 1.04845 148.139 1.88634 148.17 2.91555V2.91797Z" fill="black"/>
</g>
<g clip-path="url(#clip1_1_352)">
<path d="M0.322801 18.4242C-0.13912 18.0115 -0.0764475 17.7101 0.336729 17.4273C0.687232 17.1873 1.0064 16.8929 1.37895 16.6993C1.56465 16.6031 1.83971 16.6784 2.07532 16.6761C2.02657 16.9068 2.00452 17.1468 1.91864 17.3624C1.87569 17.4702 1.71901 17.5328 1.61108 17.6174C5.39349 20.8702 11.1118 21.0023 15.0846 17.6093C14.9627 17.5108 14.8072 17.4366 14.7375 17.3137C14.6342 17.1317 14.5925 16.9149 14.5252 16.7132C14.77 16.6808 15.0683 16.544 15.247 16.6379C15.6881 16.8674 16.1001 17.1746 16.468 17.5108C16.6096 17.6394 16.6026 17.9327 16.663 18.1507C16.4494 18.1843 16.2312 18.255 16.0223 18.2364C15.8877 18.2248 15.7635 18.0823 15.601 17.9756C14.1166 20.9861 11.5436 22.4177 8.34724 22.4073C5.16717 22.3969 2.6533 20.9177 1.22691 17.9269C0.91239 18.1008 0.615274 18.2643 0.323962 18.4254L0.322801 18.4242Z" fill="black"/>
<path d="M5.47461 16.1961C5.50246 16.1683 5.53148 16.1404 5.55933 16.1138C5.53148 16.1416 5.50246 16.1694 5.47461 16.1961Z" fill="#F4F8FC"/>
<path d="M28.0576 18.8647C28.0565 17.8597 28.0553 16.8558 28.053 15.8508C28.0159 15.117 27.9787 14.3821 27.9416 13.6483C27.8754 13.0281 27.8093 12.4079 27.7431 11.7877C27.5075 11.171 27.2719 10.5543 27.0352 9.93646C26.9052 9.75099 26.7949 9.54581 26.6405 9.38236C25.4997 8.17213 23.9677 8.011 22.4415 7.86146C21.2089 7.73975 19.9972 7.93681 18.8006 8.21039C17.907 8.41441 17.7805 8.68451 18.1066 9.56203C18.167 9.72432 18.2157 9.89009 18.2691 10.0547C18.341 10.3955 18.4026 10.7398 18.4966 11.0748C18.5117 11.127 18.6857 11.178 18.7728 11.1606C19.396 11.0319 20.0135 10.8708 20.6367 10.7468C22.0921 10.4581 23.4419 10.5845 24.4969 11.7877C24.5932 12.1622 24.6884 12.5366 24.8021 12.9806C24.5132 12.9365 24.3646 12.9064 24.2137 12.8913C22.6074 12.7394 21.036 12.8449 19.5376 13.5103C18.4385 13.8963 17.5704 14.5559 17.04 15.6155C16.9344 15.8148 16.816 16.0108 16.7255 16.2171C16.6222 16.4501 16.585 16.6402 16.8543 16.8512C17.5901 17.4285 17.647 17.7507 17.2919 18.6352C17.2187 18.6967 17.1549 18.7859 17.0702 18.8161C16.4771 19.0247 16.5653 19.4015 16.7661 19.857C17.4857 21.4881 18.8772 22.1627 20.5091 22.3181C22.2221 22.4815 23.8412 22.1175 25.1178 20.7902C25.6459 21.75 26.3202 22.4769 27.518 22.3354C28.2225 22.252 28.8677 22.034 29.1521 21.2678C28.4058 20.6302 28.2213 19.7515 28.0588 18.8636L28.0576 18.8647ZM20.6054 19.4351C20.2711 19.2206 20.0425 18.8416 19.7651 18.5378C19.5771 17.4864 19.8475 16.588 20.6541 15.867C21.7265 15.4068 22.857 15.3199 24.0025 15.3859C24.3077 15.4033 24.743 15.299 24.729 15.8508C24.7232 16.2542 24.678 16.6611 24.7186 17.0598C24.7859 17.7334 24.5468 18.3014 24.2149 18.852C23.3166 19.8281 21.376 19.9301 20.6042 19.4351H20.6054Z" fill="#E54E43"/>
<path d="M38.4233 15.1458C37.4066 14.1628 36.0534 13.8336 34.8092 13.2957C34.7732 13.305 34.7372 13.3166 34.7013 13.3282C34.7372 13.3166 34.7732 13.3062 34.8092 13.2957C34.2103 12.9317 33.5546 12.6315 33.2807 11.9093C33.2726 11.2265 33.6567 10.8138 34.2324 10.5322C35.5415 10.4614 36.8147 10.5704 37.9939 11.3992C38.2783 10.6342 38.5115 9.934 38.7994 9.25702C38.9561 8.88954 38.8284 8.7458 38.5081 8.61481C36.6151 7.84393 34.6746 7.56572 32.6853 8.14417C31.5514 8.47338 30.566 9.04952 30.1819 10.2864C30.4732 10.2864 30.7656 10.2864 31.057 10.2852C30.7656 10.2852 30.4732 10.2864 30.1819 10.2864C29.9602 10.8463 29.6944 11.3992 29.9335 12.0241C30.1145 12.5306 30.2956 13.0361 30.4767 13.5426C31.0047 14.5025 31.8682 15.0658 32.8199 15.5284C33.6486 15.9353 34.4831 16.3282 35.3025 16.7525C35.9187 17.0713 36.289 17.5813 36.3563 18.2873C36.2054 19.2506 35.8201 19.5961 34.858 19.683C33.6393 19.7931 32.5414 19.4755 31.5293 18.8101C31.4098 18.7313 31.281 18.6675 31.1278 18.5806C30.7355 19.4616 30.3641 20.2985 29.9834 21.1541C32.4091 22.5961 34.887 22.7561 37.402 21.7371C38.9711 21.1007 39.6965 19.9137 39.6605 18.2873C39.7952 17.0249 39.4389 15.9561 38.421 15.1482L38.4233 15.1458Z" fill="#E54E43"/>
<path d="M48.1595 9.60821C48.1352 9.63835 48.1096 9.66965 48.0853 9.69979C47.8404 10.4371 47.5943 11.1732 47.3494 11.9104C47.0871 12.6059 46.8248 13.3003 46.5625 13.9958C46.4639 14.2277 46.3652 14.4607 46.2364 14.7644C46.0774 14.4352 45.9439 14.157 45.8105 13.8799C45.4971 13.0685 45.1826 12.2582 44.8692 11.4467C43.7608 11.4467 42.6536 11.4444 41.5452 11.4433C41.883 12.257 42.2196 13.072 42.5573 13.8857C42.8277 14.5557 43.0993 15.2258 43.3697 15.8958C43.6158 16.6145 43.863 17.3332 44.109 18.0519C44.1624 18.2328 44.2379 18.4101 44.2669 18.5945C44.4119 19.5369 44.788 20.5199 43.8305 21.285C42.8254 21.54 41.8215 21.7951 40.7734 22.0605V24.7731C42.2938 24.8102 43.6796 24.4682 44.9714 23.7391C45.9207 23.2035 46.6925 22.5115 46.992 21.4125C47.3935 20.3565 47.7963 19.3004 48.1978 18.2444C48.4926 17.4468 48.7886 16.6481 49.0834 15.8506C49.3074 15.271 49.5314 14.6902 49.7554 14.1106C50.0316 13.3757 50.309 12.6407 50.5852 11.9069C50.858 11.1732 51.1307 10.4405 51.4046 9.70675C50.3287 9.67081 49.2528 9.63603 48.1781 9.6001L48.1607 9.60821H48.1595Z" fill="#E54E43"/>
<path d="M15.0869 11.558C14.7004 10.9784 14.3139 10.3988 13.9274 9.81799C13.8938 9.77162 13.8671 9.71945 13.8265 9.6812C11.9358 7.86934 9.6564 7.57027 7.21216 8.05134C5.9854 8.29246 4.91648 8.88598 4.06227 9.82378C4.22475 9.83306 4.38724 9.84465 4.55089 9.85624C4.3884 9.84465 4.22592 9.83306 4.06227 9.82378C3.79069 10.1715 3.52027 10.5193 3.24868 10.8671C3.75471 10.8856 4.26073 10.9019 4.76676 10.9216C4.26073 10.903 3.75471 10.8868 3.24868 10.8671C3.05254 11.2137 2.8564 11.5614 2.66142 11.9081C2.50241 12.4877 2.34341 13.0661 2.18557 13.6457C2.13334 13.9054 2.06835 14.1627 2.03353 14.4236C1.95229 15.0414 1.7074 15.7103 2.55348 16.0488C2.69391 16.1056 2.7798 16.2992 2.89122 16.429C2.89122 16.6411 2.94577 16.8707 2.88309 17.0619C2.71132 17.5894 2.98755 17.8073 3.41001 17.9928C3.9729 18.2397 4.50214 18.5805 5.08128 18.7729C5.77184 19.0025 6.50071 19.1172 7.21216 19.2807C7.23421 19.2308 7.25626 19.1798 7.27947 19.13C6.19198 18.4901 5.55017 17.5674 5.43527 16.3119C5.4492 16.2725 5.46196 16.2331 5.47589 16.1948C5.50374 16.167 5.53276 16.1392 5.56061 16.1125C8.10931 16.1044 10.6568 16.1091 13.2055 16.0778C13.6477 16.072 14.0853 15.9039 14.5286 15.8297C14.7979 15.7856 15.0741 15.7787 15.3469 15.7555C15.4049 15.7856 15.4641 15.8158 15.5221 15.8459C15.5592 15.1133 15.5975 14.3795 15.6347 13.6469C15.4525 12.9502 15.2714 12.2535 15.0892 11.5557L15.0869 11.558ZM5.66971 13.6504C5.82987 13.109 5.99004 12.5688 6.1502 12.0275C6.38 11.7585 6.6098 11.4896 6.8396 11.2206C7.47678 11.0247 8.1035 10.7326 8.7546 10.6549C9.98137 10.5066 11.0236 10.9575 11.8232 11.9185C11.9764 12.4935 12.1308 13.0696 12.284 13.6446C10.0789 13.6469 7.8737 13.648 5.66855 13.6504H5.66971Z" fill="#E54E43"/>
<path d="M49.1076 7.84971C48.9718 7.85203 48.7663 7.96795 48.7188 8.08271C48.5122 8.5777 48.3532 9.09239 48.1768 9.59897C49.2526 9.6349 50.3285 9.66968 51.4032 9.70561C51.647 9.10514 51.8907 8.50467 52.1611 7.83812C51.0678 7.83812 50.0871 7.82884 49.1076 7.84855V7.84971Z" fill="#E54E43"/>
<path d="M43.5715 8.13749C43.5193 8.01925 43.3823 7.8558 43.2802 7.85464C42.2078 7.83377 41.1354 7.84189 39.9922 7.84189C40.2614 8.43888 40.4936 8.95705 40.7269 9.47406C40.9996 10.1302 41.2723 10.7875 41.5451 11.4436C42.6535 11.4436 43.7607 11.4459 44.8691 11.447C44.5952 10.7515 44.3201 10.056 44.0462 9.36162C43.8907 8.95241 43.7468 8.53857 43.5727 8.13864L43.5715 8.13749Z" fill="#E54E43"/>
</g>
<defs>
<clipPath id="clip0_1_352">
<rect width="119.971" height="21.5165" fill="white" transform="translate(58.0293)"/>
</clipPath>
<clipPath id="clip1_1_352">
<rect width="52.1612" height="16.9524" fill="white" transform="translate(0 7.82422)"/>
</clipPath>
</defs>
</svg>
