<svg width="30" height="34" viewBox="0 0 30 34" fill="none" xmlns="http://www.w3.org/2000/svg">
<g id="Group 1">
<path id="Vector" d="M29.2414 15.1627C28.7994 11.6579 27.1081 8.43006 24.4781 6.07162C21.8481 3.71317 18.4557 2.38234 14.9236 2.32337L15.9303 1.32482C16.0032 1.25357 16.0612 1.16861 16.1011 1.07484C16.141 0.981063 16.1619 0.880323 16.1627 0.778422C16.1635 0.676521 16.1441 0.575473 16.1057 0.481098C16.0672 0.386722 16.0105 0.300885 15.9387 0.22853C15.867 0.156175 15.7816 0.0987329 15.6876 0.0595114C15.5935 0.0202898 15.4926 6.43817e-05 15.3907 1.53455e-07C15.2888 -6.40748e-05 15.1879 0.0200342 15.0938 0.0591371C14.9997 0.0982401 14.9143 0.155575 14.8424 0.227839L12.3953 2.65509C12.3233 2.72651 12.266 2.81143 12.2268 2.90499C12.1876 2.99855 12.1672 3.09892 12.1668 3.20037C12.1663 3.30181 12.1859 3.40235 12.2244 3.49623C12.2628 3.59011 12.3194 3.67549 12.3908 3.74751L14.8379 6.21474C14.9091 6.28759 14.9941 6.34563 15.0878 6.38551C15.1816 6.4254 15.2823 6.44633 15.3842 6.44711C15.4861 6.44789 15.5872 6.4285 15.6816 6.39006C15.7759 6.35162 15.8618 6.29489 15.9341 6.22313C16.0065 6.15137 16.0639 6.06601 16.1032 5.97195C16.1424 5.8779 16.1626 5.77702 16.1627 5.67511C16.1627 5.57321 16.1426 5.4723 16.1035 5.3782C16.0644 5.28409 16.0071 5.19866 15.9348 5.12681L14.6871 3.86846C17.4075 3.87036 20.0602 4.71696 22.2787 6.29132C24.4973 7.86568 26.1723 10.0901 27.0723 12.6573C27.9722 15.2246 28.0528 18.0079 27.3029 20.6229C26.553 23.238 25.0096 25.5556 22.8858 27.2557C22.7259 27.3838 22.6235 27.5703 22.6011 27.7739C22.59 27.8748 22.5989 27.9768 22.6272 28.0742C22.6555 28.1717 22.7028 28.2626 22.7662 28.3417C22.8297 28.4209 22.9081 28.4868 22.997 28.5356C23.086 28.5845 23.1836 28.6153 23.2845 28.6264C23.4882 28.6489 23.6924 28.5895 23.8523 28.4613C27.8706 25.2389 29.8854 20.2675 29.2414 15.1627Z" fill="black"/>
<path id="Vector_2" d="M14.5218 27.7851C14.4505 27.7122 14.3656 27.6542 14.2718 27.6143C14.178 27.5744 14.0773 27.5535 13.9754 27.5527C13.8735 27.5519 13.7724 27.5713 13.6781 27.6098C13.5837 27.6482 13.4979 27.7049 13.4255 27.7767C13.3531 27.8485 13.2957 27.9338 13.2565 28.0279C13.2173 28.1219 13.197 28.2228 13.197 28.3247C13.1969 28.4266 13.217 28.5275 13.2561 28.6216C13.2952 28.7157 13.3525 28.8012 13.4248 28.873L14.6726 30.1309C11.9525 30.1292 9.29998 29.2829 7.0815 27.7089C4.86302 26.1349 3.18801 23.9109 2.28779 21.344C1.38758 18.7772 1.30659 15.9941 2.056 13.3793C2.80542 10.7644 4.34826 8.44675 6.47145 6.7464C6.63128 6.61814 6.73361 6.43165 6.75593 6.22794C6.77825 6.02423 6.71874 5.82 6.59048 5.66018C6.46223 5.50035 6.27573 5.39802 6.07202 5.37569C5.86832 5.35337 5.66409 5.41288 5.50426 5.54114C1.48789 8.76379 -0.525732 13.7342 0.118217 18.837C0.560142 22.3419 2.25141 25.5699 4.88157 27.9283C7.51172 30.2867 10.9043 31.6174 14.4365 31.6759L13.4293 32.6751C13.3564 32.7463 13.2984 32.8313 13.2585 32.9251C13.2186 33.0188 13.1977 33.1196 13.1969 33.2215C13.1961 33.3234 13.2155 33.4244 13.254 33.5188C13.2924 33.6132 13.3492 33.699 13.4209 33.7714C13.4927 33.8437 13.578 33.9012 13.6721 33.9404C13.7661 33.9796 13.867 33.9998 13.9689 33.9999C14.0708 34 14.1717 33.9799 14.2658 33.9408C14.3599 33.9017 14.4454 33.8443 14.5172 33.7721L16.9643 31.3446C17.0363 31.2732 17.0936 31.1883 17.1328 31.0947C17.172 31.0011 17.1924 30.9008 17.1929 30.7993C17.1933 30.6979 17.1737 30.5974 17.1353 30.5035C17.0968 30.4096 17.0403 30.3242 16.9688 30.2522L14.5218 27.7851Z" fill="black"/>
<path id="Vector_3" d="M15.2933 16.3891C15.1835 16.347 15.0806 16.3082 14.9919 16.2692C14.8946 16.2262 14.7781 16.1815 14.6494 16.1327C13.9179 15.8548 13.5212 15.6353 13.5212 15.2719C13.5212 15.1114 13.6925 14.8622 14.0195 14.6966C14.2512 14.5795 15.0878 14.2586 16.1538 15.0421C16.2355 15.103 16.3284 15.1471 16.4272 15.1719C16.526 15.1967 16.6287 15.2017 16.7295 15.1866C16.8302 15.1716 16.927 15.1367 17.0142 15.0842C17.1014 15.0316 17.1774 14.9622 17.2377 14.8802C17.298 14.7981 17.3415 14.7049 17.3657 14.606C17.3899 14.507 17.3943 14.4043 17.3786 14.3036C17.3629 14.203 17.3275 14.1064 17.2743 14.0196C17.2212 13.9327 17.1514 13.8571 17.0689 13.7973C16.5891 13.4395 16.0378 13.1895 15.4525 13.0641V12.3647C15.4505 12.1611 15.3683 11.9665 15.2236 11.8233C15.0789 11.68 14.8836 11.5996 14.68 11.5996C14.4764 11.5996 14.281 11.68 14.1363 11.8233C13.9916 11.9665 13.9094 12.1611 13.9074 12.3647V13.1005C13.7054 13.153 13.5093 13.2258 13.322 13.3178C12.4917 13.7379 11.9761 14.4866 11.9761 15.2718C11.9761 16.7702 13.4111 17.3152 14.101 17.5772C14.201 17.6149 14.2923 17.6493 14.3681 17.6828C14.4786 17.7315 14.6058 17.7805 14.7419 17.8326C15.5005 18.1223 15.8389 18.3136 15.8389 18.68C15.8389 18.8403 15.6676 19.0896 15.3406 19.2549C15.1088 19.3719 14.2727 19.6932 13.2062 18.9094C13.0412 18.788 12.8346 18.7372 12.6321 18.7681C12.4296 18.7991 12.2476 18.9092 12.1263 19.0742C12.0049 19.2393 11.9541 19.4459 11.985 19.6484C12.0159 19.8509 12.1261 20.0329 12.2911 20.1542C12.7707 20.5135 13.322 20.7654 13.9076 20.8926V21.6354C13.9095 21.839 13.9918 22.0336 14.1365 22.1768C14.2811 22.3201 14.4765 22.4005 14.6801 22.4005C14.8837 22.4005 15.0791 22.3201 15.2237 22.1768C15.3684 22.0336 15.4507 21.839 15.4526 21.6354V20.8543C15.6547 20.8007 15.8509 20.7269 16.0381 20.6338C16.8684 20.2137 17.384 19.4652 17.384 18.6801C17.3838 17.1879 16.024 16.6683 15.2933 16.3891Z" fill="black"/>
<path id="Vector_4" d="M14.6797 8.50195C12.999 8.50195 11.356 9.00036 9.95845 9.93414C8.56094 10.8679 7.47172 12.1951 6.82852 13.748C6.18532 15.3008 6.01703 17.0095 6.34493 18.6579C6.67283 20.3064 7.4822 21.8206 8.67068 23.0091C9.85916 24.1976 11.3734 25.0069 13.0218 25.3348C14.6703 25.6627 16.379 25.4945 17.9318 24.8513C19.4846 24.2081 20.8119 23.1188 21.7456 21.7213C22.6794 20.3238 23.1778 18.6808 23.1778 17C23.1753 14.747 22.2791 12.5869 20.686 10.9938C19.0928 9.40065 16.9328 8.5045 14.6797 8.50195ZM14.6797 23.953C13.3046 23.953 11.9603 23.5453 10.8169 22.7813C9.67344 22.0172 8.78225 20.9313 8.256 19.6608C7.72974 18.3903 7.59205 16.9923 7.86033 15.6436C8.12861 14.2948 8.79082 13.0559 9.76322 12.0835C10.7356 11.1111 11.9745 10.4489 13.3233 10.1806C14.672 9.91236 16.07 10.05 17.3405 10.5763C18.611 11.1026 19.6969 11.9937 20.4609 13.1372C21.2249 14.2806 21.6327 15.6249 21.6327 17C21.6306 18.8434 20.8974 20.6107 19.5939 21.9142C18.2904 23.2177 16.5231 23.9509 14.6797 23.953Z" fill="black"/>
</g>
</svg>
