<svg width="19" height="19" viewBox="0 0 19 19" fill="none" xmlns="http://www.w3.org/2000/svg">
<g id="Layer 86">
<path id="Vector" d="M15.8605 12.732C15.4474 12.3239 14.9021 12.0769 14.3229 12.0355C13.7437 11.9942 13.1689 12.1613 12.7021 12.5067L12.1588 12.9263C12.0145 13.0353 11.8355 13.0882 11.6552 13.0752C11.4748 13.0622 11.3053 12.9842 11.1781 12.8557L6.41627 8.08939C6.28856 7.96174 6.21111 7.79235 6.19813 7.61224C6.18515 7.43214 6.2375 7.25339 6.34559 7.10875L6.76524 6.54775C7.11115 6.08201 7.27864 5.50768 7.2373 4.92901C7.19597 4.35033 6.94855 3.80564 6.53995 3.39379L5.21476 2.0686C4.8019 1.66392 4.24682 1.43724 3.6687 1.43724C3.09058 1.43724 2.53551 1.66392 2.12265 2.0686L1.20826 2.97857C0.545431 3.63556 0.127771 4.49987 0.024885 5.42745C-0.0780008 6.35503 0.140102 7.28986 0.642847 8.07614C3.27194 12.2147 6.77796 15.7252 10.9131 18.3596C11.6999 18.8608 12.6343 19.0779 13.5615 18.9751C14.4887 18.8723 15.3528 18.4556 16.0107 17.7942C16.66 17.1405 17.6318 16.3718 17.5611 15.3382C17.6406 14.256 16.5275 13.4255 15.8605 12.732ZM15.9842 15.9434L15.0742 16.8577C14.6294 17.3062 14.0442 17.5885 13.4164 17.6576C12.7886 17.7267 12.156 17.5785 11.6243 17.2376C7.65673 14.7146 4.29233 11.3502 1.76926 7.38262C1.42839 6.85088 1.28016 6.21833 1.34929 5.5905C1.41843 4.96268 1.70074 4.37754 2.14915 3.9327L3.06353 3.02274C3.22738 2.86869 3.44381 2.78292 3.6687 2.78292C3.8936 2.78292 4.11003 2.86869 4.27387 3.02274L5.59907 4.34793C5.783 4.53386 5.89435 4.77945 5.91298 5.04032C5.93161 5.30119 5.8563 5.56012 5.70066 5.7703L5.28102 6.3313C4.98354 6.73185 4.83956 7.2258 4.87522 7.72346C4.91088 8.22112 5.12383 8.68949 5.47538 9.04353L10.2417 13.8142C10.5962 14.165 11.0644 14.3773 11.5618 14.413C12.0592 14.4486 12.553 14.3052 12.9539 14.0086L13.5149 13.5669C13.7251 13.4112 13.984 13.3359 14.2449 13.3545C14.5057 13.3732 14.7513 13.4845 14.9373 13.6685L16.0018 14.733C16.1597 14.896 16.2466 15.1149 16.2432 15.3418C16.2399 15.5687 16.1468 15.7851 15.9842 15.9434Z" fill="#E54E43"/>
<path id="Vector_2" d="M18.8113 0.195625C18.75 0.133655 18.6771 0.084453 18.5967 0.0508722C18.5164 0.0172915 18.4301 0 18.343 0C18.2559 0 18.1697 0.0172915 18.0893 0.0508722C18.0089 0.084453 17.936 0.133655 17.8748 0.195625L13.2764 4.79404V1.98905C13.2764 1.81332 13.2066 1.64479 13.0823 1.52053C12.958 1.39627 12.7895 1.32646 12.6138 1.32646C12.438 1.32646 12.2695 1.39627 12.1452 1.52053C12.021 1.64479 11.9512 1.81332 11.9512 1.98905V6.40636C11.9512 6.58209 12.021 6.75063 12.1452 6.87489C12.2695 6.99915 12.438 7.06896 12.6138 7.06896H17.0178C17.1936 7.06896 17.3621 6.99915 17.4864 6.87489C17.6106 6.75063 17.6804 6.58209 17.6804 6.40636C17.6804 6.23063 17.6106 6.0621 17.4864 5.93784C17.3621 5.81357 17.1936 5.74376 17.0178 5.74376H14.2128L18.8113 1.13209C18.8732 1.07088 18.9224 0.997965 18.956 0.917589C18.9896 0.837213 19.0069 0.750969 19.0069 0.66386C19.0069 0.576751 18.9896 0.490508 18.956 0.410131C18.9224 0.329755 18.8732 0.256844 18.8113 0.195625Z" fill="#E54E43"/>
</g>
</svg>
