<svg width="20" height="20" viewBox="0 0 20 20" fill="none" xmlns="http://www.w3.org/2000/svg">
<g id="5322079211582882387 1" clip-path="url(#clip0_1_21)">
<path id="Vector" d="M10 20C15.5228 20 20 15.5228 20 10C20 4.47715 15.5228 0 10 0C4.47715 0 0 4.47715 0 10C0 15.5228 4.47715 20 10 20Z" fill="#7AA5DA"/>
<path id="Vector_2" d="M19.997 9.76863L15.5579 5.33691L8.32715 14.1506L13.5336 19.357C17.3124 17.9292 20 14.2787 20 10C20 9.92262 19.9988 9.84551 19.997 9.76863Z" fill="#5786B5"/>
<path id="Vector_3" d="M14.9889 5.21549C15.3875 5.05994 15.7996 5.40877 15.7121 5.8276L13.9242 14.3737C13.8407 14.7744 13.37 14.9549 13.04 14.7124L10.3411 12.7313L8.96531 14.136C8.72355 14.3825 8.30671 14.2822 8.203 13.9535L7.21043 10.8027L4.5498 10.0168C4.20031 9.91377 4.18011 9.4276 4.51882 9.29494L14.9889 5.21549ZM13.6764 7.11178C13.7929 7.00873 13.6575 6.82693 13.5255 6.90908L7.78277 10.4707C7.68175 10.5333 7.63531 10.6565 7.67097 10.7703L8.45414 14.2094C8.46964 14.2619 8.54503 14.2545 8.55179 14.2L8.72687 11.5791C8.73359 11.5145 8.76457 11.4552 8.81308 11.4121L13.6764 7.11178Z" fill="white"/>
<path id="Vector_4" d="M13.5256 6.90939C13.6576 6.82724 13.793 7.00903 13.6765 7.11208L8.81322 11.4124C8.76475 11.4555 8.73377 11.5148 8.72701 11.5794L8.55193 14.2003C8.54521 14.2548 8.46978 14.2622 8.45428 14.2097L7.67111 10.7706C7.63541 10.6568 7.68189 10.5336 7.78291 10.471L13.5256 6.90939Z" fill="#9EC2E5"/>
<path id="Vector_5" d="M8.48246 14.2451C8.35585 14.1999 8.24878 14.0989 8.203 13.9535L7.21042 10.8026L4.5498 10.0167C4.20031 9.91369 4.18011 9.42752 4.51882 9.29486L14.9888 5.21545C15.2461 5.1151 15.5094 5.22486 15.6393 5.42826C15.6151 5.39123 15.5861 5.35689 15.5538 5.32658L8.45078 11.1252V11.3791L8.41171 11.3508L8.45078 12.9495V14.2316C8.46089 14.2363 8.47164 14.2404 8.48242 14.2437V14.2451H8.48246Z" fill="white"/>
<g id="Group">
<path id="Vector_6" d="M15.7237 5.68424C15.7257 5.73002 15.7223 5.7785 15.7122 5.82768L13.9243 14.3738C13.8408 14.7745 13.3701 14.9549 13.0401 14.7125L10.3412 12.7314L8.45093 11.3792V11.1253L15.554 5.32666C15.5863 5.35697 15.6153 5.39131 15.6395 5.42834C15.6442 5.43643 15.6489 5.44381 15.6536 5.45123C15.6576 5.45932 15.6624 5.4674 15.6664 5.47479C15.6705 5.48287 15.6745 5.49096 15.6779 5.49904C15.6819 5.50779 15.6853 5.51588 15.6887 5.52463C15.6914 5.53205 15.6947 5.5401 15.6974 5.54889C15.7062 5.57514 15.7129 5.60209 15.7176 5.63037C15.7203 5.64787 15.7223 5.66541 15.7237 5.68424Z" fill="#D1D1D1"/>
<path id="Vector_7" d="M10.3411 12.7315L8.96538 14.1363C8.95394 14.1477 8.94183 14.1592 8.92968 14.1693C8.91757 14.1794 8.90542 14.1881 8.89265 14.1969C8.89198 14.1976 8.89198 14.1976 8.89198 14.1976C8.8664 14.2144 8.84015 14.2285 8.81253 14.24C8.79839 14.2454 8.78491 14.2508 8.77077 14.2541C8.71218 14.2716 8.65226 14.2763 8.593 14.2703C8.57753 14.269 8.56202 14.2663 8.54722 14.2636C8.54519 14.2636 8.54319 14.2629 8.54116 14.2622C8.52636 14.2582 8.51151 14.2542 8.49671 14.2494C8.49198 14.2481 8.4873 14.2467 8.48257 14.244L8.45093 12.9498V11.3794L10.3411 12.7315Z" fill="#D1D1D1"/>
</g>
<g id="Group_2">
<path id="Vector_8" d="M8.92961 14.1689C8.9175 14.1791 8.90535 14.1885 8.89258 14.1972V14.1966C8.90539 14.1878 8.9175 14.1791 8.92961 14.1689Z" fill="#DADDE0"/>
<path id="Vector_9" d="M8.89295 14.1968V14.1976C8.89295 14.1976 8.89295 14.1968 8.89209 14.1976C8.89209 14.1976 8.89209 14.1976 8.89295 14.1968Z" fill="#DADDE0"/>
<path id="Vector_10" d="M8.8125 14.2397C8.84012 14.2282 8.86637 14.2141 8.89195 14.1973C8.86637 14.2141 8.83941 14.2282 8.8125 14.2397Z" fill="#DADDE0"/>
<path id="Vector_11" d="M8.59302 14.2701C8.65228 14.2761 8.7122 14.2714 8.77079 14.2539C8.72837 14.2674 8.68458 14.2734 8.64083 14.2734C8.62735 14.2734 8.61388 14.2728 8.6011 14.2714C8.59841 14.2714 8.59571 14.2714 8.59302 14.2701Z" fill="#DADDE0"/>
</g>
<g id="Group_3">
<path id="Vector_12" d="M8.5931 14.2702C8.59579 14.2715 8.59849 14.2715 8.60118 14.2715C8.58704 14.2708 8.57423 14.2688 8.56079 14.2661C8.57153 14.2682 8.58231 14.2695 8.5931 14.2702Z" fill="white"/>
</g>
<g id="Group_4">
<path id="Vector_13" d="M8.59314 14.2704C8.58236 14.2697 8.57158 14.2684 8.56084 14.2664C8.55611 14.2657 8.55143 14.265 8.54736 14.2637C8.56217 14.2664 8.57764 14.2691 8.59314 14.2704Z" fill="#DADDE0"/>
<path id="Vector_14" d="M8.49683 14.2495C8.51163 14.2542 8.52647 14.2583 8.54128 14.2623C8.53522 14.261 8.52917 14.2596 8.52311 14.2583C8.52042 14.2576 8.51772 14.257 8.51569 14.2556C8.5096 14.2542 8.50288 14.2522 8.49683 14.2495Z" fill="#DADDE0"/>
</g>
<g id="Group_5">
<path id="Vector_15" d="M8.52295 14.2583C8.529 14.2596 8.53506 14.261 8.54111 14.2623C8.53506 14.2617 8.529 14.2603 8.52295 14.2583Z" fill="white"/>
<path id="Vector_16" d="M8.4968 14.2495C8.50285 14.2521 8.50961 14.2542 8.51566 14.2555C8.50555 14.2535 8.49547 14.2501 8.48535 14.2461C8.48938 14.2474 8.49273 14.2488 8.4968 14.2495Z" fill="white"/>
</g>
<path id="Vector_17" d="M8.49681 14.2495C8.49278 14.2488 8.48938 14.2475 8.48536 14.2461C8.4847 14.2468 8.48333 14.2461 8.48267 14.2455V14.2441C8.48735 14.2468 8.49208 14.2481 8.49681 14.2495Z" fill="#DADDE0"/>
<path id="Vector_18" d="M8.45093 12.9497L8.48257 14.244C8.47179 14.2406 8.46101 14.2365 8.45093 14.2319V12.9497Z" fill="#D1D1D1"/>
<path id="Vector_19" d="M8.45093 11.3794V12.9497L8.41187 11.3511L8.45093 11.3794Z" fill="#DADDE0"/>
<path id="Vector_20" d="M13.6765 7.11206L8.81322 11.4124C8.76474 11.4555 8.73377 11.5148 8.72701 11.5794L8.55224 14.2005C8.54553 14.255 8.4701 14.2624 8.45392 14.2099L7.67111 10.7707C7.63541 10.6569 7.68189 10.5336 7.78291 10.471L13.5257 6.9094C13.6577 6.82721 13.793 7.00905 13.6765 7.11206Z" fill="#ADBCC9"/>
</g>
<defs>
<clipPath id="clip0_1_21">
<rect width="20" height="20" fill="white"/>
</clipPath>
</defs>
</svg>
