<svg xmlns="http://www.w3.org/2000/svg" width="31" height="46" viewBox="0 0 31 46">
  <defs>
    <style>
      .cls-1 {
        fill: #fff;
        fill-rule: evenodd;
        opacity: 0.8;
      }
    </style>
  </defs>
  <path id="scroll.svg" class="cls-1" d="M960.5,984A15.432,15.432,0,0,0,945,999.326v15.354a15.5,15.5,0,0,0,31,0V999.326A15.433,15.433,0,0,0,960.5,984Zm13.778,30.681a13.779,13.779,0,0,1-27.556,0V999.326a13.779,13.779,0,0,1,27.556,0v15.354ZM960.5,989.111a0.857,0.857,0,0,0-.861.852v7.714a0.861,0.861,0,0,0,1.722,0v-7.714A0.856,0.856,0,0,0,960.5,989.111Z" transform="translate(-945 -984)"/>
</svg>
