<?xml version="1.0" encoding="UTF-8"?> <!-- Creator: CorelDRAW 2020 (64-Bit) --> <svg xmlns="http://www.w3.org/2000/svg" xmlns:xlink="http://www.w3.org/1999/xlink" xmlns:xodm="http://www.corel.com/coreldraw/odm/2003" xml:space="preserve" width="445.209mm" height="226.479mm" style="shape-rendering:geometricPrecision; text-rendering:geometricPrecision; image-rendering:optimizeQuality; fill-rule:evenodd; clip-rule:evenodd" viewBox="0 0 2972.86 1512.3"> <defs> <style type="text/css"> <![CDATA[ .fil0 {fill:white;fill-rule:nonzero} ]]> </style> </defs> <g id="Слой_x0020_1"> <metadata id="CorelCorpID_0Corel-Layer"></metadata> <g id="_1942234993168"> <g> <path class="fil0" d="M1202.56 2.2c134.98,12.48 272.08,68.08 380.44,154.29 28.5,22.61 94.7,89.75 115.66,117.55 71.85,94.46 118.72,200.94 136.39,308.59l2.59 16.72 30.62 0.47c100.82,1.41 195.99,35.81 278.91,100.59 10.36,8.01 20.97,16.96 23.32,19.79l4.48 4.95 12.01 -10.13c62.9,-52.77 135.69,-79.39 217.9,-79.39 112.84,0 216.48,54.89 277.02,146.52 4.95,7.54 9.66,13.66 10.36,13.66 0.94,0 5.89,-4.24 10.84,-9.42 47.82,-49 131.92,-57.24 190.34,-19.08 70.43,45.94 98.23,137.81 66.19,218.37 -19.79,49.7 -64.54,89.75 -113.07,101.29 -42.4,10.13 -92.58,0.24 -125.32,-24.26 -4.24,-3.3 -8.24,-5.42 -8.72,-5.18 -0.47,0.47 -6.6,12.48 -13.9,26.85 -71.85,141.57 -241.69,210.83 -395.28,161.36 -12.01,-3.77 -21.91,-6.6 -21.91,-6.36 -0.24,0.24 -5.89,11.07 -12.72,24.03 -97.76,185.39 -301.76,281.5 -507.64,238.86 -67.61,-14.13 -138.75,-48.06 -194.58,-93.28 -22.85,-18.37 -61.48,-58.42 -77.5,-80.33 -7.07,-9.19 -13.66,-16.96 -14.84,-16.96 -0.94,0 -10.13,4 -20.26,9.19 -184.68,92.11 -406.35,99.88 -597.16,20.49 -43.11,-17.9 -109.3,-53.94 -135.21,-73.97l-7.77 -5.65 -29.21 28.27c-98.23,94.7 -228.97,133.57 -359,106.48 -115.9,-24.26 -217.66,-102.47 -275.61,-212.24 -33.21,-62.9 -49.94,-131.21 -49.94,-204.71 0,-40.52 4.24,-73.97 13.9,-111.89 47.35,-182.56 207.77,-311.65 388.21,-312.36l33.21 -0.24 4 -17.9c10.36,-47.58 40.75,-125.08 67.84,-173.61 94.46,-168.9 255.82,-293.04 443.33,-341.1 39.81,-10.36 65.25,-14.84 107.18,-19.32 34.16,-3.77 109.77,-4.24 144.87,-0.94l-0 -0z"></path> </g> </g> </g> </svg> 