<?xml version="1.0" encoding="UTF-8"?> <!-- Creator: CorelDRAW 2020 (64-Bit) --> <svg xmlns="http://www.w3.org/2000/svg" xmlns:xlink="http://www.w3.org/1999/xlink" xmlns:xodm="http://www.corel.com/coreldraw/odm/2003" xml:space="preserve" width="309.033mm" height="309.033mm" style="shape-rendering:geometricPrecision; text-rendering:geometricPrecision; image-rendering:optimizeQuality; fill-rule:evenodd; clip-rule:evenodd" viewBox="0 0 27317.15 27317.15"> <defs> <style type="text/css"> <![CDATA[ .fil0 {fill:#4D4D4D} .fil1 {fill:white;fill-rule:nonzero} ]]> </style> </defs> <g id="Слой_x0020_1"> <metadata id="CorelCorpID_0Corel-Layer"></metadata> <circle class="fil0" cx="13658.57" cy="13658.57" r="13658.57"></circle> <g id="Layer_x0020_1"> <path class="fil1" d="M17231.72 5292.21c-176.12,540.51 -461.07,1041.46 -804.53,1458.12l0 0.76c-346.54,419.04 -809.43,789.53 -1324.38,1035.18 -472.62,225.44 -990.69,346.86 -1506.23,306.67l-157.78 -12.3 -20.77 -157.1c-66.98,-506.64 10.37,-1019.52 173.26,-1494.14 189.56,-552.32 496.6,-1056.27 826.06,-1438.14l-0.06 -0.06c340.94,-399.38 798.17,-746.88 1287.82,-998.66 491.31,-252.63 1018.97,-410.61 1499.22,-430.18l181.54 -7.4 19.9 181.36c58.16,530.43 -12.58,1060.29 -174.06,1555.89l0.01 -0.01z"></path> <path class="fil1" d="M20569.6 10057.26c-174.04,107.68 -1856.22,1148.57 -1835.36,3246.64 22.01,2529.34 2166.66,3406.15 2285.04,3454.54l0.77 0 5.12 2.11 168.27 69.67 -57.63 172.2c-3.42,10.21 0.46,-0.65 -4.53,15.36 -54.72,175.33 -425.69,1363.77 -1263.69,2588.34 -380.27,555.45 -767.7,1110.08 -1225.14,1537.89 -473.63,442.95 -1014.54,741.95 -1682.76,754.37 -629.82,11.82 -1042.15,-166.59 -1470.79,-352.05 -408.71,-176.85 -833.76,-360.79 -1498.92,-360.79 -698.73,0 -1145.38,190.27 -1575.61,373.58 -404.98,172.53 -796.65,339.39 -1360.91,361.89l-0.77 0c-651.55,24.2 -1216.53,-293.42 -1718.67,-763.84 -480.39,-450.06 -901.27,-1039.42 -1284.81,-1594.15 -865.78,-1250.12 -1618.73,-3069.07 -1851.36,-4918.64 -191.35,-1521.35 -31.41,-3066.8 704.12,-4343.15 410.61,-714.13 984.47,-1296.93 1655.42,-1703.58 667.89,-404.8 1432.03,-635.16 2227.43,-647.08l0 -0.02c696.36,-12.63 1352.96,247.94 1927.5,475.94 406.61,161.35 768.88,305.12 1040.47,305.12 239.93,0 593.61,-139.44 1005.91,-301.99 696.32,-274.53 1548.19,-610.35 2448.98,-520.78 378.29,16.45 1166.21,107.06 1971.65,543.56 513.1,278.07 1033.53,695.56 1461.35,1321.69l112.81 165.11 -168.51 108.81c-9.01,5.83 -0.25,-0.11 -15.37,9.23l-0.01 0.01z"></path> </g> </g> </svg> 