<?xml version="1.0" encoding="UTF-8"?> <!-- Creator: CorelDRAW 2020 (64-Bit) --> <svg xmlns="http://www.w3.org/2000/svg" xmlns:xlink="http://www.w3.org/1999/xlink" xmlns:xodm="http://www.corel.com/coreldraw/odm/2003" xml:space="preserve" width="22.9588mm" height="22.9588mm" style="shape-rendering:geometricPrecision; text-rendering:geometricPrecision; image-rendering:optimizeQuality; fill-rule:evenodd; clip-rule:evenodd" viewBox="0 0 51.23 51.23"> <defs> <style type="text/css"> <![CDATA[ .fil0 {fill:white} ]]> </style> </defs> <g id="Слой_x0020_1"> <metadata id="CorelCorpID_0Corel-Layer"></metadata> <path class="fil0" d="M25.61 0c14.15,0 25.61,11.47 25.61,25.61 0,14.15 -11.47,25.61 -25.61,25.61 -14.15,0 -25.61,-11.47 -25.61,-25.61 0,-14.15 11.47,-25.61 25.61,-25.61zm14.55 28.94c0.22,-1.02 0.34,-2.08 0.34,-3.16 0,-8.13 -6.59,-14.73 -14.73,-14.73 -0.86,0 -1.7,0.07 -2.52,0.22 -1.32,-0.83 -2.87,-1.31 -4.54,-1.31 -4.72,0 -8.54,3.82 -8.54,8.54 0,1.58 0.43,3.05 1.17,4.32 -0.2,0.96 -0.3,1.95 -0.3,2.96 0,8.13 6.59,14.73 14.73,14.73 0.92,0 1.82,-0.09 2.7,-0.25 1.2,0.65 2.58,1.01 4.04,1.01 4.72,0 8.54,-3.82 8.54,-8.54 0,-1.36 -0.32,-2.65 -0.89,-3.79zm-6.83 3.88c-0.68,0.96 -1.69,1.73 -2.99,2.27 -1.29,0.54 -2.84,0.81 -4.6,0.81 -2.12,0 -3.89,-0.37 -5.27,-1.11 -0.99,-0.53 -1.81,-1.26 -2.42,-2.15 -0.63,-0.9 -0.94,-1.8 -0.94,-2.66 0,-0.54 0.21,-1.01 0.61,-1.39 0.4,-0.38 0.92,-0.57 1.54,-0.57 0.51,0 0.94,0.15 1.3,0.45 0.34,0.29 0.63,0.71 0.86,1.26 0.26,0.6 0.55,1.1 0.85,1.5 0.29,0.38 0.7,0.7 1.24,0.95 0.53,0.25 1.25,0.38 2.14,0.38 1.22,0 2.22,-0.26 2.97,-0.77 0.73,-0.5 1.09,-1.1 1.09,-1.84 0,-0.58 -0.19,-1.04 -0.57,-1.4 -0.4,-0.37 -0.93,-0.67 -1.57,-0.87 -0.67,-0.21 -1.58,-0.43 -2.7,-0.67 -1.52,-0.33 -2.82,-0.71 -3.85,-1.15 -0,-0 -0.01,-0 -0.01,-0 -1.06,-0.45 -1.91,-1.07 -2.53,-1.85 -0.63,-0.79 -0.95,-1.78 -0.95,-2.95 0,-1.11 0.34,-2.12 1,-2.98 0.66,-0.86 1.62,-1.53 2.86,-1.98 1.22,-0.45 2.68,-0.68 4.32,-0.68 1.32,0 2.47,0.15 3.44,0.45 0.97,0.3 1.79,0.71 2.43,1.21 0.65,0.51 1.13,1.05 1.43,1.61 0.31,0.57 0.46,1.13 0.46,1.68 0,0.53 -0.2,1 -0.6,1.42 -0.4,0.42 -0.91,0.63 -1.51,0.63 -0.55,0 -0.97,-0.13 -1.27,-0.4 -0.28,-0.24 -0.56,-0.62 -0.88,-1.17 -0.37,-0.7 -0.81,-1.25 -1.32,-1.64 -0.49,-0.38 -1.32,-0.57 -2.46,-0.57 -1.06,0 -1.91,0.21 -2.55,0.63 -0.61,0.4 -0.91,0.86 -0.91,1.41 0,0.34 0.1,0.62 0.29,0.86 0.21,0.26 0.5,0.48 0.88,0.67 0.39,0.19 0.79,0.35 1.19,0.46 0.41,0.11 1.1,0.28 2.04,0.5 0.99,0.21 1.92,0.45 2.76,0.7 0.17,0.05 0.34,0.1 0.5,0.15 0.98,0.31 1.83,0.7 2.52,1.15 0.71,0.46 1.26,1.05 1.66,1.75 0.4,0.71 0.6,1.58 0.6,2.59 0,1.21 -0.35,2.32 -1.03,3.29z"></path> </g> </svg> 