<?xml version="1.0" encoding="UTF-8"?> <!-- Creator: CorelDRAW 2020 (64-Bit) --> <svg xmlns="http://www.w3.org/2000/svg" xmlns:xlink="http://www.w3.org/1999/xlink" xmlns:xodm="http://www.corel.com/coreldraw/odm/2003" xml:space="preserve" width="259.02mm" height="241.618mm" style="shape-rendering:geometricPrecision; text-rendering:geometricPrecision; image-rendering:optimizeQuality; fill-rule:evenodd; clip-rule:evenodd" viewBox="0 0 910.97 849.77"> <defs> <style type="text/css"> <![CDATA[ .fil12 {fill:#304055} .fil11 {fill:#8EAF0C} .fil9 {fill:#332A28;fill-rule:nonzero} .fil10 {fill:#8EAF0C;fill-rule:nonzero} .fil5 {fill:#A4CADB;fill-rule:nonzero} .fil2 {fill:#ED5E45;fill-rule:nonzero} .fil1 {fill:#FFBD9C;fill-rule:nonzero} .fil0 {fill:white;fill-rule:nonzero} .fil8 {fill:black;fill-opacity:0.200000} .fil6 {fill:#8EB1C2;fill-rule:nonzero} .fil7 {fill:white;fill-rule:nonzero} .fil3 {fill:url(#id0);fill-rule:nonzero} .fil4 {fill:url(#id1);fill-rule:nonzero} ]]> </style> <linearGradient id="id0" gradientUnits="userSpaceOnUse" x1="453.12" y1="784.91" x2="436.31" y2="787.64"> <stop offset="0" style="stop-opacity:1; stop-color:#E6B6BC"></stop> <stop offset="0" style="stop-opacity:1; stop-color:#E6B6BC"></stop> <stop offset="1" style="stop-opacity:1; stop-color:#EDD3BF"></stop> </linearGradient> <linearGradient id="id1" gradientUnits="userSpaceOnUse" xlink:href="#id0" x1="346.93" y1="746.97" x2="330.13" y2="749.7"> </linearGradient> </defs> <g id="Слой_x0020_1"> <metadata id="CorelCorpID_0Corel-Layer"></metadata> <g id="_2308970474144"> <path class="fil0" d="M0.86 298.71c-5.77,46.27 17.88,101.67 62.82,154.34 0,0.01 0.01,0.01 0.01,0.01 3.09,4.29 120.65,189.18 343.7,265.17 211.35,72 420.05,20.93 482.77,-190.24 56.8,-191.27 -20.67,-349.25 -20.67,-349.25l-0.01 -0c-3.75,-9.07 -8.11,-17.82 -13.1,-26.18 -0.97,-1.64 -1.96,-3.26 -2.95,-4.85 -68.88,-111.12 -236.64,-111.86 -301.04,-1.74 -40.09,68.55 -108.92,136.85 -213.51,88.57 -185.14,-85.45 -320.79,-74.09 -338.02,64.18z"></path> <g> <path class="fil1" d="M693.85 540.03c-17.61,17.99 11.6,16.37 13.62,10.21 0.91,-2.78 4.32,-15.87 7.08,-15.01 4.58,1.43 8.07,1.11 10.53,0.31 1.19,-0.38 1.05,-2.12 -0.19,-2.24 -2.6,-0.25 -5.75,-1.47 -8.07,-5.34 -4.73,-7.86 -12.34,-5.74 -12.34,-5.74l-36.1 -80.19 15.26 -75.64c-8.61,-10.57 -13.45,-26.49 -28.94,-32.34 2.68,27.95 -15.32,81.71 -10.21,107.24 8.29,41.47 49.36,85.11 49.36,85.11l0 13.62z"></path> <path class="fil1" d="M457.29 792.73l-34.99 10.27c0,0 -9.46,40.49 -17.67,46.4 -8.2,5.91 -0.86,-61.72 9.94,-65.77l7.42 3.38 26.84 -18.11 8.45 23.83z"></path> <path class="fil2" d="M421.9 786.97c-0.79,4.07 -1.13,9.86 1.13,15.82l-0.73 0.22c0,0 -9.46,40.49 -17.67,46.4 -8.2,5.91 -0.86,-61.72 9.94,-65.77l7.33 3.34z"></path> <path class="fil3" d="M444.01 796.63c-2.14,-5.46 -5.61,-13.94 -7.78,-19.22l9.83 -6.63 0 0 8.51 22.76 -10.56 3.1z"></path> <path class="fil1" d="M351.11 754.79l-34.99 10.27c0,0 -9.46,40.49 -17.67,46.4 -8.2,5.92 -0.86,-61.72 9.94,-65.77l7.42 3.38 26.85 -18.11 8.45 23.83z"></path> <path class="fil2" d="M315.72 749.03c-0.79,4.07 -1.13,9.86 1.13,15.81l-0.74 0.22c0,0 -9.46,40.49 -17.67,46.4 -8.2,5.92 -0.86,-61.72 9.94,-65.77l7.33 3.34z"></path> <path class="fil4" d="M337.83 758.69c-2.14,-5.46 -5.61,-13.94 -7.78,-19.22l9.83 -6.63 8.51 22.76 -10.56 3.1z"></path> <path class="fil5" d="M498.96 696.6c-39.63,52.26 -151.24,70.39 -151.24,70.39l-14.37 -32.03 106.6 -63.14c0,0 15.38,-32.28 10.05,-93.28 -5.33,-61 63.63,-101.98 63.63,-101.98l92.5 19.34c0,0 24.24,163.32 -2.47,238.69 -26.71,75.37 -150.88,72.62 -150.88,72.62l-17.69 -38.37c0,0 92.78,-49.44 96.22,-70.62 1.75,-10.77 -3.1,-32.91 -8.28,-52.08 -5.17,17.84 -12.8,35.61 -24.06,50.46z"></path> <path class="fil6" d="M522.08 649.3l0.3 -3.08c0,0 15.61,-52.55 7.61,-80.56 0,0 16.72,17.98 10.41,53.49 -6.3,35.51 11.27,48.18 4.51,59.63 -6.76,11.45 1.82,32.47 -14.7,36.88 -16.53,4.41 -19.33,14.78 -30.96,14.3 16.86,-11.82 30.76,-23.76 32.05,-31.72 1.75,-10.77 -3.1,-32.91 -8.28,-52.08 -0.3,1.05 -0.62,2.1 -0.94,3.15z"></path> <path class="fil6" d="M608.24 511.95c-9.94,6.13 -37.09,18.13 -64.94,-11.16 -10.59,-11.13 -19.18,-18.54 -26.01,-23.47l88.83 18.58c0,0 0.88,5.94 2.12,16.05z"></path> <path class="fil7" d="M759.65 190.44c2.63,10.97 10.31,18.53 17.17,16.89 6.86,-1.64 10.29,-11.87 7.66,-22.84 -2.63,-10.97 -10.31,-18.53 -17.17,-16.89 -6.86,1.64 -10.29,11.87 -7.66,22.84z"></path> <path class="fil1" d="M674.74 220.12c0,0 23.77,5.3 44.48,34.02 20.7,28.71 -6.45,30.83 -22.44,31.14 0,0 0.26,13.81 -1.2,20.82 -13.85,66.47 -38.49,14.86 -42.36,-6.87 -2.13,-11.99 -9.43,-58.04 -9.43,-58.04l30.95 -21.07z"></path> <path class="fil2" d="M691.76 325.8c0,0 13.34,60.09 -10.91,80.06 -24.25,19.98 -36.08,3.57 -47.36,32.9 -11.28,29.33 -27.38,57.14 -27.38,57.14 0,0 -10.55,33.15 -55.81,9.07 -23.53,-12.52 -32.1,-31.09 -38.92,-28.05 0,0 45.18,-46.29 51.32,-93.11 6.14,-46.82 99.63,-80.39 99.63,-80.39l29.42 22.38z"></path> <path class="fil8" d="M547.1 427.99c22.4,-0.83 83.01,-8.34 101.81,-64.45 0,0 18.69,17.98 41.53,28.57 10.37,-25.54 1.32,-66.32 1.32,-66.32l-13.71 -10.43c-7.28,-1.68 -14.77,-1.71 -22.2,0.48 -33.81,9.99 -69.96,39.43 -93.23,68.62 -2.1,15.09 -8.21,30.11 -15.52,43.51z"></path> <path class="fil9" d="M690.85 227.32c0,0 13.91,-26.97 -6.13,-37.47 -20.03,-10.49 -45.12,32.53 -45.12,32.53 0,0 -25.59,-16.46 -38.01,19.92 -12.42,36.39 6.97,113.43 -45.71,85.33 -52.68,-28.1 -87.76,94.45 13.05,80.36 100.82,-14.08 98.68,-126.01 98.68,-126.01 0,0 -10.8,4.05 -13.34,-11.58 -2.54,-15.63 12.31,-8.87 12.31,-8.87 0,0 16.95,-20.96 9.23,-40.33 0,0 5.31,0.86 15.04,6.11z"></path> <path class="fil1" d="M649.21 328.44c0,0 7.66,-12.83 33.65,-4.4 36.04,11.69 40.68,12.72 66.27,29.18 0,0 39.7,-68.58 33.12,-95.01l14.95 0.06c0,0 3.63,101.63 -40.71,124.87 0,0 -133.31,-3.44 -107.27,-54.71z"></path> <path class="fil1" d="M797.38 258.37l4.85 -23.21c0,0 -13.63,-20.2 -16.72,-17.98 -3.09,2.23 -11.8,12.26 -9.58,15.35 2.23,3.09 6.6,27.09 6.6,27.09l10.34 2.92 4.49 -4.18z"></path> <path class="fil10" d="M758 190.84c1.34,5.61 3.99,10.58 7.46,13.99 2.66,2.61 5.58,4.1 8.47,4.37l7.98 38.86 5 -1.03 -7.94 -38.66c6.7,-2.99 9.83,-13.14 7.17,-24.27 -1.34,-5.61 -3.99,-10.58 -7.46,-13.99 -3.68,-3.62 -7.85,-5.09 -11.76,-4.16 -7.89,1.89 -11.81,12.82 -8.92,24.89zm9.71 -21.58l0 0c0.15,-0.04 0.31,-0.07 0.46,-0.09 2.6,-0.42 5.47,0.76 8.12,3.37 3.02,2.97 5.34,7.36 6.54,12.36 2.36,9.87 -0.57,19.39 -6.4,20.79 -2.7,0.66 -5.77,-0.51 -8.58,-3.28 -3.02,-2.97 -5.34,-7.36 -6.54,-12.36 -2.36,-9.87 0.57,-19.39 6.4,-20.79z"></path> <path class="fil1" d="M784.21 262.23c0,0 -6.95,-10.94 -7.5,-14.3 -0.55,-3.36 2.58,-15.94 2.04,-19.3 0,0 5.86,4.22 3.86,13.17 0,0 16.76,7.63 1.59,20.43z"></path> </g> <path class="fil11" d="M437.56 90.28c17.74,-20.93 43.87,-11.98 74.68,-32.44 31.45,-20.89 40.97,-45.01 31.68,-53.77 -7.11,-6.7 -26.57,-7.79 -56.75,17.77 -19.85,16.81 -34.9,37.71 -44.4,54.32 -13.23,18.2 -23.78,36.73 -32.59,55.58 2.22,-17.82 2.08,-40.94 -0.5,-61.23 -4.98,-39.23 -17.16,-53.05 -29.83,-51.44 -12.67,1.61 -22.78,26.3 -16.04,57.26 7.34,33.74 40.59,53.51 37.77,75.19 -12.13,29.99 -20.79,60.78 -29.65,92.32 -0.24,0.84 -0.47,1.68 -0.71,2.52 -0.53,-18.82 -7.02,-47.15 -16.03,-70.49 -14.24,-36.9 -29.38,-47.39 -41.29,-42.79 -11.91,4.6 -15.81,31 -1.85,59.44 16.82,34.26 60.3,44.36 54.26,71.2 -0.28,0.99 -0.57,1.98 -0.85,2.97 -7.81,27.16 -16.35,54.68 -27.88,82.66 1.29,-18.15 -5.68,-51.06 -15.91,-77.56 -14.24,-36.9 -29.38,-47.39 -41.29,-42.79 -11.91,4.6 -15.81,31 -1.84,59.44 17.36,35.36 63.09,44.98 53.52,73.82 -10.86,24.44 -24.24,49.24 -41.63,74.49 3.73,-17.1 -0.66,-52.71 -9.22,-81.47 -11.29,-37.9 -25.56,-49.56 -37.8,-45.91 -12.24,3.64 -18.2,29.66 -6.52,59.11 14.14,35.66 57.03,49.11 48.36,75.64 -9.88,13.76 -20.98,27.65 -33.54,41.69 -0.69,0.77 -0.62,1.95 0.15,2.64 0.12,0.1 0.24,0.19 0.37,0.26 0.74,0.39 1.68,0.25 2.27,-0.41 28.43,-31.77 49.42,-62.78 65.69,-93.17 14.95,-22.36 52.52,0.79 88.37,-11.44 29.99,-10.23 45.9,-31.65 40.73,-43.33 -5.17,-11.68 -23.3,-14.97 -59.46,1.05 -23.61,10.46 -49.07,26.56 -62.46,39.73 12.97,-26.33 22.67,-52.22 30.91,-77.76 10.26,-24.69 51.62,-9.66 84.21,-28.81 27.32,-16.05 38.61,-40.23 31.2,-50.63 -7.41,-10.4 -25.83,-9.98 -58.03,12.97 -20.41,14.55 -41.47,34.66 -52.26,50.09 4.29,-14.15 8.24,-28.2 12.16,-42.16 3.72,-13.23 7.4,-26.33 11.32,-39.29 10.44,-24.33 51.62,-9.48 84.1,-28.56 27.32,-16.05 38.61,-40.23 31.2,-50.63 -7.41,-10.4 -25.83,-9.98 -58.03,12.97 -20.37,14.52 -41.38,34.58 -52.19,50 3.64,-11.21 7.54,-22.31 11.89,-33.3 1.14,-2.01 2.16,-4.55 3.06,-7.52 8.26,-19.78 18.13,-39.21 30.68,-58.25z"></path> <path class="fil12" d="M358.83 443.41c17.4,-8.06 31.35,5.3 56.9,1.37 26.09,-4 39.22,-16.5 35.89,-24.79 -2.54,-6.34 -14.56,-12.75 -41.21,-5.41 -17.53,4.83 -33.21,13.66 -44.12,21.4 -13.74,7.65 -25.88,16.3 -37,25.67 6.64,-10.65 13.35,-25.35 17.68,-38.98 8.38,-26.35 4.71,-38.69 -3.8,-41.39 -8.51,-2.7 -22.18,9.99 -27,31.6 -5.26,23.56 10.02,45.87 1.86,58.79 -16.51,15.46 -31.05,32.44 -45.94,49.84 -0.4,0.46 -0.79,0.93 -1.19,1.39 5.19,-12.09 9.4,-31.96 10.55,-49.42 1.81,-27.59 -4.71,-38.69 -13.61,-39.28 -8.91,-0.59 -19.14,15.01 -18.64,37.16 0.6,26.68 25.2,45.86 13.48,61.11 -0.47,0.54 -0.94,1.09 -1.41,1.63 -12.94,14.93 -26.44,29.87 -41.98,44.23 6.15,-11.13 11.4,-34.06 12.71,-53.87 1.81,-27.59 -4.71,-38.69 -13.61,-39.28 -8.91,-0.58 -19.14,15.01 -18.64,37.16 0.62,27.53 26.79,47.07 12.25,62.55 -14.07,12.31 -29.85,24.11 -48.3,35.01 7.39,-9.75 15.07,-33.62 18.09,-54.38 3.98,-27.36 -1.65,-38.94 -10.48,-40.23 -8.83,-1.29 -20.26,13.46 -21.51,35.57 -1.51,26.77 21.74,47.91 8.44,62.19 -10.31,5.83 -21.43,11.37 -33.52,16.59 -0.66,0.29 -0.97,1.06 -0.68,1.72 0.04,0.1 0.1,0.19 0.16,0.28 0.36,0.47 1,0.65 1.56,0.41 27.37,-11.79 49.79,-25.29 69.04,-39.79 16.05,-9.78 33.08,15.94 59.41,18.72 22.03,2.32 38.42,-6.58 38.57,-15.51 0.15,-8.92 -10.38,-16.34 -38.02,-16.81 -18.05,-0.31 -38.93,2.42 -51.29,6.84 15.96,-12.89 29.73,-26.46 42.45,-40.23 13.77,-12.64 35.58,9.04 61.87,6.48 22.04,-2.15 36.31,-14.17 34.66,-22.94 -1.64,-8.77 -13.45,-13.92 -40.62,-8.83 -17.22,3.23 -36.49,9.8 -47.87,16.41 6.88,-7.72 13.51,-15.46 20.1,-23.17 6.25,-7.3 12.43,-14.52 18.73,-21.59 13.77,-12.37 35.52,9.16 61.73,6.61 22.04,-2.15 36.31,-14.17 34.66,-22.94 -1.64,-8.77 -13.45,-13.92 -40.62,-8.83 -17.19,3.22 -36.41,9.77 -47.8,16.37 5.6,-6.04 11.34,-11.93 17.33,-17.63 1.31,-0.94 2.71,-2.25 4.15,-3.87 11.05,-10.12 23.02,-19.54 36.58,-27.93z"></path> </g> </g> </svg> 