<?xml version="1.0" encoding="UTF-8"?> <!-- Creator: CorelDRAW 2021.5 --> <svg xmlns="http://www.w3.org/2000/svg" xmlns:xlink="http://www.w3.org/1999/xlink" xmlns:xodm="http://www.corel.com/coreldraw/odm/2003" xml:space="preserve" width="68.014mm" height="104.473mm" style="shape-rendering:geometricPrecision; text-rendering:geometricPrecision; image-rendering:optimizeQuality; fill-rule:evenodd; clip-rule:evenodd" viewBox="0 0 71.85 110.37"> <defs> <style type="text/css"> <![CDATA[ .fil1 {fill:url(#id4);fill-rule:nonzero} .fil0 {fill:url(#id5);fill-rule:nonzero} ]]> </style> <mask id="id0"> <linearGradient id="id1" gradientUnits="userSpaceOnUse" x1="4.37" y1="33.74" x2="71.85" y2="33.74"> <stop offset="0" style="stop-opacity:1; stop-color:white"></stop> <stop offset="0.588235" style="stop-opacity:0.54902; stop-color:white"></stop> <stop offset="1" style="stop-opacity:0.0980392; stop-color:white"></stop> </linearGradient> <rect style="fill:url(#id1)" x="4.33" y="-0.04" width="67.56" height="67.56"></rect> </mask> <mask id="id2"> <linearGradient id="id3" gradientUnits="userSpaceOnUse" x1="-0" y1="89.32" x2="42.11" y2="89.32"> <stop offset="0" style="stop-opacity:1; stop-color:white"></stop> <stop offset="0.34902" style="stop-opacity:0.501961; stop-color:white"></stop> <stop offset="1" style="stop-opacity:0; stop-color:white"></stop> </linearGradient> <rect style="fill:url(#id3)" x="-0.04" y="68.22" width="42.19" height="42.19"></rect> </mask> <linearGradient id="id4" gradientUnits="userSpaceOnUse" x1="-0" y1="89.32" x2="42.11" y2="89.32"> <stop offset="0" style="stop-opacity:1; stop-color:#F5C02D"></stop> <stop offset="0.34902" style="stop-opacity:1; stop-color:#F2D239"></stop> <stop offset="1" style="stop-opacity:1; stop-color:#EEE545"></stop> </linearGradient> <linearGradient id="id5" gradientUnits="userSpaceOnUse" x1="4.37" y1="33.74" x2="71.85" y2="33.74"> <stop offset="0" style="stop-opacity:1; stop-color:#E53974"></stop> <stop offset="0.588235" style="stop-opacity:1; stop-color:#9A7CAA"></stop> <stop offset="1" style="stop-opacity:1; stop-color:#4FC0E0"></stop> </linearGradient> </defs> <g id="Слой_x0020_1"> <metadata id="CorelCorpID_0Corel-Layer"></metadata> <path class="fil0" style="mask:url(#id0)" d="M71.85 41.13l0 -14.77 -9.75 0c-0.47,-1.52 -1.08,-2.97 -1.81,-4.35l6.9 -6.9 -10.44 -10.44 -6.9 6.9c-1.38,-0.73 -2.83,-1.34 -4.35,-1.81l0 -9.75 -14.77 0 0 9.75c-1.52,0.47 -2.97,1.08 -4.35,1.81l-6.9 -6.9 -10.44 10.44 6.9 6.9c-0.73,1.38 -1.34,2.83 -1.81,4.35l-9.75 0 0 14.77 9.75 0c0.47,1.52 1.08,2.97 1.81,4.35l-6.9 6.9 10.44 10.44 6.9 -6.9c1.38,0.73 2.83,1.34 4.35,1.81l0 9.75 14.77 0 0 -9.75c1.52,-0.47 2.97,-1.08 4.35,-1.81l6.9 6.9 10.44 -10.44 -6.9 -6.9c0.73,-1.38 1.35,-2.83 1.81,-4.35l9.75 0zm-33.74 7.64l0 0c-8.3,0 -15.02,-6.73 -15.02,-15.02 0,-8.3 6.73,-15.02 15.02,-15.02 8.3,0 15.02,6.73 15.02,15.02 0,8.3 -6.73,15.02 -15.02,15.02z"></path> <path class="fil1" style="mask:url(#id2)" d="M42.11 93.92l0 -9.22 -6.08 0c-0.29,-0.95 -0.67,-1.85 -1.13,-2.72l4.31 -4.31 -6.52 -6.52 -4.31 4.31c-0.86,-0.46 -1.77,-0.84 -2.72,-1.13l0 -6.08 -9.22 0 0 6.08c-0.95,0.29 -1.85,0.67 -2.72,1.13l-4.31 -4.31 -6.52 6.52 4.31 4.31c-0.46,0.86 -0.84,1.77 -1.13,2.72l-6.08 0 0 9.22 6.08 0c0.29,0.95 0.67,1.85 1.13,2.72l-4.31 4.31 6.52 6.52 4.31 -4.31c0.86,0.46 1.77,0.84 2.72,1.13l0 6.08 9.22 0 0 -6.08c0.95,-0.29 1.85,-0.67 2.72,-1.13l4.31 4.31 6.52 -6.52 -4.31 -4.31c0.46,-0.86 0.84,-1.77 1.13,-2.72l6.08 0zm-21.05 4.77l0 0c-5.18,0 -9.37,-4.2 -9.37,-9.37 0,-5.18 4.2,-9.37 9.37,-9.37 5.18,0 9.37,4.2 9.37,9.37 0,5.18 -4.2,9.37 -9.37,9.37z"></path> </g> </svg> 