<?xml version="1.0" encoding="UTF-8"?> <svg xmlns="http://www.w3.org/2000/svg" width="221" height="221" viewBox="0 0 221 221" fill="none"> <g filter="url(#filter0_d_347_104)"> <path d="M173.259 210.966H48.7348C27.8937 210.966 11 194.075 11 173.238V48.7285C11 27.8909 27.8937 11 48.7348 11H173.259C194.1 11 210.994 27.8909 210.994 48.7285V173.232C210.994 194.07 194.1 210.96 173.259 210.96V210.966Z" fill="url(#paint0_linear_347_104)"></path> </g> <path fill-rule="evenodd" clip-rule="evenodd" d="M124.988 139.48L126.003 138.869L125.38 139.872C123.878 147.302 119.592 151.575 116.618 156.021C114.553 154.27 114.167 149.86 111.276 145.361L124.988 139.474V139.48ZM67.0176 106.559L66.0263 106.007C66.3706 105.14 65.6761 105.651 67.0829 104.47C67.54 104.09 68.2404 103.751 68.8459 103.383C71.9385 100.766 77.5599 97.2764 82.8844 96.4396C82.4867 97.5138 76.7763 110.416 76.6042 110.618C73.9627 109.253 70.3714 107.324 67.0295 106.565H67.0235L67.0176 106.559ZM82.8725 128.797C83.8282 120.903 88.4286 109.336 91.5272 102.879C94.5486 96.5761 97.6056 92.0714 101.529 86.9377C102.253 85.9941 102.621 85.27 103.316 84.4569C105.251 82.2016 111.935 76.1895 114.873 74.2844C117.901 72.3199 122.394 70.1537 126.436 68.8777C135.952 65.8805 146.126 65.471 156.864 65.0199C156.152 90.926 154.033 103.84 136.32 119.586C129.772 125.408 116.951 131.842 107.471 135.29C91.6815 141.017 93.9134 140.833 82.8666 128.803L82.8725 128.797ZM102.568 147.955C104.01 150.578 105.548 153.575 106.688 156.513C107.774 159.314 108.741 172.995 118.328 165.742C134.664 153.385 134.545 135.818 135.56 133.735C136.551 131.693 147.064 126.31 154.62 115.604C158.022 110.784 160.622 106.119 162.83 99.4071C165.026 92.7006 170.612 60.6221 165.905 55.9276C161.239 51.2865 129.108 56.7407 122.436 59.0078C108.599 63.7083 100.971 71.1389 93.6878 79.5606C90.6724 83.0444 90.9573 83.5726 89.7582 85.2047C88.3752 87.0802 89.6039 86.0593 87.8765 86.5816C79.6434 89.0506 75.3339 86.5341 62.2154 97.3892C44.0039 112.458 62.4173 114.025 65.7236 115.277C68.7747 116.428 71.3687 118.138 74.0458 119.206C73.47 122.993 70.8285 129.752 72.354 133.034C73.0129 134.453 87.6391 149.047 88.6779 149.581C92.1564 151.373 98.8818 148.637 102.592 147.931V147.955H102.568Z" fill="white"></path> <path fill-rule="evenodd" clip-rule="evenodd" d="M78.2185 155.302C80.5514 149.141 75.951 143.289 70.205 143.206C63.0878 143.1 62.0787 147.996 60.2682 153.836C56.4336 166.21 56.6591 165.243 64.9873 162.792C71.22 160.952 76.2597 160.465 78.2185 155.308V155.302Z" fill="white"></path> <path fill-rule="evenodd" clip-rule="evenodd" d="M127.024 83.5958C115.93 88.2844 123.041 104.451 133.999 99.7389C143.924 95.4716 138.006 78.9606 127.024 83.5958Z" fill="white"></path> <path fill-rule="evenodd" clip-rule="evenodd" d="M67.0117 106.546C66.1569 105.994 66.7564 105.947 66.3409 105.288C66.887 104.979 67.1245 104.944 67.6884 104.516C69.0655 103.472 68.2167 104.113 68.84 103.365C68.2345 103.733 67.5341 104.059 67.077 104.451C65.6702 105.632 66.3647 105.122 66.0204 105.988L67.0117 106.54V106.546Z" fill="white"></path> <path fill-rule="evenodd" clip-rule="evenodd" d="M125.38 139.878L126.009 138.869L124.988 139.48L125.38 139.878Z" fill="white"></path> <path d="M173.259 210.966H48.7349C40.4898 210.966 32.874 208.319 26.6591 203.838C33.4854 203.601 40.1515 203.067 47.5892 201.933C135.382 188.526 200.873 112.897 201.669 23.9145C207.468 30.5497 210.982 39.2266 210.982 48.7344V173.238C210.982 194.075 194.088 210.966 173.247 210.966H173.265H173.259Z" fill="black" fill-opacity="0.2" style="mix-blend-mode:soft-light"></path> <path d="M173.259 11.0064H48.7348C27.8937 11.0064 11 27.8973 11 48.7349V52.8775C11 32.0399 27.8937 15.149 48.7348 15.149H173.259C194.1 15.149 210.994 32.0399 210.994 52.8775V48.7349C211 27.8973 194.1 11.0064 173.259 11.0064Z" fill="white" fill-opacity="0.4" style="mix-blend-mode:soft-light"></path> <defs> <filter id="filter0_d_347_104" x="1" y="5" width="215.994" height="215.966" filterUnits="userSpaceOnUse" color-interpolation-filters="sRGB"> <feFlood flood-opacity="0" result="BackgroundImageFix"></feFlood> <feColorMatrix in="SourceAlpha" type="matrix" values="0 0 0 0 0 0 0 0 0 0 0 0 0 0 0 0 0 0 127 0" result="hardAlpha"></feColorMatrix> <feOffset dx="-2" dy="2"></feOffset> <feGaussianBlur stdDeviation="4"></feGaussianBlur> <feComposite in2="hardAlpha" operator="out"></feComposite> <feColorMatrix type="matrix" values="0 0 0 0 0 0 0 0 0 0 0 0 0 0 0 0 0 0 0.25 0"></feColorMatrix> <feBlend mode="normal" in2="BackgroundImageFix" result="effect1_dropShadow_347_104"></feBlend> <feBlend mode="normal" in="SourceGraphic" in2="effect1_dropShadow_347_104" result="shape"></feBlend> </filter> <linearGradient id="paint0_linear_347_104" x1="111" y1="211" x2="111" y2="11" gradientUnits="userSpaceOnUse"> <stop stop-color="#2A2169"></stop> <stop offset="1" stop-color="#3C5AA5"></stop> </linearGradient> </defs> </svg> 