<?xml version="1.0" encoding="UTF-8"?> <!-- Creator: CorelDRAW 2021.5 --> <svg xmlns="http://www.w3.org/2000/svg" xmlns:xlink="http://www.w3.org/1999/xlink" xmlns:xodm="http://www.corel.com/coreldraw/odm/2003" xml:space="preserve" width="34.8188mm" height="34.8188mm" style="shape-rendering:geometricPrecision; text-rendering:geometricPrecision; image-rendering:optimizeQuality; fill-rule:evenodd; clip-rule:evenodd" viewBox="0 0 19.23 19.23"> <defs> <style type="text/css"> <![CDATA[ .fil0 {fill:url(#id0);fill-rule:nonzero} .fil1 {fill:url(#id1);fill-rule:nonzero} ]]> </style> <linearGradient id="id0" gradientUnits="userSpaceOnUse" x1="14.99" y1="-0.67" x2="4.58" y2="17.52"> <stop offset="0" style="stop-opacity:1; stop-color:#4A85D3"></stop> <stop offset="1" style="stop-opacity:1; stop-color:#1F0046"></stop> </linearGradient> <linearGradient id="id1" gradientUnits="userSpaceOnUse" xlink:href="#id0" x1="18.89" y1="-10.3" x2="0.93" y2="24.93"> </linearGradient> </defs> <g id="Слой_x0020_1"> <metadata id="CorelCorpID_0Corel-Layer"></metadata> <path class="fil0" d="M9.87 14.4l1.07 -1.85c0.14,-0.24 0.03,-0.44 -0.25,-0.44l-0.33 0 0 -0.5 0 -1.44c0,-0.41 -0.33,-0.74 -0.74,-0.74 -0.41,0 -0.74,0.33 -0.74,0.74l-0 1.44 0 0.5 -0.33 0c-0.28,0 -0.39,0.2 -0.25,0.44l1.07 1.85c0.14,0.24 0.37,0.24 0.51,0zm0.78 -2.79l2.48 0c0.23,0 0.45,-0.06 0.64,-0.18 0.83,-0.35 1.41,-1.16 1.41,-2.11 0,-0.72 -0.33,-1.35 -0.84,-1.77 -0.01,-0.4 -0.32,-0.74 -0.71,-0.78 -0.29,-1.21 -1.38,-2.11 -2.68,-2.11 -0.87,0 -1.64,0.4 -2.14,1.02 -0.26,-0.14 -0.56,-0.21 -0.88,-0.21 -0.95,0 -1.74,0.68 -1.91,1.59 -1.11,0.16 -1.97,1.11 -1.97,2.27 0,1.19 0.9,2.16 2.06,2.28 0.05,0.01 0.11,0.01 0.17,0.01l2.3 0 0 -1.46c0,-0.57 0.47,-1.04 1.04,-1.04 0.57,0 1.04,0.46 1.04,1.04l-0 1.46z"></path> <path class="fil1" d="M9.61 0c2.65,0 5.06,1.08 6.8,2.82 1.74,1.74 2.82,4.14 2.82,6.8 0,2.65 -1.08,5.06 -2.82,6.8 -1.74,1.74 -4.14,2.82 -6.8,2.82 -2.65,0 -5.06,-1.08 -6.8,-2.82 -1.74,-1.74 -2.82,-4.14 -2.82,-6.8 0,-2.65 1.08,-5.06 2.82,-6.8 1.74,-1.74 4.14,-2.82 6.8,-2.82zm5.97 3.64c-1.53,-1.53 -3.64,-2.47 -5.97,-2.47 -2.33,0 -4.44,0.95 -5.97,2.47 -1.53,1.53 -2.47,3.64 -2.47,5.97 0,2.33 0.95,4.44 2.47,5.97 1.53,1.53 3.64,2.47 5.97,2.47 2.33,0 4.44,-0.95 5.97,-2.47 1.53,-1.53 2.47,-3.64 2.47,-5.97 0,-2.33 -0.95,-4.44 -2.47,-5.97z"></path> </g> </svg> 