<?xml version="1.0" encoding="UTF-8"?> <!-- Creator: CorelDRAW 2020 (64-Bit) --> <svg xmlns="http://www.w3.org/2000/svg" xmlns:xlink="http://www.w3.org/1999/xlink" xmlns:xodm="http://www.corel.com/coreldraw/odm/2003" xml:space="preserve" width="312.105mm" height="83.1936mm" style="shape-rendering:geometricPrecision; text-rendering:geometricPrecision; image-rendering:optimizeQuality; fill-rule:evenodd; clip-rule:evenodd" viewBox="0 0 1080.22 287.94"> <defs> <style type="text/css"> <![CDATA[ .fil0 {fill:#8EAF0C;fill-rule:nonzero} ]]> </style> </defs> <g id="Слой_x0020_1"> <metadata id="CorelCorpID_0Corel-Layer"></metadata> <g id="_2522160196752"> <path class="fil0" d="M125.99 62.99c0,-34.79 -28.21,-62.99 -62.99,-62.99 -34.79,0 -62.99,28.2 -62.99,62.99 0,34.79 28.2,62.99 62.99,62.99 34.79,0 62.99,-28.21 62.99,-62.99z"></path> <polygon class="fil0" points="125.99,59.94 1022.37,59.94 1022.37,66.05 125.99,66.05 "></polygon> <path class="fil0" d="M1022.37 59.94c15.97,0 30.44,6.47 40.9,16.94 10.47,10.47 16.94,24.93 16.94,40.9l-6.11 0c0,-14.29 -5.79,-27.22 -15.15,-36.59 -9.36,-9.36 -22.3,-15.15 -36.59,-15.15l0 -6.11z"></path> <polygon class="fil0" points="1080.22,117.79 1080.22,287.94 1074.11,287.94 1074.11,117.79 "></polygon> </g> </g> </svg> 