<?xml version="1.0" encoding="UTF-8"?> <!-- Creator: CorelDRAW 2020 (64-Bit) --> <svg xmlns="http://www.w3.org/2000/svg" xmlns:xlink="http://www.w3.org/1999/xlink" xmlns:xodm="http://www.corel.com/coreldraw/odm/2003" xml:space="preserve" width="22.9588mm" height="22.9588mm" style="shape-rendering:geometricPrecision; text-rendering:geometricPrecision; image-rendering:optimizeQuality; fill-rule:evenodd; clip-rule:evenodd" viewBox="0 0 47.26 47.26"> <defs> <style type="text/css"> <![CDATA[ .fil0 {fill:white} ]]> </style> </defs> <g id="Слой_x0020_1"> <metadata id="CorelCorpID_0Corel-Layer"></metadata> <path class="fil0" d="M23.63 0c13.05,0 23.63,10.58 23.63,23.63 0,13.05 -10.58,23.63 -23.63,23.63 -13.05,0 -23.63,-10.58 -23.63,-23.63 0,-13.05 10.58,-23.63 23.63,-23.63zm-4.1 23.62l0 15.48 6.41 0 0 -15.48 4.3 0c0,0 0.4,-2.5 0.6,-5.23l-4.88 0 0 -3.56c0,-0.53 0.7,-1.25 1.39,-1.25l3.49 0 0 -5.42 -4.75 0c-6.72,0 -6.57,5.21 -6.57,5.99l0 4.26 -3.12 0 0 5.21 3.12 0z"></path> </g> </svg> 