<?xml version="1.0" encoding="UTF-8"?> <!-- Creator: CorelDRAW 2021.5 --> <svg xmlns="http://www.w3.org/2000/svg" xmlns:xlink="http://www.w3.org/1999/xlink" xmlns:xodm="http://www.corel.com/coreldraw/odm/2003" xml:space="preserve" width="19.9974mm" height="19.9974mm" style="shape-rendering:geometricPrecision; text-rendering:geometricPrecision; image-rendering:optimizeQuality; fill-rule:evenodd; clip-rule:evenodd" viewBox="0 0 13.22 13.22"> <defs> <style type="text/css"> <![CDATA[ .fil1 {fill:url(#id2);fill-rule:nonzero} .fil0 {fill:url(#id3);fill-rule:nonzero} ]]> </style> <mask id="id0"> <linearGradient id="id1" gradientUnits="userSpaceOnUse" x1="11.47" y1="2.13" x2="1.75" y2="11.09"> <stop offset="0" style="stop-opacity:0; stop-color:white"></stop> <stop offset="0.141176" style="stop-opacity:0; stop-color:white"></stop> <stop offset="1" style="stop-opacity:1; stop-color:white"></stop> </linearGradient> <rect style="fill:url(#id1)" width="13.22" height="13.22"></rect> </mask> <linearGradient id="id2" gradientUnits="userSpaceOnUse" x1="11.33" y1="-1.82" x2="3.34" y2="11.9"> <stop offset="0" style="stop-opacity:1; stop-color:#4A85D3"></stop> <stop offset="1" style="stop-opacity:1; stop-color:#1F0046"></stop> </linearGradient> <linearGradient id="id3" gradientUnits="userSpaceOnUse" xlink:href="#id2" x1="12.99" y1="-7.08" x2="0.64" y2="17.14"> </linearGradient> </defs> <g id="Слой_x0020_1"> <metadata id="CorelCorpID_0Corel-Layer"></metadata> <path class="fil0" style="mask:url(#id0)" d="M12.35 6.61c0,-0.24 0.2,-0.44 0.44,-0.44 0.24,0 0.44,0.2 0.44,0.44 0,1.83 -0.74,3.48 -1.94,4.67 -1.2,1.2 -2.85,1.94 -4.67,1.94 -1.83,0 -3.48,-0.74 -4.67,-1.94 -1.2,-1.2 -1.94,-2.85 -1.94,-4.67 0,-1.83 0.74,-3.48 1.94,-4.67 1.2,-1.2 2.85,-1.94 4.67,-1.94 0.24,0 0.44,0.2 0.44,0.44 0,0.24 -0.2,0.44 -0.44,0.44 -1.58,0 -3.02,0.64 -4.06,1.68 -1.04,1.04 -1.68,2.47 -1.68,4.06 0,1.58 0.64,3.02 1.68,4.06 1.04,1.04 2.47,1.68 4.06,1.68 1.58,0 3.02,-0.64 4.06,-1.68 1.04,-1.04 1.68,-2.47 1.68,-4.06z"></path> <path class="fil1" d="M6.51 9.68l-3.59 -3.71 0.92 -0.75 2.07 1.65c0.85,-1.03 2.74,-3.06 5.34,-4.68l0.22 0.51c-2.39,2.23 -4.35,5.37 -4.97,6.97l0 0 0 0z"></path> </g> </svg> 