<?xml version="1.0" encoding="UTF-8"?> <!-- Creator: CorelDRAW 2020 (64-Bit) --> <svg xmlns="http://www.w3.org/2000/svg" xmlns:xlink="http://www.w3.org/1999/xlink" xmlns:xodm="http://www.corel.com/coreldraw/odm/2003" xml:space="preserve" width="197.351mm" height="198.266mm" style="shape-rendering:geometricPrecision; text-rendering:geometricPrecision; image-rendering:optimizeQuality; fill-rule:evenodd; clip-rule:evenodd" viewBox="0 0 419.95 421.9"> <defs> <style type="text/css"> <![CDATA[ .fil0 {fill:#F0F0F0} .fil9 {fill:#F7AB05;fill-rule:nonzero} .fil5 {fill:#E66421;fill-rule:nonzero} .fil12 {fill:#CE5C28;fill-rule:nonzero} .fil10 {fill:#C94527;fill-rule:nonzero} .fil6 {fill:#B44828;fill-rule:nonzero} .fil8 {fill:#AE4128;fill-rule:nonzero} .fil7 {fill:#9A3726;fill-rule:nonzero} .fil4 {fill:#812C31;fill-rule:nonzero} .fil11 {fill:#702926;fill-rule:nonzero} .fil3 {fill:#8DCDC5;fill-rule:nonzero} .fil18 {fill:#BD5400;fill-rule:nonzero} .fil14 {fill:#CF5200;fill-rule:nonzero} .fil15 {fill:#EF9013;fill-rule:nonzero} .fil19 {fill:#FBB813;fill-rule:nonzero} .fil22 {fill:#FBFF4B;fill-rule:nonzero} .fil17 {fill:#FDCC1C;fill-rule:nonzero} .fil16 {fill:#FFA81C;fill-rule:nonzero} .fil21 {fill:#FFA71C;fill-rule:nonzero;fill-opacity:0.231373} .fil20 {fill:#EF9013;fill-rule:nonzero;fill-opacity:0.501961} .fil1 {fill:url(#id0)} .fil2 {fill:url(#id1)} .fil13 {fill:url(#id2)} ]]> </style> <linearGradient id="id0" gradientUnits="userSpaceOnUse" x1="209.98" y1="421.9" x2="209.98" y2="286.66"> <stop offset="0" style="stop-opacity:1; stop-color:#F0F0F0"></stop> <stop offset="1" style="stop-opacity:1; stop-color:#E0E0E0"></stop> </linearGradient> <linearGradient id="id1" gradientUnits="userSpaceOnUse" x1="128.26" y1="343.75" x2="291.7" y2="343.75"> <stop offset="0" style="stop-opacity:0.0980392; stop-color:black"></stop> <stop offset="1" style="stop-opacity:0.0980392; stop-color:black"></stop> </linearGradient> <linearGradient id="id2" gradientUnits="userSpaceOnUse" x1="204.15" y1="320.72" x2="188.09" y2="320.24"> <stop offset="0" style="stop-opacity:1; stop-color:#FDD700"></stop> <stop offset="1" style="stop-opacity:1; stop-color:#F7AB05"></stop> </linearGradient> </defs> <g id="Слой_x0020_1"> <metadata id="CorelCorpID_0Corel-Layer"></metadata> <rect class="fil0" x="-0" y="-0" width="419.95" height="421.9" rx="4.81" ry="16.23"></rect> <path class="fil1" d="M419.95 286.66l0 119.09c0,8.88 -7.27,16.15 -16.15,16.15l-387.65 0c-8.88,0 -16.15,-7.27 -16.15,-16.15l0 -119.09 419.95 0z"></path> <ellipse class="fil2" cx="209.98" cy="343.75" rx="81.72" ry="24.84"></ellipse> <polygon class="fil3" points="226.98,362.7 226.88,362.67 226.87,362.67 "></polygon> <path class="fil4" d="M214.48 350.99c-0.1,1.11 -0.32,2.2 -0.66,3.25 -0.64,2.1 -1.77,4.03 -3.34,5.48 -1.58,1.44 -3.5,2.53 -5.57,2.9 -2.03,0.4 -4.25,0.08 -5.81,-1.05 -0.78,-0.53 -1.37,-1.3 -1.65,-2.14 -0.28,-0.84 -0.22,-1.78 0.18,-2.51 0.39,-0.76 1.07,-1.21 2.02,-1.44 0.47,-0.11 0.98,-0.16 1.51,-0.18 0.61,-0.02 1.24,-0.07 1.86,-0.17 0.62,-0.09 1.24,-0.23 1.86,-0.42 0.31,-0.1 0.61,-0.2 0.91,-0.33l0.83 -0.36c1.09,-0.5 2.15,-1.05 3.18,-1.67 1.02,-0.62 2.01,-1.3 2.96,-2.02 0.47,-0.36 0.94,-0.73 1.39,-1.12l0.4 -0.36c0.01,0.16 0.02,0.32 0.01,0.47 0.01,0.56 -0.02,1.12 -0.07,1.67zm1.43 -1.74c-0.02,-0.3 -0.07,-0.6 -0.11,-0.9 -0.01,-0.1 -0.05,-0.43 -0.16,-0.69 -0.1,-0.27 -0.26,-0.5 -0.38,-0.67 -0.21,0.05 -0.51,0.12 -0.77,0.27 -0.12,0.07 -0.26,0.17 -0.34,0.23l-0.17 0.13 -0.69 0.51c-0.46,0.34 -0.93,0.66 -1.41,0.97 -0.96,0.62 -1.94,1.2 -2.95,1.72 -1.01,0.53 -2.03,1.01 -3.08,1.44 -0.54,0.21 -1.04,0.42 -1.54,0.54 -0.51,0.14 -1.03,0.23 -1.56,0.28 -0.54,0.06 -1.07,0.08 -1.63,0.07 -0.63,0.01 -1.29,0.06 -1.96,0.21 -0.67,0.15 -1.36,0.4 -1.98,0.83 -0.63,0.42 -1.16,1.02 -1.51,1.67 -0.73,1.31 -0.83,2.89 -0.4,4.27 0.44,1.38 1.35,2.55 2.47,3.36 2.29,1.58 5.09,1.84 7.59,1.34 2.52,-0.51 4.83,-1.8 6.59,-3.61 1.77,-1.81 2.98,-4.1 3.57,-6.49 0.29,-1.2 0.45,-2.42 0.47,-3.64 0.01,-0.61 -0,-1.22 -0.06,-1.82z"></path> <path class="fil5" d="M213.78 350.37c-0.1,1.11 -0.32,2.2 -0.66,3.25 -0.64,2.1 -1.77,4.03 -3.34,5.48 -1.58,1.44 -3.5,2.53 -5.57,2.9 -2.03,0.4 -4.25,0.08 -5.81,-1.05 -0.78,-0.53 -1.37,-1.3 -1.65,-2.14 -0.28,-0.84 -0.22,-1.78 0.18,-2.52 0.38,-0.75 1.07,-1.21 2.02,-1.44 0.47,-0.11 0.98,-0.16 1.51,-0.18 0.61,-0.02 1.24,-0.07 1.86,-0.17 0.62,-0.09 1.24,-0.23 1.86,-0.42 0.31,-0.1 0.61,-0.21 0.91,-0.33l0.83 -0.36c1.09,-0.5 2.15,-1.05 3.18,-1.67 1.02,-0.62 2.01,-1.3 2.96,-2.02 0.47,-0.36 0.94,-0.73 1.39,-1.12l0.4 -0.36c0.01,0.16 0.01,0.32 0.01,0.47 0.01,0.56 -0.02,1.12 -0.07,1.67zm1.43 -1.74c-0.02,-0.3 -0.07,-0.6 -0.11,-0.9 -0.01,-0.1 -0.05,-0.43 -0.16,-0.69 -0.1,-0.27 -0.26,-0.5 -0.38,-0.67 -0.22,0.04 -0.51,0.12 -0.77,0.27 -0.12,0.07 -0.26,0.17 -0.34,0.23l-0.17 0.13 -0.69 0.51c-0.46,0.34 -0.93,0.66 -1.41,0.97 -0.96,0.62 -1.94,1.2 -2.95,1.72 -1.01,0.53 -2.03,1.01 -3.08,1.44 -0.54,0.21 -1.04,0.42 -1.53,0.54 -0.51,0.14 -1.03,0.23 -1.56,0.28 -0.54,0.06 -1.07,0.08 -1.63,0.07 -0.63,0.01 -1.29,0.06 -1.96,0.21 -0.67,0.15 -1.36,0.4 -1.98,0.83 -0.63,0.42 -1.16,1.02 -1.51,1.67 -0.73,1.31 -0.83,2.89 -0.4,4.27 0.44,1.38 1.34,2.55 2.47,3.36 2.29,1.58 5.09,1.84 7.59,1.34 2.52,-0.51 4.83,-1.8 6.59,-3.61 1.77,-1.81 2.98,-4.1 3.57,-6.49 0.29,-1.2 0.45,-2.42 0.47,-3.64 0.01,-0.61 -0,-1.22 -0.06,-1.82z"></path> <path class="fil4" d="M213.97 348.44c-0.2,0.07 -0.25,0.14 -0.55,0.37 -0.5,0.4 -0.97,0.82 -1.5,1.18 -0.51,0.38 -1.03,0.75 -1.57,1.08 -0.53,0.36 -1.08,0.67 -1.63,0.98 -2.2,1.26 -4.57,2.21 -7.02,2.83 -2.45,0.61 -4.96,1 -7.47,0.96 -0.63,-0.02 -1.26,-0.01 -1.88,-0.08 -0.63,-0.05 -1.26,-0.09 -1.8,-0.21 -0.55,-0.12 -1.04,-0.3 -1.37,-0.55 -0.32,-0.25 -0.5,-0.53 -0.56,-0.92 -0.06,-0.4 -0.01,-0.85 0.2,-1.33 0.21,-0.53 0.47,-1 0.77,-1.32 0.08,-0.08 0.15,-0.14 0.24,-0.21l0.37 -0.25 0.75 -0.51c0.55,-0.27 1.05,-0.61 1.63,-0.83 2.25,-0.99 4.74,-1.49 7.26,-1.76 2.53,-0.25 5.1,-0.23 7.67,-0.06 1.29,0.07 2.57,0.19 3.86,0.34 0.64,0.06 1.28,0.17 1.93,0.25l0.24 0.03c0.06,0.01 0.1,0.01 0.15,0.01 0.09,0 0.18,-0.01 0.28,-0.03 0.19,-0.05 0.19,-0.03 0.01,0.02zm0.82 -1.17c-0.22,-0.08 -0.46,-0.15 -0.68,-0.21l-0.33 -0.07 -0.24 -0.05c-0.65,-0.12 -1.29,-0.25 -1.95,-0.35 -1.3,-0.22 -2.61,-0.41 -3.93,-0.54 -2.64,-0.26 -5.31,-0.36 -7.99,-0.18 -2.68,0.18 -5.38,0.73 -7.94,1.81 -0.65,0.24 -1.25,0.62 -1.87,0.93l-0.88 0.58 -0.44 0.29c-0.17,0.12 -0.35,0.28 -0.5,0.43 -0.61,0.63 -0.97,1.34 -1.25,2.01 -0.31,0.72 -0.49,1.61 -0.35,2.5 0.13,0.91 0.7,1.82 1.43,2.33 0.73,0.53 1.51,0.77 2.23,0.92 0.74,0.16 1.41,0.18 2.09,0.23 0.68,0.07 1.36,0.05 2.03,0.07 2.71,0 5.42,-0.39 8.01,-1.15 2.59,-0.75 5.09,-1.83 7.38,-3.24 0.57,-0.36 1.14,-0.71 1.68,-1.12 0.55,-0.38 1.08,-0.8 1.6,-1.22 0.53,-0.41 1.01,-0.88 1.51,-1.32 0.21,-0.18 0.61,-0.58 0.88,-0.96 0.29,-0.4 0.5,-0.81 0.69,-1.14 -0.34,-0.17 -0.74,-0.38 -1.2,-0.55z"></path> <path class="fil5" d="M212.81 347.95c-0.5,0.4 -0.97,0.82 -1.5,1.18 -0.51,0.38 -1.03,0.75 -1.57,1.08 -0.53,0.36 -1.08,0.67 -1.63,0.98 -2.2,1.26 -4.57,2.21 -7.02,2.83 -2.45,0.61 -4.96,1 -7.47,0.96 -0.63,-0.02 -1.26,-0.01 -1.88,-0.08 -0.63,-0.05 -1.26,-0.09 -1.8,-0.21 -0.55,-0.12 -1.04,-0.3 -1.37,-0.55 -0.32,-0.25 -0.5,-0.53 -0.56,-0.92 -0.06,-0.4 -0.01,-0.85 0.2,-1.33 0.21,-0.53 0.47,-1 0.77,-1.32 0.08,-0.08 0.15,-0.14 0.24,-0.21l0.37 -0.25 0.75 -0.51c0.55,-0.27 1.05,-0.61 1.63,-0.83 2.25,-0.99 4.74,-1.49 7.26,-1.76 2.53,-0.25 5.1,-0.23 7.67,-0.06 1.29,0.07 2.57,0.19 3.86,0.34 0.64,0.06 1.28,0.17 1.93,0.25l0.24 0.03c0.06,0.01 0.1,0.01 0.15,0.01 0.09,0 0.05,0.13 -0.25,0.37zm1.37 -1.55c-0.22,-0.08 -0.46,-0.15 -0.68,-0.21l-0.33 -0.07 -0.24 -0.05c-0.65,-0.12 -1.3,-0.25 -1.95,-0.35 -1.3,-0.22 -2.61,-0.41 -3.93,-0.54 -2.64,-0.26 -5.31,-0.36 -7.99,-0.18 -2.68,0.18 -5.38,0.73 -7.94,1.81 -0.65,0.24 -1.25,0.62 -1.87,0.93l-0.88 0.58 -0.44 0.29c-0.17,0.12 -0.35,0.28 -0.5,0.43 -0.61,0.63 -0.97,1.34 -1.25,2.01 -0.31,0.72 -0.49,1.61 -0.35,2.5 0.12,0.91 0.7,1.82 1.43,2.33 0.73,0.53 1.51,0.77 2.23,0.92 0.74,0.16 1.41,0.18 2.09,0.23 0.68,0.07 1.36,0.05 2.03,0.07 2.71,0 5.42,-0.39 8.01,-1.15 2.59,-0.75 5.09,-1.83 7.38,-3.24 0.57,-0.36 1.14,-0.71 1.68,-1.12 0.55,-0.38 1.08,-0.8 1.6,-1.22 0.53,-0.41 1.01,-0.88 1.51,-1.32 0.21,-0.18 0.61,-0.58 0.88,-0.96 0.29,-0.4 0.5,-0.81 0.69,-1.14 -0.34,-0.17 -0.74,-0.38 -1.19,-0.55z"></path> <path class="fil4" d="M188.74 350.23c-0.38,0.65 -0.66,1.26 -0.9,1.97 -0.52,-0.17 -1.05,-0.33 -1.6,-0.29 0.14,-0.69 0.4,-1.36 0.78,-1.96 0.58,-0.06 1.15,0.13 1.71,0.28z"></path> <path class="fil4" d="M211.25 347.14c0.86,-0.01 1.72,0.18 2.49,0.56 0,-0.19 0.12,-0.42 0.12,-0.61 -0.42,-0.2 -0.82,-0.4 -1.28,-0.47 -0.46,-0.07 -0.96,0.25 -1.33,0.53z"></path> <path class="fil6" d="M262.01 330.12c0.34,-1.57 -0.99,-2.09 -2.15,-2.7 -1.33,-0.69 -2.74,-1.25 -4.18,-1.69 -2.86,-0.88 -5.84,-1.31 -8.81,-1.59 -5.02,-0.46 -10.11,-0.49 -15.04,-1.55 -0.92,-0.2 -1.85,-0.44 -2.65,-0.94 -1.51,-0.95 -1.37,-2.33 -1.88,-3.83 -0.53,-1.57 -1.18,-3.11 -1.95,-4.58 -1.51,-2.91 -3.47,-5.59 -5.79,-7.91 -5.17,-5.17 -12.03,-7.97 -18.94,-9.88 -3.43,-0.95 -7.07,-1.3 -10.61,-0.87 -1.66,0.2 -3.31,0.58 -4.88,1.19 -1.23,0.48 -2.51,1.74 -3.71,2.08 -6.62,1.84 -14.16,7.25 -18.16,13.12 -4,5.86 -9.1,13.41 -6.44,19.99 3.51,8.67 11.49,15.14 20.45,17.8 8.96,2.67 19.14,2.08 27.92,-1.15 2.71,0.25 5.47,0.03 8.11,-0.67 1.73,-0.45 3.37,1.42 4.6,2.72 3.07,3.26 5.73,6.91 7.9,10.83 0.9,1.63 3.58,1.16 5.27,0.38 4.89,-2.25 10.87,-0.47 15.99,-2.16 4.35,-1.44 6.9,-5.98 10.37,-8.98 1.58,-1.37 3.19,-2.77 4.33,-4.52 0.76,-1.16 0.98,-2.46 1.3,-3.81 0.32,-1.35 0.39,-2.79 -0.03,-4.12 -0.56,-1.76 -1.98,-3.38 -1.66,-5.2 0.12,-0.68 0.48,-1.3 0.63,-1.98z"></path> <path class="fil7" d="M241.47 336.52c-4.27,-3.21 -9.34,-5.37 -14.62,-6.21 0.34,-0.01 0.69,-0.02 1.03,-0.02 5.54,0 11.31,1.53 16.34,3.78 -1.09,0.67 -1.95,1.45 -2.75,2.45z"></path> <path class="fil6" d="M226.82 322.06c-1.03,0.68 -1.44,1.14 -2.47,1.82 -5.37,-9.61 -13.62,-17.67 -23.35,-22.82 0.54,1.64 0.64,3.46 -0.04,5.04 -7.5,-4.2 -16.13,-6.11 -24.61,-4.74 2,-1.78 4.61,-2.85 7.28,-3 2.31,-1.63 5.24,-2.55 8.07,-2.56 2.83,-0.02 5.63,0.59 8.35,1.33 5.82,1.58 11.55,3.85 16.31,7.57 4.75,3.72 8.46,9.02 9.35,14.99 0.79,0.66 1.04,1.35 1.1,2.38z"></path> <path class="fil6" d="M230.36 322.99c5.88,0.8 11.77,1.6 17.65,2.41 3.99,0.54 8.06,1.11 11.63,2.97 0.52,0.27 1.05,0.46 1.3,1 0.24,0.54 0.18,1.2 -0.17,1.69 -0.87,-0.99 -2.32,-1.27 -3.64,-1.21 -1.32,0.05 -2.58,0.49 -3.82,0.93 -1.24,0.43 -2.51,0.87 -3.82,0.92 -0.35,-1.23 -1.64,-2.11 -2.78,-2.67 -6.25,-3.03 -13.28,-3.93 -20.17,-4.79 1,-0.53 2.72,-0.96 3.82,-1.23z"></path> <path class="fil7" d="M218.77 338.58c-0.51,-0.27 -1.01,-0.58 -1.47,-0.93 0.82,-1.96 1.87,-3.84 3.11,-5.57 1.73,-2.41 3.85,-4.54 6.23,-6.3 -0.46,0.52 -0.84,1.1 -1.14,1.73 -1.15,0.6 -1.92,1.93 -1.97,3.23 -1.63,0.26 -2.94,1.56 -3.65,3.05 -0.71,1.49 -0.92,3.15 -1.12,4.79z"></path> <path class="fil7" d="M208.63 337.34c2.07,-1.19 3.46,-3.62 4.26,-5.87 0.8,-2.25 0.77,-4.78 -0.08,-7.01 0.9,0.95 2.25,1.62 3.57,1.62 0.28,0 0.56,-0.03 0.84,-0.1 1.55,-0.38 2.85,-1.62 3.29,-3.15 0.53,0.3 1.13,0.44 1.75,0.44 0.54,0 1.08,-0.11 1.58,-0.32 0.05,0.09 0.1,0.17 0.15,0.26 -2.44,1.12 -4.59,2.9 -6.22,5.07 -1.77,2.36 -3,5.05 -3.9,7.87 -1.72,0.48 -3.47,0.88 -5.23,1.19z"></path> <path class="fil8" d="M223.97 323.22c-0.05,-0.09 -0.1,-0.17 -0.15,-0.26 0.45,-0.19 0.86,-0.46 1.19,-0.8 0.11,0.13 0.23,0.2 0.36,0.28 -0.28,0.17 -0.57,0.35 -0.86,0.55 -0.18,0.07 -0.36,0.15 -0.54,0.23z"></path> <path class="fil7" d="M228.98 356.02c-0.15,0 -0.3,-0.02 -0.44,-0.05 -0.65,-0.16 -1.06,-0.84 -1.12,-1.5 -0.06,-0.66 0.17,-1.32 0.43,-1.93 0.71,-1.69 1.66,-3.27 2.61,-4.84 1.18,-1.95 2.43,-3.98 4.36,-5.18 1.26,-0.78 2.72,-1.16 4.03,-1.85 1.31,-0.69 2.53,-1.86 2.63,-3.33 4.47,-3.28 9.96,-5.48 15.45,-6.27 0.25,-0.04 0.51,-0.07 0.77,-0.07 0.38,0 0.75,0.07 1.05,0.28 0.73,0.52 0.72,1.59 0.51,2.46 -0.21,0.87 -0.55,1.78 -0.26,2.62 0.48,1.35 0.72,2.71 0.2,4.04 -0,-1.03 -0.68,-2 -1.47,-2.67 -0.02,1.96 -1.45,3.75 -3.25,4.53 1.6,-1.19 2.53,-3.24 2.53,-5.24 -0.26,0.83 -0.88,1.47 -1.5,2.08 0.47,-0.86 0.6,-1.9 0.61,-2.88 -2.93,0.03 -5.76,1.11 -8.41,2.37 -3.33,1.58 -6.64,3.24 -9.68,5.34 -3.04,2.1 -5.8,4.65 -7.79,7.76 0.25,0.09 0.49,0.13 0.74,0.13 0.4,0 0.78,-0.11 1.19,-0.28 -0.7,0.53 -1.58,0.76 -2.45,0.81 0.75,0.58 1.63,0.88 2.52,0.88 0.67,0 1.34,-0.17 1.96,-0.52 -1.2,0.91 -2.82,1.38 -4.37,1.38 -0.31,0 -0.61,-0.02 -0.9,-0.06 0.54,0.5 1.23,0.77 1.93,0.77 0.58,0 1.15,-0.18 1.64,-0.55 -0.84,0.77 -2.32,1.77 -3.51,1.77z"></path> <path class="fil4" d="M182.66 297.93c2.05,-0.16 4.12,-0.11 6.18,0.05 2.06,0.19 4.11,0.53 6.13,1 4.04,0.95 7.94,2.52 11.54,4.6 3.59,2.1 6.89,4.7 9.72,7.74 1.41,1.52 2.72,3.13 3.91,4.82 1.16,1.71 2.23,3.48 3.11,5.34 -1.1,-1.74 -2.26,-3.43 -3.55,-5.01 -1.26,-1.6 -2.63,-3.13 -4.09,-4.54 -2.92,-2.84 -6.15,-5.34 -9.66,-7.37 -3.5,-2.05 -7.28,-3.61 -11.19,-4.73 -1.96,-0.56 -3.95,-0.99 -5.97,-1.29 -2.02,-0.34 -4.06,-0.5 -6.12,-0.6z"></path> <path class="fil4" d="M180 302.84c-0.08,0 -0.16,-0.03 -0.22,-0.1 -0.09,-0.1 -0.1,-0.25 -0.02,-0.37 2.44,-3.43 6.38,-5.48 10.54,-5.48 0.27,0 0.55,0.01 0.83,0.03 0.14,0.01 0.25,0.11 0.27,0.25 0.02,0.14 -0.05,0.27 -0.18,0.32 -2.08,0.85 -3.95,1.74 -5.6,2.53 -1.64,0.79 -3.51,1.69 -5.47,2.79l-0.14 0.04zm11.17 1.63c-0.09,0 -0.17,-0.04 -0.23,-0.11 -0.09,-0.11 -0.09,-0.26 0,-0.37 2.57,-3.17 6.37,-4.99 10.41,-4.99 0.69,0 1.38,0.06 2.06,0.16 0.14,0.02 0.24,0.14 0.25,0.27 0.01,0.14 -0.08,0.26 -0.22,0.3 -2.37,0.65 -4.46,1.42 -6.18,2.08 -1.82,0.71 -3.8,1.52 -5.96,2.62l-0.13 0.03zm11.21 3.97c-0.09,0 -0.17,-0.04 -0.23,-0.11 -0.08,-0.1 -0.09,-0.25 -0.01,-0.36 1.92,-2.69 5,-4.29 8.25,-4.29 0.45,0 0.9,0.03 1.34,0.09 0.13,0.02 0.23,0.12 0.25,0.25 0.02,0.13 -0.05,0.26 -0.17,0.31l-4.64 2.08 -4.68 2.01 -0.12 0.02zm8.94 4.76c-0.12,0 -0.23,-0.08 -0.27,-0.19 -0.04,-0.12 -0.01,-0.25 0.08,-0.33 2.22,-1.91 4.58,-2.87 7.41,-3l0.01 0c0.12,0 0.23,0.07 0.27,0.18 0.05,0.11 0.02,0.25 -0.07,0.33 -2.13,1.99 -4.49,2.95 -7.43,3.01l-0.01 0zm7.29 5.96c-0.23,0 -0.46,-0.02 -0.7,-0.05 -0.11,-0.02 -0.2,-0.09 -0.24,-0.2 -0.03,-0.11 -0.01,-0.22 0.07,-0.3 1.39,-1.37 2.59,-2.03 4.41,-2.44l0.06 -0.01c0.09,0 0.17,0.04 0.23,0.11 0.07,0.09 0.09,0.2 0.04,0.31 -0.71,1.62 -2.16,2.59 -3.88,2.59z"></path> <path class="fil5" d="M217.95 318.45c1.88,0.27 3.5,-0.62 4.26,-2.36 -1.81,0.41 -2.93,1.05 -4.26,2.36zm-6.63 -5.92c2.87,-0.06 5.13,-0.97 7.24,-2.93 -2.82,0.14 -5.08,1.08 -7.24,2.93zm-8.94 -4.76c1.66,-0.71 3.17,-1.36 4.67,-2.01 1.5,-0.67 2.99,-1.34 4.64,-2.07 -3.61,-0.49 -7.18,1.08 -9.32,4.08zm-11.21 -3.97c2.09,-1.07 4.03,-1.87 5.99,-2.64 1.96,-0.75 3.94,-1.46 6.21,-2.09 -4.59,-0.73 -9.24,1.08 -12.2,4.72zm-0.06 -6.96c-2.05,0.84 -3.83,1.68 -5.62,2.53 -1.78,0.86 -3.56,1.72 -5.49,2.8 2.56,-3.6 6.75,-5.61 11.11,-5.33z"></path> <path class="fil9" d="M213.69 347.93c-3.68,3.28 -7.9,5.74 -12.51,6.97 -2.3,0.6 -4.69,0.92 -7.09,0.84 -1.2,-0.04 -2.41,-0.16 -3.6,-0.41 -1.18,-0.25 -2.43,-0.89 -2.9,-2.07 0.57,1.13 1.81,1.63 2.97,1.8 1.18,0.17 2.39,0.22 3.57,0.21 2.37,-0.03 4.69,-0.39 6.95,-0.99 4.51,-1.22 8.71,-3.43 12.62,-6.35z"></path> <path class="fil9" d="M196.23 359.41c1.07,1.93 3.16,3.04 5.25,3.21 2.11,0.18 4.26,-0.36 6.1,-1.39 1.88,-0.99 3.45,-2.53 4.52,-4.37 1.08,-1.84 1.67,-3.98 1.7,-6.17 0.27,2.18 -0.17,4.46 -1.2,6.44 -1.03,2 -2.71,3.64 -4.67,4.74 -1.98,1.04 -4.27,1.62 -6.52,1.31 -1.12,-0.16 -2.21,-0.56 -3.13,-1.2 -0.91,-0.66 -1.67,-1.54 -2.05,-2.57z"></path> <path class="fil4" d="M196.4 357.77c0.01,0.53 0.14,1.06 0.37,1.54 -0.32,-0.1 -0.68,-0.09 -1,0.05 -0.31,0.13 -0.55,0.42 -0.7,0.72 -0.34,-0.72 -0.54,-1.51 -0.57,-2.31 0.61,0.04 1.3,0.08 1.9,0z"></path> <path class="fil4" d="M214.89 349.06c0.13,0.48 0.11,0.88 0.12,1.38 -0.41,0.09 -0.73,0.28 -1.02,0.58 0.03,-0.38 -0.04,-0.76 -0.2,-1.11 0.41,-0.15 0.79,-0.54 1.09,-0.85z"></path> <path class="fil9" d="M188.17 297.14c-2.56,0.94 -4.68,2.09 -6.86,3.73 1.8,-2.06 4.18,-3.36 6.86,-3.73z"></path> <path class="fil9" d="M200.99 298.96c-2.97,0.59 -5.47,1.61 -7.99,3.28 2.17,-2.12 4.99,-3.27 7.99,-3.28z"></path> <path class="fil9" d="M210.52 303.55c-2.51,0.53 -4.59,1.43 -6.68,2.9 1.72,-1.92 4.14,-2.96 6.68,-2.9z"></path> <path class="fil9" d="M217.62 309.9c-1.8,0.61 -3.32,1.2 -5.06,1.98 1.44,-1.25 3.18,-1.93 5.06,-1.98z"></path> <path class="fil9" d="M221.38 316.47c-0.83,0.64 -1.56,1.05 -2.52,1.45 0.62,-0.84 1.49,-1.35 2.52,-1.45z"></path> <path class="fil4" d="M260.09 337.89c-0.05,-0.41 -0.16,-0.82 -0.37,-1.21 -0.11,-0.19 -0.23,-0.38 -0.38,-0.55 -0.15,-0.16 -0.16,-0.18 -0.22,-0.31 -0.19,-0.44 -0.04,-1.11 0.21,-1.75 0.12,-0.35 0.25,-0.71 0.33,-1.13 0.07,-0.41 0.07,-0.9 -0.14,-1.35 -0.44,-0.93 -1.42,-1.28 -2.27,-1.27 -0.94,0.04 -1.59,0.51 -2.18,0.62 -0.7,0.16 -1.43,0.33 -2.13,0.51 -1.42,0.38 -2.82,0.83 -4.19,1.38 -2.73,1.09 -5.35,2.52 -7.63,4.43l-0.16 0.13 -0.02 0.21c-0.09,1.08 -1.1,1.99 -2.23,2.48 -1.14,0.51 -2.54,0.89 -3.71,1.7 -1.18,0.77 -2.17,1.77 -3.02,2.85 -0.85,1.09 -1.54,2.26 -2.23,3.4l-1.04 1.7c-0.35,0.56 -0.73,1.09 -1.09,1.7 -0.35,0.6 -0.67,1.26 -0.81,2.01 -0.13,0.75 -0.09,1.56 0.31,2.26 0.39,0.71 1.17,1.19 1.9,1.29 0.74,0.12 1.43,0.02 2.1,-0.07 1.35,-0.2 2.65,-0.58 3.88,-1.11 -1.29,0.35 -2.62,0.55 -3.93,0.61 -0.66,0.02 -1.32,0.03 -1.89,-0.14 -0.58,-0.16 -1,-0.51 -1.21,-1.01 -0.2,-0.49 -0.3,-1.08 -0.2,-1.65 0.1,-0.57 0.36,-1.14 0.69,-1.69 0.32,-0.55 0.72,-1.1 1.08,-1.67l1.05 -1.72c0.69,-1.14 1.37,-2.28 2.16,-3.3 0.8,-1.02 1.72,-1.94 2.78,-2.64 1.05,-0.73 2.28,-1.05 3.58,-1.63 0.64,-0.29 1.28,-0.68 1.8,-1.22 0.47,-0.48 0.84,-1.11 0.95,-1.83 2.15,-1.77 4.63,-3.13 7.23,-4.17 1.33,-0.53 2.69,-0.97 4.08,-1.34 0.69,-0.18 1.38,-0.35 2.1,-0.51 0.83,-0.2 1.44,-0.61 1.98,-0.6 0.57,-0.02 1.17,0.27 1.35,0.69 0.21,0.43 0.03,1.08 -0.22,1.74 -0.24,0.68 -0.55,1.53 -0.19,2.48 0.08,0.22 0.3,0.47 0.4,0.58 0.1,0.1 0.17,0.22 0.24,0.34 0.13,0.26 0.2,0.56 0.24,0.87 0.23,1.27 -0.34,2.6 -1.24,3.69 -0.88,1.11 -2.02,2.09 -2.79,3.33 0.93,-1.12 2.14,-1.92 3.19,-2.98 0.52,-0.53 1.01,-1.12 1.36,-1.82 0.35,-0.71 0.54,-1.52 0.47,-2.34z"></path> <path class="fil7" d="M227.88 360.48c-1.79,-1.58 -3.28,-3.65 -4.57,-5.66 -1.29,-2.01 -2.57,-4.05 -4.3,-5.7 -0.99,-0.95 -2.16,-1.77 -3.42,-2.3 -0.24,-0.88 -0.36,-1.81 -0.36,-2.72 0.03,0.19 0.08,0.37 0.13,0.56 0.03,-0.21 0.06,-0.43 0.1,-0.64 2.95,2.21 5.49,4.97 7.43,8.1 1.23,1.98 2.32,4.21 4.35,5.35l0 0c-0.85,-0.7 -1.23,-1.93 -1.19,-3.03 0.01,-0.35 0.06,-0.7 0.14,-1.04 -0.02,0.19 -0.04,0.38 -0.04,0.57 -0.04,1.66 0.75,3.43 2.27,4.09 -0.48,0.11 -0.75,0.58 -0.89,1.05 -0.14,0.47 -0,1.02 0.34,1.37zm-36.9 -10.52c-2.95,0 -5.89,-0.32 -8.74,-0.94 -4.38,-0.95 -8.57,-2.71 -12.32,-5.15 1.02,0.54 2.1,0.99 3.2,1.33l0 0c-0.41,-0.57 -0.84,-0.94 -1.25,-1.51 5.68,2.38 11.86,3.58 18.03,3.58 7.03,0 14.05,-1.56 20.31,-4.71 0.14,0.05 0.3,0.07 0.47,0.07 0.56,0 1.24,-0.23 1.88,-0.52 0.02,0.64 0.12,1.29 0.29,1.91 -0.04,0.53 -0.07,1.07 -0.09,1.62 -0.01,0.18 0.01,0.37 0.04,0.55 -0.05,-0 -0.09,-0 -0.14,-0 -1.61,0.54 -3.41,0.84 -5.17,0.84 -0.62,0 -1.23,-0.04 -1.83,-0.11 -4.56,2.08 -9.63,3.04 -14.7,3.04zm37.33 -1.69c-4.13,-2.12 -7.75,-5.95 -12.1,-7.53 0.19,-0.66 0.41,-1.32 0.65,-1.97 4.32,2.15 9.2,3.22 13.09,6.09 -0.34,1.21 -0.99,2.31 -1.64,3.41zm-35.05 -4.5c-9.37,0 -19.48,-1.88 -23.97,-7.41 0.06,0 0.13,0 0.19,0 0.89,0 1.88,-0.18 2.64,-0.61 -2.58,-0.33 -4.8,-2.17 -6.04,-4.44 -1.25,-2.28 -1.63,-4.94 -1.61,-7.53 0.05,-4.9 1.5,-9.78 4.14,-13.91 -3.42,3.51 -6.24,7.77 -7.51,12.5 -0.17,-0.45 -0.41,-0.95 -0.36,-1.4 0.03,-0.11 0.07,-0.21 0.1,-0.32 -0.05,0.1 -0.09,0.21 -0.1,0.32 -1.5,4.84 -1.54,9.98 0.79,14.48 0.66,1.29 1.47,2.49 2.41,3.6 -0.62,-0.62 -1.23,-1.26 -1.8,-1.92 -2.54,-2.92 -4.68,-6.4 -5.01,-10.26 -0.52,-6.1 3.65,-11.79 7.52,-16.54 -0.28,0.84 -0.14,1.38 -0.42,2.22 2.05,-4.01 6.1,-6.45 10.24,-8.21 -3.43,3.6 -5.57,8.45 -5.72,13.41 -0.15,4.97 1.75,10 5.29,13.5 3.06,3.02 7.33,4.8 11.61,4.8 0.67,0 1.34,-0.04 2.01,-0.13 -1.92,1.29 -4.33,2 -6.65,2 -0.05,0 -0.1,-0 -0.15,-0 4.9,1.37 10.01,2.05 15.12,2.05 5.82,0 11.65,-0.88 17.18,-2.62 0.1,0.03 0.21,0.05 0.31,0.07 -0.3,1.05 -0.56,2.12 -0.79,3.19 -0.05,0.23 -0.09,0.48 -0.11,0.73 -0.47,-0.06 -0.93,-0.18 -1.38,-0.34 -3.24,1.54 -10.35,2.77 -17.94,2.77z"></path> <path class="fil4" d="M215.37 344.66c0.64,-4.52 2.39,-8.88 5.05,-12.58 2.66,-3.71 6.23,-6.75 10.31,-8.8 -3.52,0.77 -6.72,2.85 -9.14,5.52 -2.41,2.67 -4.14,5.9 -5.45,9.25 -0.83,2.13 -1.36,4.41 -0.77,6.62z"></path> <path class="fil4" d="M213.9 346.08c0.55,-3.33 1.11,-6.67 2.15,-9.88 1.04,-3.21 2.6,-6.3 4.93,-8.74 2.26,-2.36 5.14,-4.02 8.05,-5.51 -4.47,0.23 -8.6,2.75 -11.28,6.33 -2.68,3.58 -4.13,7.94 -5.06,12.31 -0.37,1.73 0.06,4.14 1.21,5.48z"></path> <path class="fil4" d="M240.98 337.94c-3.71,-3.81 -8.78,-6.41 -14.21,-7.17 5.48,0.27 10.93,2.42 15.21,6.1l-1.01 1.07z"></path> <path class="fil4" d="M214.03 341.37c-0.95,0.08 -1.92,-0.05 -2.82,-0.37 -7.23,3.43 -33.78,5.37 -41.91,-4.63 0.93,0.03 2.02,-0.15 2.83,-0.6 -2.58,-0.33 -4.8,-2.17 -6.04,-4.44 -1.25,-2.28 -1.63,-4.94 -1.61,-7.53 0.05,-4.9 1.5,-9.78 4.14,-13.91 -3.42,3.51 -6.24,7.77 -7.51,12.5 -0.21,-0.55 -0.54,-1.2 -0.26,-1.72 -1.6,4.93 -1.69,10.19 0.69,14.8 2.38,4.61 6.65,8.2 11.59,9.75 -0.41,-0.57 -0.84,-0.94 -1.25,-1.51 12.14,5.09 26.59,4.79 38.34,-1.13 1.04,0.34 2.85,-0.68 3.82,-1.19z"></path> <path class="fil4" d="M228.51 348.37c-0.43,1.02 -1.01,1.96 -1.5,2.94 -0.49,0.98 -0.91,2.04 -0.95,3.14 -0.04,1.1 0.33,2.33 1.19,3.03 -2.03,-1.14 -3.12,-3.37 -4.35,-5.35 -2.09,-3.37 -4.86,-6.31 -8.1,-8.59 0.14,-1.09 0.14,-2.06 0.51,-3.09 4.83,1.36 8.71,5.69 13.2,7.92z"></path> <path class="fil5" d="M232.53 322.47c-0.22,-0.06 -0.45,-0.08 -0.67,-0.1 -0.51,-1.04 -1.78,-1.77 -2.91,-1.49 -5.93,1.49 -15.77,10.4 -16.17,24.77 -0.02,0.87 0.36,1.83 1.12,2.26 0.45,0.26 1.03,0.04 1.29,-0.4l0.12 0.16c0.17,0.18 0.45,0.33 0.65,0.19 -0.63,-1.54 -0.84,-3.36 -0.63,-5.01 0.21,-1.66 0.74,-3.25 1.36,-4.8 1.45,-3.62 3.42,-7.07 6.15,-9.84 2.73,-2.77 6.13,-4.79 9.98,-5.38 -0.06,-0.16 -0.12,-0.31 -0.29,-0.35z"></path> <path class="fil4" d="M228.43 322.26c-4.06,2.37 -7.28,5.56 -9.75,9.23 -2.45,3.68 -4.18,7.87 -4.81,12.53 0.22,-4.72 1.8,-9.16 4.32,-12.92 2.52,-3.75 6.02,-6.87 10.24,-8.84z"></path> <path class="fil9" d="M219.74 330.81c1.26,-2.1 2.89,-4 4.87,-5.5 1.97,-1.49 4.36,-2.51 6.82,-2.63 -1.2,0.26 -2.35,0.64 -3.44,1.15 -1.09,0.52 -2.12,1.15 -3.08,1.87 -1.94,1.44 -3.59,3.24 -5.16,5.11z"></path> <path class="fil9" d="M218.4 329.52c0.52,-1.05 1.23,-2 2.02,-2.87 0.78,-0.88 1.66,-1.66 2.58,-2.39 0.93,-0.72 1.91,-1.37 2.94,-1.93 1.03,-0.56 2.11,-1.04 3.23,-1.36 -2.1,1.01 -4.05,2.25 -5.87,3.67 -1.82,1.42 -3.52,2.99 -4.9,4.87z"></path> <path class="fil4" d="M234.29 359.92c-0.83,0.09 -1.57,0.43 -2.31,0.7 -0.37,0.15 -0.73,0.3 -1.1,0.44l-0.54 0.23c-0.2,0.08 -0.4,0.15 -0.6,0.2 -0.81,0.18 -1.64,0.24 -2.49,0.01 -0.42,-0.13 -0.8,-0.35 -1.11,-0.65 -0.3,-0.3 -0.53,-0.71 -0.52,-1.13 0.23,0.81 1.05,1.2 1.74,1.32 0.73,0.09 1.52,-0 2.24,-0.17 1.41,-0.46 3.01,-1.12 4.69,-0.96z"></path> <path class="fil4" d="M262.69 342.91c-0.07,0.75 -0.41,1.46 -0.81,2.1 -0.4,0.64 -0.88,1.23 -1.39,1.78 -1.02,1.11 -2.24,1.98 -3.3,2.94 -2.13,1.91 -3.66,4.41 -5.88,6.39 -1.11,0.99 -2.41,1.79 -3.8,2.31 -1.4,0.53 -2.86,0.8 -4.32,0.96 -2.95,0.36 -5.9,-0.06 -8.91,0.32 2.99,-0.65 6.02,-0.44 8.86,-0.94 1.43,-0.23 2.83,-0.55 4.13,-1.09 1.31,-0.53 2.49,-1.29 3.53,-2.23 2.1,-1.87 3.7,-4.36 6.02,-6.24 1.15,-0.93 2.38,-1.71 3.43,-2.71 0.53,-0.5 1.03,-1.03 1.47,-1.62 0.43,-0.59 0.82,-1.23 0.96,-1.97z"></path> <path class="fil10" d="M214.62 347.5c-0.47,0 -0.96,-0.23 -1.26,-0.57 -0.8,-0.91 -0.12,-5.88 0.63,-8.48 -0.05,0.2 0.02,0.42 0.17,0.56 0.11,0.1 0.25,0.15 0.4,0.15 0.01,0 0.02,0 0.02,0 -0.39,1.57 -0.64,3.19 -0.72,4.85 0.22,-1.59 0.56,-3.12 1.01,-4.59 0.13,0.21 0.37,0.36 0.62,0.36 0.03,0 0.06,-0 0.09,-0.01 -1,2.37 -1.17,5.15 -0.45,7.62 -0.16,0.08 -0.34,0.11 -0.52,0.11zm-0.63 -9.05c0,-0.02 0.01,-0.03 0.02,-0.05 -0,0.02 -0.01,0.03 -0.02,0.05z"></path> <path class="fil11" d="M213.87 344.02c0.08,-1.66 0.32,-3.28 0.72,-4.85 0.07,-0 0.14,-0.02 0.2,-0.04 0.01,0.11 0.04,0.21 0.1,0.3 -0.45,1.48 -0.8,3.01 -1.01,4.59z"></path> <path class="fil12" d="M235.31 359.08c2.52,-0.38 5.07,-0.5 7.58,-0.92 2.51,-0.42 5.02,-1.17 7.08,-2.68 2.55,-1.87 4.18,-4.74 6.62,-6.75 1.77,-1.46 4.01,-2.52 5.06,-4.56 0.9,-1.73 0.73,-3.8 0.55,-5.74 -0.87,2.74 -2.01,5.7 -4.31,7.42 -1.35,1.01 -3.01,1.49 -4.47,2.33 -2.15,1.25 -3.75,3.23 -5.66,4.81 -3.65,3.03 -7.92,4.65 -12.44,6.08z"></path> <path class="fil12" d="M254.18 346.9c-4.87,2.06 -8.01,7.29 -13.07,8.8 1.7,-2.22 3.39,-4.45 5.59,-6.19 2.19,-1.73 4.7,-2.82 7.49,-2.62z"></path> <path class="fil12" d="M253.56 346.32c-3.09,1.06 -7.59,3.96 -9.97,6.2 -2.37,2.23 -5.48,3.66 -8.71,3.99 3.42,-1.36 6.37,-3.71 8.85,-6.43 -0.71,0.27 -1.66,0.29 -2.41,0.34 2.27,-0.76 4.01,-2.6 6.02,-3.91 2.01,-1.31 4.38,-2.39 6.73,-1.95 -1.09,0.27 -2.2,0.67 -3.19,1.19 0.63,0.06 2.33,0.04 2.7,0.56z"></path> <path class="fil6" d="M237.01 340.44c-1.7,0.62 -2.82,1.33 -4.01,2.47 -3.62,-1.94 -5.86,-3.93 -8.71,-6.39 7.14,-1.04 9.61,1.11 12.72,3.92z"></path> <path class="fil13" d="M199.35 321.77c-0,-0.43 -0.07,-0.84 -0.2,-1.22 -0.38,-1.13 -1.51,-2.04 -2.51,-2.02 -0.98,0.01 -1.89,0.79 -2.5,1.63 1.73,0.55 3.47,1.09 5.21,1.61zm-11.43 1.07c-2.43,-0.83 -4.85,-1.68 -7.26,-2.58 -0.09,1.29 0.02,2.92 0.83,4.21 0.74,1.2 2.15,1.96 3.27,1.77 1.41,-0.24 2.39,-1.84 2.74,-2.52 0.15,-0.29 0.29,-0.58 0.43,-0.89zm-15.3 -5.69l1.69 -4.16c1.1,0.45 2.21,0.89 3.32,1.32 0.7,-1.45 1.63,-2.71 2.75,-3.71 2.83,-2.52 6.92,-3.26 10.17,-1.86l-1.78 4.12c-1.65,-0.72 -3.87,-0.27 -5.4,1.09 -0.59,0.53 -1.1,1.19 -1.52,1.96 2.62,0.97 5.25,1.91 7.9,2.8 0.07,-0.14 0.15,-0.27 0.23,-0.41 1.58,-2.64 4.05,-4.24 6.6,-4.28 2.95,-0.04 5.82,2.1 6.83,5.08 0.42,1.24 0.53,2.57 0.36,3.93 1.1,0.31 2.2,0.61 3.3,0.9l-1.16 4.34c-1.21,-0.32 -2.42,-0.65 -3.63,-1 -1.06,1.83 -2.48,3.37 -3.75,4.75l-3.3 -3.05c0.89,-0.97 1.81,-1.96 2.55,-3.01 -1.86,-0.56 -3.72,-1.13 -5.57,-1.73 -0.22,0.52 -0.46,1.04 -0.73,1.56 -1.43,2.72 -3.54,4.44 -5.96,4.86 -2.91,0.5 -6.14,-1.08 -7.84,-3.83 -1.29,-2.08 -1.76,-4.65 -1.42,-7.64 0.02,-0.2 0.05,-0.39 0.08,-0.59 -1.24,-0.48 -2.48,-0.97 -3.71,-1.47z"></path> <g id="_2216542660384"> <g> <path class="fil14" d="M267.19 346.08c0.65,0.4 1.22,-0.49 1.31,0.03 0.1,0.61 0.18,1.91 0.16,2.22 -0.07,1.16 -1.21,2.35 -3.3,3.2 -3.55,1.44 -8.48,1.35 -11.02,-0.22 -0.88,-0.54 -1.36,-1.19 -1.46,-1.87 -0.03,-0.21 -0.21,-1.98 -0.17,-2.19 0.21,-1.07 1.52,-0.6 3.45,-1.38 3.55,-1.44 8.48,-1.35 11.02,0.22z"></path> </g> <path class="fil15" d="M262.99 344.89l0.61 7.2c0.61,-0.15 1.21,-0.34 1.76,-0.57 0.74,-0.3 1.36,-0.64 1.85,-1.01l-0.4 -4.64c-1.03,-0.53 -2.38,-0.86 -3.83,-0.98z"></path> <path class="fil15" d="M258.36 345.2c-0.76,0.16 -1.5,0.39 -2.19,0.66 -0.54,0.22 -1.03,0.34 -1.47,0.43l0.46 5.44c1.07,0.46 2.4,0.72 3.82,0.8l-0.62 -7.32z"></path> <path class="fil16" d="M258.36 345.2l0.62 7.32c1.51,0.08 3.12,-0.07 4.62,-0.43l-0.61 -7.2c-1.5,-0.12 -3.11,-0.02 -4.63,0.31z"></path> <g> <path class="fil17" d="M267.04 344.3c2.54,1.56 1.72,4 -1.83,5.44 -3.55,1.44 -8.48,1.35 -11.02,-0.22 -2.54,-1.56 -1.72,-4 1.83,-5.44 3.55,-1.44 8.48,-1.35 11.02,0.22z"></path> </g> <g> <path class="fil18" d="M266.02 345.5c0.79,1.31 -1.07,2.8 -4.17,3.32 -3.09,0.52 -6.24,-0.12 -7.03,-1.43 -0.79,-1.31 1.07,-2.8 4.17,-3.32 3.09,-0.52 6.24,0.12 7.03,1.43z"></path> </g> <g> <path class="fil19" d="M265.96 345.67c0.75,1.25 -1.02,2.66 -3.97,3.16 -2.95,0.5 -5.94,-0.12 -6.7,-1.37 -0.75,-1.25 1.02,-2.66 3.97,-3.16 2.95,-0.5 5.94,0.12 6.7,1.37z"></path> </g> <g> <path class="fil20" d="M262.91 343.35c-0.01,-0.09 -0.02,-0.18 -0.04,-0.26 -2.26,-0.19 -4.79,0.13 -6.86,0.97 -2.12,0.86 -3.27,2.08 -3.3,3.25 1.13,0.37 2.49,0.53 3.95,0.4 3.63,-0.31 6.43,-2.26 6.25,-4.36z"></path> </g> <g> <polygon class="fil21" points="255.29,347.74 264.9,347.85 265.35,347.48 268.3,347.56 268.56,346.47 266.12,346.44 265.93,346.92 255.12,346.89 "></polygon> </g> <path class="fil22" d="M259.53 349c0,0 4.41,-0.15 6.4,-2.08 0,0 -1.76,2.67 -6.4,2.08z"></path> <path class="fil22" d="M252.73 347.77c0,0 0.06,3.59 8.69,2.89 0,0 -7.55,0.31 -8.69,-2.89z"></path> </g> <g id="_2217848734960"> <g> <path class="fil14" d="M247.18 350.59c0.74,0.45 1.39,-0.56 1.5,0.03 0.12,0.69 0.2,2.17 0.18,2.53 -0.08,1.32 -1.38,2.68 -3.76,3.64 -4.04,1.64 -9.66,1.53 -12.56,-0.25 -1.01,-0.62 -1.55,-1.36 -1.66,-2.13 -0.03,-0.24 -0.24,-2.25 -0.19,-2.49 0.24,-1.22 1.73,-0.68 3.93,-1.58 4.04,-1.64 9.66,-1.53 12.56,0.25z"></path> </g> <path class="fil15" d="M242.39 349.23l0.7 8.2c0.7,-0.17 1.37,-0.39 2.01,-0.65 0.84,-0.34 1.54,-0.73 2.11,-1.15l-0.45 -5.28c-1.18,-0.61 -2.71,-0.98 -4.37,-1.12z"></path> <path class="fil15" d="M237.12 349.58c-0.87,0.19 -1.71,0.44 -2.5,0.76 -0.62,0.25 -1.18,0.39 -1.67,0.48l0.53 6.19c1.22,0.52 2.74,0.82 4.35,0.91l-0.71 -8.34z"></path> <path class="fil16" d="M237.12 349.58l0.71 8.34c1.72,0.09 3.56,-0.07 5.26,-0.49l-0.7 -8.2c-1.7,-0.14 -3.54,-0.02 -5.27,0.35z"></path> <g> <path class="fil17" d="M247.01 348.55c2.89,1.78 1.96,4.56 -2.08,6.2 -4.04,1.64 -9.66,1.53 -12.56,-0.25 -2.89,-1.78 -1.96,-4.55 2.08,-6.2 4.04,-1.64 9.66,-1.53 12.56,0.25z"></path> </g> <g> <path class="fil18" d="M245.84 349.92c0.9,1.49 -1.22,3.19 -4.74,3.78 -3.52,0.59 -7.11,-0.14 -8.01,-1.63 -0.9,-1.49 1.22,-3.19 4.74,-3.78 3.52,-0.59 7.11,0.14 8.01,1.63z"></path> </g> <g> <path class="fil19" d="M245.78 350.12c0.86,1.42 -1.16,3.04 -4.52,3.6 -3.35,0.56 -6.77,-0.13 -7.63,-1.56 -0.86,-1.42 1.16,-3.04 4.52,-3.6 3.36,-0.56 6.77,0.13 7.63,1.56z"></path> </g> <g> <path class="fil20" d="M242.31 347.47c-0.01,-0.1 -0.03,-0.2 -0.05,-0.3 -2.57,-0.21 -5.46,0.15 -7.81,1.1 -2.42,0.98 -3.72,2.37 -3.76,3.71 1.28,0.42 2.84,0.6 4.49,0.46 4.14,-0.35 7.33,-2.58 7.12,-4.97z"></path> </g> <g> <polygon class="fil21" points="233.63,352.48 244.57,352.6 245.08,352.18 248.44,352.27 248.74,351.03 245.96,350.99 245.74,351.54 233.43,351.5 "></polygon> </g> <path class="fil22" d="M238.45 353.91c0,0 5.03,-0.17 7.29,-2.36 0,0 -2,3.05 -7.29,2.36z"></path> <path class="fil22" d="M230.71 352.51c0,0 0.07,4.09 9.9,3.29 0,0 -8.6,0.35 -9.9,-3.29z"></path> </g> <g id="_2217848743936"> <g> <path class="fil14" d="M267.88 359.54c0.74,0.45 1.39,-0.56 1.5,0.03 0.12,0.69 0.2,2.17 0.18,2.53 -0.08,1.32 -1.38,2.68 -3.76,3.64 -4.04,1.64 -9.66,1.53 -12.56,-0.25 -1.01,-0.62 -1.55,-1.36 -1.66,-2.13 -0.03,-0.24 -0.24,-2.25 -0.19,-2.49 0.24,-1.22 1.73,-0.68 3.93,-1.58 4.04,-1.64 9.66,-1.53 12.56,0.25z"></path> </g> <path class="fil15" d="M263.09 358.18l0.7 8.2c0.7,-0.17 1.37,-0.39 2.01,-0.65 0.84,-0.34 1.54,-0.73 2.11,-1.15l-0.45 -5.28c-1.18,-0.61 -2.71,-0.98 -4.37,-1.12z"></path> <path class="fil15" d="M257.82 358.53c-0.87,0.19 -1.71,0.44 -2.5,0.76 -0.62,0.25 -1.18,0.39 -1.67,0.48l0.53 6.19c1.22,0.52 2.74,0.82 4.35,0.91l-0.71 -8.34z"></path> <path class="fil16" d="M257.82 358.53l0.71 8.34c1.72,0.09 3.56,-0.07 5.26,-0.49l-0.7 -8.2c-1.7,-0.14 -3.54,-0.02 -5.27,0.35z"></path> <g> <path class="fil17" d="M267.71 357.5c2.89,1.78 1.96,4.56 -2.08,6.2 -4.04,1.64 -9.66,1.53 -12.56,-0.25 -2.89,-1.78 -1.96,-4.55 2.08,-6.2 4.04,-1.64 9.66,-1.53 12.56,0.25z"></path> </g> <g> <path class="fil18" d="M266.54 358.87c0.9,1.49 -1.22,3.19 -4.74,3.78 -3.52,0.59 -7.11,-0.14 -8.01,-1.63 -0.9,-1.49 1.22,-3.19 4.74,-3.78 3.52,-0.59 7.11,0.14 8.01,1.63z"></path> </g> <g> <path class="fil19" d="M266.47 359.07c0.86,1.42 -1.16,3.04 -4.52,3.6 -3.35,0.56 -6.77,-0.13 -7.63,-1.56 -0.86,-1.42 1.16,-3.04 4.52,-3.6 3.36,-0.56 6.77,0.13 7.63,1.56z"></path> </g> <g> <path class="fil20" d="M263 356.42c-0.01,-0.1 -0.03,-0.2 -0.05,-0.3 -2.57,-0.21 -5.46,0.15 -7.81,1.1 -2.42,0.98 -3.72,2.37 -3.76,3.71 1.28,0.42 2.84,0.6 4.49,0.46 4.14,-0.35 7.33,-2.58 7.12,-4.97z"></path> </g> <g> <polygon class="fil21" points="254.32,361.43 265.27,361.55 265.77,361.13 269.14,361.22 269.44,359.98 266.65,359.94 266.44,360.49 254.13,360.45 "></polygon> </g> <path class="fil22" d="M259.15 362.86c0,0 5.03,-0.17 7.29,-2.36 0,0 -2,3.05 -7.29,2.36z"></path> <path class="fil22" d="M251.41 361.46c0,0 0.07,4.09 9.9,3.29 0,0 -8.6,0.35 -9.9,-3.29z"></path> </g> <g id="_2217848749312"> <g> <path class="fil14" d="M155.51 340.51c0.74,0.45 1.39,-0.56 1.5,0.03 0.12,0.69 0.2,2.17 0.18,2.53 -0.08,1.32 -1.38,2.68 -3.76,3.64 -4.04,1.64 -9.66,1.53 -12.56,-0.25 -1.01,-0.62 -1.55,-1.36 -1.66,-2.13 -0.03,-0.24 -0.24,-2.25 -0.19,-2.49 0.24,-1.22 1.73,-0.68 3.93,-1.58 4.04,-1.64 9.66,-1.53 12.56,0.25z"></path> </g> <path class="fil15" d="M150.72 339.16l0.7 8.2c0.7,-0.17 1.37,-0.39 2.01,-0.65 0.84,-0.34 1.54,-0.73 2.11,-1.15l-0.45 -5.28c-1.18,-0.61 -2.71,-0.98 -4.37,-1.12z"></path> <path class="fil15" d="M145.45 339.51c-0.87,0.19 -1.71,0.44 -2.5,0.76 -0.62,0.25 -1.18,0.39 -1.67,0.48l0.53 6.19c1.22,0.52 2.74,0.82 4.35,0.91l-0.71 -8.34z"></path> <path class="fil16" d="M145.45 339.51l0.71 8.34c1.72,0.09 3.56,-0.07 5.26,-0.49l-0.7 -8.2c-1.7,-0.14 -3.54,-0.02 -5.27,0.35z"></path> <g> <path class="fil17" d="M155.34 338.48c2.89,1.78 1.96,4.56 -2.08,6.2 -4.04,1.64 -9.66,1.53 -12.56,-0.25 -2.89,-1.78 -1.96,-4.55 2.08,-6.2 4.04,-1.64 9.66,-1.53 12.56,0.25z"></path> </g> <g> <path class="fil18" d="M154.17 339.84c0.9,1.49 -1.22,3.19 -4.74,3.78 -3.52,0.59 -7.11,-0.14 -8.01,-1.63 -0.9,-1.49 1.22,-3.19 4.74,-3.78 3.52,-0.59 7.11,0.14 8.01,1.63z"></path> </g> <g> <path class="fil19" d="M154.1 340.04c0.86,1.42 -1.16,3.04 -4.52,3.6 -3.35,0.56 -6.77,-0.13 -7.63,-1.56 -0.86,-1.42 1.16,-3.04 4.52,-3.6 3.36,-0.56 6.77,0.13 7.63,1.56z"></path> </g> <g> <path class="fil20" d="M150.64 337.4c-0.01,-0.1 -0.03,-0.2 -0.05,-0.3 -2.57,-0.21 -5.46,0.15 -7.81,1.1 -2.42,0.98 -3.72,2.37 -3.76,3.71 1.28,0.42 2.84,0.6 4.49,0.46 4.14,-0.35 7.33,-2.58 7.12,-4.97z"></path> </g> <g> <polygon class="fil21" points="141.95,342.4 152.9,342.52 153.41,342.11 156.77,342.19 157.07,340.95 154.28,340.92 154.07,341.47 141.76,341.43 "></polygon> </g> <path class="fil22" d="M146.78 343.83c0,0 5.03,-0.17 7.29,-2.36 0,0 -2,3.05 -7.29,2.36z"></path> <path class="fil22" d="M139.04 342.43c0,0 0.07,4.09 9.9,3.29 0,0 -8.6,0.35 -9.9,-3.29z"></path> </g> <g id="_2217848758912"> <g> <path class="fil14" d="M284.25 332.67c0.54,0.33 1.02,-0.41 1.1,0.02 0.09,0.51 0.15,1.6 0.13,1.86 -0.06,0.97 -1.02,1.97 -2.76,2.68 -2.97,1.21 -7.1,1.13 -9.22,-0.18 -0.74,-0.45 -1.14,-1 -1.22,-1.56 -0.02,-0.17 -0.17,-1.65 -0.14,-1.83 0.18,-0.9 1.27,-0.5 2.89,-1.16 2.97,-1.21 7.1,-1.13 9.22,0.18z"></path> </g> <path class="fil15" d="M280.73 331.67l0.51 6.02c0.51,-0.13 1.01,-0.28 1.48,-0.47 0.62,-0.25 1.13,-0.54 1.55,-0.85l-0.33 -3.88c-0.86,-0.45 -1.99,-0.72 -3.21,-0.82z"></path> <path class="fil15" d="M276.86 331.93c-0.64,0.14 -1.26,0.32 -1.83,0.56 -0.45,0.18 -0.87,0.29 -1.23,0.36l0.39 4.55c0.9,0.38 2.01,0.6 3.19,0.67l-0.52 -6.13z"></path> <path class="fil16" d="M276.86 331.93l0.52 6.13c1.27,0.06 2.61,-0.05 3.86,-0.36l-0.51 -6.02c-1.25,-0.1 -2.6,-0.02 -3.87,0.26z"></path> <g> <path class="fil17" d="M284.12 331.17c2.12,1.31 1.44,3.35 -1.53,4.55 -2.97,1.21 -7.1,1.13 -9.22,-0.18 -2.12,-1.31 -1.44,-3.35 1.53,-4.55 2.97,-1.21 7.1,-1.13 9.22,0.18z"></path> </g> <g> <path class="fil18" d="M283.26 332.17c0.66,1.1 -0.9,2.34 -3.49,2.78 -2.59,0.44 -5.22,-0.1 -5.88,-1.2 -0.66,-1.1 0.9,-2.34 3.49,-2.78 2.59,-0.44 5.22,0.1 5.88,1.2z"></path> </g> <g> <path class="fil19" d="M283.21 332.32c0.63,1.05 -0.86,2.23 -3.32,2.64 -2.46,0.41 -4.97,-0.1 -5.6,-1.14 -0.63,-1.05 0.86,-2.23 3.32,-2.64 2.46,-0.41 4.97,0.1 5.6,1.14z"></path> </g> <g> <path class="fil20" d="M280.66 330.38c-0.01,-0.07 -0.02,-0.15 -0.03,-0.22 -1.89,-0.16 -4.01,0.11 -5.74,0.81 -1.78,0.72 -2.73,1.74 -2.76,2.72 0.94,0.31 2.09,0.44 3.3,0.34 3.04,-0.26 5.38,-1.89 5.23,-3.65z"></path> </g> <g> <polygon class="fil21" points="274.29,334.06 282.33,334.14 282.7,333.84 285.17,333.9 285.39,332.99 283.34,332.96 283.19,333.37 274.14,333.34 "></polygon> </g> <path class="fil22" d="M277.83 335.1c0,0 3.69,-0.13 5.35,-1.74 0,0 -1.47,2.24 -5.35,1.74z"></path> <path class="fil22" d="M272.14 334.08c0,0 0.05,3 7.27,2.42 0,0 -6.32,0.26 -7.27,-2.42z"></path> </g> <g id="_2217848763088"> <g> <path class="fil14" d="M246.66 318.42c0.4,0.24 0.75,-0.3 0.81,0.02 0.06,0.37 0.11,1.17 0.1,1.36 -0.04,0.71 -0.75,1.44 -2.03,1.97 -2.18,0.89 -5.21,0.83 -6.78,-0.13 -0.54,-0.33 -0.84,-0.73 -0.9,-1.15 -0.02,-0.13 -0.13,-1.22 -0.1,-1.35 0.13,-0.66 0.93,-0.37 2.12,-0.85 2.18,-0.89 5.21,-0.83 6.78,0.13z"></path> </g> <path class="fil15" d="M244.08 317.69l0.38 4.42c0.38,-0.09 0.74,-0.21 1.08,-0.35 0.45,-0.18 0.83,-0.4 1.14,-0.62l-0.24 -2.85c-0.63,-0.33 -1.46,-0.53 -2.36,-0.6z"></path> <path class="fil15" d="M241.23 317.88c-0.47,0.1 -0.92,0.24 -1.35,0.41 -0.33,0.14 -0.64,0.21 -0.9,0.26l0.28 3.34c0.66,0.28 1.48,0.44 2.35,0.49l-0.38 -4.5z"></path> <path class="fil16" d="M241.23 317.88l0.38 4.5c0.93,0.05 1.92,-0.04 2.84,-0.27l-0.38 -4.42c-0.92,-0.07 -1.91,-0.01 -2.84,0.19z"></path> <g> <path class="fil17" d="M246.57 317.32c1.56,0.96 1.06,2.46 -1.12,3.34 -2.18,0.89 -5.21,0.83 -6.78,-0.13 -1.56,-0.96 -1.06,-2.46 1.12,-3.34 2.18,-0.89 5.21,-0.83 6.78,0.13z"></path> </g> <g> <path class="fil18" d="M245.94 318.06c0.49,0.81 -0.66,1.72 -2.56,2.04 -1.9,0.32 -3.84,-0.07 -4.32,-0.88 -0.49,-0.81 0.66,-1.72 2.56,-2.04 1.9,-0.32 3.84,0.07 4.32,0.88z"></path> </g> <g> <path class="fil19" d="M245.9 318.17c0.46,0.77 -0.63,1.64 -2.44,1.94 -1.81,0.3 -3.65,-0.07 -4.12,-0.84 -0.46,-0.77 0.63,-1.64 2.44,-1.94 1.81,-0.3 3.65,0.07 4.12,0.84z"></path> </g> <g> <path class="fil20" d="M244.03 316.74c-0,-0.05 -0.01,-0.11 -0.02,-0.16 -1.39,-0.12 -2.95,0.08 -4.21,0.6 -1.3,0.53 -2.01,1.28 -2.03,2 0.69,0.23 1.53,0.32 2.43,0.25 2.23,-0.19 3.95,-1.39 3.84,-2.68z"></path> </g> <g> <polygon class="fil21" points="239.35,319.44 245.25,319.51 245.52,319.28 247.34,319.33 247.5,318.66 246,318.64 245.88,318.94 239.24,318.92 "></polygon> </g> <path class="fil22" d="M241.95 320.21c0,0 2.71,-0.09 3.93,-1.28 0,0 -1.08,1.64 -3.93,1.28z"></path> <path class="fil22" d="M237.77 319.46c0,0 0.04,2.21 5.34,1.78 0,0 -4.64,0.19 -5.34,-1.78z"></path> </g> <g id="_2217848780512"> <g> <path class="fil14" d="M95.77 357.61c0.74,0.45 1.39,-0.56 1.5,0.03 0.12,0.69 0.2,2.17 0.18,2.53 -0.08,1.32 -1.38,2.68 -3.76,3.64 -4.04,1.64 -9.66,1.53 -12.56,-0.25 -1.01,-0.62 -1.55,-1.36 -1.66,-2.13 -0.03,-0.24 -0.24,-2.25 -0.19,-2.49 0.24,-1.22 1.73,-0.68 3.93,-1.58 4.04,-1.64 9.66,-1.53 12.56,0.25z"></path> </g> <path class="fil15" d="M90.98 356.26l0.7 8.2c0.7,-0.17 1.37,-0.39 2.01,-0.65 0.84,-0.34 1.54,-0.73 2.11,-1.15l-0.45 -5.28c-1.18,-0.61 -2.71,-0.98 -4.37,-1.12z"></path> <path class="fil15" d="M85.71 356.6c-0.87,0.19 -1.71,0.44 -2.5,0.76 -0.62,0.25 -1.18,0.39 -1.67,0.48l0.53 6.19c1.22,0.52 2.74,0.82 4.35,0.91l-0.71 -8.34z"></path> <path class="fil16" d="M85.71 356.6l0.71 8.34c1.72,0.09 3.56,-0.07 5.26,-0.49l-0.7 -8.2c-1.7,-0.14 -3.54,-0.02 -5.27,0.35z"></path> <g> <path class="fil17" d="M95.6 355.57c2.89,1.78 1.96,4.56 -2.08,6.2 -4.04,1.64 -9.66,1.53 -12.56,-0.25 -2.89,-1.78 -1.96,-4.55 2.08,-6.2 4.04,-1.64 9.66,-1.53 12.56,0.25z"></path> </g> <g> <path class="fil18" d="M94.43 356.94c0.9,1.49 -1.22,3.19 -4.74,3.78 -3.52,0.59 -7.11,-0.14 -8.01,-1.63 -0.9,-1.49 1.22,-3.19 4.74,-3.78 3.52,-0.59 7.11,0.14 8.01,1.63z"></path> </g> <g> <path class="fil19" d="M94.37 357.14c0.86,1.42 -1.16,3.04 -4.52,3.6 -3.35,0.56 -6.77,-0.13 -7.63,-1.56 -0.86,-1.42 1.16,-3.04 4.52,-3.6 3.36,-0.56 6.77,0.13 7.63,1.56z"></path> </g> <g> <path class="fil20" d="M90.9 354.49c-0.01,-0.1 -0.03,-0.2 -0.05,-0.3 -2.57,-0.21 -5.46,0.15 -7.81,1.1 -2.42,0.98 -3.72,2.37 -3.76,3.71 1.28,0.42 2.84,0.6 4.49,0.46 4.14,-0.35 7.33,-2.58 7.12,-4.97z"></path> </g> <g> <polygon class="fil21" points="82.22,359.5 93.16,359.62 93.67,359.2 97.03,359.29 97.33,358.05 94.55,358.02 94.33,358.56 82.02,358.53 "></polygon> </g> <path class="fil22" d="M87.04 360.93c0,0 5.03,-0.17 7.29,-2.36 0,0 -2,3.05 -7.29,2.36z"></path> <path class="fil22" d="M79.3 359.53c0,0 0.07,4.09 9.9,3.29 0,0 -8.6,0.35 -9.9,-3.29z"></path> </g> <g id="_2217050628848"> <g> <path class="fil14" d="M166.15 372.81c0.74,0.45 1.39,-0.56 1.5,0.03 0.12,0.69 0.2,2.17 0.18,2.53 -0.08,1.32 -1.38,2.68 -3.76,3.64 -4.04,1.64 -9.66,1.53 -12.56,-0.25 -1.01,-0.62 -1.55,-1.36 -1.66,-2.13 -0.03,-0.24 -0.24,-2.25 -0.19,-2.49 0.24,-1.22 1.73,-0.68 3.93,-1.58 4.04,-1.64 9.66,-1.53 12.56,0.25z"></path> </g> <path class="fil15" d="M161.36 371.46l0.7 8.2c0.7,-0.17 1.37,-0.39 2.01,-0.65 0.84,-0.34 1.54,-0.73 2.11,-1.15l-0.45 -5.28c-1.18,-0.61 -2.71,-0.98 -4.37,-1.12z"></path> <path class="fil15" d="M156.09 371.81c-0.87,0.19 -1.71,0.44 -2.5,0.76 -0.62,0.25 -1.18,0.39 -1.67,0.48l0.53 6.19c1.22,0.52 2.74,0.82 4.35,0.91l-0.71 -8.34z"></path> <path class="fil16" d="M156.09 371.81l0.71 8.34c1.72,0.09 3.56,-0.07 5.26,-0.49l-0.7 -8.2c-1.7,-0.14 -3.54,-0.02 -5.27,0.35z"></path> <g> <path class="fil17" d="M165.98 370.77c2.89,1.78 1.96,4.56 -2.08,6.2 -4.04,1.64 -9.66,1.53 -12.56,-0.25 -2.89,-1.78 -1.96,-4.55 2.08,-6.2 4.04,-1.64 9.66,-1.53 12.56,0.25z"></path> </g> <g> <path class="fil18" d="M164.81 372.14c0.9,1.49 -1.22,3.19 -4.74,3.78 -3.52,0.59 -7.11,-0.14 -8.01,-1.63 -0.9,-1.49 1.22,-3.19 4.74,-3.78 3.52,-0.59 7.11,0.14 8.01,1.63z"></path> </g> <g> <path class="fil19" d="M164.74 372.34c0.86,1.42 -1.16,3.04 -4.52,3.6 -3.35,0.56 -6.77,-0.13 -7.63,-1.56 -0.86,-1.42 1.16,-3.04 4.52,-3.6 3.36,-0.56 6.77,0.13 7.63,1.56z"></path> </g> <g> <path class="fil20" d="M161.28 369.69c-0.01,-0.1 -0.03,-0.2 -0.05,-0.3 -2.57,-0.21 -5.46,0.15 -7.81,1.1 -2.42,0.98 -3.72,2.37 -3.76,3.71 1.28,0.42 2.84,0.6 4.49,0.46 4.14,-0.35 7.33,-2.58 7.12,-4.97z"></path> </g> <g> <polygon class="fil21" points="152.59,374.7 163.54,374.82 164.05,374.41 167.41,374.49 167.71,373.25 164.92,373.22 164.71,373.77 152.4,373.73 "></polygon> </g> <path class="fil22" d="M157.42 376.13c0,0 5.03,-0.17 7.29,-2.36 0,0 -2,3.05 -7.29,2.36z"></path> <path class="fil22" d="M149.68 374.73c0,0 0.07,4.09 9.9,3.29 0,0 -8.6,0.35 -9.9,-3.29z"></path> </g> <g id="_2217050598848"> <g> <path class="fil14" d="M307.79 262.19c0.26,0.82 1.42,0.48 1.11,1 -0.36,0.6 -1.26,1.78 -1.51,2.03 -0.92,0.95 -2.79,1.13 -5.23,0.31 -4.14,-1.39 -8.33,-5.13 -9.37,-8.37 -0.36,-1.13 -0.29,-2.04 0.13,-2.7 0.13,-0.2 1.29,-1.86 1.48,-2.01 0.98,-0.77 1.75,0.61 4.01,1.36 4.14,1.39 8.33,5.13 9.37,8.37z"></path> </g> <path class="fil15" d="M305.04 258.05l-4.81 6.67c0.64,0.32 1.29,0.6 1.95,0.82 0.86,0.29 1.65,0.45 2.35,0.5l3.1 -4.3c-0.5,-1.23 -1.41,-2.51 -2.59,-3.69z"></path> <path class="fil15" d="M300.81 254.88c-0.78,-0.42 -1.59,-0.78 -2.39,-1.05 -0.63,-0.21 -1.15,-0.47 -1.58,-0.72l-3.64 5.04c0.59,1.19 1.54,2.41 2.71,3.52l4.9 -6.79z"></path> <path class="fil16" d="M300.81 254.88l-4.9 6.79c1.25,1.19 2.75,2.26 4.31,3.05l4.81 -6.67c-1.2,-1.21 -2.67,-2.32 -4.23,-3.17z"></path> <g> <path class="fil17" d="M308.98 260.54c1.03,3.23 -1.48,4.73 -5.62,3.35 -4.14,-1.39 -8.33,-5.13 -9.37,-8.37 -1.03,-3.23 1.48,-4.73 5.62,-3.35 4.14,1.39 8.33,5.13 9.37,8.37z"></path> </g> <g> <path class="fil18" d="M307.21 260.81c-0.29,1.72 -3,1.62 -6.06,-0.22 -3.06,-1.85 -5.3,-4.74 -5.01,-6.46 0.29,-1.72 3,-1.62 6.06,0.22 3.06,1.85 5.3,4.74 5.01,6.46z"></path> </g> <g> <path class="fil19" d="M307.03 260.92c-0.28,1.64 -2.86,1.54 -5.77,-0.21 -2.91,-1.76 -5.05,-4.51 -4.77,-6.15 0.28,-1.64 2.86,-1.54 5.77,0.21 2.91,1.76 5.05,4.51 4.77,6.15z"></path> </g> <g> <path class="fil20" d="M306.12 256.66c0.06,-0.08 0.11,-0.17 0.16,-0.26 -1.81,-1.84 -4.24,-3.45 -6.64,-4.25 -2.47,-0.83 -4.37,-0.63 -5.27,0.36 0.7,1.16 1.76,2.31 3.11,3.28 3.37,2.43 7.24,2.82 8.64,0.87z"></path> </g> <g> <polygon class="fil21" points="296.27,254.8 304.5,262.02 305.15,262.03 307.65,264.29 308.68,263.55 306.59,261.7 306.07,261.98 296.76,253.93 "></polygon> </g> <path class="fil22" d="M299 259.02c0,0 3.93,3.15 7.07,2.96 0,0 -3.5,1.01 -7.07,-2.96z"></path> <path class="fil22" d="M294.04 252.92c0,0 -2.61,3.15 5.36,8.95 0,0 -6.75,-5.33 -5.36,-8.95z"></path> </g> <g id="_2217050618384"> <g> <path class="fil14" d="M147.66 198.76c0.77,0.4 1.35,-0.67 1.49,-0.08 0.17,0.68 0.37,2.15 0.37,2.5 0.02,1.32 -1.18,2.77 -3.47,3.92 -3.91,1.95 -9.52,2.26 -12.54,0.71 -1.05,-0.54 -1.65,-1.24 -1.82,-2 -0.05,-0.23 -0.4,-2.23 -0.38,-2.47 0.15,-1.24 1.67,-0.81 3.8,-1.87 3.91,-1.95 9.52,-2.26 12.54,-0.71z"></path> </g> <path class="fil15" d="M142.78 197.78l1.32 8.12c0.68,-0.22 1.34,-0.49 1.95,-0.8 0.81,-0.4 1.48,-0.85 2.02,-1.31l-0.85 -5.23c-1.22,-0.52 -2.77,-0.77 -4.44,-0.78z"></path> <path class="fil15" d="M137.55 198.52c-0.85,0.25 -1.67,0.57 -2.43,0.94 -0.6,0.3 -1.14,0.48 -1.63,0.61l1 6.14c1.26,0.43 2.79,0.61 4.41,0.57l-1.34 -8.26z"></path> <path class="fil16" d="M137.55 198.52l1.34 8.26c1.73,-0.04 3.54,-0.34 5.21,-0.89l-1.32 -8.12c-1.71,-0.01 -3.53,0.25 -5.23,0.75z"></path> <g> <path class="fil17" d="M147.33 196.75c3.02,1.56 2.3,4.39 -1.61,6.34 -3.91,1.95 -9.52,2.26 -12.54,0.71 -3.02,-1.56 -2.3,-4.39 1.61,-6.34 3.91,-1.95 9.52,-2.26 12.54,-0.71z"></path> </g> <g> <path class="fil18" d="M146.27 198.2c1.01,1.42 -0.98,3.27 -4.45,4.13 -3.47,0.86 -7.1,0.4 -8.11,-1.02 -1.01,-1.42 0.98,-3.27 4.45,-4.13 3.47,-0.86 7.1,-0.4 8.11,1.02z"></path> </g> <g> <path class="fil19" d="M146.22 198.4c0.96,1.35 -0.93,3.11 -4.23,3.93 -3.3,0.82 -6.76,0.38 -7.73,-0.97 -0.96,-1.35 0.93,-3.12 4.23,-3.93 3.3,-0.82 6.76,-0.38 7.73,0.97z"></path> </g> <g> <path class="fil20" d="M142.56 196.03c-0.02,-0.1 -0.04,-0.2 -0.07,-0.29 -2.58,-0.02 -5.43,0.56 -7.71,1.69 -2.34,1.16 -3.53,2.64 -3.47,3.98 1.31,0.32 2.88,0.38 4.52,0.12 4.1,-0.66 7.11,-3.13 6.73,-5.5z"></path> </g> <g> <polygon class="fil21" points="134.28,201.68 145.21,200.97 145.68,200.51 149.04,200.35 149.25,199.09 146.46,199.26 146.29,199.83 134.01,200.72 "></polygon> </g> <path class="fil22" d="M139.2 202.74c0,0 5,-0.55 7.09,-2.91 0,0 -1.77,3.19 -7.09,2.91z"></path> <path class="fil22" d="M131.38 201.93c0,0 0.38,4.07 10.12,2.54 0,0 -8.55,1 -10.12,-2.54z"></path> </g> <g id="_2217471079024"> <g> <path class="fil14" d="M327.12 118.46c0.77,0.4 1.35,-0.67 1.49,-0.08 0.17,0.68 0.37,2.15 0.37,2.5 0.02,1.32 -1.18,2.77 -3.47,3.92 -3.91,1.95 -9.52,2.26 -12.54,0.71 -1.05,-0.54 -1.65,-1.24 -1.82,-2 -0.05,-0.23 -0.4,-2.23 -0.38,-2.47 0.15,-1.24 1.67,-0.81 3.8,-1.87 3.91,-1.95 9.52,-2.26 12.54,-0.71z"></path> </g> <path class="fil15" d="M322.24 117.47l1.32 8.12c0.68,-0.22 1.34,-0.49 1.95,-0.8 0.81,-0.4 1.48,-0.85 2.02,-1.31l-0.85 -5.23c-1.22,-0.52 -2.77,-0.77 -4.44,-0.78z"></path> <path class="fil15" d="M317.01 118.22c-0.85,0.25 -1.67,0.57 -2.43,0.94 -0.6,0.3 -1.14,0.48 -1.63,0.61l1 6.14c1.26,0.43 2.79,0.61 4.41,0.57l-1.34 -8.26z"></path> <path class="fil16" d="M317.01 118.22l1.34 8.26c1.73,-0.04 3.54,-0.34 5.21,-0.89l-1.32 -8.12c-1.71,-0.01 -3.53,0.25 -5.23,0.75z"></path> <g> <path class="fil17" d="M326.79 116.44c3.02,1.56 2.3,4.39 -1.61,6.34 -3.91,1.95 -9.52,2.26 -12.54,0.71 -3.02,-1.56 -2.3,-4.39 1.61,-6.34 3.91,-1.95 9.52,-2.26 12.54,-0.71z"></path> </g> <g> <path class="fil18" d="M325.73 117.89c1.01,1.42 -0.98,3.27 -4.45,4.13 -3.47,0.86 -7.1,0.4 -8.11,-1.02 -1.01,-1.42 0.98,-3.27 4.45,-4.13 3.47,-0.86 7.1,-0.4 8.11,1.02z"></path> </g> <g> <path class="fil19" d="M325.68 118.1c0.96,1.35 -0.93,3.11 -4.23,3.93 -3.3,0.82 -6.76,0.38 -7.73,-0.97 -0.96,-1.35 0.93,-3.12 4.23,-3.93 3.3,-0.82 6.76,-0.38 7.73,0.97z"></path> </g> <g> <path class="fil20" d="M322.02 115.72c-0.02,-0.1 -0.04,-0.2 -0.07,-0.29 -2.58,-0.02 -5.43,0.56 -7.71,1.69 -2.34,1.16 -3.53,2.64 -3.47,3.98 1.31,0.32 2.88,0.38 4.52,0.12 4.1,-0.66 7.11,-3.13 6.73,-5.5z"></path> </g> <g> <polygon class="fil21" points="313.74,121.37 324.67,120.66 325.14,120.21 328.5,120.04 328.71,118.78 325.93,118.96 325.75,119.52 313.48,120.41 "></polygon> </g> <path class="fil22" d="M318.66 122.43c0,0 5,-0.55 7.09,-2.91 0,0 -1.77,3.19 -7.09,2.91z"></path> <path class="fil22" d="M310.84 121.62c0,0 0.38,4.07 10.12,2.54 0,0 -8.55,1 -10.12,-2.54z"></path> </g> <g id="_2217852563168"> <g> <path class="fil14" d="M221.92 219.24c0.77,0.4 1.35,-0.67 1.49,-0.08 0.17,0.68 0.37,2.15 0.37,2.5 0.02,1.32 -1.18,2.77 -3.47,3.92 -3.91,1.95 -9.52,2.26 -12.54,0.71 -1.05,-0.54 -1.65,-1.24 -1.82,-2 -0.05,-0.23 -0.4,-2.23 -0.38,-2.47 0.15,-1.24 1.67,-0.81 3.8,-1.87 3.91,-1.95 9.52,-2.26 12.54,-0.71z"></path> </g> <path class="fil15" d="M217.04 218.25l1.32 8.12c0.68,-0.22 1.34,-0.49 1.95,-0.8 0.81,-0.4 1.48,-0.85 2.02,-1.31l-0.85 -5.23c-1.22,-0.52 -2.77,-0.77 -4.44,-0.78z"></path> <path class="fil15" d="M211.81 219c-0.85,0.25 -1.67,0.57 -2.43,0.94 -0.6,0.3 -1.14,0.48 -1.63,0.61l1 6.14c1.26,0.43 2.79,0.61 4.41,0.57l-1.34 -8.26z"></path> <path class="fil16" d="M211.81 219l1.34 8.26c1.73,-0.04 3.54,-0.34 5.21,-0.89l-1.32 -8.12c-1.71,-0.01 -3.53,0.25 -5.23,0.75z"></path> <g> <path class="fil17" d="M221.6 217.22c3.02,1.56 2.3,4.39 -1.61,6.34 -3.91,1.95 -9.52,2.26 -12.54,0.71 -3.02,-1.56 -2.3,-4.39 1.61,-6.34 3.91,-1.95 9.52,-2.26 12.54,-0.71z"></path> </g> <g> <path class="fil18" d="M220.53 218.67c1.01,1.42 -0.98,3.27 -4.45,4.13 -3.47,0.86 -7.1,0.4 -8.11,-1.02 -1.01,-1.42 0.98,-3.27 4.45,-4.13 3.47,-0.86 7.1,-0.4 8.11,1.02z"></path> </g> <g> <path class="fil19" d="M220.49 218.88c0.96,1.35 -0.93,3.11 -4.23,3.93 -3.3,0.82 -6.76,0.38 -7.73,-0.97 -0.96,-1.35 0.93,-3.12 4.23,-3.93 3.3,-0.82 6.76,-0.38 7.73,0.97z"></path> </g> <g> <path class="fil20" d="M216.83 216.5c-0.02,-0.1 -0.04,-0.2 -0.07,-0.29 -2.58,-0.02 -5.43,0.56 -7.71,1.69 -2.34,1.16 -3.53,2.64 -3.47,3.98 1.31,0.32 2.88,0.38 4.52,0.12 4.1,-0.66 7.11,-3.13 6.73,-5.5z"></path> </g> <g> <polygon class="fil21" points="208.55,222.15 219.47,221.44 219.94,220.99 223.3,220.82 223.51,219.56 220.73,219.74 220.56,220.3 208.28,221.19 "></polygon> </g> <path class="fil22" d="M213.47 223.21c0,0 5,-0.55 7.09,-2.91 0,0 -1.77,3.19 -7.09,2.91z"></path> <path class="fil22" d="M205.64 222.4c0,0 0.38,4.07 10.12,2.54 0,0 -8.55,1 -10.12,-2.54z"></path> </g> <g id="_2217852511808"> <g> <path class="fil14" d="M170.28 151c0.26,0.82 1.42,0.48 1.11,1 -0.36,0.6 -1.26,1.78 -1.51,2.03 -0.92,0.95 -2.79,1.13 -5.23,0.31 -4.14,-1.39 -8.33,-5.13 -9.37,-8.37 -0.36,-1.13 -0.29,-2.04 0.13,-2.7 0.13,-0.2 1.29,-1.86 1.48,-2.01 0.98,-0.77 1.75,0.61 4.01,1.36 4.14,1.39 8.33,5.13 9.37,8.37z"></path> </g> <path class="fil15" d="M167.52 146.85l-4.81 6.67c0.64,0.32 1.29,0.6 1.95,0.82 0.86,0.29 1.65,0.45 2.35,0.5l3.1 -4.3c-0.5,-1.23 -1.41,-2.51 -2.59,-3.69z"></path> <path class="fil15" d="M163.3 143.68c-0.78,-0.42 -1.59,-0.78 -2.39,-1.05 -0.63,-0.21 -1.15,-0.47 -1.58,-0.72l-3.64 5.04c0.59,1.19 1.54,2.41 2.71,3.52l4.9 -6.79z"></path> <path class="fil16" d="M163.3 143.68l-4.9 6.79c1.25,1.19 2.75,2.26 4.31,3.05l4.81 -6.67c-1.2,-1.21 -2.67,-2.32 -4.23,-3.17z"></path> <g> <path class="fil17" d="M171.47 149.34c1.03,3.23 -1.48,4.73 -5.62,3.35 -4.14,-1.39 -8.33,-5.13 -9.37,-8.37 -1.03,-3.23 1.48,-4.73 5.62,-3.35 4.14,1.39 8.33,5.13 9.37,8.37z"></path> </g> <g> <path class="fil18" d="M169.69 149.62c-0.29,1.72 -3,1.62 -6.06,-0.22 -3.06,-1.85 -5.3,-4.74 -5.01,-6.46 0.29,-1.72 3,-1.62 6.06,0.22 3.06,1.85 5.3,4.74 5.01,6.46z"></path> </g> <g> <path class="fil19" d="M169.51 149.73c-0.28,1.64 -2.86,1.54 -5.77,-0.21 -2.91,-1.76 -5.05,-4.51 -4.77,-6.15 0.28,-1.64 2.86,-1.54 5.77,0.21 2.91,1.76 5.05,4.51 4.77,6.15z"></path> </g> <g> <path class="fil20" d="M168.61 145.46c0.06,-0.08 0.11,-0.17 0.16,-0.26 -1.81,-1.84 -4.24,-3.45 -6.64,-4.25 -2.47,-0.83 -4.37,-0.63 -5.27,0.36 0.7,1.16 1.76,2.31 3.11,3.28 3.37,2.43 7.24,2.82 8.64,0.87z"></path> </g> <g> <polygon class="fil21" points="158.76,143.6 166.99,150.83 167.64,150.84 170.13,153.09 171.17,152.35 169.08,150.51 168.56,150.78 159.25,142.73 "></polygon> </g> <path class="fil22" d="M161.49 147.83c0,0 3.93,3.15 7.07,2.96 0,0 -3.5,1.01 -7.07,-2.96z"></path> <path class="fil22" d="M156.53 141.72c0,0 -2.61,3.15 5.36,8.95 0,0 -6.75,-5.33 -5.36,-8.95z"></path> </g> <g id="_2217852529040"> <g> <path class="fil14" d="M238.8 127.2c0.83,-0.25 0.51,-1.41 1.02,-1.09 0.59,0.37 1.76,1.3 2,1.55 0.93,0.94 1.07,2.81 0.21,5.23 -1.47,4.11 -5.3,8.23 -8.55,9.19 -1.13,0.34 -2.05,0.25 -2.69,-0.18 -0.2,-0.13 -1.84,-1.33 -1.98,-1.52 -0.75,-0.99 0.64,-1.74 1.45,-3.98 1.47,-4.11 5.3,-8.23 8.55,-9.19z"></path> </g> <path class="fil15" d="M234.6 129.87l6.58 4.94c0.34,-0.63 0.63,-1.28 0.86,-1.93 0.31,-0.85 0.48,-1.64 0.55,-2.34l-4.24 -3.19c-1.24,0.47 -2.54,1.36 -3.74,2.51z"></path> <path class="fil15" d="M231.35 134.03c-0.44,0.77 -0.81,1.57 -1.1,2.37 -0.22,0.63 -0.5,1.14 -0.75,1.57l4.97 3.74c1.2,-0.56 2.44,-1.49 3.57,-2.64l-6.69 -5.03z"></path> <path class="fil16" d="M231.35 134.03l6.69 5.03c1.21,-1.23 2.32,-2.7 3.14,-4.25l-6.58 -4.94c-1.24,1.18 -2.38,2.62 -3.25,4.16z"></path> <g> <path class="fil17" d="M237.17 125.97c3.25,-0.97 4.7,1.58 3.23,5.69 -1.47,4.11 -5.3,8.23 -8.55,9.19 -3.25,0.97 -4.7,-1.58 -3.23,-5.68 1.47,-4.11 5.3,-8.23 8.55,-9.19z"></path> </g> <g> <path class="fil18" d="M237.41 127.76c1.71,0.32 1.56,3.04 -0.35,6.06 -1.91,3.02 -4.84,5.21 -6.56,4.88 -1.71,-0.32 -1.56,-3.04 0.35,-6.06 1.91,-3.02 4.84,-5.21 6.56,-4.88z"></path> </g> <g> <path class="fil19" d="M237.51 127.94c1.63,0.31 1.49,2.89 -0.33,5.77 -1.82,2.88 -4.61,4.96 -6.25,4.65 -1.63,-0.31 -1.49,-2.89 0.33,-5.77 1.82,-2.88 4.61,-4.96 6.25,-4.65z"></path> </g> <g> <path class="fil20" d="M233.23 128.76c-0.08,-0.06 -0.17,-0.11 -0.25,-0.17 -1.88,1.77 -3.53,4.17 -4.39,6.56 -0.88,2.46 -0.71,4.35 0.25,5.27 1.17,-0.68 2.34,-1.72 3.34,-3.04 2.5,-3.32 2.96,-7.18 1.05,-8.62z"></path> </g> <g> <polygon class="fil21" points="231.17,138.57 238.56,130.49 238.59,129.84 240.89,127.39 240.17,126.34 238.29,128.39 238.55,128.91 230.32,138.06 "></polygon> </g> <path class="fil22" d="M235.45 135.92c0,0 3.22,-3.86 3.1,-7.01 0,0 0.94,3.52 -3.1,7.01z"></path> <path class="fil22" d="M229.25 140.76c0,0 3.09,2.67 9.06,-5.18 0,0 -5.47,6.64 -9.06,5.18z"></path> </g> <g id="_2217400079904"> <g> <path class="fil14" d="M98.4 123.93c0.83,-0.25 0.51,-1.41 1.02,-1.09 0.59,0.37 1.76,1.3 2,1.55 0.93,0.94 1.07,2.81 0.21,5.23 -1.47,4.11 -5.3,8.23 -8.55,9.19 -1.13,0.34 -2.05,0.25 -2.69,-0.18 -0.2,-0.13 -1.84,-1.33 -1.98,-1.52 -0.75,-0.99 0.64,-1.74 1.45,-3.98 1.47,-4.11 5.3,-8.23 8.55,-9.19z"></path> </g> <path class="fil15" d="M94.2 126.6l6.58 4.94c0.34,-0.63 0.63,-1.28 0.86,-1.93 0.31,-0.85 0.48,-1.64 0.55,-2.34l-4.24 -3.19c-1.24,0.47 -2.54,1.36 -3.74,2.51z"></path> <path class="fil15" d="M90.95 130.76c-0.44,0.77 -0.81,1.57 -1.1,2.37 -0.22,0.63 -0.5,1.14 -0.75,1.57l4.97 3.74c1.2,-0.56 2.44,-1.49 3.57,-2.64l-6.69 -5.03z"></path> <path class="fil16" d="M90.95 130.76l6.69 5.03c1.21,-1.23 2.32,-2.7 3.14,-4.25l-6.58 -4.94c-1.24,1.18 -2.38,2.62 -3.25,4.16z"></path> <g> <path class="fil17" d="M96.77 122.7c3.25,-0.97 4.7,1.58 3.23,5.69 -1.47,4.11 -5.3,8.23 -8.55,9.19 -3.25,0.97 -4.7,-1.58 -3.23,-5.68 1.47,-4.11 5.3,-8.23 8.55,-9.19z"></path> </g> <g> <path class="fil18" d="M97.01 124.48c1.71,0.32 1.56,3.04 -0.35,6.06 -1.91,3.02 -4.84,5.21 -6.56,4.88 -1.71,-0.32 -1.56,-3.04 0.35,-6.06 1.91,-3.02 4.84,-5.21 6.56,-4.88z"></path> </g> <g> <path class="fil19" d="M97.12 124.67c1.63,0.31 1.49,2.89 -0.33,5.77 -1.82,2.88 -4.61,4.96 -6.25,4.65 -1.63,-0.31 -1.49,-2.89 0.33,-5.77 1.82,-2.88 4.61,-4.96 6.25,-4.65z"></path> </g> <g> <path class="fil20" d="M92.83 125.49c-0.08,-0.06 -0.17,-0.11 -0.25,-0.17 -1.88,1.77 -3.53,4.17 -4.39,6.56 -0.88,2.46 -0.71,4.35 0.25,5.27 1.17,-0.68 2.34,-1.72 3.34,-3.04 2.5,-3.32 2.96,-7.18 1.05,-8.62z"></path> </g> <g> <polygon class="fil21" points="90.78,135.3 98.16,127.22 98.19,126.56 100.49,124.12 99.77,123.06 97.89,125.12 98.15,125.64 89.92,134.79 "></polygon> </g> <path class="fil22" d="M95.06 132.65c0,0 3.22,-3.86 3.1,-7.01 0,0 0.94,3.52 -3.1,7.01z"></path> <path class="fil22" d="M88.85 137.49c0,0 3.09,2.67 9.06,-5.18 0,0 -5.47,6.64 -9.06,5.18z"></path> </g> <g id="_2217615924640"> <g> <path class="fil14" d="M174.41 250.61c0.83,-0.25 0.51,-1.41 1.02,-1.09 0.59,0.37 1.76,1.3 2,1.55 0.93,0.94 1.07,2.81 0.21,5.23 -1.47,4.11 -5.3,8.23 -8.55,9.19 -1.13,0.34 -2.05,0.25 -2.69,-0.18 -0.2,-0.13 -1.84,-1.33 -1.98,-1.52 -0.75,-0.99 0.64,-1.74 1.45,-3.98 1.47,-4.11 5.3,-8.23 8.55,-9.19z"></path> </g> <path class="fil15" d="M170.21 253.28l6.58 4.94c0.34,-0.63 0.63,-1.28 0.86,-1.93 0.31,-0.85 0.48,-1.64 0.55,-2.34l-4.24 -3.19c-1.24,0.47 -2.54,1.36 -3.74,2.51z"></path> <path class="fil15" d="M166.95 257.44c-0.44,0.77 -0.81,1.57 -1.1,2.37 -0.22,0.63 -0.5,1.14 -0.75,1.57l4.97 3.74c1.2,-0.56 2.44,-1.49 3.57,-2.64l-6.69 -5.03z"></path> <path class="fil16" d="M166.95 257.44l6.69 5.03c1.21,-1.23 2.32,-2.7 3.14,-4.25l-6.58 -4.94c-1.24,1.18 -2.38,2.62 -3.25,4.16z"></path> <g> <path class="fil17" d="M172.78 249.38c3.25,-0.97 4.7,1.58 3.23,5.69 -1.47,4.11 -5.3,8.23 -8.55,9.19 -3.25,0.97 -4.7,-1.58 -3.23,-5.68 1.47,-4.11 5.3,-8.23 8.55,-9.19z"></path> </g> <g> <path class="fil18" d="M173.02 251.16c1.71,0.32 1.56,3.04 -0.35,6.06 -1.91,3.02 -4.84,5.21 -6.56,4.88 -1.71,-0.32 -1.56,-3.04 0.35,-6.06 1.91,-3.02 4.84,-5.21 6.56,-4.88z"></path> </g> <g> <path class="fil19" d="M173.12 251.35c1.63,0.31 1.49,2.89 -0.33,5.77 -1.82,2.88 -4.61,4.96 -6.25,4.65 -1.63,-0.31 -1.49,-2.89 0.33,-5.77 1.82,-2.88 4.61,-4.96 6.25,-4.65z"></path> </g> <g> <path class="fil20" d="M168.84 252.17c-0.08,-0.06 -0.17,-0.11 -0.25,-0.17 -1.88,1.77 -3.53,4.17 -4.39,6.56 -0.88,2.46 -0.71,4.35 0.25,5.27 1.17,-0.68 2.34,-1.72 3.34,-3.04 2.5,-3.32 2.96,-7.18 1.05,-8.62z"></path> </g> <g> <polygon class="fil21" points="166.78,261.98 174.17,253.9 174.2,253.24 176.5,250.8 175.78,249.74 173.9,251.8 174.16,252.32 165.93,261.47 "></polygon> </g> <path class="fil22" d="M171.06 259.33c0,0 3.22,-3.86 3.1,-7.01 0,0 0.94,3.52 -3.1,7.01z"></path> <path class="fil22" d="M164.86 264.17c0,0 3.09,2.67 9.06,-5.18 0,0 -5.47,6.64 -9.06,5.18z"></path> </g> <g id="_2217468561952"> <g> <path class="fil14" d="M198.05 72.41c0.85,0.14 1.07,-1.05 1.39,-0.54 0.37,0.59 1.02,1.93 1.13,2.27 0.43,1.25 -0.26,3 -2.09,4.8 -3.11,3.06 -8.35,5.1 -11.7,4.56 -1.17,-0.19 -1.95,-0.67 -2.35,-1.34 -0.12,-0.21 -1.08,-1.99 -1.12,-2.23 -0.24,-1.22 1.34,-1.29 3.03,-2.96 3.11,-3.06 8.35,-5.1 11.7,-4.56z"></path> </g> <path class="fil15" d="M193.11 72.99l3.77 7.31c0.58,-0.42 1.12,-0.88 1.61,-1.36 0.65,-0.64 1.15,-1.27 1.51,-1.87l-2.43 -4.71c-1.32,-0.11 -2.88,0.12 -4.46,0.63z"></path> <path class="fil15" d="M188.37 75.32c-0.73,0.5 -1.42,1.06 -2.02,1.65 -0.47,0.47 -0.94,0.81 -1.36,1.08l2.85 5.53c1.33,0.02 2.84,-0.28 4.37,-0.82l-3.84 -7.44z"></path> <path class="fil16" d="M188.37 75.32l3.84 7.44c1.63,-0.57 3.26,-1.42 4.67,-2.46l-3.77 -7.31c-1.63,0.52 -3.28,1.33 -4.74,2.33z"></path> <g> <path class="fil17" d="M197.12 70.6c3.35,0.54 3.55,3.46 0.44,6.52 -3.11,3.06 -8.35,5.1 -11.7,4.56 -3.35,-0.54 -3.55,-3.46 -0.44,-6.52 3.11,-3.06 8.35,-5.1 11.7,-4.56z"></path> </g> <g> <path class="fil18" d="M196.56 72.31c1.4,1.04 0.08,3.41 -2.95,5.3 -3.03,1.89 -6.62,2.58 -8.03,1.54 -1.4,-1.04 -0.08,-3.41 2.95,-5.3 3.03,-1.89 6.62,-2.58 8.03,-1.54z"></path> </g> <g> <path class="fil19" d="M196.57 72.52c1.34,0.99 0.08,3.25 -2.81,5.05 -2.89,1.8 -6.31,2.46 -7.65,1.47 -1.34,-0.99 -0.08,-3.25 2.81,-5.05 2.89,-1.8 6.31,-2.46 7.65,-1.47z"></path> </g> <g> <path class="fil20" d="M192.36 71.39c-0.05,-0.09 -0.1,-0.18 -0.16,-0.26 -2.46,0.78 -4.99,2.22 -6.8,4 -1.86,1.83 -2.54,3.61 -2.07,4.86 1.35,-0.1 2.85,-0.53 4.33,-1.29 3.69,-1.9 5.79,-5.18 4.69,-7.31z"></path> </g> <g> <polygon class="fil21" points="186.24,79.33 196.41,75.27 196.71,74.69 199.85,73.49 199.66,72.23 197.07,73.26 197.08,73.85 185.69,78.5 "></polygon> </g> <path class="fil22" d="M191.24 78.81c0,0 4.58,-2.08 5.84,-4.96 0,0 -0.69,3.58 -5.84,4.96z"></path> <path class="fil22" d="M183.55 80.47c0,0 1.62,3.75 10.41,-0.73 0,0 -7.81,3.6 -10.41,0.73z"></path> </g> <g id="_2217400095792"> <g> <path class="fil14" d="M297.28 182.94c0.85,0.14 1.07,-1.05 1.39,-0.54 0.37,0.59 1.02,1.93 1.13,2.27 0.43,1.25 -0.26,3 -2.09,4.8 -3.11,3.06 -8.35,5.1 -11.7,4.56 -1.17,-0.19 -1.95,-0.67 -2.35,-1.34 -0.12,-0.21 -1.08,-1.99 -1.12,-2.23 -0.24,-1.22 1.34,-1.29 3.03,-2.96 3.11,-3.06 8.35,-5.1 11.7,-4.56z"></path> </g> <path class="fil15" d="M292.34 183.51l3.77 7.31c0.58,-0.42 1.12,-0.88 1.61,-1.36 0.65,-0.64 1.15,-1.27 1.51,-1.87l-2.43 -4.71c-1.32,-0.11 -2.88,0.12 -4.46,0.63z"></path> <path class="fil15" d="M287.6 185.85c-0.73,0.5 -1.42,1.06 -2.02,1.65 -0.47,0.47 -0.94,0.81 -1.36,1.08l2.85 5.53c1.33,0.02 2.84,-0.28 4.37,-0.82l-3.84 -7.44z"></path> <path class="fil16" d="M287.6 185.85l3.84 7.44c1.63,-0.57 3.26,-1.42 4.67,-2.46l-3.77 -7.31c-1.63,0.52 -3.28,1.33 -4.74,2.33z"></path> <g> <path class="fil17" d="M296.35 181.12c3.35,0.54 3.55,3.46 0.44,6.52 -3.11,3.06 -8.35,5.1 -11.7,4.56 -3.35,-0.54 -3.55,-3.46 -0.44,-6.52 3.11,-3.06 8.35,-5.1 11.7,-4.56z"></path> </g> <g> <path class="fil18" d="M295.79 182.83c1.4,1.04 0.08,3.41 -2.95,5.3 -3.03,1.89 -6.62,2.58 -8.03,1.54 -1.4,-1.04 -0.08,-3.41 2.95,-5.3 3.03,-1.89 6.62,-2.58 8.03,-1.54z"></path> </g> <g> <path class="fil19" d="M295.8 183.04c1.34,0.99 0.08,3.25 -2.81,5.05 -2.89,1.8 -6.31,2.46 -7.65,1.47 -1.34,-0.99 -0.08,-3.25 2.81,-5.05 2.89,-1.8 6.31,-2.46 7.65,-1.47z"></path> </g> <g> <path class="fil20" d="M291.59 181.92c-0.05,-0.09 -0.1,-0.18 -0.16,-0.26 -2.46,0.78 -4.99,2.22 -6.8,4 -1.86,1.83 -2.54,3.61 -2.07,4.86 1.35,-0.1 2.85,-0.53 4.33,-1.29 3.69,-1.9 5.79,-5.18 4.69,-7.31z"></path> </g> <g> <polygon class="fil21" points="285.47,189.86 295.64,185.79 295.94,185.22 299.08,184.02 298.89,182.76 296.3,183.78 296.31,184.37 284.92,189.03 "></polygon> </g> <path class="fil22" d="M290.47 189.34c0,0 4.58,-2.08 5.84,-4.96 0,0 -0.69,3.58 -5.84,4.96z"></path> <path class="fil22" d="M282.78 190.99c0,0 1.62,3.75 10.41,-0.73 0,0 -7.81,3.6 -10.41,0.73z"></path> </g> <g id="_2217287921888"> <g> <path class="fil14" d="M303.47 65.83c0.85,0.14 1.07,-1.05 1.39,-0.54 0.37,0.59 1.02,1.93 1.13,2.27 0.43,1.25 -0.26,3 -2.09,4.8 -3.11,3.06 -8.35,5.1 -11.7,4.56 -1.17,-0.19 -1.95,-0.67 -2.35,-1.34 -0.12,-0.21 -1.08,-1.99 -1.12,-2.23 -0.24,-1.22 1.34,-1.29 3.03,-2.96 3.11,-3.06 8.35,-5.1 11.7,-4.56z"></path> </g> <path class="fil15" d="M298.53 66.41l3.77 7.31c0.58,-0.42 1.12,-0.88 1.61,-1.36 0.65,-0.64 1.15,-1.27 1.51,-1.87l-2.43 -4.71c-1.32,-0.11 -2.88,0.12 -4.46,0.63z"></path> <path class="fil15" d="M293.79 68.74c-0.73,0.5 -1.42,1.06 -2.02,1.65 -0.47,0.47 -0.94,0.81 -1.36,1.08l2.85 5.53c1.33,0.02 2.84,-0.28 4.37,-0.82l-3.84 -7.44z"></path> <path class="fil16" d="M293.79 68.74l3.84 7.44c1.63,-0.57 3.26,-1.42 4.67,-2.46l-3.77 -7.31c-1.63,0.52 -3.28,1.33 -4.74,2.33z"></path> <g> <path class="fil17" d="M302.54 64.02c3.35,0.54 3.55,3.46 0.44,6.52 -3.11,3.06 -8.35,5.1 -11.7,4.56 -3.35,-0.54 -3.55,-3.46 -0.44,-6.52 3.11,-3.06 8.35,-5.1 11.7,-4.56z"></path> </g> <g> <path class="fil18" d="M301.98 65.72c1.4,1.04 0.08,3.41 -2.95,5.3 -3.03,1.89 -6.62,2.58 -8.03,1.54 -1.4,-1.04 -0.08,-3.41 2.95,-5.3 3.03,-1.89 6.62,-2.58 8.03,-1.54z"></path> </g> <g> <path class="fil19" d="M302 65.93c1.34,0.99 0.08,3.25 -2.81,5.05 -2.89,1.8 -6.31,2.46 -7.65,1.47 -1.34,-0.99 -0.08,-3.25 2.81,-5.05 2.89,-1.8 6.31,-2.46 7.65,-1.47z"></path> </g> <g> <path class="fil20" d="M297.78 64.81c-0.05,-0.09 -0.1,-0.18 -0.16,-0.26 -2.46,0.78 -4.99,2.22 -6.8,4 -1.86,1.83 -2.54,3.61 -2.07,4.86 1.35,-0.1 2.85,-0.53 4.33,-1.29 3.69,-1.9 5.79,-5.18 4.69,-7.31z"></path> </g> <g> <polygon class="fil21" points="291.66,72.75 301.83,68.69 302.14,68.11 305.28,66.91 305.09,65.65 302.49,66.68 302.51,67.26 291.11,71.92 "></polygon> </g> <path class="fil22" d="M296.67 72.23c0,0 4.58,-2.08 5.84,-4.96 0,0 -0.69,3.58 -5.84,4.96z"></path> <path class="fil22" d="M288.97 73.88c0,0 1.62,3.75 10.41,-0.73 0,0 -7.81,3.6 -10.41,0.73z"></path> </g> <g id="_2217838166384"> <g> <path class="fil14" d="M136.82 51.32c0.26,0.82 1.42,0.48 1.11,1 -0.36,0.6 -1.26,1.78 -1.51,2.03 -0.92,0.95 -2.79,1.13 -5.23,0.31 -4.14,-1.39 -8.33,-5.13 -9.37,-8.37 -0.36,-1.13 -0.29,-2.04 0.13,-2.7 0.13,-0.2 1.29,-1.86 1.48,-2.01 0.98,-0.77 1.75,0.61 4.01,1.36 4.14,1.39 8.33,5.13 9.37,8.37z"></path> </g> <path class="fil15" d="M134.06 47.17l-4.81 6.67c0.64,0.32 1.29,0.6 1.95,0.82 0.86,0.29 1.65,0.45 2.35,0.5l3.1 -4.3c-0.5,-1.23 -1.41,-2.51 -2.59,-3.69z"></path> <path class="fil15" d="M129.84 44c-0.78,-0.42 -1.59,-0.78 -2.39,-1.05 -0.63,-0.21 -1.15,-0.47 -1.58,-0.72l-3.64 5.04c0.59,1.19 1.54,2.41 2.71,3.52l4.9 -6.79z"></path> <path class="fil16" d="M129.84 44l-4.9 6.79c1.25,1.19 2.75,2.26 4.31,3.05l4.81 -6.67c-1.2,-1.21 -2.67,-2.32 -4.23,-3.17z"></path> <g> <path class="fil17" d="M138.01 49.66c1.03,3.23 -1.48,4.73 -5.62,3.35 -4.14,-1.39 -8.33,-5.13 -9.37,-8.37 -1.03,-3.23 1.48,-4.73 5.62,-3.35 4.14,1.39 8.33,5.13 9.37,8.37z"></path> </g> <g> <path class="fil18" d="M136.24 49.94c-0.29,1.72 -3,1.62 -6.06,-0.22 -3.06,-1.85 -5.3,-4.74 -5.01,-6.46 0.29,-1.72 3,-1.62 6.06,0.22 3.06,1.85 5.3,4.74 5.01,6.46z"></path> </g> <g> <path class="fil19" d="M136.06 50.05c-0.28,1.64 -2.86,1.54 -5.77,-0.21 -2.91,-1.76 -5.05,-4.51 -4.77,-6.15 0.28,-1.64 2.86,-1.54 5.77,0.21 2.91,1.76 5.05,4.51 4.77,6.15z"></path> </g> <g> <path class="fil20" d="M135.15 45.78c0.06,-0.08 0.11,-0.17 0.16,-0.26 -1.81,-1.84 -4.24,-3.45 -6.64,-4.25 -2.47,-0.83 -4.37,-0.63 -5.27,0.36 0.7,1.16 1.76,2.31 3.11,3.28 3.37,2.43 7.24,2.82 8.64,0.87z"></path> </g> <g> <polygon class="fil21" points="125.3,43.92 133.53,51.15 134.18,51.16 136.67,53.42 137.71,52.67 135.62,50.83 135.1,51.11 125.79,43.06 "></polygon> </g> <path class="fil22" d="M128.03 48.15c0,0 3.93,3.15 7.07,2.96 0,0 -3.5,1.01 -7.07,-2.96z"></path> <path class="fil22" d="M123.07 42.04c0,0 -2.61,3.15 5.36,8.95 0,0 -6.75,-5.33 -5.36,-8.95z"></path> </g> <g id="_2217931110128"> <g> <path class="fil14" d="M201.71 165.11c0.54,0.09 0.67,-0.66 0.88,-0.34 0.23,0.37 0.64,1.21 0.71,1.42 0.27,0.78 -0.16,1.88 -1.31,3.02 -1.95,1.92 -5.25,3.2 -7.35,2.86 -0.73,-0.12 -1.23,-0.42 -1.47,-0.84 -0.08,-0.13 -0.68,-1.25 -0.71,-1.4 -0.15,-0.77 0.84,-0.81 1.91,-1.86 1.95,-1.92 5.25,-3.2 7.35,-2.86z"></path> </g> <path class="fil15" d="M198.61 165.47l2.37 4.59c0.36,-0.27 0.7,-0.55 1.01,-0.86 0.41,-0.4 0.72,-0.8 0.95,-1.18l-1.53 -2.96c-0.83,-0.07 -1.81,0.08 -2.8,0.4z"></path> <path class="fil15" d="M195.63 166.93c-0.46,0.32 -0.89,0.66 -1.27,1.04 -0.3,0.29 -0.59,0.51 -0.85,0.68l1.79 3.47c0.83,0.01 1.79,-0.18 2.74,-0.51l-2.41 -4.68z"></path> <path class="fil16" d="M195.63 166.93l2.41 4.68c1.02,-0.36 2.05,-0.89 2.94,-1.55l-2.37 -4.59c-1.02,0.33 -2.06,0.83 -2.98,1.46z"></path> <g> <path class="fil17" d="M201.12 163.97c2.11,0.34 2.23,2.18 0.27,4.1 -1.95,1.92 -5.25,3.2 -7.35,2.86 -2.11,-0.34 -2.23,-2.18 -0.27,-4.1 1.95,-1.92 5.25,-3.2 7.35,-2.86z"></path> </g> <g> <path class="fil18" d="M200.77 165.04c0.88,0.65 0.05,2.14 -1.85,3.33 -1.9,1.19 -4.16,1.62 -5.04,0.97 -0.88,-0.65 -0.05,-2.14 1.85,-3.33 1.9,-1.19 4.16,-1.62 5.04,-0.97z"></path> </g> <g> <path class="fil19" d="M200.78 165.17c0.84,0.62 0.05,2.04 -1.76,3.17 -1.81,1.13 -3.96,1.54 -4.8,0.92 -0.84,-0.62 -0.05,-2.04 1.76,-3.17 1.81,-1.13 3.96,-1.54 4.8,-0.92z"></path> </g> <g> <path class="fil20" d="M198.14 164.47c-0.03,-0.06 -0.06,-0.11 -0.1,-0.16 -1.55,0.49 -3.14,1.39 -4.27,2.51 -1.17,1.15 -1.59,2.27 -1.3,3.05 0.85,-0.06 1.79,-0.33 2.72,-0.81 2.32,-1.2 3.64,-3.25 2.95,-4.59z"></path> </g> <g> <polygon class="fil21" points="194.29,169.45 200.68,166.9 200.87,166.54 202.84,165.79 202.72,164.99 201.1,165.64 201.1,166.01 193.95,168.93 "></polygon> </g> <path class="fil22" d="M197.44 169.13c0,0 2.88,-1.3 3.67,-3.12 0,0 -0.43,2.25 -3.67,3.12z"></path> <path class="fil22" d="M192.6 170.17c0,0 1.02,2.36 6.54,-0.46 0,0 -4.91,2.26 -6.54,0.46z"></path> </g> <g id="_2217931124336"> <g> <path class="fil14" d="M253.13 207.87c0.16,0.49 0.84,0.28 0.66,0.59 -0.21,0.35 -0.74,1.05 -0.89,1.2 -0.54,0.56 -1.65,0.67 -3.08,0.18 -2.44,-0.82 -4.91,-3.03 -5.52,-4.93 -0.21,-0.66 -0.17,-1.2 0.08,-1.59 0.08,-0.12 0.76,-1.1 0.87,-1.19 0.58,-0.46 1.03,0.36 2.36,0.8 2.44,0.82 4.91,3.03 5.52,4.93z"></path> </g> <path class="fil15" d="M251.5 205.42l-2.84 3.93c0.38,0.19 0.76,0.35 1.15,0.48 0.51,0.17 0.97,0.27 1.39,0.29l1.83 -2.53c-0.29,-0.72 -0.83,-1.48 -1.52,-2.18z"></path> <path class="fil15" d="M249.01 203.56c-0.46,-0.25 -0.93,-0.46 -1.41,-0.62 -0.37,-0.12 -0.68,-0.28 -0.93,-0.42l-2.14 2.97c0.35,0.7 0.91,1.42 1.6,2.07l2.89 -4z"></path> <path class="fil16" d="M249.01 203.56l-2.89 4c0.74,0.7 1.62,1.33 2.54,1.8l2.84 -3.93c-0.71,-0.72 -1.57,-1.37 -2.49,-1.87z"></path> <g> <path class="fil17" d="M253.83 206.89c0.61,1.91 -0.87,2.79 -3.31,1.97 -2.44,-0.82 -4.91,-3.03 -5.52,-4.93 -0.61,-1.91 0.87,-2.79 3.31,-1.97 2.44,0.82 4.91,3.03 5.52,4.93z"></path> </g> <g> <path class="fil18" d="M252.78 207.05c-0.17,1.01 -1.77,0.96 -3.57,-0.13 -1.8,-1.09 -3.12,-2.79 -2.95,-3.81 0.17,-1.01 1.77,-0.96 3.57,0.13 1.8,1.09 3.12,2.79 2.95,3.81z"></path> </g> <g> <path class="fil19" d="M252.68 207.12c-0.16,0.97 -1.69,0.91 -3.4,-0.13 -1.72,-1.04 -2.98,-2.66 -2.81,-3.62 0.16,-0.97 1.69,-0.91 3.4,0.13 1.72,1.04 2.98,2.66 2.81,3.62z"></path> </g> <g> <path class="fil20" d="M252.14 204.6c0.03,-0.05 0.07,-0.1 0.09,-0.15 -1.07,-1.08 -2.5,-2.03 -3.92,-2.51 -1.46,-0.49 -2.57,-0.37 -3.1,0.21 0.41,0.68 1.04,1.36 1.83,1.93 1.99,1.43 4.27,1.66 5.09,0.51z"></path> </g> <g> <polygon class="fil21" points="246.34,203.51 251.19,207.77 251.57,207.77 253.04,209.1 253.65,208.66 252.42,207.58 252.12,207.74 246.63,203 "></polygon> </g> <path class="fil22" d="M247.95 206c0,0 2.31,1.85 4.17,1.74 0,0 -2.06,0.59 -4.17,-1.74z"></path> <path class="fil22" d="M245.02 202.4c0,0 -1.54,1.86 3.16,5.27 0,0 -3.98,-3.14 -3.16,-5.27z"></path> </g> <g id="_2217931140992"> <g> <path class="fil14" d="M156.97 96.98c0.43,0.22 0.75,-0.37 0.83,-0.05 0.09,0.38 0.2,1.19 0.21,1.39 0.01,0.73 -0.65,1.54 -1.92,2.17 -2.16,1.08 -5.28,1.25 -6.95,0.39 -0.58,-0.3 -0.91,-0.69 -1.01,-1.11 -0.03,-0.13 -0.22,-1.23 -0.21,-1.37 0.08,-0.69 0.93,-0.45 2.11,-1.04 2.16,-1.08 5.28,-1.25 6.95,-0.39z"></path> </g> <path class="fil15" d="M154.27 96.43l0.73 4.5c0.38,-0.12 0.74,-0.27 1.08,-0.44 0.45,-0.22 0.82,-0.47 1.12,-0.73l-0.47 -2.9c-0.68,-0.29 -1.54,-0.43 -2.46,-0.43z"></path> <path class="fil15" d="M151.37 96.85c-0.47,0.14 -0.93,0.31 -1.35,0.52 -0.33,0.16 -0.63,0.26 -0.9,0.34l0.55 3.4c0.7,0.24 1.55,0.34 2.44,0.32l-0.74 -4.58z"></path> <path class="fil16" d="M151.37 96.85l0.74 4.58c0.96,-0.02 1.96,-0.19 2.88,-0.49l-0.73 -4.5c-0.95,-0 -1.96,0.14 -2.9,0.41z"></path> <g> <path class="fil17" d="M156.79 95.86c1.67,0.86 1.27,2.43 -0.89,3.51 -2.16,1.08 -5.28,1.25 -6.95,0.39 -1.67,-0.86 -1.27,-2.43 0.89,-3.51 2.16,-1.08 5.28,-1.25 6.95,-0.39z"></path> </g> <g> <path class="fil18" d="M156.2 96.67c0.56,0.79 -0.54,1.81 -2.46,2.29 -1.92,0.48 -3.93,0.22 -4.49,-0.57 -0.56,-0.79 0.54,-1.81 2.46,-2.29 1.92,-0.48 3.93,-0.22 4.49,0.57z"></path> </g> <g> <path class="fil19" d="M156.17 96.78c0.53,0.75 -0.52,1.73 -2.35,2.18 -1.83,0.45 -3.75,0.21 -4.28,-0.54 -0.53,-0.75 0.52,-1.73 2.35,-2.18 1.83,-0.45 3.75,-0.21 4.28,0.54z"></path> </g> <g> <path class="fil20" d="M154.14 95.46c-0.01,-0.06 -0.02,-0.11 -0.04,-0.16 -1.43,-0.01 -3.01,0.31 -4.27,0.94 -1.29,0.64 -1.96,1.47 -1.92,2.21 0.73,0.18 1.59,0.21 2.5,0.07 2.27,-0.37 3.94,-1.73 3.73,-3.05z"></path> </g> <g> <polygon class="fil21" points="149.56,98.59 155.61,98.2 155.87,97.95 157.73,97.86 157.85,97.16 156.31,97.26 156.21,97.57 149.41,98.06 "></polygon> </g> <path class="fil22" d="M152.28 99.18c0,0 2.77,-0.31 3.93,-1.61 0,0 -0.98,1.77 -3.93,1.61z"></path> <path class="fil22" d="M147.95 98.73c0,0 0.21,2.26 5.61,1.41 0,0 -4.74,0.56 -5.61,-1.41z"></path> </g> <g id="_2217980580496"> <g> <path class="fil14" d="M232.84 56.32c0.43,0.22 0.75,-0.37 0.83,-0.05 0.09,0.38 0.2,1.19 0.21,1.39 0.01,0.73 -0.65,1.54 -1.92,2.17 -2.16,1.08 -5.28,1.25 -6.95,0.39 -0.58,-0.3 -0.91,-0.69 -1.01,-1.11 -0.03,-0.13 -0.22,-1.23 -0.21,-1.37 0.08,-0.69 0.93,-0.45 2.11,-1.04 2.16,-1.08 5.28,-1.25 6.95,-0.39z"></path> </g> <path class="fil15" d="M230.14 55.77l0.73 4.5c0.38,-0.12 0.74,-0.27 1.08,-0.44 0.45,-0.22 0.82,-0.47 1.12,-0.73l-0.47 -2.9c-0.68,-0.29 -1.54,-0.43 -2.46,-0.43z"></path> <path class="fil15" d="M227.24 56.18c-0.47,0.14 -0.93,0.31 -1.35,0.52 -0.33,0.16 -0.63,0.26 -0.9,0.34l0.55 3.4c0.7,0.24 1.55,0.34 2.44,0.32l-0.74 -4.58z"></path> <path class="fil16" d="M227.24 56.18l0.74 4.58c0.96,-0.02 1.96,-0.19 2.88,-0.49l-0.73 -4.5c-0.95,-0 -1.96,0.14 -2.9,0.41z"></path> <g> <path class="fil17" d="M232.66 55.2c1.67,0.86 1.27,2.43 -0.89,3.51 -2.16,1.08 -5.28,1.25 -6.95,0.39 -1.67,-0.86 -1.27,-2.43 0.89,-3.51 2.16,-1.08 5.28,-1.25 6.95,-0.39z"></path> </g> <g> <path class="fil18" d="M232.07 56c0.56,0.79 -0.54,1.81 -2.46,2.29 -1.92,0.48 -3.93,0.22 -4.49,-0.57 -0.56,-0.79 0.54,-1.81 2.46,-2.29 1.92,-0.48 3.93,-0.22 4.49,0.57z"></path> </g> <g> <path class="fil19" d="M232.04 56.12c0.53,0.75 -0.52,1.73 -2.35,2.18 -1.83,0.45 -3.75,0.21 -4.28,-0.54 -0.53,-0.75 0.52,-1.73 2.35,-2.18 1.83,-0.45 3.75,-0.21 4.28,0.54z"></path> </g> <g> <path class="fil20" d="M230.02 54.8c-0.01,-0.06 -0.02,-0.11 -0.04,-0.16 -1.43,-0.01 -3.01,0.31 -4.27,0.94 -1.29,0.64 -1.96,1.47 -1.92,2.21 0.73,0.18 1.59,0.21 2.5,0.07 2.27,-0.37 3.94,-1.73 3.73,-3.05z"></path> </g> <g> <polygon class="fil21" points="225.43,57.93 231.48,57.54 231.74,57.29 233.6,57.19 233.72,56.5 232.18,56.59 232.08,56.91 225.28,57.4 "></polygon> </g> <path class="fil22" d="M228.15 58.52c0,0 2.77,-0.31 3.93,-1.61 0,0 -0.98,1.77 -3.93,1.61z"></path> <path class="fil22" d="M223.82 58.07c0,0 0.21,2.26 5.61,1.41 0,0 -4.74,0.56 -5.61,-1.41z"></path> </g> <g id="_2217980592064"> <g> <path class="fil14" d="M100.4 220.62c0.16,0.49 0.84,0.28 0.66,0.59 -0.21,0.35 -0.74,1.05 -0.89,1.2 -0.54,0.56 -1.65,0.67 -3.08,0.18 -2.44,-0.82 -4.91,-3.03 -5.52,-4.93 -0.21,-0.66 -0.17,-1.2 0.08,-1.59 0.08,-0.12 0.76,-1.1 0.87,-1.19 0.58,-0.46 1.03,0.36 2.36,0.8 2.44,0.82 4.91,3.03 5.52,4.93z"></path> </g> <path class="fil15" d="M98.77 218.18l-2.84 3.93c0.38,0.19 0.76,0.35 1.15,0.48 0.51,0.17 0.97,0.27 1.39,0.29l1.83 -2.53c-0.29,-0.72 -0.83,-1.48 -1.52,-2.18z"></path> <path class="fil15" d="M96.28 216.31c-0.46,-0.25 -0.93,-0.46 -1.41,-0.62 -0.37,-0.12 -0.68,-0.28 -0.93,-0.42l-2.14 2.97c0.35,0.7 0.91,1.42 1.6,2.07l2.89 -4z"></path> <path class="fil16" d="M96.28 216.31l-2.89 4c0.74,0.7 1.62,1.33 2.54,1.8l2.84 -3.93c-0.71,-0.72 -1.57,-1.37 -2.49,-1.87z"></path> <g> <path class="fil17" d="M101.1 219.65c0.61,1.91 -0.87,2.79 -3.31,1.97 -2.44,-0.82 -4.91,-3.03 -5.52,-4.93 -0.61,-1.91 0.87,-2.79 3.31,-1.97 2.44,0.82 4.91,3.03 5.52,4.93z"></path> </g> <g> <path class="fil18" d="M100.05 219.81c-0.17,1.01 -1.77,0.96 -3.57,-0.13 -1.8,-1.09 -3.12,-2.79 -2.95,-3.81 0.17,-1.01 1.77,-0.96 3.57,0.13 1.8,1.09 3.12,2.79 2.95,3.81z"></path> </g> <g> <path class="fil19" d="M99.95 219.88c-0.16,0.97 -1.69,0.91 -3.4,-0.13 -1.72,-1.04 -2.98,-2.66 -2.81,-3.62 0.16,-0.97 1.69,-0.91 3.4,0.13 1.72,1.04 2.98,2.66 2.81,3.62z"></path> </g> <g> <path class="fil20" d="M99.41 217.36c0.03,-0.05 0.07,-0.1 0.09,-0.15 -1.07,-1.08 -2.5,-2.03 -3.92,-2.51 -1.46,-0.49 -2.57,-0.37 -3.1,0.21 0.41,0.68 1.04,1.36 1.83,1.93 1.99,1.43 4.27,1.66 5.09,0.51z"></path> </g> <g> <polygon class="fil21" points="93.61,216.27 98.46,220.52 98.84,220.53 100.31,221.86 100.92,221.42 99.69,220.34 99.38,220.5 93.89,215.76 "></polygon> </g> <path class="fil22" d="M95.22 218.76c0,0 2.31,1.85 4.17,1.74 0,0 -2.06,0.59 -4.17,-1.74z"></path> <path class="fil22" d="M92.29 215.16c0,0 -1.54,1.86 3.16,5.27 0,0 -3.98,-3.14 -3.16,-5.27z"></path> </g> <g id="_2217980594128"> <g> <path class="fil14" d="M286.23 103.62c0.54,0.09 0.67,-0.66 0.88,-0.34 0.23,0.37 0.64,1.21 0.71,1.42 0.27,0.78 -0.16,1.88 -1.31,3.02 -1.95,1.92 -5.25,3.2 -7.35,2.86 -0.73,-0.12 -1.23,-0.42 -1.47,-0.84 -0.08,-0.13 -0.68,-1.25 -0.71,-1.4 -0.15,-0.77 0.84,-0.81 1.91,-1.86 1.95,-1.92 5.25,-3.2 7.35,-2.86z"></path> </g> <path class="fil15" d="M283.13 103.98l2.37 4.59c0.36,-0.27 0.7,-0.55 1.01,-0.86 0.41,-0.4 0.72,-0.8 0.95,-1.18l-1.53 -2.96c-0.83,-0.07 -1.81,0.08 -2.8,0.4z"></path> <path class="fil15" d="M280.15 105.45c-0.46,0.32 -0.89,0.66 -1.27,1.04 -0.3,0.29 -0.59,0.51 -0.85,0.68l1.79 3.47c0.83,0.01 1.79,-0.18 2.74,-0.51l-2.41 -4.68z"></path> <path class="fil16" d="M280.15 105.45l2.41 4.68c1.02,-0.36 2.05,-0.89 2.94,-1.55l-2.37 -4.59c-1.02,0.33 -2.06,0.83 -2.98,1.46z"></path> <g> <path class="fil17" d="M285.64 102.48c2.11,0.34 2.23,2.18 0.27,4.1 -1.95,1.92 -5.25,3.2 -7.35,2.86 -2.11,-0.34 -2.23,-2.18 -0.27,-4.1 1.95,-1.92 5.25,-3.2 7.35,-2.86z"></path> </g> <g> <path class="fil18" d="M285.29 103.55c0.88,0.65 0.05,2.14 -1.85,3.33 -1.9,1.19 -4.16,1.62 -5.04,0.97 -0.88,-0.65 -0.05,-2.14 1.85,-3.33 1.9,-1.19 4.16,-1.62 5.04,-0.97z"></path> </g> <g> <path class="fil19" d="M285.3 103.68c0.84,0.62 0.05,2.04 -1.76,3.17 -1.81,1.13 -3.96,1.54 -4.8,0.92 -0.84,-0.62 -0.05,-2.04 1.76,-3.17 1.81,-1.13 3.96,-1.54 4.8,-0.92z"></path> </g> <g> <path class="fil20" d="M282.65 102.98c-0.03,-0.06 -0.06,-0.11 -0.1,-0.16 -1.55,0.49 -3.14,1.39 -4.27,2.51 -1.17,1.15 -1.59,2.27 -1.3,3.05 0.85,-0.06 1.79,-0.33 2.72,-0.81 2.32,-1.2 3.64,-3.25 2.95,-4.59z"></path> </g> <g> <polygon class="fil21" points="278.81,107.97 285.2,105.41 285.39,105.05 287.36,104.3 287.24,103.51 285.62,104.15 285.62,104.52 278.46,107.45 "></polygon> </g> <path class="fil22" d="M281.96 107.64c0,0 2.88,-1.3 3.67,-3.12 0,0 -0.43,2.25 -3.67,3.12z"></path> <path class="fil22" d="M277.12 108.68c0,0 1.02,2.36 6.54,-0.46 0,0 -4.91,2.26 -6.54,0.46z"></path> </g> <g id="_2217980601376"> <g> <path class="fil14" d="M185.83 382.15c0.74,0.45 1.39,-0.56 1.5,0.03 0.12,0.69 0.2,2.17 0.18,2.53 -0.08,1.32 -1.38,2.68 -3.76,3.64 -4.04,1.64 -9.66,1.53 -12.56,-0.25 -1.01,-0.62 -1.55,-1.36 -1.66,-2.13 -0.03,-0.24 -0.24,-2.25 -0.19,-2.49 0.24,-1.22 1.73,-0.68 3.93,-1.58 4.04,-1.64 9.66,-1.53 12.56,0.25z"></path> </g> <path class="fil15" d="M181.04 380.8l0.7 8.2c0.7,-0.17 1.37,-0.39 2.01,-0.65 0.84,-0.34 1.54,-0.73 2.11,-1.15l-0.45 -5.28c-1.18,-0.61 -2.71,-0.98 -4.37,-1.12z"></path> <path class="fil15" d="M175.77 381.15c-0.87,0.19 -1.71,0.44 -2.5,0.76 -0.62,0.25 -1.18,0.39 -1.67,0.48l0.53 6.19c1.22,0.52 2.74,0.82 4.35,0.91l-0.71 -8.34z"></path> <path class="fil16" d="M175.77 381.15l0.71 8.34c1.72,0.09 3.56,-0.07 5.26,-0.49l-0.7 -8.2c-1.7,-0.14 -3.54,-0.02 -5.27,0.35z"></path> <g> <path class="fil17" d="M185.66 380.12c2.89,1.78 1.96,4.56 -2.08,6.2 -4.04,1.64 -9.66,1.53 -12.56,-0.25 -2.89,-1.78 -1.96,-4.55 2.08,-6.2 4.04,-1.64 9.66,-1.53 12.56,0.25z"></path> </g> <g> <path class="fil18" d="M184.49 381.48c0.9,1.49 -1.22,3.19 -4.74,3.78 -3.52,0.59 -7.11,-0.14 -8.01,-1.63 -0.9,-1.49 1.22,-3.19 4.74,-3.78 3.52,-0.59 7.11,0.14 8.01,1.63z"></path> </g> <g> <path class="fil19" d="M184.43 381.68c0.86,1.42 -1.16,3.04 -4.52,3.6 -3.35,0.56 -6.77,-0.13 -7.63,-1.56 -0.86,-1.42 1.16,-3.04 4.52,-3.6 3.36,-0.56 6.77,0.13 7.63,1.56z"></path> </g> <g> <path class="fil20" d="M180.96 379.04c-0.01,-0.1 -0.03,-0.2 -0.05,-0.3 -2.57,-0.21 -5.46,0.15 -7.81,1.1 -2.42,0.98 -3.72,2.37 -3.76,3.71 1.28,0.42 2.84,0.6 4.49,0.46 4.14,-0.35 7.33,-2.58 7.12,-4.97z"></path> </g> <g> <polygon class="fil21" points="172.28,384.05 183.22,384.16 183.73,383.75 187.09,383.83 187.39,382.6 184.6,382.56 184.39,383.11 172.08,383.07 "></polygon> </g> <path class="fil22" d="M177.1 385.47c0,0 5.03,-0.17 7.29,-2.36 0,0 -2,3.05 -7.29,2.36z"></path> <path class="fil22" d="M169.36 384.07c0,0 0.07,4.09 9.9,3.29 0,0 -8.6,0.35 -9.9,-3.29z"></path> </g> <g id="_2217980612080"> <g> <path class="fil14" d="M138.1 331.7c0.54,0.33 1.02,-0.41 1.1,0.02 0.09,0.51 0.15,1.6 0.13,1.86 -0.06,0.97 -1.02,1.97 -2.76,2.68 -2.97,1.21 -7.1,1.13 -9.22,-0.18 -0.74,-0.45 -1.14,-1 -1.22,-1.56 -0.02,-0.17 -0.17,-1.65 -0.14,-1.83 0.18,-0.9 1.27,-0.5 2.89,-1.16 2.97,-1.21 7.1,-1.13 9.22,0.18z"></path> </g> <path class="fil15" d="M134.58 330.71l0.51 6.02c0.51,-0.13 1.01,-0.28 1.48,-0.47 0.62,-0.25 1.13,-0.54 1.55,-0.85l-0.33 -3.88c-0.86,-0.45 -1.99,-0.72 -3.21,-0.82z"></path> <path class="fil15" d="M130.71 330.96c-0.64,0.14 -1.26,0.32 -1.83,0.56 -0.45,0.18 -0.87,0.29 -1.23,0.36l0.39 4.55c0.9,0.38 2.01,0.6 3.19,0.67l-0.52 -6.13z"></path> <path class="fil16" d="M130.71 330.96l0.52 6.13c1.27,0.06 2.61,-0.05 3.86,-0.36l-0.51 -6.02c-1.25,-0.1 -2.6,-0.02 -3.87,0.26z"></path> <g> <path class="fil17" d="M137.97 330.2c2.12,1.31 1.44,3.35 -1.53,4.55 -2.97,1.21 -7.1,1.13 -9.22,-0.18 -2.12,-1.31 -1.44,-3.35 1.53,-4.55 2.97,-1.21 7.1,-1.13 9.22,0.18z"></path> </g> <g> <path class="fil18" d="M137.11 331.21c0.66,1.1 -0.9,2.34 -3.49,2.78 -2.59,0.44 -5.22,-0.1 -5.88,-1.2 -0.66,-1.1 0.9,-2.34 3.49,-2.78 2.59,-0.44 5.22,0.1 5.88,1.2z"></path> </g> <g> <path class="fil19" d="M137.06 331.36c0.63,1.05 -0.86,2.23 -3.32,2.64 -2.46,0.41 -4.97,-0.1 -5.6,-1.14 -0.63,-1.05 0.86,-2.23 3.32,-2.64 2.46,-0.41 4.97,0.1 5.6,1.14z"></path> </g> <g> <path class="fil20" d="M134.51 329.41c-0.01,-0.07 -0.02,-0.15 -0.03,-0.22 -1.89,-0.16 -4.01,0.11 -5.74,0.81 -1.78,0.72 -2.73,1.74 -2.76,2.72 0.94,0.31 2.09,0.44 3.3,0.34 3.04,-0.26 5.38,-1.89 5.23,-3.65z"></path> </g> <g> <polygon class="fil21" points="128.14,333.09 136.18,333.18 136.55,332.87 139.02,332.94 139.24,332.03 137.19,332 137.04,332.4 127.99,332.37 "></polygon> </g> <path class="fil22" d="M131.68 334.14c0,0 3.69,-0.13 5.35,-1.74 0,0 -1.47,2.24 -5.35,1.74z"></path> <path class="fil22" d="M125.99 333.11c0,0 0.05,3 7.27,2.42 0,0 -6.32,0.26 -7.27,-2.42z"></path> </g> </g> </svg> 