<?xml version="1.0" encoding="UTF-8"?> <!-- Creator: CorelDRAW 2020 (64-Bit) --> <svg xmlns="http://www.w3.org/2000/svg" xmlns:xlink="http://www.w3.org/1999/xlink" xmlns:xodm="http://www.corel.com/coreldraw/odm/2003" xml:space="preserve" width="197.555mm" height="81.5801mm" style="shape-rendering:geometricPrecision; text-rendering:geometricPrecision; image-rendering:optimizeQuality; fill-rule:evenodd; clip-rule:evenodd" viewBox="0 0 432.07 178.42"> <defs> <style type="text/css"> <![CDATA[ .str0 {stroke:#4D4D4D;stroke-width:0.77;stroke-miterlimit:22.9256} .fil2 {fill:none} .fil0 {fill:#F0F0F0} .fil1 {fill:#4D4D4D;fill-rule:nonzero} ]]> </style> </defs> <g id="Слой_x0020_1"> <metadata id="CorelCorpID_0Corel-Layer"></metadata> <rect class="fil0" x="-0" y="0" width="432.07" height="178.42" rx="4.95" ry="6.86"></rect> <g id="_2217748506672"> <g> <path class="fil1" d="M149.57 33.59l-1.18 1.27 0 3.14 -2.26 0 0 -10.97 2.26 0 0 4.97 1 -1.36 2.79 -3.61 2.78 0 -3.9 4.88 4.01 6.1 -2.69 0 -2.82 -4.4zm9.77 4.55c-0.63,0 -1.2,-0.1 -1.7,-0.31 -0.5,-0.21 -0.93,-0.49 -1.28,-0.84 -0.35,-0.35 -0.61,-0.77 -0.8,-1.25 -0.18,-0.48 -0.28,-1 -0.28,-1.54l0 -0.29c0,-0.62 0.09,-1.18 0.27,-1.7 0.18,-0.51 0.43,-0.96 0.76,-1.33 0.33,-0.37 0.73,-0.66 1.2,-0.87 0.47,-0.21 1,-0.31 1.58,-0.31 0.59,0 1.11,0.1 1.55,0.29 0.45,0.19 0.82,0.47 1.13,0.82 0.3,0.35 0.53,0.77 0.69,1.26 0.15,0.49 0.23,1.04 0.23,1.64l0 0.93 -5.19 0c0.04,0.27 0.11,0.51 0.22,0.73 0.11,0.22 0.25,0.4 0.41,0.55 0.17,0.15 0.37,0.27 0.59,0.36 0.23,0.08 0.48,0.13 0.76,0.13 0.4,0 0.76,-0.07 1.1,-0.22 0.33,-0.15 0.63,-0.38 0.86,-0.69l1.07 1.2c-0.13,0.19 -0.3,0.37 -0.49,0.54 -0.2,0.18 -0.43,0.33 -0.69,0.47 -0.27,0.14 -0.57,0.25 -0.9,0.33 -0.33,0.08 -0.7,0.13 -1.1,0.13zm-0.25 -6.69c-0.24,0 -0.45,0.04 -0.62,0.12 -0.18,0.09 -0.33,0.2 -0.46,0.35 -0.13,0.15 -0.23,0.33 -0.31,0.53 -0.08,0.21 -0.14,0.43 -0.17,0.68l3.03 0 0 -0.17c-0.01,-0.22 -0.04,-0.42 -0.1,-0.6 -0.06,-0.19 -0.14,-0.34 -0.26,-0.48 -0.12,-0.14 -0.27,-0.24 -0.45,-0.32 -0.18,-0.07 -0.4,-0.11 -0.65,-0.11zm7.78 3.46l1.51 -5.07 2.34 0 -3.26 9.37c-0.07,0.21 -0.17,0.43 -0.29,0.67 -0.12,0.24 -0.28,0.47 -0.48,0.68 -0.2,0.21 -0.45,0.38 -0.75,0.52 -0.3,0.14 -0.66,0.21 -1.09,0.21 -0.1,0 -0.19,-0 -0.27,-0.01 -0.08,-0.01 -0.16,-0.02 -0.23,-0.03 -0.07,-0.01 -0.15,-0.03 -0.22,-0.04 -0.07,-0.02 -0.15,-0.04 -0.24,-0.06l0 -1.65c0.05,0 0.11,0 0.17,0 0.06,0 0.11,0.01 0.16,0.01 0.22,0 0.4,-0.02 0.55,-0.05 0.15,-0.03 0.29,-0.09 0.4,-0.16 0.11,-0.07 0.2,-0.16 0.28,-0.28 0.07,-0.11 0.14,-0.24 0.2,-0.39l0.23 -0.61 -2.85 -8.18 2.34 0 1.51 5.07zm11.79 0.12l1.07 -5.19 2.1 0 -2.08 8.15 -1.82 0 -1.55 -5.13 -1.54 5.13 -1.82 0 -2.08 -8.15 2.1 0 1.06 5.18 1.49 -5.18 1.57 0 1.48 5.19zm3.91 -1.19c0,-0.59 0.09,-1.14 0.26,-1.65 0.17,-0.51 0.42,-0.95 0.75,-1.31 0.33,-0.37 0.73,-0.66 1.21,-0.87 0.48,-0.21 1.03,-0.32 1.64,-0.32 0.62,0 1.17,0.11 1.65,0.32 0.48,0.21 0.89,0.5 1.22,0.87 0.33,0.37 0.58,0.81 0.75,1.31 0.17,0.51 0.25,1.06 0.25,1.65l0 0.16c0,0.6 -0.08,1.15 -0.25,1.65 -0.17,0.51 -0.42,0.94 -0.75,1.31 -0.33,0.37 -0.73,0.66 -1.21,0.87 -0.48,0.21 -1.02,0.31 -1.64,0.31 -0.62,0 -1.17,-0.11 -1.65,-0.31 -0.48,-0.21 -0.88,-0.5 -1.21,-0.87 -0.33,-0.37 -0.58,-0.8 -0.75,-1.31 -0.17,-0.5 -0.26,-1.05 -0.26,-1.65l0 -0.16zm2.18 0.16c0,0.33 0.03,0.64 0.09,0.94 0.06,0.29 0.16,0.54 0.29,0.76 0.13,0.21 0.31,0.38 0.52,0.51 0.21,0.13 0.48,0.19 0.79,0.19 0.3,0 0.56,-0.06 0.77,-0.19 0.21,-0.13 0.39,-0.3 0.52,-0.51 0.14,-0.21 0.23,-0.47 0.3,-0.76 0.06,-0.29 0.09,-0.6 0.09,-0.94l0 -0.16c0,-0.32 -0.03,-0.63 -0.09,-0.92 -0.06,-0.29 -0.16,-0.54 -0.3,-0.76 -0.14,-0.22 -0.31,-0.39 -0.53,-0.52 -0.22,-0.13 -0.48,-0.19 -0.78,-0.19 -0.3,0 -0.56,0.06 -0.77,0.19 -0.21,0.13 -0.39,0.3 -0.52,0.52 -0.13,0.22 -0.23,0.47 -0.29,0.76 -0.06,0.29 -0.09,0.59 -0.09,0.92l0 0.16zm11.47 -2.12c-0.11,-0.02 -0.24,-0.03 -0.39,-0.04 -0.15,-0.01 -0.28,-0.02 -0.4,-0.02 -0.43,0 -0.77,0.07 -1.04,0.21 -0.26,0.14 -0.46,0.35 -0.58,0.62l0 5.33 -2.18 0 0 -8.15 2.06 0 0.06 0.97c0.21,-0.35 0.46,-0.63 0.76,-0.83 0.3,-0.2 0.65,-0.3 1.05,-0.3 0.12,0 0.24,0.01 0.37,0.03 0.13,0.02 0.23,0.04 0.31,0.07l-0.03 2.09zm0.57 1.98c0,-0.62 0.07,-1.18 0.22,-1.7 0.14,-0.51 0.35,-0.95 0.62,-1.32 0.27,-0.37 0.6,-0.65 1,-0.85 0.4,-0.2 0.85,-0.3 1.36,-0.3 0.42,0 0.79,0.08 1.11,0.23 0.32,0.16 0.61,0.38 0.85,0.66l0 -4.16 2.19 0 0 11.57 -1.97 0 -0.11 -0.87c-0.25,0.32 -0.56,0.57 -0.89,0.75 -0.34,0.18 -0.74,0.27 -1.2,0.27 -0.5,0 -0.95,-0.11 -1.35,-0.31 -0.4,-0.21 -0.73,-0.5 -1,-0.86 -0.27,-0.37 -0.48,-0.8 -0.62,-1.31 -0.14,-0.5 -0.22,-1.05 -0.22,-1.65l0 -0.16zm2.18 0.16c0,0.33 0.03,0.64 0.08,0.93 0.06,0.29 0.14,0.54 0.27,0.75 0.12,0.21 0.29,0.38 0.48,0.5 0.2,0.12 0.44,0.19 0.73,0.19 0.35,0 0.64,-0.07 0.88,-0.23 0.23,-0.15 0.41,-0.36 0.55,-0.62l0 -3.22c-0.13,-0.27 -0.31,-0.48 -0.55,-0.63 -0.23,-0.15 -0.52,-0.22 -0.86,-0.22 -0.29,0 -0.53,0.06 -0.73,0.19 -0.2,0.12 -0.36,0.29 -0.49,0.51 -0.12,0.22 -0.21,0.47 -0.27,0.76 -0.06,0.29 -0.09,0.61 -0.09,0.94l0 0.16zm-140.32 35.76l-5.13 0 0 4.48 5.9 0 0 0.78 -6.83 0 0 -10.97 6.79 0 0 0.79 -5.86 0 0 4.14 5.13 0 0 0.78zm3.37 -2.89l0.03 1.39c0.14,-0.23 0.3,-0.44 0.49,-0.63 0.18,-0.19 0.39,-0.35 0.61,-0.49 0.23,-0.14 0.47,-0.24 0.73,-0.31 0.26,-0.07 0.54,-0.11 0.83,-0.11 0.41,0 0.77,0.06 1.09,0.17 0.32,0.11 0.59,0.29 0.82,0.53 0.22,0.24 0.39,0.55 0.51,0.93 0.12,0.38 0.18,0.84 0.18,1.37l0 5.31 -0.9 0 0 -5.31c0,-0.42 -0.05,-0.77 -0.14,-1.06 -0.09,-0.28 -0.22,-0.51 -0.38,-0.68 -0.17,-0.17 -0.37,-0.29 -0.61,-0.37 -0.24,-0.07 -0.5,-0.11 -0.79,-0.11 -0.32,0 -0.61,0.05 -0.87,0.16 -0.26,0.11 -0.49,0.25 -0.69,0.43 -0.2,0.18 -0.38,0.39 -0.52,0.62 -0.14,0.23 -0.26,0.47 -0.34,0.72l0 5.58 -0.9 0 0 -8.15 0.86 0zm7.26 4c0,-0.63 0.07,-1.21 0.22,-1.72 0.15,-0.51 0.35,-0.94 0.63,-1.31 0.27,-0.36 0.6,-0.64 0.99,-0.84 0.39,-0.2 0.83,-0.3 1.31,-0.3 0.58,0 1.07,0.12 1.49,0.35 0.41,0.23 0.76,0.55 1.03,0.96l0 -4.57 0.89 0 0 11.57 -0.84 0 -0.04 -1.09c-0.27,0.39 -0.61,0.69 -1.03,0.91 -0.42,0.22 -0.92,0.33 -1.51,0.33 -0.48,0 -0.92,-0.1 -1.3,-0.31 -0.39,-0.2 -0.71,-0.49 -0.99,-0.85 -0.27,-0.37 -0.48,-0.8 -0.63,-1.31 -0.14,-0.51 -0.22,-1.07 -0.22,-1.68l0 -0.16zm0.91 0.16c0,0.48 0.05,0.92 0.14,1.33 0.1,0.41 0.24,0.77 0.43,1.07 0.2,0.3 0.45,0.54 0.74,0.71 0.3,0.17 0.65,0.26 1.07,0.26 0.31,0 0.58,-0.04 0.83,-0.11 0.25,-0.07 0.47,-0.17 0.66,-0.3 0.19,-0.13 0.36,-0.29 0.5,-0.47 0.14,-0.18 0.26,-0.38 0.37,-0.59l0 -3.83c-0.09,-0.21 -0.2,-0.4 -0.33,-0.59 -0.13,-0.19 -0.29,-0.36 -0.48,-0.51 -0.19,-0.15 -0.41,-0.26 -0.66,-0.35 -0.25,-0.09 -0.54,-0.13 -0.87,-0.13 -0.42,0 -0.77,0.09 -1.08,0.26 -0.3,0.17 -0.55,0.41 -0.75,0.71 -0.2,0.3 -0.34,0.66 -0.43,1.07 -0.1,0.41 -0.14,0.85 -0.14,1.33l0 0.16zm9.03 3.99l-0.91 0 0 -11.57 0.91 0 0 11.57zm5.61 0.15c-0.53,0 -1.02,-0.1 -1.47,-0.3 -0.45,-0.2 -0.83,-0.48 -1.15,-0.83 -0.32,-0.35 -0.58,-0.78 -0.76,-1.26 -0.18,-0.49 -0.27,-1.02 -0.27,-1.6l0 -0.32c0,-0.63 0.09,-1.2 0.28,-1.71 0.19,-0.51 0.44,-0.94 0.76,-1.3 0.32,-0.36 0.69,-0.64 1.11,-0.83 0.42,-0.2 0.86,-0.3 1.33,-0.3 0.52,0 0.98,0.1 1.38,0.28 0.4,0.19 0.74,0.44 1.01,0.78 0.28,0.33 0.48,0.73 0.62,1.18 0.14,0.46 0.21,0.96 0.21,1.5l0 0.55 -5.82 0 0 0.17c0,0.45 0.07,0.87 0.2,1.26 0.14,0.39 0.33,0.74 0.57,1.03 0.25,0.29 0.54,0.52 0.88,0.69 0.34,0.17 0.72,0.25 1.14,0.25 0.48,0 0.91,-0.09 1.28,-0.26 0.37,-0.17 0.7,-0.46 1.01,-0.84l0.57 0.43c-0.14,0.2 -0.29,0.38 -0.47,0.56 -0.18,0.17 -0.39,0.33 -0.62,0.46 -0.24,0.13 -0.5,0.23 -0.8,0.31 -0.3,0.07 -0.63,0.11 -0.99,0.11zm-0.17 -7.69c-0.34,0 -0.66,0.07 -0.95,0.2 -0.29,0.13 -0.55,0.32 -0.77,0.56 -0.22,0.24 -0.41,0.53 -0.55,0.87 -0.14,0.34 -0.24,0.71 -0.29,1.13l4.89 0 0 -0.1c-0.01,-0.34 -0.06,-0.67 -0.16,-0.99 -0.1,-0.32 -0.25,-0.6 -0.44,-0.85 -0.2,-0.25 -0.43,-0.45 -0.72,-0.59 -0.29,-0.15 -0.62,-0.22 -1,-0.22zm9.86 5.46c0,-0.16 -0.03,-0.33 -0.08,-0.5 -0.06,-0.17 -0.17,-0.32 -0.32,-0.47 -0.16,-0.15 -0.38,-0.29 -0.66,-0.41 -0.28,-0.13 -0.65,-0.24 -1.1,-0.34 -0.45,-0.1 -0.86,-0.21 -1.21,-0.33 -0.35,-0.12 -0.65,-0.28 -0.9,-0.46 -0.24,-0.18 -0.43,-0.39 -0.55,-0.64 -0.13,-0.25 -0.19,-0.53 -0.19,-0.87 0,-0.3 0.07,-0.59 0.2,-0.86 0.13,-0.27 0.32,-0.51 0.57,-0.71 0.25,-0.2 0.55,-0.36 0.9,-0.48 0.35,-0.12 0.75,-0.18 1.2,-0.18 0.47,0 0.89,0.06 1.27,0.19 0.38,0.12 0.69,0.3 0.95,0.51 0.26,0.22 0.46,0.48 0.59,0.77 0.14,0.3 0.21,0.62 0.21,0.96l-0.91 0c0,-0.21 -0.05,-0.42 -0.14,-0.62 -0.09,-0.2 -0.23,-0.38 -0.41,-0.53 -0.18,-0.15 -0.4,-0.28 -0.66,-0.37 -0.26,-0.1 -0.57,-0.14 -0.9,-0.14 -0.35,0 -0.65,0.04 -0.9,0.13 -0.25,0.08 -0.45,0.2 -0.61,0.33 -0.16,0.14 -0.27,0.29 -0.35,0.46 -0.07,0.17 -0.11,0.34 -0.11,0.51 0,0.18 0.03,0.34 0.08,0.49 0.06,0.15 0.16,0.29 0.32,0.41 0.16,0.13 0.38,0.25 0.66,0.35 0.28,0.11 0.65,0.21 1.11,0.32 0.49,0.12 0.92,0.24 1.27,0.39 0.35,0.14 0.65,0.31 0.88,0.5 0.23,0.2 0.41,0.42 0.52,0.66 0.11,0.25 0.17,0.54 0.17,0.86 0,0.34 -0.07,0.64 -0.21,0.92 -0.14,0.28 -0.34,0.52 -0.6,0.71 -0.26,0.2 -0.58,0.35 -0.95,0.46 -0.37,0.11 -0.78,0.17 -1.24,0.17 -0.52,0 -0.97,-0.07 -1.37,-0.2 -0.4,-0.13 -0.73,-0.31 -1,-0.54 -0.27,-0.22 -0.48,-0.49 -0.61,-0.78 -0.14,-0.29 -0.21,-0.6 -0.21,-0.92l0.9 0c0.02,0.32 0.1,0.59 0.25,0.8 0.15,0.21 0.33,0.39 0.54,0.51 0.22,0.13 0.46,0.22 0.72,0.28 0.26,0.06 0.52,0.08 0.78,0.08 0.34,0 0.64,-0.04 0.91,-0.12 0.26,-0.08 0.48,-0.19 0.66,-0.32 0.18,-0.14 0.31,-0.29 0.4,-0.47 0.09,-0.17 0.13,-0.36 0.13,-0.55zm7.81 0c0,-0.16 -0.03,-0.33 -0.08,-0.5 -0.06,-0.17 -0.17,-0.32 -0.32,-0.47 -0.16,-0.15 -0.38,-0.29 -0.66,-0.41 -0.28,-0.13 -0.65,-0.24 -1.1,-0.34 -0.45,-0.1 -0.86,-0.21 -1.21,-0.33 -0.35,-0.12 -0.65,-0.28 -0.9,-0.46 -0.24,-0.18 -0.43,-0.39 -0.55,-0.64 -0.13,-0.25 -0.19,-0.53 -0.19,-0.87 0,-0.3 0.07,-0.59 0.2,-0.86 0.13,-0.27 0.32,-0.51 0.57,-0.71 0.25,-0.2 0.55,-0.36 0.9,-0.48 0.35,-0.12 0.75,-0.18 1.2,-0.18 0.47,0 0.89,0.06 1.27,0.19 0.38,0.12 0.69,0.3 0.95,0.51 0.26,0.22 0.46,0.48 0.59,0.77 0.14,0.3 0.21,0.62 0.21,0.96l-0.91 0c0,-0.21 -0.05,-0.42 -0.14,-0.62 -0.09,-0.2 -0.23,-0.38 -0.41,-0.53 -0.18,-0.15 -0.4,-0.28 -0.66,-0.37 -0.26,-0.1 -0.57,-0.14 -0.9,-0.14 -0.35,0 -0.65,0.04 -0.9,0.13 -0.25,0.08 -0.45,0.2 -0.61,0.33 -0.16,0.14 -0.27,0.29 -0.35,0.46 -0.07,0.17 -0.11,0.34 -0.11,0.51 0,0.18 0.03,0.34 0.08,0.49 0.06,0.15 0.16,0.29 0.32,0.41 0.16,0.13 0.38,0.25 0.66,0.35 0.28,0.11 0.65,0.21 1.11,0.32 0.49,0.12 0.92,0.24 1.27,0.39 0.35,0.14 0.65,0.31 0.88,0.5 0.23,0.2 0.41,0.42 0.52,0.66 0.11,0.25 0.17,0.54 0.17,0.86 0,0.34 -0.07,0.64 -0.21,0.92 -0.14,0.28 -0.34,0.52 -0.6,0.71 -0.26,0.2 -0.58,0.35 -0.95,0.46 -0.37,0.11 -0.78,0.17 -1.24,0.17 -0.52,0 -0.97,-0.07 -1.37,-0.2 -0.4,-0.13 -0.73,-0.31 -1,-0.54 -0.27,-0.22 -0.48,-0.49 -0.61,-0.78 -0.14,-0.29 -0.21,-0.6 -0.21,-0.92l0.9 0c0.02,0.32 0.1,0.59 0.25,0.8 0.15,0.21 0.33,0.39 0.54,0.51 0.22,0.13 0.46,0.22 0.72,0.28 0.26,0.06 0.52,0.08 0.78,0.08 0.34,0 0.64,-0.04 0.91,-0.12 0.26,-0.08 0.48,-0.19 0.66,-0.32 0.18,-0.14 0.31,-0.29 0.4,-0.47 0.09,-0.17 0.13,-0.36 0.13,-0.55zm6.32 -2.08c0,-0.63 0.07,-1.21 0.22,-1.72 0.14,-0.51 0.35,-0.94 0.62,-1.31 0.27,-0.36 0.6,-0.64 0.99,-0.84 0.39,-0.2 0.83,-0.3 1.32,-0.3 0.58,0 1.08,0.12 1.5,0.35 0.42,0.23 0.76,0.56 1.03,0.97l0.05 -1.18 0.84 0 0 8.01c0,0.53 -0.08,1 -0.23,1.42 -0.15,0.42 -0.38,0.77 -0.66,1.06 -0.28,0.29 -0.63,0.51 -1.03,0.67 -0.4,0.15 -0.85,0.23 -1.35,0.23 -0.26,0 -0.52,-0.03 -0.78,-0.09 -0.27,-0.06 -0.52,-0.14 -0.77,-0.26 -0.25,-0.12 -0.48,-0.26 -0.7,-0.43 -0.22,-0.17 -0.41,-0.38 -0.58,-0.61l0.5 -0.54c0.33,0.41 0.68,0.7 1.06,0.89 0.37,0.19 0.78,0.28 1.22,0.28 0.39,0 0.73,-0.06 1.03,-0.18 0.3,-0.12 0.55,-0.29 0.76,-0.51 0.21,-0.22 0.36,-0.5 0.47,-0.82 0.11,-0.32 0.16,-0.68 0.16,-1.09l0 -0.95c-0.27,0.38 -0.62,0.67 -1.03,0.88 -0.42,0.21 -0.91,0.32 -1.49,0.32 -0.49,0 -0.92,-0.1 -1.31,-0.31 -0.39,-0.2 -0.71,-0.49 -0.99,-0.85 -0.27,-0.37 -0.48,-0.8 -0.62,-1.31 -0.14,-0.51 -0.22,-1.07 -0.22,-1.68l0 -0.16zm0.91 0.16c0,0.48 0.05,0.92 0.14,1.33 0.1,0.41 0.24,0.77 0.43,1.07 0.2,0.3 0.45,0.54 0.74,0.71 0.3,0.17 0.65,0.26 1.07,0.26 0.31,0 0.59,-0.04 0.84,-0.11 0.25,-0.07 0.47,-0.18 0.66,-0.31 0.19,-0.13 0.35,-0.29 0.5,-0.47 0.14,-0.18 0.26,-0.38 0.36,-0.59l0 -3.79c-0.09,-0.21 -0.2,-0.41 -0.33,-0.61 -0.13,-0.19 -0.29,-0.36 -0.48,-0.51 -0.19,-0.15 -0.41,-0.26 -0.66,-0.35 -0.25,-0.09 -0.54,-0.13 -0.87,-0.13 -0.42,0 -0.77,0.09 -1.08,0.26 -0.3,0.17 -0.55,0.41 -0.75,0.71 -0.2,0.3 -0.34,0.66 -0.43,1.07 -0.1,0.41 -0.14,0.85 -0.14,1.33l0 0.16zm13.15 3.99c-0.05,-0.14 -0.09,-0.31 -0.12,-0.52 -0.03,-0.2 -0.05,-0.41 -0.06,-0.62 -0.14,0.17 -0.3,0.34 -0.48,0.5 -0.19,0.15 -0.39,0.29 -0.63,0.41 -0.23,0.12 -0.48,0.21 -0.76,0.28 -0.28,0.07 -0.58,0.11 -0.9,0.11 -0.4,0 -0.76,-0.06 -1.08,-0.17 -0.32,-0.12 -0.6,-0.28 -0.83,-0.49 -0.23,-0.21 -0.41,-0.45 -0.53,-0.73 -0.13,-0.28 -0.19,-0.59 -0.19,-0.92 0,-0.4 0.09,-0.75 0.26,-1.07 0.17,-0.32 0.42,-0.59 0.74,-0.82 0.32,-0.22 0.71,-0.39 1.17,-0.51 0.46,-0.12 0.98,-0.18 1.55,-0.18l1.67 0 0 -0.93c0,-0.58 -0.18,-1.04 -0.54,-1.38 -0.36,-0.33 -0.88,-0.5 -1.57,-0.5 -0.32,0 -0.61,0.04 -0.87,0.13 -0.27,0.08 -0.5,0.2 -0.69,0.35 -0.19,0.15 -0.34,0.32 -0.45,0.52 -0.11,0.2 -0.16,0.41 -0.16,0.64l-0.91 -0.01c0,-0.31 0.07,-0.6 0.23,-0.89 0.15,-0.29 0.36,-0.54 0.64,-0.76 0.27,-0.22 0.6,-0.4 0.99,-0.54 0.39,-0.14 0.81,-0.21 1.28,-0.21 0.43,0 0.83,0.06 1.19,0.17 0.37,0.11 0.68,0.28 0.94,0.5 0.26,0.22 0.47,0.5 0.61,0.83 0.15,0.33 0.22,0.72 0.22,1.16l0 3.95c0,0.14 0.01,0.29 0.02,0.44 0.01,0.15 0.03,0.3 0.05,0.44 0.02,0.14 0.05,0.28 0.08,0.4 0.03,0.13 0.06,0.24 0.11,0.34l0 0.09 -0.96 0zm-2.83 -0.65c0.33,0 0.63,-0.04 0.91,-0.12 0.28,-0.08 0.53,-0.2 0.76,-0.34 0.23,-0.14 0.42,-0.31 0.59,-0.51 0.17,-0.2 0.3,-0.4 0.4,-0.63l0 -1.79 -1.55 0c-0.46,0 -0.87,0.04 -1.24,0.12 -0.36,0.08 -0.67,0.2 -0.92,0.36 -0.25,0.16 -0.44,0.34 -0.58,0.57 -0.13,0.22 -0.2,0.48 -0.2,0.76 0,0.22 0.04,0.43 0.13,0.62 0.09,0.19 0.21,0.36 0.37,0.5 0.16,0.14 0.35,0.25 0.58,0.34 0.22,0.08 0.48,0.12 0.76,0.12zm6.77 -7.5l0.03 1.33c0.14,-0.22 0.29,-0.42 0.47,-0.61 0.18,-0.18 0.38,-0.34 0.6,-0.47 0.22,-0.13 0.46,-0.23 0.72,-0.3 0.26,-0.07 0.54,-0.11 0.85,-0.11 0.6,0 1.11,0.13 1.54,0.38 0.43,0.25 0.73,0.65 0.91,1.21 0.13,-0.23 0.29,-0.44 0.47,-0.63 0.18,-0.19 0.39,-0.36 0.63,-0.5 0.23,-0.14 0.49,-0.25 0.77,-0.33 0.28,-0.08 0.59,-0.12 0.91,-0.12 0.42,0 0.8,0.06 1.13,0.17 0.33,0.11 0.61,0.29 0.84,0.53 0.23,0.24 0.4,0.56 0.52,0.93 0.12,0.38 0.18,0.83 0.18,1.36l0 5.31 -0.91 0 0 -5.32c0,-0.43 -0.05,-0.79 -0.14,-1.08 -0.1,-0.28 -0.23,-0.51 -0.41,-0.68 -0.17,-0.17 -0.39,-0.28 -0.63,-0.35 -0.24,-0.06 -0.51,-0.1 -0.8,-0.1 -0.38,0.01 -0.72,0.07 -1,0.21 -0.29,0.13 -0.53,0.3 -0.73,0.5 -0.2,0.2 -0.35,0.43 -0.46,0.68 -0.11,0.25 -0.17,0.5 -0.2,0.73l0 5.4 -0.91 0 0 -5.39c0,-0.41 -0.05,-0.75 -0.14,-1.02 -0.1,-0.27 -0.23,-0.49 -0.41,-0.66 -0.18,-0.17 -0.39,-0.29 -0.63,-0.35 -0.24,-0.07 -0.51,-0.11 -0.81,-0.11 -0.34,0 -0.64,0.05 -0.91,0.16 -0.26,0.11 -0.49,0.25 -0.68,0.43 -0.19,0.18 -0.35,0.39 -0.48,0.62 -0.13,0.23 -0.23,0.47 -0.3,0.71l0 5.59 -0.9 0 0 -8.15 0.86 0zm16.01 8.3c-0.53,0 -1.02,-0.1 -1.47,-0.3 -0.45,-0.2 -0.83,-0.48 -1.15,-0.83 -0.32,-0.35 -0.58,-0.78 -0.76,-1.26 -0.18,-0.49 -0.27,-1.02 -0.27,-1.6l0 -0.32c0,-0.63 0.09,-1.2 0.28,-1.71 0.19,-0.51 0.44,-0.94 0.76,-1.3 0.32,-0.36 0.69,-0.64 1.11,-0.83 0.42,-0.2 0.86,-0.3 1.33,-0.3 0.52,0 0.98,0.1 1.38,0.28 0.4,0.19 0.74,0.44 1.01,0.78 0.28,0.33 0.48,0.73 0.62,1.18 0.14,0.46 0.21,0.96 0.21,1.5l0 0.55 -5.82 0 0 0.17c0,0.45 0.07,0.87 0.2,1.26 0.14,0.39 0.33,0.74 0.57,1.03 0.25,0.29 0.54,0.52 0.88,0.69 0.34,0.17 0.72,0.25 1.14,0.25 0.48,0 0.91,-0.09 1.28,-0.26 0.37,-0.17 0.7,-0.46 1.01,-0.84l0.57 0.43c-0.14,0.2 -0.29,0.38 -0.47,0.56 -0.18,0.17 -0.39,0.33 -0.62,0.46 -0.24,0.13 -0.5,0.23 -0.8,0.31 -0.3,0.07 -0.63,0.11 -0.99,0.11zm-0.17 -7.69c-0.34,0 -0.66,0.07 -0.95,0.2 -0.29,0.13 -0.55,0.32 -0.77,0.56 -0.22,0.24 -0.41,0.53 -0.55,0.87 -0.14,0.34 -0.24,0.71 -0.29,1.13l4.89 0 0 -0.1c-0.01,-0.34 -0.06,-0.67 -0.16,-0.99 -0.1,-0.32 -0.25,-0.6 -0.44,-0.85 -0.2,-0.25 -0.43,-0.45 -0.72,-0.59 -0.29,-0.15 -0.62,-0.22 -1,-0.22zm9.38 7.54l0 -7.41 -1.35 0 0 -0.74 1.35 0 0 -1.01c0,-0.41 0.06,-0.78 0.16,-1.1 0.11,-0.32 0.27,-0.59 0.48,-0.81 0.21,-0.22 0.46,-0.38 0.76,-0.49 0.3,-0.11 0.63,-0.17 1.01,-0.17 0.15,0 0.31,0.01 0.48,0.03 0.16,0.02 0.32,0.05 0.48,0.1l-0.07 0.75c-0.13,-0.03 -0.25,-0.05 -0.38,-0.07 -0.13,-0.02 -0.28,-0.02 -0.44,-0.02 -0.5,0 -0.88,0.15 -1.16,0.46 -0.28,0.31 -0.41,0.75 -0.41,1.31l0 1.01 1.94 0 0 0.74 -1.94 0 0 7.41 -0.91 0zm3.96 -4.2c0,-0.59 0.09,-1.14 0.26,-1.64 0.17,-0.5 0.42,-0.93 0.73,-1.3 0.32,-0.36 0.7,-0.65 1.15,-0.85 0.45,-0.21 0.94,-0.31 1.49,-0.31 0.56,0 1.06,0.1 1.51,0.31 0.45,0.21 0.83,0.49 1.15,0.85 0.32,0.37 0.56,0.8 0.73,1.3 0.17,0.5 0.26,1.05 0.26,1.64l0 0.25c0,0.59 -0.08,1.14 -0.26,1.64 -0.17,0.5 -0.41,0.94 -0.73,1.3 -0.32,0.36 -0.7,0.65 -1.14,0.85 -0.45,0.2 -0.95,0.31 -1.5,0.31 -0.55,0 -1.05,-0.1 -1.5,-0.31 -0.45,-0.2 -0.83,-0.49 -1.15,-0.85 -0.32,-0.37 -0.57,-0.8 -0.74,-1.3 -0.17,-0.5 -0.26,-1.05 -0.26,-1.64l0 -0.25zm0.9 0.25c0,0.45 0.06,0.87 0.18,1.28 0.12,0.41 0.3,0.76 0.53,1.06 0.23,0.31 0.52,0.55 0.86,0.73 0.34,0.18 0.73,0.27 1.18,0.27 0.44,0 0.83,-0.09 1.17,-0.27 0.34,-0.18 0.62,-0.42 0.86,-0.73 0.23,-0.3 0.41,-0.66 0.53,-1.06 0.12,-0.4 0.18,-0.83 0.18,-1.28l0 -0.25c0,-0.44 -0.06,-0.86 -0.18,-1.26 -0.12,-0.4 -0.3,-0.76 -0.53,-1.06 -0.23,-0.31 -0.52,-0.55 -0.86,-0.74 -0.34,-0.18 -0.74,-0.28 -1.18,-0.28 -0.44,0 -0.83,0.09 -1.17,0.28 -0.34,0.19 -0.62,0.43 -0.85,0.74 -0.23,0.31 -0.41,0.66 -0.53,1.06 -0.12,0.41 -0.18,0.83 -0.18,1.26l0 0.25zm12 -3.44c-0.19,-0.04 -0.39,-0.05 -0.61,-0.05 -0.31,0 -0.58,0.05 -0.83,0.14 -0.24,0.09 -0.46,0.22 -0.65,0.38 -0.19,0.16 -0.35,0.36 -0.48,0.58 -0.13,0.22 -0.23,0.47 -0.3,0.74l0 5.6 -0.9 0 0 -8.15 0.88 0 0.02 1.3c0.22,-0.45 0.52,-0.8 0.9,-1.06 0.38,-0.26 0.84,-0.39 1.4,-0.39 0.11,0 0.22,0.01 0.34,0.03 0.12,0.02 0.2,0.04 0.26,0.07l-0.02 0.82z"></path> <path class="fil1" d="M180.5 71.03c0,0.61 -0.07,1.17 -0.21,1.68 -0.14,0.51 -0.34,0.94 -0.61,1.31 -0.26,0.36 -0.59,0.65 -0.98,0.85 -0.39,0.2 -0.83,0.31 -1.32,0.31 -0.6,0 -1.11,-0.11 -1.53,-0.34 -0.42,-0.23 -0.77,-0.53 -1.04,-0.93l-0.04 1.12 -0.84 0 0 -11.57 0.9 0 0 4.6c0.27,-0.42 0.61,-0.75 1.03,-0.98 0.42,-0.23 0.92,-0.35 1.51,-0.35 0.5,0 0.94,0.1 1.33,0.3 0.39,0.2 0.71,0.47 0.98,0.84 0.27,0.36 0.47,0.8 0.61,1.31 0.14,0.51 0.21,1.08 0.21,1.72l0 0.16zm-0.91 -0.16c0,-0.47 -0.04,-0.92 -0.13,-1.33 -0.09,-0.41 -0.23,-0.77 -0.43,-1.07 -0.19,-0.3 -0.44,-0.54 -0.74,-0.71 -0.3,-0.17 -0.66,-0.26 -1.08,-0.26 -0.34,0 -0.64,0.05 -0.91,0.14 -0.26,0.1 -0.49,0.22 -0.68,0.37 -0.19,0.16 -0.35,0.33 -0.48,0.53 -0.13,0.2 -0.24,0.41 -0.32,0.63l0 3.68c0.1,0.22 0.21,0.42 0.36,0.61 0.14,0.19 0.31,0.35 0.51,0.49 0.2,0.14 0.42,0.25 0.67,0.32 0.25,0.08 0.54,0.12 0.85,0.12 0.41,0 0.76,-0.08 1.06,-0.26 0.3,-0.17 0.55,-0.41 0.74,-0.71 0.2,-0.3 0.34,-0.66 0.43,-1.07 0.09,-0.41 0.14,-0.85 0.14,-1.33l0 -0.16zm2.4 -0.05c0,-0.59 0.09,-1.14 0.26,-1.64 0.17,-0.5 0.42,-0.93 0.73,-1.3 0.32,-0.36 0.7,-0.65 1.15,-0.85 0.45,-0.21 0.94,-0.31 1.49,-0.31 0.56,0 1.06,0.1 1.51,0.31 0.45,0.21 0.83,0.49 1.15,0.85 0.32,0.37 0.56,0.8 0.73,1.3 0.17,0.5 0.26,1.05 0.26,1.64l0 0.25c0,0.59 -0.08,1.14 -0.26,1.64 -0.17,0.5 -0.41,0.94 -0.73,1.3 -0.32,0.36 -0.7,0.65 -1.14,0.85 -0.45,0.2 -0.95,0.31 -1.5,0.31 -0.55,0 -1.05,-0.1 -1.5,-0.31 -0.45,-0.2 -0.83,-0.49 -1.15,-0.85 -0.32,-0.37 -0.57,-0.8 -0.74,-1.3 -0.17,-0.5 -0.26,-1.05 -0.26,-1.64l0 -0.25zm0.9 0.25c0,0.45 0.06,0.87 0.18,1.28 0.12,0.41 0.3,0.76 0.53,1.06 0.23,0.31 0.52,0.55 0.86,0.73 0.34,0.18 0.73,0.27 1.18,0.27 0.44,0 0.83,-0.09 1.17,-0.27 0.34,-0.18 0.62,-0.42 0.86,-0.73 0.23,-0.3 0.41,-0.66 0.53,-1.06 0.12,-0.4 0.18,-0.83 0.18,-1.28l0 -0.25c0,-0.44 -0.06,-0.86 -0.18,-1.26 -0.12,-0.4 -0.3,-0.76 -0.53,-1.06 -0.23,-0.31 -0.52,-0.55 -0.86,-0.74 -0.34,-0.18 -0.74,-0.28 -1.18,-0.28 -0.44,0 -0.83,0.09 -1.17,0.28 -0.34,0.19 -0.62,0.43 -0.85,0.74 -0.23,0.31 -0.41,0.66 -0.53,1.06 -0.12,0.41 -0.18,0.83 -0.18,1.26l0 0.25zm10.71 2.65l2.38 -6.86 0.97 0 -3.45 9.46c-0.07,0.19 -0.16,0.39 -0.27,0.63 -0.11,0.23 -0.25,0.45 -0.42,0.65 -0.17,0.2 -0.39,0.37 -0.65,0.51 -0.26,0.14 -0.57,0.21 -0.95,0.21 -0.05,0 -0.11,-0 -0.17,-0.01 -0.07,-0.01 -0.13,-0.02 -0.2,-0.03 -0.07,-0.01 -0.13,-0.02 -0.19,-0.04 -0.06,-0.01 -0.11,-0.02 -0.14,-0.03l-0.01 -0.75c0.06,0.01 0.14,0.02 0.24,0.03 0.1,0.01 0.18,0.02 0.22,0.02 0.24,0 0.46,-0.03 0.64,-0.1 0.19,-0.06 0.35,-0.15 0.49,-0.28 0.14,-0.12 0.26,-0.28 0.37,-0.46 0.11,-0.19 0.2,-0.4 0.29,-0.64l0.39 -1.08 -3.07 -8.09 0.99 0 2.53 6.86zm9.63 -0.78c0,-0.16 -0.03,-0.33 -0.08,-0.5 -0.06,-0.17 -0.17,-0.32 -0.32,-0.47 -0.16,-0.15 -0.38,-0.29 -0.66,-0.41 -0.28,-0.13 -0.65,-0.24 -1.1,-0.34 -0.45,-0.1 -0.86,-0.21 -1.21,-0.33 -0.35,-0.12 -0.65,-0.28 -0.9,-0.46 -0.24,-0.18 -0.43,-0.39 -0.55,-0.64 -0.13,-0.25 -0.19,-0.53 -0.19,-0.87 0,-0.3 0.07,-0.59 0.2,-0.86 0.13,-0.27 0.32,-0.51 0.57,-0.71 0.25,-0.2 0.55,-0.36 0.9,-0.48 0.35,-0.12 0.75,-0.18 1.2,-0.18 0.47,0 0.89,0.06 1.27,0.19 0.38,0.12 0.69,0.3 0.95,0.51 0.26,0.22 0.46,0.48 0.59,0.77 0.14,0.3 0.21,0.62 0.21,0.96l-0.91 0c0,-0.21 -0.05,-0.42 -0.14,-0.62 -0.09,-0.2 -0.23,-0.38 -0.41,-0.53 -0.18,-0.15 -0.4,-0.28 -0.66,-0.37 -0.26,-0.1 -0.57,-0.14 -0.9,-0.14 -0.35,0 -0.65,0.04 -0.9,0.13 -0.25,0.08 -0.45,0.2 -0.61,0.33 -0.16,0.14 -0.27,0.29 -0.35,0.46 -0.07,0.17 -0.11,0.34 -0.11,0.51 0,0.18 0.03,0.34 0.08,0.49 0.06,0.15 0.16,0.29 0.32,0.41 0.16,0.13 0.38,0.25 0.66,0.35 0.28,0.11 0.65,0.21 1.11,0.32 0.49,0.12 0.92,0.24 1.27,0.39 0.35,0.14 0.65,0.31 0.88,0.5 0.23,0.2 0.41,0.42 0.52,0.66 0.11,0.25 0.17,0.54 0.17,0.86 0,0.34 -0.07,0.64 -0.21,0.92 -0.14,0.28 -0.34,0.52 -0.6,0.71 -0.26,0.2 -0.58,0.35 -0.95,0.46 -0.37,0.11 -0.78,0.17 -1.24,0.17 -0.52,0 -0.97,-0.07 -1.37,-0.2 -0.4,-0.13 -0.73,-0.31 -1,-0.54 -0.27,-0.22 -0.48,-0.49 -0.61,-0.78 -0.14,-0.29 -0.21,-0.6 -0.21,-0.92l0.9 0c0.02,0.32 0.1,0.59 0.25,0.8 0.15,0.21 0.33,0.39 0.54,0.51 0.22,0.13 0.46,0.22 0.72,0.28 0.26,0.06 0.52,0.08 0.78,0.08 0.34,0 0.64,-0.04 0.91,-0.12 0.26,-0.08 0.48,-0.19 0.66,-0.32 0.18,-0.14 0.31,-0.29 0.4,-0.47 0.09,-0.17 0.13,-0.36 0.13,-0.55z"></path> </g> <g> <path class="fil1" d="M234.07 35.11c0,-0.19 -0.03,-0.36 -0.08,-0.52 -0.06,-0.15 -0.16,-0.3 -0.32,-0.42 -0.16,-0.13 -0.38,-0.26 -0.66,-0.39 -0.28,-0.13 -0.64,-0.26 -1.08,-0.4 -0.5,-0.16 -0.98,-0.34 -1.42,-0.54 -0.44,-0.2 -0.83,-0.44 -1.17,-0.71 -0.33,-0.27 -0.6,-0.59 -0.79,-0.95 -0.19,-0.35 -0.29,-0.77 -0.29,-1.25 0,-0.46 0.1,-0.87 0.3,-1.26 0.2,-0.38 0.48,-0.7 0.84,-0.97 0.36,-0.27 0.79,-0.47 1.28,-0.62 0.49,-0.15 1.04,-0.22 1.63,-0.22 0.61,0 1.16,0.08 1.66,0.25 0.5,0.17 0.92,0.4 1.27,0.7 0.35,0.3 0.62,0.66 0.81,1.07 0.19,0.41 0.29,0.87 0.29,1.36l-2.26 0c0,-0.23 -0.04,-0.44 -0.11,-0.64 -0.07,-0.2 -0.19,-0.37 -0.33,-0.5 -0.15,-0.14 -0.34,-0.25 -0.57,-0.33 -0.23,-0.08 -0.49,-0.12 -0.8,-0.12 -0.3,0 -0.56,0.03 -0.77,0.1 -0.22,0.06 -0.4,0.16 -0.54,0.27 -0.14,0.11 -0.25,0.25 -0.32,0.41 -0.07,0.15 -0.11,0.32 -0.11,0.5 0,0.36 0.19,0.66 0.55,0.91 0.37,0.24 0.91,0.47 1.63,0.68 0.6,0.19 1.12,0.39 1.58,0.62 0.46,0.23 0.84,0.48 1.14,0.77 0.3,0.29 0.53,0.61 0.69,0.96 0.15,0.36 0.23,0.76 0.23,1.21 0,0.48 -0.1,0.91 -0.28,1.29 -0.19,0.38 -0.46,0.69 -0.8,0.95 -0.35,0.26 -0.77,0.46 -1.25,0.59 -0.49,0.14 -1.04,0.21 -1.64,0.21 -0.36,0 -0.72,-0.03 -1.09,-0.1 -0.36,-0.06 -0.71,-0.16 -1.04,-0.29 -0.33,-0.13 -0.64,-0.29 -0.92,-0.49 -0.28,-0.2 -0.52,-0.43 -0.74,-0.69 -0.21,-0.27 -0.37,-0.57 -0.49,-0.91 -0.12,-0.34 -0.18,-0.72 -0.18,-1.13l2.27 0c0,0.33 0.05,0.61 0.16,0.84 0.11,0.23 0.25,0.42 0.44,0.56 0.19,0.14 0.42,0.25 0.68,0.31 0.27,0.07 0.56,0.1 0.89,0.1 0.29,0 0.55,-0.03 0.76,-0.09 0.22,-0.06 0.39,-0.15 0.53,-0.26 0.14,-0.11 0.24,-0.24 0.31,-0.4 0.07,-0.15 0.1,-0.32 0.1,-0.49zm7.4 3.03c-0.63,0 -1.2,-0.1 -1.7,-0.31 -0.5,-0.21 -0.93,-0.49 -1.28,-0.84 -0.35,-0.35 -0.61,-0.77 -0.8,-1.25 -0.18,-0.48 -0.28,-1 -0.28,-1.54l0 -0.29c0,-0.62 0.09,-1.18 0.27,-1.7 0.18,-0.51 0.43,-0.96 0.76,-1.33 0.33,-0.37 0.73,-0.66 1.2,-0.87 0.47,-0.21 1,-0.31 1.58,-0.31 0.59,0 1.11,0.1 1.55,0.29 0.45,0.19 0.82,0.47 1.13,0.82 0.3,0.35 0.53,0.77 0.69,1.26 0.15,0.49 0.23,1.04 0.23,1.64l0 0.93 -5.19 0c0.04,0.27 0.11,0.51 0.22,0.73 0.11,0.22 0.25,0.4 0.41,0.55 0.17,0.15 0.37,0.27 0.59,0.36 0.23,0.08 0.48,0.13 0.76,0.13 0.4,0 0.76,-0.07 1.1,-0.22 0.33,-0.15 0.63,-0.38 0.86,-0.69l1.07 1.2c-0.13,0.19 -0.3,0.37 -0.49,0.54 -0.2,0.18 -0.43,0.33 -0.69,0.47 -0.27,0.14 -0.57,0.25 -0.9,0.33 -0.33,0.08 -0.7,0.13 -1.1,0.13zm-0.25 -6.69c-0.24,0 -0.45,0.04 -0.62,0.12 -0.18,0.09 -0.33,0.2 -0.46,0.35 -0.13,0.15 -0.23,0.33 -0.31,0.53 -0.08,0.21 -0.14,0.43 -0.17,0.68l3.03 0 0 -0.17c-0.01,-0.22 -0.04,-0.42 -0.1,-0.6 -0.06,-0.19 -0.14,-0.34 -0.26,-0.48 -0.12,-0.14 -0.27,-0.24 -0.45,-0.32 -0.18,-0.07 -0.4,-0.11 -0.65,-0.11zm9.56 6.54c-0.1,-0.2 -0.17,-0.44 -0.22,-0.73 -0.22,0.25 -0.5,0.46 -0.83,0.63 -0.33,0.17 -0.74,0.26 -1.22,0.26 -0.39,0 -0.76,-0.06 -1.1,-0.18 -0.34,-0.12 -0.63,-0.29 -0.88,-0.5 -0.25,-0.22 -0.44,-0.47 -0.58,-0.77 -0.14,-0.3 -0.21,-0.63 -0.21,-0.99 0,-0.43 0.08,-0.8 0.24,-1.14 0.16,-0.33 0.39,-0.61 0.71,-0.84 0.32,-0.23 0.71,-0.41 1.18,-0.53 0.47,-0.12 1.02,-0.18 1.64,-0.18l0.97 0 0 -0.47c0,-0.38 -0.1,-0.68 -0.29,-0.91 -0.19,-0.23 -0.5,-0.34 -0.92,-0.34 -0.37,0 -0.65,0.09 -0.86,0.26 -0.21,0.17 -0.31,0.42 -0.31,0.72l-2.18 0c0,-0.35 0.08,-0.68 0.24,-1 0.16,-0.32 0.4,-0.59 0.7,-0.83 0.3,-0.24 0.67,-0.42 1.09,-0.56 0.43,-0.14 0.9,-0.21 1.43,-0.21 0.47,0 0.91,0.06 1.31,0.18 0.4,0.12 0.75,0.3 1.04,0.54 0.29,0.24 0.52,0.54 0.68,0.9 0.16,0.36 0.25,0.78 0.25,1.25l0 3.45c0,0.23 0.01,0.44 0.02,0.62 0.02,0.18 0.04,0.35 0.06,0.5 0.03,0.15 0.06,0.28 0.1,0.4 0.04,0.12 0.09,0.23 0.14,0.33l0 0.13 -2.2 0zm-1.8 -1.51c0.19,0 0.36,-0.02 0.52,-0.07 0.16,-0.05 0.3,-0.11 0.42,-0.18 0.13,-0.07 0.23,-0.16 0.33,-0.25 0.09,-0.1 0.17,-0.19 0.22,-0.3l0 -1.4 -0.9 0c-0.29,0 -0.53,0.03 -0.75,0.09 -0.21,0.06 -0.38,0.15 -0.52,0.26 -0.14,0.11 -0.24,0.24 -0.3,0.4 -0.06,0.15 -0.1,0.32 -0.1,0.5 0,0.27 0.1,0.49 0.29,0.67 0.19,0.17 0.45,0.26 0.78,0.26zm9.93 -4.6c-0.11,-0.02 -0.24,-0.03 -0.39,-0.04 -0.15,-0.01 -0.28,-0.02 -0.4,-0.02 -0.43,0 -0.77,0.07 -1.04,0.21 -0.26,0.14 -0.46,0.35 -0.58,0.62l0 5.33 -2.18 0 0 -8.15 2.06 0 0.06 0.97c0.21,-0.35 0.46,-0.63 0.76,-0.83 0.3,-0.2 0.65,-0.3 1.05,-0.3 0.12,0 0.24,0.01 0.37,0.03 0.13,0.02 0.23,0.04 0.31,0.07l-0.03 2.09zm4.3 4.51c0.2,0 0.38,-0.03 0.55,-0.09 0.17,-0.06 0.31,-0.14 0.43,-0.24 0.12,-0.11 0.22,-0.23 0.28,-0.38 0.07,-0.15 0.11,-0.31 0.11,-0.5l2.04 0c-0.01,0.43 -0.1,0.83 -0.27,1.2 -0.17,0.36 -0.41,0.68 -0.71,0.94 -0.3,0.26 -0.66,0.47 -1.07,0.61 -0.41,0.14 -0.85,0.22 -1.32,0.22 -0.63,0 -1.19,-0.11 -1.66,-0.32 -0.47,-0.21 -0.86,-0.5 -1.18,-0.87 -0.31,-0.37 -0.55,-0.8 -0.7,-1.3 -0.15,-0.5 -0.23,-1.04 -0.23,-1.62l0 -0.21c0,-0.58 0.08,-1.12 0.23,-1.62 0.16,-0.5 0.39,-0.94 0.7,-1.31 0.31,-0.37 0.7,-0.66 1.17,-0.88 0.47,-0.21 1.02,-0.32 1.65,-0.32 0.5,0 0.96,0.07 1.38,0.22 0.41,0.15 0.77,0.36 1.07,0.64 0.3,0.28 0.53,0.61 0.69,1.01 0.17,0.39 0.25,0.83 0.26,1.32l-2.04 0c-0.01,-0.2 -0.04,-0.38 -0.1,-0.56 -0.06,-0.17 -0.15,-0.32 -0.27,-0.45 -0.12,-0.13 -0.26,-0.23 -0.43,-0.31 -0.17,-0.07 -0.37,-0.11 -0.59,-0.11 -0.32,0 -0.58,0.06 -0.78,0.2 -0.2,0.13 -0.36,0.31 -0.47,0.52 -0.11,0.22 -0.19,0.47 -0.23,0.76 -0.04,0.29 -0.06,0.58 -0.06,0.89l0 0.21c0,0.31 0.02,0.61 0.06,0.9 0.04,0.29 0.12,0.54 0.23,0.75 0.11,0.22 0.27,0.39 0.47,0.51 0.2,0.13 0.47,0.19 0.79,0.19zm6.78 -5.66c0.27,-0.33 0.59,-0.58 0.95,-0.77 0.37,-0.18 0.77,-0.28 1.22,-0.28 0.4,0 0.77,0.06 1.1,0.17 0.33,0.11 0.61,0.3 0.85,0.55 0.24,0.25 0.42,0.58 0.55,0.99 0.13,0.4 0.19,0.89 0.19,1.46l0 5.14 -2.18 0 0 -5.15c0,-0.26 -0.03,-0.48 -0.08,-0.66 -0.06,-0.17 -0.14,-0.32 -0.25,-0.42 -0.11,-0.11 -0.25,-0.19 -0.41,-0.23 -0.16,-0.04 -0.35,-0.07 -0.56,-0.07 -0.34,0 -0.62,0.07 -0.85,0.2 -0.22,0.13 -0.4,0.31 -0.53,0.54l0 5.79 -2.18 0 0 -11.57 2.18 0 0 4.31zm18.3 -1.88l-3.36 0 0 9.14 -2.26 0 0 -9.14 -3.32 0 0 -1.83 8.94 0 0 1.83zm4.23 9.29c-0.63,0 -1.2,-0.1 -1.7,-0.31 -0.5,-0.21 -0.93,-0.49 -1.28,-0.84 -0.35,-0.35 -0.61,-0.77 -0.8,-1.25 -0.18,-0.48 -0.28,-1 -0.28,-1.54l0 -0.29c0,-0.62 0.09,-1.18 0.27,-1.7 0.18,-0.51 0.43,-0.96 0.76,-1.33 0.33,-0.37 0.73,-0.66 1.2,-0.87 0.47,-0.21 1,-0.31 1.58,-0.31 0.59,0 1.11,0.1 1.55,0.29 0.45,0.19 0.82,0.47 1.13,0.82 0.3,0.35 0.53,0.77 0.69,1.26 0.15,0.49 0.23,1.04 0.23,1.64l0 0.93 -5.19 0c0.04,0.27 0.11,0.51 0.22,0.73 0.11,0.22 0.25,0.4 0.41,0.55 0.17,0.15 0.37,0.27 0.59,0.36 0.23,0.08 0.48,0.13 0.76,0.13 0.4,0 0.76,-0.07 1.1,-0.22 0.33,-0.15 0.63,-0.38 0.86,-0.69l1.07 1.2c-0.13,0.19 -0.3,0.37 -0.49,0.54 -0.2,0.18 -0.43,0.33 -0.69,0.47 -0.27,0.14 -0.57,0.25 -0.9,0.33 -0.33,0.08 -0.7,0.13 -1.1,0.13zm-0.25 -6.69c-0.24,0 -0.45,0.04 -0.62,0.12 -0.18,0.09 -0.33,0.2 -0.46,0.35 -0.13,0.15 -0.23,0.33 -0.31,0.53 -0.08,0.21 -0.14,0.43 -0.17,0.68l3.03 0 0 -0.17c-0.01,-0.22 -0.04,-0.42 -0.1,-0.6 -0.06,-0.19 -0.14,-0.34 -0.26,-0.48 -0.12,-0.14 -0.27,-0.24 -0.45,-0.32 -0.18,-0.07 -0.4,-0.11 -0.65,-0.11zm9.42 0.43c-0.11,-0.02 -0.24,-0.03 -0.39,-0.04 -0.15,-0.01 -0.28,-0.02 -0.4,-0.02 -0.43,0 -0.77,0.07 -1.04,0.21 -0.26,0.14 -0.46,0.35 -0.58,0.62l0 5.33 -2.18 0 0 -8.15 2.06 0 0.06 0.97c0.21,-0.35 0.46,-0.63 0.76,-0.83 0.3,-0.2 0.65,-0.3 1.05,-0.3 0.12,0 0.24,0.01 0.37,0.03 0.13,0.02 0.23,0.04 0.31,0.07l-0.03 2.09zm3.09 -2.04l0.07 0.91c0.27,-0.33 0.6,-0.59 0.99,-0.78 0.39,-0.19 0.84,-0.28 1.35,-0.28 0.49,0 0.92,0.1 1.29,0.3 0.38,0.2 0.66,0.51 0.87,0.95 0.27,-0.39 0.6,-0.69 1.01,-0.91 0.4,-0.22 0.88,-0.33 1.44,-0.33 0.4,0 0.76,0.06 1.08,0.17 0.32,0.11 0.6,0.29 0.83,0.53 0.23,0.25 0.41,0.57 0.53,0.96 0.12,0.4 0.19,0.88 0.19,1.45l0 5.19 -2.18 0 0 -5.19c0,-0.27 -0.03,-0.49 -0.09,-0.67 -0.06,-0.18 -0.14,-0.31 -0.24,-0.41 -0.11,-0.1 -0.23,-0.16 -0.39,-0.2 -0.15,-0.04 -0.32,-0.06 -0.51,-0.06 -0.34,0 -0.62,0.08 -0.84,0.25 -0.23,0.17 -0.4,0.4 -0.51,0.68 0,0.03 0,0.05 0,0.08 0,0.03 0.01,0.06 0.01,0.08l0 5.43 -2.18 0 0 -5.18c0,-0.27 -0.03,-0.49 -0.08,-0.67 -0.06,-0.18 -0.14,-0.32 -0.24,-0.42 -0.11,-0.1 -0.23,-0.17 -0.39,-0.21 -0.15,-0.04 -0.32,-0.06 -0.52,-0.06 -0.32,0 -0.59,0.07 -0.81,0.2 -0.22,0.14 -0.4,0.32 -0.53,0.57l0 5.76 -2.18 0 0 -8.15 2.04 0zm-69.64 41.2c0,0.61 -0.07,1.17 -0.21,1.68 -0.14,0.51 -0.34,0.94 -0.61,1.31 -0.26,0.36 -0.59,0.65 -0.98,0.85 -0.39,0.2 -0.83,0.31 -1.32,0.31 -0.6,0 -1.11,-0.11 -1.53,-0.34 -0.42,-0.23 -0.77,-0.53 -1.04,-0.93l-0.04 1.12 -0.84 0 0 -11.57 0.9 0 0 4.6c0.27,-0.42 0.61,-0.75 1.03,-0.98 0.42,-0.23 0.92,-0.35 1.51,-0.35 0.5,0 0.94,0.1 1.33,0.3 0.39,0.2 0.71,0.47 0.98,0.84 0.27,0.36 0.47,0.8 0.61,1.31 0.14,0.51 0.21,1.08 0.21,1.72l0 0.16zm-0.91 -0.16c0,-0.47 -0.04,-0.92 -0.13,-1.33 -0.09,-0.41 -0.23,-0.77 -0.43,-1.07 -0.19,-0.3 -0.44,-0.54 -0.74,-0.71 -0.3,-0.17 -0.66,-0.26 -1.08,-0.26 -0.34,0 -0.64,0.05 -0.91,0.14 -0.26,0.1 -0.49,0.22 -0.68,0.37 -0.19,0.16 -0.35,0.33 -0.48,0.53 -0.13,0.2 -0.24,0.41 -0.32,0.63l0 3.68c0.1,0.22 0.21,0.42 0.36,0.61 0.14,0.19 0.31,0.35 0.51,0.49 0.2,0.14 0.42,0.25 0.67,0.32 0.25,0.08 0.54,0.12 0.85,0.12 0.41,0 0.76,-0.08 1.06,-0.26 0.3,-0.17 0.55,-0.41 0.74,-0.71 0.2,-0.3 0.34,-0.66 0.43,-1.07 0.09,-0.41 0.14,-0.85 0.14,-1.33l0 -0.16zm2.4 -0.05c0,-0.59 0.09,-1.14 0.26,-1.64 0.17,-0.5 0.42,-0.93 0.73,-1.3 0.32,-0.36 0.7,-0.65 1.15,-0.85 0.45,-0.21 0.94,-0.31 1.49,-0.31 0.56,0 1.06,0.1 1.51,0.31 0.45,0.21 0.83,0.49 1.15,0.85 0.32,0.37 0.56,0.8 0.73,1.3 0.17,0.5 0.26,1.05 0.26,1.64l0 0.25c0,0.59 -0.08,1.14 -0.26,1.64 -0.17,0.5 -0.41,0.94 -0.73,1.3 -0.32,0.36 -0.7,0.65 -1.14,0.85 -0.45,0.2 -0.95,0.31 -1.5,0.31 -0.55,0 -1.05,-0.1 -1.5,-0.31 -0.45,-0.2 -0.83,-0.49 -1.15,-0.85 -0.32,-0.37 -0.57,-0.8 -0.74,-1.3 -0.17,-0.5 -0.26,-1.05 -0.26,-1.64l0 -0.25zm0.9 0.25c0,0.45 0.06,0.87 0.18,1.28 0.12,0.41 0.3,0.76 0.53,1.06 0.23,0.31 0.52,0.55 0.86,0.73 0.34,0.18 0.73,0.27 1.18,0.27 0.44,0 0.83,-0.09 1.17,-0.27 0.34,-0.18 0.62,-0.42 0.86,-0.73 0.23,-0.3 0.41,-0.66 0.53,-1.06 0.12,-0.4 0.18,-0.83 0.18,-1.28l0 -0.25c0,-0.44 -0.06,-0.86 -0.18,-1.26 -0.12,-0.4 -0.3,-0.76 -0.53,-1.06 -0.23,-0.31 -0.52,-0.55 -0.86,-0.74 -0.34,-0.18 -0.74,-0.28 -1.18,-0.28 -0.44,0 -0.83,0.09 -1.17,0.28 -0.34,0.19 -0.62,0.43 -0.85,0.74 -0.23,0.31 -0.41,0.66 -0.53,1.06 -0.12,0.41 -0.18,0.83 -0.18,1.26l0 0.25zm10.71 2.65l2.38 -6.86 0.97 0 -3.45 9.46c-0.07,0.19 -0.16,0.39 -0.27,0.63 -0.11,0.23 -0.25,0.45 -0.42,0.65 -0.17,0.2 -0.39,0.37 -0.65,0.51 -0.26,0.14 -0.57,0.21 -0.95,0.21 -0.05,0 -0.11,-0 -0.17,-0.01 -0.07,-0.01 -0.13,-0.02 -0.2,-0.03 -0.07,-0.01 -0.13,-0.02 -0.19,-0.04 -0.06,-0.01 -0.11,-0.02 -0.14,-0.03l-0.01 -0.75c0.06,0.01 0.14,0.02 0.24,0.03 0.1,0.01 0.18,0.02 0.22,0.02 0.24,0 0.46,-0.03 0.64,-0.1 0.19,-0.06 0.35,-0.15 0.49,-0.28 0.14,-0.12 0.26,-0.28 0.37,-0.46 0.11,-0.19 0.2,-0.4 0.29,-0.64l0.39 -1.08 -3.07 -8.09 0.99 0 2.53 6.86zm9.63 -0.78c0,-0.16 -0.03,-0.33 -0.08,-0.5 -0.06,-0.17 -0.17,-0.32 -0.32,-0.47 -0.16,-0.15 -0.38,-0.29 -0.66,-0.41 -0.28,-0.13 -0.65,-0.24 -1.1,-0.34 -0.45,-0.1 -0.86,-0.21 -1.21,-0.33 -0.35,-0.12 -0.65,-0.28 -0.9,-0.46 -0.24,-0.18 -0.43,-0.39 -0.55,-0.64 -0.13,-0.25 -0.19,-0.53 -0.19,-0.87 0,-0.3 0.07,-0.59 0.2,-0.86 0.13,-0.27 0.32,-0.51 0.57,-0.71 0.25,-0.2 0.55,-0.36 0.9,-0.48 0.35,-0.12 0.75,-0.18 1.2,-0.18 0.47,0 0.89,0.06 1.27,0.19 0.38,0.12 0.69,0.3 0.95,0.51 0.26,0.22 0.46,0.48 0.59,0.77 0.14,0.3 0.21,0.62 0.21,0.96l-0.91 0c0,-0.21 -0.05,-0.42 -0.14,-0.62 -0.09,-0.2 -0.23,-0.38 -0.41,-0.53 -0.18,-0.15 -0.4,-0.28 -0.66,-0.37 -0.26,-0.1 -0.57,-0.14 -0.9,-0.14 -0.35,0 -0.65,0.04 -0.9,0.13 -0.25,0.08 -0.45,0.2 -0.61,0.33 -0.16,0.14 -0.27,0.29 -0.35,0.46 -0.07,0.17 -0.11,0.34 -0.11,0.51 0,0.18 0.03,0.34 0.08,0.49 0.06,0.15 0.16,0.29 0.32,0.41 0.16,0.13 0.38,0.25 0.66,0.35 0.28,0.11 0.65,0.21 1.11,0.32 0.49,0.12 0.92,0.24 1.27,0.39 0.35,0.14 0.65,0.31 0.88,0.5 0.23,0.2 0.41,0.42 0.52,0.66 0.11,0.25 0.17,0.54 0.17,0.86 0,0.34 -0.07,0.64 -0.21,0.92 -0.14,0.28 -0.34,0.52 -0.6,0.71 -0.26,0.2 -0.58,0.35 -0.95,0.46 -0.37,0.11 -0.78,0.17 -1.24,0.17 -0.52,0 -0.97,-0.07 -1.37,-0.2 -0.4,-0.13 -0.73,-0.31 -1,-0.54 -0.27,-0.22 -0.48,-0.49 -0.61,-0.78 -0.14,-0.29 -0.21,-0.6 -0.21,-0.92l0.9 0c0.02,0.32 0.1,0.59 0.25,0.8 0.15,0.21 0.33,0.39 0.54,0.51 0.22,0.13 0.46,0.22 0.72,0.28 0.26,0.06 0.52,0.08 0.78,0.08 0.34,0 0.64,-0.04 0.91,-0.12 0.26,-0.08 0.48,-0.19 0.66,-0.32 0.18,-0.14 0.31,-0.29 0.4,-0.47 0.09,-0.17 0.13,-0.36 0.13,-0.55zm9.84 2.22c-0.53,0 -1.02,-0.1 -1.47,-0.3 -0.45,-0.2 -0.83,-0.48 -1.15,-0.83 -0.32,-0.35 -0.58,-0.78 -0.76,-1.26 -0.18,-0.49 -0.27,-1.02 -0.27,-1.6l0 -0.32c0,-0.63 0.09,-1.2 0.28,-1.71 0.19,-0.51 0.44,-0.94 0.76,-1.3 0.32,-0.36 0.69,-0.64 1.11,-0.83 0.42,-0.2 0.86,-0.3 1.33,-0.3 0.52,0 0.98,0.1 1.38,0.28 0.4,0.19 0.74,0.44 1.01,0.78 0.28,0.33 0.48,0.73 0.62,1.18 0.14,0.46 0.21,0.96 0.21,1.5l0 0.55 -5.82 0 0 0.17c0,0.45 0.07,0.87 0.2,1.26 0.14,0.39 0.33,0.74 0.57,1.03 0.25,0.29 0.54,0.52 0.88,0.69 0.34,0.17 0.72,0.25 1.14,0.25 0.48,0 0.91,-0.09 1.28,-0.26 0.37,-0.17 0.7,-0.46 1.01,-0.84l0.57 0.43c-0.14,0.2 -0.29,0.38 -0.47,0.56 -0.18,0.17 -0.39,0.33 -0.62,0.46 -0.24,0.13 -0.5,0.23 -0.8,0.31 -0.3,0.07 -0.63,0.11 -0.99,0.11zm-0.17 -7.69c-0.34,0 -0.66,0.07 -0.95,0.2 -0.29,0.13 -0.55,0.32 -0.77,0.56 -0.22,0.24 -0.41,0.53 -0.55,0.87 -0.14,0.34 -0.24,0.71 -0.29,1.13l4.89 0 0 -0.1c-0.01,-0.34 -0.06,-0.67 -0.16,-0.99 -0.1,-0.32 -0.25,-0.6 -0.44,-0.85 -0.2,-0.25 -0.43,-0.45 -0.72,-0.59 -0.29,-0.15 -0.62,-0.22 -1,-0.22zm5.84 -0.62l0.03 1.39c0.14,-0.23 0.3,-0.44 0.49,-0.63 0.18,-0.19 0.39,-0.35 0.61,-0.49 0.23,-0.14 0.47,-0.24 0.73,-0.31 0.26,-0.07 0.54,-0.11 0.83,-0.11 0.41,0 0.77,0.06 1.09,0.17 0.32,0.11 0.59,0.29 0.82,0.53 0.22,0.24 0.39,0.55 0.51,0.93 0.12,0.38 0.18,0.84 0.18,1.37l0 5.31 -0.9 0 0 -5.31c0,-0.42 -0.05,-0.77 -0.14,-1.06 -0.09,-0.28 -0.22,-0.51 -0.38,-0.68 -0.17,-0.17 -0.37,-0.29 -0.61,-0.37 -0.24,-0.07 -0.5,-0.11 -0.79,-0.11 -0.32,0 -0.61,0.05 -0.87,0.16 -0.26,0.11 -0.49,0.25 -0.69,0.43 -0.2,0.18 -0.38,0.39 -0.52,0.62 -0.14,0.23 -0.26,0.47 -0.34,0.72l0 5.58 -0.9 0 0 -8.15 0.86 0zm7.26 4c0,-0.63 0.07,-1.21 0.22,-1.72 0.15,-0.51 0.35,-0.94 0.63,-1.31 0.27,-0.36 0.6,-0.64 0.99,-0.84 0.39,-0.2 0.83,-0.3 1.31,-0.3 0.58,0 1.07,0.12 1.49,0.35 0.41,0.23 0.76,0.55 1.03,0.96l0 -4.57 0.89 0 0 11.57 -0.84 0 -0.04 -1.09c-0.27,0.39 -0.61,0.69 -1.03,0.91 -0.42,0.22 -0.92,0.33 -1.51,0.33 -0.48,0 -0.92,-0.1 -1.3,-0.31 -0.39,-0.2 -0.71,-0.49 -0.99,-0.85 -0.27,-0.37 -0.48,-0.8 -0.63,-1.31 -0.14,-0.51 -0.22,-1.07 -0.22,-1.68l0 -0.16zm0.91 0.16c0,0.48 0.05,0.92 0.14,1.33 0.1,0.41 0.24,0.77 0.43,1.07 0.2,0.3 0.45,0.54 0.74,0.71 0.3,0.17 0.65,0.26 1.07,0.26 0.31,0 0.58,-0.04 0.83,-0.11 0.25,-0.07 0.47,-0.17 0.66,-0.3 0.19,-0.13 0.36,-0.29 0.5,-0.47 0.14,-0.18 0.26,-0.38 0.37,-0.59l0 -3.83c-0.09,-0.21 -0.2,-0.4 -0.33,-0.59 -0.13,-0.19 -0.29,-0.36 -0.48,-0.51 -0.19,-0.15 -0.41,-0.26 -0.66,-0.35 -0.25,-0.09 -0.54,-0.13 -0.87,-0.13 -0.42,0 -0.77,0.09 -1.08,0.26 -0.3,0.17 -0.55,0.41 -0.75,0.71 -0.2,0.3 -0.34,0.66 -0.43,1.07 -0.1,0.41 -0.14,0.85 -0.14,1.33l0 0.16zm9.03 3.99l-0.91 0 0 -11.57 0.91 0 0 11.57zm5.61 0.15c-0.53,0 -1.02,-0.1 -1.47,-0.3 -0.45,-0.2 -0.83,-0.48 -1.15,-0.83 -0.32,-0.35 -0.58,-0.78 -0.76,-1.26 -0.18,-0.49 -0.27,-1.02 -0.27,-1.6l0 -0.32c0,-0.63 0.09,-1.2 0.28,-1.71 0.19,-0.51 0.44,-0.94 0.76,-1.3 0.32,-0.36 0.69,-0.64 1.11,-0.83 0.42,-0.2 0.86,-0.3 1.33,-0.3 0.52,0 0.98,0.1 1.38,0.28 0.4,0.19 0.74,0.44 1.01,0.78 0.28,0.33 0.48,0.73 0.62,1.18 0.14,0.46 0.21,0.96 0.21,1.5l0 0.55 -5.82 0 0 0.17c0,0.45 0.07,0.87 0.2,1.26 0.14,0.39 0.33,0.74 0.57,1.03 0.25,0.29 0.54,0.52 0.88,0.69 0.34,0.17 0.72,0.25 1.14,0.25 0.48,0 0.91,-0.09 1.28,-0.26 0.37,-0.17 0.7,-0.46 1.01,-0.84l0.57 0.43c-0.14,0.2 -0.29,0.38 -0.47,0.56 -0.18,0.17 -0.39,0.33 -0.62,0.46 -0.24,0.13 -0.5,0.23 -0.8,0.31 -0.3,0.07 -0.63,0.11 -0.99,0.11zm-0.17 -7.69c-0.34,0 -0.66,0.07 -0.95,0.2 -0.29,0.13 -0.55,0.32 -0.77,0.56 -0.22,0.24 -0.41,0.53 -0.55,0.87 -0.14,0.34 -0.24,0.71 -0.29,1.13l4.89 0 0 -0.1c-0.01,-0.34 -0.06,-0.67 -0.16,-0.99 -0.1,-0.32 -0.25,-0.6 -0.44,-0.85 -0.2,-0.25 -0.43,-0.45 -0.72,-0.59 -0.29,-0.15 -0.62,-0.22 -1,-0.22z"></path> <path class="fil1" d="M305.89 72.96c0,-0.16 -0.03,-0.33 -0.08,-0.5 -0.06,-0.17 -0.17,-0.32 -0.32,-0.47 -0.16,-0.15 -0.38,-0.29 -0.66,-0.41 -0.28,-0.13 -0.65,-0.24 -1.1,-0.34 -0.45,-0.1 -0.86,-0.21 -1.21,-0.33 -0.35,-0.12 -0.65,-0.28 -0.9,-0.46 -0.24,-0.18 -0.43,-0.39 -0.55,-0.64 -0.13,-0.25 -0.19,-0.53 -0.19,-0.87 0,-0.3 0.07,-0.59 0.2,-0.86 0.13,-0.27 0.32,-0.51 0.57,-0.71 0.25,-0.2 0.55,-0.36 0.9,-0.48 0.35,-0.12 0.75,-0.18 1.2,-0.18 0.47,0 0.89,0.06 1.27,0.19 0.38,0.12 0.69,0.3 0.95,0.51 0.26,0.22 0.46,0.48 0.59,0.77 0.14,0.3 0.21,0.62 0.21,0.96l-0.91 0c0,-0.21 -0.05,-0.42 -0.14,-0.62 -0.09,-0.2 -0.23,-0.38 -0.41,-0.53 -0.18,-0.15 -0.4,-0.28 -0.66,-0.37 -0.26,-0.1 -0.57,-0.14 -0.9,-0.14 -0.35,0 -0.65,0.04 -0.9,0.13 -0.25,0.08 -0.45,0.2 -0.61,0.33 -0.16,0.14 -0.27,0.29 -0.35,0.46 -0.07,0.17 -0.11,0.34 -0.11,0.51 0,0.18 0.03,0.34 0.08,0.49 0.06,0.15 0.16,0.29 0.32,0.41 0.16,0.13 0.38,0.25 0.66,0.35 0.28,0.11 0.65,0.21 1.11,0.32 0.49,0.12 0.92,0.24 1.27,0.39 0.35,0.14 0.65,0.31 0.88,0.5 0.23,0.2 0.41,0.42 0.52,0.66 0.11,0.25 0.17,0.54 0.17,0.86 0,0.34 -0.07,0.64 -0.21,0.92 -0.14,0.28 -0.34,0.52 -0.6,0.71 -0.26,0.2 -0.58,0.35 -0.95,0.46 -0.37,0.11 -0.78,0.17 -1.24,0.17 -0.52,0 -0.97,-0.07 -1.37,-0.2 -0.4,-0.13 -0.73,-0.31 -1,-0.54 -0.27,-0.22 -0.48,-0.49 -0.61,-0.78 -0.14,-0.29 -0.21,-0.6 -0.21,-0.92l0.9 0c0.02,0.32 0.1,0.59 0.25,0.8 0.15,0.21 0.33,0.39 0.54,0.51 0.22,0.13 0.46,0.22 0.72,0.28 0.26,0.06 0.52,0.08 0.78,0.08 0.34,0 0.64,-0.04 0.91,-0.12 0.26,-0.08 0.48,-0.19 0.66,-0.32 0.18,-0.14 0.31,-0.29 0.4,-0.47 0.09,-0.17 0.13,-0.36 0.13,-0.55zm7.81 0c0,-0.16 -0.03,-0.33 -0.08,-0.5 -0.06,-0.17 -0.17,-0.32 -0.32,-0.47 -0.16,-0.15 -0.38,-0.29 -0.66,-0.41 -0.28,-0.13 -0.65,-0.24 -1.1,-0.34 -0.45,-0.1 -0.86,-0.21 -1.21,-0.33 -0.35,-0.12 -0.65,-0.28 -0.9,-0.46 -0.24,-0.18 -0.43,-0.39 -0.55,-0.64 -0.13,-0.25 -0.19,-0.53 -0.19,-0.87 0,-0.3 0.07,-0.59 0.2,-0.86 0.13,-0.27 0.32,-0.51 0.57,-0.71 0.25,-0.2 0.55,-0.36 0.9,-0.48 0.35,-0.12 0.75,-0.18 1.2,-0.18 0.47,0 0.89,0.06 1.27,0.19 0.38,0.12 0.69,0.3 0.95,0.51 0.26,0.22 0.46,0.48 0.59,0.77 0.14,0.3 0.21,0.62 0.21,0.96l-0.91 0c0,-0.21 -0.05,-0.42 -0.14,-0.62 -0.09,-0.2 -0.23,-0.38 -0.41,-0.53 -0.18,-0.15 -0.4,-0.28 -0.66,-0.37 -0.26,-0.1 -0.57,-0.14 -0.9,-0.14 -0.35,0 -0.65,0.04 -0.9,0.13 -0.25,0.08 -0.45,0.2 -0.61,0.33 -0.16,0.14 -0.27,0.29 -0.35,0.46 -0.07,0.17 -0.11,0.34 -0.11,0.51 0,0.18 0.03,0.34 0.08,0.49 0.06,0.15 0.16,0.29 0.32,0.41 0.16,0.13 0.38,0.25 0.66,0.35 0.28,0.11 0.65,0.21 1.11,0.32 0.49,0.12 0.92,0.24 1.27,0.39 0.35,0.14 0.65,0.31 0.88,0.5 0.23,0.2 0.41,0.42 0.52,0.66 0.11,0.25 0.17,0.54 0.17,0.86 0,0.34 -0.07,0.64 -0.21,0.92 -0.14,0.28 -0.34,0.52 -0.6,0.71 -0.26,0.2 -0.58,0.35 -0.95,0.46 -0.37,0.11 -0.78,0.17 -1.24,0.17 -0.52,0 -0.97,-0.07 -1.37,-0.2 -0.4,-0.13 -0.73,-0.31 -1,-0.54 -0.27,-0.22 -0.48,-0.49 -0.61,-0.78 -0.14,-0.29 -0.21,-0.6 -0.21,-0.92l0.9 0c0.02,0.32 0.1,0.59 0.25,0.8 0.15,0.21 0.33,0.39 0.54,0.51 0.22,0.13 0.46,0.22 0.72,0.28 0.26,0.06 0.52,0.08 0.78,0.08 0.34,0 0.64,-0.04 0.91,-0.12 0.26,-0.08 0.48,-0.19 0.66,-0.32 0.18,-0.14 0.31,-0.29 0.4,-0.47 0.09,-0.17 0.13,-0.36 0.13,-0.55zm6.32 -2.08c0,-0.63 0.07,-1.21 0.22,-1.72 0.14,-0.51 0.35,-0.94 0.62,-1.31 0.27,-0.36 0.6,-0.64 0.99,-0.84 0.39,-0.2 0.83,-0.3 1.32,-0.3 0.58,0 1.08,0.12 1.5,0.35 0.42,0.23 0.76,0.56 1.03,0.97l0.05 -1.18 0.84 0 0 8.01c0,0.53 -0.08,1 -0.23,1.42 -0.15,0.42 -0.38,0.77 -0.66,1.06 -0.28,0.29 -0.63,0.51 -1.03,0.67 -0.4,0.15 -0.85,0.23 -1.35,0.23 -0.26,0 -0.52,-0.03 -0.78,-0.09 -0.27,-0.06 -0.52,-0.14 -0.77,-0.26 -0.25,-0.12 -0.48,-0.26 -0.7,-0.43 -0.22,-0.17 -0.41,-0.38 -0.58,-0.61l0.5 -0.54c0.33,0.41 0.68,0.7 1.06,0.89 0.37,0.19 0.78,0.28 1.22,0.28 0.39,0 0.73,-0.06 1.03,-0.18 0.3,-0.12 0.55,-0.29 0.76,-0.51 0.21,-0.22 0.36,-0.5 0.47,-0.82 0.11,-0.32 0.16,-0.68 0.16,-1.09l0 -0.95c-0.27,0.38 -0.62,0.67 -1.03,0.88 -0.42,0.21 -0.91,0.32 -1.49,0.32 -0.49,0 -0.92,-0.1 -1.31,-0.31 -0.39,-0.2 -0.71,-0.49 -0.99,-0.85 -0.27,-0.37 -0.48,-0.8 -0.62,-1.31 -0.14,-0.51 -0.22,-1.07 -0.22,-1.68l0 -0.16zm0.91 0.16c0,0.48 0.05,0.92 0.14,1.33 0.1,0.41 0.24,0.77 0.43,1.07 0.2,0.3 0.45,0.54 0.74,0.71 0.3,0.17 0.65,0.26 1.07,0.26 0.31,0 0.59,-0.04 0.84,-0.11 0.25,-0.07 0.47,-0.18 0.66,-0.31 0.19,-0.13 0.35,-0.29 0.5,-0.47 0.14,-0.18 0.26,-0.38 0.36,-0.59l0 -3.79c-0.09,-0.21 -0.2,-0.41 -0.33,-0.61 -0.13,-0.19 -0.29,-0.36 -0.48,-0.51 -0.19,-0.15 -0.41,-0.26 -0.66,-0.35 -0.25,-0.09 -0.54,-0.13 -0.87,-0.13 -0.42,0 -0.77,0.09 -1.08,0.26 -0.3,0.17 -0.55,0.41 -0.75,0.71 -0.2,0.3 -0.34,0.66 -0.43,1.07 -0.1,0.41 -0.14,0.85 -0.14,1.33l0 0.16zm13.15 3.99c-0.05,-0.14 -0.09,-0.31 -0.12,-0.52 -0.03,-0.2 -0.05,-0.41 -0.06,-0.62 -0.14,0.17 -0.3,0.34 -0.48,0.5 -0.19,0.15 -0.39,0.29 -0.63,0.41 -0.23,0.12 -0.48,0.21 -0.76,0.28 -0.28,0.07 -0.58,0.11 -0.9,0.11 -0.4,0 -0.76,-0.06 -1.08,-0.17 -0.32,-0.12 -0.6,-0.28 -0.83,-0.49 -0.23,-0.21 -0.41,-0.45 -0.53,-0.73 -0.13,-0.28 -0.19,-0.59 -0.19,-0.92 0,-0.4 0.09,-0.75 0.26,-1.07 0.17,-0.32 0.42,-0.59 0.74,-0.82 0.32,-0.22 0.71,-0.39 1.17,-0.51 0.46,-0.12 0.98,-0.18 1.55,-0.18l1.67 0 0 -0.93c0,-0.58 -0.18,-1.04 -0.54,-1.38 -0.36,-0.33 -0.88,-0.5 -1.57,-0.5 -0.32,0 -0.61,0.04 -0.87,0.13 -0.27,0.08 -0.5,0.2 -0.69,0.35 -0.19,0.15 -0.34,0.32 -0.45,0.52 -0.11,0.2 -0.16,0.41 -0.16,0.64l-0.91 -0.01c0,-0.31 0.07,-0.6 0.23,-0.89 0.15,-0.29 0.36,-0.54 0.64,-0.76 0.27,-0.22 0.6,-0.4 0.99,-0.54 0.39,-0.14 0.81,-0.21 1.28,-0.21 0.43,0 0.83,0.06 1.19,0.17 0.37,0.11 0.68,0.28 0.94,0.5 0.26,0.22 0.47,0.5 0.61,0.83 0.15,0.33 0.22,0.72 0.22,1.16l0 3.95c0,0.14 0.01,0.29 0.02,0.44 0.01,0.15 0.03,0.3 0.05,0.44 0.02,0.14 0.05,0.28 0.08,0.4 0.03,0.13 0.06,0.24 0.11,0.34l0 0.09 -0.96 0zm-2.83 -0.65c0.33,0 0.63,-0.04 0.91,-0.12 0.28,-0.08 0.53,-0.2 0.76,-0.34 0.23,-0.14 0.42,-0.31 0.59,-0.51 0.17,-0.2 0.3,-0.4 0.4,-0.63l0 -1.79 -1.55 0c-0.46,0 -0.87,0.04 -1.24,0.12 -0.36,0.08 -0.67,0.2 -0.92,0.36 -0.25,0.16 -0.44,0.34 -0.58,0.57 -0.13,0.22 -0.2,0.48 -0.2,0.76 0,0.22 0.04,0.43 0.13,0.62 0.09,0.19 0.21,0.36 0.37,0.5 0.16,0.14 0.35,0.25 0.58,0.34 0.22,0.08 0.48,0.12 0.76,0.12zm6.77 -7.5l0.03 1.33c0.14,-0.22 0.29,-0.42 0.47,-0.61 0.18,-0.18 0.38,-0.34 0.6,-0.47 0.22,-0.13 0.46,-0.23 0.72,-0.3 0.26,-0.07 0.54,-0.11 0.85,-0.11 0.6,0 1.11,0.13 1.54,0.38 0.43,0.25 0.73,0.65 0.91,1.21 0.13,-0.23 0.29,-0.44 0.47,-0.63 0.18,-0.19 0.39,-0.36 0.63,-0.5 0.23,-0.14 0.49,-0.25 0.77,-0.33 0.28,-0.08 0.59,-0.12 0.91,-0.12 0.42,0 0.8,0.06 1.13,0.17 0.33,0.11 0.61,0.29 0.84,0.53 0.23,0.24 0.4,0.56 0.52,0.93 0.12,0.38 0.18,0.83 0.18,1.36l0 5.31 -0.91 0 0 -5.32c0,-0.43 -0.05,-0.79 -0.14,-1.08 -0.1,-0.28 -0.23,-0.51 -0.41,-0.68 -0.17,-0.17 -0.39,-0.28 -0.63,-0.35 -0.24,-0.06 -0.51,-0.1 -0.8,-0.1 -0.38,0.01 -0.72,0.07 -1,0.21 -0.29,0.13 -0.53,0.3 -0.73,0.5 -0.2,0.2 -0.35,0.43 -0.46,0.68 -0.11,0.25 -0.17,0.5 -0.2,0.73l0 5.4 -0.91 0 0 -5.39c0,-0.41 -0.05,-0.75 -0.14,-1.02 -0.1,-0.27 -0.23,-0.49 -0.41,-0.66 -0.18,-0.17 -0.39,-0.29 -0.63,-0.35 -0.24,-0.07 -0.51,-0.11 -0.81,-0.11 -0.34,0 -0.64,0.05 -0.91,0.16 -0.26,0.11 -0.49,0.25 -0.68,0.43 -0.19,0.18 -0.35,0.39 -0.48,0.62 -0.13,0.23 -0.23,0.47 -0.3,0.71l0 5.59 -0.9 0 0 -8.15 0.86 0zm16.01 8.3c-0.53,0 -1.02,-0.1 -1.47,-0.3 -0.45,-0.2 -0.83,-0.48 -1.15,-0.83 -0.32,-0.35 -0.58,-0.78 -0.76,-1.26 -0.18,-0.49 -0.27,-1.02 -0.27,-1.6l0 -0.32c0,-0.63 0.09,-1.2 0.28,-1.71 0.19,-0.51 0.44,-0.94 0.76,-1.3 0.32,-0.36 0.69,-0.64 1.11,-0.83 0.42,-0.2 0.86,-0.3 1.33,-0.3 0.52,0 0.98,0.1 1.38,0.28 0.4,0.19 0.74,0.44 1.01,0.78 0.28,0.33 0.48,0.73 0.62,1.18 0.14,0.46 0.21,0.96 0.21,1.5l0 0.55 -5.82 0 0 0.17c0,0.45 0.07,0.87 0.2,1.26 0.14,0.39 0.33,0.74 0.57,1.03 0.25,0.29 0.54,0.52 0.88,0.69 0.34,0.17 0.72,0.25 1.14,0.25 0.48,0 0.91,-0.09 1.28,-0.26 0.37,-0.17 0.7,-0.46 1.01,-0.84l0.57 0.43c-0.14,0.2 -0.29,0.38 -0.47,0.56 -0.18,0.17 -0.39,0.33 -0.62,0.46 -0.24,0.13 -0.5,0.23 -0.8,0.31 -0.3,0.07 -0.63,0.11 -0.99,0.11zm-0.17 -7.69c-0.34,0 -0.66,0.07 -0.95,0.2 -0.29,0.13 -0.55,0.32 -0.77,0.56 -0.22,0.24 -0.41,0.53 -0.55,0.87 -0.14,0.34 -0.24,0.71 -0.29,1.13l4.89 0 0 -0.1c-0.01,-0.34 -0.06,-0.67 -0.16,-0.99 -0.1,-0.32 -0.25,-0.6 -0.44,-0.85 -0.2,-0.25 -0.43,-0.45 -0.72,-0.59 -0.29,-0.15 -0.62,-0.22 -1,-0.22zm5.85 7.17c0,0.23 -0.02,0.45 -0.07,0.68 -0.05,0.23 -0.12,0.44 -0.21,0.65 -0.09,0.21 -0.2,0.4 -0.33,0.58 -0.13,0.18 -0.28,0.35 -0.44,0.5l-0.53 -0.39c0.23,-0.31 0.41,-0.63 0.53,-0.94 0.12,-0.31 0.18,-0.67 0.18,-1.07l0 -1.07 0.88 0 0 1.05zm-128 19.03c-0.53,0 -1.02,-0.1 -1.47,-0.3 -0.45,-0.2 -0.83,-0.48 -1.15,-0.83 -0.32,-0.35 -0.58,-0.78 -0.76,-1.26 -0.18,-0.49 -0.27,-1.02 -0.27,-1.6l0 -0.32c0,-0.63 0.09,-1.2 0.28,-1.71 0.19,-0.51 0.44,-0.94 0.76,-1.3 0.32,-0.36 0.69,-0.64 1.11,-0.83 0.42,-0.2 0.86,-0.3 1.33,-0.3 0.52,0 0.98,0.1 1.38,0.28 0.4,0.19 0.74,0.44 1.01,0.78 0.28,0.33 0.48,0.73 0.62,1.18 0.14,0.46 0.21,0.96 0.21,1.5l0 0.55 -5.82 0 0 0.17c0,0.45 0.07,0.87 0.2,1.26 0.14,0.39 0.33,0.74 0.57,1.03 0.25,0.29 0.54,0.52 0.88,0.69 0.34,0.17 0.72,0.25 1.14,0.25 0.48,0 0.91,-0.09 1.28,-0.26 0.37,-0.17 0.7,-0.46 1.01,-0.84l0.57 0.43c-0.14,0.2 -0.29,0.38 -0.47,0.56 -0.18,0.17 -0.39,0.33 -0.62,0.46 -0.24,0.13 -0.5,0.23 -0.8,0.31 -0.3,0.07 -0.63,0.11 -0.99,0.11zm-0.17 -7.69c-0.34,0 -0.66,0.07 -0.95,0.2 -0.29,0.13 -0.55,0.32 -0.77,0.56 -0.22,0.24 -0.41,0.53 -0.55,0.87 -0.14,0.34 -0.24,0.71 -0.29,1.13l4.89 0 0 -0.1c-0.01,-0.34 -0.06,-0.67 -0.16,-0.99 -0.1,-0.32 -0.25,-0.6 -0.44,-0.85 -0.2,-0.25 -0.43,-0.45 -0.72,-0.59 -0.29,-0.15 -0.62,-0.22 -1,-0.22zm5.84 -0.62l0.03 1.39c0.14,-0.23 0.3,-0.44 0.49,-0.63 0.18,-0.19 0.39,-0.35 0.61,-0.49 0.23,-0.14 0.47,-0.24 0.73,-0.31 0.26,-0.07 0.54,-0.11 0.83,-0.11 0.41,0 0.77,0.06 1.09,0.17 0.32,0.11 0.59,0.29 0.82,0.53 0.22,0.24 0.39,0.55 0.51,0.93 0.12,0.38 0.18,0.84 0.18,1.37l0 5.31 -0.9 0 0 -5.31c0,-0.42 -0.05,-0.77 -0.14,-1.06 -0.09,-0.28 -0.22,-0.51 -0.38,-0.68 -0.17,-0.17 -0.37,-0.29 -0.61,-0.37 -0.24,-0.07 -0.5,-0.11 -0.79,-0.11 -0.32,0 -0.61,0.05 -0.87,0.16 -0.26,0.11 -0.49,0.25 -0.69,0.43 -0.2,0.18 -0.38,0.39 -0.52,0.62 -0.14,0.23 -0.26,0.47 -0.34,0.72l0 5.58 -0.9 0 0 -8.15 0.86 0zm7.26 4c0,-0.63 0.07,-1.21 0.22,-1.72 0.15,-0.51 0.35,-0.94 0.63,-1.31 0.27,-0.36 0.6,-0.64 0.99,-0.84 0.39,-0.2 0.83,-0.3 1.31,-0.3 0.58,0 1.07,0.12 1.49,0.35 0.41,0.23 0.76,0.55 1.03,0.96l0 -4.57 0.89 0 0 11.57 -0.84 0 -0.04 -1.09c-0.27,0.39 -0.61,0.69 -1.03,0.91 -0.42,0.22 -0.92,0.33 -1.51,0.33 -0.48,0 -0.92,-0.1 -1.3,-0.31 -0.39,-0.2 -0.71,-0.49 -0.99,-0.85 -0.27,-0.37 -0.48,-0.8 -0.63,-1.31 -0.14,-0.51 -0.22,-1.07 -0.22,-1.68l0 -0.16zm0.91 0.16c0,0.48 0.05,0.92 0.14,1.33 0.1,0.41 0.24,0.77 0.43,1.07 0.2,0.3 0.45,0.54 0.74,0.71 0.3,0.17 0.65,0.26 1.07,0.26 0.31,0 0.58,-0.04 0.83,-0.11 0.25,-0.07 0.47,-0.17 0.66,-0.3 0.19,-0.13 0.36,-0.29 0.5,-0.47 0.14,-0.18 0.26,-0.38 0.37,-0.59l0 -3.83c-0.09,-0.21 -0.2,-0.4 -0.33,-0.59 -0.13,-0.19 -0.29,-0.36 -0.48,-0.51 -0.19,-0.15 -0.41,-0.26 -0.66,-0.35 -0.25,-0.09 -0.54,-0.13 -0.87,-0.13 -0.42,0 -0.77,0.09 -1.08,0.26 -0.3,0.17 -0.55,0.41 -0.75,0.71 -0.2,0.3 -0.34,0.66 -0.43,1.07 -0.1,0.41 -0.14,0.85 -0.14,1.33l0 0.16zm9.03 3.99l-0.91 0 0 -11.57 0.91 0 0 11.57zm5.61 0.15c-0.53,0 -1.02,-0.1 -1.47,-0.3 -0.45,-0.2 -0.83,-0.48 -1.15,-0.83 -0.32,-0.35 -0.58,-0.78 -0.76,-1.26 -0.18,-0.49 -0.27,-1.02 -0.27,-1.6l0 -0.32c0,-0.63 0.09,-1.2 0.28,-1.71 0.19,-0.51 0.44,-0.94 0.76,-1.3 0.32,-0.36 0.69,-0.64 1.11,-0.83 0.42,-0.2 0.86,-0.3 1.33,-0.3 0.52,0 0.98,0.1 1.38,0.28 0.4,0.19 0.74,0.44 1.01,0.78 0.28,0.33 0.48,0.73 0.62,1.18 0.14,0.46 0.21,0.96 0.21,1.5l0 0.55 -5.82 0 0 0.17c0,0.45 0.07,0.87 0.2,1.26 0.14,0.39 0.33,0.74 0.57,1.03 0.25,0.29 0.54,0.52 0.88,0.69 0.34,0.17 0.72,0.25 1.14,0.25 0.48,0 0.91,-0.09 1.28,-0.26 0.37,-0.17 0.7,-0.46 1.01,-0.84l0.57 0.43c-0.14,0.2 -0.29,0.38 -0.47,0.56 -0.18,0.17 -0.39,0.33 -0.62,0.46 -0.24,0.13 -0.5,0.23 -0.8,0.31 -0.3,0.07 -0.63,0.11 -0.99,0.11zm-0.17 -7.69c-0.34,0 -0.66,0.07 -0.95,0.2 -0.29,0.13 -0.55,0.32 -0.77,0.56 -0.22,0.24 -0.41,0.53 -0.55,0.87 -0.14,0.34 -0.24,0.71 -0.29,1.13l4.89 0 0 -0.1c-0.01,-0.34 -0.06,-0.67 -0.16,-0.99 -0.1,-0.32 -0.25,-0.6 -0.44,-0.85 -0.2,-0.25 -0.43,-0.45 -0.72,-0.59 -0.29,-0.15 -0.62,-0.22 -1,-0.22zm9.86 5.46c0,-0.16 -0.03,-0.33 -0.08,-0.5 -0.06,-0.17 -0.17,-0.32 -0.32,-0.47 -0.16,-0.15 -0.38,-0.29 -0.66,-0.41 -0.28,-0.13 -0.65,-0.24 -1.1,-0.34 -0.45,-0.1 -0.86,-0.21 -1.21,-0.33 -0.35,-0.12 -0.65,-0.28 -0.9,-0.46 -0.24,-0.18 -0.43,-0.39 -0.55,-0.64 -0.13,-0.25 -0.19,-0.53 -0.19,-0.87 0,-0.3 0.07,-0.59 0.2,-0.86 0.13,-0.27 0.32,-0.51 0.57,-0.71 0.25,-0.2 0.55,-0.36 0.9,-0.48 0.35,-0.12 0.75,-0.18 1.2,-0.18 0.47,0 0.89,0.06 1.27,0.19 0.38,0.12 0.69,0.3 0.95,0.51 0.26,0.22 0.46,0.48 0.59,0.77 0.14,0.3 0.21,0.62 0.21,0.96l-0.91 0c0,-0.21 -0.05,-0.42 -0.14,-0.62 -0.09,-0.2 -0.23,-0.38 -0.41,-0.53 -0.18,-0.15 -0.4,-0.28 -0.66,-0.37 -0.26,-0.1 -0.57,-0.14 -0.9,-0.14 -0.35,0 -0.65,0.04 -0.9,0.13 -0.25,0.08 -0.45,0.2 -0.61,0.33 -0.16,0.14 -0.27,0.29 -0.35,0.46 -0.07,0.17 -0.11,0.34 -0.11,0.51 0,0.18 0.03,0.34 0.08,0.49 0.06,0.15 0.16,0.29 0.32,0.41 0.16,0.13 0.38,0.25 0.66,0.35 0.28,0.11 0.65,0.21 1.11,0.32 0.49,0.12 0.92,0.24 1.27,0.39 0.35,0.14 0.65,0.31 0.88,0.5 0.23,0.2 0.41,0.42 0.52,0.66 0.11,0.25 0.17,0.54 0.17,0.86 0,0.34 -0.07,0.64 -0.21,0.92 -0.14,0.28 -0.34,0.52 -0.6,0.71 -0.26,0.2 -0.58,0.35 -0.95,0.46 -0.37,0.11 -0.78,0.17 -1.24,0.17 -0.52,0 -0.97,-0.07 -1.37,-0.2 -0.4,-0.13 -0.73,-0.31 -1,-0.54 -0.27,-0.22 -0.48,-0.49 -0.61,-0.78 -0.14,-0.29 -0.21,-0.6 -0.21,-0.92l0.9 0c0.02,0.32 0.1,0.59 0.25,0.8 0.15,0.21 0.33,0.39 0.54,0.51 0.22,0.13 0.46,0.22 0.72,0.28 0.26,0.06 0.52,0.08 0.78,0.08 0.34,0 0.64,-0.04 0.91,-0.12 0.26,-0.08 0.48,-0.19 0.66,-0.32 0.18,-0.14 0.31,-0.29 0.4,-0.47 0.09,-0.17 0.13,-0.36 0.13,-0.55zm7.81 0c0,-0.16 -0.03,-0.33 -0.08,-0.5 -0.06,-0.17 -0.17,-0.32 -0.32,-0.47 -0.16,-0.15 -0.38,-0.29 -0.66,-0.41 -0.28,-0.13 -0.65,-0.24 -1.1,-0.34 -0.45,-0.1 -0.86,-0.21 -1.21,-0.33 -0.35,-0.12 -0.65,-0.28 -0.9,-0.46 -0.24,-0.18 -0.43,-0.39 -0.55,-0.64 -0.13,-0.25 -0.19,-0.53 -0.19,-0.87 0,-0.3 0.07,-0.59 0.2,-0.86 0.13,-0.27 0.32,-0.51 0.57,-0.71 0.25,-0.2 0.55,-0.36 0.9,-0.48 0.35,-0.12 0.75,-0.18 1.2,-0.18 0.47,0 0.89,0.06 1.27,0.19 0.38,0.12 0.69,0.3 0.95,0.51 0.26,0.22 0.46,0.48 0.59,0.77 0.14,0.3 0.21,0.62 0.21,0.96l-0.91 0c0,-0.21 -0.05,-0.42 -0.14,-0.62 -0.09,-0.2 -0.23,-0.38 -0.41,-0.53 -0.18,-0.15 -0.4,-0.28 -0.66,-0.37 -0.26,-0.1 -0.57,-0.14 -0.9,-0.14 -0.35,0 -0.65,0.04 -0.9,0.13 -0.25,0.08 -0.45,0.2 -0.61,0.33 -0.16,0.14 -0.27,0.29 -0.35,0.46 -0.07,0.17 -0.11,0.34 -0.11,0.51 0,0.18 0.03,0.34 0.08,0.49 0.06,0.15 0.16,0.29 0.32,0.41 0.16,0.13 0.38,0.25 0.66,0.35 0.28,0.11 0.65,0.21 1.11,0.32 0.49,0.12 0.92,0.24 1.27,0.39 0.35,0.14 0.65,0.31 0.88,0.5 0.23,0.2 0.41,0.42 0.52,0.66 0.11,0.25 0.17,0.54 0.17,0.86 0,0.34 -0.07,0.64 -0.21,0.92 -0.14,0.28 -0.34,0.52 -0.6,0.71 -0.26,0.2 -0.58,0.35 -0.95,0.46 -0.37,0.11 -0.78,0.17 -1.24,0.17 -0.52,0 -0.97,-0.07 -1.37,-0.2 -0.4,-0.13 -0.73,-0.31 -1,-0.54 -0.27,-0.22 -0.48,-0.49 -0.61,-0.78 -0.14,-0.29 -0.21,-0.6 -0.21,-0.92l0.9 0c0.02,0.32 0.1,0.59 0.25,0.8 0.15,0.21 0.33,0.39 0.54,0.51 0.22,0.13 0.46,0.22 0.72,0.28 0.26,0.06 0.52,0.08 0.78,0.08 0.34,0 0.64,-0.04 0.91,-0.12 0.26,-0.08 0.48,-0.19 0.66,-0.32 0.18,-0.14 0.31,-0.29 0.4,-0.47 0.09,-0.17 0.13,-0.36 0.13,-0.55zm6.32 -2.08c0,-0.63 0.07,-1.21 0.22,-1.72 0.14,-0.51 0.35,-0.94 0.62,-1.31 0.27,-0.36 0.6,-0.64 0.99,-0.84 0.39,-0.2 0.83,-0.3 1.32,-0.3 0.58,0 1.08,0.12 1.5,0.35 0.42,0.23 0.76,0.56 1.03,0.97l0.05 -1.18 0.84 0 0 8.01c0,0.53 -0.08,1 -0.23,1.42 -0.15,0.42 -0.38,0.77 -0.66,1.06 -0.28,0.29 -0.63,0.51 -1.03,0.67 -0.4,0.15 -0.85,0.23 -1.35,0.23 -0.26,0 -0.52,-0.03 -0.78,-0.09 -0.27,-0.06 -0.52,-0.14 -0.77,-0.26 -0.25,-0.12 -0.48,-0.26 -0.7,-0.43 -0.22,-0.17 -0.41,-0.38 -0.58,-0.61l0.5 -0.54c0.33,0.41 0.68,0.7 1.06,0.89 0.37,0.19 0.78,0.28 1.22,0.28 0.39,0 0.73,-0.06 1.03,-0.18 0.3,-0.12 0.55,-0.29 0.76,-0.51 0.21,-0.22 0.36,-0.5 0.47,-0.82 0.11,-0.32 0.16,-0.68 0.16,-1.09l0 -0.95c-0.27,0.38 -0.62,0.67 -1.03,0.88 -0.42,0.21 -0.91,0.32 -1.49,0.32 -0.49,0 -0.92,-0.1 -1.31,-0.31 -0.39,-0.2 -0.71,-0.49 -0.99,-0.85 -0.27,-0.37 -0.48,-0.8 -0.62,-1.31 -0.14,-0.51 -0.22,-1.07 -0.22,-1.68l0 -0.16zm0.91 0.16c0,0.48 0.05,0.92 0.14,1.33 0.1,0.41 0.24,0.77 0.43,1.07 0.2,0.3 0.45,0.54 0.74,0.71 0.3,0.17 0.65,0.26 1.07,0.26 0.31,0 0.59,-0.04 0.84,-0.11 0.25,-0.07 0.47,-0.18 0.66,-0.31 0.19,-0.13 0.35,-0.29 0.5,-0.47 0.14,-0.18 0.26,-0.38 0.36,-0.59l0 -3.79c-0.09,-0.21 -0.2,-0.41 -0.33,-0.61 -0.13,-0.19 -0.29,-0.36 -0.48,-0.51 -0.19,-0.15 -0.41,-0.26 -0.66,-0.35 -0.25,-0.09 -0.54,-0.13 -0.87,-0.13 -0.42,0 -0.77,0.09 -1.08,0.26 -0.3,0.17 -0.55,0.41 -0.75,0.71 -0.2,0.3 -0.34,0.66 -0.43,1.07 -0.1,0.41 -0.14,0.85 -0.14,1.33l0 0.16z"></path> <path class="fil1" d="M298.11 93.55c-0.05,-0.14 -0.09,-0.31 -0.12,-0.52 -0.03,-0.2 -0.05,-0.41 -0.06,-0.62 -0.14,0.17 -0.3,0.34 -0.48,0.5 -0.19,0.15 -0.39,0.29 -0.63,0.41 -0.23,0.12 -0.48,0.21 -0.76,0.28 -0.28,0.07 -0.58,0.11 -0.9,0.11 -0.4,0 -0.76,-0.06 -1.08,-0.17 -0.32,-0.12 -0.6,-0.28 -0.83,-0.49 -0.23,-0.21 -0.41,-0.45 -0.53,-0.73 -0.13,-0.28 -0.19,-0.59 -0.19,-0.92 0,-0.4 0.09,-0.75 0.26,-1.07 0.17,-0.32 0.42,-0.59 0.74,-0.82 0.32,-0.22 0.71,-0.39 1.17,-0.51 0.46,-0.12 0.98,-0.18 1.55,-0.18l1.67 0 0 -0.93c0,-0.58 -0.18,-1.04 -0.54,-1.38 -0.36,-0.33 -0.88,-0.5 -1.57,-0.5 -0.32,0 -0.61,0.04 -0.87,0.13 -0.27,0.08 -0.5,0.2 -0.69,0.35 -0.19,0.15 -0.34,0.32 -0.45,0.52 -0.11,0.2 -0.16,0.41 -0.16,0.64l-0.91 -0.01c0,-0.31 0.07,-0.6 0.23,-0.89 0.15,-0.29 0.36,-0.54 0.64,-0.76 0.27,-0.22 0.6,-0.4 0.99,-0.54 0.39,-0.14 0.81,-0.21 1.28,-0.21 0.43,0 0.83,0.06 1.19,0.17 0.37,0.11 0.68,0.28 0.94,0.5 0.26,0.22 0.47,0.5 0.61,0.83 0.15,0.33 0.22,0.72 0.22,1.16l0 3.95c0,0.14 0.01,0.29 0.02,0.44 0.01,0.15 0.03,0.3 0.05,0.44 0.02,0.14 0.05,0.28 0.08,0.4 0.03,0.13 0.06,0.24 0.11,0.34l0 0.09 -0.96 0zm-2.83 -0.65c0.33,0 0.63,-0.04 0.91,-0.12 0.28,-0.08 0.53,-0.2 0.76,-0.34 0.23,-0.14 0.42,-0.31 0.59,-0.51 0.17,-0.2 0.3,-0.4 0.4,-0.63l0 -1.79 -1.55 0c-0.46,0 -0.87,0.04 -1.24,0.12 -0.36,0.08 -0.67,0.2 -0.92,0.36 -0.25,0.16 -0.44,0.34 -0.58,0.57 -0.13,0.22 -0.2,0.48 -0.2,0.76 0,0.22 0.04,0.43 0.13,0.62 0.09,0.19 0.21,0.36 0.37,0.5 0.16,0.14 0.35,0.25 0.58,0.34 0.22,0.08 0.48,0.12 0.76,0.12zm6.77 -7.5l0.03 1.33c0.14,-0.22 0.29,-0.42 0.47,-0.61 0.18,-0.18 0.38,-0.34 0.6,-0.47 0.22,-0.13 0.46,-0.23 0.72,-0.3 0.26,-0.07 0.54,-0.11 0.85,-0.11 0.6,0 1.11,0.13 1.54,0.38 0.43,0.25 0.73,0.65 0.91,1.21 0.13,-0.23 0.29,-0.44 0.47,-0.63 0.18,-0.19 0.39,-0.36 0.63,-0.5 0.23,-0.14 0.49,-0.25 0.77,-0.33 0.28,-0.08 0.59,-0.12 0.91,-0.12 0.42,0 0.8,0.06 1.13,0.17 0.33,0.11 0.61,0.29 0.84,0.53 0.23,0.24 0.4,0.56 0.52,0.93 0.12,0.38 0.18,0.83 0.18,1.36l0 5.31 -0.91 0 0 -5.32c0,-0.43 -0.05,-0.79 -0.14,-1.08 -0.1,-0.28 -0.23,-0.51 -0.41,-0.68 -0.17,-0.17 -0.39,-0.28 -0.63,-0.35 -0.24,-0.06 -0.51,-0.1 -0.8,-0.1 -0.38,0.01 -0.72,0.07 -1,0.21 -0.29,0.13 -0.53,0.3 -0.73,0.5 -0.2,0.2 -0.35,0.43 -0.46,0.68 -0.11,0.25 -0.17,0.5 -0.2,0.73l0 5.4 -0.91 0 0 -5.39c0,-0.41 -0.05,-0.75 -0.14,-1.02 -0.1,-0.27 -0.23,-0.49 -0.41,-0.66 -0.18,-0.17 -0.39,-0.29 -0.63,-0.35 -0.24,-0.07 -0.51,-0.11 -0.81,-0.11 -0.34,0 -0.64,0.05 -0.91,0.16 -0.26,0.11 -0.49,0.25 -0.68,0.43 -0.19,0.18 -0.35,0.39 -0.48,0.62 -0.13,0.23 -0.23,0.47 -0.3,0.71l0 5.59 -0.9 0 0 -8.15 0.86 0zm16.01 8.3c-0.53,0 -1.02,-0.1 -1.47,-0.3 -0.45,-0.2 -0.83,-0.48 -1.15,-0.83 -0.32,-0.35 -0.58,-0.78 -0.76,-1.26 -0.18,-0.49 -0.27,-1.02 -0.27,-1.6l0 -0.32c0,-0.63 0.09,-1.2 0.28,-1.71 0.19,-0.51 0.44,-0.94 0.76,-1.3 0.32,-0.36 0.69,-0.64 1.11,-0.83 0.42,-0.2 0.86,-0.3 1.33,-0.3 0.52,0 0.98,0.1 1.38,0.28 0.4,0.19 0.74,0.44 1.01,0.78 0.28,0.33 0.48,0.73 0.62,1.18 0.14,0.46 0.21,0.96 0.21,1.5l0 0.55 -5.82 0 0 0.17c0,0.45 0.07,0.87 0.2,1.26 0.14,0.39 0.33,0.74 0.57,1.03 0.25,0.29 0.54,0.52 0.88,0.69 0.34,0.17 0.72,0.25 1.14,0.25 0.48,0 0.91,-0.09 1.28,-0.26 0.37,-0.17 0.7,-0.46 1.01,-0.84l0.57 0.43c-0.14,0.2 -0.29,0.38 -0.47,0.56 -0.18,0.17 -0.39,0.33 -0.62,0.46 -0.24,0.13 -0.5,0.23 -0.8,0.31 -0.3,0.07 -0.63,0.11 -0.99,0.11zm-0.17 -7.69c-0.34,0 -0.66,0.07 -0.95,0.2 -0.29,0.13 -0.55,0.32 -0.77,0.56 -0.22,0.24 -0.41,0.53 -0.55,0.87 -0.14,0.34 -0.24,0.71 -0.29,1.13l4.89 0 0 -0.1c-0.01,-0.34 -0.06,-0.67 -0.16,-0.99 -0.1,-0.32 -0.25,-0.6 -0.44,-0.85 -0.2,-0.25 -0.43,-0.45 -0.72,-0.59 -0.29,-0.15 -0.62,-0.22 -1,-0.22zm9.86 5.46c0,-0.16 -0.03,-0.33 -0.08,-0.5 -0.06,-0.17 -0.17,-0.32 -0.32,-0.47 -0.16,-0.15 -0.38,-0.29 -0.66,-0.41 -0.28,-0.13 -0.65,-0.24 -1.1,-0.34 -0.45,-0.1 -0.86,-0.21 -1.21,-0.33 -0.35,-0.12 -0.65,-0.28 -0.9,-0.46 -0.24,-0.18 -0.43,-0.39 -0.55,-0.64 -0.13,-0.25 -0.19,-0.53 -0.19,-0.87 0,-0.3 0.07,-0.59 0.2,-0.86 0.13,-0.27 0.32,-0.51 0.57,-0.71 0.25,-0.2 0.55,-0.36 0.9,-0.48 0.35,-0.12 0.75,-0.18 1.2,-0.18 0.47,0 0.89,0.06 1.27,0.19 0.38,0.12 0.69,0.3 0.95,0.51 0.26,0.22 0.46,0.48 0.59,0.77 0.14,0.3 0.21,0.62 0.21,0.96l-0.91 0c0,-0.21 -0.05,-0.42 -0.14,-0.62 -0.09,-0.2 -0.23,-0.38 -0.41,-0.53 -0.18,-0.15 -0.4,-0.28 -0.66,-0.37 -0.26,-0.1 -0.57,-0.14 -0.9,-0.14 -0.35,0 -0.65,0.04 -0.9,0.13 -0.25,0.08 -0.45,0.2 -0.61,0.33 -0.16,0.14 -0.27,0.29 -0.35,0.46 -0.07,0.17 -0.11,0.34 -0.11,0.51 0,0.18 0.03,0.34 0.08,0.49 0.06,0.15 0.16,0.29 0.32,0.41 0.16,0.13 0.38,0.25 0.66,0.35 0.28,0.11 0.65,0.21 1.11,0.32 0.49,0.12 0.92,0.24 1.27,0.39 0.35,0.14 0.65,0.31 0.88,0.5 0.23,0.2 0.41,0.42 0.52,0.66 0.11,0.25 0.17,0.54 0.17,0.86 0,0.34 -0.07,0.64 -0.21,0.92 -0.14,0.28 -0.34,0.52 -0.6,0.71 -0.26,0.2 -0.58,0.35 -0.95,0.46 -0.37,0.11 -0.78,0.17 -1.24,0.17 -0.52,0 -0.97,-0.07 -1.37,-0.2 -0.4,-0.13 -0.73,-0.31 -1,-0.54 -0.27,-0.22 -0.48,-0.49 -0.61,-0.78 -0.14,-0.29 -0.21,-0.6 -0.21,-0.92l0.9 0c0.02,0.32 0.1,0.59 0.25,0.8 0.15,0.21 0.33,0.39 0.54,0.51 0.22,0.13 0.46,0.22 0.72,0.28 0.26,0.06 0.52,0.08 0.78,0.08 0.34,0 0.64,-0.04 0.91,-0.12 0.26,-0.08 0.48,-0.19 0.66,-0.32 0.18,-0.14 0.31,-0.29 0.4,-0.47 0.09,-0.17 0.13,-0.36 0.13,-0.55zm7.33 2.07l0 -7.41 -1.35 0 0 -0.74 1.35 0 0 -1.01c0,-0.41 0.06,-0.78 0.16,-1.1 0.11,-0.32 0.27,-0.59 0.48,-0.81 0.21,-0.22 0.46,-0.38 0.76,-0.49 0.3,-0.11 0.63,-0.17 1.01,-0.17 0.15,0 0.31,0.01 0.48,0.03 0.16,0.02 0.32,0.05 0.48,0.1l-0.07 0.75c-0.13,-0.03 -0.25,-0.05 -0.38,-0.07 -0.13,-0.02 -0.28,-0.02 -0.44,-0.02 -0.5,0 -0.88,0.15 -1.16,0.46 -0.28,0.31 -0.41,0.75 -0.41,1.31l0 1.01 1.94 0 0 0.74 -1.94 0 0 7.41 -0.91 0zm3.96 -4.2c0,-0.59 0.09,-1.14 0.26,-1.64 0.17,-0.5 0.42,-0.93 0.73,-1.3 0.32,-0.36 0.7,-0.65 1.15,-0.85 0.45,-0.21 0.94,-0.31 1.49,-0.31 0.56,0 1.06,0.1 1.51,0.31 0.45,0.21 0.83,0.49 1.15,0.85 0.32,0.37 0.56,0.8 0.73,1.3 0.17,0.5 0.26,1.05 0.26,1.64l0 0.25c0,0.59 -0.08,1.14 -0.26,1.64 -0.17,0.5 -0.41,0.94 -0.73,1.3 -0.32,0.36 -0.7,0.65 -1.14,0.85 -0.45,0.2 -0.95,0.31 -1.5,0.31 -0.55,0 -1.05,-0.1 -1.5,-0.31 -0.45,-0.2 -0.83,-0.49 -1.15,-0.85 -0.32,-0.37 -0.57,-0.8 -0.74,-1.3 -0.17,-0.5 -0.26,-1.05 -0.26,-1.64l0 -0.25zm0.9 0.25c0,0.45 0.06,0.87 0.18,1.28 0.12,0.41 0.3,0.76 0.53,1.06 0.23,0.31 0.52,0.55 0.86,0.73 0.34,0.18 0.73,0.27 1.18,0.27 0.44,0 0.83,-0.09 1.17,-0.27 0.34,-0.18 0.62,-0.42 0.86,-0.73 0.23,-0.3 0.41,-0.66 0.53,-1.06 0.12,-0.4 0.18,-0.83 0.18,-1.28l0 -0.25c0,-0.44 -0.06,-0.86 -0.18,-1.26 -0.12,-0.4 -0.3,-0.76 -0.53,-1.06 -0.23,-0.31 -0.52,-0.55 -0.86,-0.74 -0.34,-0.18 -0.74,-0.28 -1.18,-0.28 -0.44,0 -0.83,0.09 -1.17,0.28 -0.34,0.19 -0.62,0.43 -0.85,0.74 -0.23,0.31 -0.41,0.66 -0.53,1.06 -0.12,0.41 -0.18,0.83 -0.18,1.26l0 0.25zm12 -3.44c-0.19,-0.04 -0.39,-0.05 -0.61,-0.05 -0.31,0 -0.58,0.05 -0.83,0.14 -0.24,0.09 -0.46,0.22 -0.65,0.38 -0.19,0.16 -0.35,0.36 -0.48,0.58 -0.13,0.22 -0.23,0.47 -0.3,0.74l0 5.6 -0.9 0 0 -8.15 0.88 0 0.02 1.3c0.22,-0.45 0.52,-0.8 0.9,-1.06 0.38,-0.26 0.84,-0.39 1.4,-0.39 0.11,0 0.22,0.01 0.34,0.03 0.12,0.02 0.2,0.04 0.26,0.07l-0.02 0.82zm11.74 3.39c0,0.61 -0.07,1.17 -0.21,1.68 -0.14,0.51 -0.34,0.94 -0.61,1.31 -0.26,0.36 -0.59,0.65 -0.98,0.85 -0.39,0.2 -0.83,0.31 -1.32,0.31 -0.6,0 -1.11,-0.11 -1.53,-0.34 -0.42,-0.23 -0.77,-0.53 -1.04,-0.93l-0.04 1.12 -0.84 0 0 -11.57 0.9 0 0 4.6c0.27,-0.42 0.61,-0.75 1.03,-0.98 0.42,-0.23 0.92,-0.35 1.51,-0.35 0.5,0 0.94,0.1 1.33,0.3 0.39,0.2 0.71,0.47 0.98,0.84 0.27,0.36 0.47,0.8 0.61,1.31 0.14,0.51 0.21,1.08 0.21,1.72l0 0.16zm-0.91 -0.16c0,-0.47 -0.04,-0.92 -0.13,-1.33 -0.09,-0.41 -0.23,-0.77 -0.43,-1.07 -0.19,-0.3 -0.44,-0.54 -0.74,-0.71 -0.3,-0.17 -0.66,-0.26 -1.08,-0.26 -0.34,0 -0.64,0.05 -0.91,0.14 -0.26,0.1 -0.49,0.22 -0.68,0.37 -0.19,0.16 -0.35,0.33 -0.48,0.53 -0.13,0.2 -0.24,0.41 -0.32,0.63l0 3.68c0.1,0.22 0.21,0.42 0.36,0.61 0.14,0.19 0.31,0.35 0.51,0.49 0.2,0.14 0.42,0.25 0.67,0.32 0.25,0.08 0.54,0.12 0.85,0.12 0.41,0 0.76,-0.08 1.06,-0.26 0.3,-0.17 0.55,-0.41 0.74,-0.71 0.2,-0.3 0.34,-0.66 0.43,-1.07 0.09,-0.41 0.14,-0.85 0.14,-1.33l0 -0.16zm2.4 -0.05c0,-0.59 0.09,-1.14 0.26,-1.64 0.17,-0.5 0.42,-0.93 0.73,-1.3 0.32,-0.36 0.7,-0.65 1.15,-0.85 0.45,-0.21 0.94,-0.31 1.49,-0.31 0.56,0 1.06,0.1 1.51,0.31 0.45,0.21 0.83,0.49 1.15,0.85 0.32,0.37 0.56,0.8 0.73,1.3 0.17,0.5 0.26,1.05 0.26,1.64l0 0.25c0,0.59 -0.08,1.14 -0.26,1.64 -0.17,0.5 -0.41,0.94 -0.73,1.3 -0.32,0.36 -0.7,0.65 -1.14,0.85 -0.45,0.2 -0.95,0.31 -1.5,0.31 -0.55,0 -1.05,-0.1 -1.5,-0.31 -0.45,-0.2 -0.83,-0.49 -1.15,-0.85 -0.32,-0.37 -0.57,-0.8 -0.74,-1.3 -0.17,-0.5 -0.26,-1.05 -0.26,-1.64l0 -0.25zm0.9 0.25c0,0.45 0.06,0.87 0.18,1.28 0.12,0.41 0.3,0.76 0.53,1.06 0.23,0.31 0.52,0.55 0.86,0.73 0.34,0.18 0.73,0.27 1.18,0.27 0.44,0 0.83,-0.09 1.17,-0.27 0.34,-0.18 0.62,-0.42 0.86,-0.73 0.23,-0.3 0.41,-0.66 0.53,-1.06 0.12,-0.4 0.18,-0.83 0.18,-1.28l0 -0.25c0,-0.44 -0.06,-0.86 -0.18,-1.26 -0.12,-0.4 -0.3,-0.76 -0.53,-1.06 -0.23,-0.31 -0.52,-0.55 -0.86,-0.74 -0.34,-0.18 -0.74,-0.28 -1.18,-0.28 -0.44,0 -0.83,0.09 -1.17,0.28 -0.34,0.19 -0.62,0.43 -0.85,0.74 -0.23,0.31 -0.41,0.66 -0.53,1.06 -0.12,0.41 -0.18,0.83 -0.18,1.26l0 0.25zm10.71 2.65l2.38 -6.86 0.97 0 -3.45 9.46c-0.07,0.19 -0.16,0.39 -0.27,0.63 -0.11,0.23 -0.25,0.45 -0.42,0.65 -0.17,0.2 -0.39,0.37 -0.65,0.51 -0.26,0.14 -0.57,0.21 -0.95,0.21 -0.05,0 -0.11,-0 -0.17,-0.01 -0.07,-0.01 -0.13,-0.02 -0.2,-0.03 -0.07,-0.01 -0.13,-0.02 -0.19,-0.04 -0.06,-0.01 -0.11,-0.02 -0.14,-0.03l-0.01 -0.75c0.06,0.01 0.14,0.02 0.24,0.03 0.1,0.01 0.18,0.02 0.22,0.02 0.24,0 0.46,-0.03 0.64,-0.1 0.19,-0.06 0.35,-0.15 0.49,-0.28 0.14,-0.12 0.26,-0.28 0.37,-0.46 0.11,-0.19 0.2,-0.4 0.29,-0.64l0.39 -1.08 -3.07 -8.09 0.99 0 2.53 6.86zm9.63 -0.78c0,-0.16 -0.03,-0.33 -0.08,-0.5 -0.06,-0.17 -0.17,-0.32 -0.32,-0.47 -0.16,-0.15 -0.38,-0.29 -0.66,-0.41 -0.28,-0.13 -0.65,-0.24 -1.1,-0.34 -0.45,-0.1 -0.86,-0.21 -1.21,-0.33 -0.35,-0.12 -0.65,-0.28 -0.9,-0.46 -0.24,-0.18 -0.43,-0.39 -0.55,-0.64 -0.13,-0.25 -0.19,-0.53 -0.19,-0.87 0,-0.3 0.07,-0.59 0.2,-0.86 0.13,-0.27 0.32,-0.51 0.57,-0.71 0.25,-0.2 0.55,-0.36 0.9,-0.48 0.35,-0.12 0.75,-0.18 1.2,-0.18 0.47,0 0.89,0.06 1.27,0.19 0.38,0.12 0.69,0.3 0.95,0.51 0.26,0.22 0.46,0.48 0.59,0.77 0.14,0.3 0.21,0.62 0.21,0.96l-0.91 0c0,-0.21 -0.05,-0.42 -0.14,-0.62 -0.09,-0.2 -0.23,-0.38 -0.41,-0.53 -0.18,-0.15 -0.4,-0.28 -0.66,-0.37 -0.26,-0.1 -0.57,-0.14 -0.9,-0.14 -0.35,0 -0.65,0.04 -0.9,0.13 -0.25,0.08 -0.45,0.2 -0.61,0.33 -0.16,0.14 -0.27,0.29 -0.35,0.46 -0.07,0.17 -0.11,0.34 -0.11,0.51 0,0.18 0.03,0.34 0.08,0.49 0.06,0.15 0.16,0.29 0.32,0.41 0.16,0.13 0.38,0.25 0.66,0.35 0.28,0.11 0.65,0.21 1.11,0.32 0.49,0.12 0.92,0.24 1.27,0.39 0.35,0.14 0.65,0.31 0.88,0.5 0.23,0.2 0.41,0.42 0.52,0.66 0.11,0.25 0.17,0.54 0.17,0.86 0,0.34 -0.07,0.64 -0.21,0.92 -0.14,0.28 -0.34,0.52 -0.6,0.71 -0.26,0.2 -0.58,0.35 -0.95,0.46 -0.37,0.11 -0.78,0.17 -1.24,0.17 -0.52,0 -0.97,-0.07 -1.37,-0.2 -0.4,-0.13 -0.73,-0.31 -1,-0.54 -0.27,-0.22 -0.48,-0.49 -0.61,-0.78 -0.14,-0.29 -0.21,-0.6 -0.21,-0.92l0.9 0c0.02,0.32 0.1,0.59 0.25,0.8 0.15,0.21 0.33,0.39 0.54,0.51 0.22,0.13 0.46,0.22 0.72,0.28 0.26,0.06 0.52,0.08 0.78,0.08 0.34,0 0.64,-0.04 0.91,-0.12 0.26,-0.08 0.48,-0.19 0.66,-0.32 0.18,-0.14 0.31,-0.29 0.4,-0.47 0.09,-0.17 0.13,-0.36 0.13,-0.55zm3.8 1.71c0,0.23 -0.02,0.45 -0.07,0.68 -0.05,0.23 -0.12,0.44 -0.21,0.65 -0.09,0.21 -0.2,0.4 -0.33,0.58 -0.13,0.18 -0.28,0.35 -0.44,0.5l-0.53 -0.39c0.23,-0.31 0.41,-0.63 0.53,-0.94 0.12,-0.31 0.18,-0.67 0.18,-1.07l0 -1.07 0.88 0 0 1.05zm-155.1 14.89c0,0.61 -0.07,1.17 -0.21,1.68 -0.14,0.51 -0.34,0.94 -0.61,1.31 -0.26,0.36 -0.59,0.65 -0.98,0.85 -0.39,0.2 -0.83,0.31 -1.32,0.31 -0.6,0 -1.11,-0.11 -1.53,-0.34 -0.42,-0.23 -0.77,-0.53 -1.04,-0.93l-0.04 1.12 -0.84 0 0 -11.57 0.9 0 0 4.6c0.27,-0.42 0.61,-0.75 1.03,-0.98 0.42,-0.23 0.92,-0.35 1.51,-0.35 0.5,0 0.94,0.1 1.33,0.3 0.39,0.2 0.71,0.47 0.98,0.84 0.27,0.36 0.47,0.8 0.61,1.31 0.14,0.51 0.21,1.08 0.21,1.72l0 0.16zm-0.91 -0.16c0,-0.47 -0.04,-0.92 -0.13,-1.33 -0.09,-0.41 -0.23,-0.77 -0.43,-1.07 -0.19,-0.3 -0.44,-0.54 -0.74,-0.71 -0.3,-0.17 -0.66,-0.26 -1.08,-0.26 -0.34,0 -0.64,0.05 -0.91,0.14 -0.26,0.1 -0.49,0.22 -0.68,0.37 -0.19,0.16 -0.35,0.33 -0.48,0.53 -0.13,0.2 -0.24,0.41 -0.32,0.63l0 3.68c0.1,0.22 0.21,0.42 0.36,0.61 0.14,0.19 0.31,0.35 0.51,0.49 0.2,0.14 0.42,0.25 0.67,0.32 0.25,0.08 0.54,0.12 0.85,0.12 0.41,0 0.76,-0.08 1.06,-0.26 0.3,-0.17 0.55,-0.41 0.74,-0.71 0.2,-0.3 0.34,-0.66 0.43,-1.07 0.09,-0.41 0.14,-0.85 0.14,-1.33l0 -0.16zm2.4 -0.05c0,-0.59 0.09,-1.14 0.26,-1.64 0.17,-0.5 0.42,-0.93 0.73,-1.3 0.32,-0.36 0.7,-0.65 1.15,-0.85 0.45,-0.21 0.94,-0.31 1.49,-0.31 0.56,0 1.06,0.1 1.51,0.31 0.45,0.21 0.83,0.49 1.15,0.85 0.32,0.37 0.56,0.8 0.73,1.3 0.17,0.5 0.26,1.05 0.26,1.64l0 0.25c0,0.59 -0.08,1.14 -0.26,1.64 -0.17,0.5 -0.41,0.94 -0.73,1.3 -0.32,0.36 -0.7,0.65 -1.14,0.85 -0.45,0.2 -0.95,0.31 -1.5,0.31 -0.55,0 -1.05,-0.1 -1.5,-0.31 -0.45,-0.2 -0.83,-0.49 -1.15,-0.85 -0.32,-0.37 -0.57,-0.8 -0.74,-1.3 -0.17,-0.5 -0.26,-1.05 -0.26,-1.64l0 -0.25zm0.9 0.25c0,0.45 0.06,0.87 0.18,1.28 0.12,0.41 0.3,0.76 0.53,1.06 0.23,0.31 0.52,0.55 0.86,0.73 0.34,0.18 0.73,0.27 1.18,0.27 0.44,0 0.83,-0.09 1.17,-0.27 0.34,-0.18 0.62,-0.42 0.86,-0.73 0.23,-0.3 0.41,-0.66 0.53,-1.06 0.12,-0.4 0.18,-0.83 0.18,-1.28l0 -0.25c0,-0.44 -0.06,-0.86 -0.18,-1.26 -0.12,-0.4 -0.3,-0.76 -0.53,-1.06 -0.23,-0.31 -0.52,-0.55 -0.86,-0.74 -0.34,-0.18 -0.74,-0.28 -1.18,-0.28 -0.44,0 -0.83,0.09 -1.17,0.28 -0.34,0.19 -0.62,0.43 -0.85,0.74 -0.23,0.31 -0.41,0.66 -0.53,1.06 -0.12,0.41 -0.18,0.83 -0.18,1.26l0 0.25zm10.71 2.65l2.38 -6.86 0.97 0 -3.45 9.46c-0.07,0.19 -0.16,0.39 -0.27,0.63 -0.11,0.23 -0.25,0.45 -0.42,0.65 -0.17,0.2 -0.39,0.37 -0.65,0.51 -0.26,0.14 -0.57,0.21 -0.95,0.21 -0.05,0 -0.11,-0 -0.17,-0.01 -0.07,-0.01 -0.13,-0.02 -0.2,-0.03 -0.07,-0.01 -0.13,-0.02 -0.19,-0.04 -0.06,-0.01 -0.11,-0.02 -0.14,-0.03l-0.01 -0.75c0.06,0.01 0.14,0.02 0.24,0.03 0.1,0.01 0.18,0.02 0.22,0.02 0.24,0 0.46,-0.03 0.64,-0.1 0.19,-0.06 0.35,-0.15 0.49,-0.28 0.14,-0.12 0.26,-0.28 0.37,-0.46 0.11,-0.19 0.2,-0.4 0.29,-0.64l0.39 -1.08 -3.07 -8.09 0.99 0 2.53 6.86zm5.74 -9.4c0,0.46 -0.09,0.91 -0.28,1.33 -0.19,0.42 -0.44,0.79 -0.77,1.09l-0.53 -0.39c0.12,-0.16 0.22,-0.31 0.3,-0.47 0.09,-0.15 0.16,-0.31 0.22,-0.47 0.06,-0.16 0.1,-0.33 0.13,-0.51 0.03,-0.17 0.04,-0.36 0.04,-0.56l0 -0.89 0.89 0 0 0.87zm5.9 8.63c0,-0.16 -0.03,-0.33 -0.08,-0.5 -0.06,-0.17 -0.17,-0.32 -0.32,-0.47 -0.16,-0.15 -0.38,-0.29 -0.66,-0.41 -0.28,-0.13 -0.65,-0.24 -1.1,-0.34 -0.45,-0.1 -0.86,-0.21 -1.21,-0.33 -0.35,-0.12 -0.65,-0.28 -0.9,-0.46 -0.24,-0.18 -0.43,-0.39 -0.55,-0.64 -0.13,-0.25 -0.19,-0.53 -0.19,-0.87 0,-0.3 0.07,-0.59 0.2,-0.86 0.13,-0.27 0.32,-0.51 0.57,-0.71 0.25,-0.2 0.55,-0.36 0.9,-0.48 0.35,-0.12 0.75,-0.18 1.2,-0.18 0.47,0 0.89,0.06 1.27,0.19 0.38,0.12 0.69,0.3 0.95,0.51 0.26,0.22 0.46,0.48 0.59,0.77 0.14,0.3 0.21,0.62 0.21,0.96l-0.91 0c0,-0.21 -0.05,-0.42 -0.14,-0.62 -0.09,-0.2 -0.23,-0.38 -0.41,-0.53 -0.18,-0.15 -0.4,-0.28 -0.66,-0.37 -0.26,-0.1 -0.57,-0.14 -0.9,-0.14 -0.35,0 -0.65,0.04 -0.9,0.13 -0.25,0.08 -0.45,0.2 -0.61,0.33 -0.16,0.14 -0.27,0.29 -0.35,0.46 -0.07,0.17 -0.11,0.34 -0.11,0.51 0,0.18 0.03,0.34 0.08,0.49 0.06,0.15 0.16,0.29 0.32,0.41 0.16,0.13 0.38,0.25 0.66,0.35 0.28,0.11 0.65,0.21 1.11,0.32 0.49,0.12 0.92,0.24 1.27,0.39 0.35,0.14 0.65,0.31 0.88,0.5 0.23,0.2 0.41,0.42 0.52,0.66 0.11,0.25 0.17,0.54 0.17,0.86 0,0.34 -0.07,0.64 -0.21,0.92 -0.14,0.28 -0.34,0.52 -0.6,0.71 -0.26,0.2 -0.58,0.35 -0.95,0.46 -0.37,0.11 -0.78,0.17 -1.24,0.17 -0.52,0 -0.97,-0.07 -1.37,-0.2 -0.4,-0.13 -0.73,-0.31 -1,-0.54 -0.27,-0.22 -0.48,-0.49 -0.61,-0.78 -0.14,-0.29 -0.21,-0.6 -0.21,-0.92l0.9 0c0.02,0.32 0.1,0.59 0.25,0.8 0.15,0.21 0.33,0.39 0.54,0.51 0.22,0.13 0.46,0.22 0.72,0.28 0.26,0.06 0.52,0.08 0.78,0.08 0.34,0 0.64,-0.04 0.91,-0.12 0.26,-0.08 0.48,-0.19 0.66,-0.32 0.18,-0.14 0.31,-0.29 0.4,-0.47 0.09,-0.17 0.13,-0.36 0.13,-0.55zm9.84 2.22c-0.53,0 -1.02,-0.1 -1.47,-0.3 -0.45,-0.2 -0.83,-0.48 -1.15,-0.83 -0.32,-0.35 -0.58,-0.78 -0.76,-1.26 -0.18,-0.49 -0.27,-1.02 -0.27,-1.6l0 -0.32c0,-0.63 0.09,-1.2 0.28,-1.71 0.19,-0.51 0.44,-0.94 0.76,-1.3 0.32,-0.36 0.69,-0.64 1.11,-0.83 0.42,-0.2 0.86,-0.3 1.33,-0.3 0.52,0 0.98,0.1 1.38,0.28 0.4,0.19 0.74,0.44 1.01,0.78 0.28,0.33 0.48,0.73 0.62,1.18 0.14,0.46 0.21,0.96 0.21,1.5l0 0.55 -5.82 0 0 0.17c0,0.45 0.07,0.87 0.2,1.26 0.14,0.39 0.33,0.74 0.57,1.03 0.25,0.29 0.54,0.52 0.88,0.69 0.34,0.17 0.72,0.25 1.14,0.25 0.48,0 0.91,-0.09 1.28,-0.26 0.37,-0.17 0.7,-0.46 1.01,-0.84l0.57 0.43c-0.14,0.2 -0.29,0.38 -0.47,0.56 -0.18,0.17 -0.39,0.33 -0.62,0.46 -0.24,0.13 -0.5,0.23 -0.8,0.31 -0.3,0.07 -0.63,0.11 -0.99,0.11zm-0.17 -7.69c-0.34,0 -0.66,0.07 -0.95,0.2 -0.29,0.13 -0.55,0.32 -0.77,0.56 -0.22,0.24 -0.41,0.53 -0.55,0.87 -0.14,0.34 -0.24,0.71 -0.29,1.13l4.89 0 0 -0.1c-0.01,-0.34 -0.06,-0.67 -0.16,-0.99 -0.1,-0.32 -0.25,-0.6 -0.44,-0.85 -0.2,-0.25 -0.43,-0.45 -0.72,-0.59 -0.29,-0.15 -0.62,-0.22 -1,-0.22z"></path> <path class="fil1" d="M275.39 103.92l0.03 1.39c0.14,-0.23 0.3,-0.44 0.49,-0.63 0.18,-0.19 0.39,-0.35 0.61,-0.49 0.23,-0.14 0.47,-0.24 0.73,-0.31 0.26,-0.07 0.54,-0.11 0.83,-0.11 0.41,0 0.77,0.06 1.09,0.17 0.32,0.11 0.59,0.29 0.82,0.53 0.22,0.24 0.39,0.55 0.51,0.93 0.12,0.38 0.18,0.84 0.18,1.37l0 5.31 -0.9 0 0 -5.31c0,-0.42 -0.05,-0.77 -0.14,-1.06 -0.09,-0.28 -0.22,-0.51 -0.38,-0.68 -0.17,-0.17 -0.37,-0.29 -0.61,-0.37 -0.24,-0.07 -0.5,-0.11 -0.79,-0.11 -0.32,0 -0.61,0.05 -0.87,0.16 -0.26,0.11 -0.49,0.25 -0.69,0.43 -0.2,0.18 -0.38,0.39 -0.52,0.62 -0.14,0.23 -0.26,0.47 -0.34,0.72l0 5.58 -0.9 0 0 -8.15 0.86 0zm7.26 4c0,-0.63 0.07,-1.21 0.22,-1.72 0.15,-0.51 0.35,-0.94 0.63,-1.31 0.27,-0.36 0.6,-0.64 0.99,-0.84 0.39,-0.2 0.83,-0.3 1.31,-0.3 0.58,0 1.07,0.12 1.49,0.35 0.41,0.23 0.76,0.55 1.03,0.96l0 -4.57 0.89 0 0 11.57 -0.84 0 -0.04 -1.09c-0.27,0.39 -0.61,0.69 -1.03,0.91 -0.42,0.22 -0.92,0.33 -1.51,0.33 -0.48,0 -0.92,-0.1 -1.3,-0.31 -0.39,-0.2 -0.71,-0.49 -0.99,-0.85 -0.27,-0.37 -0.48,-0.8 -0.63,-1.31 -0.14,-0.51 -0.22,-1.07 -0.22,-1.68l0 -0.16zm0.91 0.16c0,0.48 0.05,0.92 0.14,1.33 0.1,0.41 0.24,0.77 0.43,1.07 0.2,0.3 0.45,0.54 0.74,0.71 0.3,0.17 0.65,0.26 1.07,0.26 0.31,0 0.58,-0.04 0.83,-0.11 0.25,-0.07 0.47,-0.17 0.66,-0.3 0.19,-0.13 0.36,-0.29 0.5,-0.47 0.14,-0.18 0.26,-0.38 0.37,-0.59l0 -3.83c-0.09,-0.21 -0.2,-0.4 -0.33,-0.59 -0.13,-0.19 -0.29,-0.36 -0.48,-0.51 -0.19,-0.15 -0.41,-0.26 -0.66,-0.35 -0.25,-0.09 -0.54,-0.13 -0.87,-0.13 -0.42,0 -0.77,0.09 -1.08,0.26 -0.3,0.17 -0.55,0.41 -0.75,0.71 -0.2,0.3 -0.34,0.66 -0.43,1.07 -0.1,0.41 -0.14,0.85 -0.14,1.33l0 0.16zm9.03 3.99l-0.91 0 0 -11.57 0.91 0 0 11.57zm5.61 0.15c-0.53,0 -1.02,-0.1 -1.47,-0.3 -0.45,-0.2 -0.83,-0.48 -1.15,-0.83 -0.32,-0.35 -0.58,-0.78 -0.76,-1.26 -0.18,-0.49 -0.27,-1.02 -0.27,-1.6l0 -0.32c0,-0.63 0.09,-1.2 0.28,-1.71 0.19,-0.51 0.44,-0.94 0.76,-1.3 0.32,-0.36 0.69,-0.64 1.11,-0.83 0.42,-0.2 0.86,-0.3 1.33,-0.3 0.52,0 0.98,0.1 1.38,0.28 0.4,0.19 0.74,0.44 1.01,0.78 0.28,0.33 0.48,0.73 0.62,1.18 0.14,0.46 0.21,0.96 0.21,1.5l0 0.55 -5.82 0 0 0.17c0,0.45 0.07,0.87 0.2,1.26 0.14,0.39 0.33,0.74 0.57,1.03 0.25,0.29 0.54,0.52 0.88,0.69 0.34,0.17 0.72,0.25 1.14,0.25 0.48,0 0.91,-0.09 1.28,-0.26 0.37,-0.17 0.7,-0.46 1.01,-0.84l0.57 0.43c-0.14,0.2 -0.29,0.38 -0.47,0.56 -0.18,0.17 -0.39,0.33 -0.62,0.46 -0.24,0.13 -0.5,0.23 -0.8,0.31 -0.3,0.07 -0.63,0.11 -0.99,0.11zm-0.17 -7.69c-0.34,0 -0.66,0.07 -0.95,0.2 -0.29,0.13 -0.55,0.32 -0.77,0.56 -0.22,0.24 -0.41,0.53 -0.55,0.87 -0.14,0.34 -0.24,0.71 -0.29,1.13l4.89 0 0 -0.1c-0.01,-0.34 -0.06,-0.67 -0.16,-0.99 -0.1,-0.32 -0.25,-0.6 -0.44,-0.85 -0.2,-0.25 -0.43,-0.45 -0.72,-0.59 -0.29,-0.15 -0.62,-0.22 -1,-0.22zm9.86 5.46c0,-0.16 -0.03,-0.33 -0.08,-0.5 -0.06,-0.17 -0.17,-0.32 -0.32,-0.47 -0.16,-0.15 -0.38,-0.29 -0.66,-0.41 -0.28,-0.13 -0.65,-0.24 -1.1,-0.34 -0.45,-0.1 -0.86,-0.21 -1.21,-0.33 -0.35,-0.12 -0.65,-0.28 -0.9,-0.46 -0.24,-0.18 -0.43,-0.39 -0.55,-0.64 -0.13,-0.25 -0.19,-0.53 -0.19,-0.87 0,-0.3 0.07,-0.59 0.2,-0.86 0.13,-0.27 0.32,-0.51 0.57,-0.71 0.25,-0.2 0.55,-0.36 0.9,-0.48 0.35,-0.12 0.75,-0.18 1.2,-0.18 0.47,0 0.89,0.06 1.27,0.19 0.38,0.12 0.69,0.3 0.95,0.51 0.26,0.22 0.46,0.48 0.59,0.77 0.14,0.3 0.21,0.62 0.21,0.96l-0.91 0c0,-0.21 -0.05,-0.42 -0.14,-0.62 -0.09,-0.2 -0.23,-0.38 -0.41,-0.53 -0.18,-0.15 -0.4,-0.28 -0.66,-0.37 -0.26,-0.1 -0.57,-0.14 -0.9,-0.14 -0.35,0 -0.65,0.04 -0.9,0.13 -0.25,0.08 -0.45,0.2 -0.61,0.33 -0.16,0.14 -0.27,0.29 -0.35,0.46 -0.07,0.17 -0.11,0.34 -0.11,0.51 0,0.18 0.03,0.34 0.08,0.49 0.06,0.15 0.16,0.29 0.32,0.41 0.16,0.13 0.38,0.25 0.66,0.35 0.28,0.11 0.65,0.21 1.11,0.32 0.49,0.12 0.92,0.24 1.27,0.39 0.35,0.14 0.65,0.31 0.88,0.5 0.23,0.2 0.41,0.42 0.52,0.66 0.11,0.25 0.17,0.54 0.17,0.86 0,0.34 -0.07,0.64 -0.21,0.92 -0.14,0.28 -0.34,0.52 -0.6,0.71 -0.26,0.2 -0.58,0.35 -0.95,0.46 -0.37,0.11 -0.78,0.17 -1.24,0.17 -0.52,0 -0.97,-0.07 -1.37,-0.2 -0.4,-0.13 -0.73,-0.31 -1,-0.54 -0.27,-0.22 -0.48,-0.49 -0.61,-0.78 -0.14,-0.29 -0.21,-0.6 -0.21,-0.92l0.9 0c0.02,0.32 0.1,0.59 0.25,0.8 0.15,0.21 0.33,0.39 0.54,0.51 0.22,0.13 0.46,0.22 0.72,0.28 0.26,0.06 0.52,0.08 0.78,0.08 0.34,0 0.64,-0.04 0.91,-0.12 0.26,-0.08 0.48,-0.19 0.66,-0.32 0.18,-0.14 0.31,-0.29 0.4,-0.47 0.09,-0.17 0.13,-0.36 0.13,-0.55zm7.81 0c0,-0.16 -0.03,-0.33 -0.08,-0.5 -0.06,-0.17 -0.17,-0.32 -0.32,-0.47 -0.16,-0.15 -0.38,-0.29 -0.66,-0.41 -0.28,-0.13 -0.65,-0.24 -1.1,-0.34 -0.45,-0.1 -0.86,-0.21 -1.21,-0.33 -0.35,-0.12 -0.65,-0.28 -0.9,-0.46 -0.24,-0.18 -0.43,-0.39 -0.55,-0.64 -0.13,-0.25 -0.19,-0.53 -0.19,-0.87 0,-0.3 0.07,-0.59 0.2,-0.86 0.13,-0.27 0.32,-0.51 0.57,-0.71 0.25,-0.2 0.55,-0.36 0.9,-0.48 0.35,-0.12 0.75,-0.18 1.2,-0.18 0.47,0 0.89,0.06 1.27,0.19 0.38,0.12 0.69,0.3 0.95,0.51 0.26,0.22 0.46,0.48 0.59,0.77 0.14,0.3 0.21,0.62 0.21,0.96l-0.91 0c0,-0.21 -0.05,-0.42 -0.14,-0.62 -0.09,-0.2 -0.23,-0.38 -0.41,-0.53 -0.18,-0.15 -0.4,-0.28 -0.66,-0.37 -0.26,-0.1 -0.57,-0.14 -0.9,-0.14 -0.35,0 -0.65,0.04 -0.9,0.13 -0.25,0.08 -0.45,0.2 -0.61,0.33 -0.16,0.14 -0.27,0.29 -0.35,0.46 -0.07,0.17 -0.11,0.34 -0.11,0.51 0,0.18 0.03,0.34 0.08,0.49 0.06,0.15 0.16,0.29 0.32,0.41 0.16,0.13 0.38,0.25 0.66,0.35 0.28,0.11 0.65,0.21 1.11,0.32 0.49,0.12 0.92,0.24 1.27,0.39 0.35,0.14 0.65,0.31 0.88,0.5 0.23,0.2 0.41,0.42 0.52,0.66 0.11,0.25 0.17,0.54 0.17,0.86 0,0.34 -0.07,0.64 -0.21,0.92 -0.14,0.28 -0.34,0.52 -0.6,0.71 -0.26,0.2 -0.58,0.35 -0.95,0.46 -0.37,0.11 -0.78,0.17 -1.24,0.17 -0.52,0 -0.97,-0.07 -1.37,-0.2 -0.4,-0.13 -0.73,-0.31 -1,-0.54 -0.27,-0.22 -0.48,-0.49 -0.61,-0.78 -0.14,-0.29 -0.21,-0.6 -0.21,-0.92l0.9 0c0.02,0.32 0.1,0.59 0.25,0.8 0.15,0.21 0.33,0.39 0.54,0.51 0.22,0.13 0.46,0.22 0.72,0.28 0.26,0.06 0.52,0.08 0.78,0.08 0.34,0 0.64,-0.04 0.91,-0.12 0.26,-0.08 0.48,-0.19 0.66,-0.32 0.18,-0.14 0.31,-0.29 0.4,-0.47 0.09,-0.17 0.13,-0.36 0.13,-0.55zm6.32 -2.08c0,-0.63 0.07,-1.21 0.22,-1.72 0.14,-0.51 0.35,-0.94 0.62,-1.31 0.27,-0.36 0.6,-0.64 0.99,-0.84 0.39,-0.2 0.83,-0.3 1.32,-0.3 0.58,0 1.08,0.12 1.5,0.35 0.42,0.23 0.76,0.56 1.03,0.97l0.05 -1.18 0.84 0 0 8.01c0,0.53 -0.08,1 -0.23,1.42 -0.15,0.42 -0.38,0.77 -0.66,1.06 -0.28,0.29 -0.63,0.51 -1.03,0.67 -0.4,0.15 -0.85,0.23 -1.35,0.23 -0.26,0 -0.52,-0.03 -0.78,-0.09 -0.27,-0.06 -0.52,-0.14 -0.77,-0.26 -0.25,-0.12 -0.48,-0.26 -0.7,-0.43 -0.22,-0.17 -0.41,-0.38 -0.58,-0.61l0.5 -0.54c0.33,0.41 0.68,0.7 1.06,0.89 0.37,0.19 0.78,0.28 1.22,0.28 0.39,0 0.73,-0.06 1.03,-0.18 0.3,-0.12 0.55,-0.29 0.76,-0.51 0.21,-0.22 0.36,-0.5 0.47,-0.82 0.11,-0.32 0.16,-0.68 0.16,-1.09l0 -0.95c-0.27,0.38 -0.62,0.67 -1.03,0.88 -0.42,0.21 -0.91,0.32 -1.49,0.32 -0.49,0 -0.92,-0.1 -1.31,-0.31 -0.39,-0.2 -0.71,-0.49 -0.99,-0.85 -0.27,-0.37 -0.48,-0.8 -0.62,-1.31 -0.14,-0.51 -0.22,-1.07 -0.22,-1.68l0 -0.16zm0.91 0.16c0,0.48 0.05,0.92 0.14,1.33 0.1,0.41 0.24,0.77 0.43,1.07 0.2,0.3 0.45,0.54 0.74,0.71 0.3,0.17 0.65,0.26 1.07,0.26 0.31,0 0.59,-0.04 0.84,-0.11 0.25,-0.07 0.47,-0.18 0.66,-0.31 0.19,-0.13 0.35,-0.29 0.5,-0.47 0.14,-0.18 0.26,-0.38 0.36,-0.59l0 -3.79c-0.09,-0.21 -0.2,-0.41 -0.33,-0.61 -0.13,-0.19 -0.29,-0.36 -0.48,-0.51 -0.19,-0.15 -0.41,-0.26 -0.66,-0.35 -0.25,-0.09 -0.54,-0.13 -0.87,-0.13 -0.42,0 -0.77,0.09 -1.08,0.26 -0.3,0.17 -0.55,0.41 -0.75,0.71 -0.2,0.3 -0.34,0.66 -0.43,1.07 -0.1,0.41 -0.14,0.85 -0.14,1.33l0 0.16zm13.15 3.99c-0.05,-0.14 -0.09,-0.31 -0.12,-0.52 -0.03,-0.2 -0.05,-0.41 -0.06,-0.62 -0.14,0.17 -0.3,0.34 -0.48,0.5 -0.19,0.15 -0.39,0.29 -0.63,0.41 -0.23,0.12 -0.48,0.21 -0.76,0.28 -0.28,0.07 -0.58,0.11 -0.9,0.11 -0.4,0 -0.76,-0.06 -1.08,-0.17 -0.32,-0.12 -0.6,-0.28 -0.83,-0.49 -0.23,-0.21 -0.41,-0.45 -0.53,-0.73 -0.13,-0.28 -0.19,-0.59 -0.19,-0.92 0,-0.4 0.09,-0.75 0.26,-1.07 0.17,-0.32 0.42,-0.59 0.74,-0.82 0.32,-0.22 0.71,-0.39 1.17,-0.51 0.46,-0.12 0.98,-0.18 1.55,-0.18l1.67 0 0 -0.93c0,-0.58 -0.18,-1.04 -0.54,-1.38 -0.36,-0.33 -0.88,-0.5 -1.57,-0.5 -0.32,0 -0.61,0.04 -0.87,0.13 -0.27,0.08 -0.5,0.2 -0.69,0.35 -0.19,0.15 -0.34,0.32 -0.45,0.52 -0.11,0.2 -0.16,0.41 -0.16,0.64l-0.91 -0.01c0,-0.31 0.07,-0.6 0.23,-0.89 0.15,-0.29 0.36,-0.54 0.64,-0.76 0.27,-0.22 0.6,-0.4 0.99,-0.54 0.39,-0.14 0.81,-0.21 1.28,-0.21 0.43,0 0.83,0.06 1.19,0.17 0.37,0.11 0.68,0.28 0.94,0.5 0.26,0.22 0.47,0.5 0.61,0.83 0.15,0.33 0.22,0.72 0.22,1.16l0 3.95c0,0.14 0.01,0.29 0.02,0.44 0.01,0.15 0.03,0.3 0.05,0.44 0.02,0.14 0.05,0.28 0.08,0.4 0.03,0.13 0.06,0.24 0.11,0.34l0 0.09 -0.96 0zm-2.83 -0.65c0.33,0 0.63,-0.04 0.91,-0.12 0.28,-0.08 0.53,-0.2 0.76,-0.34 0.23,-0.14 0.42,-0.31 0.59,-0.51 0.17,-0.2 0.3,-0.4 0.4,-0.63l0 -1.79 -1.55 0c-0.46,0 -0.87,0.04 -1.24,0.12 -0.36,0.08 -0.67,0.2 -0.92,0.36 -0.25,0.16 -0.44,0.34 -0.58,0.57 -0.13,0.22 -0.2,0.48 -0.2,0.76 0,0.22 0.04,0.43 0.13,0.62 0.09,0.19 0.21,0.36 0.37,0.5 0.16,0.14 0.35,0.25 0.58,0.34 0.22,0.08 0.48,0.12 0.76,0.12zm6.77 -7.5l0.03 1.33c0.14,-0.22 0.29,-0.42 0.47,-0.61 0.18,-0.18 0.38,-0.34 0.6,-0.47 0.22,-0.13 0.46,-0.23 0.72,-0.3 0.26,-0.07 0.54,-0.11 0.85,-0.11 0.6,0 1.11,0.13 1.54,0.38 0.43,0.25 0.73,0.65 0.91,1.21 0.13,-0.23 0.29,-0.44 0.47,-0.63 0.18,-0.19 0.39,-0.36 0.63,-0.5 0.23,-0.14 0.49,-0.25 0.77,-0.33 0.28,-0.08 0.59,-0.12 0.91,-0.12 0.42,0 0.8,0.06 1.13,0.17 0.33,0.11 0.61,0.29 0.84,0.53 0.23,0.24 0.4,0.56 0.52,0.93 0.12,0.38 0.18,0.83 0.18,1.36l0 5.31 -0.91 0 0 -5.32c0,-0.43 -0.05,-0.79 -0.14,-1.08 -0.1,-0.28 -0.23,-0.51 -0.41,-0.68 -0.17,-0.17 -0.39,-0.28 -0.63,-0.35 -0.24,-0.06 -0.51,-0.1 -0.8,-0.1 -0.38,0.01 -0.72,0.07 -1,0.21 -0.29,0.13 -0.53,0.3 -0.73,0.5 -0.2,0.2 -0.35,0.43 -0.46,0.68 -0.11,0.25 -0.17,0.5 -0.2,0.73l0 5.4 -0.91 0 0 -5.39c0,-0.41 -0.05,-0.75 -0.14,-1.02 -0.1,-0.27 -0.23,-0.49 -0.41,-0.66 -0.18,-0.17 -0.39,-0.29 -0.63,-0.35 -0.24,-0.07 -0.51,-0.11 -0.81,-0.11 -0.34,0 -0.64,0.05 -0.91,0.16 -0.26,0.11 -0.49,0.25 -0.68,0.43 -0.19,0.18 -0.35,0.39 -0.48,0.62 -0.13,0.23 -0.23,0.47 -0.3,0.71l0 5.59 -0.9 0 0 -8.15 0.86 0zm16.01 8.3c-0.53,0 -1.02,-0.1 -1.47,-0.3 -0.45,-0.2 -0.83,-0.48 -1.15,-0.83 -0.32,-0.35 -0.58,-0.78 -0.76,-1.26 -0.18,-0.49 -0.27,-1.02 -0.27,-1.6l0 -0.32c0,-0.63 0.09,-1.2 0.28,-1.71 0.19,-0.51 0.44,-0.94 0.76,-1.3 0.32,-0.36 0.69,-0.64 1.11,-0.83 0.42,-0.2 0.86,-0.3 1.33,-0.3 0.52,0 0.98,0.1 1.38,0.28 0.4,0.19 0.74,0.44 1.01,0.78 0.28,0.33 0.48,0.73 0.62,1.18 0.14,0.46 0.21,0.96 0.21,1.5l0 0.55 -5.82 0 0 0.17c0,0.45 0.07,0.87 0.2,1.26 0.14,0.39 0.33,0.74 0.57,1.03 0.25,0.29 0.54,0.52 0.88,0.69 0.34,0.17 0.72,0.25 1.14,0.25 0.48,0 0.91,-0.09 1.28,-0.26 0.37,-0.17 0.7,-0.46 1.01,-0.84l0.57 0.43c-0.14,0.2 -0.29,0.38 -0.47,0.56 -0.18,0.17 -0.39,0.33 -0.62,0.46 -0.24,0.13 -0.5,0.23 -0.8,0.31 -0.3,0.07 -0.63,0.11 -0.99,0.11zm-0.17 -7.69c-0.34,0 -0.66,0.07 -0.95,0.2 -0.29,0.13 -0.55,0.32 -0.77,0.56 -0.22,0.24 -0.41,0.53 -0.55,0.87 -0.14,0.34 -0.24,0.71 -0.29,1.13l4.89 0 0 -0.1c-0.01,-0.34 -0.06,-0.67 -0.16,-0.99 -0.1,-0.32 -0.25,-0.6 -0.44,-0.85 -0.2,-0.25 -0.43,-0.45 -0.72,-0.59 -0.29,-0.15 -0.62,-0.22 -1,-0.22zm9.86 5.46c0,-0.16 -0.03,-0.33 -0.08,-0.5 -0.06,-0.17 -0.17,-0.32 -0.32,-0.47 -0.16,-0.15 -0.38,-0.29 -0.66,-0.41 -0.28,-0.13 -0.65,-0.24 -1.1,-0.34 -0.45,-0.1 -0.86,-0.21 -1.21,-0.33 -0.35,-0.12 -0.65,-0.28 -0.9,-0.46 -0.24,-0.18 -0.43,-0.39 -0.55,-0.64 -0.13,-0.25 -0.19,-0.53 -0.19,-0.87 0,-0.3 0.07,-0.59 0.2,-0.86 0.13,-0.27 0.32,-0.51 0.57,-0.71 0.25,-0.2 0.55,-0.36 0.9,-0.48 0.35,-0.12 0.75,-0.18 1.2,-0.18 0.47,0 0.89,0.06 1.27,0.19 0.38,0.12 0.69,0.3 0.95,0.51 0.26,0.22 0.46,0.48 0.59,0.77 0.14,0.3 0.21,0.62 0.21,0.96l-0.91 0c0,-0.21 -0.05,-0.42 -0.14,-0.62 -0.09,-0.2 -0.23,-0.38 -0.41,-0.53 -0.18,-0.15 -0.4,-0.28 -0.66,-0.37 -0.26,-0.1 -0.57,-0.14 -0.9,-0.14 -0.35,0 -0.65,0.04 -0.9,0.13 -0.25,0.08 -0.45,0.2 -0.61,0.33 -0.16,0.14 -0.27,0.29 -0.35,0.46 -0.07,0.17 -0.11,0.34 -0.11,0.51 0,0.18 0.03,0.34 0.08,0.49 0.06,0.15 0.16,0.29 0.32,0.41 0.16,0.13 0.38,0.25 0.66,0.35 0.28,0.11 0.65,0.21 1.11,0.32 0.49,0.12 0.92,0.24 1.27,0.39 0.35,0.14 0.65,0.31 0.88,0.5 0.23,0.2 0.41,0.42 0.52,0.66 0.11,0.25 0.17,0.54 0.17,0.86 0,0.34 -0.07,0.64 -0.21,0.92 -0.14,0.28 -0.34,0.52 -0.6,0.71 -0.26,0.2 -0.58,0.35 -0.95,0.46 -0.37,0.11 -0.78,0.17 -1.24,0.17 -0.52,0 -0.97,-0.07 -1.37,-0.2 -0.4,-0.13 -0.73,-0.31 -1,-0.54 -0.27,-0.22 -0.48,-0.49 -0.61,-0.78 -0.14,-0.29 -0.21,-0.6 -0.21,-0.92l0.9 0c0.02,0.32 0.1,0.59 0.25,0.8 0.15,0.21 0.33,0.39 0.54,0.51 0.22,0.13 0.46,0.22 0.72,0.28 0.26,0.06 0.52,0.08 0.78,0.08 0.34,0 0.64,-0.04 0.91,-0.12 0.26,-0.08 0.48,-0.19 0.66,-0.32 0.18,-0.14 0.31,-0.29 0.4,-0.47 0.09,-0.17 0.13,-0.36 0.13,-0.55zm3.8 1.71c0,0.23 -0.02,0.45 -0.07,0.68 -0.05,0.23 -0.12,0.44 -0.21,0.65 -0.09,0.21 -0.2,0.4 -0.33,0.58 -0.13,0.18 -0.28,0.35 -0.44,0.5l-0.53 -0.39c0.23,-0.31 0.41,-0.63 0.53,-0.94 0.12,-0.31 0.18,-0.67 0.18,-1.07l0 -1.07 0.88 0 0 1.05zm-134.41 14.89c0,0.61 -0.07,1.17 -0.21,1.68 -0.14,0.51 -0.34,0.94 -0.61,1.31 -0.26,0.36 -0.59,0.65 -0.98,0.85 -0.39,0.2 -0.83,0.31 -1.32,0.31 -0.6,0 -1.11,-0.11 -1.53,-0.34 -0.42,-0.23 -0.77,-0.53 -1.04,-0.93l-0.04 1.12 -0.84 0 0 -11.57 0.9 0 0 4.6c0.27,-0.42 0.61,-0.75 1.03,-0.98 0.42,-0.23 0.92,-0.35 1.51,-0.35 0.5,0 0.94,0.1 1.33,0.3 0.39,0.2 0.71,0.47 0.98,0.84 0.27,0.36 0.47,0.8 0.61,1.31 0.14,0.51 0.21,1.08 0.21,1.72l0 0.16zm-0.91 -0.16c0,-0.47 -0.04,-0.92 -0.13,-1.33 -0.09,-0.41 -0.23,-0.77 -0.43,-1.07 -0.19,-0.3 -0.44,-0.54 -0.74,-0.71 -0.3,-0.17 -0.66,-0.26 -1.08,-0.26 -0.34,0 -0.64,0.05 -0.91,0.14 -0.26,0.1 -0.49,0.22 -0.68,0.37 -0.19,0.16 -0.35,0.33 -0.48,0.53 -0.13,0.2 -0.24,0.41 -0.32,0.63l0 3.68c0.1,0.22 0.21,0.42 0.36,0.61 0.14,0.19 0.31,0.35 0.51,0.49 0.2,0.14 0.42,0.25 0.67,0.32 0.25,0.08 0.54,0.12 0.85,0.12 0.41,0 0.76,-0.08 1.06,-0.26 0.3,-0.17 0.55,-0.41 0.74,-0.71 0.2,-0.3 0.34,-0.66 0.43,-1.07 0.09,-0.41 0.14,-0.85 0.14,-1.33l0 -0.16zm2.4 -0.05c0,-0.59 0.09,-1.14 0.26,-1.64 0.17,-0.5 0.42,-0.93 0.73,-1.3 0.32,-0.36 0.7,-0.65 1.15,-0.85 0.45,-0.21 0.94,-0.31 1.49,-0.31 0.56,0 1.06,0.1 1.51,0.31 0.45,0.21 0.83,0.49 1.15,0.85 0.32,0.37 0.56,0.8 0.73,1.3 0.17,0.5 0.26,1.05 0.26,1.64l0 0.25c0,0.59 -0.08,1.14 -0.26,1.64 -0.17,0.5 -0.41,0.94 -0.73,1.3 -0.32,0.36 -0.7,0.65 -1.14,0.85 -0.45,0.2 -0.95,0.31 -1.5,0.31 -0.55,0 -1.05,-0.1 -1.5,-0.31 -0.45,-0.2 -0.83,-0.49 -1.15,-0.85 -0.32,-0.37 -0.57,-0.8 -0.74,-1.3 -0.17,-0.5 -0.26,-1.05 -0.26,-1.64l0 -0.25zm0.9 0.25c0,0.45 0.06,0.87 0.18,1.28 0.12,0.41 0.3,0.76 0.53,1.06 0.23,0.31 0.52,0.55 0.86,0.73 0.34,0.18 0.73,0.27 1.18,0.27 0.44,0 0.83,-0.09 1.17,-0.27 0.34,-0.18 0.62,-0.42 0.86,-0.73 0.23,-0.3 0.41,-0.66 0.53,-1.06 0.12,-0.4 0.18,-0.83 0.18,-1.28l0 -0.25c0,-0.44 -0.06,-0.86 -0.18,-1.26 -0.12,-0.4 -0.3,-0.76 -0.53,-1.06 -0.23,-0.31 -0.52,-0.55 -0.86,-0.74 -0.34,-0.18 -0.74,-0.28 -1.18,-0.28 -0.44,0 -0.83,0.09 -1.17,0.28 -0.34,0.19 -0.62,0.43 -0.85,0.74 -0.23,0.31 -0.41,0.66 -0.53,1.06 -0.12,0.41 -0.18,0.83 -0.18,1.26l0 0.25zm10.71 2.65l2.38 -6.86 0.97 0 -3.45 9.46c-0.07,0.19 -0.16,0.39 -0.27,0.63 -0.11,0.23 -0.25,0.45 -0.42,0.65 -0.17,0.2 -0.39,0.37 -0.65,0.51 -0.26,0.14 -0.57,0.21 -0.95,0.21 -0.05,0 -0.11,-0 -0.17,-0.01 -0.07,-0.01 -0.13,-0.02 -0.2,-0.03 -0.07,-0.01 -0.13,-0.02 -0.19,-0.04 -0.06,-0.01 -0.11,-0.02 -0.14,-0.03l-0.01 -0.75c0.06,0.01 0.14,0.02 0.24,0.03 0.1,0.01 0.18,0.02 0.22,0.02 0.24,0 0.46,-0.03 0.64,-0.1 0.19,-0.06 0.35,-0.15 0.49,-0.28 0.14,-0.12 0.26,-0.28 0.37,-0.46 0.11,-0.19 0.2,-0.4 0.29,-0.64l0.39 -1.08 -3.07 -8.09 0.99 0 2.53 6.86zm8.14 -2.85c0,-0.63 0.07,-1.21 0.22,-1.72 0.14,-0.51 0.35,-0.94 0.62,-1.31 0.27,-0.36 0.6,-0.64 0.99,-0.84 0.39,-0.2 0.83,-0.3 1.32,-0.3 0.58,0 1.08,0.12 1.5,0.35 0.42,0.23 0.76,0.56 1.03,0.97l0.05 -1.18 0.84 0 0 8.01c0,0.53 -0.08,1 -0.23,1.42 -0.15,0.42 -0.38,0.77 -0.66,1.06 -0.28,0.29 -0.63,0.51 -1.03,0.67 -0.4,0.15 -0.85,0.23 -1.35,0.23 -0.26,0 -0.52,-0.03 -0.78,-0.09 -0.27,-0.06 -0.52,-0.14 -0.77,-0.26 -0.25,-0.12 -0.48,-0.26 -0.7,-0.43 -0.22,-0.17 -0.41,-0.38 -0.58,-0.61l0.5 -0.54c0.33,0.41 0.68,0.7 1.06,0.89 0.37,0.19 0.78,0.28 1.22,0.28 0.39,0 0.73,-0.06 1.03,-0.18 0.3,-0.12 0.55,-0.29 0.76,-0.51 0.21,-0.22 0.36,-0.5 0.47,-0.82 0.11,-0.32 0.16,-0.68 0.16,-1.09l0 -0.95c-0.27,0.38 -0.62,0.67 -1.03,0.88 -0.42,0.21 -0.91,0.32 -1.49,0.32 -0.49,0 -0.92,-0.1 -1.31,-0.31 -0.39,-0.2 -0.71,-0.49 -0.99,-0.85 -0.27,-0.37 -0.48,-0.8 -0.62,-1.31 -0.14,-0.51 -0.22,-1.07 -0.22,-1.68l0 -0.16zm0.91 0.16c0,0.48 0.05,0.92 0.14,1.33 0.1,0.41 0.24,0.77 0.43,1.07 0.2,0.3 0.45,0.54 0.74,0.71 0.3,0.17 0.65,0.26 1.07,0.26 0.31,0 0.59,-0.04 0.84,-0.11 0.25,-0.07 0.47,-0.18 0.66,-0.31 0.19,-0.13 0.35,-0.29 0.5,-0.47 0.14,-0.18 0.26,-0.38 0.36,-0.59l0 -3.79c-0.09,-0.21 -0.2,-0.41 -0.33,-0.61 -0.13,-0.19 -0.29,-0.36 -0.48,-0.51 -0.19,-0.15 -0.41,-0.26 -0.66,-0.35 -0.25,-0.09 -0.54,-0.13 -0.87,-0.13 -0.42,0 -0.77,0.09 -1.08,0.26 -0.3,0.17 -0.55,0.41 -0.75,0.71 -0.2,0.3 -0.34,0.66 -0.43,1.07 -0.1,0.41 -0.14,0.85 -0.14,1.33l0 0.16z"></path> <path class="fil1" d="M270.44 130.59c-0.05,-0.14 -0.09,-0.31 -0.12,-0.52 -0.03,-0.2 -0.05,-0.41 -0.06,-0.62 -0.14,0.17 -0.3,0.34 -0.48,0.5 -0.19,0.15 -0.39,0.29 -0.63,0.41 -0.23,0.12 -0.48,0.21 -0.76,0.28 -0.28,0.07 -0.58,0.11 -0.9,0.11 -0.4,0 -0.76,-0.06 -1.08,-0.17 -0.32,-0.12 -0.6,-0.28 -0.83,-0.49 -0.23,-0.21 -0.41,-0.45 -0.53,-0.73 -0.13,-0.28 -0.19,-0.59 -0.19,-0.92 0,-0.4 0.09,-0.75 0.26,-1.07 0.17,-0.32 0.42,-0.59 0.74,-0.82 0.32,-0.22 0.71,-0.39 1.17,-0.51 0.46,-0.12 0.98,-0.18 1.55,-0.18l1.67 0 0 -0.93c0,-0.58 -0.18,-1.04 -0.54,-1.38 -0.36,-0.33 -0.88,-0.5 -1.57,-0.5 -0.32,0 -0.61,0.04 -0.87,0.13 -0.27,0.08 -0.5,0.2 -0.69,0.35 -0.19,0.15 -0.34,0.32 -0.45,0.52 -0.11,0.2 -0.16,0.41 -0.16,0.64l-0.91 -0.01c0,-0.31 0.07,-0.6 0.23,-0.89 0.15,-0.29 0.36,-0.54 0.64,-0.76 0.27,-0.22 0.6,-0.4 0.99,-0.54 0.39,-0.14 0.81,-0.21 1.28,-0.21 0.43,0 0.83,0.06 1.19,0.17 0.37,0.11 0.68,0.28 0.94,0.5 0.26,0.22 0.47,0.5 0.61,0.83 0.15,0.33 0.22,0.72 0.22,1.16l0 3.95c0,0.14 0.01,0.29 0.02,0.44 0.01,0.15 0.03,0.3 0.05,0.44 0.02,0.14 0.05,0.28 0.08,0.4 0.03,0.13 0.06,0.24 0.11,0.34l0 0.09 -0.96 0zm-2.83 -0.65c0.33,0 0.63,-0.04 0.91,-0.12 0.28,-0.08 0.53,-0.2 0.76,-0.34 0.23,-0.14 0.42,-0.31 0.59,-0.51 0.17,-0.2 0.3,-0.4 0.4,-0.63l0 -1.79 -1.55 0c-0.46,0 -0.87,0.04 -1.24,0.12 -0.36,0.08 -0.67,0.2 -0.92,0.36 -0.25,0.16 -0.44,0.34 -0.58,0.57 -0.13,0.22 -0.2,0.48 -0.2,0.76 0,0.22 0.04,0.43 0.13,0.62 0.09,0.19 0.21,0.36 0.37,0.5 0.16,0.14 0.35,0.25 0.58,0.34 0.22,0.08 0.48,0.12 0.76,0.12zm6.77 -7.5l0.03 1.33c0.14,-0.22 0.29,-0.42 0.47,-0.61 0.18,-0.18 0.38,-0.34 0.6,-0.47 0.22,-0.13 0.46,-0.23 0.72,-0.3 0.26,-0.07 0.54,-0.11 0.85,-0.11 0.6,0 1.11,0.13 1.54,0.38 0.43,0.25 0.73,0.65 0.91,1.21 0.13,-0.23 0.29,-0.44 0.47,-0.63 0.18,-0.19 0.39,-0.36 0.63,-0.5 0.23,-0.14 0.49,-0.25 0.77,-0.33 0.28,-0.08 0.59,-0.12 0.91,-0.12 0.42,0 0.8,0.06 1.13,0.17 0.33,0.11 0.61,0.29 0.84,0.53 0.23,0.24 0.4,0.56 0.52,0.93 0.12,0.38 0.18,0.83 0.18,1.36l0 5.31 -0.91 0 0 -5.32c0,-0.43 -0.05,-0.79 -0.14,-1.08 -0.1,-0.28 -0.23,-0.51 -0.41,-0.68 -0.17,-0.17 -0.39,-0.28 -0.63,-0.35 -0.24,-0.06 -0.51,-0.1 -0.8,-0.1 -0.38,0.01 -0.72,0.07 -1,0.21 -0.29,0.13 -0.53,0.3 -0.73,0.5 -0.2,0.2 -0.35,0.43 -0.46,0.68 -0.11,0.25 -0.17,0.5 -0.2,0.73l0 5.4 -0.91 0 0 -5.39c0,-0.41 -0.05,-0.75 -0.14,-1.02 -0.1,-0.27 -0.23,-0.49 -0.41,-0.66 -0.18,-0.17 -0.39,-0.29 -0.63,-0.35 -0.24,-0.07 -0.51,-0.11 -0.81,-0.11 -0.34,0 -0.64,0.05 -0.91,0.16 -0.26,0.11 -0.49,0.25 -0.68,0.43 -0.19,0.18 -0.35,0.39 -0.48,0.62 -0.13,0.23 -0.23,0.47 -0.3,0.71l0 5.59 -0.9 0 0 -8.15 0.86 0zm16.01 8.3c-0.53,0 -1.02,-0.1 -1.47,-0.3 -0.45,-0.2 -0.83,-0.48 -1.15,-0.83 -0.32,-0.35 -0.58,-0.78 -0.76,-1.26 -0.18,-0.49 -0.27,-1.02 -0.27,-1.6l0 -0.32c0,-0.63 0.09,-1.2 0.28,-1.71 0.19,-0.51 0.44,-0.94 0.76,-1.3 0.32,-0.36 0.69,-0.64 1.11,-0.83 0.42,-0.2 0.86,-0.3 1.33,-0.3 0.52,0 0.98,0.1 1.38,0.28 0.4,0.19 0.74,0.44 1.01,0.78 0.28,0.33 0.48,0.73 0.62,1.18 0.14,0.46 0.21,0.96 0.21,1.5l0 0.55 -5.82 0 0 0.17c0,0.45 0.07,0.87 0.2,1.26 0.14,0.39 0.33,0.74 0.57,1.03 0.25,0.29 0.54,0.52 0.88,0.69 0.34,0.17 0.72,0.25 1.14,0.25 0.48,0 0.91,-0.09 1.28,-0.26 0.37,-0.17 0.7,-0.46 1.01,-0.84l0.57 0.43c-0.14,0.2 -0.29,0.38 -0.47,0.56 -0.18,0.17 -0.39,0.33 -0.62,0.46 -0.24,0.13 -0.5,0.23 -0.8,0.31 -0.3,0.07 -0.63,0.11 -0.99,0.11zm-0.17 -7.69c-0.34,0 -0.66,0.07 -0.95,0.2 -0.29,0.13 -0.55,0.32 -0.77,0.56 -0.22,0.24 -0.41,0.53 -0.55,0.87 -0.14,0.34 -0.24,0.71 -0.29,1.13l4.89 0 0 -0.1c-0.01,-0.34 -0.06,-0.67 -0.16,-0.99 -0.1,-0.32 -0.25,-0.6 -0.44,-0.85 -0.2,-0.25 -0.43,-0.45 -0.72,-0.59 -0.29,-0.15 -0.62,-0.22 -1,-0.22zm11.89 7.69c-0.53,0 -1.02,-0.1 -1.47,-0.3 -0.45,-0.2 -0.83,-0.48 -1.15,-0.83 -0.32,-0.35 -0.58,-0.78 -0.76,-1.26 -0.18,-0.49 -0.27,-1.02 -0.27,-1.6l0 -0.32c0,-0.63 0.09,-1.2 0.28,-1.71 0.19,-0.51 0.44,-0.94 0.76,-1.3 0.32,-0.36 0.69,-0.64 1.11,-0.83 0.42,-0.2 0.86,-0.3 1.33,-0.3 0.52,0 0.98,0.1 1.38,0.28 0.4,0.19 0.74,0.44 1.01,0.78 0.28,0.33 0.48,0.73 0.62,1.18 0.14,0.46 0.21,0.96 0.21,1.5l0 0.55 -5.82 0 0 0.17c0,0.45 0.07,0.87 0.2,1.26 0.14,0.39 0.33,0.74 0.57,1.03 0.25,0.29 0.54,0.52 0.88,0.69 0.34,0.17 0.72,0.25 1.14,0.25 0.48,0 0.91,-0.09 1.28,-0.26 0.37,-0.17 0.7,-0.46 1.01,-0.84l0.57 0.43c-0.14,0.2 -0.29,0.38 -0.47,0.56 -0.18,0.17 -0.39,0.33 -0.62,0.46 -0.24,0.13 -0.5,0.23 -0.8,0.31 -0.3,0.07 -0.63,0.11 -0.99,0.11zm-0.17 -7.69c-0.34,0 -0.66,0.07 -0.95,0.2 -0.29,0.13 -0.55,0.32 -0.77,0.56 -0.22,0.24 -0.41,0.53 -0.55,0.87 -0.14,0.34 -0.24,0.71 -0.29,1.13l4.89 0 0 -0.1c-0.01,-0.34 -0.06,-0.67 -0.16,-0.99 -0.1,-0.32 -0.25,-0.6 -0.44,-0.85 -0.2,-0.25 -0.43,-0.45 -0.72,-0.59 -0.29,-0.15 -0.62,-0.22 -1,-0.22zm5.84 -0.62l0.03 1.39c0.14,-0.23 0.3,-0.44 0.49,-0.63 0.18,-0.19 0.39,-0.35 0.61,-0.49 0.23,-0.14 0.47,-0.24 0.73,-0.31 0.26,-0.07 0.54,-0.11 0.83,-0.11 0.41,0 0.77,0.06 1.09,0.17 0.32,0.11 0.59,0.29 0.82,0.53 0.22,0.24 0.39,0.55 0.51,0.93 0.12,0.38 0.18,0.84 0.18,1.37l0 5.31 -0.9 0 0 -5.31c0,-0.42 -0.05,-0.77 -0.14,-1.06 -0.09,-0.28 -0.22,-0.51 -0.38,-0.68 -0.17,-0.17 -0.37,-0.29 -0.61,-0.37 -0.24,-0.07 -0.5,-0.11 -0.79,-0.11 -0.32,0 -0.61,0.05 -0.87,0.16 -0.26,0.11 -0.49,0.25 -0.69,0.43 -0.2,0.18 -0.38,0.39 -0.52,0.62 -0.14,0.23 -0.26,0.47 -0.34,0.72l0 5.58 -0.9 0 0 -8.15 0.86 0zm7.26 4c0,-0.63 0.07,-1.21 0.22,-1.72 0.15,-0.51 0.35,-0.94 0.63,-1.31 0.27,-0.36 0.6,-0.64 0.99,-0.84 0.39,-0.2 0.83,-0.3 1.31,-0.3 0.58,0 1.07,0.12 1.49,0.35 0.41,0.23 0.76,0.55 1.03,0.96l0 -4.57 0.89 0 0 11.57 -0.84 0 -0.04 -1.09c-0.27,0.39 -0.61,0.69 -1.03,0.91 -0.42,0.22 -0.92,0.33 -1.51,0.33 -0.48,0 -0.92,-0.1 -1.3,-0.31 -0.39,-0.2 -0.71,-0.49 -0.99,-0.85 -0.27,-0.37 -0.48,-0.8 -0.63,-1.31 -0.14,-0.51 -0.22,-1.07 -0.22,-1.68l0 -0.16zm0.91 0.16c0,0.48 0.05,0.92 0.14,1.33 0.1,0.41 0.24,0.77 0.43,1.07 0.2,0.3 0.45,0.54 0.74,0.71 0.3,0.17 0.65,0.26 1.07,0.26 0.31,0 0.58,-0.04 0.83,-0.11 0.25,-0.07 0.47,-0.17 0.66,-0.3 0.19,-0.13 0.36,-0.29 0.5,-0.47 0.14,-0.18 0.26,-0.38 0.37,-0.59l0 -3.83c-0.09,-0.21 -0.2,-0.4 -0.33,-0.59 -0.13,-0.19 -0.29,-0.36 -0.48,-0.51 -0.19,-0.15 -0.41,-0.26 -0.66,-0.35 -0.25,-0.09 -0.54,-0.13 -0.87,-0.13 -0.42,0 -0.77,0.09 -1.08,0.26 -0.3,0.17 -0.55,0.41 -0.75,0.71 -0.2,0.3 -0.34,0.66 -0.43,1.07 -0.1,0.41 -0.14,0.85 -0.14,1.33l0 0.16zm9.03 3.99l-0.91 0 0 -11.57 0.91 0 0 11.57zm5.61 0.15c-0.53,0 -1.02,-0.1 -1.47,-0.3 -0.45,-0.2 -0.83,-0.48 -1.15,-0.83 -0.32,-0.35 -0.58,-0.78 -0.76,-1.26 -0.18,-0.49 -0.27,-1.02 -0.27,-1.6l0 -0.32c0,-0.63 0.09,-1.2 0.28,-1.71 0.19,-0.51 0.44,-0.94 0.76,-1.3 0.32,-0.36 0.69,-0.64 1.11,-0.83 0.42,-0.2 0.86,-0.3 1.33,-0.3 0.52,0 0.98,0.1 1.38,0.28 0.4,0.19 0.74,0.44 1.01,0.78 0.28,0.33 0.48,0.73 0.62,1.18 0.14,0.46 0.21,0.96 0.21,1.5l0 0.55 -5.82 0 0 0.17c0,0.45 0.07,0.87 0.2,1.26 0.14,0.39 0.33,0.74 0.57,1.03 0.25,0.29 0.54,0.52 0.88,0.69 0.34,0.17 0.72,0.25 1.14,0.25 0.48,0 0.91,-0.09 1.28,-0.26 0.37,-0.17 0.7,-0.46 1.01,-0.84l0.57 0.43c-0.14,0.2 -0.29,0.38 -0.47,0.56 -0.18,0.17 -0.39,0.33 -0.62,0.46 -0.24,0.13 -0.5,0.23 -0.8,0.31 -0.3,0.07 -0.63,0.11 -0.99,0.11zm-0.17 -7.69c-0.34,0 -0.66,0.07 -0.95,0.2 -0.29,0.13 -0.55,0.32 -0.77,0.56 -0.22,0.24 -0.41,0.53 -0.55,0.87 -0.14,0.34 -0.24,0.71 -0.29,1.13l4.89 0 0 -0.1c-0.01,-0.34 -0.06,-0.67 -0.16,-0.99 -0.1,-0.32 -0.25,-0.6 -0.44,-0.85 -0.2,-0.25 -0.43,-0.45 -0.72,-0.59 -0.29,-0.15 -0.62,-0.22 -1,-0.22zm9.86 5.46c0,-0.16 -0.03,-0.33 -0.08,-0.5 -0.06,-0.17 -0.17,-0.32 -0.32,-0.47 -0.16,-0.15 -0.38,-0.29 -0.66,-0.41 -0.28,-0.13 -0.65,-0.24 -1.1,-0.34 -0.45,-0.1 -0.86,-0.21 -1.21,-0.33 -0.35,-0.12 -0.65,-0.28 -0.9,-0.46 -0.24,-0.18 -0.43,-0.39 -0.55,-0.64 -0.13,-0.25 -0.19,-0.53 -0.19,-0.87 0,-0.3 0.07,-0.59 0.2,-0.86 0.13,-0.27 0.32,-0.51 0.57,-0.71 0.25,-0.2 0.55,-0.36 0.9,-0.48 0.35,-0.12 0.75,-0.18 1.2,-0.18 0.47,0 0.89,0.06 1.27,0.19 0.38,0.12 0.69,0.3 0.95,0.51 0.26,0.22 0.46,0.48 0.59,0.77 0.14,0.3 0.21,0.62 0.21,0.96l-0.91 0c0,-0.21 -0.05,-0.42 -0.14,-0.62 -0.09,-0.2 -0.23,-0.38 -0.41,-0.53 -0.18,-0.15 -0.4,-0.28 -0.66,-0.37 -0.26,-0.1 -0.57,-0.14 -0.9,-0.14 -0.35,0 -0.65,0.04 -0.9,0.13 -0.25,0.08 -0.45,0.2 -0.61,0.33 -0.16,0.14 -0.27,0.29 -0.35,0.46 -0.07,0.17 -0.11,0.34 -0.11,0.51 0,0.18 0.03,0.34 0.08,0.49 0.06,0.15 0.16,0.29 0.32,0.41 0.16,0.13 0.38,0.25 0.66,0.35 0.28,0.11 0.65,0.21 1.11,0.32 0.49,0.12 0.92,0.24 1.27,0.39 0.35,0.14 0.65,0.31 0.88,0.5 0.23,0.2 0.41,0.42 0.52,0.66 0.11,0.25 0.17,0.54 0.17,0.86 0,0.34 -0.07,0.64 -0.21,0.92 -0.14,0.28 -0.34,0.52 -0.6,0.71 -0.26,0.2 -0.58,0.35 -0.95,0.46 -0.37,0.11 -0.78,0.17 -1.24,0.17 -0.52,0 -0.97,-0.07 -1.37,-0.2 -0.4,-0.13 -0.73,-0.31 -1,-0.54 -0.27,-0.22 -0.48,-0.49 -0.61,-0.78 -0.14,-0.29 -0.21,-0.6 -0.21,-0.92l0.9 0c0.02,0.32 0.1,0.59 0.25,0.8 0.15,0.21 0.33,0.39 0.54,0.51 0.22,0.13 0.46,0.22 0.72,0.28 0.26,0.06 0.52,0.08 0.78,0.08 0.34,0 0.64,-0.04 0.91,-0.12 0.26,-0.08 0.48,-0.19 0.66,-0.32 0.18,-0.14 0.31,-0.29 0.4,-0.47 0.09,-0.17 0.13,-0.36 0.13,-0.55zm7.81 0c0,-0.16 -0.03,-0.33 -0.08,-0.5 -0.06,-0.17 -0.17,-0.32 -0.32,-0.47 -0.16,-0.15 -0.38,-0.29 -0.66,-0.41 -0.28,-0.13 -0.65,-0.24 -1.1,-0.34 -0.45,-0.1 -0.86,-0.21 -1.21,-0.33 -0.35,-0.12 -0.65,-0.28 -0.9,-0.46 -0.24,-0.18 -0.43,-0.39 -0.55,-0.64 -0.13,-0.25 -0.19,-0.53 -0.19,-0.87 0,-0.3 0.07,-0.59 0.2,-0.86 0.13,-0.27 0.32,-0.51 0.57,-0.71 0.25,-0.2 0.55,-0.36 0.9,-0.48 0.35,-0.12 0.75,-0.18 1.2,-0.18 0.47,0 0.89,0.06 1.27,0.19 0.38,0.12 0.69,0.3 0.95,0.51 0.26,0.22 0.46,0.48 0.59,0.77 0.14,0.3 0.21,0.62 0.21,0.96l-0.91 0c0,-0.21 -0.05,-0.42 -0.14,-0.62 -0.09,-0.2 -0.23,-0.38 -0.41,-0.53 -0.18,-0.15 -0.4,-0.28 -0.66,-0.37 -0.26,-0.1 -0.57,-0.14 -0.9,-0.14 -0.35,0 -0.65,0.04 -0.9,0.13 -0.25,0.08 -0.45,0.2 -0.61,0.33 -0.16,0.14 -0.27,0.29 -0.35,0.46 -0.07,0.17 -0.11,0.34 -0.11,0.51 0,0.18 0.03,0.34 0.08,0.49 0.06,0.15 0.16,0.29 0.32,0.41 0.16,0.13 0.38,0.25 0.66,0.35 0.28,0.11 0.65,0.21 1.11,0.32 0.49,0.12 0.92,0.24 1.27,0.39 0.35,0.14 0.65,0.31 0.88,0.5 0.23,0.2 0.41,0.42 0.52,0.66 0.11,0.25 0.17,0.54 0.17,0.86 0,0.34 -0.07,0.64 -0.21,0.92 -0.14,0.28 -0.34,0.52 -0.6,0.71 -0.26,0.2 -0.58,0.35 -0.95,0.46 -0.37,0.11 -0.78,0.17 -1.24,0.17 -0.52,0 -0.97,-0.07 -1.37,-0.2 -0.4,-0.13 -0.73,-0.31 -1,-0.54 -0.27,-0.22 -0.48,-0.49 -0.61,-0.78 -0.14,-0.29 -0.21,-0.6 -0.21,-0.92l0.9 0c0.02,0.32 0.1,0.59 0.25,0.8 0.15,0.21 0.33,0.39 0.54,0.51 0.22,0.13 0.46,0.22 0.72,0.28 0.26,0.06 0.52,0.08 0.78,0.08 0.34,0 0.64,-0.04 0.91,-0.12 0.26,-0.08 0.48,-0.19 0.66,-0.32 0.18,-0.14 0.31,-0.29 0.4,-0.47 0.09,-0.17 0.13,-0.36 0.13,-0.55z"></path> </g> <line class="fil2 str0" x1="216.04" y1="26.4" x2="216.04" y2="132.88"></line> </g> </g> </svg> 