<?xml version="1.0" encoding="UTF-8"?> <!-- Creator: CorelDRAW 2020 (64-Bit) --> <svg xmlns="http://www.w3.org/2000/svg" xmlns:xlink="http://www.w3.org/1999/xlink" xmlns:xodm="http://www.corel.com/coreldraw/odm/2003" xml:space="preserve" width="47.8025mm" height="98.8065mm" style="shape-rendering:geometricPrecision; text-rendering:geometricPrecision; image-rendering:optimizeQuality; fill-rule:evenodd; clip-rule:evenodd" viewBox="0 0 20.89 43.18"> <defs> <style type="text/css"> <![CDATA[ .fil0 {fill:#8EAF0C;fill-rule:nonzero} ]]> </style> </defs> <g id="Слой_x0020_1"> <metadata id="CorelCorpID_0Corel-Layer"></metadata> <g id="_2522954281360"> <path class="fil0" d="M20.89 5.52c0,-3.05 -2.47,-5.52 -5.52,-5.52 -3.05,0 -5.52,2.47 -5.52,5.52 0,3.05 2.47,5.52 5.52,5.52 3.05,0 5.52,-2.47 5.52,-5.52z"></path> <polygon class="fil0" points="15.75,5.52 15.75,35.87 14.98,35.87 14.98,5.52 "></polygon> <path class="fil0" d="M15.75 35.87c0,2.02 -0.82,3.84 -2.14,5.16 -1.32,1.32 -3.15,2.14 -5.16,2.14l0 -0.77c1.8,0 3.44,-0.73 4.62,-1.91 1.18,-1.18 1.91,-2.82 1.91,-4.62l0.77 0z"></path> <polygon class="fil0" points="8.45,43.18 -0,43.18 -0,42.41 8.45,42.41 "></polygon> </g> </g> </svg> 