<?xml version="1.0" encoding="UTF-8"?> <svg xmlns="http://www.w3.org/2000/svg" width="66" height="66" viewBox="0 0 66 66" fill="none"> <g clip-path="url(#clip0_969_9)"> <path fill-rule="evenodd" clip-rule="evenodd" d="M32.9442 65.8885C51.1389 65.8885 65.8885 51.1389 65.8885 32.9442C65.8885 14.7496 51.1389 0 32.9442 0C14.7496 0 0 14.7496 0 32.9442C0 51.1389 14.7496 65.8885 32.9442 65.8885ZM49.8267 14L36.4249 29.6589H36.4241L51 50.981H40.2802L30.4647 36.6227L18.176 50.981H15L29.0548 34.5602L15 14H25.7198L35.0141 27.5964L46.6509 14H49.8267ZM30.6509 32.694L32.0749 34.7413V34.7421L41.7743 48.6871H46.6524L34.7664 31.5977L33.3424 29.5504L24.1985 16.4032H19.3203L30.6509 32.694Z" fill="white"></path> </g> <defs> <clipPath id="clip0_969_9"> <rect width="66" height="66" fill="white"></rect> </clipPath> </defs> </svg> 