<svg xmlns="http://www.w3.org/2000/svg" width="21.812" height="17" viewBox="0 0 21.812 17">
  <defs>
    <style>
      .cls-1 {
        fill: #fff;
        fill-rule: evenodd;
      }
    </style>
  </defs>
  <path id="review.svg" class="cls-1" d="M961.964,250.537a7.7,7.7,0,0,0,3.12-2.252,4.782,4.782,0,0,0,0-6.2,7.721,7.721,0,0,0-3.12-2.251,11.59,11.59,0,0,0-8.6,0,7.724,7.724,0,0,0-3.119,2.251,4.856,4.856,0,0,0-1.144,3.1,4.717,4.717,0,0,0,.865,2.705,7.09,7.09,0,0,0,2.371,2.137c-0.081.194-.164,0.37-0.249,0.532a3.033,3.033,0,0,1-.3.464c-0.118.15-.209,0.265-0.274,0.35a4.6,4.6,0,0,1-.316.355c-0.146.154-.24,0.255-0.28,0.3a0.109,0.109,0,0,0-.049.056,0.168,0.168,0,0,1-.054.06,0.123,0.123,0,0,0-.049.059l-0.043.068-0.03.059a0.271,0.271,0,0,0-.024.073,0.474,0.474,0,0,0-.007.079,0.22,0.22,0,0,0,.013.078,0.392,0.392,0,0,0,.14.253,0.372,0.372,0,0,0,.249.1H951.1a10.007,10.007,0,0,0,1.046-.194,10.242,10.242,0,0,0,3.381-1.545,12.293,12.293,0,0,0,2.141.193A11.009,11.009,0,0,0,961.964,250.537Zm8.07,0.447a4.679,4.679,0,0,0-.049-5.486,7.188,7.188,0,0,0-2.481-2.15,6.179,6.179,0,0,1-.535,4.9,8.124,8.124,0,0,1-2.336,2.561,10.782,10.782,0,0,1-3.21,1.556,12.945,12.945,0,0,1-3.759.544c-0.243,0-.6-0.016-1.07-0.049a10.273,10.273,0,0,0,5.741,1.595,12.276,12.276,0,0,0,2.14-.194A9.8,9.8,0,0,0,968.9,256a0.37,0.37,0,0,0,.267-0.085,0.442,0.442,0,0,0,.158-0.265,0.086,0.086,0,0,1,.012-0.078c0.012,0,.01-0.032-0.006-0.079l-0.024-.072-0.03-.061a0.576,0.576,0,0,0-.043-0.066,0.542,0.542,0,0,0-.048-0.061c-0.012-.012-0.03-0.031-0.055-0.06s-0.04-.046-0.049-0.054c-0.04-.049-0.133-0.149-0.279-0.3a4.734,4.734,0,0,1-.316-0.356l-0.274-.35a3.091,3.091,0,0,1-.3-0.465c-0.085-.16-0.168-0.338-0.249-0.531A7.129,7.129,0,0,0,970.034,250.984Z" transform="translate(-949.094 -239)"/>
</svg>
