<svg xmlns="http://www.w3.org/2000/svg" width="16.66" height="17" viewBox="0 0 16.66 17">
  <defs>
    <style>
      .cls-1 {
        fill: #fff;
        fill-rule: evenodd;
      }
    </style>
  </defs>
  <path id="video.svg" class="cls-1" d="M1040.91,239h-14.49a1.1,1.1,0,0,0-1.09,1.109v14.784a1.1,1.1,0,0,0,1.09,1.107h14.49a1.1,1.1,0,0,0,1.09-1.107V240.108A1.1,1.1,0,0,0,1040.91,239Zm-11.56,15.268a0.633,0.633,0,0,1-.64.615h-1.68a0.6,0.6,0,0,1-.6-0.615v-1.71a0.639,0.639,0,0,1,.6-0.659h1.68a0.673,0.673,0,0,1,.64.659v1.71Zm0-5.913a0.652,0.652,0,0,1-.64.637h-1.68a0.619,0.619,0,0,1-.6-0.637v-1.71a0.617,0.617,0,0,1,.6-0.635h1.68a0.652,0.652,0,0,1,.64.635v1.71Zm0-5.912a0.671,0.671,0,0,1-.64.658h-1.68a0.638,0.638,0,0,1-.6-0.658v-1.711a0.6,0.6,0,0,1,.6-0.613h1.68a0.631,0.631,0,0,1,.64.613v1.711Zm11.55,11.825a0.6,0.6,0,0,1-.6.615h-1.67a0.642,0.642,0,0,1-.65-0.615v-1.71a0.682,0.682,0,0,1,.65-0.659h1.67a0.639,0.639,0,0,1,.6.659v1.71Zm0-5.913a0.618,0.618,0,0,1-.6.637h-1.67a0.662,0.662,0,0,1-.65-0.637v-1.71a0.66,0.66,0,0,1,.65-0.635h1.67a0.617,0.617,0,0,1,.6.635v1.71Zm0-5.912a0.638,0.638,0,0,1-.6.658h-1.67a0.68,0.68,0,0,1-.65-0.658v-1.711a0.64,0.64,0,0,1,.65-0.613h1.67a0.6,0.6,0,0,1,.6.613v1.711Z" transform="translate(-1025.34 -239)"/>
</svg>
