<svg width="30" height="30" viewBox="0 0 30 30" fill="none" xmlns="http://www.w3.org/2000/svg">
<path d="M25.4347 7.66308H4.56512C3.39121 7.66308 2.44556 6.71743 2.44556 5.54352C2.44556 4.3696 3.39121 3.42395 4.56512 3.42395H25.4347C26.6086 3.42395 27.5543 4.3696 27.5543 5.54352C27.5543 6.71743 26.6086 7.66308 25.4347 7.66308ZM27.5543 15C27.5543 13.8261 26.6086 12.8805 25.4347 12.8805H4.56512C3.39121 12.8805 2.44556 13.8261 2.44556 15C2.44556 16.174 3.39121 17.1196 4.56512 17.1196H25.4347C26.6086 17.1196 27.5543 16.174 27.5543 15ZM27.5543 24.4566C27.5543 23.2826 26.6086 22.337 25.4347 22.337H4.56512C3.39121 22.337 2.44556 23.2826 2.44556 24.4566C2.44556 25.6305 3.39121 26.5761 4.56512 26.5761H25.4347C26.6086 26.5761 27.5543 25.6305 27.5543 24.4566Z" fill="#0F6580"/>
</svg>
