<svg width="190" height="27" viewBox="0 0 190 27" fill="none" xmlns="http://www.w3.org/2000/svg">
<g clip-path="url(#clip0_1_12029)">
<path d="M61.9414 1.45671C65.076 1.45671 68.2131 1.37916 71.3426 1.47997C74.0747 1.56786 76.4766 4.00286 76.7139 6.69117C77.0106 10.0438 75.2743 12.347 71.6341 13.2284C73.4452 16.4079 75.2331 19.5486 77.1448 22.9038C75.9013 22.9038 74.8512 22.9684 73.8167 22.865C73.5045 22.834 73.1537 22.3894 72.9627 22.0534C71.4406 19.409 69.9288 16.7569 68.4711 14.0789C68.0274 13.2646 67.5166 12.9183 66.5027 13.3525V22.7849C64.2865 23.1623 63.381 22.4592 63.3707 20.3422C63.3423 15.0456 63.3346 9.75172 63.3707 4.45522C63.3784 3.19894 63.1927 2.15464 61.9414 1.45412V1.45671ZM66.5543 3.84259V10.7107C66.9026 10.7495 67.1915 10.8064 67.4779 10.809C68.6775 10.8167 69.8746 10.8296 71.0717 10.7857C71.3916 10.7728 71.7373 10.6177 72.0159 10.4393C73.2775 9.62506 73.9173 7.91643 73.5355 6.49472C73.164 5.11179 71.8353 3.9434 70.388 3.8581C69.1548 3.78572 67.9165 3.84259 66.5543 3.84259Z" fill="black"/>
<path d="M167.965 22.9579C165.256 22.9346 163.275 21.7094 162.109 19.2692C160.904 16.7463 160.754 14.1278 161.797 11.5145C162.898 8.75376 165.202 7.22348 168.086 7.23641C170.935 7.24933 173.318 8.84423 174.361 11.5584C175.403 14.2726 175.233 16.9893 173.881 19.5484C172.65 21.88 170.609 22.9889 167.963 22.9579H167.965ZM171.791 15.167C171.616 14.1304 171.536 13.1378 171.267 12.1995C170.808 10.5968 169.57 9.67141 168.084 9.6559C166.59 9.64039 165.341 10.5503 164.856 12.1452C164.201 14.3088 164.289 16.4904 165.05 18.6101C165.566 20.0499 166.673 20.753 168.107 20.7375C169.529 20.722 170.648 19.9878 171.105 18.5377C171.451 17.4443 171.572 16.2811 171.791 15.167Z" fill="black"/>
<path d="M114.28 14.9576C114.084 16.0071 113.991 17.0902 113.676 18.1035C112.647 21.4122 110.258 23.0588 106.803 22.945C103.857 22.8494 101.522 20.8667 100.709 17.7442C100.212 15.8313 100.181 13.9081 100.779 12.016C101.785 8.83652 104.654 6.94177 107.895 7.27264C111.259 7.61643 113.782 10.2479 114.112 13.7763C114.148 14.1589 114.117 14.5492 114.117 14.9369C114.171 14.9447 114.226 14.9524 114.28 14.9602V14.9576ZM110.98 15.1644C110.774 14.0193 110.696 12.9776 110.389 12.0108C109.907 10.4909 108.656 9.6456 107.201 9.66369C105.797 9.6792 104.574 10.5141 104.112 11.972C103.39 14.2545 103.449 16.5551 104.334 18.7911C104.845 20.0835 105.851 20.722 107.244 20.7323C108.699 20.7427 109.77 20.0706 110.219 18.7135C110.603 17.5477 110.748 16.2992 110.98 15.167V15.1644Z" fill="black"/>
<path d="M130.905 11.398C131.173 10.1883 131.062 8.53135 131.813 7.89288C132.556 7.26216 134.168 7.60337 135.399 7.62146C136.333 7.63439 137.308 7.67058 138.19 7.93941C140.241 8.56496 141.271 10.0539 141.281 12.1683C141.294 14.6654 141.299 17.1624 141.281 19.6594C141.266 21.7868 140.285 22.826 138.154 22.9268C136.87 22.9862 135.577 22.9888 134.29 22.932C131.601 22.8105 129.734 21.032 129.514 18.4549C129.295 15.901 130.758 13.8821 133.425 13.3781C134.968 13.086 136.573 13.1273 138.265 13.011C138.5 11.959 138.399 10.8294 137.391 10.2348C134.95 8.80019 132.832 9.5524 131.075 11.7935C131.018 11.6617 130.962 11.5273 130.907 11.3954L130.905 11.398ZM138.239 15.4874C137.055 15.4874 135.987 15.3892 134.945 15.5106C133.425 15.689 132.62 16.7204 132.711 18.1343C132.847 20.2385 136.026 21.8334 137.754 20.6391C137.994 20.4737 138.209 20.0885 138.219 19.7964C138.268 18.3954 138.239 16.9918 138.239 15.4848V15.4874Z" fill="black"/>
<path d="M176.716 7.70707C179.673 7.70707 182.632 7.60109 185.581 7.73809C188.522 7.87509 189.997 9.58114 189.997 12.484C189.997 15.922 189.997 19.3599 189.997 22.7798C187.701 23.2321 186.899 22.573 186.896 20.3215C186.894 17.9537 186.907 15.5859 186.891 13.2181C186.876 10.9305 185.968 10.0309 183.677 10.0025C182.957 9.99473 182.237 10.0025 181.373 10.0025V22.9038H178.251C178.251 22.2162 178.251 21.5467 178.251 20.8747C178.251 17.69 178.241 14.5028 178.259 11.3182C178.267 9.90684 178.316 8.50581 176.432 7.98624C176.525 7.89318 176.621 7.80271 176.714 7.70965L176.716 7.70707Z" fill="black"/>
<path d="M91.1175 15.5936H82.4361C81.9898 17.4186 82.805 19.6597 84.3375 20.6316C86.7368 22.1567 88.424 20.7919 89.9436 18.923C90.0236 18.9928 90.101 19.0626 90.181 19.1324C89.9746 20.2827 89.7888 21.4381 89.5411 22.5781C89.5076 22.7384 89.1671 22.94 88.971 22.94C87.2992 22.9245 85.6068 23.0124 83.9634 22.7823C81.6234 22.454 80.0961 20.9832 79.4744 18.7033C78.6849 15.8159 78.8655 12.9829 80.3902 10.3462C81.6312 8.20075 83.6048 7.46663 85.9809 7.72771C88.2847 7.98103 89.7501 9.33036 90.3796 11.5043C90.7434 12.7606 90.8595 14.0892 91.1226 15.5936H91.1175ZM87.7739 13.3318C87.6114 11.1243 86.7058 9.91456 85.2611 9.87578C83.7028 9.83442 82.7225 11.0261 82.467 13.3318H87.7765H87.7739Z" fill="black"/>
<path d="M97.5723 22.8779H94.5255C94.5255 22.3506 94.5255 21.8568 94.5255 21.3631C94.5332 15.3377 94.5255 9.3148 94.5667 3.28934C94.5745 2.24504 94.4352 1.70996 93.1813 1.57296C89.8584 1.2059 86.5613 0.634629 83.259 0.0478516H97.5723V22.8779Z" fill="#0F6580"/>
<path d="M127.247 7.62948V11.0933C126.191 10.6306 125.079 9.99985 123.887 9.66381C122.45 9.25798 121.235 9.86027 120.482 11.1398C119.019 13.6239 118.913 16.2037 120.258 18.7705C121.083 20.3499 122.417 20.9134 124.158 20.4714C125.152 20.2181 126.106 19.82 127.2 19.4452C127.468 19.9828 127.747 20.5438 128.082 21.2158C125.608 22.7022 123.026 23.6508 120.268 22.516C117.507 21.3813 116.411 18.8558 116.292 16.0641C116.223 14.4433 116.537 12.6959 117.128 11.1812C117.964 9.03568 119.773 7.80267 122.118 7.65274C123.782 7.54676 125.459 7.63206 127.252 7.63206L127.247 7.62948Z" fill="black"/>
<path d="M145.445 3.49854H148.474V7.74298C149.426 7.80502 150.251 7.85671 151.136 7.91358V10.0048C150.306 10.0539 149.511 10.1004 148.544 10.1573C148.544 11.5247 148.544 12.843 148.544 14.1613C148.544 15.9708 148.562 17.7776 148.538 19.5845C148.52 20.9287 148.608 22.1927 150.104 22.9294C149.103 22.9294 148.092 23.0069 147.101 22.9113C145.796 22.7846 145.486 21.8153 145.486 20.6753C145.486 17.6174 145.486 14.562 145.486 11.504C145.486 11.0827 145.486 10.6588 145.486 10.1831C144.932 10.1134 144.478 10.0565 143.944 9.99186V7.93426C144.426 7.87222 144.883 7.81536 145.45 7.74298V3.49854H145.445Z" fill="black"/>
<path d="M153.022 7.84375H157.679V22.7872C155.489 23.2421 154.642 22.5675 154.635 20.3341C154.624 17.3666 154.586 14.3991 154.65 11.4342C154.681 9.95046 154.47 8.68902 153.022 7.84375Z" fill="black"/>
<path d="M158.159 3.16268C158.19 4.26644 157.277 5.22286 156.154 5.25647C155.019 5.29266 154.108 4.41895 154.08 3.26866C154.052 2.10545 154.895 1.21365 156.046 1.19039C157.168 1.16712 158.125 2.0615 158.159 3.1601V3.16268Z" fill="black"/>
</g>
<g clip-path="url(#clip1_1_12029)">
<path d="M0.344497 19.7138C-0.148565 19.2733 -0.0816671 18.9516 0.359364 18.6497C0.733497 18.3936 1.07418 18.0793 1.47185 17.8726C1.67007 17.7699 1.96368 17.8504 2.21516 17.8479C2.16313 18.0941 2.13959 18.3503 2.04792 18.5804C2.00208 18.6955 1.83483 18.7623 1.71962 18.8526C5.75704 22.3247 11.8609 22.4657 16.1014 18.844C15.9714 18.7388 15.8054 18.6596 15.731 18.5284C15.6208 18.3342 15.5762 18.1028 15.5043 17.8875C15.7657 17.8528 16.0841 17.7068 16.2749 17.8071C16.7456 18.052 17.1854 18.38 17.5781 18.7388C17.7293 18.8761 17.7219 19.1892 17.7863 19.4218C17.5583 19.4577 17.3254 19.5332 17.1024 19.5134C16.9587 19.501 16.8262 19.3488 16.6527 19.235C15.0682 22.4484 12.3217 23.9766 8.90991 23.9654C5.51546 23.9543 2.83211 22.3754 1.30956 19.183C0.973834 19.3686 0.656688 19.5431 0.345736 19.7151L0.344497 19.7138Z" fill="black"/>
<path d="M5.84375 17.3359C5.87348 17.3062 5.90445 17.2765 5.93419 17.248C5.90445 17.2777 5.87348 17.3074 5.84375 17.3359Z" fill="#F4F8FC"/>
<path d="M29.9494 20.1842C29.9482 19.1114 29.947 18.0399 29.9445 16.9671C29.9048 16.1838 29.8652 15.3993 29.8256 14.6161C29.7549 13.9541 29.6843 13.2921 29.6137 12.6301C29.3622 11.9718 29.1107 11.3135 28.858 10.654C28.7193 10.456 28.6016 10.237 28.4368 10.0626C27.219 8.77075 25.5837 8.59876 23.9546 8.43914C22.639 8.30921 21.3456 8.51957 20.0684 8.81158C19.1145 9.02936 18.9794 9.31767 19.3275 10.2544C19.392 10.4276 19.444 10.6045 19.501 10.7802C19.5778 11.144 19.6434 11.5115 19.7438 11.8691C19.7599 11.9248 19.9457 11.9792 20.0386 11.9607C20.7039 11.8233 21.363 11.6513 22.0282 11.5189C23.5817 11.2108 25.0225 11.3457 26.1486 12.6301C26.2515 13.0298 26.3531 13.4294 26.4745 13.9033C26.166 13.8563 26.0074 13.8242 25.8464 13.8081C24.1318 13.646 22.4544 13.7586 20.855 14.4688C19.6818 14.8809 18.7552 15.5849 18.189 16.7159C18.0763 16.9287 17.9499 17.1378 17.8533 17.3581C17.743 17.6068 17.7034 17.8097 17.9908 18.0349C18.7762 18.6511 18.837 18.9951 18.4579 19.9392C18.3798 20.0048 18.3117 20.1001 18.2212 20.1322C17.5882 20.355 17.6823 20.7571 17.8967 21.2434C18.6648 22.9844 20.1501 23.7045 21.892 23.8703C23.7205 24.0448 25.4487 23.6563 26.8114 22.2395C27.3751 23.264 28.0949 24.0398 29.3734 23.8889C30.1254 23.7998 30.8142 23.5672 31.1177 22.7493C30.3211 22.0687 30.1241 21.1308 29.9507 20.183L29.9494 20.1842ZM21.9948 20.793C21.638 20.5641 21.3939 20.1595 21.0979 19.8353C20.8972 18.713 21.1858 17.754 22.0468 16.9844C23.1915 16.4932 24.3982 16.4003 25.6209 16.4709C25.9467 16.4894 26.4113 16.3781 26.3964 16.9671C26.3902 17.3977 26.3419 17.832 26.3853 18.2576C26.4571 18.9765 26.2019 19.5829 25.8476 20.1706C24.8887 21.2125 22.8174 21.3214 21.9935 20.793H21.9948Z" fill="#0F6580"/>
<path d="M41.0135 16.2148C39.9283 15.1656 38.4838 14.8141 37.1557 14.24C37.1173 14.2499 37.0789 14.2623 37.0405 14.2747C37.0789 14.2623 37.1173 14.2511 37.1557 14.24C36.5165 13.8515 35.8165 13.531 35.5242 12.7601C35.5155 12.0313 35.9255 11.5908 36.54 11.2901C37.9374 11.2146 39.2965 11.331 40.5551 12.2157C40.8586 11.399 41.1077 10.6516 41.4149 9.92902C41.5821 9.53678 41.4459 9.38334 41.1039 9.24352C39.0834 8.42067 37.012 8.12371 34.8886 8.74115C33.6783 9.09256 32.6265 9.70753 32.2164 11.0278C32.5274 11.0278 32.8396 11.0278 33.1505 11.0266C32.8396 11.0266 32.5274 11.0278 32.2164 11.0278C31.9798 11.6255 31.6961 12.2157 31.9513 12.8826C32.1446 13.4233 32.3378 13.9628 32.5311 14.5036C33.0948 15.5281 34.0165 16.1295 35.0323 16.6232C35.9169 17.0575 36.8076 17.477 37.6822 17.9298C38.3401 18.2701 38.7353 18.8145 38.8071 19.5681C38.6461 20.5964 38.2348 20.9651 37.2078 21.0579C35.907 21.1754 34.735 20.8364 33.6547 20.1262C33.5271 20.042 33.3896 19.974 33.2261 19.8812C32.8074 20.8216 32.4109 21.7149 32.0046 22.6281C34.5938 24.1674 37.2387 24.3381 39.9233 23.2505C41.5982 22.5712 42.3725 21.3041 42.3341 19.5681C42.4778 18.2206 42.0975 17.0798 41.011 16.2173L41.0135 16.2148Z" fill="#0F6580"/>
<path d="M51.4063 10.3041C51.3802 10.3362 51.353 10.3697 51.327 10.4018C51.0656 11.1888 50.8029 11.9745 50.5415 12.7615C50.2616 13.5039 49.9816 14.2451 49.7016 14.9875C49.5963 15.235 49.491 15.4837 49.3535 15.8079C49.1838 15.4565 49.0413 15.1595 48.8988 14.8638C48.5643 13.9976 48.2286 13.1327 47.8941 12.2665C46.711 12.2665 45.5292 12.2641 44.3461 12.2628C44.7066 13.1315 45.0658 14.0013 45.4263 14.87C45.715 15.5851 46.0049 16.3003 46.2935 17.0155C46.5562 17.7827 46.82 18.5499 47.0827 19.317C47.1397 19.5101 47.2202 19.6994 47.2512 19.8961C47.406 20.9021 47.8074 21.9514 46.7853 22.7681C45.7125 23.0403 44.6409 23.3125 43.5222 23.5959V26.4913C45.1451 26.5309 46.6243 26.1659 48.0031 25.3876C49.0165 24.8159 49.8404 24.0772 50.16 22.9042C50.5886 21.7769 51.0185 20.6497 51.4471 19.5224C51.7618 18.6711 52.0777 17.8186 52.3924 16.9673C52.6315 16.3486 52.8706 15.7287 53.1097 15.11C53.4045 14.3255 53.7006 13.541 53.9955 12.7578C54.2866 11.9745 54.5777 11.1925 54.8701 10.4092C53.7217 10.3709 52.5733 10.3338 51.4261 10.2954L51.4075 10.3041H51.4063Z" fill="#0F6580"/>
<path d="M16.104 12.3848C15.6914 11.7661 15.2789 11.1475 14.8664 10.5275C14.8304 10.4781 14.8019 10.4224 14.7586 10.3815C12.7405 8.44753 10.3074 8.12829 7.69837 8.6418C6.3889 8.89917 5.24792 9.5327 4.33613 10.5337C4.50957 10.5436 4.68301 10.556 4.85768 10.5684C4.68425 10.556 4.51081 10.5436 4.33613 10.5337C4.04624 10.9049 3.75759 11.2762 3.46769 11.6474C4.00783 11.6672 4.54797 11.6845 5.08811 11.7055C4.54797 11.6857 4.00783 11.6684 3.46769 11.6474C3.25833 12.0173 3.04896 12.3885 2.84084 12.7585C2.67111 13.3772 2.50139 13.9946 2.33291 14.6133C2.27716 14.8905 2.20778 15.1652 2.17062 15.4436C2.0839 16.1031 1.8225 16.8171 2.72562 17.1784C2.87552 17.239 2.9672 17.4457 3.08613 17.5842C3.08613 17.8107 3.14435 18.0557 3.07746 18.2598C2.89411 18.8228 3.18895 19.0555 3.63989 19.2535C4.24074 19.517 4.80565 19.8808 5.42384 20.0862C6.16096 20.3312 6.93895 20.4537 7.69837 20.6282C7.72191 20.575 7.74545 20.5205 7.77022 20.4673C6.60942 19.7843 5.92434 18.7993 5.80169 17.4593C5.81656 17.4172 5.83018 17.3751 5.84505 17.3343C5.87478 17.3046 5.90575 17.2749 5.93548 17.2464C8.656 17.2378 11.3753 17.2427 14.0958 17.2093C14.5678 17.2031 15.0348 17.0237 15.5081 16.9445C15.7955 16.8975 16.0903 16.8901 16.3815 16.8653C16.4434 16.8975 16.5066 16.9297 16.5685 16.9618C16.6082 16.1798 16.6491 15.3966 16.6887 14.6146C16.4942 13.8709 16.3009 13.1273 16.1064 12.3824L16.104 12.3848ZM6.05194 14.6183C6.2229 14.0404 6.39386 13.4638 6.56482 12.886C6.81011 12.5989 7.05541 12.3118 7.3007 12.0248C7.98083 11.8156 8.64981 11.5038 9.3448 11.4209C10.6543 11.2625 11.7668 11.7439 12.6203 12.7697C12.7839 13.3834 12.9486 13.9984 13.1121 14.6121C10.7583 14.6146 8.40451 14.6158 6.0507 14.6183H6.05194Z" fill="#0F6580"/>
<path d="M52.4184 8.42681C52.2734 8.42928 52.0541 8.55302 52.0033 8.67552C51.7828 9.20388 51.6131 9.75327 51.4248 10.294C52.5732 10.3324 53.7216 10.3695 54.8688 10.4078C55.129 9.76688 55.3891 9.12592 55.6778 8.41444C54.5108 8.41444 53.464 8.40454 52.4184 8.42557V8.42681Z" fill="#0F6580"/>
<path d="M46.5091 8.73369C46.4533 8.60748 46.3072 8.43301 46.1981 8.43177C45.0534 8.4095 43.9087 8.41816 42.6885 8.41816C42.9759 9.05541 43.2237 9.60851 43.4727 10.1604C43.7638 10.8607 44.0549 11.5623 44.3461 12.2627C45.5292 12.2627 46.711 12.2651 47.8941 12.2664C47.6018 11.524 47.3082 10.7815 47.0158 10.0403C46.8498 9.60356 46.6962 9.16182 46.5103 8.73493L46.5091 8.73369Z" fill="#0F6580"/>
</g>
<defs>
<clipPath id="clip0_1_12029">
<rect width="128.059" height="22.967" fill="white" transform="translate(61.9414 0.0478516)"/>
</clipPath>
<clipPath id="clip1_1_12029">
<rect width="55.6777" height="18.0952" fill="white" transform="translate(0 8.39941)"/>
</clipPath>
</defs>
</svg>
