<svg width="20" height="20" viewBox="0 0 20 20" fill="none" xmlns="http://www.w3.org/2000/svg">
<g id="2655345211667365739 1">
<path id="Vector" d="M16.2501 11.6665H14.5834V10.8332C14.5834 10.7227 14.5395 10.6167 14.4614 10.5385C14.3832 10.4604 14.2773 10.4165 14.1667 10.4165C14.0562 10.4165 13.9503 10.4604 13.8721 10.5385C13.794 10.6167 13.7501 10.7227 13.7501 10.8332V11.6665H12.0834C11.9729 11.6665 11.8669 11.7104 11.7888 11.7885C11.7106 11.8667 11.6667 11.9727 11.6667 12.0832C11.6667 12.1937 11.7106 12.2997 11.7888 12.3778C11.8669 12.4559 11.9729 12.4998 12.0834 12.4998H15.1751C15.0731 13.2077 14.7131 13.8529 14.1642 14.3115C13.8437 14.0438 13.5846 13.7101 13.4047 13.3332C13.3823 13.282 13.3499 13.2359 13.3094 13.1975C13.2689 13.1591 13.2211 13.1292 13.1688 13.1097C13.1165 13.0901 13.0609 13.0813 13.0051 13.0836C12.9493 13.086 12.8946 13.0996 12.8442 13.1235C12.7938 13.1474 12.7487 13.1812 12.7116 13.2229C12.6745 13.2646 12.6461 13.3134 12.6282 13.3662C12.6103 13.4191 12.6032 13.475 12.6073 13.5307C12.6114 13.5863 12.6267 13.6406 12.6522 13.6903C12.8458 14.0918 13.1105 14.455 13.4334 14.7623C13.0631 14.92 12.6646 15.0008 12.2622 14.9998C12.2082 15.0001 12.1548 15.0111 12.1052 15.0324C12.0556 15.0536 12.0107 15.0845 11.9732 15.1233C11.9357 15.1622 11.9064 15.2081 11.887 15.2585C11.8676 15.3088 11.8584 15.3626 11.8601 15.4165C11.8636 15.5285 11.9106 15.6347 11.9912 15.7126C12.0719 15.7904 12.1797 15.8337 12.2917 15.8332C12.9539 15.8329 13.6041 15.656 14.1751 15.3207C14.7514 15.6546 15.4053 15.8313 16.0713 15.8332C16.1253 15.8329 16.1787 15.8219 16.2283 15.8006C16.2779 15.7794 16.3228 15.7485 16.3603 15.7097C16.3978 15.6708 16.4271 15.6249 16.4465 15.5745C16.4659 15.5242 16.4751 15.4704 16.4734 15.4165C16.4699 15.3045 16.4229 15.1983 16.3423 15.1205C16.2616 15.0426 16.1538 14.9993 16.0417 14.9998C15.6519 14.9983 15.2665 14.9181 14.9084 14.764C15.529 14.1604 15.9209 13.3602 16.0172 12.4998H16.2501C16.3606 12.4998 16.4666 12.4559 16.5447 12.3778C16.6228 12.2997 16.6667 12.1937 16.6667 12.0832C16.6667 11.9727 16.6228 11.8667 16.5447 11.7885C16.4666 11.7104 16.3606 11.6665 16.2501 11.6665Z" fill="black"/>
<path id="Vector_2" d="M5.83328 3.9585C5.75332 3.95852 5.67505 3.98155 5.60781 4.02485C5.54058 4.06814 5.48722 4.12987 5.45412 4.20266L3.37078 8.786C3.32793 8.8861 3.32596 8.99899 3.3653 9.10052C3.40465 9.20206 3.48217 9.28415 3.58128 9.32924C3.68039 9.37433 3.79322 9.37884 3.89561 9.34178C3.998 9.30473 4.08181 9.22907 4.12912 9.131L4.87037 7.50016H6.7962L7.53745 9.131C7.58476 9.22907 7.66857 9.30473 7.77096 9.34178C7.87335 9.37884 7.98618 9.37433 8.08529 9.32924C8.1844 9.28415 8.26192 9.20206 8.30126 9.10052C8.34061 8.99899 8.33864 8.8861 8.29578 8.786L6.21245 4.20266C6.17934 4.12987 6.12599 4.06814 6.05876 4.02485C5.99152 3.98155 5.91325 3.95852 5.83328 3.9585ZM5.24995 6.66683L5.83328 5.38225L6.41662 6.66683H5.24995Z" fill="black"/>
<path id="Vector_3" d="M17.0834 8.3335H11.2501C10.6978 8.33416 10.1682 8.55386 9.77767 8.94442C9.38712 9.33498 9.16741 9.8645 9.16675 10.4168V16.2502C9.16741 16.8025 9.38712 17.332 9.77767 17.7226C10.1682 18.1131 10.6978 18.3328 11.2501 18.3335H17.0834C17.6357 18.3328 18.1653 18.1131 18.5558 17.7226C18.9464 17.332 19.1661 16.8025 19.1667 16.2502V10.4168C19.1661 9.8645 18.9464 9.33498 18.5558 8.94442C18.1653 8.55386 17.6357 8.33416 17.0834 8.3335ZM18.3334 16.2502C18.3334 16.5817 18.2017 16.8996 17.9673 17.134C17.7329 17.3685 17.4149 17.5002 17.0834 17.5002H11.2501C10.9186 17.5002 10.6006 17.3685 10.3662 17.134C10.1318 16.8996 10.0001 16.5817 10.0001 16.2502V10.4168C10.0001 10.0853 10.1318 9.76737 10.3662 9.53295C10.6006 9.29853 10.9186 9.16683 11.2501 9.16683H17.0834C17.4149 9.16683 17.7329 9.29853 17.9673 9.53295C18.2017 9.76737 18.3334 10.0853 18.3334 10.4168V16.2502Z" fill="black"/>
<path id="Vector_4" d="M9.99992 3.74984V7.18734C9.99992 7.29784 10.0438 7.40383 10.122 7.48197C10.2001 7.56011 10.3061 7.604 10.4166 7.604C10.5271 7.604 10.6331 7.56011 10.7112 7.48197C10.7894 7.40383 10.8333 7.29784 10.8333 7.18734V3.74984C10.8326 3.19751 10.6129 2.66799 10.2223 2.27743C9.83177 1.88687 9.30225 1.66717 8.74992 1.6665H2.91659C2.36425 1.66717 1.83473 1.88687 1.44418 2.27743C1.05362 2.66799 0.833914 3.19751 0.833252 3.74984V9.58317C0.833914 10.1355 1.05362 10.665 1.44418 11.0556C1.83473 11.4461 2.36425 11.6658 2.91659 11.6665H7.91659C8.02709 11.6665 8.13307 11.6226 8.21121 11.5445C8.28935 11.4663 8.33325 11.3603 8.33325 11.2498C8.33325 11.1393 8.28935 11.0333 8.21121 10.9552C8.13307 10.8771 8.02709 10.8332 7.91659 10.8332H2.91659C2.58506 10.8332 2.26712 10.7015 2.0327 10.4671C1.79828 10.2326 1.66659 9.91469 1.66659 9.58317V3.74984C1.66659 3.41832 1.79828 3.10037 2.0327 2.86595C2.26712 2.63153 2.58506 2.49984 2.91659 2.49984H8.74992C9.08144 2.49984 9.39938 2.63153 9.6338 2.86595C9.86822 3.10037 9.99992 3.41832 9.99992 3.74984Z" fill="black"/>
<path id="Vector_5" d="M13.4553 5.29466C13.5339 5.37056 13.6392 5.41255 13.7484 5.41161C13.8577 5.41066 13.9622 5.36684 14.0394 5.28958C14.1167 5.21233 14.1605 5.10782 14.1614 4.99857C14.1624 4.88933 14.1204 4.78408 14.0445 4.70549L13.9224 4.58341H15.8332C15.9438 4.58341 16.0497 4.62731 16.1279 4.70545C16.206 4.78359 16.2499 4.88957 16.2499 5.00007V6.25007C16.2499 6.36058 16.2938 6.46656 16.3719 6.5447C16.4501 6.62284 16.5561 6.66674 16.6666 6.66674C16.7771 6.66674 16.8831 6.62284 16.9612 6.5447C17.0393 6.46656 17.0832 6.36058 17.0832 6.25007V5.00007C17.0832 4.66855 16.9515 4.35061 16.7171 4.11619C16.4827 3.88177 16.1648 3.75007 15.8332 3.75007H13.9224L14.0445 3.62799C14.0843 3.58955 14.116 3.54358 14.1379 3.49274C14.1597 3.44191 14.1712 3.38723 14.1717 3.33191C14.1722 3.27658 14.1616 3.22172 14.1407 3.17051C14.1197 3.1193 14.0888 3.07278 14.0497 3.03366C14.0105 2.99454 13.964 2.9636 13.9128 2.94265C13.8616 2.9217 13.8067 2.91116 13.7514 2.91164C13.6961 2.91212 13.6414 2.92361 13.5906 2.94545C13.5397 2.96729 13.4938 2.99903 13.4553 3.03882L12.622 3.87216C12.5439 3.95029 12.5 4.05626 12.5 4.16674C12.5 4.27723 12.5439 4.38319 12.622 4.46132L13.4553 5.29466Z" fill="black"/>
<path id="Vector_6" d="M6.54466 14.7056C6.46608 14.6297 6.36083 14.5877 6.25158 14.5886C6.14233 14.5896 6.03783 14.6334 5.96057 14.7107C5.88332 14.7879 5.8395 14.8924 5.83855 15.0017C5.8376 15.1109 5.8796 15.2162 5.9555 15.2947L6.07758 15.4168H4.16675C4.05624 15.4168 3.95026 15.3729 3.87212 15.2948C3.79398 15.2167 3.75008 15.1107 3.75008 15.0002V13.7502C3.75008 13.6397 3.70618 13.5337 3.62804 13.4555C3.5499 13.3774 3.44392 13.3335 3.33341 13.3335C3.22291 13.3335 3.11693 13.3774 3.03879 13.4555C2.96065 13.5337 2.91675 13.6397 2.91675 13.7502V15.0002C2.91675 15.3317 3.04844 15.6496 3.28286 15.884C3.51729 16.1185 3.83523 16.2502 4.16675 16.2502H6.07758L5.9555 16.3722C5.9157 16.4107 5.88396 16.4567 5.86212 16.5075C5.84029 16.5583 5.82879 16.613 5.82831 16.6683C5.82783 16.7237 5.83837 16.7785 5.85932 16.8297C5.88027 16.8809 5.91121 16.9275 5.95033 16.9666C5.98946 17.0057 6.03598 17.0366 6.08718 17.0576C6.13839 17.0785 6.19326 17.0891 6.24858 17.0886C6.30391 17.0881 6.35858 17.0766 6.40942 17.0548C6.46025 17.033 6.50623 17.0012 6.54466 16.9614L7.378 16.1281C7.45611 16.0499 7.49999 15.944 7.49999 15.8335C7.49999 15.723 7.45611 15.617 7.378 15.5389L6.54466 14.7056Z" fill="black"/>
</g>
</svg>
