<svg xmlns="http://www.w3.org/2000/svg" style="display:none;">
    <symbol id="phone-icon" viewBox="0 0 13 13">
        <path d="M12.5275 0.624639L9.88689 0.0152648C9.59998 -0.0507508 9.30545 0.0990538 9.18865 0.368194L7.9699 3.21194C7.86326 3.46077 7.93435 3.75276 8.1451 3.92288L9.68377 5.18225C8.76971 7.12971 7.17263 8.74963 5.18455 9.68147L3.92517 8.1428C3.75251 7.93206 3.46306 7.86096 3.21423 7.9676L0.37048 9.18635C0.0987997 9.30569 -0.0510051 9.60022 0.0150106 9.88713L0.624386 12.5278C0.687863 12.802 0.931613 13 1.21853 13C7.72107 13 12.9998 7.73147 12.9998 1.21878C12.9998 0.934405 12.8043 0.688116 12.5275 0.624639Z"/>
    </symbol>
    <symbol id="soc-net-viber" viewBox="0 0 15 15">
        <path d="M7.12394 0.00230474C5.92019 0.016836 3.33223 0.214649 1.88473 1.54262C0.808007 2.60949 0.43207 4.18684 0.388007 6.13731C0.351445 8.08074 0.307382 11.7304 3.82535 12.7242V14.2378C3.82535 14.2378 3.80332 14.8434 4.20363 14.9676C4.69676 15.1237 4.97754 14.6578 5.44629 14.1571L6.32051 13.1686C8.72754 13.3687 10.5711 12.9075 10.7835 12.839C11.2719 12.6829 14.023 12.3314 14.4725 8.68121C14.9338 4.91152 14.248 2.53637 13.01 1.46199H13.0025C12.6289 1.11793 11.1275 0.0238672 7.77316 0.0116797C7.77316 0.0116797 7.52426 -0.00519526 7.12394 0.00183599V0.00230474ZM7.16519 1.06215C7.50691 1.0598 7.71457 1.07434 7.71457 1.07434C10.5538 1.08184 11.9089 1.93637 12.2286 2.22418C13.2711 3.11762 13.8083 5.25887 13.415 8.40606C13.0414 11.4576 10.8102 11.6507 10.3972 11.7825C10.2214 11.8387 8.59769 12.239 6.55207 12.1073C6.55207 12.1073 5.02863 13.9457 4.55238 14.4192C4.47691 14.5021 4.38879 14.5265 4.33254 14.5143C4.25191 14.4946 4.22754 14.3948 4.23223 14.2579L4.24676 11.7459C1.26316 10.9209 1.43894 7.80793 1.47082 6.18184C1.50738 4.55574 1.81254 3.22543 2.72098 2.32449C3.94394 1.21871 6.14144 1.06965 7.16426 1.06215H7.16519ZM7.39019 2.68777C7.36564 2.68753 7.34128 2.69214 7.31851 2.70135C7.29575 2.71056 7.27503 2.72419 7.25756 2.74145C7.24009 2.7587 7.2262 2.77925 7.2167 2.80189C7.20721 2.82454 7.20229 2.84884 7.20223 2.8734C7.20223 2.9784 7.28754 3.06137 7.39019 3.06137C7.85496 3.05253 8.31688 3.13579 8.74931 3.30635C9.18174 3.47691 9.57613 3.73139 9.90973 4.05512C10.5908 4.71652 10.9227 5.60527 10.9354 6.7673C10.9354 6.86996 11.0183 6.95527 11.1233 6.95527V6.94777C11.1728 6.9479 11.2203 6.92846 11.2555 6.89369C11.2908 6.85891 11.3108 6.81163 11.3113 6.76215C11.334 6.21519 11.2453 5.66931 11.0506 5.15769C10.8558 4.64608 10.559 4.17941 10.1783 3.78605C9.43629 3.0609 8.49598 2.6873 7.39019 2.6873V2.68777ZM4.91941 3.11762C4.78673 3.09823 4.65141 3.12486 4.53598 3.19309H4.52613C4.25813 3.35018 4.0167 3.54874 3.81082 3.78137C3.63973 3.97918 3.54691 4.17934 3.52254 4.37199C3.50801 4.48684 3.51785 4.60168 3.55207 4.71137L3.56426 4.71887C3.75691 5.28512 4.00863 5.8298 4.31613 6.34262C4.71224 7.06307 5.1997 7.72935 5.76644 8.32496L5.78332 8.34934L5.81004 8.36902L5.82691 8.38871L5.8466 8.40559C6.44437 8.97399 7.11227 9.46373 7.8341 9.86293C8.6591 10.312 9.15972 10.5243 9.46019 10.6125V10.6171C9.54832 10.6439 9.62848 10.6561 9.7091 10.6561C9.96517 10.6373 10.2076 10.5333 10.3977 10.3607C10.6293 10.1548 10.8256 9.91239 10.9789 9.64309V9.6384C11.1229 9.36746 11.0741 9.11105 10.8664 8.93762C10.4506 8.5741 10.0009 8.25122 9.52347 7.9734C9.20379 7.79996 8.87894 7.90496 8.74722 8.08074L8.46644 8.43465C8.32254 8.61043 8.06098 8.58605 8.06098 8.58605L8.05347 8.59074C6.10301 8.09246 5.58269 6.11762 5.58269 6.11762C5.58269 6.11762 5.55832 5.84902 5.73879 5.71215L6.09035 5.42902C6.25863 5.29215 6.37582 4.96777 6.19535 4.64762C5.91944 4.16956 5.59727 3.71975 5.23348 3.30465C5.15394 3.20679 5.04237 3.14021 4.91848 3.11668L4.91941 3.11762ZM7.71457 3.67449C7.46566 3.67449 7.46566 4.05043 7.71691 4.05043C8.02642 4.05545 8.3319 4.12142 8.6159 4.24455C8.8999 4.36769 9.15685 4.54559 9.37207 4.76809C9.56839 4.98465 9.71925 5.23842 9.81571 5.51436C9.91218 5.79029 9.95227 6.08278 9.93363 6.37449C9.93449 6.42386 9.95464 6.47093 9.98977 6.50563C10.0249 6.54032 10.0722 6.55988 10.1216 6.56012L10.1291 6.56996C10.1788 6.56959 10.2264 6.54967 10.2616 6.5145C10.2968 6.47933 10.3167 6.43173 10.3171 6.38199C10.3339 5.63715 10.1024 5.0123 9.64816 4.51168C9.1916 4.01105 8.55457 3.73027 7.74129 3.67449H7.71457ZM8.02254 4.68512C7.76613 4.67762 7.75629 5.06105 8.01035 5.06855C8.62816 5.10043 8.92816 5.41262 8.96754 6.0548C8.96839 6.10355 8.9883 6.15003 9.02299 6.18428C9.05768 6.21854 9.10441 6.23785 9.15316 6.23809H9.16066C9.18573 6.23701 9.21033 6.23095 9.23303 6.22027C9.25573 6.20958 9.27607 6.19448 9.29287 6.17585C9.30967 6.15722 9.32259 6.13543 9.33088 6.11175C9.33916 6.08807 9.34265 6.06297 9.34113 6.03793C9.29707 5.20074 8.84051 4.72918 8.03004 4.68559H8.02254V4.68512Z"/>
    </symbol>

    <symbol id="soc-net-tg" class="header__soc-net-icon" viewBox="0 0 15 15">
        <path d="M12.9159 2.32313L1.83462 6.59626C1.07837 6.90001 1.08274 7.32188 1.69587 7.51001L4.54087 8.39751L11.1234 4.24438C11.4346 4.05501 11.719 4.15688 11.4852 4.36438L6.15212 9.17751H6.15087L6.15212 9.17813L5.95587 12.1106C6.24337 12.1106 6.37024 11.9788 6.53149 11.8231L7.91337 10.4794L10.7877 12.6025C11.3177 12.8944 11.6984 12.7444 11.8302 12.1119L13.7171 3.21938C13.9102 2.44501 13.4215 2.09438 12.9159 2.32313Z"/>
    </symbol>


    <symbol id="soc-net-sapp" class="header__soc-net-icon" viewBox="0 0 15 15">
        <path d="M10.8844 8.98878C10.6981 8.89565 9.785 8.4469 9.615 8.3844C9.445 8.32253 9.32125 8.2919 9.19687 8.47815C9.07312 8.66315 8.7175 9.0819 8.60938 9.20565C8.50062 9.33003 8.3925 9.34503 8.20687 9.25253C8.02125 9.15878 7.4225 8.96315 6.71313 8.33065C6.16125 7.83815 5.78813 7.23003 5.68 7.04378C5.57188 6.85815 5.66813 6.75753 5.76125 6.66503C5.845 6.5819 5.94687 6.44815 6.04 6.34003C6.13312 6.23128 6.16375 6.15378 6.22563 6.0294C6.28813 5.90565 6.25688 5.79753 6.21 5.7044C6.16375 5.61128 5.7925 4.6969 5.6375 4.32503C5.48688 3.96315 5.33375 4.01253 5.22 4.00628C5.11125 4.00128 4.9875 4.00003 4.86375 4.00003C4.74 4.00003 4.53875 4.04628 4.36875 4.23253C4.19812 4.41815 3.71875 4.86753 3.71875 5.7819C3.71875 6.69565 4.38375 7.57878 4.47688 7.70315C4.57 7.8269 5.78625 9.70315 7.64937 10.5075C8.09313 10.6988 8.43875 10.8132 8.70813 10.8982C9.15312 11.04 9.55813 11.02 9.87813 10.9719C10.2344 10.9188 10.9769 10.5225 11.1319 10.0888C11.2863 9.65503 11.2862 9.28315 11.24 9.20565C11.1937 9.12815 11.07 9.0819 10.8837 8.98878H10.8844ZM7.49563 13.6157H7.49312C6.38652 13.6159 5.30023 13.3184 4.34812 12.7544L4.12313 12.6207L1.78437 13.2344L2.40875 10.9544L2.26187 10.7206C1.64321 9.73587 1.31581 8.59614 1.3175 7.43315C1.31875 4.0269 4.09 1.25565 7.49813 1.25565C9.14812 1.25565 10.6994 1.8994 11.8656 3.0669C12.4409 3.63976 12.8968 4.321 13.207 5.07121C13.5173 5.82142 13.6757 6.6257 13.6731 7.43753C13.6719 10.8438 10.9006 13.6157 7.49563 13.6157ZM12.7531 2.18003C12.0645 1.48685 11.2451 0.937236 10.3426 0.563026C9.43997 0.188815 8.47208 -0.00254765 7.495 2.5611e-05C3.39875 2.5611e-05 0.06375 3.3344 0.0625 7.43253C0.061875 8.74253 0.40375 10.0213 1.05438 11.1481L0 15L3.94 13.9663C5.02992 14.5601 6.25131 14.8712 7.4925 14.8713H7.49563C11.5919 14.8713 14.9269 11.5369 14.9281 7.43815C14.9311 6.46145 14.7405 5.49384 14.3671 4.5913C13.9938 3.68875 13.4452 2.86919 12.7531 2.18003Z"/>
    </symbol>


    <symbol>
        <path d="M6.41063 9.88563C4.56875 9.88563 3.72688 8.93313 3.72688 8.23501C3.72688 8.06876 3.79438 7.90938 3.91313 7.79438C3.97174 7.73779 4.04141 7.69392 4.11777 7.66553C4.19413 7.63713 4.27554 7.62483 4.35688 7.62938C5.145 7.62938 4.93875 8.82938 6.41063 8.82938C7.1625 8.82938 7.60438 8.36938 7.60438 7.93876C7.60438 7.67938 7.45813 7.38313 6.96188 7.26438L5.31875 6.84376C3.99938 6.50313 3.76938 5.75813 3.76938 5.06751C3.76938 3.63438 5.06188 3.11501 6.29188 3.11501C7.42563 3.11501 8.77313 3.75001 8.77313 4.60938C8.77313 4.97938 8.46813 5.17813 8.11375 5.17813C7.44 5.17813 7.55313 4.21813 6.19938 4.21813C5.52625 4.21813 5.17125 4.53876 5.17125 4.98688C5.17125 5.43501 5.69563 5.58688 6.155 5.68876L7.36813 5.96688C8.69688 6.27063 9.05 7.06126 9.05 7.81876C9.05 8.98438 8.16063 9.88438 6.40875 9.88438L6.41063 9.88563ZM11.4956 7.42063C11.5494 7.11438 11.5756 6.80438 11.5756 6.49438C11.5799 5.72649 11.4171 4.96687 11.0985 4.26818C10.7799 3.56949 10.3132 2.94845 9.73063 2.44813C9.15365 1.95244 8.47368 1.59122 7.73995 1.3906C7.00621 1.18998 6.23705 1.15498 5.48813 1.28813C5.02453 1.0165 4.49669 0.873857 3.95938 0.875007C3.41545 0.87988 2.8824 1.02796 2.4139 1.30435C1.9454 1.58073 1.55797 1.97566 1.29063 2.44938C1.01983 2.92652 0.876687 3.46546 0.875045 4.01409C0.873403 4.56272 1.01331 5.1025 1.28125 5.58126C1.13073 6.41516 1.18163 7.27296 1.42972 8.08321C1.67781 8.89346 2.1159 9.63271 2.7075 10.2394C3.29346 10.8399 4.01742 11.288 4.81627 11.5445C5.61511 11.8011 6.46459 11.8583 7.29063 11.7113C7.75368 11.9826 8.28079 12.1255 8.8175 12.125C9.36127 12.1201 9.89414 11.972 10.3625 11.6958C10.8309 11.4195 11.2183 11.0248 11.4856 10.5513C11.7568 10.0745 11.9002 9.53574 11.9019 8.98726C11.9037 8.43877 11.7637 7.89913 11.4956 7.42063Z"/>

    </symbol>

    <symbol id="close">

        <g clip-path="url(#clip0_828_14147)">
            <path d="M14.9971 15L0 0M0 30L15 15L0 30ZM30 0L14.9971 15L30 0Z" stroke="white" stroke-width="1.5"
                  stroke-linecap="round" stroke-linejoin="round"/>
            <path d="M14.9998 14.9998L29.9998 29.9998" stroke="white" stroke-width="1.5" stroke-linecap="round"
                  stroke-linejoin="round"/>
        </g>
        <defs>
            <clipPath id="clip0_828_14147">
                <rect width="30" height="30" fill="white"/>
            </clipPath>
        </defs>
    </symbol>


    <symbol id="mail" viewBox="0 0 13 10">
        <path d="M10.625 0C11.1223 0 11.5992 0.197544 11.9508 0.549175C12.3025 0.900805 12.5 1.37772 12.5 1.875V7.875C12.5 8.37228 12.3025 8.84919 11.9508 9.20082C11.5992 9.55246 11.1223 9.75 10.625 9.75H2.375C1.87772 9.75 1.40081 9.55246 1.04917 9.20082C0.697544 8.84919 0.5 8.37228 0.5 7.875V1.875C0.5 1.37772 0.697544 0.900805 1.04917 0.549175C1.40081 0.197544 1.87772 0 2.375 0H10.625ZM11.75 2.97075L6.6905 5.94825C6.64267 5.97633 6.5892 5.99346 6.53395 5.99839C6.4787 6.00331 6.42305 5.99592 6.371 5.97675L6.3095 5.94825L1.25 2.97225V7.875C1.25 8.17337 1.36853 8.45952 1.5795 8.6705C1.79048 8.88147 2.07663 9 2.375 9H10.625C10.9234 9 11.2095 8.88147 11.4205 8.6705C11.6315 8.45952 11.75 8.17337 11.75 7.875V2.97075ZM10.625 0.75H2.375C2.07663 0.75 1.79048 0.868526 1.5795 1.0795C1.36853 1.29048 1.25 1.57663 1.25 1.875V2.1015L6.5 5.19L11.75 2.1V1.875C11.75 1.57663 11.6315 1.29048 11.4205 1.0795C11.2095 0.868526 10.9234 0.75 10.625 0.75Z"/>
    </symbol>

    <symbol id="clock" viewBox="0 0 13 13">
        <path d="M6.49375 0.25C3.04375 0.25 0.25 3.05 0.25 6.5C0.25 9.95 3.04375 12.75 6.49375 12.75C9.95 12.75 12.75 9.95 12.75 6.5C12.75 3.05 9.95 0.25 6.49375 0.25ZM9 9C8.94218 9.05794 8.8735 9.10391 8.79789 9.13527C8.72228 9.16663 8.64123 9.18278 8.55937 9.18278C8.47752 9.18278 8.39647 9.16663 8.32086 9.13527C8.24525 9.10391 8.17657 9.05794 8.11875 9L6.0625 6.94375C6.00345 6.88587 5.95646 6.81684 5.92428 6.74067C5.89209 6.66449 5.87534 6.58269 5.875 6.5V4C5.875 3.65625 6.15625 3.375 6.5 3.375C6.84375 3.375 7.125 3.65625 7.125 4V6.24375L9 8.11875C9.24375 8.3625 9.24375 8.75625 9 9Z"/>

    </symbol>


    <symbol id="toggle-arrow" viewBox="0 0 21 11">


        <path d="M1.88821 10.7638L10.5009 2.36828L19.1136 10.7638C19.2674 10.9141 19.474 10.9983 19.6891 10.9983C19.9042 10.9983 20.1108 10.9141 20.2647 10.7638C20.3392 10.6908 20.3984 10.6037 20.4388 10.5075C20.4792 10.4114 20.5 10.3081 20.5 10.2038C20.5 10.0995 20.4792 9.99621 20.4388 9.90004C20.3984 9.80387 20.3392 9.71674 20.2647 9.64373L11.1023 0.710543C10.9414 0.553706 10.7256 0.465929 10.5009 0.465929C10.2762 0.465929 10.0604 0.553706 9.89948 0.710543L0.737099 9.64201C0.662063 9.71507 0.602425 9.80242 0.561703 9.8989C0.520979 9.99539 0.5 10.0991 0.5 10.2038C0.5 10.3085 0.520979 10.4122 0.561703 10.5087C0.602425 10.6051 0.662064 10.6925 0.737099 10.7656C0.890978 10.9159 1.09755 11 1.31266 11C1.52776 11 1.73433 10.9159 1.88821 10.7656L1.88821 10.7638Z"/>

    </symbol>


    <symbol id="skype">

        <path d="M6.41063 9.88563C4.56875 9.88563 3.72688 8.93313 3.72688 8.23501C3.72688 8.06876 3.79438 7.90938 3.91313 7.79438C3.97174 7.73779 4.04141 7.69392 4.11777 7.66553C4.19413 7.63713 4.27554 7.62483 4.35688 7.62938C5.145 7.62938 4.93875 8.82938 6.41063 8.82938C7.1625 8.82938 7.60438 8.36938 7.60438 7.93876C7.60438 7.67938 7.45813 7.38313 6.96188 7.26438L5.31875 6.84376C3.99938 6.50313 3.76938 5.75813 3.76938 5.06751C3.76938 3.63438 5.06188 3.11501 6.29188 3.11501C7.42563 3.11501 8.77313 3.75001 8.77313 4.60938C8.77313 4.97938 8.46813 5.17813 8.11375 5.17813C7.44 5.17813 7.55313 4.21813 6.19938 4.21813C5.52625 4.21813 5.17125 4.53876 5.17125 4.98688C5.17125 5.43501 5.69563 5.58688 6.155 5.68876L7.36813 5.96688C8.69688 6.27063 9.05 7.06126 9.05 7.81876C9.05 8.98438 8.16063 9.88438 6.40875 9.88438L6.41063 9.88563ZM11.4956 7.42063C11.5494 7.11438 11.5756 6.80438 11.5756 6.49438C11.5799 5.72649 11.4171 4.96687 11.0985 4.26818C10.7799 3.56949 10.3132 2.94845 9.73063 2.44813C9.15365 1.95244 8.47368 1.59122 7.73995 1.3906C7.00621 1.18998 6.23705 1.15498 5.48813 1.28813C5.02453 1.0165 4.49669 0.873857 3.95938 0.875007C3.41545 0.87988 2.8824 1.02796 2.4139 1.30435C1.9454 1.58073 1.55797 1.97566 1.29063 2.44938C1.01983 2.92652 0.876687 3.46546 0.875045 4.01409C0.873403 4.56272 1.01331 5.1025 1.28125 5.58126C1.13073 6.41516 1.18163 7.27296 1.42972 8.08321C1.67781 8.89346 2.1159 9.63271 2.7075 10.2394C3.29346 10.8399 4.01742 11.288 4.81627 11.5445C5.61511 11.8011 6.46459 11.8583 7.29063 11.7113C7.75368 11.9826 8.28079 12.1255 8.8175 12.125C9.36127 12.1201 9.89414 11.972 10.3625 11.6958C10.8309 11.4195 11.2183 11.0248 11.4856 10.5513C11.7568 10.0745 11.9002 9.53574 11.9019 8.98726C11.9037 8.43877 11.7637 7.89913 11.4956 7.42063Z"/>

    </symbol>


    <symbol id="location">

        <path d="M5.50001 0.9375C4.13298 0.939113 2.8224 1.48288 1.85577 2.44951C0.889132 3.41615 0.345368 4.72672 0.343755 6.09375C0.342118 7.21089 0.707028 8.29771 1.38251 9.1875C1.38251 9.1875 1.52313 9.37266 1.5461 9.39937L5.50001 14.0625L9.45579 9.39703C9.47641 9.37219 9.61751 9.1875 9.61751 9.1875L9.61797 9.18609C10.2931 8.29669 10.6579 7.21037 10.6563 6.09375C10.6546 4.72672 10.1109 3.41615 9.14424 2.44951C8.17761 1.48288 6.86703 0.939113 5.50001 0.9375Z"/>
    </symbol>


    <symbol id="modal-close">
        <svg xmlns="http://www.w3.org/2000/svg" xmlns:xlink="http://www.w3.org/1999/xlink" width="16" height="16"
             viewBox="0 0 16 16">
            <defs>
                <path id="yx3ha"
                      d="M918.36 416.22l1.42 1.42-6.37 6.36 6.37 6.36-1.42 1.42-6.36-6.37-6.36 6.37-1.42-1.42 6.37-6.36-6.37-6.36 1.42-1.42 6.36 6.37z"/>
            </defs>
            <g>
                <g transform="translate(-904 -416)">
                    <use xlink:href="#yx3ha"/>
                </g>
            </g>
        </svg>
    </symbol>

    <symbol id="facabook">

        <svg width="20px" height="20px" viewBox="0 0 90 90">
            <path d="M90,15.001C90,7.119,82.884,0,75,0H15C7.116,0,0,7.119,0,15.001v59.998   C0,82.881,7.116,90,15.001,90H45V56H34V41h11v-5.844C45,25.077,52.568,16,61.875,16H74v15H61.875C60.548,31,59,32.611,59,35.024V41   h15v15H59v34h16c7.884,0,15-7.119,15-15.001V15.001z"></path>
        </svg>
    </symbol>
    <symbol id="insta">

        <svg viewBox="0 0 16 16" width="20" height="20">
            <path d="M8 0C5.827 0 5.555.01 4.702.048 3.85.088 3.27.222 2.76.42c-.526.204-.973.478-1.417.923-.445.444-.72.89-.923 1.417-.198.51-.333 1.09-.372 1.942C.008 5.555 0 5.827 0 8s.01 2.445.048 3.298c.04.852.174 1.433.372 1.942.204.526.478.973.923 1.417.444.445.89.72 1.417.923.51.198 1.09.333 1.942.372.853.04 1.125.048 3.298.048s2.445-.01 3.298-.048c.852-.04 1.433-.174 1.942-.372.526-.204.973-.478 1.417-.923.445-.444.72-.89.923-1.417.198-.51.333-1.09.372-1.942.04-.853.048-1.125.048-3.298s-.01-2.445-.048-3.298c-.04-.852-.174-1.433-.372-1.942-.204-.526-.478-.973-.923-1.417-.444-.445-.89-.72-1.417-.923-.51-.198-1.09-.333-1.942-.372C10.445.008 10.173 0 8 0zm0 1.44c2.136 0 2.39.01 3.233.048.78.036 1.203.166 1.485.276.374.145.64.318.92.598.28.28.453.546.598.92.11.282.24.705.276 1.485.038.844.047 1.097.047 3.233s-.01 2.39-.05 3.233c-.04.78-.17 1.203-.28 1.485-.15.374-.32.64-.6.92-.28.28-.55.453-.92.598-.28.11-.71.24-1.49.276-.85.038-1.1.047-3.24.047s-2.39-.01-3.24-.05c-.78-.04-1.21-.17-1.49-.28-.38-.15-.64-.32-.92-.6-.28-.28-.46-.55-.6-.92-.11-.28-.24-.71-.28-1.49-.03-.84-.04-1.1-.04-3.23s.01-2.39.04-3.24c.04-.78.17-1.21.28-1.49.14-.38.32-.64.6-.92.28-.28.54-.46.92-.6.28-.11.7-.24 1.48-.28.85-.03 1.1-.04 3.24-.04zm0 2.452c-2.27 0-4.108 1.84-4.108 4.108 0 2.27 1.84 4.108 4.108 4.108 2.27 0 4.108-1.84 4.108-4.108 0-2.27-1.84-4.108-4.108-4.108zm0 6.775c-1.473 0-2.667-1.194-2.667-2.667 0-1.473 1.194-2.667 2.667-2.667 1.473 0 2.667 1.194 2.667 2.667 0 1.473-1.194 2.667-2.667 2.667zm5.23-6.937c0 .53-.43.96-.96.96s-.96-.43-.96-.96.43-.96.96-.96.96.43.96.96z"></path>
        </svg>
    </symbol>
    <symbol id="vk">

        <svg viewBox="0 0 16 16" width="20" height="20">
            <path d="M7.828 12.526h.957s.288-.032.436-.19c.14-.147.14-.42.14-.42s-.02-1.284.58-1.473c.59-.187 1.34 1.24 2.14 1.788.61.42 1.07.33 1.07.33l2.14-.03s1.12-.07.59-.95c-.04-.07-.3-.65-1.58-1.84-1.34-1.24-1.16-1.04.45-3.19.98-1.31 1.38-2.11 1.25-2.45-.11-.32-.84-.24-.84-.24l-2.4.02s-.18-.02-.31.06-.21.26-.21.26-.38 1.02-.89 1.88C10.27 7.9 9.84 8 9.67 7.88c-.403-.26-.3-1.053-.3-1.62 0-1.76.27-2.5-.52-2.69-.26-.06-.454-.1-1.123-.11-.86-.01-1.585.006-1.996.207-.27.135-.48.434-.36.45.16.02.52.098.71.358.25.337.24 1.09.24 1.09s.14 2.077-.33 2.335c-.33.174-.77-.187-1.73-1.837-.49-.84-.86-1.78-.86-1.78s-.07-.17-.2-.27c-.15-.11-.37-.15-.37-.15l-2.29.02s-.34.01-.46.16c-.11.13-.01.41-.01.41s1.79 4.19 3.82 6.3c1.86 1.935 3.97 1.81 3.97 1.81z"></path>
        </svg>
    </symbol>
    <symbol id="slider_prev">


        <svg width="14" height="24" viewBox="0 0 14 24" fill="none" xmlns="http://www.w3.org/2000/svg">
            <path d="M12.4109 20.4576L3.54541 11.5921L12.4109 2.72665C12.863 2.27446 12.863 1.54133 12.4109 1.08914C11.9587 0.636953 11.2255 0.636954 10.7734 1.08914L1.08914 10.7734C0.636954 11.2255 0.636953 11.9587 1.08914 12.4109L10.7734 22.0951C11.2255 22.5473 11.9587 22.5473 12.4109 22.0951C12.863 21.6429 12.863 20.9097 12.4109 20.4576Z"
                  fill="white" stroke="white" stroke-width="0.5"/>
        </svg>

    </symbol>

    <symbol id="quote">


        <svg viewBox="0 0 48 35" fill="none" xmlns="http://www.w3.org/2000/svg">
            <g clip-path="url(#clip0)">
                <path d="M11.644 32.872C8.78267 32.872 6.46267 31.8667 4.684 29.856C2.98267 27.768 2.132 25.0613 2.132 21.736C2.132 17.4053 3.408 13.384 5.96 9.67199C8.512 5.88266 11.6827 3.06 15.472 1.204L16.168 2.596C14.544 3.83333 13.1133 5.41866 11.876 7.352C10.6387 9.28533 9.74933 11.6827 9.208 14.544L11.644 15.124C14.3507 15.7427 16.4387 16.9027 17.908 18.604C19.4547 20.228 20.228 22.2 20.228 24.52C20.228 26.9947 19.3773 29.0053 17.676 30.552C16.052 32.0987 14.0413 32.872 11.644 32.872ZM36.12 32.872C33.2587 32.872 30.9387 31.8667 29.16 29.856C27.4587 27.768 26.608 25.0613 26.608 21.736C26.608 17.4053 27.884 13.384 30.436 9.67199C32.988 5.88266 36.1587 3.06 39.948 1.204L40.644 2.596C39.02 3.83333 37.5893 5.41866 36.352 7.352C35.1147 9.28533 34.2253 11.6827 33.684 14.544L36.12 15.124C38.8267 15.7427 40.9147 16.9027 42.384 18.604C43.9307 20.228 44.704 22.2 44.704 24.52C44.704 26.9947 43.8533 29.0053 42.152 30.552C40.528 32.0987 38.5173 32.872 36.12 32.872Z"
                      fill="#0F294C" fill-opacity="0.7"/>
            </g>
            <defs>
                <clipPath id="clip0">
                    <rect fill="white"/>
                </clipPath>
            </defs>
        </svg>


    </symbol>

    <symbol id="circle-check">


        <svg xmlns="http://www.w3.org/2000/svg"  viewBox="0 0 24 24" id="check-circle-outline">

            <path d="M12 2C6.48 2 2 6.48 2 12s4.48 10 10 10 10-4.48 10-10S17.52 2 12 2zm0 18c-4.41 0-8-3.59-8-8s3.59-8 8-8 8 3.59 8 8-3.59 8-8 8zm4.59-12.42L10 14.17l-2.59-2.58L6 13l4 4 8-8z"></path>
        </svg>
    </symbol>

    <symbol id="call-btn">

        <svg width="28" height="28" viewBox="0 0 28 28" fill="none" xmlns="http://www.w3.org/2000/svg">
            <path d="M1.01718 1.34588L6.70457 0.0334032C7.32253 -0.108781 7.95689 0.213868 8.20845 0.793543L10.8334 6.91841C11.0631 7.45434 10.91 8.08323 10.4561 8.44963L7.14206 11.1621C9.11077 15.3565 12.5505 18.8455 16.8325 20.8525L19.5449 17.5385C19.9168 17.0846 20.5402 16.9315 21.0762 17.1612L27.201 19.7861C27.7862 20.0431 28.1088 20.6775 27.9666 21.2955L26.6542 26.9828C26.5175 27.5734 25.9925 28 25.3745 28C11.3693 28 1.33514e-05 16.6526 1.33514e-05 2.62554C1.33514e-05 2.01305 0.421101 1.48259 1.01718 1.34588Z" fill="white"/>
        </svg>

    </symbol>


</svg>
