<?xml version="1.0" encoding="UTF-8"?> <svg xmlns="http://www.w3.org/2000/svg" width="128" height="128" viewBox="0 0 128 128" fill="none"><path d="M63.1835 0C28.2864 0 1.00469e-07 26.6272 1.00469e-07 59.47C1.00469e-07 78.1959 9.19177 94.8675 23.5457 105.771V128L44.5103 116.28C50.4099 117.992 56.7045 118.914 63.2099 118.914C98.107 118.914 126.393 92.2864 126.393 59.4436C126.393 26.6008 98.0807 0 63.1835 0Z" transform="translate(0.803345)" fill="white"></path><path d="M59.2346 0C26.5185 0 9.41901e-08 24.963 9.41901e-08 55.7531C9.41901e-08 73.3086 8.61728 88.9383 22.0741 99.1605V120L41.7284 109.012C47.2593 110.617 53.1605 111.481 59.2593 111.481C91.9753 111.481 118.494 86.5185 118.494 55.7284C118.494 24.9383 91.9506 0 59.2346 0Z" transform="translate(4.75311 4)" fill="url(#paint0_linear)"></path><path d="M47.6543 15.8519L32.4444 -1.50704e-06L0 34.0988L28.9877 17.8272L44.5926 34.0988L76.7901 -1.50704e-06L47.6543 15.8519Z" transform="translate(25.3457 44.4691)" fill="white"></path><defs><linearGradient id="paint0_linear" x2="1" gradientUnits="userSpaceOnUse" gradientTransform="translate(-0.765432 120) scale(120) rotate(-90)"><stop stop-color="#0074FF"></stop><stop offset="0.1286" stop-color="#0082FF"></stop><stop offset="0.5012" stop-color="#00A6FF"></stop><stop offset="0.805" stop-color="#00BCFF"></stop><stop offset="1" stop-color="#00C4FF"></stop></linearGradient></defs></svg> 