<?xml version="1.0" encoding="UTF-8"?> <svg xmlns="http://www.w3.org/2000/svg" width="128" height="128" viewBox="0 0 128 128" fill="none"><g clip-path="url(#clip0_51_20)"><path d="M64 126C29.7638 126 2 98.2362 2 64C2 29.7638 29.7638 2 64 2C98.2362 2 126 29.7638 126 64C126 98.2362 98.2362 126 64 126Z" fill="url(#paint0_linear_51_20)" stroke="white" stroke-width="4"></path><path d="M64 28.1856C75.6608 28.1856 77.0432 28.224 81.6512 28.4416C85.9136 28.6336 88.2304 29.3504 89.7664 29.952C91.8016 30.7456 93.2608 31.6928 94.784 33.216C96.3072 34.7392 97.2544 36.1984 98.048 38.2336C98.6496 39.7696 99.3536 42.0864 99.5584 46.3488C99.7632 50.9568 99.8144 52.3392 99.8144 64C99.8144 75.6608 99.776 77.0432 99.5584 81.6512C99.3664 85.9136 98.6496 88.2304 98.048 89.7664C97.2544 91.8016 96.3072 93.2608 94.784 94.784C93.2608 96.3072 91.8016 97.2544 89.7664 98.048C88.2304 98.6496 85.9136 99.3536 81.6512 99.5584C77.0432 99.7632 75.6608 99.8144 64 99.8144C52.3392 99.8144 50.9568 99.776 46.3488 99.5584C42.0864 99.3664 39.7696 98.6496 38.2336 98.048C36.1984 97.2544 34.7392 96.3072 33.216 94.784C31.6928 93.2608 30.7456 91.8016 29.952 89.7664C29.3504 88.2304 28.6464 85.9136 28.4416 81.6512C28.2368 77.0432 28.1856 75.6608 28.1856 64C28.1856 52.3392 28.224 50.9568 28.4416 46.3488C28.6336 42.0864 29.3504 39.7696 29.952 38.2336C30.7456 36.1984 31.6928 34.7392 33.216 33.216C34.7392 31.6928 36.1984 30.7456 38.2336 29.952C39.7696 29.3504 42.0864 28.6464 46.3488 28.4416C50.9568 28.224 52.3392 28.1856 64 28.1856ZM64 20.3136C52.1344 20.3136 50.6496 20.3648 45.9904 20.5824C41.344 20.8 38.1696 21.5296 35.3792 22.6176C32.512 23.7184 30.0672 25.216 27.648 27.648C25.216 30.08 23.7312 32.512 22.6048 35.392C21.5296 38.1696 20.7872 41.344 20.5696 46.0032C20.352 50.6624 20.3008 52.1472 20.3008 64.0128C20.3008 75.8784 20.352 77.3632 20.5696 82.0224C20.7872 86.6688 21.5168 89.8432 22.6048 92.6336C23.7184 95.488 25.216 97.9328 27.648 100.352C30.08 102.784 32.512 104.269 35.392 105.395C38.1696 106.47 41.344 107.213 46.0032 107.43C50.6624 107.648 52.1472 107.699 64.0128 107.699C75.8784 107.699 77.3632 107.648 82.0224 107.43C86.6688 107.213 89.8432 106.483 92.6336 105.395C95.488 104.282 97.9328 102.784 100.352 100.352C102.784 97.92 104.269 95.488 105.395 92.608C106.47 89.8304 107.213 86.656 107.43 81.9968C107.648 77.3376 107.699 75.8528 107.699 63.9872C107.699 52.1216 107.648 50.6368 107.43 45.9776C107.213 41.3312 106.483 38.1568 105.395 35.3664C104.282 32.512 102.784 30.0672 100.352 27.648C97.92 25.216 95.488 23.7312 92.608 22.6048C89.8304 21.5296 86.656 20.7872 81.9968 20.5696C77.3504 20.3648 75.8656 20.3136 64 20.3136Z" fill="white"></path><path d="M64 41.5616C51.6096 41.5616 41.5616 51.6096 41.5616 64C41.5616 76.3904 51.6096 86.4384 64 86.4384C76.3904 86.4384 86.4384 76.3904 86.4384 64C86.4384 51.6096 76.3904 41.5616 64 41.5616ZM64 78.5664C55.9616 78.5664 49.4336 72.0512 49.4336 64C49.4336 55.9488 55.9616 49.4336 64 49.4336C72.0384 49.4336 78.5664 55.9488 78.5664 64C78.5664 72.0512 72.0384 78.5664 64 78.5664Z" fill="white"></path><path d="M87.3216 45.9264C90.22 45.9264 92.5696 43.5768 92.5696 40.6784C92.5696 37.78 90.22 35.4304 87.3216 35.4304C84.4232 35.4304 82.0736 37.78 82.0736 40.6784C82.0736 43.5768 84.4232 45.9264 87.3216 45.9264Z" fill="white"></path></g><defs><linearGradient id="paint0_linear_51_20" x1="18.7452" y1="109.255" x2="109.255" y2="18.7452" gradientUnits="userSpaceOnUse"><stop stop-color="#FFD521"></stop><stop offset="0.0551048" stop-color="#FFD020"></stop><stop offset="0.1241" stop-color="#FEC01E"></stop><stop offset="0.2004" stop-color="#FCA71B"></stop><stop offset="0.2821" stop-color="#FA8316"></stop><stop offset="0.3681" stop-color="#F85510"></stop><stop offset="0.4563" stop-color="#F51E09"></stop><stop offset="0.5" stop-color="#F30005"></stop><stop offset="0.5035" stop-color="#F20007"></stop><stop offset="0.5966" stop-color="#E1003B"></stop><stop offset="0.6879" stop-color="#D30067"></stop><stop offset="0.7757" stop-color="#C70088"></stop><stop offset="0.8589" stop-color="#BF00A0"></stop><stop offset="0.9357" stop-color="#BB00AF"></stop><stop offset="1" stop-color="#B900B4"></stop></linearGradient><clipPath id="clip0_51_20"><rect width="128" height="128" fill="white"></rect></clipPath></defs></svg> 