<?xml version="1.0" encoding="UTF-8"?> <svg xmlns="http://www.w3.org/2000/svg" width="128" height="128" viewBox="0 0 128 128" fill="none"><circle cx="64" cy="64" r="64" fill="white"></circle><path d="M60 120C93.1371 120 120 93.1371 120 60C120 26.8629 93.1371 0 60 0C26.8629 0 0 26.8629 0 60C0 93.1371 26.8629 120 60 120Z" transform="translate(4 4)" fill="url(#paint0_linear)"></path><path d="M72.4065 2.24573L60.9555 60.7217C60.9555 60.7217 59.3535 64.7777 54.9495 62.8307L28.5225 42.3107L18.9135 37.6067L2.73749 32.0927C2.73749 32.0927 0.25349 31.2017 0.0134896 29.2547C-0.22651 27.3077 2.81549 26.2547 2.81549 26.2547L67.1235 0.70673C67.1205 0.70373 72.4065 -1.64827 72.4065 2.24573Z" transform="translate(22.1216 34.1873)" fill="white"></path><path d="M7.581 48.0523C7.581 48.0523 6.81 47.9803 5.847 44.8963C4.887 41.8153 1.23596e-06 25.5943 1.23596e-06 25.5943L38.841 0.613335C38.841 0.613335 41.082 -0.766665 41.004 0.613335C41.004 0.613335 41.403 0.856332 40.203 1.99333C39.003 3.13033 9.69 29.8123 9.69 29.8123" transform="translate(41.0291 46.1967)" fill="#D2E5F1"></path><path d="M12.162 8.043L1.71 17.694C1.71 17.694 0.894001 18.321 8.69751e-07 17.928L2.001 1.05286e-06" transform="translate(48.6129 76.321)" fill="#B5CFE4"></path><defs><linearGradient id="paint0_linear" x2="1" gradientUnits="userSpaceOnUse" gradientTransform="translate(0.219) scale(119.562 -119.562) rotate(-90)"><stop stop-color="#42BCE8"></stop><stop offset="1" stop-color="#23A7DC"></stop></linearGradient></defs></svg> 