<?xml version="1.0" encoding="UTF-8"?> <svg xmlns="http://www.w3.org/2000/svg" width="128" height="128" viewBox="0 0 128 128" fill="none"><circle cx="64" cy="64" r="64" fill="white"></circle><path d="M60 120C93.1371 120 120 93.1371 120 60C120 26.8629 93.1371 0 60 0C26.8629 0 0 26.8629 0 60C0 93.1371 26.8629 120 60 120Z" transform="translate(4 4)" fill="#4D76A1"></path><path fill-rule="evenodd" clip-rule="evenodd" d="M38.5463 44.7573H43.2555C43.2555 44.7573 44.678 44.6011 45.4043 43.8182C46.0727 43.0994 46.0513 41.7497 46.0513 41.7497C46.0513 41.7497 45.9594 35.4307 48.8921 34.5002C51.7831 33.5836 55.4955 40.6074 59.4304 43.308C62.4059 45.3519 64.667 44.9038 64.667 44.9038L75.1882 44.7573C75.1882 44.7573 80.6922 44.4182 78.0824 40.0908C77.8685 39.7368 76.5626 36.8896 70.2597 31.0391C63.6627 24.9159 64.5461 25.9063 72.4929 15.3145C77.3327 8.86401 79.2675 4.9259 78.6632 3.23921C78.0867 1.63273 74.5272 2.05735 74.5272 2.05735L62.6808 2.13115C62.6808 2.13115 61.8027 2.01135 61.1513 2.40067C60.515 2.78251 60.1053 3.67238 60.1053 3.67238C60.1053 3.67238 58.2304 8.664 55.7298 12.9091C50.4547 21.8666 48.3455 22.3394 47.4835 21.7832C45.4781 20.4869 45.9786 16.5755 45.9786 13.7968C45.9786 5.11628 47.2952 1.4969 43.4149 0.55997C42.1271 0.248728 41.1795 0.0433736 37.8863 0.0102173C33.6595 -0.0336345 30.0818 0.0230506 28.056 1.0156C26.7084 1.67552 25.6688 3.14616 26.302 3.23065C27.0849 3.33547 28.8582 3.70874 29.7984 4.989C31.0123 6.6404 30.9695 10.3496 30.9695 10.3496C30.9695 10.3496 31.6669 20.5682 29.3406 21.8377C27.7437 22.7083 25.5533 20.9307 20.8504 12.8043C18.4407 8.64154 16.6214 4.04031 16.6214 4.04031C16.6214 4.04031 16.2706 3.18038 15.6449 2.72047C14.8855 2.16323 13.8245 1.98569 13.8245 1.98569L2.56744 2.05948C2.56744 2.05948 0.877537 2.10655 0.257194 2.84133C-0.294697 3.49483 0.213342 4.84675 0.213342 4.84675C0.213342 4.84675 9.02649 25.4657 19.0055 35.8564C28.1555 45.383 38.5463 44.7573 38.5463 44.7573Z" transform="translate(23.1873 45.5581)" fill="white"></path></svg> 