<?xml version="1.0" encoding="UTF-8"?> <svg xmlns="http://www.w3.org/2000/svg" width="128" height="128" viewBox="0 0 128 128" fill="none"><path fill-rule="evenodd" clip-rule="evenodd" d="M63.981 0C28.699 0 0 28.707 0 63.999C0 77.995 4.514 90.976 12.187 101.511L4.212 125.29L28.812 117.428C38.93 124.125 51.004 128 64.019 128C99.301 128 128 99.291 128 64.001C128 28.709 99.301 0.002 64.019 0.002H63.982L63.981 0Z" fill="white"></path><path fill-rule="evenodd" clip-rule="evenodd" d="M43.2319 30.4772C42.0684 27.6909 41.1862 27.585 39.4237 27.5137C38.8237 27.4791 38.1553 27.4444 37.4138 27.4444C35.1206 27.4444 32.7234 28.1147 31.2769 29.5959C29.5144 31.395 25.1409 35.5922 25.1409 44.1984C25.1409 52.8056 31.4175 61.1297 32.2641 62.295C33.1463 63.4575 44.5013 81.3769 62.1328 88.68C75.9206 94.3941 80.0119 93.8644 83.1497 93.195C87.7341 92.2078 93.4819 88.8197 94.9284 84.7294C96.3741 80.6372 96.3741 77.145 95.9503 76.4044C95.5275 75.6638 94.3631 75.2419 92.6006 74.3588C90.8381 73.4766 82.2684 69.2438 80.6466 68.6794C79.0594 68.0803 77.5434 68.2922 76.3453 69.9853C74.6522 72.3488 72.9956 74.7478 71.655 76.1934C70.5975 77.3222 68.8687 77.4637 67.4231 76.8637C65.4834 76.0537 60.0534 74.1469 53.3531 68.1863C48.1687 63.5663 44.6428 57.8175 43.6209 56.0887C42.5981 54.3253 43.515 53.3016 44.3259 52.35C45.2081 51.2559 46.0537 50.4806 46.935 49.4569C47.8172 48.4341 48.3103 47.9053 48.8747 46.7053C49.4747 45.5419 49.0509 44.3419 48.6281 43.4597C48.2044 42.5756 44.6784 33.9684 43.2319 30.4772ZM59.9822 0C26.9053 0 0 26.9128 0 59.9991C0 73.1203 4.23188 85.29 11.4253 95.1666L3.94875 117.459L27.0113 110.089C36.4969 116.367 47.8162 120 60.0178 120C93.0947 120 120 93.0853 120 60.0009C120 26.9147 93.0947 0.001875 60.0178 0.001875H59.9831V0H59.9822Z" transform="translate(4 4)" fill="#67C15E"></path></svg> 