<?xml version="1.0" encoding="UTF-8"?><!DOCTYPE svg PUBLIC "-//W3C//DTD SVG 1.1//EN" "http://www.w3.org/Graphics/SVG/1.1/DTD/svg11.dtd"><svg xmlns="http://www.w3.org/2000/svg"><symbol id="icon-arrow-next" viewBox="0 0 60.9 116">
    <path d="M7 114.8c-.8.8-1.8 1.2-2.9 1.2s-2.1-.4-2.9-1.2c-1.6-1.6-1.6-4.2 0-5.8l51-51-51-51c-1.6-1.6-1.6-4.2 0-5.8S5.4-.4 7 1.2l53.9 53.9c1.6 1.6 1.6 4.2 0 5.8L7 114.8z"/>
</symbol><symbol id="icon-arrow-prev" viewBox="0 0 60.9 116">
    <path d="M55.1 1.2C55.9.4 56.9 0 58 0s2.1.4 2.9 1.2c1.6 1.6 1.6 4.2 0 5.8l-51 51 51 51c1.6 1.6 1.6 4.2 0 5.8-1.6 1.6-4.2 1.6-5.8 0L1.2 60.9c-1.6-1.6-1.6-4.2 0-5.8L55.1 1.2z"/>
</symbol><symbol id="icon-arrow-right" viewBox="0 0 31.5 22.1">
    <style>
        .st0{fill:#1e201d}
    </style>
    <path class="st0" d="M21.2.3c-.4-.4-1.1-.4-1.6 0-.4.4-.4 1.1 0 1.6l8 8H1.1c-.6.1-1.1.5-1.1 1.2s.5 1.1 1.1 1.1h26.6l-8 8c-.4.4-.4 1.2 0 1.6.4.4 1.2.4 1.6 0l10-10c.4-.4.4-1.1 0-1.6L21.2.3z"/>
</symbol><symbol id="icon-close" viewBox="0 0 512 512">
    <style/>
    <path class="st0" d="M505.9 6.1c-8.1-8.1-21.2-8.1-29.2 0L6.1 476.7c-8.1 8.1-8.1 21.2 0 29.2 4 4 9.3 6.1 14.6 6.1s10.6-2 14.6-6.1L505.9 35.3c8.1-8.1 8.1-21.2 0-29.2z"/>
    <path class="st0" d="M505.9 476.7L35.3 6.1C27.2-2 14.1-2 6.1 6.1c-8.1 8-8.1 21.1 0 29.2l470.6 470.6c4 4 9.3 6.1 14.6 6.1s10.6-2 14.6-6.1c8.1-8 8.1-21.1 0-29.2z"/>
</symbol><symbol id="icon-marker" viewBox="0 0 26.7 33.5">
    <path d="M13.3 0C6 0 0 6 0 13.3c0 11.1 13.3 20.1 13.3 20.1s13.3-9.7 13.3-20.1C26.7 6 20.7 0 13.3 0zm0 19.7c-3.5 0-6.4-2.8-6.4-6.4S9.8 7 13.3 7c3.5 0 6.4 2.8 6.4 6.4 0 3.4-2.9 6.3-6.4 6.3z"/>
</symbol><symbol id="icon-phone" viewBox="0 0 512 512">
    <path d="M256 32c123.5 0 224 100.5 224 224S379.5 480 256 480 32 379.5 32 256 132.5 32 256 32m0-32C114.625 0 0 114.625 0 256s114.625 256 256 256 256-114.625 256-256S397.375 0 256 0zm142.719 341.594l-1.438-4.375c-3.375-10.062-14.5-20.562-24.75-23.375L334.688 303.5c-10.25-2.781-24.875.969-32.405 8.5l-13.688 13.688c-49.75-13.469-88.781-52.5-102.219-102.25l13.688-13.688c7.5-7.5 11.25-22.125 8.469-32.406L198.219 139.5c-2.781-10.25-13.344-21.375-23.406-24.75l-4.313-1.438c-10.094-3.375-24.5.031-32 7.563l-20.5 20.5c-3.656 3.625-6 14.031-6 14.063-.688 65.063 24.813 127.719 70.813 173.75 45.875 45.875 108.313 71.345 173.156 70.781.344 0 11.063-2.281 14.719-5.938l20.5-20.5c7.5-7.469 10.874-21.875 7.531-31.937z"/>
</symbol><symbol id="icon-reload" viewBox="0 0 447.7 489.7">
    <path d="M91.2 97.1c72.3-65.4 180.5-66.4 253.8-6.7l-58.1 2.2c-7.5.3-13.3 6.5-13 14 .3 7.3 6.3 13 13.5 13h.5l89.2-3.3c7.3-.3 13-6.2 13-13.5v-1-.6L386.8 13c-.3-7.5-6.6-13.3-14-13-7.5.3-13.3 6.5-13 14l2.1 55.3c-36.3-29.7-81-46.9-128.8-49.3-59.2-3-116.1 17.3-160 57.1-60.4 54.7-86 137.9-66.8 217.1 1.5 6.2 7 10.3 13.1 10.3 1.1 0 2.1-.1 3.2-.4 7.2-1.8 11.7-9.1 9.9-16.3-16.8-69.6 5.6-142.7 58.7-190.7z"/>
    <path d="M441.5 195.5c-1.8-7.2-9.1-11.7-16.3-9.9-7.2 1.8-11.7 9.1-9.9 16.3 16.9 69.6-5.6 142.7-58.7 190.7-37.3 33.7-84.1 50.3-130.7 50.3-44.5 0-88.9-15.1-124.7-44.9l58.8-5.3c7.4-.7 12.9-7.2 12.2-14.7s-7.2-12.9-14.7-12.2l-88.9 8c-7.4.7-12.9 7.2-12.2 14.7l8 88.9c.6 7 6.5 12.3 13.4 12.3.4 0 .8 0 1.2-.1 7.4-.7 12.9-7.2 12.2-14.7l-4.8-54.1c36.3 29.4 80.8 46.5 128.3 48.9 3.8.2 7.6.3 11.3.3 55.1 0 107.5-20.2 148.7-57.4 60.4-54.7 86-137.8 66.8-217.1z"/>
</symbol></svg>