<svg width="34" height="34" viewBox="0 0 34 34" fill="none" xmlns="http://www.w3.org/2000/svg">
<g id="16427588631529659198 1" clip-path="url(#clip0_1_69)">
<path id="Vector" d="M1.84159 2.49071L20.6691 7.19263C21.8225 7.53084 22.8407 8.2224 23.5802 9.16987C24.3198 10.1173 24.7435 11.273 24.7916 12.474V29.474C24.8225 29.9909 24.7282 30.5077 24.5167 30.9805C24.3052 31.4532 23.9827 31.868 23.5767 32.1895C23.1706 32.511 22.693 32.7297 22.1844 32.8272C21.6757 32.9246 21.151 32.8979 20.6549 32.7493L4.84492 29.032C3.69003 28.7131 2.66663 28.0349 1.92291 27.0955C1.17919 26.1562 0.753771 25.0045 0.708252 23.8073V5.39062C0.711615 4.26449 1.16046 3.18544 1.95676 2.38914C2.75307 1.59283 3.83212 1.14399 4.95825 1.14062H29.0416C30.1677 1.14399 31.2468 1.59283 32.0431 2.38914C32.8394 3.18544 33.2882 4.26449 33.2916 5.39062V20.974C33.2886 22.1002 32.8399 23.1795 32.0435 23.9759C31.2471 24.7722 30.1678 25.221 29.0416 25.224H24.7916" stroke="black" stroke-linecap="round" stroke-linejoin="round"/>
<path id="Vector_2" d="M13.4583 5.39062H27.6249" stroke="black" stroke-linecap="round" stroke-linejoin="round"/>
<path id="Vector_3" d="M18.4166 22.3903C19.9814 22.3903 21.2499 21.1218 21.2499 19.557C21.2499 17.9922 19.9814 16.7236 18.4166 16.7236C16.8518 16.7236 15.5833 17.9922 15.5833 19.557C15.5833 21.1218 16.8518 22.3903 18.4166 22.3903Z" stroke="black" stroke-linecap="round" stroke-linejoin="round"/>
<path id="Vector_4" d="M24.7917 12.4736H27.6251" stroke="black" stroke-linecap="round" stroke-linejoin="round"/>
</g>
<defs>
<clipPath id="clip0_1_69">
<rect width="34" height="34" fill="white"/>
</clipPath>
</defs>
</svg>
