<svg width="160" height="36" viewBox="0 0 160 36" fill="none" xmlns="http://www.w3.org/2000/svg">
<path d="M72.68 6.832C72.68 7.824 72.296 8.58133 71.528 9.104C70.984 9.46667 70.3813 9.67467 69.72 9.728C69.624 9.728 69.4853 9.73333 69.304 9.744C69.1227 9.744 68.92 9.74933 68.696 9.76C68.4827 9.76 68.2693 9.76 68.056 9.76C67.8427 9.76 67.656 9.76 67.496 9.76C67.496 9.90933 67.4907 10.032 67.48 10.128C67.48 10.2133 67.48 10.3307 67.48 10.48C67.48 10.6293 67.4747 10.848 67.464 11.136C67.464 11.4133 67.464 11.8133 67.464 12.336C67.4747 12.6987 67.4907 13.0187 67.512 13.296C67.544 13.5627 67.5867 13.7973 67.64 14H66.232C66.2853 13.7973 66.3227 13.536 66.344 13.216C66.376 12.8853 66.3973 12.48 66.408 12V9.056V6.112C66.3973 5.61067 66.376 5.18933 66.344 4.848C66.3227 4.50667 66.2853 4.23467 66.232 4.032H69.736C70.344 4.032 70.9307 4.208 71.496 4.56C72.2853 5.072 72.68 5.82933 72.68 6.832ZM71.56 6.832C71.56 6.288 71.4107 5.86667 71.112 5.568C70.8987 5.344 70.6213 5.184 70.28 5.088C70.184 5.06667 70.088 5.05067 69.992 5.04C69.896 5.02933 69.8053 5.01333 69.72 4.992C69.4107 4.94933 68.6747 4.93333 67.512 4.944L67.496 8.8C68.136 8.81067 68.6373 8.816 69 8.816C69.3733 8.80533 69.6133 8.78933 69.72 8.768C70.9573 8.58667 71.5707 7.94133 71.56 6.832ZM80.9319 14.08C80.2492 14.048 79.6359 14.0213 79.0919 14C78.5479 13.9893 78.0625 13.9893 77.6359 14C77.3052 14.0107 76.8679 14.0213 76.3239 14.032C75.7905 14.0533 75.1505 14.0747 74.4039 14.096C74.5105 13.744 74.5639 11.984 74.5639 8.816C74.5639 5.94667 74.5105 4.336 74.4039 3.984C75.1185 4.02667 76.0572 4.05867 77.2199 4.08C77.6465 4.09067 78.1319 4.09067 78.6759 4.08C79.2305 4.05867 79.8492 4.032 80.5319 4C80.4785 4.37333 80.4785 4.88533 80.5319 5.536H79.7319C79.7105 5.36533 79.6999 5.28 79.6999 5.28C79.6999 5.248 79.6679 5.2 79.6039 5.136C79.5612 5.06133 79.2199 5.024 78.5799 5.024H75.6199C75.5985 6.016 75.5985 7.09867 75.6199 8.272C77.9345 8.272 79.2679 8.19733 79.6199 8.048V9.424C79.1185 9.264 77.7852 9.2 75.6199 9.232C75.6092 10.416 75.6092 11.6853 75.6199 13.04H78.9959C79.5719 13.04 79.9079 12.976 80.0039 12.848C80.0679 12.752 80.1159 12.5867 80.1479 12.352H80.9319C80.8785 13.1413 80.8785 13.7173 80.9319 14.08ZM89.6101 14H88.2021C88.2128 13.9573 88.2181 13.92 88.2181 13.888C88.2288 13.8453 88.2341 13.7973 88.2341 13.744C88.2341 13.0613 88.0261 12.2933 87.6101 11.44C87.1301 10.416 86.5275 9.792 85.8021 9.568C85.5248 9.48267 85.1461 9.43467 84.6661 9.424C84.5595 9.43467 84.4528 9.44 84.3461 9.44C84.2501 9.44 84.1488 9.44533 84.0421 9.456V12.176C84.0528 12.5813 84.0688 12.9387 84.0901 13.248C84.1221 13.5467 84.1648 13.7973 84.2181 14H82.8101C82.8635 13.7973 82.9008 13.536 82.9221 13.216C82.9541 12.8853 82.9755 12.48 82.9861 12V9.056V6.112C82.9755 5.61067 82.9541 5.18933 82.9221 4.848C82.9008 4.50667 82.8635 4.23467 82.8101 4.032H86.3141C86.7088 4.032 87.0821 4.08 87.4341 4.176C87.7968 4.272 88.1115 4.42667 88.3781 4.64C88.6555 4.84267 88.8688 5.11467 89.0181 5.456C89.1781 5.78667 89.2581 6.192 89.2581 6.672C89.2581 8.10133 88.4635 8.98667 86.8741 9.328C88.1755 9.76533 89.0875 11.3227 89.6101 14ZM88.1381 6.672C88.1381 6.37333 88.0901 6.12267 87.9941 5.92C87.9088 5.70667 87.7861 5.536 87.6261 5.408C87.4661 5.28 87.2688 5.184 87.0341 5.12C86.8101 5.056 86.5648 5.01333 86.2981 4.992C85.9888 4.94933 85.2528 4.93333 84.0901 4.944L84.0741 8.48C84.7141 8.49067 85.2155 8.496 85.5781 8.496C85.9515 8.48533 86.1915 8.46933 86.2981 8.448C86.8955 8.36267 87.3488 8.192 87.6581 7.936C87.9675 7.68 88.1275 7.25867 88.1381 6.672ZM98.2348 13.744C97.8721 13.7227 97.3708 13.808 96.7308 14C96.3894 14.096 95.9468 14.144 95.4028 14.144C94.0374 14.144 92.9388 13.6267 92.1068 12.592C91.3174 11.6213 90.9228 10.448 90.9228 9.072C90.9228 7.62133 91.3121 6.41067 92.0908 5.44C92.9228 4.384 94.0481 3.856 95.4668 3.856C95.9361 3.856 96.3894 3.904 96.8268 4C96.9228 4.01067 97.0934 4.05867 97.3388 4.144C97.4988 4.19733 97.6108 4.21333 97.6748 4.192C97.6961 4.672 97.7441 5.17333 97.8188 5.696H97.0668C96.9921 5.32267 96.8108 5.06133 96.5228 4.912C96.3094 4.816 95.9894 4.768 95.5628 4.768C94.4534 4.768 93.5734 5.232 92.9228 6.16C92.3361 7.00267 92.0428 7.99467 92.0428 9.136C92.0428 10.192 92.3574 11.1253 92.9868 11.936C93.6801 12.7893 94.5388 13.216 95.5628 13.216C96.0108 13.216 96.3468 13.1733 96.5708 13.088C96.9121 12.96 97.0774 12.6987 97.0668 12.304L97.0508 10.368H96.8108C96.4588 10.368 96.2454 10.384 96.1708 10.416C96.0001 10.4587 95.9041 10.608 95.8828 10.864H95.0988C95.1414 10.2453 95.1414 9.74933 95.0988 9.376C95.6854 9.38667 96.2241 9.39733 96.7148 9.408C97.2161 9.408 97.6801 9.40267 98.1068 9.392C98.1068 10.7893 98.1068 11.6693 98.1068 12.032C98.1068 12.3947 98.1014 12.24 98.0908 11.568C98.1121 12.432 98.1601 13.1573 98.2348 13.744ZM108.944 9.136C108.944 10.512 108.518 11.6853 107.664 12.656C106.768 13.6587 105.643 14.16 104.288 14.16C102.88 14.16 101.744 13.6587 100.88 12.656C100.048 11.7173 99.6323 10.544 99.6323 9.136C99.6323 7.64267 100.022 6.41067 100.8 5.44C101.643 4.384 102.806 3.856 104.288 3.856C105.782 3.856 106.955 4.384 107.808 5.44C108.566 6.41067 108.944 7.64267 108.944 9.136ZM107.792 9.136C107.792 7.87733 107.51 6.86933 106.944 6.112C106.326 5.30133 105.435 4.896 104.272 4.896C103.184 4.896 102.315 5.344 101.664 6.24C101.067 7.05067 100.768 8.02133 100.768 9.152C100.768 10.2187 101.083 11.1307 101.712 11.888C102.384 12.7093 103.243 13.12 104.288 13.12C105.355 13.12 106.214 12.7147 106.864 11.904C107.483 11.1573 107.792 10.2347 107.792 9.136ZM117.573 14.08C116.89 14.048 116.277 14.0213 115.733 14C115.189 13.9893 114.703 13.9893 114.277 14C113.946 14.0107 113.509 14.0213 112.965 14.032C112.431 14.0533 111.791 14.0747 111.045 14.096C111.151 13.744 111.205 11.9787 111.205 8.8C111.205 7.30667 111.205 6.33067 111.205 5.872C111.205 5.40267 111.21 5.44 111.221 5.984C111.21 5.536 111.189 5.152 111.157 4.832C111.135 4.512 111.098 4.25067 111.045 4.048H112.453C112.399 4.25067 112.357 4.528 112.325 4.88C112.303 5.22133 112.287 5.648 112.277 6.16V9.024L112.261 13.088H115.637C116.213 13.088 116.549 13.024 116.645 12.896C116.709 12.8 116.757 12.6347 116.789 12.4H117.573C117.541 13.168 117.541 13.728 117.573 14.08ZM127.689 14H126.233C126.158 13.6587 125.79 12.5653 125.129 10.72H121.113C120.43 12.4587 120.041 13.552 119.945 14H118.665C119.188 12.9653 120.516 9.58933 122.649 3.872H123.785C124.116 4.77867 124.425 5.62667 124.713 6.416C125.012 7.19467 125.289 7.92 125.545 8.592C126.74 11.8027 127.454 13.6053 127.689 14ZM124.793 9.744C124.494 8.90133 124.212 8.08 123.945 7.28C123.689 6.48 123.444 5.696 123.209 4.928C123.06 5.38667 122.841 6.016 122.553 6.816C122.265 7.60533 121.897 8.58133 121.449 9.744H124.793ZM72.664 30.304C72.6213 30.6667 72.5893 30.9707 72.568 31.216C72.5573 31.4613 72.552 31.6533 72.552 31.792C72.488 31.7813 72.2107 31.8347 71.72 31.952C71.208 32.0907 70.696 32.16 70.184 32.16C68.8507 32.16 67.7627 31.632 66.92 30.576C66.1093 29.5947 65.704 28.4267 65.704 27.072C65.704 25.6 66.088 24.384 66.856 23.424C67.688 22.3787 68.8133 21.856 70.232 21.856C70.6693 21.856 71.1333 21.9147 71.624 22.032C72.104 22.1387 72.3813 22.1867 72.456 22.176C72.456 22.3147 72.4667 22.512 72.488 22.768C72.5093 23.0133 72.5413 23.3227 72.584 23.696H71.832C71.8107 23.5467 71.7467 23.36 71.64 23.136C71.3733 22.9013 70.888 22.7893 70.184 22.8C69.128 22.832 68.2853 23.28 67.656 24.144C67.0907 24.9547 66.808 25.936 66.808 27.088C66.808 28.1653 67.1227 29.1093 67.752 29.92C68.4347 30.784 69.2987 31.216 70.344 31.216C70.984 31.216 71.4213 31.0987 71.656 30.864C71.7627 30.7573 71.848 30.5707 71.912 30.304H72.664ZM83.8193 27.136C83.8193 28.512 83.3926 29.6853 82.5393 30.656C81.6433 31.6587 80.5179 32.16 79.1633 32.16C77.7553 32.16 76.6193 31.6587 75.7553 30.656C74.9233 29.7173 74.5073 28.544 74.5073 27.136C74.5073 25.6427 74.8966 24.4107 75.6753 23.44C76.5179 22.384 77.6806 21.856 79.1633 21.856C80.6566 21.856 81.8299 22.384 82.6833 23.44C83.4406 24.4107 83.8193 25.6427 83.8193 27.136ZM82.6673 27.136C82.6673 25.8773 82.3846 24.8693 81.8193 24.112C81.2006 23.3013 80.3099 22.896 79.1473 22.896C78.0593 22.896 77.1899 23.344 76.5393 24.24C75.9419 25.0507 75.6432 26.0213 75.6432 27.152C75.6432 28.2187 75.9579 29.1307 76.5873 29.888C77.2593 30.7093 78.1179 31.12 79.1633 31.12C80.2299 31.12 81.0886 30.7147 81.7393 29.904C82.3579 29.1573 82.6673 28.2347 82.6673 27.136ZM93.9355 22.032C93.8822 22.2347 93.8395 22.5067 93.8075 22.848C93.7862 23.1787 93.7702 23.5893 93.7595 24.08C93.7702 23.792 93.7755 23.8933 93.7755 24.384C93.7755 24.8747 93.7755 25.76 93.7755 27.04V32H92.8475C92.3568 31.296 91.8928 30.6293 91.4555 30C91.0182 29.3707 90.6128 28.7787 90.2395 28.224C89.3328 26.8907 88.6075 25.8187 88.0635 25.008C87.5302 24.1973 87.1728 23.632 86.9915 23.312V27.04V29.936C87.0022 30.4267 87.0182 30.8427 87.0395 31.184C87.0715 31.5253 87.1142 31.7973 87.1675 32H85.8395C85.8928 31.7973 85.9302 31.5307 85.9515 31.2C85.9835 30.8587 86.0048 30.4427 86.0155 29.952V27.008C86.0155 26.1973 86.0155 25.5413 86.0155 25.04C86.0155 24.5387 86.0102 24.192 85.9995 24C85.9462 22.976 85.8448 22.32 85.6955 22.032C86.7088 22.0427 87.2102 22.0427 87.1995 22.032C87.6688 22.672 88.1115 23.2907 88.5275 23.888C88.9542 24.4747 89.3595 25.0453 89.7435 25.6C90.6182 26.8693 91.3008 27.904 91.7915 28.704C92.2928 29.4933 92.6128 30.0533 92.7515 30.384V27.024C92.7515 25.84 92.7515 25.008 92.7515 24.528C92.7515 24.0373 92.7568 23.888 92.7675 24.08C92.7568 23.12 92.6928 22.4373 92.5755 22.032H93.9355ZM102.395 29.488C102.353 30.5227 101.825 31.264 100.811 31.712C100.054 32.064 99.0994 32.2133 97.9474 32.16C97.51 32.1493 96.918 32.0053 96.1714 31.728C95.83 31.6107 95.59 31.5733 95.4514 31.616C95.4514 31.328 95.4674 30.7893 95.4994 30H96.1074C96.1394 30.1813 96.2887 30.368 96.5554 30.56C97.1634 31.008 97.8407 31.232 98.5874 31.232C99.302 31.232 99.9207 31.0827 100.443 30.784C101.083 30.4213 101.361 29.904 101.275 29.232C101.233 28.816 101.03 28.48 100.667 28.224C100.411 28.0213 100.011 27.84 99.4674 27.68C99.2327 27.616 98.998 27.552 98.7634 27.488C98.5287 27.424 98.294 27.36 98.0594 27.296C97.27 27.0507 96.6834 26.7947 96.2994 26.528C95.702 26.0587 95.4034 25.4507 95.4034 24.704C95.4034 23.7547 95.766 23.024 96.4914 22.512C97.1314 22.0533 97.958 21.8347 98.9714 21.856C99.2487 21.856 99.7874 21.9573 100.587 22.16C101.11 22.2773 101.398 22.3307 101.451 22.32C101.451 22.4693 101.451 22.6773 101.451 22.944C101.451 23.2 101.457 23.5253 101.467 23.92H100.859C100.795 23.5787 100.71 23.3707 100.603 23.296C100.113 22.9653 99.51 22.8 98.7954 22.8C97.1847 22.8 96.406 23.472 96.4594 24.816C96.4914 25.616 97.3287 26.176 98.9714 26.496C101.329 26.9653 102.47 27.9627 102.395 29.488ZM112.602 23.664H111.802C111.791 23.3973 111.748 23.2 111.674 23.072C111.546 22.944 111.21 22.88 110.666 22.88H108.618V27.184C108.618 28.4107 108.618 29.264 108.618 29.744C108.618 30.224 108.612 30.3253 108.602 30.048C108.612 30.5067 108.628 30.9013 108.65 31.232C108.682 31.552 108.724 31.808 108.778 32H107.386C107.503 31.5947 107.567 30.944 107.578 30.048V27.184V22.864H105.562C105.028 22.864 104.698 22.928 104.57 23.056C104.495 23.184 104.452 23.3813 104.442 23.648H103.626C103.679 22.976 103.679 22.4373 103.626 22.032H112.602C112.57 22.384 112.57 22.928 112.602 23.664ZM121.204 32H119.796C119.807 31.9573 119.812 31.92 119.812 31.888C119.823 31.8453 119.828 31.7973 119.828 31.744C119.828 31.0613 119.62 30.2933 119.204 29.44C118.724 28.416 118.121 27.792 117.396 27.568C117.119 27.4827 116.74 27.4347 116.26 27.424C116.153 27.4347 116.047 27.44 115.94 27.44C115.844 27.44 115.743 27.4453 115.636 27.456V30.176C115.647 30.5813 115.663 30.9387 115.684 31.248C115.716 31.5467 115.759 31.7973 115.812 32H114.404C114.457 31.7973 114.495 31.536 114.516 31.216C114.548 30.8853 114.569 30.48 114.58 30V27.056V24.112C114.569 23.6107 114.548 23.1893 114.516 22.848C114.495 22.5067 114.457 22.2347 114.404 22.032H117.908C118.303 22.032 118.676 22.08 119.028 22.176C119.391 22.272 119.705 22.4267 119.972 22.64C120.249 22.8427 120.463 23.1147 120.612 23.456C120.772 23.7867 120.852 24.192 120.852 24.672C120.852 26.1013 120.057 26.9867 118.468 27.328C119.769 27.7653 120.681 29.3227 121.204 32ZM119.732 24.672C119.732 24.3733 119.684 24.1227 119.588 23.92C119.503 23.7067 119.38 23.536 119.22 23.408C119.06 23.28 118.863 23.184 118.628 23.12C118.404 23.056 118.159 23.0133 117.892 22.992C117.583 22.9493 116.847 22.9333 115.684 22.944L115.668 26.48C116.308 26.4907 116.809 26.496 117.172 26.496C117.545 26.4853 117.785 26.4693 117.892 26.448C118.489 26.3627 118.943 26.192 119.252 25.936C119.561 25.68 119.721 25.2587 119.732 24.672ZM131.173 22.064C131.055 22.5013 130.997 23.7067 130.997 25.68C130.997 25.7867 130.997 25.92 130.997 26.08C130.997 26.2293 131.002 26.4053 131.013 26.608C131.023 26.8107 131.029 26.9867 131.029 27.136C131.029 27.2853 131.029 27.408 131.029 27.504C131.029 28.88 130.719 29.9627 130.101 30.752C129.343 31.712 128.287 32.192 126.933 32.192C125.567 32.192 124.511 31.728 123.765 30.8C123.167 30.0427 122.868 29.0453 122.868 27.808C122.868 27.8613 122.868 27.696 122.868 27.312C122.879 26.928 122.89 26.3253 122.901 25.504C122.911 25.056 122.911 24.64 122.901 24.256C122.901 23.872 122.89 23.52 122.868 23.2C122.837 22.6773 122.783 22.2987 122.709 22.064H124.181C124.095 22.4267 124.037 23.2427 124.005 24.512C123.994 25.1627 123.983 25.776 123.973 26.352C123.973 26.928 123.973 27.472 123.973 27.984C123.973 30.0747 124.97 31.12 126.965 31.12C127.893 31.12 128.613 30.8427 129.125 30.288C129.69 29.6587 129.973 28.624 129.973 27.184C129.973 26.0107 129.957 24.9493 129.925 24C129.914 23.52 129.893 23.12 129.861 22.8C129.839 22.48 129.807 22.2347 129.765 22.064H131.173ZM139.633 30.304C139.59 30.6667 139.558 30.9707 139.537 31.216C139.526 31.4613 139.521 31.6533 139.521 31.792C139.457 31.7813 139.179 31.8347 138.689 31.952C138.177 32.0907 137.665 32.16 137.153 32.16C135.819 32.16 134.731 31.632 133.889 30.576C133.078 29.5947 132.673 28.4267 132.673 27.072C132.673 25.6 133.057 24.384 133.825 23.424C134.657 22.3787 135.782 21.856 137.201 21.856C137.638 21.856 138.102 21.9147 138.593 22.032C139.073 22.1387 139.35 22.1867 139.425 22.176C139.425 22.3147 139.435 22.512 139.457 22.768C139.478 23.0133 139.51 23.3227 139.553 23.696H138.801C138.779 23.5467 138.715 23.36 138.609 23.136C138.342 22.9013 137.857 22.7893 137.153 22.8C136.097 22.832 135.254 23.28 134.625 24.144C134.059 24.9547 133.777 25.936 133.777 27.088C133.777 28.1653 134.091 29.1093 134.721 29.92C135.403 30.784 136.267 31.216 137.313 31.216C137.953 31.216 138.39 31.0987 138.625 30.864C138.731 30.7573 138.817 30.5707 138.881 30.304H139.633ZM150.164 23.664H149.364C149.353 23.3973 149.311 23.2 149.236 23.072C149.108 22.944 148.772 22.88 148.228 22.88H146.18V27.184C146.18 28.4107 146.18 29.264 146.18 29.744C146.18 30.224 146.175 30.3253 146.164 30.048C146.175 30.5067 146.191 30.9013 146.212 31.232C146.244 31.552 146.287 31.808 146.34 32H144.948C145.065 31.5947 145.129 30.944 145.14 30.048V27.184V22.864H143.124C142.591 22.864 142.26 22.928 142.132 23.056C142.057 23.184 142.015 23.3813 142.004 23.648H141.188C141.241 22.976 141.241 22.4373 141.188 22.032H150.164C150.132 22.384 150.132 22.928 150.164 23.664Z" fill="white"/>
<g clip-path="url(#clip0_12_3)">
<path d="M0.0556774 29.8978C0.0408301 29.7107 0.0185591 29.5478 0.0185591 29.3829C0.0129914 26.4622 0.0129914 23.5415 0 20.6208C0 20.3041 0.085372 20.1337 0.402733 20.0022C8.32748 16.7278 16.2467 13.4385 24.1659 10.153C31.1162 7.26747 38.0666 4.38196 45.017 1.49645C45.4142 1.33162 45.8114 1.17234 46.2345 1.00195C46.3255 1.15197 46.4071 1.27976 46.4795 1.41126C49.1372 6.21735 51.78 11.0309 54.4618 15.8221C54.846 16.5092 55.0037 17.1797 54.9981 17.9576C54.9703 21.7858 54.9851 25.614 54.987 29.4422V29.8682C54.5472 29.9422 54.1389 29.9997 53.7361 30.0811C50.9374 30.6386 48.1405 31.2016 45.3437 31.7591C42.2276 32.3796 39.1115 32.9944 35.9954 33.613C35.4053 33.7297 34.8188 33.8742 34.2249 33.9594C33.863 34.0112 33.4825 34.0131 33.1188 33.9705C30.5298 33.6556 27.9426 33.3223 25.3555 33C23.533 32.7722 21.7105 32.5555 19.888 32.3277C17.7759 32.0628 15.6639 31.7887 13.55 31.5239C10.7327 31.172 7.91547 30.8257 5.09634 30.4738C3.77864 30.3108 2.4628 30.1404 1.1451 29.9811C0.809178 29.9404 0.469546 29.9293 0.0538215 29.8996L0.0556774 29.8978ZM5.28007 21.508C5.44154 21.5172 5.60486 21.5246 5.76632 21.5339C5.76632 21.5098 5.76632 21.4857 5.76447 21.4617C5.59929 21.4783 5.43597 21.495 5.27079 21.5117C4.95529 21.2561 4.2519 21.1042 3.68956 21.2024C3.92897 21.2746 4.17581 21.3209 4.42264 21.3635C4.7066 21.4135 4.99241 21.4617 5.28007 21.508ZM13.1417 22.2951C12.8652 22.2951 12.5812 22.3303 12.3121 22.2858C11.7795 22.2006 11.2561 22.0673 10.7253 21.9617C10.5694 21.9302 10.4043 21.8395 10.2279 21.9895C10.4005 22.3414 10.7773 22.0914 11.0483 22.271C10.7495 22.2877 10.5008 22.3006 10.2521 22.3136C10.2446 22.3469 10.2391 22.3803 10.2317 22.4155C10.2929 22.4581 10.3579 22.5414 10.4135 22.534C10.5954 22.5118 10.7754 22.4673 10.9517 22.4155C11.2858 22.3173 11.6199 22.2729 11.9651 22.3766C11.8871 22.4303 11.8036 22.4581 11.7201 22.471C11.3081 22.534 10.8961 22.5896 10.4841 22.6562C10.2317 22.697 10.2242 22.7248 10.3412 23.0304C10.2242 23.3897 10.2446 23.4341 10.5713 23.51C10.6455 23.5267 10.7235 23.5341 10.7996 23.5452C11.9539 23.7341 13.1157 23.8971 14.2627 24.1212C14.9902 24.2638 15.688 24.2657 16.3989 24.0434C17.2117 23.7897 18.0729 23.7193 18.8839 23.4489C18.9786 23.4174 19.0974 23.4619 19.205 23.46C19.27 23.46 19.3368 23.4415 19.5001 23.4137C19.2421 23.2119 19.0417 23.2081 18.832 23.2563C17.9318 23.4693 17.0317 23.6841 16.1316 23.8971L16.139 23.9027C16.2337 23.8341 16.3209 23.7304 16.4267 23.7045C17.3936 23.46 18.342 23.1248 19.3535 23.0915C19.3702 23.0915 19.3869 23.0489 19.4036 23.0248C19.4036 23.01 19.4054 22.9933 19.3999 22.9822C19.3832 22.9581 19.3646 22.9229 19.3423 22.9174C16.4044 22.2988 13.4665 21.6821 10.5286 21.0672C10.4544 21.0524 10.3783 21.0524 10.3022 21.0486C10.2892 21.0486 10.2762 21.0616 10.2651 21.0709C10.2539 21.0801 10.2465 21.0931 10.2168 21.1301C10.2576 21.382 10.4915 21.3616 10.6696 21.395C11.6217 21.5802 12.5794 21.745 13.5296 21.9358C14.5763 22.1451 15.6175 22.3747 16.6605 22.5951C16.655 22.6248 16.6513 22.6544 16.6457 22.684C16.4248 22.6488 16.2021 22.6081 15.9794 22.5803C15.6769 22.5414 15.3725 22.5118 15.07 22.4784C14.955 22.4395 14.8417 22.3858 14.7248 22.3618C13.3032 22.0728 11.8816 21.7876 10.4599 21.5043C10.3913 21.4913 10.3189 21.495 10.2317 21.4894C10.1982 21.7524 10.3764 21.7524 10.5156 21.7765C10.9703 21.8561 11.4306 21.9191 11.8834 22.008C12.3047 22.0895 12.7204 22.1951 13.138 22.2895L13.1417 22.2951ZM9.07171 21.9302C8.82487 21.9191 8.55391 21.9728 8.33862 21.8858C7.87279 21.7006 7.43479 21.7691 6.98195 21.8858C6.86317 21.9173 6.73882 21.9247 6.61633 21.9469C6.16163 22.0302 5.70879 22.1136 5.25595 22.1969C6.13008 22.2284 6.9671 21.9247 7.84866 22.0451C7.26776 22.1673 6.685 22.2895 6.1041 22.4118C6.42332 22.4525 6.72954 22.4321 7.03577 22.3932C7.35684 22.3544 7.6742 22.2969 7.99528 22.2506C8.28294 22.2099 8.57246 22.171 8.86013 22.1321C8.86384 22.1599 8.86755 22.1877 8.86941 22.2154C7.97857 22.384 7.08588 22.5507 6.20989 22.7155C7.27147 22.9377 8.34048 23.2119 9.46145 23.3211V22.8655C9.20347 22.9063 8.98077 22.9415 8.75806 22.9766C8.88797 22.8896 9.03088 22.8655 9.17192 22.8266C9.31669 22.7859 9.53197 22.8025 9.46887 22.4895C8.77105 22.6081 8.08436 22.7248 7.39767 22.8414L7.38097 22.7507C7.48119 22.7285 7.58141 22.7025 7.68163 22.684C8.21242 22.5877 8.74321 22.4933 9.274 22.3969C9.4002 22.3747 9.52269 22.3451 9.48743 22.1691C9.34267 22.0858 9.20162 22.0025 9.05871 21.9191C9.21276 21.9302 9.38164 22.0173 9.53568 21.808C9.41876 21.7506 9.33339 21.6858 9.23874 21.6672C8.67825 21.5635 8.11591 21.4728 7.55542 21.3728C6.78336 21.2357 6.0113 21.0931 5.2411 20.9523C5.01468 20.9116 4.78826 20.8616 4.55998 20.8301C4.49131 20.8208 4.41522 20.8597 4.34098 20.8783C4.65834 21.0227 4.97014 21.0987 5.28379 21.1598C6.50683 21.3968 7.72988 21.6302 8.95107 21.8673C8.99376 21.8765 9.03273 21.908 9.07356 21.9302H9.07171ZM30.8323 29.8793C31.4095 29.8848 31.9273 29.9052 32.4915 29.8645C32.5267 28.8588 32.4841 27.8976 32.5156 26.903C32.7309 26.903 32.8831 26.903 33.0353 26.903C33.7776 26.903 34.5181 26.9067 35.2605 26.903C35.6744 26.9012 35.6911 26.8789 35.7597 26.4696C35.9787 25.1824 36.2033 23.8953 36.413 22.6081C36.4501 22.3747 36.5485 22.2655 36.7824 22.2154C37.8848 21.9858 38.9835 21.7395 40.0859 21.5043C40.1675 21.4876 40.2566 21.5098 40.3587 21.5154C40.3476 21.6543 40.3494 21.7617 40.3309 21.8654C40.0098 23.7119 39.6813 25.5566 39.3695 27.4049C39.3287 27.6438 39.3324 27.8976 39.3658 28.1383C39.427 28.5939 39.5217 29.0458 39.6071 29.4996C39.6776 29.8811 39.6813 29.8848 40.0877 29.8867C41.1697 29.8904 42.2499 29.8885 43.3319 29.8867C43.4636 29.8867 43.5973 29.8626 43.7495 29.8496C43.7643 29.6774 43.7866 29.5422 43.7866 29.407C43.7866 26.2233 43.7866 23.0415 43.7866 19.8578C43.7866 19.7281 43.7532 19.5985 43.729 19.4244C35.8507 20.9986 28.0206 22.5507 20.2165 24.1138C20.107 24.8324 20.1422 29.4959 20.2629 29.883C21.0758 29.883 21.9072 29.8867 22.7368 29.8811C22.9168 29.8811 22.9484 29.7348 22.9744 29.5922C23.0653 29.0773 23.1432 28.5606 23.2565 28.0513C23.3492 27.6346 23.314 27.229 23.2342 26.8197C23.1841 26.5641 23.1321 26.3066 23.0913 26.0492C23.0375 25.7195 22.9929 25.3899 22.9391 25.0232C23.7947 24.8806 24.589 24.6472 25.439 24.6028C25.5782 25.3695 25.7081 26.0881 25.8492 26.8641H28.0354C28.0354 27.4197 28.0299 27.9105 28.0354 28.3995C28.0429 28.8829 28.002 29.3718 28.0744 29.8589H30.218C30.2217 28.8125 30.2421 27.7957 30.2031 26.753C29.9415 26.7345 29.7429 26.7289 29.5461 26.7048C28.7667 26.6104 27.9835 26.5233 27.2077 26.403C26.9479 26.3622 26.6621 26.2974 26.482 25.9825C26.6602 25.8881 26.8105 25.7714 26.9794 25.7288C27.4118 25.6177 27.8498 25.4825 28.2897 25.4603C29.5536 25.401 30.8193 25.3602 32.085 25.3806C32.7439 25.3917 33.4027 25.5306 34.0542 25.6473C34.3121 25.6936 34.6035 25.7492 34.752 26.0418C34.572 26.3085 34.2824 26.3455 34.0226 26.4122C33.2413 26.6141 32.4451 26.6993 31.6378 26.7104C31.3798 26.7141 31.1218 26.7382 30.836 26.7548V29.8793H30.8323ZM9.50784 24.0453C9.33339 23.999 9.18863 23.9508 9.0383 23.923C7.56656 23.6563 6.09296 23.4082 4.62494 23.1248C3.92711 22.9896 3.96238 23.1007 3.82875 23.6601C3.65615 24.3916 3.47427 25.1232 3.32765 25.8603C3.17176 26.6419 3.03256 27.4271 2.93049 28.218C2.88595 28.5588 2.84697 28.881 2.6688 29.181C2.58158 29.3274 2.54631 29.5033 2.48692 29.6644C3.02514 29.8645 8.97334 29.9626 9.50599 29.7959V24.0453H9.50784ZM49.5065 29.8552C49.5065 29.5181 49.5065 29.2144 49.5065 28.9106C49.4954 25.5899 49.4824 22.2692 49.4694 18.9503C49.4694 18.7595 49.4434 18.5706 49.4267 18.3409C49.152 18.3909 48.9423 18.4354 48.7307 18.465C48.4672 18.5021 48.328 18.6262 48.2853 18.904C48.2259 19.2985 48.1276 19.6874 48.0403 20.0763C47.9698 20.3875 47.9123 20.4227 47.5949 20.3949C47.3796 20.3764 47.1643 20.3523 46.949 20.3578C46.4238 20.3726 46.3292 20.4671 46.3236 20.9857C46.2921 23.799 46.2624 26.6104 46.2345 29.4237C46.2345 29.557 46.2531 29.6922 46.2642 29.857H49.5084L49.5065 29.8552ZM52.1994 20.2819C52.3331 19.5281 52.4593 18.8354 52.5762 18.1391C52.5966 18.015 52.5799 17.8853 52.5799 17.7094C51.8691 17.8483 51.2195 17.9705 50.5718 18.1057C50.1449 18.1946 50.1412 18.2039 50.1394 18.6595C50.1245 22.2377 50.1134 25.8159 50.1041 29.394C50.1041 29.5422 50.1282 29.6885 50.1431 29.8756C50.9968 29.883 51.806 29.8978 52.6448 29.8645C52.6615 29.6811 52.6838 29.5459 52.682 29.4126C52.6578 26.5567 52.6281 23.7008 52.6059 20.8431C52.604 20.5708 52.5521 20.356 52.1994 20.2819ZM10.2595 29.7848C10.4562 29.807 10.5601 29.8274 10.6659 29.8293C11.8556 29.833 13.0452 29.8348 14.2349 29.8293C14.671 29.8293 14.6951 29.7996 14.7044 29.3477C14.7285 28.1031 14.7489 26.8567 14.7694 25.6121C14.7712 25.4473 14.7694 25.2806 14.7694 25.0787C13.2457 24.7787 11.7702 24.4898 10.2168 24.1842C10.2168 26.0788 10.2317 27.9124 10.2595 29.7848ZM15.933 29.7959C16.1297 29.8107 16.2652 29.8311 16.4007 29.8311C17.234 29.833 18.0655 29.8311 18.8988 29.8293C19.4073 29.8274 19.437 29.8237 19.4463 29.3255C19.476 27.7457 19.4852 26.164 19.4964 24.5842C19.4964 24.5027 19.45 24.4194 19.4258 24.3342C19.3498 24.3342 19.3034 24.3268 19.2607 24.3342C18.264 24.5342 17.2656 24.7324 16.2689 24.938C15.8829 25.0176 15.8773 25.025 15.8792 25.4214C15.8811 26.7104 15.8885 27.9994 15.8978 29.2885C15.8978 29.4385 15.9182 29.5903 15.933 29.7941V29.7959ZM31.4336 10.353C31.7027 10.5438 31.8846 10.679 32.072 10.8068C33.592 11.8309 35.1176 12.8496 36.6357 13.8793C38.6253 15.2295 40.6092 16.587 42.5969 17.939C43.0479 18.2465 43.3597 18.228 43.8218 17.8557C43.6121 17.6927 43.4135 17.5279 43.2057 17.3797C40.2678 15.2647 37.3261 13.1496 34.3864 11.0364C33.9242 10.703 33.4584 10.3734 32.9981 10.0382C32.8552 9.93444 32.7198 9.8548 32.5305 9.93073C32.2038 10.0641 31.8735 10.1863 31.4318 10.3549L31.4336 10.353ZM34.0764 9.34548C35.2401 10.2363 36.3035 11.0457 37.3633 11.8606C38.4267 12.6773 39.4827 13.5034 40.5461 14.3201C41.6003 15.1276 42.6415 15.9518 43.7532 16.8C43.8441 16.1499 43.8515 15.6777 43.317 15.2517C41.4871 13.7904 39.7017 12.2754 37.8978 10.7808C37.1981 10.2011 36.4984 9.62144 35.8024 9.03804C35.6558 8.91581 35.5185 8.80283 35.3069 8.88432C34.9376 9.02878 34.5645 9.16398 34.0783 9.34548H34.0764ZM29.0154 11.2698C29.2344 11.4235 29.3717 11.5346 29.5239 11.6235C31.0958 12.5681 32.6715 13.5052 34.2416 14.4516C36.4056 15.7573 38.564 17.0723 40.7243 18.3835C41.1939 18.6688 41.5186 18.6576 41.9622 18.3206C41.8156 18.2187 41.6838 18.1187 41.5446 18.0316C39.1394 16.5018 36.7322 14.9739 34.327 13.4459C33.6644 13.0255 33.0056 12.6014 32.3411 12.181C31.7417 11.8032 31.1404 11.429 30.5391 11.0531C30.3627 10.942 30.179 10.8716 29.9693 10.9401C29.6816 11.0346 29.3958 11.1383 29.0135 11.2698H29.0154ZM40.175 18.8151C40.0061 18.5873 39.7889 18.5039 39.5959 18.3946C36.9568 16.8963 34.3177 15.3999 31.6786 13.9034C30.5261 13.2515 29.3735 12.5996 28.2173 11.9532C28.0874 11.881 27.9259 11.7921 27.7942 11.8106C27.4638 11.855 27.1464 11.968 26.8124 12.1884C26.9813 12.2903 27.1056 12.3717 27.2355 12.4421C27.6847 12.681 28.1394 12.9088 28.5848 13.1515C32.0479 15.0369 35.5129 16.9186 38.9668 18.8206C39.3881 19.0521 39.7407 18.9855 40.1768 18.8169L40.175 18.8151ZM36.9958 8.23239C38.1724 9.28807 39.2767 10.2826 40.3865 11.2698C41.4927 12.2532 42.5561 13.283 43.7402 14.209C43.7903 13.8849 43.7606 13.583 43.7958 13.2885C43.8441 12.8922 43.6826 12.6273 43.4043 12.3662C42.6637 11.6717 41.9418 10.9568 41.2143 10.2493C40.3977 9.45475 39.5848 8.66022 38.77 7.86569C38.6475 7.7453 38.538 7.61936 38.3339 7.70271C37.9219 7.87124 37.5062 8.03052 36.9939 8.23054L36.9958 8.23239ZM38.5343 19.167C38.2894 19.0355 38.1205 18.941 37.9497 18.8521C35.9769 17.8372 34.004 16.8204 32.0294 15.8073C30.0138 14.7739 27.9965 13.7441 25.9772 12.7199C25.8603 12.6607 25.7063 12.6088 25.5893 12.6366C25.3258 12.6977 25.0752 12.8107 24.7171 12.9403C24.9416 13.0792 25.0734 13.1755 25.2163 13.2459C27.2467 14.2479 29.2808 15.248 31.3111 16.2481C33.2598 17.2075 35.216 18.1557 37.1535 19.1392C37.5897 19.3614 37.9831 19.4299 38.5362 19.167H38.5343ZM36.9086 19.5318C36.6599 19.4133 36.5114 19.3392 36.3611 19.2707C35.5797 18.9058 34.7965 18.541 34.0152 18.1743C30.695 16.6167 27.3729 15.0646 24.0619 13.4922C23.5887 13.2681 23.2657 13.4867 22.8073 13.7052C23.0356 13.8275 23.1766 13.9127 23.327 13.9812C27.4675 15.8573 31.6081 17.7298 35.7467 19.6096C36.1142 19.7763 36.4501 19.7596 36.9086 19.5337V19.5318ZM21.0164 14.4127C21.2205 14.5072 21.369 14.5813 21.5212 14.6442C24.6929 15.9629 27.8665 17.2779 31.0383 18.5984C32.1054 19.0429 33.1707 19.4874 34.2305 19.9448C34.5868 20.0985 34.9209 20.1282 35.3347 19.893C35.1621 19.8004 35.0508 19.7318 34.9301 19.6818C34.661 19.5651 34.3882 19.4614 34.1191 19.3448C30.2477 17.6649 26.3744 15.9907 22.5104 14.2923C21.9981 14.0682 21.5509 14.0423 21.0145 14.4127H21.0164ZM33.9001 20.2319C33.6681 20.1208 33.5345 20.0485 33.3953 19.9948C31.2629 19.1466 29.1286 18.3057 26.9961 17.4557C24.8934 16.6167 22.7925 15.7721 20.6916 14.9313C20.5431 14.872 20.3872 14.8313 20.2276 14.7794C20.1144 15.3443 20.1162 15.3554 20.558 15.5258C23.0709 16.5 25.5856 17.4686 28.1004 18.4428C29.6798 19.0558 31.2592 19.6689 32.8348 20.2893C33.1652 20.4189 33.4788 20.4486 33.9001 20.2319ZM43.6604 10.7308C43.6956 10.7179 43.7309 10.703 43.768 10.6901C43.7773 10.5734 43.7921 10.4567 43.7921 10.34C43.7958 9.92518 43.7754 9.51032 43.8014 9.09731C43.8218 8.7806 43.7272 8.53428 43.523 8.30092C43.1574 7.88606 42.8122 7.45268 42.4447 7.03782C41.7246 6.22847 42.042 6.30996 41.0101 6.68222C40.7466 6.77668 40.4886 6.8915 40.1731 7.01744C41.3739 8.29537 42.5171 9.51217 43.6604 10.729V10.7308ZM20.2183 15.9573C20.1651 16.3277 20.2858 16.5654 20.5802 16.6704C23.3771 17.676 26.174 18.6817 28.9708 19.6892C29.8264 19.9967 30.6801 20.3078 31.5338 20.619C31.8234 20.7245 32.1073 20.7764 32.4692 20.5134C28.3454 18.9799 24.3013 17.476 20.2202 15.9573H20.2183ZM31.0513 20.8727C31.0179 20.8208 31.0067 20.7857 30.9845 20.7727C30.9177 20.7375 30.8453 20.7097 30.7729 20.6838C27.2801 19.4762 23.7854 18.2687 20.2926 17.063C20.2814 17.0593 20.2629 17.0704 20.2499 17.0778C20.2369 17.0852 20.2257 17.0945 20.2146 17.1038C20.1497 17.502 20.1497 17.5038 20.5561 17.6409C22.4102 18.2687 24.2624 18.8947 26.1164 19.5207C27.4582 19.9745 28.8019 20.4282 30.1437 20.8838C30.4407 20.9838 30.7339 21.0727 31.0513 20.8708V20.8727ZM25.3202 29.8719C25.4019 29.3237 25.4835 28.7866 25.5726 28.192C24.8804 28.0735 24.2512 27.9679 23.5775 27.8531C23.4198 28.5439 23.2639 29.1829 23.2249 29.87H25.3202V29.8719ZM20.2387 18.0205C20.1478 18.3613 20.1497 18.3891 20.4503 18.4891C21.0349 18.6836 21.627 18.8595 22.2134 19.0466C24.4888 19.7707 26.766 20.4949 29.0413 21.2227C29.3104 21.3079 29.5721 21.3635 29.8338 21.1764C29.5517 20.9727 20.6452 18.0502 20.2387 18.0205ZM38.9315 28.3532C37.9516 28.5217 37.0533 28.6773 36.1068 28.8384C36.1718 29.2255 36.2237 29.544 36.2738 29.8441C36.9809 29.9385 38.8591 29.9126 39.2099 29.7996C39.1227 29.3459 39.0336 28.8866 38.9315 28.3513V28.3532ZM28.633 21.395C28.453 21.3265 28.3435 21.2765 28.2303 21.2413C27.3172 20.9616 26.4022 20.6856 25.4873 20.406C23.8967 19.917 22.3062 19.4225 20.7139 18.9354C20.5487 18.8854 20.3705 18.8743 20.2128 18.8465C20.1144 19.0762 20.2183 19.1688 20.3501 19.2299C20.4596 19.2818 20.5821 19.3133 20.7009 19.3485C22.0891 19.7615 23.4792 20.1708 24.8674 20.5875C25.8269 20.8764 26.7827 21.1783 27.7422 21.4654C28.0169 21.5469 28.3027 21.6672 28.633 21.395ZM10.3801 18.4132C10.3727 18.4632 10.3653 18.5132 10.3579 18.5632C10.5267 18.6187 10.6919 18.6873 10.8627 18.728C11.7479 18.9392 12.6351 19.1373 13.5185 19.3522C14.4631 19.5818 15.4059 19.8189 16.3469 20.0689C17.2544 20.3097 18.1564 20.5764 19.0621 20.8227C19.1957 20.8597 19.359 20.9468 19.5001 20.7745C19.4852 20.5523 19.2978 20.5504 19.14 20.5116C17.4493 20.0893 15.7586 19.6726 14.0715 19.2392C13.4312 19.0744 12.8039 18.8669 12.1674 18.6891C11.7516 18.5724 11.3341 18.4595 10.9109 18.378C10.742 18.3446 10.5564 18.4002 10.3783 18.415L10.3801 18.4132ZM19.4704 21.3857L19.5094 21.2098C19.3163 21.1431 19.1289 21.0579 18.9303 21.0116C17.8966 20.7671 16.8573 20.5486 15.8272 20.2912C14.0957 19.8578 12.3697 19.4003 10.64 18.9595C10.4989 18.9243 10.2762 18.7614 10.2168 19.0188C10.1667 19.2355 10.4043 19.2614 10.5676 19.2929C10.9443 19.367 11.3266 19.417 11.6997 19.5077C12.7334 19.7596 13.7616 20.0282 14.7916 20.2893C16.1799 20.6393 17.5681 20.9912 18.9582 21.3339C19.1233 21.3746 19.2978 21.3709 19.4685 21.3876L19.4704 21.3857ZM10.2242 19.5244C10.1704 19.8504 10.4098 19.8596 10.5861 19.8985C11.6236 20.13 12.6629 20.3486 13.7004 20.5782C14.4075 20.7356 15.1127 20.8986 15.8161 21.0672C16.9686 21.3413 18.1211 21.6246 19.2737 21.895C19.3405 21.9117 19.4258 21.8524 19.5019 21.8284C19.5186 21.7969 19.5353 21.7635 19.5502 21.7321C19.4945 21.7061 19.4407 21.6691 19.3813 21.6561C16.4044 20.9394 13.4275 20.2245 10.4506 19.5114C10.3838 19.4948 10.3059 19.5188 10.2224 19.5244H10.2242ZM26.5266 29.857H27.7608V27.7457C27.3246 27.8531 26.9664 28.055 26.6101 28.2569C26.5507 28.2902 26.4876 28.3735 26.4857 28.4347C26.4672 28.9032 26.4171 29.3755 26.5284 29.857H26.5266ZM11.3897 18.1298C11.5271 18.1854 11.6069 18.2298 11.6923 18.2483C12.2305 18.3706 12.7743 18.4706 13.3106 18.6058C14.0121 18.7836 14.7063 18.9892 15.4041 19.1818C15.8495 19.304 16.2968 19.417 16.7403 19.5466C17.5514 19.7818 18.3606 20.0263 19.1716 20.2615C19.3015 20.2986 19.4518 20.3319 19.5391 20.0874C19.437 20.0282 19.3331 19.9411 19.2143 19.9078C18.5035 19.7078 17.7871 19.5244 17.0744 19.3299C15.7103 18.9558 14.3462 18.5761 12.9821 18.2002C12.6703 18.115 12.3604 18.0242 12.0449 17.9557C11.8296 17.9094 11.6143 17.9242 11.3897 18.1317V18.1298ZM10.2131 20.0745C10.2205 20.4301 10.4711 20.4097 10.6455 20.4467C11.2617 20.5801 11.8871 20.6801 12.5033 20.8171C13.6465 21.0709 14.7842 21.3468 15.9275 21.6061C16.9798 21.8432 18.0339 22.0728 19.0881 22.2988C19.2087 22.3247 19.3516 22.371 19.4722 22.2414C19.4314 22.1877 19.411 22.1303 19.3776 22.1228C16.4081 21.4339 13.4368 20.7468 10.4655 20.0652C10.3968 20.0485 10.3189 20.0689 10.2131 20.0745ZM27.5399 21.658C27.0963 21.5228 26.7344 21.4098 26.3688 21.3042C24.4888 20.7597 22.6087 20.2152 20.7306 19.6726C20.5468 19.6189 20.3631 19.5114 20.1756 19.6485C20.1608 19.9078 20.3501 19.9411 20.5041 19.9856C22.6087 20.5856 24.7133 21.182 26.818 21.7802C27.0332 21.8413 27.2392 21.8673 27.5399 21.658ZM12.6165 17.5705C12.6165 17.6297 12.6128 17.689 12.6128 17.7501C12.9895 17.8538 13.3663 17.9631 13.7449 18.0631C14.8306 18.3502 15.9219 18.6224 17.002 18.9262C17.7258 19.1299 18.4348 19.3836 19.153 19.604C19.257 19.6355 19.3794 19.6077 19.5038 19.6077C19.5094 19.3281 19.3423 19.2707 19.153 19.2225C18.4385 19.041 17.7203 18.8762 17.0132 18.6669C16.0407 18.378 15.0774 18.052 14.1087 17.7483C13.8006 17.652 13.4906 17.5483 13.1751 17.4982C12.997 17.4705 12.8021 17.5446 12.6146 17.5723L12.6165 17.5705ZM34.7279 29.8626C34.739 29.6978 34.7408 29.5903 34.7557 29.4848C34.7984 29.1551 34.6889 28.9403 34.3567 28.8106C34.0003 28.6717 33.6681 28.4717 33.3211 28.3087C33.219 28.2606 33.1002 28.2476 32.9684 28.2124V29.8608H34.7279V29.8626ZM10.2075 20.6671C10.2242 20.7097 10.2354 20.7782 10.2595 20.7838C13.2048 21.4302 16.152 22.0728 19.0992 22.7118C19.2106 22.7359 19.3256 22.7322 19.4407 22.7433C19.4704 22.4858 19.3052 22.4951 19.1772 22.4692C17.8502 22.1969 16.5195 21.9395 15.1944 21.6524C13.6725 21.3228 12.1581 20.9672 10.64 20.6282C10.5045 20.5986 10.3467 20.5004 10.2094 20.6671H10.2075ZM13.7356 17.2149C13.9323 17.2964 14.0752 17.3742 14.2274 17.4168C14.5986 17.5168 14.9809 17.5834 15.3484 17.6946C16.5696 18.0668 17.7852 18.4558 19.0064 18.8317C19.1567 18.878 19.3201 18.8891 19.4778 18.9169C19.5725 18.5484 19.3349 18.4965 19.1326 18.4372C18.188 18.1576 17.2396 17.8927 16.2949 17.6075C15.7214 17.4334 15.1554 17.2316 14.5838 17.0482C14.3091 16.9612 14.0437 16.9852 13.7356 17.2149ZM20.1812 20.2782C20.1515 20.5541 20.3519 20.5708 20.506 20.6153C20.8902 20.7264 21.278 20.8245 21.6641 20.9283C22.9706 21.2839 24.2754 21.6395 25.5838 21.9932C25.8343 22.0617 26.0886 22.1136 26.3484 21.9728C26.0533 21.7395 20.6136 20.243 20.1831 20.2782H20.1812ZM19.4314 18.1743C19.5353 17.7446 19.5316 17.7205 19.1901 17.6112C18.4868 17.3853 17.7778 17.1797 17.0763 16.9519C16.6958 16.8278 16.3246 16.6778 15.9497 16.5389C15.6231 16.4185 15.3317 16.4629 15.0181 16.763C15.792 16.9889 16.5139 17.1853 17.2247 17.4131C17.9541 17.6464 18.6723 17.9113 19.4314 18.1743ZM20.1868 20.8653C20.1571 21.1542 20.3779 21.1598 20.5431 21.2024C21.6028 21.4783 22.6644 21.7469 23.726 22.0191C24.0545 22.1025 24.3793 22.2025 24.7115 22.2729C24.9045 22.3136 25.1216 22.3858 25.3277 22.1062C23.6369 21.6691 22 21.245 20.3631 20.8264C20.313 20.8134 20.2499 20.8505 20.1886 20.8671L20.1868 20.8653ZM19.3943 17.2797C19.4667 17.2075 19.4852 17.1982 19.4889 17.1853C19.5502 16.8185 19.5242 16.7648 19.1809 16.6445C18.5294 16.4129 17.878 16.1777 17.221 15.961C16.9222 15.8629 16.6717 15.9777 16.41 16.2314C16.9612 16.4 17.4604 16.537 17.9467 16.7093C18.4366 16.8815 18.9155 17.0889 19.3943 17.2797ZM20.1738 21.3968C20.1812 21.6876 20.3983 21.6969 20.5617 21.7376C21.5769 21.9913 22.5957 22.2377 23.6146 22.4784C23.8336 22.5303 24.0619 22.5692 24.2995 22.4525C24.0007 22.2395 21.6585 21.5802 20.4874 21.3765C20.3909 21.3598 20.287 21.3894 20.1756 21.3987L20.1738 21.3968ZM5.10562 20.5023C5.09634 20.5486 5.08706 20.5967 5.07778 20.643C6.4957 20.9449 7.91176 21.2487 9.33153 21.5469C9.37979 21.558 9.43918 21.5191 9.48929 21.5061C9.50413 21.3098 9.37608 21.2857 9.2573 21.2635C8.83415 21.1857 8.40914 21.1153 7.98785 21.0357C7.30859 20.9079 6.63118 20.7745 5.95377 20.6486C5.67167 20.5949 5.38957 20.5504 5.10747 20.5023H5.10562ZM23.314 22.5488C22.3285 22.321 21.343 22.0932 20.3557 21.8728C20.3 21.8598 20.2295 21.9228 20.0624 21.9932C20.2666 22.0895 20.3761 22.1636 20.4986 22.1932C21.2465 22.3747 21.9963 22.5451 22.7461 22.7211C22.9428 22.7674 23.1358 22.797 23.314 22.5488ZM5.7589 20.343C6.41961 20.4745 7.02649 20.6171 7.6408 20.7097C8.26067 20.8023 8.83415 21.1598 9.51156 21.0764C9.47815 20.8227 9.31297 20.8208 9.1645 20.7949C8.51308 20.6856 7.85979 20.5838 7.21022 20.4615C6.87802 20.3986 6.55509 20.293 6.22659 20.2152C6.08368 20.1819 5.92779 20.1393 5.7589 20.3449V20.343ZM26.2296 29.8663C26.2296 29.3811 26.2389 28.9551 26.2222 28.5291C26.2185 28.4476 26.1294 28.3458 26.0515 28.3013C26.0125 28.2809 25.8603 28.3587 25.8455 28.4143C25.7285 28.8829 25.6432 29.357 25.6265 29.8645H26.2278L26.2296 29.8663ZM19.4407 16.2314C19.5613 15.7277 19.5131 15.6499 19.1178 15.5647C18.986 15.5369 18.8561 15.4943 18.7354 15.4388C18.4348 15.2999 18.1657 15.3739 17.9467 15.661C18.4311 15.8462 18.9192 16.0333 19.4407 16.2333V16.2314ZM49.3673 16.6148C49.5677 15.8907 49.4749 15.4073 49.1168 15.2276C48.7771 15.9944 48.8217 16.2703 49.3673 16.6148ZM6.64417 19.8985C6.64046 19.9467 6.6386 19.9948 6.63489 20.043C6.80935 20.0782 6.9838 20.1097 7.15826 20.1467C7.60925 20.2449 8.06023 20.3412 8.50936 20.4449C8.74878 20.5004 8.98448 20.5764 9.22575 20.6227C9.31483 20.6393 9.41505 20.5949 9.53383 20.5727C9.3204 20.3245 9.30555 20.3263 8.88611 20.2467C8.31264 20.1374 7.74287 20.0059 7.16939 19.9022C7.00051 19.8707 6.81863 19.8967 6.64417 19.8967V19.8985ZM20.2053 22.3858C20.428 22.6396 20.7881 22.7637 21.8385 22.9266C22.0056 22.9526 22.1967 23.0155 22.3452 22.8359C21.9258 22.6062 20.4986 22.3099 20.2053 22.3858ZM35.1658 29.0218V29.8608H35.7931C35.743 29.5533 35.6966 29.2829 35.6484 28.9847C35.4647 28.9995 35.3366 29.0107 35.1677 29.0236L35.1658 29.0218ZM9.54125 20.0615C9.48372 19.8355 9.33339 19.817 9.18492 19.7874C8.75063 19.7003 8.32006 19.6059 7.88578 19.5207C7.73916 19.4929 7.57955 19.4633 7.50346 19.6578C8.09735 19.88 9.20533 20.1078 9.54311 20.0615H9.54125ZM21.3913 23.0859C21.3968 23.0452 21.4024 23.0044 21.4061 22.9637C21.0145 22.8748 20.6229 22.7859 20.1961 22.6896C20.2146 22.9322 20.2295 23.1174 20.2406 23.2804C20.5357 23.4193 20.4355 23.1137 20.5542 23.0581C20.8308 23.0933 21.111 23.2248 21.3894 23.0859H21.3913ZM8.34048 19.3151C8.70423 19.4096 9.02345 19.4966 9.34824 19.567C9.39278 19.5763 9.47444 19.504 9.50599 19.4522C9.52084 19.4244 9.46887 19.3151 9.43546 19.3096C9.12738 19.2559 8.81559 19.2133 8.5038 19.1799C8.46668 19.1762 8.42028 19.2466 8.34048 19.3151ZM4.35397 21.7358C4.3614 21.6895 4.36696 21.6413 4.37439 21.595C4.02176 21.5469 3.66914 21.5006 3.31466 21.4524C3.31281 21.4746 3.31095 21.4968 3.30909 21.5209C3.65801 21.5932 4.00506 21.6654 4.35397 21.7376V21.7358ZM6.32681 21.5839C6.32867 21.6228 6.33052 21.6635 6.33238 21.7024H6.82234C6.82419 21.6821 6.82605 21.6635 6.82791 21.6432C6.66087 21.6228 6.49384 21.6043 6.32681 21.5839ZM5.32462 21.8413C5.32833 21.8654 5.33204 21.8876 5.33575 21.9117C5.48979 21.8876 5.64383 21.8636 5.79973 21.8395L5.78674 21.7635C5.6327 21.7895 5.47866 21.8154 5.32462 21.8395V21.8413ZM3.39818 21.9099C3.39447 21.8821 3.3889 21.8561 3.38519 21.8284C3.32209 21.8432 3.25898 21.8598 3.19588 21.8747C3.2627 21.8858 3.32951 21.8987 3.39818 21.9099ZM5.22625 22.5118C5.22625 22.5118 5.22625 22.5303 5.22625 22.5377H5.43226C5.43226 22.5377 5.43226 22.5192 5.43226 22.5118H5.22625ZM2.93977 22.1303C2.93791 22.1432 2.93606 22.1543 2.9342 22.1673H3.11608C3.11608 22.158 3.11608 22.1488 3.11608 22.1395C3.05855 22.1358 2.99916 22.134 2.94162 22.1303H2.93977Z" fill="#FDCD06"/>
</g>
<defs>
<clipPath id="clip0_12_3">
<rect width="55" height="33" fill="white" transform="translate(0 1)"/>
</clipPath>
</defs>
</svg>
