<svg width="204" height="46" viewBox="0 0 204 46" fill="none" xmlns="http://www.w3.org/2000/svg">
<path d="M91.64 7.936C91.64 9.052 91.208 9.904 90.344 10.492C89.732 10.9 89.054 11.134 88.31 11.194C88.202 11.194 88.046 11.2 87.842 11.212C87.638 11.212 87.41 11.218 87.158 11.23C86.918 11.23 86.678 11.23 86.438 11.23C86.198 11.23 85.988 11.23 85.808 11.23C85.808 11.398 85.802 11.536 85.79 11.644C85.79 11.74 85.79 11.872 85.79 12.04C85.79 12.208 85.784 12.454 85.772 12.778C85.772 13.09 85.772 13.54 85.772 14.128C85.784 14.536 85.802 14.896 85.826 15.208C85.862 15.508 85.91 15.772 85.97 16H84.386C84.446 15.772 84.488 15.478 84.512 15.118C84.548 14.746 84.572 14.29 84.584 13.75V10.438V7.126C84.572 6.562 84.548 6.088 84.512 5.704C84.488 5.32 84.446 5.014 84.386 4.786H88.328C89.012 4.786 89.672 4.984 90.308 5.38C91.196 5.956 91.64 6.808 91.64 7.936ZM90.38 7.936C90.38 7.324 90.212 6.85 89.876 6.514C89.636 6.262 89.324 6.082 88.94 5.974C88.832 5.95 88.724 5.932 88.616 5.92C88.508 5.908 88.406 5.89 88.31 5.866C87.962 5.818 87.134 5.8 85.826 5.812L85.808 10.15C86.528 10.162 87.092 10.168 87.5 10.168C87.92 10.156 88.19 10.138 88.31 10.114C89.702 9.91 90.392 9.184 90.38 7.936ZM100.923 16.09C100.155 16.054 99.4654 16.024 98.8534 16C98.2414 15.988 97.6954 15.988 97.2154 16C96.8434 16.012 96.3514 16.024 95.7394 16.036C95.1394 16.06 94.4194 16.084 93.5794 16.108C93.6994 15.712 93.7594 13.732 93.7594 10.168C93.7594 6.94 93.6994 5.128 93.5794 4.732C94.3834 4.78 95.4394 4.816 96.7474 4.84C97.2274 4.852 97.7734 4.852 98.3854 4.84C99.0094 4.816 99.7054 4.786 100.473 4.75C100.413 5.17 100.413 5.746 100.473 6.478H99.5734C99.5494 6.286 99.5374 6.19 99.5374 6.19C99.5374 6.154 99.5014 6.1 99.4294 6.028C99.3814 5.944 98.9974 5.902 98.2774 5.902H94.9474C94.9234 7.018 94.9234 8.236 94.9474 9.556C97.5514 9.556 99.0514 9.472 99.4474 9.304V10.852C98.8834 10.672 97.3834 10.6 94.9474 10.636C94.9354 11.968 94.9354 13.396 94.9474 14.92H98.7454C99.3934 14.92 99.7714 14.848 99.8794 14.704C99.9514 14.596 100.005 14.41 100.041 14.146H100.923C100.863 15.034 100.863 15.682 100.923 16.09ZM110.686 16H109.102C109.114 15.952 109.12 15.91 109.12 15.874C109.132 15.826 109.138 15.772 109.138 15.712C109.138 14.944 108.904 14.08 108.436 13.12C107.896 11.968 107.218 11.266 106.402 11.014C106.09 10.918 105.664 10.864 105.124 10.852C105.004 10.864 104.884 10.87 104.764 10.87C104.656 10.87 104.542 10.876 104.422 10.888V13.948C104.434 14.404 104.452 14.806 104.476 15.154C104.512 15.49 104.56 15.772 104.62 16H103.036C103.096 15.772 103.138 15.478 103.162 15.118C103.198 14.746 103.222 14.29 103.234 13.75V10.438V7.126C103.222 6.562 103.198 6.088 103.162 5.704C103.138 5.32 103.096 5.014 103.036 4.786H106.978C107.422 4.786 107.842 4.84 108.238 4.948C108.646 5.056 109 5.23 109.3 5.47C109.612 5.698 109.852 6.004 110.02 6.388C110.2 6.76 110.29 7.216 110.29 7.756C110.29 9.364 109.396 10.36 107.608 10.744C109.072 11.236 110.098 12.988 110.686 16ZM109.03 7.756C109.03 7.42 108.976 7.138 108.868 6.91C108.772 6.67 108.634 6.478 108.454 6.334C108.274 6.19 108.052 6.082 107.788 6.01C107.536 5.938 107.26 5.89 106.96 5.866C106.612 5.818 105.784 5.8 104.476 5.812L104.458 9.79C105.178 9.802 105.742 9.808 106.15 9.808C106.57 9.796 106.84 9.778 106.96 9.754C107.632 9.658 108.142 9.466 108.49 9.178C108.838 8.89 109.018 8.416 109.03 7.756ZM120.389 15.712C119.981 15.688 119.417 15.784 118.697 16C118.313 16.108 117.815 16.162 117.203 16.162C115.667 16.162 114.431 15.58 113.495 14.416C112.607 13.324 112.163 12.004 112.163 10.456C112.163 8.824 112.601 7.462 113.477 6.37C114.413 5.182 115.679 4.588 117.275 4.588C117.803 4.588 118.313 4.642 118.805 4.75C118.913 4.762 119.105 4.816 119.381 4.912C119.561 4.972 119.687 4.99 119.759 4.966C119.783 5.506 119.837 6.07 119.921 6.658H119.075C118.991 6.238 118.787 5.944 118.463 5.776C118.223 5.668 117.863 5.614 117.383 5.614C116.135 5.614 115.145 6.136 114.413 7.18C113.753 8.128 113.423 9.244 113.423 10.528C113.423 11.716 113.777 12.766 114.485 13.678C115.265 14.638 116.231 15.118 117.383 15.118C117.887 15.118 118.265 15.07 118.517 14.974C118.901 14.83 119.087 14.536 119.075 14.092L119.057 11.914H118.787C118.391 11.914 118.151 11.932 118.067 11.968C117.875 12.016 117.767 12.184 117.743 12.472H116.861C116.909 11.776 116.909 11.218 116.861 10.798C117.521 10.81 118.127 10.822 118.679 10.834C119.243 10.834 119.765 10.828 120.245 10.816C120.245 12.388 120.245 13.378 120.245 13.786C120.245 14.194 120.239 14.02 120.227 13.264C120.251 14.236 120.305 15.052 120.389 15.712ZM132.437 10.528C132.437 12.076 131.957 13.396 130.997 14.488C129.989 15.616 128.723 16.18 127.199 16.18C125.615 16.18 124.337 15.616 123.365 14.488C122.429 13.432 121.961 12.112 121.961 10.528C121.961 8.848 122.399 7.462 123.275 6.37C124.223 5.182 125.531 4.588 127.199 4.588C128.879 4.588 130.199 5.182 131.159 6.37C132.011 7.462 132.437 8.848 132.437 10.528ZM131.141 10.528C131.141 9.112 130.823 7.978 130.187 7.126C129.491 6.214 128.489 5.758 127.181 5.758C125.957 5.758 124.979 6.262 124.247 7.27C123.575 8.182 123.239 9.274 123.239 10.546C123.239 11.746 123.593 12.772 124.301 13.624C125.057 14.548 126.023 15.01 127.199 15.01C128.399 15.01 129.365 14.554 130.097 13.642C130.793 12.802 131.141 11.764 131.141 10.528ZM142.144 16.09C141.376 16.054 140.686 16.024 140.074 16C139.462 15.988 138.916 15.988 138.436 16C138.064 16.012 137.572 16.024 136.96 16.036C136.36 16.06 135.64 16.084 134.8 16.108C134.92 15.712 134.98 13.726 134.98 10.15C134.98 8.47 134.98 7.372 134.98 6.856C134.98 6.328 134.986 6.37 134.998 6.982C134.986 6.478 134.962 6.046 134.926 5.686C134.902 5.326 134.86 5.032 134.8 4.804H136.384C136.324 5.032 136.276 5.344 136.24 5.74C136.216 6.124 136.198 6.604 136.186 7.18V10.402L136.168 14.974H139.966C140.614 14.974 140.992 14.902 141.1 14.758C141.172 14.65 141.226 14.464 141.262 14.2H142.144C142.108 15.064 142.108 15.694 142.144 16.09ZM153.525 16H151.887C151.803 15.616 151.389 14.386 150.645 12.31H146.127C145.359 14.266 144.921 15.496 144.813 16H143.373C143.961 14.836 145.455 11.038 147.855 4.606H149.133C149.505 5.626 149.853 6.58 150.177 7.468C150.513 8.344 150.825 9.16 151.113 9.916C152.457 13.528 153.261 15.556 153.525 16ZM150.267 11.212C149.931 10.264 149.613 9.34 149.313 8.44C149.025 7.54 148.749 6.658 148.485 5.794C148.317 6.31 148.071 7.018 147.747 7.918C147.423 8.806 147.009 9.904 146.505 11.212H150.267ZM91.622 35.092C91.574 35.5 91.538 35.842 91.514 36.118C91.502 36.394 91.496 36.61 91.496 36.766C91.424 36.754 91.112 36.814 90.56 36.946C89.984 37.102 89.408 37.18 88.832 37.18C87.332 37.18 86.108 36.586 85.16 35.398C84.248 34.294 83.792 32.98 83.792 31.456C83.792 29.8 84.224 28.432 85.088 27.352C86.024 26.176 87.29 25.588 88.886 25.588C89.378 25.588 89.9 25.654 90.452 25.786C90.992 25.906 91.304 25.96 91.388 25.948C91.388 26.104 91.4 26.326 91.424 26.614C91.448 26.89 91.484 27.238 91.532 27.658H90.686C90.662 27.49 90.59 27.28 90.47 27.028C90.17 26.764 89.624 26.638 88.832 26.65C87.644 26.686 86.696 27.19 85.988 28.162C85.352 29.074 85.034 30.178 85.034 31.474C85.034 32.686 85.388 33.748 86.096 34.66C86.864 35.632 87.836 36.118 89.012 36.118C89.732 36.118 90.224 35.986 90.488 35.722C90.608 35.602 90.704 35.392 90.776 35.092H91.622ZM104.172 31.528C104.172 33.076 103.692 34.396 102.732 35.488C101.724 36.616 100.458 37.18 98.9337 37.18C97.3497 37.18 96.0717 36.616 95.0997 35.488C94.1637 34.432 93.6957 33.112 93.6957 31.528C93.6957 29.848 94.1337 28.462 95.0097 27.37C95.9577 26.182 97.2657 25.588 98.9337 25.588C100.614 25.588 101.934 26.182 102.894 27.37C103.746 28.462 104.172 29.848 104.172 31.528ZM102.876 31.528C102.876 30.112 102.558 28.978 101.922 28.126C101.226 27.214 100.224 26.758 98.9157 26.758C97.6917 26.758 96.7137 27.262 95.9817 28.27C95.3097 29.182 94.9737 30.274 94.9737 31.546C94.9737 32.746 95.3277 33.772 96.0357 34.624C96.7917 35.548 97.7577 36.01 98.9337 36.01C100.134 36.01 101.1 35.554 101.832 34.642C102.528 33.802 102.876 32.764 102.876 31.528ZM115.552 25.786C115.492 26.014 115.444 26.32 115.408 26.704C115.384 27.076 115.366 27.538 115.354 28.09C115.366 27.766 115.372 27.88 115.372 28.432C115.372 28.984 115.372 29.98 115.372 31.42V37H114.328C113.776 36.208 113.254 35.458 112.762 34.75C112.27 34.042 111.814 33.376 111.394 32.752C110.374 31.252 109.558 30.046 108.946 29.134C108.346 28.222 107.944 27.586 107.74 27.226V31.42V34.678C107.752 35.23 107.77 35.698 107.794 36.082C107.83 36.466 107.878 36.772 107.938 37H106.444C106.504 36.772 106.546 36.472 106.57 36.1C106.606 35.716 106.63 35.248 106.642 34.696V31.384C106.642 30.472 106.642 29.734 106.642 29.17C106.642 28.606 106.636 28.216 106.624 28C106.564 26.848 106.45 26.11 106.282 25.786C107.422 25.798 107.986 25.798 107.974 25.786C108.502 26.506 109 27.202 109.468 27.874C109.948 28.534 110.404 29.176 110.836 29.8C111.82 31.228 112.588 32.392 113.14 33.292C113.704 34.18 114.064 34.81 114.22 35.182V31.402C114.22 30.07 114.22 29.134 114.22 28.594C114.22 28.042 114.226 27.874 114.238 28.09C114.226 27.01 114.154 26.242 114.022 25.786H115.552ZM125.07 34.174C125.022 35.338 124.428 36.172 123.288 36.676C122.436 37.072 121.362 37.24 120.066 37.18C119.574 37.168 118.908 37.006 118.068 36.694C117.684 36.562 117.414 36.52 117.258 36.568C117.258 36.244 117.276 35.638 117.312 34.75H117.996C118.032 34.954 118.2 35.164 118.5 35.38C119.184 35.884 119.946 36.136 120.786 36.136C121.59 36.136 122.286 35.968 122.874 35.632C123.594 35.224 123.906 34.642 123.81 33.886C123.762 33.418 123.534 33.04 123.126 32.752C122.838 32.524 122.388 32.32 121.776 32.14C121.512 32.068 121.248 31.996 120.984 31.924C120.72 31.852 120.456 31.78 120.192 31.708C119.304 31.432 118.644 31.144 118.212 30.844C117.54 30.316 117.204 29.632 117.204 28.792C117.204 27.724 117.612 26.902 118.428 26.326C119.148 25.81 120.078 25.564 121.218 25.588C121.53 25.588 122.136 25.702 123.036 25.93C123.624 26.062 123.948 26.122 124.008 26.11C124.008 26.278 124.008 26.512 124.008 26.812C124.008 27.1 124.014 27.466 124.026 27.91H123.342C123.27 27.526 123.174 27.292 123.054 27.208C122.502 26.836 121.824 26.65 121.02 26.65C119.208 26.65 118.332 27.406 118.392 28.918C118.428 29.818 119.37 30.448 121.218 30.808C123.87 31.336 125.154 32.458 125.07 34.174ZM136.552 27.622H135.652C135.64 27.322 135.592 27.1 135.508 26.956C135.364 26.812 134.986 26.74 134.374 26.74H132.07V31.582C132.07 32.962 132.07 33.922 132.07 34.462C132.07 35.002 132.064 35.116 132.052 34.804C132.064 35.32 132.082 35.764 132.106 36.136C132.142 36.496 132.19 36.784 132.25 37H130.684C130.816 36.544 130.888 35.812 130.9 34.804V31.582V26.722H128.632C128.032 26.722 127.66 26.794 127.516 26.938C127.432 27.082 127.384 27.304 127.372 27.604H126.454C126.514 26.848 126.514 26.242 126.454 25.786H136.552C136.516 26.182 136.516 26.794 136.552 27.622ZM146.229 37H144.645C144.657 36.952 144.663 36.91 144.663 36.874C144.675 36.826 144.681 36.772 144.681 36.712C144.681 35.944 144.447 35.08 143.979 34.12C143.439 32.968 142.761 32.266 141.945 32.014C141.633 31.918 141.207 31.864 140.667 31.852C140.547 31.864 140.427 31.87 140.307 31.87C140.199 31.87 140.085 31.876 139.965 31.888V34.948C139.977 35.404 139.995 35.806 140.019 36.154C140.055 36.49 140.103 36.772 140.163 37H138.579C138.639 36.772 138.681 36.478 138.705 36.118C138.741 35.746 138.765 35.29 138.777 34.75V31.438V28.126C138.765 27.562 138.741 27.088 138.705 26.704C138.681 26.32 138.639 26.014 138.579 25.786H142.521C142.965 25.786 143.385 25.84 143.781 25.948C144.189 26.056 144.543 26.23 144.843 26.47C145.155 26.698 145.395 27.004 145.563 27.388C145.743 27.76 145.833 28.216 145.833 28.756C145.833 30.364 144.939 31.36 143.151 31.744C144.615 32.236 145.641 33.988 146.229 37ZM144.573 28.756C144.573 28.42 144.519 28.138 144.411 27.91C144.315 27.67 144.177 27.478 143.997 27.334C143.817 27.19 143.595 27.082 143.331 27.01C143.079 26.938 142.803 26.89 142.503 26.866C142.155 26.818 141.327 26.8 140.019 26.812L140.001 30.79C140.721 30.802 141.285 30.808 141.693 30.808C142.113 30.796 142.383 30.778 142.503 30.754C143.175 30.658 143.685 30.466 144.033 30.178C144.381 29.89 144.561 29.416 144.573 28.756ZM157.444 25.822C157.312 26.314 157.246 27.67 157.246 29.89C157.246 30.01 157.246 30.16 157.246 30.34C157.246 30.508 157.252 30.706 157.264 30.934C157.276 31.162 157.282 31.36 157.282 31.528C157.282 31.696 157.282 31.834 157.282 31.942C157.282 33.49 156.934 34.708 156.238 35.596C155.386 36.676 154.198 37.216 152.674 37.216C151.138 37.216 149.95 36.694 149.11 35.65C148.438 34.798 148.102 33.676 148.102 32.284C148.102 32.344 148.102 32.158 148.102 31.726C148.114 31.294 148.126 30.616 148.138 29.692C148.15 29.188 148.15 28.72 148.138 28.288C148.138 27.856 148.126 27.46 148.102 27.1C148.066 26.512 148.006 26.086 147.922 25.822H149.578C149.482 26.23 149.416 27.148 149.38 28.576C149.368 29.308 149.356 29.998 149.344 30.646C149.344 31.294 149.344 31.906 149.344 32.482C149.344 34.834 150.466 36.01 152.71 36.01C153.754 36.01 154.564 35.698 155.14 35.074C155.776 34.366 156.094 33.202 156.094 31.582C156.094 30.262 156.076 29.068 156.04 28C156.028 27.46 156.004 27.01 155.968 26.65C155.944 26.29 155.908 26.014 155.86 25.822H157.444ZM166.962 35.092C166.914 35.5 166.878 35.842 166.854 36.118C166.842 36.394 166.836 36.61 166.836 36.766C166.764 36.754 166.452 36.814 165.9 36.946C165.324 37.102 164.748 37.18 164.172 37.18C162.672 37.18 161.448 36.586 160.5 35.398C159.588 34.294 159.132 32.98 159.132 31.456C159.132 29.8 159.564 28.432 160.428 27.352C161.364 26.176 162.63 25.588 164.226 25.588C164.718 25.588 165.24 25.654 165.792 25.786C166.332 25.906 166.644 25.96 166.728 25.948C166.728 26.104 166.74 26.326 166.764 26.614C166.788 26.89 166.824 27.238 166.872 27.658H166.026C166.002 27.49 165.93 27.28 165.81 27.028C165.51 26.764 164.964 26.638 164.172 26.65C162.984 26.686 162.036 27.19 161.328 28.162C160.692 29.074 160.374 30.178 160.374 31.474C160.374 32.686 160.728 33.748 161.436 34.66C162.204 35.632 163.176 36.118 164.352 36.118C165.072 36.118 165.564 35.986 165.828 35.722C165.948 35.602 166.044 35.392 166.116 35.092H166.962ZM178.81 27.622H177.91C177.898 27.322 177.85 27.1 177.766 26.956C177.622 26.812 177.244 26.74 176.632 26.74H174.328V31.582C174.328 32.962 174.328 33.922 174.328 34.462C174.328 35.002 174.322 35.116 174.31 34.804C174.322 35.32 174.34 35.764 174.364 36.136C174.4 36.496 174.448 36.784 174.508 37H172.942C173.074 36.544 173.146 35.812 173.158 34.804V31.582V26.722H170.89C170.29 26.722 169.918 26.794 169.774 26.938C169.69 27.082 169.642 27.304 169.63 27.604H168.712C168.772 26.848 168.772 26.242 168.712 25.786H178.81C178.774 26.182 178.774 26.794 178.81 27.622Z" fill="white"/>
<g clip-path="url(#clip0_15_10)">
<path d="M0.0708622 37.779C0.0519656 37.5409 0.0236207 37.3335 0.0236207 37.1237C0.0165345 33.4064 0.0165345 29.6892 0 25.9719C0 25.5688 0.108655 25.352 0.51257 25.1846C10.5986 21.0171 20.6776 16.8308 30.7565 12.6492C39.6025 8.97674 48.4485 5.30427 57.2944 1.63181C57.7999 1.42202 58.3054 1.2193 58.8439 1.00244C58.9597 1.19337 59.0636 1.35602 59.1557 1.52338C62.5382 7.64022 65.9018 13.7665 69.315 19.8645C69.8039 20.739 70.0047 21.5923 69.9976 22.5823C69.9622 27.4546 69.9811 32.3268 69.9835 37.1991V37.7412C69.4237 37.8355 68.904 37.9086 68.3914 38.0123C64.8294 38.7218 61.2698 39.4384 57.7101 40.1479C53.7442 40.9376 49.7783 41.7201 45.8124 42.5074C45.0612 42.6559 44.3148 42.8398 43.559 42.9482C43.0984 43.0142 42.6141 43.0166 42.1512 42.9624C38.8561 42.5617 35.5634 42.1374 32.2706 41.7272C29.9511 41.4373 27.6315 41.1615 25.312 40.8716C22.6239 40.5345 19.9359 40.1856 17.2455 39.8486C13.6599 39.4007 10.0742 38.9599 6.48625 38.512C4.80918 38.3046 3.13447 38.0877 1.4574 37.885C1.02986 37.8332 0.597604 37.819 0.0685001 37.7813L0.0708622 37.779ZM6.72009 27.101C6.92559 27.1128 7.13346 27.1222 7.33896 27.134C7.33896 27.1034 7.33896 27.0727 7.3366 27.0421C7.12637 27.0633 6.91851 27.0845 6.70828 27.1057C6.30673 26.7804 5.41151 26.5871 4.6958 26.7121C5.00051 26.804 5.31466 26.8629 5.62882 26.9171C5.99021 26.9808 6.35397 27.0421 6.72009 27.101ZM16.7258 28.1028C16.3739 28.1028 16.0125 28.1476 15.67 28.091C14.9921 27.9826 14.326 27.8129 13.6504 27.6785C13.452 27.6384 13.2418 27.5229 13.0174 27.7139C13.2371 28.1617 13.7166 27.8435 14.0614 28.0721C13.6811 28.0934 13.3646 28.1099 13.0481 28.1264C13.0386 28.1688 13.0316 28.2112 13.0221 28.256C13.1001 28.3102 13.1827 28.4163 13.2536 28.4069C13.4851 28.3786 13.7142 28.322 13.9386 28.256C14.3638 28.1311 14.7889 28.0745 15.2283 28.2065C15.1291 28.2749 15.0228 28.3102 14.9165 28.3267C14.3921 28.4069 13.8677 28.4776 13.3433 28.5624C13.0221 28.6143 13.0127 28.6497 13.1615 29.0386C13.0127 29.4959 13.0386 29.5524 13.4544 29.6491C13.5488 29.6703 13.6481 29.6797 13.7449 29.6939C15.2141 29.9343 16.6928 30.1417 18.1525 30.427C19.0785 30.6085 19.9666 30.6108 20.8713 30.328C21.9059 30.005 23.0019 29.9155 24.0341 29.5713C24.1545 29.5312 24.3057 29.5878 24.4427 29.5854C24.5254 29.5854 24.6104 29.5619 24.8183 29.5265C24.49 29.2696 24.2349 29.2649 23.9679 29.3262C22.8223 29.5972 21.6767 29.8707 20.5311 30.1417L20.5406 30.1488C20.661 30.0616 20.7721 29.9296 20.9067 29.8966C22.1373 29.5854 23.3444 29.1588 24.6317 29.1164C24.6529 29.1164 24.6742 29.0622 24.6955 29.0315C24.6955 29.0127 24.6978 28.9914 24.6907 28.9773C24.6695 28.9467 24.6459 28.9019 24.6175 28.8948C20.8784 28.1075 17.1392 27.3226 13.4 26.54C13.3056 26.5211 13.2087 26.5211 13.1119 26.5164C13.0953 26.5164 13.0788 26.5329 13.0646 26.5447C13.0504 26.5565 13.041 26.573 13.0032 26.6201C13.0552 26.9407 13.3528 26.9148 13.5796 26.9572C14.7913 27.1929 16.0101 27.4027 17.2195 27.6455C18.5517 27.9119 19.8768 28.2041 21.2043 28.4847C21.1972 28.5224 21.1925 28.5601 21.1854 28.5978C20.9043 28.553 20.6209 28.5012 20.3374 28.4658C19.9524 28.4163 19.565 28.3786 19.18 28.3361C19.0336 28.2866 18.8895 28.2183 18.7407 28.1876C16.9313 27.8199 15.122 27.4569 13.3126 27.0963C13.2252 27.0798 13.1331 27.0845 13.0221 27.0774C12.9796 27.4121 13.2063 27.4121 13.3835 27.4428C13.9622 27.5441 14.548 27.6243 15.1243 27.7374C15.6605 27.8411 16.1896 27.9755 16.7211 28.0957L16.7258 28.1028ZM11.5458 27.6384C11.2317 27.6243 10.8868 27.6926 10.6128 27.5819C10.0199 27.3461 9.46246 27.4334 8.88611 27.5819C8.73494 27.6219 8.57668 27.6314 8.42079 27.6596C7.84208 27.7657 7.26573 27.8718 6.68939 27.9779C7.80192 28.0179 8.86722 27.6314 9.9892 27.7846C9.24987 27.9401 8.50818 28.0957 7.76885 28.2513C8.17513 28.3032 8.56487 28.2772 8.95461 28.2277C9.36325 28.1782 9.76717 28.1051 10.1758 28.0462C10.5419 27.9944 10.9104 27.9449 11.2765 27.8954C11.2813 27.9307 11.286 27.9661 11.2883 28.0014C10.1545 28.2159 9.01839 28.4281 7.90349 28.6379C9.2546 28.9207 10.6152 29.2696 12.0418 29.4087V28.8288C11.7135 28.8807 11.4301 28.9254 11.1466 28.9702C11.312 28.8594 11.4938 28.8288 11.6734 28.7793C11.8576 28.7274 12.1316 28.7487 12.0513 28.3503C11.1632 28.5012 10.2892 28.6497 9.41522 28.7982L9.39396 28.6827C9.52151 28.6544 9.64906 28.6214 9.77662 28.5978C10.4522 28.4752 11.1277 28.355 11.8033 28.2324C11.9639 28.2041 12.1198 28.1664 12.0749 27.9425C11.8907 27.8364 11.7112 27.7304 11.5293 27.6243C11.7253 27.6384 11.9403 27.7492 12.1363 27.4829C11.9875 27.4098 11.8789 27.3273 11.7584 27.3037C11.045 27.1717 10.3293 27.0562 9.61599 26.9289C8.63337 26.7545 7.65075 26.573 6.67049 26.3938C6.38232 26.342 6.09415 26.2783 5.80361 26.2383C5.71621 26.2265 5.61937 26.276 5.52489 26.2996C5.9288 26.4834 6.32563 26.5801 6.72482 26.6578C8.28142 26.9596 9.83803 27.2566 11.3923 27.5583C11.4466 27.5701 11.4962 27.6101 11.5482 27.6384H11.5458ZM39.2411 37.7554C39.9757 37.7625 40.6347 37.7884 41.3528 37.7365C41.3977 36.4566 41.3433 35.2332 41.3835 33.9674C41.6575 33.9674 41.8512 33.9674 42.0449 33.9674C42.9897 33.9674 43.9322 33.9721 44.877 33.9674C45.4037 33.9651 45.425 33.9368 45.5124 33.4158C45.7911 31.7776 46.0769 30.1394 46.3438 28.5012C46.3911 28.2041 46.5163 28.0651 46.8139 28.0014C48.217 27.7091 49.6153 27.3956 51.0184 27.0963C51.1223 27.0751 51.2357 27.1033 51.3656 27.1104C51.3514 27.2872 51.3538 27.4239 51.3302 27.5559C50.9215 29.906 50.5035 32.2538 50.1066 34.6062C50.0547 34.9103 50.0594 35.2332 50.1019 35.5397C50.1799 36.1195 50.3003 36.6947 50.409 37.2722C50.4987 37.7577 50.5035 37.7625 51.0208 37.7648C52.3978 37.7695 53.7726 37.7672 55.1497 37.7648C55.3174 37.7648 55.4874 37.7342 55.6811 37.7177C55.7 37.4985 55.7284 37.3264 55.7284 37.1543C55.7284 33.1023 55.7284 29.0527 55.7284 25.0008C55.7284 24.8358 55.6858 24.6708 55.6551 24.4492C45.6281 26.4528 35.6626 28.4281 25.73 30.4175C25.5907 31.3321 25.6356 37.2675 25.7891 37.7601C26.8237 37.7601 27.8819 37.7648 28.9377 37.7577C29.1669 37.7577 29.207 37.5715 29.2401 37.39C29.3558 36.7347 29.455 36.0771 29.5991 35.4289C29.7172 34.8985 29.6723 34.3823 29.5708 33.8614C29.507 33.5361 29.4409 33.2084 29.3889 32.8808C29.3204 32.4612 29.2637 32.0416 29.1952 31.5749C30.2841 31.3934 31.2951 31.0964 32.3769 31.0398C32.5541 32.0157 32.7194 32.9303 32.8989 33.9179H35.6815C35.6815 34.6251 35.6744 35.2497 35.6815 35.872C35.6909 36.4872 35.6389 37.1095 35.7311 37.7295H38.4593C38.464 36.3977 38.49 35.1036 38.4404 33.7765C38.1073 33.7529 37.8546 33.7458 37.6042 33.7152C36.6121 33.595 35.6153 33.4842 34.628 33.331C34.2973 33.2791 33.9335 33.1966 33.7044 32.7959C33.9312 32.6757 34.1225 32.5272 34.3374 32.473C34.8878 32.3316 35.4452 32.1595 36.0051 32.1312C37.6136 32.0558 39.2246 32.0039 40.8355 32.0298C41.674 32.044 42.5126 32.2208 43.3417 32.3693C43.67 32.4282 44.0408 32.4989 44.2298 32.8713C44.0007 33.2108 43.6322 33.2579 43.3015 33.3428C42.3071 33.5997 41.2937 33.7081 40.2662 33.7223C39.9379 33.727 39.6096 33.7576 39.2458 33.7789V37.7554H39.2411ZM12.1009 30.3303C11.8789 30.2714 11.6946 30.2101 11.5033 30.1747C9.63017 29.8353 7.75468 29.5194 5.88628 29.1588C4.99814 28.9867 5.04302 29.1282 4.87295 29.84C4.65328 30.7711 4.4218 31.7022 4.2352 32.6403C4.03678 33.6351 3.85963 34.6345 3.72971 35.641C3.67302 36.0747 3.62342 36.4849 3.39666 36.8667C3.28564 37.053 3.24076 37.2769 3.16518 37.482C3.85018 37.7365 11.4206 37.8615 12.0985 37.6493V30.3303H12.1009ZM63.0083 37.7247C63.0083 37.2957 63.0083 36.9092 63.0083 36.5226C62.9941 32.2962 62.9776 28.0698 62.961 23.8457C62.961 23.603 62.928 23.3625 62.9067 23.0702C62.5571 23.1339 62.2902 23.1905 62.0209 23.2282C61.6855 23.2753 61.5084 23.4332 61.454 23.7868C61.3784 24.2889 61.2533 24.7839 61.1422 25.2789C61.0525 25.6749 60.9793 25.7197 60.5753 25.6843C60.3013 25.6608 60.0273 25.6301 59.7533 25.6372C59.0849 25.656 58.9644 25.7763 58.9573 26.4363C58.9172 30.0168 58.8794 33.595 58.8439 37.1755C58.8439 37.3452 58.8676 37.5173 58.8817 37.7271H63.0106L63.0083 37.7247ZM66.4356 25.5406C66.6057 24.5812 66.7663 23.6996 66.9151 22.8133C66.9411 22.6554 66.9199 22.4904 66.9199 22.2664C66.0152 22.4432 65.1885 22.5988 64.3641 22.7709C63.8208 22.884 63.8161 22.8958 63.8137 23.4757C63.7948 28.0297 63.7807 32.5838 63.7689 37.1378C63.7689 37.3264 63.7996 37.5126 63.8185 37.7507C64.905 37.7601 65.9349 37.779 67.0025 37.7365C67.0238 37.5032 67.0521 37.3311 67.0498 37.1614C67.0191 33.5266 66.9813 29.8919 66.9529 26.2548C66.9506 25.9083 66.8844 25.6348 66.4356 25.5406ZM13.0575 37.6352C13.3079 37.6635 13.4402 37.6894 13.5748 37.6917C15.0889 37.6965 16.603 37.6988 18.1171 37.6917C18.6722 37.6917 18.7029 37.654 18.7147 37.0789C18.7454 35.4949 18.7714 33.9085 18.7974 32.3245C18.7997 32.1147 18.7974 31.9025 18.7974 31.6456C16.8581 31.2638 14.9803 30.896 13.0032 30.5071C13.0032 32.9185 13.0221 35.2521 13.0575 37.6352ZM20.2784 37.6493C20.5288 37.6682 20.7012 37.6941 20.8736 37.6941C21.9342 37.6965 22.9924 37.6941 24.053 37.6917C24.7002 37.6894 24.738 37.6847 24.7498 37.0506C24.7876 35.0399 24.7994 33.0269 24.8136 31.0162C24.8136 30.9125 24.7545 30.8065 24.7238 30.698C24.627 30.698 24.5679 30.6886 24.5136 30.698C23.2451 30.9526 21.9744 31.2048 20.7059 31.4665C20.2146 31.5678 20.2075 31.5773 20.2099 32.0817C20.2122 33.7223 20.2217 35.3629 20.2335 37.0035C20.2335 37.1944 20.2595 37.3877 20.2784 37.647V37.6493ZM40.0064 12.9038C40.3489 13.1466 40.5804 13.3186 40.819 13.4813C42.7535 14.7848 44.6951 16.0812 46.6273 17.3918C49.1594 19.1102 51.6845 20.838 54.2143 22.5587C54.7883 22.95 55.1851 22.9265 55.7732 22.4527C55.5063 22.2452 55.2536 22.0354 54.989 21.8469C51.2499 19.155 47.506 16.4631 43.7645 13.7736C43.1763 13.3493 42.5834 12.9297 41.9976 12.5031C41.8158 12.3711 41.6433 12.2697 41.4024 12.3663C40.9867 12.5361 40.5662 12.6916 40.0041 12.9061L40.0064 12.9038ZM43.37 11.6215C44.851 12.7553 46.2045 13.7854 47.5532 14.8225C48.9067 15.862 50.2507 16.9133 51.6042 17.9528C52.9458 18.9806 54.271 20.0295 55.6858 21.1091C55.8016 20.2817 55.811 19.6806 55.1308 19.1385C52.8018 17.2787 50.5294 15.3505 48.2335 13.4483C47.343 12.7105 46.4525 11.9727 45.5667 11.2302C45.3801 11.0746 45.2053 10.9308 44.9361 11.0345C44.466 11.2184 43.9912 11.3905 43.3724 11.6215H43.37ZM36.9286 14.0706C37.2074 14.2662 37.3821 14.4077 37.5758 14.5208C39.5765 15.7229 41.5819 16.9157 43.5802 18.1202C46.3344 19.782 49.0815 21.4556 51.8309 23.1245C52.4285 23.4875 52.8419 23.4733 53.4064 23.0443C53.2198 22.9147 53.0521 22.7874 52.875 22.6766C49.8137 20.7296 46.7501 18.7849 43.6889 16.8402C42.8456 16.3052 42.0071 15.7654 41.1615 15.2303C40.3985 14.7494 39.6332 14.2733 38.8679 13.7948C38.6435 13.6534 38.4096 13.5638 38.1427 13.651C37.7766 13.7712 37.4129 13.9032 36.9263 14.0706H36.9286ZM51.1318 23.6737C50.9168 23.3837 50.6405 23.2777 50.3948 23.1386C47.0359 21.2316 43.6771 19.3271 40.3182 17.4225C38.8514 16.5927 37.3845 15.763 35.9129 14.9404C35.7476 14.8484 35.5421 14.7353 35.3744 14.7589C34.9539 14.8154 34.55 14.9592 34.1249 15.2397C34.3398 15.3694 34.4981 15.4731 34.6634 15.5627C35.235 15.8667 35.8137 16.1567 36.3806 16.4655C40.7883 18.8651 45.1982 21.2599 49.5941 23.6807C50.1303 23.9754 50.579 23.8905 51.1341 23.676L51.1318 23.6737ZM47.0855 10.2048C48.5831 11.5484 49.9885 12.8142 51.401 14.0706C52.8088 15.3222 54.1623 16.6328 55.6693 17.8114C55.7331 17.3989 55.6953 17.0147 55.7402 16.6399C55.8016 16.1355 55.5961 15.7984 55.2418 15.466C54.2993 14.5821 53.3805 13.6722 52.4545 12.7718C51.4152 11.7606 50.3806 10.7493 49.3437 9.7381C49.1878 9.58489 49.0484 9.4246 48.7886 9.53067C48.2642 9.74517 47.7351 9.94789 47.0832 10.2025L47.0855 10.2048ZM49.0437 24.1215C48.7319 23.9542 48.517 23.834 48.2996 23.7208C45.7888 22.4291 43.2779 21.135 40.7646 19.8456C38.1994 18.5303 35.6319 17.2198 33.0619 15.9162C32.9131 15.8408 32.7171 15.7748 32.5682 15.8102C32.2328 15.888 31.914 16.0317 31.4581 16.1967C31.7439 16.3735 31.9116 16.4961 32.0935 16.5857C34.6776 17.8609 37.2664 19.1338 39.8505 20.4066C42.3307 21.6277 44.8203 22.8345 47.2863 24.0862C47.8414 24.369 48.3422 24.4563 49.0461 24.1215H49.0437ZM46.9745 24.5859C46.658 24.435 46.469 24.3408 46.2777 24.2535C45.2833 23.7892 44.2865 23.3248 43.2921 22.8581C39.0663 20.8757 34.8382 18.9004 30.6243 16.8992C30.0219 16.614 29.6109 16.8921 29.0275 17.1702C29.318 17.3258 29.4976 17.4343 29.6889 17.5215C34.9587 19.9093 40.2284 22.2924 45.4959 24.6849C45.9636 24.897 46.3911 24.8758 46.9745 24.5883V24.5859ZM26.7481 18.0707C27.0079 18.1909 27.1969 18.2852 27.3906 18.3653C31.4274 20.0436 35.4665 21.7172 39.5033 23.3979C40.8615 23.9636 42.2173 24.5293 43.5661 25.1115C44.0196 25.3072 44.4447 25.3449 44.9715 25.0455C44.7518 24.9277 44.6101 24.8405 44.4566 24.7768C44.1141 24.6283 43.7668 24.4963 43.4243 24.3478C38.497 22.2099 33.5674 20.079 28.6496 17.9175C27.9976 17.6323 27.4284 17.5993 26.7457 18.0707H26.7481ZM43.1456 25.4769C42.8503 25.3355 42.6803 25.2435 42.5031 25.1752C39.7891 24.0956 37.0727 23.0255 34.3587 21.9435C31.6825 20.8757 29.0086 19.8008 26.3347 18.7307C26.1458 18.6553 25.9474 18.6034 25.7442 18.5374C25.6001 19.2563 25.6025 19.2705 26.1647 19.4873C29.3629 20.7272 32.5635 21.96 35.7641 23.1999C37.7743 23.9801 39.7844 24.7603 41.7898 25.55C42.2102 25.715 42.6094 25.7527 43.1456 25.4769ZM55.5677 13.3846C55.6126 13.3681 55.6575 13.3493 55.7047 13.3328C55.7166 13.1843 55.7355 13.0358 55.7355 12.8873C55.7402 12.3593 55.7142 11.8313 55.7473 11.3056C55.7732 10.9025 55.6528 10.589 55.3929 10.292C54.9276 9.76403 54.4883 9.21245 54.0206 8.68445C53.1041 7.65437 53.508 7.75808 52.1947 8.23187C51.8593 8.35209 51.531 8.49823 51.1294 8.65852C52.6577 10.285 54.1127 11.8336 55.5677 13.3823V13.3846ZM25.7324 20.0366C25.6647 20.508 25.8182 20.8105 26.193 20.9441C29.7527 22.224 33.3123 23.504 36.8719 24.7863C37.9609 25.1775 39.0474 25.5735 40.134 25.9696C40.5024 26.1039 40.8638 26.1699 41.3244 25.8352C36.0759 23.8835 30.929 21.9694 25.7348 20.0366H25.7324ZM39.5198 26.2925C39.4773 26.2265 39.4631 26.1817 39.4348 26.1652C39.3498 26.1204 39.2576 26.0851 39.1655 26.0521C34.7201 24.5152 30.2723 22.9783 25.8269 21.4438C25.8127 21.4391 25.7891 21.4532 25.7726 21.4627C25.756 21.4721 25.7419 21.4839 25.7277 21.4956C25.645 22.0024 25.645 22.0048 26.1623 22.1792C28.522 22.9783 30.8794 23.775 33.2391 24.5718C34.9469 25.1493 36.657 25.7268 38.3648 26.3066C38.7427 26.4339 39.1159 26.5471 39.5198 26.2901V26.2925ZM32.2257 37.746C32.3297 37.0482 32.4336 36.3647 32.547 35.608C31.6659 35.4572 30.8652 35.3228 30.0078 35.1767C29.807 36.0559 29.6086 36.8691 29.559 37.7436H32.2257V37.746ZM25.7584 22.6624C25.6427 23.0962 25.645 23.1315 26.0277 23.2588C26.7717 23.5063 27.5252 23.7302 28.2716 23.9683C31.1675 24.89 34.0658 25.8116 36.9617 26.738C37.3042 26.8464 37.6373 26.9171 37.9703 26.6791C37.6113 26.4198 26.2757 22.7002 25.7584 22.6624ZM49.5492 35.8131C48.302 36.0276 47.1588 36.2256 45.9541 36.4307C46.0368 36.9233 46.1029 37.3287 46.1667 37.7106C47.0666 37.8308 49.4571 37.7978 49.9035 37.654C49.7925 37.0765 49.6791 36.4919 49.5492 35.8107V35.8131ZM36.442 26.9572C36.2129 26.87 36.0736 26.8063 35.9295 26.7616C34.7673 26.4056 33.6028 26.0544 32.4383 25.6985C30.414 25.0762 28.3897 24.4468 26.3631 23.8269C26.1529 23.7632 25.9261 23.7491 25.7253 23.7137C25.6001 24.006 25.7324 24.1239 25.9001 24.2017C26.0395 24.2677 26.1954 24.3078 26.3465 24.3525C28.1134 24.8782 29.8826 25.3991 31.6494 25.9295C32.8706 26.2972 34.0871 26.6814 35.3083 27.0468C35.6578 27.1505 36.0216 27.3037 36.442 26.9572ZM13.2111 23.1622C13.2016 23.2258 13.1922 23.2895 13.1827 23.3531C13.3977 23.4238 13.6079 23.511 13.8252 23.5629C14.9519 23.8316 16.081 24.0838 17.2053 24.3573C18.4076 24.6495 19.6076 24.9513 20.8051 25.2695C21.9602 25.5759 23.1081 25.9153 24.2608 26.2288C24.4309 26.276 24.6388 26.3868 24.8183 26.1676C24.7994 25.8847 24.5608 25.8823 24.36 25.8328C22.2082 25.2954 20.0564 24.765 17.9092 24.2135C17.0943 24.0037 16.2959 23.7397 15.4857 23.5134C14.9566 23.3649 14.4252 23.2211 13.8866 23.1174C13.6717 23.075 13.4355 23.1457 13.2087 23.1645L13.2111 23.1622ZM24.7805 26.9454L24.8301 26.7215C24.5844 26.6366 24.3459 26.5282 24.0931 26.4693C22.7775 26.1581 21.4547 25.88 20.1437 25.5523C17.9399 25.0008 15.7432 24.4185 13.5418 23.8575C13.3622 23.8127 13.0788 23.6053 13.0032 23.933C12.9394 24.2087 13.2418 24.2417 13.4496 24.2818C13.9291 24.3761 14.4157 24.4398 14.8905 24.5553C16.2062 24.8758 17.5148 25.2176 18.8257 25.55C20.5925 25.9955 22.3594 26.4433 24.1286 26.8794C24.3388 26.9313 24.5608 26.9266 24.7781 26.9478L24.7805 26.9454ZM13.0127 24.5765C12.9442 24.9913 13.2489 25.0031 13.4733 25.0526C14.7937 25.3473 16.1164 25.6254 17.4368 25.9177C18.3368 26.1181 19.2344 26.3255 20.1296 26.54C21.5964 26.8888 23.0633 27.2495 24.5301 27.5936C24.6152 27.6149 24.7238 27.5394 24.8207 27.5088C24.8419 27.4687 24.8632 27.4263 24.8821 27.3862C24.8112 27.3532 24.7427 27.3061 24.6671 27.2896C20.8784 26.3773 17.0896 25.4675 13.3008 24.56C13.2158 24.5388 13.1166 24.5694 13.0103 24.5765H13.0127ZM33.7611 37.7271H35.3319V35.0399C34.7768 35.1767 34.3209 35.4336 33.8674 35.6905C33.7918 35.7329 33.7115 35.839 33.7091 35.9168C33.6855 36.5132 33.6217 37.1142 33.7635 37.7271H33.7611ZM14.496 22.8015C14.6708 22.8722 14.7724 22.9288 14.8811 22.9524C15.5661 23.108 16.2581 23.2352 16.9408 23.4073C17.8336 23.6336 18.7171 23.8952 19.6052 24.1404C20.1721 24.296 20.7414 24.4398 21.3059 24.6048C22.3381 24.9041 23.368 25.2153 24.4002 25.5146C24.5655 25.5618 24.7569 25.6042 24.8679 25.293C24.738 25.2176 24.6057 25.1068 24.4545 25.0644C23.5499 24.8098 22.6381 24.5765 21.7311 24.329C19.9949 23.8528 18.2588 23.3696 16.5227 22.8911C16.1259 22.7827 15.7314 22.6672 15.3298 22.5799C15.0558 22.521 14.7818 22.5399 14.496 22.8039V22.8015ZM12.9985 25.2765C13.0079 25.7291 13.3268 25.7032 13.5488 25.7503C14.3331 25.9201 15.1291 26.0473 15.9133 26.2218C17.3683 26.5447 18.8163 26.8959 20.2713 27.2259C21.6106 27.5276 22.9523 27.8199 24.2939 28.1075C24.4474 28.1405 24.6293 28.1994 24.7829 28.0344C24.7309 27.9661 24.7049 27.893 24.6624 27.8836C20.8831 27.0067 17.1014 26.1322 13.3197 25.2648C13.2323 25.2435 13.1331 25.2695 12.9985 25.2765ZM35.0508 27.2919C34.4862 27.1199 34.0256 26.9761 33.5603 26.8417C31.1675 26.1487 28.7748 25.4557 26.3843 24.765C26.1505 24.6967 25.9167 24.56 25.6781 24.7344C25.6592 25.0644 25.9001 25.1068 26.0962 25.1634C28.7748 25.9271 31.4533 26.6861 34.1319 27.4475C34.4059 27.5253 34.6681 27.5583 35.0508 27.2919ZM16.0574 22.0897C16.0574 22.1651 16.0526 22.2405 16.0526 22.3183C16.5321 22.4503 17.0116 22.5894 17.4935 22.7167C18.8753 23.082 20.2642 23.4285 21.6389 23.8151C22.5601 24.0744 23.4625 24.3973 24.3766 24.6778C24.5089 24.7179 24.6648 24.6825 24.823 24.6825C24.8301 24.3266 24.6175 24.2535 24.3766 24.1922C23.4672 23.9612 22.5531 23.7515 21.6531 23.4851C20.4154 23.1174 19.1895 22.7025 17.9565 22.3159C17.5644 22.1934 17.1699 22.0614 16.7683 21.9977C16.5416 21.9624 16.2936 22.0567 16.055 22.092L16.0574 22.0897ZM44.1991 37.7342C44.2133 37.5244 44.2156 37.3877 44.2345 37.2533C44.2888 36.8337 44.1495 36.5603 43.7267 36.3953C43.2732 36.2185 42.8503 35.9639 42.4086 35.7565C42.2787 35.6952 42.1276 35.6787 41.9598 35.6339V37.7318H44.1991V37.7342ZM12.9914 26.0308C13.0127 26.0851 13.0268 26.1723 13.0575 26.1793C16.8061 27.002 20.5571 27.8199 24.3081 28.6332C24.4498 28.6638 24.5963 28.6591 24.7427 28.6732C24.7805 28.3456 24.5703 28.3574 24.4073 28.3244C22.7184 27.9779 21.0248 27.6502 19.3383 27.2849C17.4014 26.8653 15.4739 26.4127 13.5418 25.9813C13.3693 25.9436 13.1686 25.8187 12.9938 26.0308H12.9914ZM17.4817 21.6371C17.7321 21.7408 17.914 21.8398 18.1076 21.894C18.5801 22.0213 19.0666 22.1062 19.5343 22.2476C21.0886 22.7214 22.6357 23.2164 24.19 23.6949C24.3813 23.7538 24.5892 23.768 24.7899 23.8033C24.9104 23.3342 24.6081 23.2682 24.3506 23.1928C23.1483 22.8369 21.9413 22.4998 20.739 22.1368C20.0091 21.9152 19.2887 21.6583 18.5612 21.4249C18.2116 21.3141 17.8738 21.3448 17.4817 21.6371ZM25.6852 25.5358C25.6474 25.8871 25.9025 25.9083 26.0985 25.9648C26.5875 26.1063 27.0812 26.2312 27.5725 26.3632C29.2354 26.8158 30.8959 27.2684 32.5612 27.7186C32.88 27.8058 33.2036 27.8718 33.5343 27.6926C33.1588 27.3956 26.2355 25.491 25.6875 25.5358H25.6852ZM24.7309 22.8581C24.8632 22.3112 24.8584 22.2806 24.4238 22.1415C23.5286 21.8539 22.6263 21.5923 21.7334 21.3024C21.2492 21.1444 20.7768 20.9535 20.2996 20.7767C19.8839 20.6235 19.5131 20.6801 19.1139 21.0619C20.0989 21.3495 21.0177 21.5994 21.9224 21.8893C22.8507 22.1863 23.7648 22.5234 24.7309 22.8581ZM25.6923 26.2831C25.6545 26.6508 25.9355 26.6578 26.1458 26.7121C27.4945 27.0633 28.8456 27.4051 30.1967 27.7516C30.6148 27.8576 31.0282 27.9849 31.451 28.0745C31.6966 28.1264 31.973 28.2183 32.2352 27.8624C30.0833 27.3061 28 26.7663 25.9167 26.2336C25.8529 26.2171 25.7726 26.2642 25.6946 26.2854L25.6923 26.2831ZM24.6837 21.7196C24.7758 21.6277 24.7994 21.6159 24.8041 21.5994C24.8821 21.1326 24.849 21.0643 24.412 20.9111C23.5829 20.6164 22.7538 20.3171 21.9177 20.0413C21.5374 19.9163 21.2185 20.0625 20.8854 20.3854C21.587 20.5999 22.2224 20.7744 22.8412 20.9936C23.4648 21.2128 24.0742 21.4768 24.6837 21.7196ZM25.6757 26.9596C25.6852 27.3296 25.9615 27.3414 26.1694 27.3933C27.4614 27.7162 28.7582 28.0297 30.055 28.3361C30.3337 28.4022 30.6243 28.4517 30.9266 28.3032C30.5463 28.0321 27.5654 27.1929 26.0749 26.9336C25.9521 26.9124 25.8198 26.9501 25.6781 26.9619L25.6757 26.9596ZM6.49806 25.8211C6.48625 25.88 6.47444 25.9413 6.46263 26.0002C8.26725 26.3844 10.0695 26.771 11.8765 27.1505C11.9379 27.1646 12.0135 27.1151 12.0773 27.0986C12.0962 26.8488 11.9332 26.8181 11.782 26.7898C11.2435 26.6908 10.7025 26.6013 10.1664 26.4999C9.30184 26.3373 8.43968 26.1676 7.57753 26.0073C7.21849 25.9389 6.85946 25.8823 6.50042 25.8211H6.49806ZM29.6723 28.4257C28.4181 28.1358 27.1638 27.8459 25.9072 27.5654C25.8363 27.5489 25.7466 27.629 25.534 27.7186C25.7938 27.8411 25.9332 27.9354 26.0891 27.9731C27.041 28.2041 27.9953 28.421 28.9496 28.6449C29.1999 28.7039 29.4456 28.7416 29.6723 28.4257ZM7.32951 25.6183C8.17041 25.7857 8.9428 25.9672 9.72465 26.0851C10.5136 26.2029 11.2435 26.6578 12.1056 26.5518C12.0631 26.2288 11.8529 26.2265 11.6639 26.1935C10.8348 26.0544 10.0034 25.9248 9.17665 25.7692C8.75384 25.6891 8.34284 25.5547 7.92475 25.4557C7.74287 25.4133 7.54446 25.359 7.32951 25.6207V25.6183ZM33.3832 37.7389C33.3832 37.1213 33.395 36.5792 33.3737 36.037C33.369 35.9333 33.2556 35.8037 33.1564 35.7471C33.1068 35.7212 32.9131 35.8202 32.8942 35.8909C32.7454 36.4872 32.6367 37.0907 32.6155 37.7365H33.3808L33.3832 37.7389ZM24.7427 20.3854C24.8962 19.7443 24.8348 19.6453 24.3317 19.5368C24.164 19.5015 23.9986 19.4473 23.8451 19.3766C23.4625 19.1998 23.12 19.2941 22.8412 19.6594C23.4577 19.8951 24.079 20.1332 24.7427 20.3878V20.3854ZM62.8311 20.8734C63.0862 19.9517 62.9681 19.3365 62.5122 19.1078C62.08 20.0837 62.1367 20.4349 62.8311 20.8734ZM8.45622 25.0526C8.45149 25.1139 8.44913 25.1752 8.44441 25.2365C8.66644 25.2813 8.88848 25.3213 9.11051 25.3685C9.68449 25.4934 10.2585 25.616 10.8301 25.748C11.1348 25.8187 11.4348 25.9153 11.7419 25.9743C11.8552 25.9955 11.9828 25.9389 12.134 25.9106C11.8623 25.5948 11.8434 25.5971 11.3096 25.4958C10.5797 25.3567 9.85456 25.1893 9.12468 25.0573C8.90974 25.0173 8.67825 25.0503 8.45622 25.0503V25.0526ZM25.7159 28.2183C25.9993 28.5412 26.4576 28.6992 27.7945 28.9066C28.0071 28.9396 28.2504 29.0197 28.4393 28.7911C27.9055 28.4988 26.0891 28.1216 25.7159 28.2183ZM44.7565 36.664V37.7318H45.5549C45.4911 37.3405 45.4321 36.9964 45.3707 36.6169C45.1368 36.6357 44.9739 36.6499 44.7589 36.6664L44.7565 36.664ZM12.1434 25.26C12.0702 24.9725 11.8789 24.9489 11.6899 24.9112C11.1372 24.8004 10.5892 24.6802 10.0364 24.5718C9.84984 24.5364 9.6467 24.4987 9.54986 24.7462C10.3057 25.029 11.7159 25.319 12.1458 25.26H12.1434ZM27.2252 29.1093C27.2323 29.0574 27.2394 29.0056 27.2441 28.9537C26.7457 28.8406 26.2473 28.7274 25.7041 28.6049C25.7277 28.9137 25.7466 29.1494 25.7608 29.3568C26.1363 29.5336 26.0088 29.1447 26.1599 29.0739C26.5119 29.1187 26.8686 29.2861 27.2229 29.1093H27.2252ZM10.6152 24.3101C11.0781 24.4303 11.4844 24.5411 11.8978 24.6307C11.9544 24.6425 12.0584 24.5505 12.0985 24.4845C12.1174 24.4492 12.0513 24.3101 12.0088 24.303C11.6167 24.2347 11.2198 24.1805 10.823 24.138C10.7758 24.1333 10.7167 24.2229 10.6152 24.3101ZM5.54142 27.3909C5.55087 27.332 5.55796 27.2707 5.5674 27.2118C5.11861 27.1505 4.66982 27.0916 4.21866 27.0303C4.2163 27.0586 4.21394 27.0869 4.21157 27.1175C4.65564 27.2094 5.09735 27.3014 5.54142 27.3933V27.3909ZM8.0523 27.1976C8.05467 27.2471 8.05703 27.299 8.05939 27.3485H8.68298C8.68534 27.3226 8.6877 27.299 8.69006 27.2731C8.47748 27.2471 8.26489 27.2236 8.0523 27.1976ZM6.77678 27.5253C6.78151 27.5559 6.78623 27.5842 6.79096 27.6149C6.98701 27.5842 7.18306 27.5536 7.38147 27.5229L7.36494 27.4263C7.16889 27.4593 6.97284 27.4923 6.77678 27.5229V27.5253ZM4.32495 27.6125C4.32023 27.5771 4.31314 27.5441 4.30842 27.5088C4.22811 27.5276 4.1478 27.5489 4.06749 27.5677C4.15252 27.5819 4.23756 27.5984 4.32495 27.6125ZM6.65159 28.3786C6.65159 28.3786 6.65159 28.4022 6.65159 28.4116H6.91378C6.91378 28.4116 6.91378 28.388 6.91378 28.3786H6.65159ZM3.74152 27.893C3.73916 27.9095 3.7368 27.9236 3.73444 27.9401H3.96592C3.96592 27.9284 3.96592 27.9166 3.96592 27.9048C3.89269 27.9001 3.81711 27.8977 3.74388 27.893H3.74152Z" fill="#FDCD06"/>
</g>
<defs>
<clipPath id="clip0_15_10">
<rect width="70" height="42" fill="white" transform="translate(0 1)"/>
</clipPath>
</defs>
</svg>
