<svg width="16" height="16" viewBox="0 0 16 16" fill="none" xmlns="http://www.w3.org/2000/svg">
<path fill-rule="evenodd" clip-rule="evenodd" d="M7.99768 0L8.00232 0.000132243C12.4126 0.000132243 16 3.58857 16 8.00007C16 12.4114 12.4126 16 8.00232 16C6.37547 16 4.8662 15.5157 3.60148 14.6785L0.52653 15.6613L1.52335 12.689C0.564224 11.372 0 9.74948 0 7.99993C0 3.58842 3.58742 0 7.99768 0ZM5.76428 4.06361C5.60916 3.69209 5.4916 3.67802 5.25659 3.66847C5.17658 3.66382 5.0874 3.65918 4.98855 3.65918C4.68282 3.65918 4.36316 3.74851 4.17035 3.94601C3.93535 4.18586 3.35228 4.74546 3.35228 5.89307C3.35228 7.04067 4.18919 8.15058 4.30198 8.30588C4.41955 8.46091 5.9336 10.8501 8.28443 11.8238C10.1228 12.5857 10.6683 12.5151 11.0867 12.4258C11.6979 12.2941 12.4643 11.8424 12.6571 11.297C12.85 10.7514 12.8499 10.2857 12.7934 10.187C12.737 10.0882 12.5818 10.0319 12.3468 9.91421C12.1118 9.7966 10.9691 9.23222 10.7528 9.15696C10.5412 9.07706 10.3391 9.10533 10.1793 9.33111C9.95361 9.64621 9.73267 9.96611 9.55392 10.1588C9.41287 10.3094 9.18238 10.3282 8.98971 10.2482C8.73108 10.1401 8.0071 9.88593 7.11366 9.09113C6.42245 8.47511 5.95231 7.70858 5.81603 7.47816C5.67962 7.24309 5.80197 7.10651 5.90998 6.97961C6.02755 6.83374 6.14035 6.73034 6.25791 6.59389C6.37548 6.45758 6.44129 6.38696 6.51653 6.22702C6.59655 6.07186 6.54002 5.91191 6.48362 5.79431C6.42723 5.67671 5.95709 4.5291 5.76428 4.06361Z" fill="#FDCD06"/>
</svg>
