<?xml version="1.0" encoding="UTF-8"?>
<svg xmlns="http://www.w3.org/2000/svg" width="70" height="70" viewBox="0 0 70 70" fill="none">
  <g clip-path="url(#clip0_522_807)">
    <path fill-rule="evenodd" clip-rule="evenodd" d="M5.20474 0.288343C4.48697 0.643675 4.12494 1.13409 3.94051 2.00061C3.84508 2.44932 3.81103 11.0548 3.83605 28.4374L3.8731 54.2089L4.18797 54.758C4.36119 55.0602 4.72568 55.4601 4.99816 55.6467L5.49336 55.9862L11.4849 56.0258L17.4766 56.0654V62.2943C17.4766 69.1984 17.4739 69.1755 18.3617 69.7242C18.8043 69.9977 18.9865 69.9999 41.7397 69.9999C66.9216 69.9999 65.2537 70.0551 65.8328 69.202C66.0676 68.8563 66.0801 68.1034 66.0801 54.4139C66.0801 40.4727 66.0714 39.9772 65.8206 39.6072C65.2779 38.8063 65.5367 38.828 56.5184 38.828H48.242L48.2061 24.4869C48.1711 10.6031 48.213 9.5 48.213 9.5H46.1876C46.1876 9.5 46.2543 10.303 46.1876 24.3589L46.1192 38.7596L32.3992 38.7945L18.6791 38.8294L18.2674 39.1223C17.4768 39.6854 17.4766 39.6874 17.4766 47.1635V54.0038H14.6055H11.7344V28.0272V2.05065H28.961H46.1876V4.10143C46.1876 5.96996 46.1876 9.5 46.1876 9.5H48.213C48.213 9.5 48.1749 5.85785 48.213 3.81938C48.2619 1.21612 48.1536 0.77014 47.3532 0.275492C46.9112 0.00232771 46.7223 -0.000133224 26.3472 3.49433e-06L5.78717 0.000140213L5.20474 0.288343ZM9.64988 27.993L9.61529 53.9354L7.90767 53.9741C6.42113 54.0077 6.17791 53.9822 6.02779 53.7771C5.78183 53.4405 5.77363 2.46067 6.01959 2.21471C6.13006 2.10424 6.75486 2.05065 7.93406 2.05065H9.68433L9.64988 27.993ZM27.122 10.1367C22.6346 10.7119 18.5843 13.7579 16.6823 17.9875C15.3959 20.848 15.2235 24.2773 16.2081 27.412C17.5465 31.6724 21.1844 35.0741 25.6598 36.25C27.3038 36.6819 29.7879 36.7378 31.5089 36.3817C39.9772 34.6288 44.6411 25.563 41.0609 17.8139C39.1135 13.5993 35.13 10.6922 30.5333 10.1313C29.1408 9.96133 28.4822 9.96242 27.122 10.1367ZM27.8672 14.2186V16.1327H26.295C25.2978 16.1327 24.7227 16.0807 24.7227 15.9905C24.7227 15.3978 26.3225 13.2315 27.1456 12.7094C27.4967 12.4868 27.8027 12.3046 27.8257 12.3046C27.8485 12.3046 27.8672 13.1659 27.8672 14.2186ZM30.6917 12.6967C31.4583 13.252 32.1426 14.0934 32.7179 15.1881L33.2142 16.1327H31.5662H29.918V14.2186C29.918 13.1659 29.9703 12.3046 30.0342 12.3046C30.0981 12.3046 30.3941 12.4811 30.6917 12.6967ZM23.0361 14.7655L22.3679 16.1327L21.2553 16.1279L20.1426 16.1231L21.0189 15.2905C21.7901 14.5578 23.3837 13.3983 23.6195 13.3983C23.6661 13.3983 23.4037 14.0135 23.0361 14.7655ZM35.2317 14.0044C35.7305 14.3378 36.4751 14.9531 36.886 15.3716L37.6333 16.1327H36.5412H35.4491L34.8389 14.868C34.5033 14.1724 34.2072 13.5572 34.1811 13.5008C34.0821 13.2874 34.3529 13.4172 35.2317 14.0044ZM21.6717 18.6962C21.6315 18.9782 21.5191 19.9011 21.422 20.7469L21.2454 22.285H19.4268C17.6132 22.285 17.6083 22.2842 17.6712 21.9774C17.7059 21.8081 17.7741 21.4237 17.8229 21.1229C17.9226 20.5074 18.3734 19.1282 18.6609 18.5594C18.8501 18.185 18.8565 18.1835 20.2978 18.1835H21.7448L21.6717 18.6962ZM27.8672 19.2588C27.8672 20.5766 28.1429 21.0546 28.9026 21.0546C29.7083 21.0546 29.918 20.7007 29.918 19.3419V18.1762L31.9333 18.2139L33.9484 18.2518L34.1728 19.4518C34.2964 20.1117 34.424 21.0193 34.4565 21.4684L34.5156 22.285H28.9356H23.3555L23.3583 21.8407C23.3615 21.3091 23.5452 19.9977 23.7635 18.9458L23.9218 18.1835H25.8945H27.8672V19.2588ZM39.3944 19.1063C39.753 20.0272 40.166 21.5927 40.1699 22.0458C40.1718 22.2614 39.9972 22.285 38.4007 22.285H36.6297L36.5669 21.8407C36.5325 21.5964 36.4351 20.854 36.3505 20.191C36.2659 19.5282 36.1606 18.8053 36.1164 18.5846L36.0362 18.1835H37.5356H39.035L39.3944 19.1063ZM21.3075 24.9169C21.309 25.2365 21.3709 25.8978 21.4452 26.3866C21.5193 26.8754 21.6187 27.5367 21.666 27.8563L21.7521 28.4374H20.3007H18.8494L18.5754 27.9005C18.3006 27.3618 17.8479 25.8068 17.687 24.8485L17.6009 24.3358H19.4529H21.3047L21.3075 24.9169ZM34.4565 25.1524C34.424 25.6015 34.2964 26.5091 34.1728 27.169L33.9484 28.369L31.9333 28.4069L29.918 28.4446V27.0739C29.918 25.8852 29.8817 25.6666 29.6446 25.4296C29.2374 25.0224 28.5057 25.0649 28.1507 25.5164C27.9098 25.8225 27.8672 26.0687 27.8672 27.157V28.4374H25.8985H23.9299L23.7147 27.4462C23.5963 26.9009 23.4586 25.9781 23.4087 25.3954L23.3178 24.3358H28.9167H34.5156L34.4565 25.1524ZM40.1719 24.532C40.1719 25.0086 39.74 26.7114 39.41 27.5357L39.0491 28.4374H37.5598C36.7406 28.4374 36.0704 28.3912 36.0704 28.3348C36.0704 28.2785 36.1627 27.7501 36.2754 27.1607C36.3882 26.5713 36.4813 25.833 36.4824 25.5201C36.4864 24.297 36.4231 24.3358 38.4106 24.3358C39.8494 24.3358 40.1719 24.3718 40.1719 24.532ZM22.6315 31.065C22.7585 31.3823 23.0696 32.0327 23.3231 32.5102C23.7588 33.3313 23.7668 33.3698 23.4672 33.214C22.803 32.869 21.4827 31.8522 20.8314 31.184L20.1529 30.4881H21.2769H22.4007L22.6315 31.065ZM27.8672 32.4022C27.8672 33.4549 27.8335 34.3163 27.792 34.3163C27.2241 34.3163 25.8214 32.8372 25.0891 31.4661L24.5667 30.4881H26.217H27.8672V32.4022ZM33.1993 30.5936C33.1993 30.8451 31.9535 32.7906 31.4845 33.2713C30.9921 33.7762 30.2373 34.3146 30.0206 34.3157C29.9642 34.316 29.918 33.4549 29.918 32.4022V30.4881H31.5586C32.461 30.4881 33.1993 30.5356 33.1993 30.5936ZM37.2773 30.9009C36.9064 31.4025 35.2569 32.7336 34.5749 33.0814L34.0795 33.3342L34.7673 31.9152L35.4551 30.4962L36.5188 30.4921L37.5825 30.4881L37.2773 30.9009ZM58.7657 50.5174C58.7657 59.9739 58.7657 60.4152 58.7657 60.4152H60.7927C60.7927 60.4152 60.7496 59.7476 60.785 50.5031L60.8218 40.8788H62.4598H64.0977V54.4139V67.9491H62.4675H60.8371L60.7927 66.049C60.7543 64.4108 60.7927 60.4152 60.7927 60.4152H58.7657C58.7657 60.4152 58.7657 64.3032 58.7657 66.035V67.9491H39.1465H19.5274V54.4139V40.8788H39.1465H58.7657V50.5174ZM22.9955 44.6957C22.0732 45.258 22.1251 44.6969 22.1256 54.1368C22.126 62.4699 22.133 62.6968 22.402 63.138C22.9173 63.9831 22.9272 63.9842 30.2598 63.9842C37.5925 63.9842 37.6023 63.9831 38.1176 63.138C38.3867 62.6968 38.3936 62.4699 38.394 54.1248C38.3946 45.6501 38.3917 45.5604 38.1091 45.2011C37.4948 44.4202 37.6302 44.4335 30.2325 44.434C23.7713 44.4344 23.402 44.4478 22.9955 44.6957ZM41.1168 46.6033C40.8881 46.7884 40.8008 47.001 40.8008 47.3729C40.8008 47.7448 40.8881 47.9574 41.1168 48.1425C41.4161 48.3849 41.7946 48.3983 48.328 48.3983H55.2234L55.5589 48.0627C55.7435 47.8781 55.8946 47.5677 55.8946 47.3729C55.8946 47.1781 55.7435 46.8677 55.5589 46.6832L55.2234 46.3475H48.328C41.7946 46.3475 41.4161 46.3609 41.1168 46.6033ZM36.3438 54.2188C36.3438 61.5115 36.3301 61.951 36.1045 61.9078C35.8911 61.8669 35.8579 61.6109 35.7969 59.5392C35.7183 56.8672 35.6255 56.5975 34.5475 55.9057L33.9128 55.4984L34.4105 54.5278C34.8646 53.6424 34.9078 53.4599 34.9035 52.4475C34.8995 51.5472 34.8316 51.1928 34.5432 50.5694C34.0449 49.4925 33.3211 48.7489 32.2645 48.2288C31.4672 47.8363 31.2286 47.7835 30.2627 47.7869C29.3713 47.79 29.0209 47.8581 28.3902 48.1507C27.3033 48.6548 26.4764 49.4643 26.0072 50.4837C25.6771 51.2006 25.6138 51.516 25.6128 52.4479C25.6115 53.4566 25.6566 53.6464 26.1073 54.5247L26.6033 55.4913L25.8899 55.9649C24.7963 56.691 24.6724 57.0536 24.6101 59.7118C24.5681 61.498 24.5205 61.9335 24.3668 61.9335C24.2055 61.9335 24.1758 60.7316 24.1758 54.2089V46.4842H30.2598H36.3438V54.2188ZM31.0496 49.9104C33.1816 50.5024 33.5512 53.4071 31.6544 54.6623C30.8644 55.1852 29.6553 55.1852 28.8653 54.6623C27.08 53.481 27.2446 50.8927 29.1605 50.0225C29.7916 49.7358 30.3101 49.7051 31.0496 49.9104ZM41.0022 51.0828C40.6332 51.5517 40.6446 51.8514 41.0487 52.3213L41.3786 52.7049L47.9188 52.7454C51.5159 52.7677 54.6592 52.7495 54.9039 52.7049C55.8197 52.5383 56.1952 51.5996 55.5782 51.0198C55.2619 50.7225 55.2603 50.7225 48.2736 50.7225H41.2855L41.0022 51.0828ZM41.3154 55.1187C41.0156 55.266 40.7188 55.7718 40.7188 56.1356C40.7188 56.2483 40.8699 56.4914 41.0544 56.6759L41.39 57.0116H48.3589H55.3279L55.6112 56.6513C55.9645 56.2022 55.9718 55.77 55.6333 55.352L55.372 55.0292L48.4898 55.0022C43.912 54.9843 41.5097 55.0234 41.3154 55.1187ZM29.2344 59.4859V61.9335H28.004H26.7735L26.7765 59.8485L26.7795 57.7635L27.6136 57.2638C28.337 56.8304 28.5 56.7823 28.8411 56.9013L29.2344 57.0384V59.4859ZM33.3702 57.5918L33.7461 57.8505V59.892V61.9335H32.5157H31.2852V59.4839V57.0344L31.6612 56.9033C32.0456 56.7693 32.3578 56.8951 33.3702 57.5918ZM41.3879 60.8522C41.0471 60.9803 40.7188 61.4714 40.7188 61.8531C40.7188 61.9522 40.8464 62.1954 41.0022 62.3935L41.2855 62.7538H45.2405C49.0131 62.7538 49.2079 62.7412 49.4688 62.4803C49.8371 62.112 49.83 61.3717 49.4547 61.0318C49.1884 60.7906 48.8924 60.7694 45.4557 60.7448C43.296 60.7294 41.5953 60.7742 41.3879 60.8522Z" fill="white"></path>
  </g>
  <defs>
    <clipPath id="clip0_522_807">
      <rect width="70" height="70" fill="white"></rect>
    </clipPath>
  </defs>
</svg>
