<?xml version="1.0" encoding="UTF-8"?>
<svg xmlns="http://www.w3.org/2000/svg" width="100" height="100" viewBox="0 0 100 100" fill="none">
  <g opacity="0.8">
    <path fill-rule="evenodd" clip-rule="evenodd" d="M14.2677 3.92754C13.2095 4.45137 12.7 5.17188 12.4566 6.48829C12.3326 7.1586 12.2816 19.8072 12.3144 41.7717L12.3654 76.0102L12.9134 76.4817C13.605 77.0766 14.0554 77.0766 14.747 76.4817L15.2951 76.0102L15.3927 41.2766L15.4904 6.54278L48.3283 6.49336L81.1664 6.44395L82.2117 6.99004C82.864 7.33086 83.4789 7.85137 83.8464 8.37403L84.4357 9.21192L84.5566 12.8578C84.6232 14.8631 84.689 16.5223 84.7031 16.5449C84.9384 16.9246 85.7 17.3826 86.0958 17.3826C86.8609 17.3826 87.4177 16.7445 87.5763 15.6859C87.832 13.9809 87.5326 9.5754 87.0785 8.36172C86.2478 6.1418 84.6447 4.61075 82.4132 3.90703C81.1914 3.52149 80.6544 3.51543 48.1359 3.51563L15.0998 3.51582L14.2677 3.92754ZM25.9865 11.74C25.5289 11.9666 24.9777 12.4002 24.7615 12.7039C24.1906 13.5059 23.9281 15.2486 24.0394 17.501C24.1556 19.8539 24.498 20.7141 25.6132 21.4527C26.3736 21.9564 26.4994 21.9744 29.7158 22.0346C31.5408 22.0688 33.2378 22.0455 33.4871 21.9828C33.7365 21.9203 34.0806 21.5977 34.2523 21.266C34.5097 20.7682 34.523 20.5633 34.3281 20.0928C34.1982 19.7793 33.9935 19.4586 33.8732 19.3805C33.7529 19.3022 32.2043 19.1941 30.4318 19.1404L27.2091 19.0428V16.699V14.3553H49.963H72.7169V16.699V19.0428L54.7796 19.1404L36.8425 19.2381L36.4691 19.6992C35.9607 20.3272 36.0003 21.0158 36.5783 21.5938L37.0605 22.076L55.2937 22.0242L73.5269 21.9725L74.3121 21.4527C75.4279 20.7143 75.7705 19.8545 75.8867 17.501C76.0568 14.058 75.499 12.4225 73.9081 11.7C73.1419 11.3522 72.1119 11.3363 49.963 11.3324L26.8185 11.3283L25.9865 11.74ZM85.1562 19.5387C84.921 19.7576 84.708 19.9555 84.6828 19.9781C84.6574 20.0008 84.5916 35.942 84.5363 55.4029L84.4357 90.7865L83.8464 91.625C83.4785 92.1486 82.8646 92.6684 82.2117 93.0096L81.1664 93.5557L48.3283 93.5063L15.4904 93.4568L15.3927 86.5549L15.2951 79.6529L14.747 79.1818C14.0552 78.5871 13.605 78.5871 12.9134 79.1822L12.3654 79.6537V86.7506C12.3654 94.7869 12.3781 94.8629 13.8953 95.8668L14.6806 96.3865L47.898 96.4383C80.7132 96.4893 81.1308 96.4852 82.3849 96.0967C84.6181 95.4049 86.1876 93.9227 87.115 91.6297L87.5607 90.5272L87.6193 56.0545C87.6515 37.0945 87.6238 21.2064 87.5578 20.7477C87.3488 19.2936 86.096 18.6631 85.1562 19.5387ZM46.8113 27.7348C36.8705 29.3168 29.2517 36.6119 27.4121 46.31C27.0199 48.3777 27.0199 52.5984 27.4121 54.6662C29.2587 64.401 37.1009 71.8617 46.9228 73.2279C56.2837 74.5299 65.713 69.6752 70.1976 61.2453C71.9873 57.8813 72.8146 54.5123 72.8146 50.5899C72.8146 45.6104 71.597 41.5834 68.8689 37.5393C65.6904 32.8277 60.8853 29.5709 54.9435 28.1008C53.1531 27.6578 48.5863 27.4522 46.8113 27.7348ZM51.0554 30.7832C51.8697 31.1695 52.65 32.0395 53.5312 33.5428C54.1792 34.6488 55.2365 37.0775 55.2365 37.4608C55.2365 37.7443 50.3083 37.949 47.3263 37.7893C45.8724 37.7113 44.6896 37.5641 44.6896 37.4608C44.6896 37.0775 45.7468 34.6488 46.3949 33.5428C47.9818 30.8354 49.398 29.9967 51.0554 30.7832ZM44.0613 31.5916C43.2546 33.1672 42.3054 35.2875 42.0396 36.1074L41.6996 37.1565L40.7496 37.044C39.5367 36.9002 36.291 36.1076 36.2919 35.9553C36.2931 35.7668 38.4541 34.0848 39.5826 33.3941C41.3876 32.2893 44.3052 31.115 44.0613 31.5916ZM58.6857 32.5258C60.3519 33.3305 63.6349 35.5828 63.6349 35.9211C63.6349 36.1 60.5208 36.8848 59.1798 37.0436L58.2333 37.1557L57.6886 35.6188C57.389 34.7734 56.8691 33.5545 56.5334 32.91C56.1976 32.2654 55.8888 31.6598 55.8472 31.5641C55.7125 31.2543 56.8537 31.6408 58.6857 32.5258ZM36.0341 38.9695C36.9703 39.2408 38.4671 39.6065 39.3607 39.782C40.6759 40.0404 40.9666 40.1604 40.8867 40.4119C40.6459 41.1713 40.1791 44.8207 40.0662 46.826L39.9423 49.0233H34.9918H30.0412L30.0455 48.4861C30.0525 47.5795 30.771 44.6295 31.3265 43.2254C32.1111 41.2428 33.7552 38.4764 34.1492 38.4764C34.2498 38.4764 35.098 38.6982 36.0341 38.9695ZM66.5191 39.3065C67.4242 40.6504 68.0384 41.8074 68.5996 43.2254C69.155 44.6295 69.8736 47.5795 69.8806 48.4861L69.8849 49.0233H64.9343H59.9837L59.8599 46.826C59.7478 44.8336 59.2806 41.1727 59.0427 40.4225C58.9673 40.1846 59.3013 40.0496 60.6566 39.7701C61.5964 39.5764 63.0246 39.2168 63.8302 38.9711C64.6359 38.7254 65.4447 38.5135 65.6275 38.5004C65.8167 38.4867 66.2007 38.8338 66.5191 39.3065ZM49.0224 40.6965C50.99 40.7108 53.3892 40.6785 54.354 40.6248L56.1082 40.5272L56.2488 41.3084C56.5699 43.0941 56.9943 46.8434 56.9943 47.8943V49.0233H49.9333H42.8722L42.998 46.8213C43.1074 44.908 43.5728 41.4115 43.8169 40.6705C43.874 40.4975 44.1302 40.4604 44.6716 40.5469C45.097 40.6148 47.0548 40.6822 49.0224 40.6965ZM40.0662 54.1502C40.1791 56.1555 40.6459 59.8049 40.8867 60.5643C40.9667 60.8168 40.6646 60.9373 39.273 61.2082C38.3312 61.3914 36.78 61.774 35.8257 62.0586L34.0908 62.5758L33.7117 62.1078C33.0603 61.3033 31.8753 59.1391 31.3263 57.7508C30.7709 56.3465 30.0525 53.3963 30.0455 52.49L30.0412 51.9529H34.9918H39.9423L40.0662 54.1502ZM56.9943 53.0818C56.9943 54.1328 56.5699 57.882 56.2488 59.6678L56.1082 60.449L54.354 60.3514C53.3892 60.2977 51.4132 60.2537 49.963 60.2537C48.5128 60.2537 46.5369 60.2977 45.572 60.3514L43.8179 60.449L43.4822 58.4959C43.2976 57.4217 43.0851 55.51 43.0099 54.2479L42.8732 51.9529H49.9337H56.9943V53.0818ZM69.8824 52.3924C69.8771 53.282 69.1378 56.3906 68.6291 57.6625C68.0312 59.157 66.9177 61.2213 66.274 62.0285L65.8373 62.5764L64.1013 62.0588C63.1466 61.7742 61.5949 61.3914 60.6531 61.2082C59.2615 60.9373 58.9593 60.8168 59.0394 60.5643C59.2802 59.8049 59.747 56.1555 59.8599 54.1502L59.9837 51.9529H64.9343H69.8849L69.8824 52.3924ZM53.1552 63.2131C54.2999 63.2832 55.2365 63.4219 55.2365 63.5215C55.2365 63.8967 54.1757 66.3338 53.5179 67.4705C52.673 68.9303 51.3652 70.2307 50.5656 70.4063C50.2341 70.4791 49.6919 70.4791 49.3605 70.4063C48.5609 70.2307 47.2531 68.9303 46.4082 67.4705C45.7332 66.3043 44.6896 63.8936 44.6896 63.5004C44.6896 63.1781 49.7664 63.0057 53.1552 63.2131ZM42.0646 64.9514C42.2523 65.5477 42.7802 66.8002 43.2378 67.7346C43.6955 68.669 44.0365 69.4672 43.9955 69.5084C43.8466 69.6584 41.5421 68.6867 40.1074 67.8691C38.7039 67.0693 36.2935 65.2682 36.2919 65.0182C36.2916 64.9531 37.148 64.7022 38.1955 64.4606C39.2429 64.2192 40.1876 63.9936 40.2951 63.9596C40.4025 63.9256 40.7679 63.8908 41.107 63.8824C41.6876 63.868 41.7435 63.9301 42.0646 64.9514ZM61.8808 64.475C62.8455 64.7115 63.6345 64.9572 63.6341 65.0209C63.6326 65.2686 61.215 67.0734 59.8187 67.8691C58.3287 68.7184 56.0781 69.6565 55.9171 69.4955C55.8689 69.4473 56.1269 68.8422 56.4908 68.151C56.8546 67.4598 57.3955 66.2027 57.6927 65.3574L58.2333 63.8205L59.1798 63.9326C59.7005 63.9943 60.916 64.2383 61.8808 64.475ZM28.5156 80.2809C28.2367 80.5406 28.088 80.9113 28.088 81.3475C28.088 81.7836 28.2367 82.1543 28.5156 82.4141C28.9402 82.8098 29.0791 82.8123 49.963 82.8123C70.847 82.8123 70.9859 82.8098 71.4105 82.4141C71.6894 82.1543 71.838 81.7836 71.838 81.3475C71.838 80.9113 71.6894 80.5406 71.4105 80.2809C70.9859 79.8852 70.847 79.8826 49.963 79.8826C29.0791 79.8826 28.9402 79.8852 28.5156 80.2809ZM28.5156 86.1402C28.2367 86.4 28.088 86.7707 28.088 87.2068C28.088 87.643 28.2367 88.0137 28.5156 88.2734C28.9318 88.6613 29.1599 88.6717 37.2677 88.6717C45.3755 88.6717 45.6037 88.6613 46.0199 88.2734C46.2988 88.0137 46.4474 87.643 46.4474 87.2068C46.4474 86.7707 46.2988 86.4 46.0199 86.1402C45.6037 85.7524 45.3755 85.742 37.2677 85.742C29.1599 85.742 28.9318 85.7524 28.5156 86.1402ZM50 86.1402C49.4253 86.6756 49.4253 87.7381 50 88.2734C50.4189 88.6637 50.6318 88.6717 60.7052 88.6717C70.7787 88.6717 70.9916 88.6637 71.4105 88.2734C71.6894 88.0137 71.838 87.643 71.838 87.2068C71.838 86.7707 71.6894 86.4 71.4105 86.1402C70.9916 85.75 70.7787 85.742 60.7052 85.742C50.6318 85.742 50.4189 85.75 50 86.1402Z" fill="white"></path>
  </g>
</svg>
