<?xml version="1.0" encoding="UTF-8"?>
<svg xmlns="http://www.w3.org/2000/svg" width="100" height="100" viewBox="0 0 100 100" fill="none">
  <g opacity="0.8">
    <path fill-rule="evenodd" clip-rule="evenodd" d="M70.7118 0.126739C69.4692 0.440606 68.0565 1.26404 66.8373 2.38494C65.3924 3.71326 65.0647 3.84568 62.7498 4.03729C57.7768 4.4492 55.1494 7.08475 54.7635 12.049C54.6836 13.0763 54.5539 14.0213 54.4752 14.1486C54.3662 14.3248 49.442 14.3804 33.8846 14.3814C19.5352 14.382 13.2041 14.4469 12.6559 14.5986C11.6194 14.8857 10.134 16.3711 9.8469 17.4076C9.54222 18.5084 9.53987 95.7861 9.84436 96.8998C10.1186 97.9019 11.6647 99.4328 12.6905 99.7176C13.8344 100.035 69.9582 100.007 71.0317 99.6885C72.0887 99.3744 73.5289 97.9342 73.843 96.8771C74.0096 96.3158 74.0817 94.1584 74.0817 89.7258C74.0817 83.6 74.0676 83.3603 73.6768 82.8636C73.117 82.1519 72.1166 82.1519 71.5569 82.8636C71.1662 83.3601 71.152 83.6002 71.152 89.7084V96.0386L70.6725 96.5179L70.1932 96.9974H41.8551H13.517L13.0377 96.5179L12.5582 96.0386V57.1537V18.2687L13.0377 17.7894L13.517 17.3099H32.7539H51.9909L51.3662 18.6283C50.8002 19.8234 50.7418 20.1201 50.7418 21.8021C50.7418 23.4748 50.8018 23.7844 51.3516 24.9445C51.6869 25.6523 52.4832 26.8072 53.1209 27.5109C54.3916 28.9131 54.7432 29.751 54.7504 31.3951C54.753 31.9734 54.8317 32.7763 54.9252 33.1791L55.0951 33.9115H39.1881C21.6309 33.9115 22.5182 33.849 21.7301 35.1418C21.3739 35.7258 21.3487 36.1595 21.3487 41.724C21.3487 47.2885 21.3739 47.7222 21.7301 48.3062C22.5229 49.6066 21.4033 49.5365 41.3571 49.5365H59.4332V51.5935C59.4332 53.9256 59.6379 54.5965 60.6307 55.5191C61.8348 56.6385 63.2246 56.7937 64.6578 55.9695L65.2926 55.6043V68.9513V82.2982L64.0719 82.5349C60.3676 83.2531 57.4076 86.2131 56.6895 89.9174L56.4528 91.1381H41.8551H27.2575L27.0207 89.9174C26.3026 86.2131 23.3426 83.2531 19.6383 82.5349L18.4176 82.2982V57.1537V32.0092L19.6383 31.7724C23.3153 31.0596 26.3078 28.067 27.0207 24.39L27.2575 23.1693H36.5184H45.7791L46.2584 22.6898C46.8696 22.0789 46.8696 21.3301 46.2584 20.7191L45.7791 20.2396L35.9557 20.2404C26.5575 20.241 26.1055 20.2576 25.5073 20.6224C24.7094 21.1088 24.3586 21.8131 24.2219 23.2035C23.919 26.2845 21.5276 28.6713 18.4399 28.9748C17.0612 29.1103 16.3561 29.4629 15.8707 30.259C15.4975 30.8709 15.4893 31.4431 15.4893 57.1537C15.4893 82.8642 15.4975 83.4365 15.8707 84.0484C16.3561 84.8445 17.0612 85.197 18.4399 85.3326C21.5276 85.6361 23.919 88.0228 24.2219 91.1039C24.3586 92.4943 24.7094 93.1986 25.5073 93.6849C26.1137 94.0549 26.6049 94.0664 41.8551 94.0664C57.1053 94.0664 57.5965 94.0549 58.203 93.6849C59.0008 93.1986 59.3516 92.4943 59.4883 91.1039C59.7912 88.0228 62.1826 85.6361 65.2703 85.3326C66.6491 85.197 67.3541 84.8445 67.8395 84.0484C68.2092 83.4424 68.2209 82.9523 68.2215 67.9886L68.2223 52.5541L69.6871 51.099L71.152 49.6439V63.5334C71.152 76.8131 71.168 77.4427 71.5174 77.8742C72.0252 78.5013 73.2084 78.5013 73.7162 77.8742C74.0657 77.4427 74.0817 76.8152 74.0817 63.6285V49.834L77.1578 52.8869C78.8498 54.5662 80.445 56.0474 80.7028 56.1787C82.142 56.9119 84.4098 56.1209 85.1657 54.622C85.5985 53.7636 85.6051 53.6383 85.6051 46.2961V38.8418L86.218 38.5879C87.0555 38.241 88.7844 36.5162 89.2918 35.5215C89.8729 34.3824 90.2926 32.6553 90.2926 31.4029C90.2926 29.7562 90.6428 28.9174 91.9174 27.5109C92.5551 26.8072 93.3514 25.6523 93.6868 24.9445C94.2366 23.7844 94.2965 23.4748 94.2965 21.8021C94.2965 20.1258 94.2371 19.8213 93.6811 18.6476C93.3426 17.933 92.5704 16.8097 91.9649 16.1513C90.6063 14.6734 90.4762 14.3547 90.284 12.0328C89.8731 7.07029 87.2518 4.45037 82.2848 4.03768C79.9666 3.8449 79.6473 3.71463 78.17 2.35643C76.5119 0.832012 74.8963 0.105645 72.9584 0.0134577C72.126 -0.0261908 71.1151 0.0247858 70.7118 0.126739ZM74.1455 3.16854C74.7088 3.36053 75.5594 3.9326 76.3606 4.65877C78.166 6.2949 79.3065 6.7783 81.7846 6.9576C83.9871 7.11678 84.9092 7.44744 85.8916 8.42967C86.8739 9.41209 87.2045 10.3342 87.3637 12.5367C87.543 15.0148 88.0264 16.1553 89.6625 17.9607C92.0778 20.6256 92.0778 22.9787 89.6625 25.6435C88.0264 27.449 87.543 28.5894 87.3637 31.0676C87.2045 33.2701 86.8739 34.1922 85.8916 35.1746C84.9092 36.1568 83.9871 36.4875 81.7846 36.6467C79.3065 36.826 78.166 37.3094 76.3606 38.9455C74.9946 40.1836 73.7924 40.7474 72.5192 40.7474C71.2459 40.7474 70.0438 40.1836 68.6778 38.9455C66.8723 37.3094 65.7319 36.826 63.2537 36.6467C61.0512 36.4875 60.1291 36.1568 59.1467 35.1746C58.1645 34.1922 57.8338 33.2701 57.6746 31.0676C57.4953 28.5894 57.012 27.449 55.3758 25.6435C52.9606 22.9787 52.9606 20.6256 55.3758 17.9607C57.012 16.1553 57.4953 15.0148 57.6746 12.5367C57.8338 10.3342 58.1645 9.41209 59.1467 8.42967C60.1291 7.44744 61.0512 7.11678 63.2537 6.9576C65.7328 6.77811 66.8723 6.2949 68.6813 4.65545C70.5844 2.93084 72.1764 2.49764 74.1455 3.16854ZM64.9662 12.2189C62.8662 12.9748 61.3375 14.3943 60.3346 16.5195C59.7998 17.6527 59.7309 17.9994 59.7287 19.5654C59.7264 21.2154 59.7746 21.431 60.4563 22.8107C61.4159 24.7533 63.0473 26.4922 66.9096 29.6894C70.9614 33.0435 71.3965 33.3256 72.5192 33.3256C73.6303 33.3256 74.0409 33.0615 78.0371 29.775C81.8651 26.6271 83.6172 24.7637 84.5778 22.8193C85.2641 21.4303 85.3121 21.2164 85.3121 19.5553C85.3121 17.8937 85.2643 17.6808 84.5766 16.2896C83.2489 13.6033 80.978 12.0431 78.1571 11.8799C76.3067 11.7728 75.0135 12.0685 73.5936 12.9234L72.5032 13.5803L71.5834 12.9969C69.7186 11.814 66.984 11.4926 64.9662 12.2189ZM69.2491 15.0566C69.6252 15.2138 70.1852 15.5523 70.4936 15.8088C71.9916 17.0551 73.0467 17.0551 74.5448 15.8088C76.5731 14.1213 79.8737 14.5365 81.3823 16.6693C83.6 19.8045 82.6604 22.091 77.3403 26.5064C76.0315 27.5928 74.4612 28.9121 73.8506 29.4387C72.6563 30.4687 72.3258 30.5763 71.9082 30.0722C71.761 29.8941 70.269 28.6265 68.593 27.2551C65.2442 24.5148 63.778 23.0012 63.042 21.5246C61.5387 18.5078 63.9809 14.7709 67.4555 14.7709C68.0659 14.7709 68.8729 14.8994 69.2491 15.0566ZM57.5664 37.7025C58.1481 38.1762 58.8061 38.6217 59.0285 38.6922C59.4202 38.8164 59.4332 38.9472 59.4332 42.7136V46.6068H41.8551H24.277V41.724V36.8412H40.393H56.509L57.5664 37.7025ZM64.7543 39.8082C65.2114 39.9451 66.0575 40.5181 66.8104 41.2004C67.5141 41.8381 68.669 42.6344 69.3768 42.9697C70.5369 43.5195 70.8465 43.5795 72.5192 43.5795C74.1918 43.5795 74.5014 43.5195 75.6616 42.9697C76.3694 42.6344 77.5243 41.8381 78.228 41.2004C79.5742 39.9803 80.4809 39.5756 81.868 39.5756H82.6754V46.3877C82.6754 52.309 82.6358 53.2326 82.3719 53.4515C82.1108 53.6683 81.5744 53.2088 78.5145 50.1467C76.5598 48.1906 74.8287 46.5082 74.6676 46.408C74.5065 46.3078 73.9284 46.1252 73.3826 46.0021C72.566 45.8179 72.201 45.8336 71.3164 46.0908C70.319 46.3806 69.9815 46.6648 66.6076 50.0547C63.4678 53.2095 62.9319 53.6719 62.6682 53.4529C62.402 53.232 62.3629 52.3265 62.3629 46.3877V39.5756H63.1703C63.6145 39.5756 64.3272 39.6803 64.7543 39.8082ZM24.7045 54.0363C24.4256 54.2961 24.277 54.6668 24.277 55.1029C24.277 55.539 24.4256 55.9097 24.7045 56.1695C25.1184 56.5552 25.3563 56.5677 32.2848 56.5677C39.2133 56.5677 39.4512 56.5552 39.8651 56.1695C40.144 55.9097 40.2926 55.539 40.2926 55.1029C40.2926 54.6668 40.144 54.2961 39.8651 54.0363C39.4512 53.6506 39.2133 53.6381 32.2848 53.6381C25.3563 53.6381 25.1184 53.6506 24.7045 54.0363ZM43.8451 54.0363C43.5662 54.2961 43.4176 54.6668 43.4176 55.1029C43.4176 55.539 43.5662 55.9097 43.8451 56.1695C44.2549 56.5513 44.5063 56.5677 49.9606 56.5677C55.4149 56.5677 55.6662 56.5513 56.076 56.1695C56.3549 55.9097 56.5035 55.539 56.5035 55.1029C56.5035 54.6668 56.3549 54.2961 56.076 54.0363C55.6662 53.6545 55.4149 53.6381 49.9606 53.6381C44.5063 53.6381 44.2549 53.6545 43.8451 54.0363ZM24.7045 59.8957C24.4256 60.1554 24.277 60.5261 24.277 60.9623C24.277 61.3984 24.4256 61.7691 24.7045 62.0289C25.1184 62.4146 25.3563 62.4271 32.2848 62.4271C39.2133 62.4271 39.4512 62.4146 39.8651 62.0289C40.144 61.7691 40.2926 61.3984 40.2926 60.9623C40.2926 60.5261 40.144 60.1554 39.8651 59.8957C39.4512 59.5099 39.2133 59.4974 32.2848 59.4974C25.3563 59.4974 25.1184 59.5099 24.7045 59.8957ZM43.8451 59.8957C43.5662 60.1554 43.4176 60.5261 43.4176 60.9623C43.4176 61.3984 43.5662 61.7691 43.8451 62.0289C44.2549 62.4107 44.5063 62.4271 49.9606 62.4271C55.4149 62.4271 55.6662 62.4107 56.076 62.0289C56.3549 61.7691 56.5035 61.3984 56.5035 60.9623C56.5035 60.5261 56.3549 60.1554 56.076 59.8957C55.6662 59.5138 55.4149 59.4974 49.9606 59.4974C44.5063 59.4974 44.2549 59.5138 43.8451 59.8957ZM24.7045 65.7551C24.4256 66.0148 24.277 66.3855 24.277 66.8217C24.277 67.2578 24.4256 67.6285 24.7045 67.8883C25.1184 68.274 25.3563 68.2865 32.2848 68.2865C39.2133 68.2865 39.4512 68.274 39.8651 67.8883C40.144 67.6285 40.2926 67.2578 40.2926 66.8217C40.2926 66.3855 40.144 66.0148 39.8651 65.7551C39.4512 65.3693 39.2133 65.3568 32.2848 65.3568C25.3563 65.3568 25.1184 65.3693 24.7045 65.7551ZM43.8451 65.7551C43.5662 66.0148 43.4176 66.3855 43.4176 66.8217C43.4176 67.2578 43.5662 67.6285 43.8451 67.8883C44.259 68.274 44.4969 68.2865 51.4254 68.2865C58.3539 68.2865 58.5918 68.274 59.0057 67.8883C59.2846 67.6285 59.4332 67.2578 59.4332 66.8217C59.4332 66.3855 59.2846 66.0148 59.0057 65.7551C58.5918 65.3693 58.3539 65.3568 51.4254 65.3568C44.4969 65.3568 44.259 65.3693 43.8451 65.7551ZM36.1164 72.7881C34.8805 73.0986 33.1215 74.1396 32.2676 75.066C31.8291 75.5418 31.192 76.5183 30.8522 77.2357C30.2924 78.4172 30.234 78.7166 30.234 80.406C30.234 82.1668 30.275 82.3545 30.9635 83.7474C31.842 85.5252 32.9729 86.6324 34.7887 87.4925C35.9739 88.0541 36.2633 88.1101 37.9489 88.1039C39.4614 88.0984 39.9938 88.0127 40.8297 87.6404L41.8551 87.1838L42.8805 87.6404C43.7176 88.0133 44.2483 88.0984 45.7715 88.1039C47.5387 88.1103 47.7149 88.0722 49.1129 87.3812C50.8907 86.5027 51.9979 85.3718 52.858 83.556C53.417 82.3761 53.4762 82.0738 53.4762 80.3959C53.4762 78.7179 53.417 78.4156 52.858 77.2357C51.9979 75.4199 50.8907 74.289 49.1129 73.4105C47.7149 72.7195 47.5387 72.6814 45.7715 72.6879C44.2483 72.6933 43.7176 72.7785 42.8805 73.1513L41.8551 73.608L40.8424 73.1724C39.6891 72.6763 37.3264 72.4842 36.1164 72.7881ZM39.0303 75.6254C39.4129 75.7281 39.4016 75.7855 38.7373 77.124C38.0907 78.4267 38.0465 78.6359 38.0465 80.3959C38.0465 82.1558 38.0907 82.365 38.7373 83.6677C39.4016 85.0062 39.4129 85.0636 39.0303 85.1664C37.6018 85.5502 35.683 84.9761 34.5258 83.8189C32.6137 81.9068 32.6151 78.8834 34.5293 76.9693C35.6875 75.8111 37.5983 75.2406 39.0303 75.6254ZM47.4223 75.8365C49.2239 76.4504 50.6442 78.4603 50.6442 80.3959C50.6442 83.3994 47.4909 85.9216 44.6799 85.1664C44.2973 85.0636 44.3086 85.0062 44.9729 83.6677C45.6196 82.365 45.6637 82.1558 45.6637 80.3959C45.6637 78.6345 45.62 78.4273 44.9703 77.1187C44.2034 75.5738 44.2016 75.5777 45.6778 75.5357C46.1151 75.5232 46.9002 75.6586 47.4223 75.8365ZM42.4793 78.6543C42.6614 79.1287 42.8104 79.9125 42.8104 80.3959C42.8104 81.4638 42.2424 83.0326 41.8557 83.0326C41.3735 83.0326 40.8278 81.2265 40.936 79.9881C41.041 78.7832 41.5534 77.5935 41.9155 77.714C42.0434 77.7566 42.2971 78.1797 42.4793 78.6543Z" fill="white"></path>
  </g>
</svg>
