<?xml version="1.0" encoding="UTF-8"?>
<svg xmlns="http://www.w3.org/2000/svg" width="100" height="100" viewBox="0 0 100 100" fill="none">
  <g opacity="0.8" clip-path="url(#clip0_1977_365)">
    <path fill-rule="evenodd" clip-rule="evenodd" d="M3.52338 15.3746C2.99545 15.5609 2.24837 16.0843 1.63529 16.6974C-0.134828 18.4674 0.00247654 15.6691 0.00247654 49.9963C0.00247654 84.3172 -0.134047 81.5257 1.63158 83.2916C3.4683 85.1281 -1.49636 84.9572 50.0025 84.9572C101.501 84.9572 96.5367 85.1281 98.3734 83.2916C100.068 81.5968 100.002 82.2691 100.002 66.5535V52.9082L99.523 52.4289C98.9121 51.8177 98.1632 51.8177 97.5523 52.4289L97.0728 52.9082V66.5009C97.0728 81.5021 97.1247 80.8631 95.8425 81.6447C95.2273 82.0201 94.5029 82.0261 50.0415 82.0267C0.121809 82.0275 4.12923 82.133 3.31498 80.7972C2.94115 80.1843 2.93353 79.5808 2.93295 50.0353C2.93216 16.7482 2.8388 19.1549 4.16244 18.3478C4.77767 17.9724 5.50169 17.9664 50.0025 17.9664C94.5033 17.9664 95.2273 17.9724 95.8425 18.3478C97.1247 19.1295 97.0728 18.4904 97.0728 33.4916V47.0843L97.5523 47.5636C98.1632 48.1748 98.9121 48.1748 99.523 47.5636L100.002 47.0843V33.439C100.002 17.7234 100.068 18.3957 98.3734 16.7009C96.5359 14.8636 101.516 15.0332 49.9189 15.0508C8.97142 15.0646 4.30931 15.0972 3.52338 15.3746ZM15.3249 25.4314C13.979 26.1109 13.566 27.0879 13.5714 29.5787C13.5765 31.8925 13.9497 32.9609 14.9718 33.5873C15.6078 33.9771 15.8488 33.9826 30.3972 33.9332L88.4788 33.883L89.0013 33.3947C89.9362 32.5211 90.0725 32.0285 90.0725 29.5271C90.0725 26.9783 89.872 26.4138 88.6423 25.5025C88.0964 25.0978 44.6507 25.0933 30.4962 25.0408L16.2039 24.9877L15.3249 25.4314ZM87.1429 29.4884V31.0509H30.1687H16.4968V29.6187C16.4968 28.8308 16.5554 28.1277 16.6271 28.0562C16.6986 27.9845 22.8509 27.9259 30.299 27.9259H87.1429V29.4884ZM14.0531 37.8894C13.5656 38.4281 13.5998 39.3734 14.1255 39.8998C14.4984 40.2728 14.8079 40.3371 16.5175 40.3959C18.8408 40.4759 19.704 40.3437 20.2187 39.8291C20.7117 39.3361 20.7031 38.4636 20.2001 37.9238C19.8277 37.5238 19.6279 37.4963 17.1054 37.4963C14.6511 37.4963 14.3769 37.5316 14.0531 37.8894ZM23.8513 37.8535C23.3874 38.366 23.4349 39.4998 23.939 39.9562C24.3304 40.3105 24.8378 40.331 34.5347 40.3859C40.1363 40.4175 88.6858 40.3908 89.0409 40.3261C90.3364 40.0908 90.9013 38.7328 90.0554 37.8869C89.6741 37.5056 45.7287 37.4963 35.0818 37.4963C24.763 37.4963 24.1572 37.5156 23.8513 37.8535ZM23.9187 44.1369C23.3923 44.6633 23.4027 45.7207 23.9392 46.2062C24.3331 46.5627 24.8046 46.5783 35.1869 46.5783H89.6993L90.0725 46.1172C90.5581 45.5177 90.5477 44.7103 90.0477 44.1738L89.6495 43.7463H35.1415C24.5697 43.7463 24.2999 43.7556 23.9187 44.1369ZM14.183 50.3381C13.9609 50.5259 13.7224 50.9193 13.6533 51.2121C13.5517 51.6406 13.6455 51.8625 14.1335 52.3506L14.74 52.957L17.2962 52.8926C19.7087 52.832 19.8736 52.8023 20.2255 52.3672C20.7306 51.7425 20.698 50.9392 20.1464 50.4209C19.7298 50.0297 19.4937 49.9963 17.1406 49.9963C14.9927 49.9963 14.5228 50.0506 14.183 50.3381ZM23.9187 50.3869C23.3345 50.9711 23.3978 52.0138 24.0488 52.5259C24.5652 52.9322 24.6593 52.9351 35.2966 52.882L89.6995 52.8283L90.0727 52.3672C90.5782 51.7427 90.5456 50.9392 89.994 50.4209L89.5419 49.9963H35.0878C24.5697 49.9963 24.2999 50.0056 23.9187 50.3869ZM23.9187 56.6369C23.3371 57.2185 23.3978 58.2638 24.0427 58.7711C24.549 59.1695 24.729 59.1759 35.1843 59.1759H45.8115L46.2908 58.6965C46.906 58.0814 46.9175 57.234 46.3183 56.6709L45.8662 56.2463H35.0878C24.5697 56.2463 24.2999 56.2556 23.9187 56.6369ZM14.2888 62.7133C13.3873 63.2377 13.4972 64.7627 14.4685 65.2052C14.7423 65.33 15.9705 65.4259 17.2962 65.4259C19.5238 65.4259 19.6632 65.4023 20.1189 64.9465C20.3826 64.6828 20.5984 64.2394 20.5984 63.9611C20.5984 63.6828 20.3826 63.2394 20.1189 62.9757C19.6591 62.5158 19.5373 62.4965 17.1404 62.5021C15.7603 62.5054 14.4835 62.6 14.2888 62.7133ZM23.9187 62.8869C23.3371 63.4685 23.3978 64.5138 24.0427 65.0211C24.549 65.4195 24.729 65.4259 35.1843 65.4259H45.8115L46.2908 64.9465C46.906 64.3314 46.9175 63.484 46.3183 62.9209L45.8662 62.4963H35.0878C24.5697 62.4963 24.2999 62.5056 23.9187 62.8869ZM23.9556 69.1445C23.3359 69.7218 23.3779 70.7482 24.0427 71.2711C24.549 71.6695 24.729 71.6759 35.1843 71.6759H45.8115L46.2908 71.1965C46.5544 70.9328 46.7703 70.4894 46.7703 70.2111C46.7703 69.9328 46.5544 69.4894 46.2908 69.2257L45.8115 68.7463H35.0972C24.5847 68.7463 24.3749 68.7537 23.9556 69.1445Z" fill="white"></path>
    <path d="M53.0695 61.1091C52.9123 60.8129 53.0181 60.5831 53.3869 60.4199C53.7375 60.2627 54.1032 60.0421 54.4841 59.7579C54.865 59.4738 55.1763 59.1806 55.4181 58.8783C55.6902 58.5398 55.9501 58.3705 56.198 58.3705H57.6398C58.0025 58.3705 58.1839 58.5519 58.1839 58.9146V70.8845C58.1839 71.2472 58.0025 71.4286 57.6398 71.4286H56.1889C55.8262 71.4286 55.6448 71.2472 55.6448 70.8845V62.2607C55.6448 62.0189 55.6569 61.7771 55.6811 61.5353H55.6448C55.4574 61.7711 55.2519 61.9736 55.0282 62.1428C54.8045 62.3121 54.5778 62.4451 54.3481 62.5418C54.0639 62.6627 53.8493 62.5842 53.7042 62.3061L53.0695 61.1091Z" fill="white"></path>
    <path d="M62.9972 71.4286C62.5438 71.4286 62.3171 71.2321 62.3171 70.8391V70.4039C62.3171 70.0895 62.4622 69.7782 62.7524 69.4699L65.4637 66.6134C66.2799 65.7489 67.0265 64.9812 67.7036 64.3101C68.3806 63.633 68.7192 62.9499 68.7192 62.2607C68.7192 61.5716 68.5469 61.0668 68.2023 60.7464C67.8638 60.4199 67.4315 60.2567 66.9056 60.2567C66.0713 60.2567 65.4909 60.4501 65.1645 60.837C64.838 61.2239 64.6023 61.6381 64.4572 62.0794C64.3181 62.5086 64.0642 62.6627 63.6955 62.5418L62.7796 62.2335C62.4834 62.1308 62.3987 61.8466 62.5257 61.3811C62.7614 60.5166 63.2421 59.7761 63.9675 59.1594C64.6929 58.5368 65.769 58.2254 67.1957 58.2254C68.6829 58.2254 69.762 58.6093 70.433 59.3771C71.1041 60.1388 71.4396 60.967 71.4396 61.8617C71.4396 63.0345 70.9499 64.0653 69.9706 64.9539C68.9912 65.8366 68.1025 66.698 67.3046 67.5384L65.763 69.1615V69.2159C66.1257 69.1918 66.428 69.1797 66.6698 69.1797H70.9046C71.358 69.1797 71.5847 69.3761 71.5847 69.7691V70.8391C71.5847 71.2321 71.358 71.4286 70.9046 71.4286H62.9972Z" fill="white"></path>
    <path d="M75.464 70.5036C75.2282 70.3041 75.2101 70.02 75.4096 69.6512L75.8267 68.8895C76.0262 68.5207 76.3497 68.4935 76.797 68.8079C77.1718 69.0739 77.595 69.2915 78.0666 69.4608C78.5381 69.624 79.064 69.7056 79.6444 69.7056C80.4424 69.7056 81.0137 69.491 81.3583 69.0618C81.7029 68.6265 81.8751 68.1399 81.8751 67.6018C81.8751 67.0517 81.6696 66.559 81.2585 66.1237C80.8535 65.6824 80.2792 65.4618 79.5356 65.4618H78.8373C78.4444 65.4618 78.2479 65.3016 78.2479 64.9812V63.9837C78.2479 63.6512 78.4444 63.4849 78.8373 63.4849H79.3814C79.9376 63.4849 80.4273 63.3126 80.8505 62.968C81.2797 62.6235 81.4943 62.1912 81.4943 61.6713C81.4943 61.2663 81.3522 60.9307 81.0681 60.6647C80.79 60.3927 80.3336 60.2567 79.6988 60.2567C79.1003 60.2567 78.5834 60.3443 78.1482 60.5197C77.7129 60.695 77.3683 60.9066 77.1144 61.1544C76.7517 61.5111 76.4403 61.496 76.1804 61.1091L75.6544 60.3383C75.4549 60.0481 75.5154 59.7519 75.8358 59.4496C76.2711 59.0325 76.8333 58.7242 77.5225 58.5247C78.2116 58.3252 78.8857 58.2254 79.5446 58.2254C81.0983 58.2254 82.253 58.5368 83.0087 59.1594C83.7643 59.7761 84.1422 60.5317 84.1422 61.4265C84.1422 62.0915 83.8822 62.699 83.3623 63.2491C82.8424 63.7932 82.2923 64.168 81.7119 64.3736V64.4099C82.4011 64.5791 83.054 64.9509 83.6706 65.5252C84.2873 66.0935 84.5956 66.8008 84.5956 67.6472C84.5956 68.9711 84.1784 69.9837 83.3442 70.685C82.5099 71.3862 81.2374 71.7369 79.5265 71.7369C78.8071 71.7369 78.0605 71.6281 77.2867 71.4104C76.5189 71.1867 75.9114 70.8845 75.464 70.5036Z" fill="white"></path>
  </g>
  <defs>
    <clipPath id="clip0_1977_365">
      <rect width="100" height="100" fill="white"></rect>
    </clipPath>
  </defs>
</svg>
