<?xml version="1.0" encoding="UTF-8"?>
<svg xmlns="http://www.w3.org/2000/svg" width="100" height="100" viewBox="0 0 100 100" fill="none">
  <g opacity="0.8" clip-path="url(#clip0_1964_705)">
    <path fill-rule="evenodd" clip-rule="evenodd" d="M98 38.0234V69.0781H78.3023H58.6045L57.691 70.2408C57.1887 70.8803 56.5176 71.5887 56.1994 71.815L55.6213 72.2268L55.5705 80.6332L55.5195 89.0395L51.8332 86.09C49.8057 84.4678 48.0809 83.1406 48 83.1406C47.9191 83.1406 46.1943 84.4678 44.1668 86.09L40.4805 89.0395L40.4295 80.6332L40.3787 72.2268L39.8006 71.815C39.4824 71.5887 38.8113 70.8803 38.309 70.2408L37.3955 69.0781H29.0176H20.6398L20.6969 67.5645L20.7539 66.0508L28.4398 65.9996C35.6506 65.9518 36.1176 65.9275 35.9902 65.609C35.9154 65.4223 35.8064 64.7641 35.7477 64.1465L35.641 63.0234H19.8478H4.05469V38.0234V9.05469H48H91.9453V38.0223V63.0211L76.1738 63.0711L60.4023 63.1211L60.2822 64.1047C60.2162 64.6457 60.1004 65.2828 60.025 65.5207L59.8877 65.9531H77.3814H94.875V37.9258V5.92969H89.6016H84.3281V4.46484V3H91.1641H98V38.0234ZM81.3984 4.46484V5.92969H41.2617H1.125V37.9236V65.9488L9.37695 65.9998L17.6289 66.0508L17.6859 67.5645L17.743 69.0781H7.87148H-2V38.0234V3H39.6992H81.3984V4.46484ZM7.17969 37.9258V59.8984H21.4908H35.802L36.2826 58.4824C36.5469 57.7035 37.1861 56.4326 37.7031 55.6578C42.635 48.2684 53.3732 48.2934 58.3309 55.7059C58.8666 56.5068 59.5033 57.7779 59.7457 58.5303L60.1863 59.8984H74.5033H88.8203V37.9258V11.9844H48H7.17969V37.9258ZM62.8721 16.9123C64.0744 17.302 65.0865 18.0822 66.4293 19.6547C67.6117 21.0393 68.2373 21.5629 70.1129 22.7385C71.3555 23.5174 72.4162 24.1545 72.4701 24.1545C72.524 24.1545 73.4629 23.4074 74.5568 22.4943C75.6508 21.5812 76.6148 20.8342 76.6992 20.8342C76.7836 20.8342 77.2562 21.3242 77.7492 21.9232L78.6457 23.0121L77.3826 24.0838C76.6877 24.6732 76.1193 25.19 76.1193 25.2322C76.1193 25.2744 76.3352 25.6271 76.599 26.016C77.559 27.4305 77.9414 28.792 77.9414 30.7951C77.9414 31.976 77.8324 32.95 77.6416 33.4738L77.3416 34.2971L78.0324 34.525C78.9512 34.8283 80.3889 36.1725 80.832 37.1428C81.2459 38.0486 81.3094 39.849 80.9678 40.9891C80.6576 42.0246 79.4506 43.3504 78.3455 43.8699C77.1676 44.4236 75.301 44.4473 74.1244 43.9234C72.9115 43.3836 71.7131 41.991 71.3314 40.6777L71.016 39.5928L69.9055 39.707C67.6703 39.9369 64.4922 38.8482 63.0531 37.36L62.3891 36.6734L61.1 37.7498L59.8107 38.826L58.8852 37.7891C58.3762 37.2188 57.9629 36.6643 57.9668 36.5568C57.9707 36.4494 58.651 35.8088 59.4783 35.1332C60.3057 34.4578 61.2186 33.6979 61.5068 33.4447L62.0311 32.9844L60.9521 30.3838C60.0656 28.2463 59.65 27.5152 58.6203 26.2807C57.9311 25.4543 57.1937 24.3963 56.9818 23.9293C56.5076 22.8838 56.4631 20.9262 56.8906 19.9002C57.2689 18.9922 58.4107 17.7939 59.3689 17.2992C60.2004 16.8701 62.0957 16.6605 62.8721 16.9123ZM60.6195 20.076C60.3561 20.1959 59.9879 20.5773 59.8016 20.9236C59.2607 21.9277 59.5301 22.6625 61.1318 24.5533C62.3488 25.9898 62.6777 26.552 63.5 28.6002L64.4549 30.9789L65.5541 30.0568C66.1586 29.5498 67.377 28.5277 68.2613 27.7854C69.1457 27.0432 69.8693 26.3715 69.8693 26.2926C69.8693 26.2137 68.9244 25.5566 67.7697 24.8326C66.4437 24.0012 65.4023 23.1838 64.9434 22.6145C63.1418 20.3797 62.5473 19.8576 61.8041 19.8576C61.416 19.8576 60.883 19.9559 60.6195 20.076ZM52.5 22C52.5 22 52.4922 22.9109 52.4922 23.6988V25.1311H20.2656H11.6719V23.5686V22.0061H20.1354C24.7904 22.0061 52.5 22 52.5 22ZM69.2291 30.9205C66.842 32.923 64.8629 34.6271 64.8311 34.7074C64.7203 34.9863 66.2496 36.0674 67.2027 36.384C68.4633 36.8027 70.6434 36.6752 71.7248 36.1195C74.5105 34.6879 75.7113 31.2766 74.4324 28.427C74.1492 27.7959 73.8393 27.2795 73.7434 27.2795C73.6477 27.2795 71.6162 28.918 69.2291 30.9205ZM43.3775 28.191C43.4492 28.2625 43.5078 28.9656 43.5078 29.7535V31.1857H17.2383H11.6719V29.6232V28.0607H17.108C20.098 28.0607 43.3061 28.1193 43.3775 28.191ZM48.7725 35.7756V37.2404H17.2383H11.6719V35.7756V34.3107H17.2383H48.7725V35.7756ZM75.0191 37.5865C73.9365 38.4635 73.8705 39.7182 74.8553 40.7029C75.4781 41.3258 75.6217 41.3816 76.35 41.284C76.8328 41.2191 77.3449 40.9863 77.6285 40.7027C77.9121 40.4191 78.1449 39.907 78.2098 39.4242C78.3074 38.6959 78.2516 38.5523 77.6287 37.9295C77.076 37.3768 76.7908 37.2412 76.1877 37.2447C75.7721 37.2473 75.2494 37.4 75.0191 37.5865ZM53.3145 41.8303V43.2951H19.1914H11.6719V41.8303V40.3654H19.1914H53.3145V41.8303ZM66.4293 47.885V49.3498H22.2188H11.6719V47.885V46.4201H22.2188H66.4293V47.885ZM44.9885 53.6428C42.6457 54.4492 40.7377 56.1242 39.6248 58.3514C37.6371 62.3287 38.7631 67.2156 42.2828 69.8887C43.9502 71.1551 45.3549 71.6563 47.5482 71.7672C49.7945 71.8809 51.5254 71.4066 53.3145 70.1877C58.1541 66.8898 58.7447 60.0809 54.5557 55.8779C53.2701 54.5885 51.5123 53.617 49.8535 53.2797C48.5117 53.0068 46.3721 53.1666 44.9885 53.6428ZM50.2848 56.5982C54.0348 58.0398 55.4793 62.7037 53.2219 66.0814C51.5678 68.5566 48.1652 69.5131 45.4639 68.2625L44.4832 67.8086L45.2932 66.5836C45.9863 65.5352 46.1623 65.3805 46.5145 65.5094C46.7406 65.5924 47.4531 65.6602 48.0977 65.6602C49.4961 65.6602 50.3344 65.167 50.9342 63.9914C51.9037 62.0908 50.9094 59.927 48.7725 59.2867C47.7852 58.991 46.701 59.2883 45.7625 60.1123C44.9775 60.8016 44.6213 61.7361 44.7121 62.8676L44.7773 63.6805L43.6125 64.1332C42.9719 64.3822 42.3406 64.5859 42.2098 64.5859C41.8586 64.5859 41.6951 63.8822 41.7043 62.4115C41.7314 58.0602 46.2047 55.0295 50.2848 56.5982ZM48 74.9309C47.0529 74.9307 44.9096 74.5748 43.8711 74.2453C43.5246 74.1353 43.5078 74.3246 43.5078 78.3424C43.5078 80.6592 43.5551 82.5547 43.6131 82.5547C43.6709 82.5547 44.6469 81.8076 45.782 80.8945C46.917 79.9814 47.9031 79.2344 47.9734 79.2344C48.0436 79.2344 49.0891 80.0277 50.2967 80.9973L52.4922 82.7602V78.4961V74.232L50.7832 74.5814C49.8432 74.7736 48.5908 74.9309 48 74.9309Z" fill="white"></path>
  </g>
  <defs>
    <clipPath id="clip0_1964_705">
      <rect width="100" height="100" fill="white" transform="matrix(-1 0 0 1 100 0)"></rect>
    </clipPath>
  </defs>
</svg>
