<?xml version="1.0" encoding="UTF-8"?>
<svg xmlns="http://www.w3.org/2000/svg" width="70" height="70" viewBox="0 0 70 70" fill="none">
  <path fill-rule="evenodd" clip-rule="evenodd" d="M14.0702 2.98972C12.2271 3.20587 10.7764 3.80265 9.38838 4.91595C8.24254 5.83511 7.46981 6.79528 6.81534 8.11325C5.99434 9.76673 5.87211 10.5895 5.86938 14.4837C5.86719 17.7485 5.85858 17.8538 5.57379 18.1067C5.08174 18.5437 4.72573 19.5145 4.72627 20.4179C4.72709 21.6665 5.30692 22.5986 6.5419 23.3369C6.98145 23.5997 7.0278 23.6982 7.26446 24.8692C7.75938 27.319 8.73746 29.1235 10.5396 30.9121L11.746 32.1093V33.4501V34.791L7.4735 36.0647C5.12371 36.7651 2.87551 37.4953 2.4778 37.6872C1.62385 38.0991 0.776878 38.9711 0.357425 39.8703C0.0626592 40.5023 0.0556865 40.6474 0.0172686 46.9508C-0.0211494 53.2682 -0.0167744 53.3925 0.259261 53.7434C0.41389 53.94 0.67762 54.1203 0.845374 54.1441L1.15026 54.1875L1.1858 60.3307C1.21766 65.8075 1.24582 66.5008 1.44625 66.7223C1.76535 67.0747 2.6059 67.0527 2.94059 66.683C3.18723 66.4105 3.20309 66.0708 3.24055 60.2572L3.28006 54.1191H5.11633H6.95274L6.99088 60.2572C7.02711 66.0717 7.04283 66.4105 7.28961 66.683C7.65684 67.0885 8.50969 67.0794 8.79871 66.6667C9.11303 66.2182 9.12137 47.7654 8.80774 46.8764C8.58202 46.2369 6.99649 43.737 6.44264 43.1474C6.03207 42.7106 5.48657 42.6563 5.06766 43.0107C4.47799 43.5097 4.54895 43.8428 5.57735 45.4031C7.03436 47.6139 6.9608 47.3761 6.9608 49.874V52.0683H4.49412H2.02744L2.06737 46.497C2.11809 39.4273 1.91246 39.9086 5.32866 38.8629C6.40436 38.5337 7.29563 38.2787 7.3093 38.2962C7.32297 38.3137 7.44328 38.6665 7.57659 39.08C8.14096 40.8295 9.26028 42.6026 10.602 43.8724C11.6481 44.8624 12.4718 45.4165 13.8414 46.0515C15.5541 46.8454 16.5947 47.0674 18.5819 47.0631C20.4789 47.059 21.5728 46.8429 23.1434 46.1623L24.0817 45.7557L24.5106 46.1623C25.0539 46.6775 25.6038 46.9515 26.3407 47.074C26.8528 47.159 26.9223 47.2137 26.9265 47.5345C26.9291 47.7346 27.0187 48.3906 27.1256 48.9922C27.5161 51.1895 29.1241 53.6718 30.8925 54.8065L31.5702 55.2413V56.1689V57.0966L29.2844 57.8707C26.7875 58.7163 26.1441 59.0958 25.4239 60.1479C24.7331 61.1567 24.597 61.8318 24.6019 64.2239C24.6065 66.4938 24.6626 66.7151 25.2929 66.9482C25.7435 67.1149 26.3025 66.8963 26.4927 66.4789C26.5851 66.2761 26.6495 65.3492 26.6513 64.1957C26.6538 62.5954 26.6993 62.1549 26.9098 61.6911C27.2101 61.0298 27.8703 60.4876 28.7329 60.1937L29.3511 59.9831L30.4265 61.0514C32.175 62.7889 33.7832 63.4689 36.1503 63.4723C38.5266 63.4757 40.4309 62.6472 42.0428 60.9086L42.9098 59.9734L43.6017 60.2032C44.4481 60.4843 45.0314 60.9576 45.3848 61.6504C45.6147 62.1013 45.6522 62.4596 45.6522 64.2124C45.6522 66.0348 45.6808 66.2865 45.9224 66.5936C46.071 66.7825 46.3083 66.9674 46.4498 67.0043C46.8641 67.1127 47.5471 66.7529 47.6416 66.3764C47.6882 66.1904 47.7052 65.0022 47.6793 63.7359C47.6361 61.6259 47.6051 61.3826 47.3077 60.8226C46.4646 59.2346 45.9009 58.8477 43.0003 57.8653L40.7303 57.0966L40.7339 56.1889L40.7374 55.2812L41.418 54.8195C42.8268 53.8638 44.3568 51.8776 44.8272 50.3935C44.9167 50.1115 45.0218 49.8808 45.0608 49.8808C45.0999 49.8808 45.418 50.1331 45.768 50.4415C49.0391 53.324 54.0429 53.7589 57.8769 51.4941C59.6096 50.4705 61.3944 48.4274 62.0761 46.6871C62.2276 46.3006 62.3931 45.9435 62.4443 45.8936C62.6243 45.7171 66.4789 47.3686 67.0574 47.8702C67.8384 48.5471 67.9374 49.0017 67.9374 51.9133V54.3925H66.0233H64.1092V53.6518C64.1092 52.7145 64.0297 52.515 63.5581 52.2712C63.0661 52.0168 62.4324 52.2175 62.214 52.6968C62.1047 52.9369 62.0585 54.9979 62.0585 59.6442C62.0585 66.0162 62.068 66.2623 62.3286 66.5936C62.6756 67.0348 63.0077 67.1161 63.5429 66.8911C63.7792 66.7917 63.9861 66.692 64.0025 66.6696C64.019 66.6472 64.0651 64.3525 64.105 61.5703L64.1776 56.5117L65.4358 56.4725L66.6942 56.4332L66.7346 61.4143C66.7728 66.089 66.7913 66.4131 67.0357 66.683C67.3703 67.0524 68.2111 67.0747 68.5296 66.7225C68.7277 66.5036 68.7585 65.8885 68.7901 61.493L68.826 56.5117L69.1309 56.4683C69.2987 56.4446 69.5645 56.2615 69.7217 56.0616C69.998 55.7104 70.0061 55.578 69.9637 52.0717C69.9213 48.5667 69.909 48.4246 69.5966 47.83C69.0915 46.8689 68.6364 46.33 67.9759 45.9111C67.641 45.6986 65.4861 44.7721 63.1876 43.8521L59.0084 42.1793L60.5677 41.7359C63.8027 40.8161 67.1084 39.1926 67.5011 38.3308C67.6239 38.0614 67.5863 37.3608 67.3269 35.0816C66.9426 31.7032 66.6219 27.1132 66.4456 22.4687C66.3138 18.9941 66.1603 18.0576 65.4241 16.2348C64.0849 12.9193 60.9833 9.87556 57.6163 8.57263C54.391 7.32452 50.722 7.32452 47.4967 8.57263C44.1942 9.85067 41.1235 12.8191 39.7913 16.0213C38.9136 18.1313 38.8138 18.7918 38.6011 23.8935C38.4932 26.4817 38.3898 28.6124 38.3714 28.6284C38.1897 28.785 36.3123 29.6465 36.1526 29.6465C35.9958 29.6465 29.7428 26.6091 29.5533 26.4408C29.5344 26.424 29.608 26.1142 29.717 25.7524C29.8258 25.3905 29.9564 24.7626 30.0071 24.3571C30.0912 23.6843 30.1427 23.5972 30.5954 23.3638C31.768 22.7592 32.4535 21.6421 32.445 20.3496C32.439 19.4189 32.2267 18.8451 31.6193 18.1174C31.2974 17.7317 31.2967 17.7231 31.2967 13.9382C31.2967 10.8512 31.2559 10.0071 31.0768 9.40278C30.7778 8.39352 30.346 7.69462 29.5202 6.88278C29.1378 6.50681 28.6795 5.882 28.5021 5.4944C27.8939 4.16686 26.6208 3.23854 25.0574 2.98247C24.1263 2.82989 15.3835 2.83577 14.0702 2.98972ZM25.4862 5.19581C26.0932 5.53186 26.5933 6.1285 26.7856 6.74606C26.9008 7.11657 27.2516 7.57936 27.8737 8.18161C29.2003 9.46567 29.246 9.64874 29.246 13.6747V16.9316H28.5688C27.7389 16.9316 27.2732 17.1299 27.0735 17.5683C26.8617 18.0333 26.882 18.2113 27.1911 18.6044C27.4292 18.9071 27.5887 18.9542 28.5673 19.0108C29.535 19.0669 29.7193 19.1202 30.0343 19.4351C30.282 19.6828 30.3944 19.9402 30.3944 20.2598C30.3944 20.9886 30.0415 21.3914 29.1848 21.6405C28.7709 21.7608 28.3755 21.9656 28.3062 22.0956C28.2368 22.2256 28.11 22.9099 28.0242 23.6163C27.833 25.1923 27.479 26.2892 26.7771 27.4807C25.4273 29.7718 23.1219 31.4327 20.5307 31.9807C19.5131 32.196 17.6391 32.1935 16.6081 31.9755C13.3497 31.2868 10.6789 28.8698 9.54971 25.5877C9.40233 25.1593 9.21967 24.2606 9.14366 23.5901C9.06778 22.9198 8.94391 22.256 8.86858 22.1152C8.79065 21.9696 8.40715 21.7649 7.97895 21.6405C7.11174 21.3884 6.76366 20.982 6.78444 20.2465C6.7936 19.9256 6.91473 19.6499 7.1503 19.4143C7.48184 19.0829 7.60461 19.0576 9.22541 18.988C10.7065 18.9244 10.9747 18.8777 11.1373 18.6552C11.2412 18.5128 11.5488 17.7284 11.8209 16.9121L12.3154 15.4277L13.3638 15.4274C15.681 15.4267 19.8017 14.911 22.2637 14.3137C25.1076 13.6237 26.6483 12.8858 26.6483 12.2136C26.6483 11.8081 26.3125 11.3155 25.9755 11.2267C25.5044 11.1027 25.2709 11.1485 24.392 11.5372C22.3325 12.4481 18.315 13.1213 13.4837 13.3653C11.6083 13.4599 11.1403 13.5246 10.9263 13.7182C10.7822 13.8485 10.4413 14.6249 10.1685 15.4434L9.67262 16.9316H8.79516H7.91783V14.0892C7.91783 12.013 7.97266 11.0362 8.12141 10.4652C8.86967 7.59276 11.2557 5.44204 14.1385 5.04145C14.5897 4.97884 17.2352 4.93673 20.0174 4.94808C24.4505 4.96612 25.1268 4.99675 25.4862 5.19581ZM54.9206 9.89976C57.1802 10.3593 59.1744 11.4516 60.8954 13.1728C62.2027 14.48 62.7565 15.3004 63.4958 17.0247C64.1654 18.5865 64.3536 19.7714 64.4476 23.0156C64.559 26.8661 64.7427 29.8063 65.0922 33.3379C65.2522 34.9546 65.3888 36.5542 65.3956 36.8925L65.4081 37.5078L64.451 38.0172C62.8553 38.8666 59.1889 40.1738 58.4022 40.1738C58.2839 40.1738 58.2309 39.9287 58.2321 39.3877L58.2337 38.6015L58.9883 38.1277C59.8532 37.5846 61.462 36.0099 62.0701 35.1111C64.6491 31.2994 64.8117 26.1 62.4261 23.7189C61.2327 22.5276 59.6112 21.8748 55.9341 21.1054C52.011 20.2844 50.5447 19.7658 48.7967 18.5804C48.4584 18.351 48.023 18.163 47.8293 18.1626C47.3533 18.1618 46.9312 18.6563 46.8186 19.3472C46.5947 20.7202 45.3062 22.0431 43.6418 22.6089C42.5803 22.9697 42.2342 23.2725 42.2342 23.8406C42.2342 24.3656 42.6631 24.8623 43.1146 24.8598C43.569 24.8575 44.5851 24.5106 45.5192 24.0392C46.517 23.5354 47.8046 22.316 48.2402 21.4623C48.4039 21.1413 48.5809 20.9012 48.6332 20.9289C50.3493 21.835 51.9511 22.3562 55.0308 23.0103C59.0556 23.8652 60.143 24.2835 61.066 25.332C61.7897 26.1542 61.9917 26.9084 61.9833 28.7578C61.9753 30.4737 61.7182 31.4766 60.8663 33.1125C60.1028 34.5784 58.3762 36.2537 56.8631 36.9967C55.228 37.7997 54.1448 38.0232 52.2147 37.9558C50.4622 37.8946 49.0773 37.5127 47.7682 36.7297C47.1527 36.3615 46.9997 36.1738 46.5506 35.2369C46.0487 34.19 45.0237 32.7095 44.4402 32.1887C44.1625 31.941 44.1483 31.8077 44.1483 29.4631C44.1483 27.1203 44.1335 26.9824 43.8511 26.6816C43.4375 26.2415 43.0763 26.2825 41.8241 26.9121C41.2258 27.2129 40.6889 27.4591 40.6308 27.4592C40.5727 27.4594 40.541 27.1055 40.5603 26.6731C40.5794 26.2405 40.6535 24.4101 40.7247 22.6054C40.8684 18.9664 40.9762 18.3775 41.8327 16.5428C42.5311 15.0468 43.3712 13.8883 44.5359 12.8147C46.0536 11.4158 48.1472 10.3221 50.0956 9.91015C51.3742 9.63985 53.6184 9.63507 54.9206 9.89976ZM32.0473 29.9515C32.9879 30.4201 33.7577 30.8366 33.7577 30.8769C33.7577 30.9473 30.4081 32.6543 30.27 32.6543C30.2331 32.6543 30.203 31.8545 30.203 30.8769C30.203 29.8994 30.2331 29.0996 30.27 29.0996C30.3068 29.0996 31.1066 29.4829 32.0473 29.9515ZM42.0975 30.8769C42.0975 31.8545 42.0674 32.6543 42.0305 32.6543C41.8924 32.6543 38.5428 30.9472 38.5428 30.8769C38.5428 30.7997 41.8177 29.1212 41.995 29.1075C42.0514 29.1031 42.0975 29.8994 42.0975 30.8769ZM27.3527 32.7885C26.9072 33.3189 26.3051 34.1978 26.0146 34.7417L25.4862 35.7304L25.448 33.9292L25.41 32.1279L26.7469 30.7846L28.0838 29.4414L28.1231 30.6327L28.1623 31.8241L27.3527 32.7885ZM39.6366 33.748C41.44 34.6504 43.0562 35.3886 43.2281 35.3886C43.4 35.3886 43.6698 35.2981 43.8277 35.1875C44.1035 34.9945 44.1346 35.0258 44.6111 35.9737C45.3369 37.4177 45.6522 38.8253 45.6522 40.6215V42.1193L46.1123 42.5479C46.7218 43.1157 46.8976 43.4832 46.7979 43.9811C46.649 44.726 46.1966 44.9976 44.9534 45.0891C43.4825 45.1971 43.3288 45.3702 43.3259 46.9224C43.3203 50.0082 41.8183 52.4558 39.1421 53.74C38.0828 54.2482 37.8583 54.3041 36.6362 54.3629C34.3434 54.4733 32.6284 53.8278 31.104 52.2808C29.6586 50.8138 28.9725 49.0482 28.9725 46.7947C28.9725 45.3859 28.7907 45.1952 27.3471 45.0891C26.4551 45.0235 26.1753 44.9475 25.9108 44.6991C25.2725 44.0994 25.3868 43.113 26.1476 42.6558C26.4807 42.4558 26.9596 42.377 28.2337 42.3126C33.1758 42.0631 38.6776 40.786 41.755 39.1741C43.0012 38.5214 43.2744 38.117 42.9091 37.4661C42.5394 36.8074 42.1079 36.7807 40.9071 37.3419C37.8323 38.779 34.4708 39.6303 29.9979 40.1046C28.9452 40.2163 27.7523 40.3082 27.3472 40.309L26.6106 40.3105L26.6992 39.4451C26.748 38.9692 26.8825 38.2154 26.9983 37.7703C27.2146 36.9379 28.1258 34.9785 28.2964 34.9785C28.3491 34.9785 28.4687 35.0708 28.5624 35.1836C28.656 35.2964 28.8942 35.3854 29.0917 35.3813C29.2894 35.3773 30.8968 34.6423 32.6639 33.748C34.431 32.8537 35.985 32.1187 36.1172 32.1148C36.2494 32.1107 37.8331 32.8457 39.6366 33.748ZM17.3275 34.1411C18.9367 34.3207 20.7017 34.1316 22.2391 33.615L23.3877 33.229L23.3433 35.0266C23.3036 36.6244 23.2592 36.9077 22.9436 37.5761C21.5147 40.6023 17.5505 41.2882 15.1706 38.921C14.8428 38.595 14.4148 37.9897 14.2197 37.5761C13.9046 36.9081 13.8602 36.6236 13.8205 35.0266L13.7761 33.229L14.9247 33.615C15.5563 33.8273 16.6376 34.064 17.3275 34.1411ZM12.0601 37.614C12.3198 38.4375 13.094 39.7852 13.635 40.3552C13.8368 40.5677 14.3618 40.9825 14.8016 41.2767C17.0601 42.7879 20.1842 42.7642 22.4422 41.2191C23.1964 40.7029 24.1243 39.7265 24.5292 39.023C24.6257 38.8554 24.6521 39.1405 24.6187 39.9924C24.5828 40.9148 24.5136 41.2636 24.3256 41.4726C23.9381 41.903 23.5039 42.8026 23.5017 43.1796C23.4986 43.6814 23.372 43.8154 22.5425 44.1951C21.2465 44.7881 20.141 45.013 18.5135 45.0146C16.8333 45.0162 16.0019 44.8232 14.4154 44.063C12.4588 43.1257 11.0648 41.6934 10.0312 39.5586C9.13368 37.7045 9.12793 37.7315 10.5155 37.2894C11.1547 37.0859 11.7125 36.9133 11.7551 36.9059C11.7978 36.8986 11.935 37.2173 12.0601 37.614ZM49.2069 39.5952C50.1511 39.924 50.411 39.9523 52.4881 39.9535C54.1107 39.9544 54.9406 39.8964 55.4443 39.7471L56.1444 39.5394L56.2114 40.7136C56.3264 42.731 57.0138 43.5963 59.1938 44.4676C59.9046 44.7517 60.5093 45.0067 60.5376 45.0343C60.5658 45.0619 60.324 45.619 60.0004 46.2724C58.5768 49.1464 55.7866 50.8726 52.5565 50.8776C50.2312 50.8813 48.3483 50.0988 46.6505 48.4229C46.1015 47.8809 45.6522 47.3793 45.6522 47.3082C45.6522 47.2371 45.9378 47.1069 46.287 47.019C47.586 46.692 48.6168 45.5828 48.8513 44.2602C48.9854 43.5029 48.6943 42.4272 48.1689 41.7388C47.7332 41.1682 47.703 41.061 47.703 40.0896C47.703 39.1557 47.7272 39.0602 47.9422 39.1444C48.0738 39.196 48.6429 39.3989 49.2069 39.5952ZM36.1503 56.375C36.9774 56.375 37.8849 56.326 38.1669 56.2663L38.6796 56.1574V56.7833C38.6796 57.1275 38.7653 57.6143 38.8701 57.8652C39.0849 58.3794 39.7905 58.9728 40.3544 59.1136C40.5611 59.1651 40.7303 59.257 40.7303 59.3176C40.7303 59.5363 39.5105 60.4953 38.7732 60.8563C37.1073 61.6721 35.1451 61.6601 33.5017 60.8242C32.7241 60.4285 31.5702 59.5267 31.5702 59.3147C31.5702 59.2513 31.7563 59.1586 31.9836 59.1087C32.4896 58.9975 33.1517 58.458 33.4208 57.9378C33.5309 57.7248 33.621 57.2373 33.621 56.854V56.1574L34.1337 56.2663C34.4157 56.326 35.3231 56.375 36.1503 56.375Z" fill="white"></path>
</svg>
