<?xml version="1.0" encoding="UTF-8"?>
<svg xmlns="http://www.w3.org/2000/svg" width="70" height="70" viewBox="0 0 70 70" fill="none">
  <g clip-path="url(#clip0_522_816)">
    <path fill-rule="evenodd" clip-rule="evenodd" d="M23.3789 0.285766C21.5981 0.894984 20.385 2.30401 20.0415 4.16229C19.9596 4.60539 19.8926 5.66428 19.8926 6.51522V8.06233L14.9365 8.06288C10.2067 8.06329 9.95982 8.076 9.52793 8.33932C9.04244 8.63518 8.68014 9.32151 8.68396 9.93784C8.68834 10.6326 9.0676 12.1297 9.43729 12.9112L9.80205 13.6823L9.4768 14.1877C8.81398 15.2175 8.77147 15.4245 8.68533 18.0428C8.61232 20.2623 8.56557 20.6474 8.30307 21.1873C8.03619 21.7365 8.00406 22.0227 8.00406 23.8533C8.00406 26.2358 8.1416 26.6997 9.08838 27.5102C9.66096 28.0003 10.5338 28.2967 11.4043 28.2967C11.7696 28.2967 11.8012 28.3473 12.0224 29.2879C12.5173 31.3913 14.0844 33.8536 15.5742 34.8684L16.0625 35.201L16.0635 36.6066C16.0642 37.6164 16.0163 38.0251 15.8936 38.0577C15.7996 38.0828 15.4323 38.1723 15.0775 38.2568C14.7226 38.3414 13.8612 38.6862 13.1634 39.023C12.4655 39.3598 11.2839 39.8827 10.5377 40.1848C8.99801 40.8084 7.06918 41.8611 6.48047 42.3994C5.98732 42.8503 5.96518 43.3661 6.41963 43.8204C6.88037 44.2813 7.31145 44.2421 8.22746 43.6561C9.01551 43.152 11.4093 41.9686 11.6409 41.9686C11.7097 41.9686 12.4939 42.8667 13.3835 43.9644C15.2074 46.2145 15.768 46.6132 17.1123 46.6157C17.816 46.617 17.8206 46.6199 18.5149 47.4924L19.2114 48.3678L17.7104 57.7122C16.8848 62.8516 16.174 67.2564 16.1306 67.5008L16.052 67.9451H12.8454H9.63867V63.7272C9.63867 59.3801 9.574 58.7697 9.08646 58.5087C8.68437 58.2935 8.15596 58.3536 7.86133 58.6483C7.59896 58.9106 7.58789 59.104 7.58789 63.4334V67.9451L5.77637 67.9421C3.76236 67.9389 3.10557 67.7581 2.55268 67.0551C1.98256 66.3302 1.95918 65.9868 2.01346 59.1268C2.06527 52.5687 2.06555 52.5635 2.41992 51.2559C2.78045 49.9255 3.40922 48.5471 4.16172 47.4373C4.69438 46.6517 4.71393 46.0585 4.21982 45.67C3.70029 45.2612 3.37189 45.3175 2.81572 45.911C2.1201 46.6532 1.46385 47.8077 0.930781 49.2268C0.0109375 51.6755 0 51.7981 0 59.6053V66.6463L0.378711 67.4177C0.820723 68.3176 1.7366 69.2138 2.64195 69.6321L3.28125 69.9276H21.7383H40.1953L40.9564 69.5706C42.5283 68.8334 43.4168 67.4748 43.517 65.6551L43.5792 64.5272H54.6115C66.8587 64.5272 66.4546 64.5549 67.8368 63.6194C68.2262 63.3559 68.7604 62.8217 69.0238 62.4324C69.9843 61.0135 69.9316 62.1522 69.9316 42.7825C69.9316 25.329 69.9316 25.3257 69.6482 24.9655C69.2932 24.5141 68.5614 24.4716 68.1543 24.8787C67.8837 25.1493 67.8809 25.335 67.88 42.5496C67.8796 54.2678 67.8325 60.1157 67.7359 60.4635C67.5493 61.1356 66.8623 61.9083 66.1731 62.2214C65.6577 62.4556 64.9679 62.4705 54.585 62.4734L43.5449 62.4764V57.8459C43.5449 54.3162 43.4953 52.9267 43.3363 52.0011C42.4013 46.5595 38.739 42.4631 32.6447 40.0422C32.0604 39.8101 30.9509 39.3186 30.1792 38.95C29.4072 38.5814 28.5152 38.2392 28.1965 38.1894C27.8779 38.1396 27.5719 38.0314 27.5167 37.9488C27.4615 37.8662 27.4154 37.2597 27.4142 36.601L27.4121 35.4032L28.6896 34.1401C29.4036 33.4339 30.1597 32.5336 30.4039 32.0989C30.8834 31.245 31.4296 29.7459 31.5752 28.8843L31.6683 28.3331L32.4777 28.2597C34.1261 28.1102 35.1754 27.2274 35.4867 25.728C35.5796 25.2807 35.623 24.2896 35.5902 23.3689C35.541 21.9889 35.4854 21.6825 35.1643 21.0263C34.8022 20.2862 34.7949 20.22 34.7949 17.66C34.7949 14.634 34.694 14.0125 33.9503 12.4548C33.1979 10.879 31.9822 9.66235 30.4024 8.90411C28.8775 8.17198 28.1462 8.06233 24.7893 8.06233H21.9434V6.56512C21.9434 4.58707 22.1099 3.86151 22.7299 3.13704C23.7336 1.96454 22.3415 2.05313 39.8124 2.04971L55.2889 2.0467L55.3299 6.52424C55.3692 10.7992 55.3846 11.0312 55.6711 11.6513C56.1185 12.6203 57.2126 13.702 58.2118 14.1635L59.0625 14.5565L63.4717 14.5976L67.8809 14.6389V17.851V21.0631L68.2165 21.3986C68.647 21.8292 69.1686 21.8261 69.6042 21.3905L69.9479 21.0468L69.9057 17.3915L69.8633 13.7362L69.4762 13.0379C69.2059 12.5505 67.287 10.544 63.1188 6.39094C57.7648 1.05631 57.0788 0.419203 56.4747 0.219047C55.8668 0.017797 54.2557 -0.00366783 40.0001 0.000433734C24.4274 0.00508217 24.1873 0.00918371 23.3789 0.285766ZM63.1308 12.5467C59.5444 12.592 59.1299 12.5315 58.3551 11.8512C57.4167 11.0273 57.3599 10.7456 57.3565 6.90104L57.3535 3.48375L61.8662 7.99479L66.3787 12.5057L63.1308 12.5467ZM28.4211 10.3197C29.4167 10.579 30.2616 11.07 31.0244 11.8329C32.3719 13.1804 32.7441 14.3403 32.7441 17.191V19.1531L32.2462 19.1106C31.7697 19.07 31.7405 19.0376 31.5662 18.3533C31.2461 17.0972 30.4181 16.0887 29.1514 15.4118C28.5804 15.1066 28.5008 15.1025 21.7383 15.0284C15.7037 14.9622 14.8303 14.9259 14.2871 14.7171C12.4575 14.0138 11.146 12.4418 10.8169 10.5574L10.7393 10.1131H19.1837C26.2757 10.1131 27.7551 10.1462 28.4211 10.3197ZM11.8773 15.7355L12.4834 16.1628L12.2212 16.925C12.0769 17.3442 11.9205 18.0133 11.8737 18.4118L11.7886 19.1365H11.2604H10.7324V17.6966C10.7324 16.7485 10.8001 16.0947 10.9305 15.7826C11.0395 15.5218 11.1608 15.3084 11.2 15.3084C11.2392 15.3084 11.544 15.5006 11.8773 15.7355ZM21.4758 17.0858L28.1859 17.1541L28.6878 17.5372C29.6782 18.293 29.668 18.2298 29.668 23.5799C29.668 28.143 29.6539 28.4095 29.3647 29.3221C28.5312 31.953 26.3929 34.0033 23.6523 34.7996C19.7366 35.9372 15.1335 33.1732 14.0845 29.0541C13.9182 28.4016 13.8771 27.285 13.8778 23.4487C13.8782 20.5554 13.9352 18.4415 14.0216 18.1112C14.268 17.1692 14.4454 16.8092 14.6106 16.9166C14.6959 16.972 17.7852 17.0482 21.4758 17.0858ZM39.8396 19.1755C39.1382 19.6471 39.0487 20.0918 39.0487 23.1014C39.0487 26.111 39.1382 26.5557 39.8396 27.0273L40.3041 27.3397L51.2556 27.3376C59.7413 27.3361 62.283 27.2972 62.5447 27.1648C62.7304 27.0707 63.0227 26.7857 63.1941 26.5314C63.4948 26.0851 63.5059 25.9639 63.5059 23.1014C63.5059 20.2389 63.4948 20.1176 63.1941 19.6714C63.0227 19.4171 62.7304 19.132 62.5447 19.038C62.283 18.9056 59.7413 18.8667 51.2556 18.8652L40.3041 18.8631L39.8396 19.1755ZM61.4551 23.1014V25.2889H51.2695H41.084V23.1014V20.9139H51.2695H61.4551V23.1014ZM11.7951 23.6824L11.7578 26.1776L11.1781 26.1658C10.1511 26.1452 10.0488 25.9393 10.0488 23.8915C10.0488 22.9206 10.1119 22.0086 10.189 21.8645C10.3727 21.5212 10.9778 21.1996 11.4533 21.1928L11.8323 21.1873L11.7951 23.6824ZM32.8649 21.4103C33.04 21.533 33.269 21.8385 33.3739 22.0895C33.6011 22.6335 33.6324 24.9163 33.4209 25.5231C33.2622 25.9785 32.807 26.2459 32.1908 26.2459H31.7871V23.7166V21.1873H32.1668C32.3757 21.1873 32.6899 21.2877 32.8649 21.4103ZM39.3734 30.486C39.032 30.8632 39.056 31.5248 39.4244 31.8932L39.7243 32.1932H51.2851H62.8459L63.176 31.8096C63.5801 31.3397 63.5914 31.04 63.2224 30.571L62.9392 30.2108H51.2807C39.7712 30.2108 39.6193 30.2143 39.3734 30.486ZM39.5682 34.8978C39.2149 35.169 39.0205 35.6497 39.1139 36.0217C39.311 36.8069 38.7648 36.7733 51.3062 36.7733H62.8347L63.1702 36.4376C63.3548 36.2531 63.5059 35.9427 63.5059 35.7479C63.5059 35.5531 63.3548 35.2427 63.1702 35.0581L62.8347 34.7225L51.3099 34.7269C42.4661 34.7301 39.7347 34.7699 39.5682 34.8978ZM21.1792 37.1358C22.1931 37.2216 23.9939 36.9484 24.8936 36.5724L25.3271 36.3913L25.4071 37.3684C25.4512 37.9058 25.5259 38.5063 25.5734 38.7028C25.6528 39.0321 25.5069 39.1783 23.7072 40.5738L21.7548 42.0875L20.6529 41.2306C20.0467 40.7593 19.1625 40.0737 18.6878 39.707C17.9829 39.1626 17.8418 38.9893 17.9177 38.7613C17.9688 38.6079 18.0403 38.014 18.0765 37.4415L18.1424 36.4008L19.1688 36.7268C19.7333 36.906 20.638 37.09 21.1792 37.1358ZM39.4069 39.6102C39.2883 39.7417 39.1494 40.0171 39.0983 40.222C39.0229 40.524 39.0843 40.6736 39.4231 41.0122L39.8408 41.43L45.8067 41.3918L51.7724 41.3533L52.0336 41.0306C52.3734 40.611 52.3662 40.0458 52.0162 39.6702C51.7375 39.3711 51.7353 39.3709 45.6799 39.3709C40.0842 39.3709 39.6061 39.3891 39.4069 39.6102ZM17.8418 41.6372C18.8569 42.4299 19.7377 43.1281 19.7991 43.1888C19.8604 43.2495 19.4245 43.5843 18.83 43.9327C17.6386 44.6312 16.9072 44.7486 16.3946 44.324C16.0623 44.0485 13.7402 41.2168 13.7402 41.0869C13.7402 40.9552 15.4072 40.2127 15.7227 40.2038C15.873 40.1996 16.8267 40.8446 17.8418 41.6372ZM28.9079 40.6166L29.8594 41.042L28.5082 42.7177C27.7651 43.6391 27.0555 44.4321 26.9315 44.4797C26.3628 44.698 25.7558 44.5478 24.6895 43.9245C24.0855 43.5716 23.6078 43.2663 23.6279 43.2464C24.1027 42.7715 27.5491 40.2038 27.7185 40.1986C27.8495 40.1945 28.3847 40.3826 28.9079 40.6166ZM33.4102 42.6503C37.5279 44.6639 40.0311 47.4496 41.1049 51.2138C41.4009 52.2516 41.4139 52.5346 41.4617 58.9901C41.4889 62.6746 41.4736 65.8905 41.4277 66.1365C41.3234 66.6939 40.6164 67.5158 40.031 67.7604C39.7366 67.8833 38.9952 67.9451 37.8124 67.9451H36.0361L35.9965 63.4213L35.957 58.8972L35.6342 58.6361C35.2081 58.2912 34.6816 58.3052 34.291 58.6721L33.9746 58.9694V63.4572V67.9451H30.6934C28.5489 67.9451 27.4121 67.8967 27.4121 67.8054C27.4121 67.6523 24.4341 49.0149 24.3504 48.6446C24.3213 48.5152 24.6166 48.0333 25.0306 47.5345C25.7463 46.6724 25.7775 46.6526 26.4489 46.6375C27.8179 46.6066 28.3533 46.2032 30.3516 43.6966C31.1035 42.7533 31.7857 41.9787 31.8676 41.9751C31.9494 41.9715 32.6437 42.2754 33.4102 42.6503ZM23.3439 45.5149C23.5502 45.6324 23.7193 45.7659 23.7199 45.812C23.7203 45.8581 23.4901 46.1807 23.208 46.5292L22.6953 47.1628L21.7889 47.1633L20.8826 47.1639L20.3768 46.5467C20.0986 46.2073 19.8915 45.8683 19.9164 45.7936C19.9414 45.7188 20.3615 45.4161 20.85 45.121L21.7383 44.5847L22.3535 44.9432C22.6919 45.1403 23.1376 45.3976 23.3439 45.5149ZM22.4116 49.5906C22.4902 49.9609 25.3613 67.7677 25.3613 67.8848C25.3613 67.9181 23.7297 67.9451 21.7357 67.9451H18.11L18.1796 67.6375C18.2578 67.2923 21.123 49.4471 21.123 49.3053C21.123 49.2554 21.395 49.2147 21.7275 49.2147C22.2763 49.2147 22.3392 49.2493 22.4116 49.5906Z" fill="white"></path>
  </g>
  <defs>
    <clipPath id="clip0_522_816">
      <rect width="70" height="70" fill="white"></rect>
    </clipPath>
  </defs>
</svg>
