<?xml version="1.0" encoding="UTF-8"?>
<svg xmlns="http://www.w3.org/2000/svg" width="150" height="150" viewBox="0 0 150 150" fill="none">
  <rect width="150" height="150" rx="75" fill="white"></rect>
  <path d="M75.9412 35C77.4289 36.229 78.8663 37.5269 80.4119 38.6759C84.3606 41.6104 88.7843 43.5118 93.6766 44.0495C96.6503 44.3756 99.6678 44.327 102.668 44.3975C104.715 44.4461 105.567 45.2581 105.567 47.3085C105.568 56.4254 105.548 65.5439 105.573 74.6608C105.592 81.6333 103.988 88.1575 100.318 94.1236C97.6755 98.4219 94.2425 102.019 90.3377 105.178C86.0034 108.685 81.2537 111.582 76.5259 114.51C75.4725 115.162 74.5336 115.165 73.4755 114.51C67.2852 110.666 61.0479 106.888 55.8106 101.729C49.8226 95.8338 45.935 88.8378 44.8079 80.4404C44.5556 78.5578 44.4568 76.6406 44.449 74.7392C44.4129 65.5956 44.4317 56.452 44.4333 47.3085C44.4333 45.2581 45.2829 44.4257 47.3317 44.4038C49.7348 44.3787 52.141 44.4022 54.5378 44.2627C58.9081 44.0056 63.0308 42.7688 66.7538 40.4849C68.9201 39.1556 70.8624 37.4642 72.9033 35.9296C73.2983 35.6317 73.6761 35.3119 74.0617 35.0016C74.6872 35 75.3142 35 75.9412 35ZM75.0274 96.1332C86.6633 96.1035 96.169 86.5837 96.1612 74.9665C96.1534 63.3415 86.6414 53.828 75.0133 53.8138C63.371 53.7997 53.7901 63.3963 53.8402 75.0198C53.892 86.6668 63.4196 96.1615 75.0274 96.1332Z" fill="#183052"></path>
  <path d="M75.0368 91.4289C65.9998 91.4603 58.5758 84.0677 58.5445 75.0087C58.5131 65.9718 65.9057 58.5478 74.9647 58.5165C84.0016 58.4851 91.4256 65.8777 91.4569 74.9366C91.4883 83.9736 84.0957 91.3976 75.0368 91.4289ZM72.6541 78.6565C72.4315 78.4511 72.2387 78.2834 72.0584 78.1047C70.5049 76.5559 68.9531 75.0072 67.4028 73.4569C66.7522 72.8063 65.9919 72.4677 65.0655 72.695C63.1923 73.1543 62.6468 75.316 64.0654 76.7582C66.2239 78.9543 68.4154 81.1207 70.5943 83.298C72.0474 84.7496 73.245 84.7543 74.6919 83.309C78.3663 79.6362 82.039 75.9634 85.7118 72.2875C85.914 72.0853 86.1194 71.8799 86.2887 71.6495C87.2512 70.3327 86.6539 68.5379 85.0942 68.0425C84.0377 67.7071 83.2241 68.1209 82.4921 68.8545C79.4322 71.9222 76.3645 74.9837 73.2983 78.0467C73.0993 78.2442 72.8908 78.4323 72.6541 78.6565Z" fill="#183052"></path>
</svg>
