<?xml version="1.0" encoding="UTF-8"?>
<svg xmlns="http://www.w3.org/2000/svg" width="150" height="150" viewBox="0 0 150 150" fill="none">
  <rect width="150" height="150" rx="75" fill="white"></rect>
  <path d="M114.999 86.8758C114.576 88.4195 113.516 89.4133 112.239 90.3007C107.453 93.6256 102.678 96.9672 97.9494 100.373C94.9682 102.521 91.6974 103.555 88.0288 103.536C80.6102 103.496 73.1896 103.538 65.771 103.505C64.8544 103.5 64.0961 103.644 63.4753 104.352C63.2398 104.621 62.9273 104.825 62.5732 105.123C57.0421 98.2984 51.5318 91.4965 45.9757 84.6405C47.0486 83.7634 48.0611 82.9176 49.0944 82.0968C51.0672 80.5301 52.9068 78.7739 55.2338 77.7052C60.7045 75.1928 66.1044 75.3345 71.448 78.1156C71.8646 78.3323 72.3729 78.4719 72.8396 78.4739C77.8895 78.4989 82.9393 78.4823 87.9892 78.4927C90.5245 78.4969 92.3891 79.8135 92.9537 81.9593C93.7536 84.9905 91.5745 87.832 88.3725 87.855C83.8435 87.8862 79.3144 87.8633 74.7833 87.8633C74.475 87.8633 74.1666 87.8633 73.8021 87.8633C73.8021 89.4424 73.8021 90.957 73.8021 92.5507C74.1083 92.5507 74.3875 92.5507 74.6666 92.5507C79.1707 92.5507 83.6747 92.5319 88.1767 92.5611C89.9996 92.5736 91.6558 92.1111 93.2286 91.2007C98.0452 88.4154 102.953 85.7758 107.678 82.8426C110.628 81.0093 114.014 81.8447 114.995 85.3113C114.999 85.8342 114.999 86.355 114.999 86.8758Z" fill="#183052"></path>
  <path d="M89.2183 35.0021C89.2183 36.5333 89.2183 38.0645 89.2183 39.6895C89.5516 39.6895 89.8266 39.6895 90.1037 39.6895C95.441 39.6895 100.778 39.702 106.116 39.6728C106.72 39.6686 107.041 39.8686 107.353 40.3644C109.497 43.7456 111.672 47.108 113.932 50.6267C112.916 50.6267 112.026 50.635 111.136 50.6246C110.205 50.6121 109.116 50.8704 108.384 50.4746C107.68 50.0954 107.345 49.033 106.849 48.2705C106.468 47.6851 106.087 47.0976 105.62 46.3768C104.997 47.3455 104.339 48.1851 103.885 49.1225C103.285 50.3642 102.424 50.8017 101.062 50.6538C99.8805 50.5267 98.6743 50.6267 97.3222 50.6267C98.6659 48.5267 99.9472 46.5247 101.28 44.4414C97.2431 44.4414 93.2848 44.4414 89.2704 44.4414C89.2704 52.4433 89.2704 60.4702 89.2704 68.5845C90.787 68.5845 92.3057 68.5845 93.8619 68.5845C93.8619 70.1699 93.8619 71.6699 93.8619 73.2261C89.2204 73.2261 84.5767 73.2261 79.8873 73.2261C79.8873 71.7074 79.8873 70.1887 79.8873 68.6116C81.4164 68.6116 82.9163 68.6116 84.4726 68.6116C84.4726 60.5264 84.4726 52.4995 84.4726 44.4227C80.506 44.4227 76.5394 44.4227 72.452 44.4227C73.7728 46.483 75.0561 48.483 76.429 50.6246C74.9895 50.6246 73.6728 50.5392 72.375 50.6496C71.2479 50.7454 70.5563 50.3933 70.0354 49.383C69.5167 48.3747 68.823 47.458 68.1251 46.3747C67.3397 47.5934 66.5855 48.6996 65.9022 49.8496C65.5626 50.4225 65.1897 50.6767 64.4877 50.6454C62.9856 50.5788 61.4794 50.6246 59.8628 50.6246C60.0399 50.3204 60.1565 50.1017 60.2899 49.8913C62.3273 46.7164 64.3773 43.5498 66.3939 40.3624C66.7064 39.8686 67.0251 39.6665 67.6313 39.6707C72.9416 39.6999 78.254 39.6874 83.5642 39.6874C83.8476 39.6874 84.133 39.6874 84.5288 39.6874C84.5288 38.0999 84.5288 36.55 84.5288 35C86.0933 35.0021 87.6558 35.0021 89.2183 35.0021Z" fill="#183052"></path>
  <path d="M35.001 89.532C36.7738 88.0903 38.5467 86.6487 40.3696 85.1675C47.2444 93.6527 54.0817 102.092 60.967 110.59C59.2795 112.069 57.6087 113.535 55.9379 115C48.9589 115 41.98 115 35.001 115C35.001 106.511 35.001 98.0213 35.001 89.532Z" fill="#183052"></path>
  <path d="M114.999 56.5641C114.578 58.1724 114.064 59.7286 113.014 61.0723C110.678 64.0639 106.687 65.3826 103.026 64.3159C99.316 63.2368 96.5807 59.9077 96.2744 56.0932C96.2557 55.8641 96.2723 55.6328 96.2723 55.312C102.533 55.312 108.766 55.312 114.999 55.312C114.999 55.7308 114.999 56.1474 114.999 56.5641Z" fill="#183052"></path>
  <path d="M58.7253 55.3433C65.0273 55.3433 71.2104 55.3433 77.4999 55.3433C77.3978 58.4682 76.1874 61.0056 73.6833 62.8222C70.5313 65.1076 67.1168 65.3659 63.694 63.5389C60.5024 61.8368 58.9295 59.0286 58.7253 55.3433Z" fill="#183052"></path>
</svg>
