<?xml version="1.0" encoding="UTF-8"?>
<svg xmlns="http://www.w3.org/2000/svg" width="100" height="100" viewBox="0 0 100 100" fill="none">
  <g opacity="0.8" clip-path="url(#clip0_1964_707)">
    <path fill-rule="evenodd" clip-rule="evenodd" d="M-1 38.0234V69.0781H18.6977H38.3955L39.309 70.2408C39.8113 70.8803 40.4824 71.5887 40.8006 71.815L41.3787 72.2268L41.4295 80.6332L41.4805 89.0395L45.1668 86.09C47.1943 84.4678 48.9191 83.1406 49 83.1406C49.0809 83.1406 50.8057 84.4678 52.8332 86.09L56.5195 89.0395L56.5705 80.6332L56.6213 72.2268L57.1994 71.815C57.5176 71.5887 58.1887 70.8803 58.691 70.2408L59.6045 69.0781H67.9824H76.3602L76.3031 67.5645L76.2461 66.0508L68.5602 65.9996C61.3494 65.9518 60.8824 65.9275 61.0098 65.609C61.0846 65.4223 61.1936 64.7641 61.2523 64.1465L61.359 63.0234H77.1522H92.9453V38.0234V9.05469H49H5.05469V38.0223V63.0211L20.8262 63.0711L36.5977 63.1211L36.7178 64.1047C36.7838 64.6457 36.8996 65.2828 36.975 65.5207L37.1123 65.9531H19.6186H2.125V37.9258V5.92969H7.39844H12.6719V4.46484V3H5.83594H-1V38.0234ZM15.6016 4.46484V5.92969H55.7383H95.875V37.9236V65.9488L87.623 65.9998L79.3711 66.0508L79.3141 67.5645L79.257 69.0781H89.1285H99V38.0234V3H57.3008H15.6016V4.46484ZM89.8203 37.9258V59.8984H75.5092H61.198L60.7174 58.4824C60.4531 57.7035 59.8139 56.4326 59.2969 55.6578C54.365 48.2684 43.6268 48.2934 38.6691 55.7059C38.1334 56.5068 37.4967 57.7779 37.2543 58.5303L36.8137 59.8984H22.4967H8.17969V37.9258V11.9844H49H89.8203V37.9258ZM34.1279 16.9123C32.9256 17.302 31.9135 18.0822 30.5707 19.6547C29.3883 21.0393 28.7627 21.5629 26.8871 22.7385C25.6445 23.5174 24.5838 24.1545 24.5299 24.1545C24.476 24.1545 23.5371 23.4074 22.4432 22.4943C21.3492 21.5812 20.3852 20.8342 20.3008 20.8342C20.2164 20.8342 19.7438 21.3242 19.2508 21.9232L18.3543 23.0121L19.6174 24.0838C20.3123 24.6732 20.8807 25.19 20.8807 25.2322C20.8807 25.2744 20.6648 25.6271 20.401 26.016C19.441 27.4305 19.0586 28.792 19.0586 30.7951C19.0586 31.976 19.1676 32.95 19.3584 33.4738L19.6584 34.2971L18.9676 34.525C18.0488 34.8283 16.6111 36.1725 16.168 37.1428C15.7541 38.0486 15.6906 39.849 16.0322 40.9891C16.3424 42.0246 17.5494 43.3504 18.6545 43.8699C19.8324 44.4236 21.699 44.4473 22.8756 43.9234C24.0885 43.3836 25.2869 41.991 25.6686 40.6777L25.984 39.5928L27.0945 39.707C29.3297 39.9369 32.5078 38.8482 33.9469 37.36L34.6109 36.6734L35.9 37.7498L37.1893 38.826L38.1148 37.7891C38.6238 37.2188 39.0371 36.6643 39.0332 36.5568C39.0293 36.4494 38.349 35.8088 37.5217 35.1332C36.6943 34.4578 35.7814 33.6978 35.4932 33.4447L34.9689 32.9844L36.0479 30.3838C36.9344 28.2463 37.35 27.5152 38.3797 26.2807C39.0689 25.4543 39.8063 24.3963 40.0182 23.9293C40.4924 22.8838 40.5369 20.9262 40.1094 19.9002C39.7311 18.9922 38.5893 17.7939 37.6311 17.2992C36.7996 16.8701 34.9043 16.6605 34.1279 16.9123ZM36.3805 20.076C36.6439 20.1959 37.0121 20.5773 37.1984 20.9236C37.7393 21.9277 37.4699 22.6625 35.8682 24.5533C34.6512 25.9898 34.3223 26.552 33.5 28.6002L32.5451 30.9789L31.4459 30.0568C30.8414 29.5498 29.623 28.5277 28.7387 27.7854C27.8543 27.0432 27.1307 26.3715 27.1307 26.2926C27.1307 26.2137 28.0756 25.5566 29.2303 24.8326C30.5563 24.0012 31.5977 23.1838 32.0566 22.6145C33.8582 20.3797 34.4527 19.8576 35.1959 19.8576C35.584 19.8576 36.117 19.9559 36.3805 20.076ZM44.5 22C44.5 22 44.5078 22.9109 44.5078 23.6988V25.1311H76.7344H85.3281V23.5686V22.0061H76.8646C72.2096 22.0061 44.5 22 44.5 22ZM27.7709 30.9205C30.158 32.923 32.1371 34.6271 32.1689 34.7074C32.2797 34.9863 30.7504 36.0674 29.7973 36.384C28.5367 36.8027 26.3566 36.6752 25.2752 36.1195C22.4895 34.6879 21.2887 31.2766 22.5676 28.427C22.8508 27.7959 23.1607 27.2795 23.2566 27.2795C23.3523 27.2795 25.3838 28.918 27.7709 30.9205ZM53.6225 28.191C53.5508 28.2625 53.4922 28.9656 53.4922 29.7535V31.1857H79.7617H85.3281V29.6232V28.0607H79.892C76.902 28.0607 53.6939 28.1193 53.6225 28.191ZM48.2275 35.7756V37.2404H79.7617H85.3281V35.7756V34.3107H79.7617H48.2275V35.7756ZM21.9809 37.5865C23.0635 38.4635 23.1295 39.7182 22.1447 40.7029C21.5219 41.3258 21.3783 41.3816 20.65 41.284C20.1672 41.2191 19.6551 40.9863 19.3715 40.7027C19.0879 40.4191 18.8551 39.907 18.7902 39.4242C18.6926 38.6959 18.7484 38.5523 19.3713 37.9295C19.924 37.3768 20.2092 37.2412 20.8123 37.2447C21.2279 37.2473 21.7506 37.4 21.9809 37.5865ZM43.6855 41.8303V43.2951H77.8086H85.3281V41.8303V40.3654H77.8086H43.6855V41.8303ZM30.5707 47.885V49.3498H74.7812H85.3281V47.885V46.4201H74.7812H30.5707V47.885ZM52.0115 53.6428C54.3543 54.4492 56.2623 56.1242 57.3752 58.3514C59.3629 62.3287 58.2369 67.2156 54.7172 69.8887C53.0498 71.1551 51.6451 71.6562 49.4518 71.7672C47.2055 71.8809 45.4746 71.4066 43.6855 70.1877C38.8459 66.8898 38.2553 60.0809 42.4443 55.8779C43.7299 54.5885 45.4877 53.617 47.1465 53.2797C48.4883 53.0068 50.6279 53.1666 52.0115 53.6428ZM46.7152 56.5982C42.9652 58.0398 41.5207 62.7037 43.7781 66.0814C45.4322 68.5566 48.8348 69.5131 51.5361 68.2625L52.5168 67.8086L51.7068 66.5836C51.0137 65.5352 50.8377 65.3805 50.4855 65.5094C50.2594 65.5924 49.5469 65.6602 48.9023 65.6602C47.5039 65.6602 46.6656 65.167 46.0658 63.9914C45.0963 62.0908 46.0906 59.927 48.2275 59.2867C49.2148 58.991 50.299 59.2883 51.2375 60.1123C52.0225 60.8016 52.3787 61.7361 52.2879 62.8676L52.2227 63.6805L53.3875 64.1332C54.0281 64.3822 54.6594 64.5859 54.7902 64.5859C55.1414 64.5859 55.3049 63.8822 55.2957 62.4115C55.2686 58.0602 50.7953 55.0295 46.7152 56.5982ZM49 74.9309C49.9471 74.9307 52.0904 74.5748 53.1289 74.2453C53.4754 74.1353 53.4922 74.3246 53.4922 78.3424C53.4922 80.6592 53.4449 82.5547 53.3869 82.5547C53.3291 82.5547 52.3531 81.8076 51.218 80.8945C50.083 79.9814 49.0969 79.2344 49.0266 79.2344C48.9564 79.2344 47.9109 80.0277 46.7033 80.9973L44.5078 82.7602V78.4961V74.232L46.2168 74.5814C47.1568 74.7736 48.4092 74.9309 49 74.9309Z" fill="white"></path>
  </g>
  <defs>
    <clipPath id="clip0_1964_707">
      <rect width="100" height="100" fill="white"></rect>
    </clipPath>
  </defs>
</svg>
