<?xml version="1.0" encoding="UTF-8"?>
<svg xmlns="http://www.w3.org/2000/svg" width="100" height="100" viewBox="0 0 100 100" fill="none">
  <g opacity="0.8">
    <path fill-rule="evenodd" clip-rule="evenodd" d="M18.4355 7.10611C17.7095 7.33273 16.7191 7.99204 16.1562 8.62337C15.6441 9.19759 15.0318 10.6165 15.0273 11.2392C15.0251 11.5635 14.9675 11.9133 14.8994 12.0166C14.8251 12.1292 13.9604 12.237 12.7397 12.2862C11.0318 12.355 10.5545 12.4365 9.77657 12.7927C8.64886 13.309 7.69317 14.2321 7.21415 15.268L6.85645 16.0412V49.9922V83.9433L7.21415 84.7165C7.69317 85.7523 8.64886 86.6755 9.77657 87.1918C10.5545 87.548 11.0318 87.6295 12.7397 87.6983C13.9604 87.7475 14.8251 87.8553 14.8994 87.9678C14.9675 88.0711 15.0251 88.4209 15.0273 88.7453C15.037 90.102 16.3519 91.909 17.8758 92.6598L18.6508 93.0418L48.6351 93.0858C81.8257 93.1345 79.5868 93.2067 81.1212 92.0352C81.6705 91.6157 82.0611 91.1105 82.4562 90.308L83.0146 89.1739V81.1102V73.0466L82.5418 72.6398C81.9723 72.1499 81.4206 72.1216 80.885 72.5551L80.4872 72.8769L80.403 80.8533L80.3187 88.8295L79.9145 89.3961C79.1258 90.5021 81.2793 90.4302 48.968 90.4302C21.9775 90.4302 19.4958 90.4073 18.9585 90.1523C17.7043 89.5571 17.818 92.4029 17.7241 59.2422C17.6438 30.8171 17.6261 29.4563 17.3349 29.1347C16.6207 28.3455 15.3307 28.6737 15.0407 29.7182C14.9177 30.1611 14.8613 38.8954 14.8608 57.6165L14.8598 84.87L12.9643 84.8693C10.783 84.8686 10.1319 84.6162 9.71069 83.608C9.3454 82.7337 9.3454 17.2508 9.71069 16.3765C10.1314 15.3694 10.7838 15.1159 12.9548 15.1152L14.8411 15.1145L14.8925 20.0998L14.944 25.0852L15.4168 25.4916C16.2175 26.18 17.1826 25.9524 17.5491 24.9886C17.6594 24.6981 17.7243 22.0585 17.7248 17.8415C17.7253 11.5967 17.7464 11.1208 18.0419 10.636C18.7531 9.46971 16.3341 9.55429 48.968 9.55429C81.2793 9.55429 79.1258 9.48234 79.9145 10.5883L80.3187 11.155L80.364 32.4198L80.4092 53.6846L74.8247 61.1475C71.7531 65.2522 69.1813 68.6751 69.1093 68.7541C69.0374 68.8331 67.9506 67.5313 66.6943 65.8614C65.4379 64.1915 64.1602 62.6346 63.8547 62.4018C62.6859 61.5101 61.0045 61.1737 59.5769 61.5455C56.4952 62.3482 54.9301 65.7684 56.3725 68.5485C56.9621 69.685 65.3068 80.7316 65.8886 81.146C66.1585 81.3382 66.7482 81.6546 67.1991 81.8491C68.7484 82.5175 70.9888 82.1166 72.2973 80.9369C72.9246 80.3714 92.379 54.3826 92.6366 53.7659C93.5519 51.5755 92.6808 48.8355 90.675 47.5973C88.3992 46.1919 85.6636 46.7816 83.903 49.0571L83.1831 49.9877L83.0988 30.3992L83.0146 10.8107L82.4562 9.67644C82.0619 8.87577 81.6705 8.36861 81.1246 7.95193C79.5928 6.78244 81.8215 6.85725 48.9065 6.86971C24.5821 6.87898 19.0249 6.92195 18.4355 7.10611ZM28.4233 23.4056C27.5706 23.8946 27.4168 24.8225 28.0788 25.4843L28.4923 25.898H48.9793H69.4663L69.8798 25.4843C70.1406 25.2237 70.2935 24.8782 70.2935 24.55C70.2935 24.2218 70.1406 23.8764 69.8798 23.6157L69.4663 23.2021L49.1133 23.2071C34.1222 23.211 28.6715 23.2633 28.4233 23.4056ZM38.3069 30.717C38.0951 30.8653 37.8538 31.1658 37.7706 31.3845C37.5812 31.8828 37.8624 32.751 38.2867 32.9781C38.4782 33.0806 42.5561 33.1431 49.0602 33.1431H59.5253L59.9388 32.7294C60.5815 32.087 60.3905 31.0091 59.5678 30.6343C59.2812 30.5038 56.065 30.4472 48.9245 30.4472C39.8151 30.4472 38.6498 30.4769 38.3069 30.717ZM28.0788 41.8128C27.4055 42.4859 27.5757 43.431 28.4544 43.8991C28.7261 44.0438 32.7005 44.095 43.6513 44.095H58.4802L58.921 43.7159C59.5034 43.215 59.5382 42.3884 59.001 41.8165L58.6088 41.3992H43.5505H28.4923L28.0788 41.8128ZM66.3826 41.6288C65.9525 41.9559 65.7263 42.6782 65.9063 43.1513C66.1799 43.8713 66.7115 44.095 68.1482 44.095C69.323 44.095 69.5113 44.05 69.8798 43.6814C70.1406 43.4207 70.2935 43.0753 70.2935 42.7471C70.2935 42.4189 70.1406 42.0735 69.8798 41.8128C69.5061 41.4389 69.3317 41.3997 68.0685 41.4046C67.1899 41.4079 66.5639 41.4912 66.3826 41.6288ZM28.1093 49.0884C27.8466 49.3513 27.6651 49.7205 27.6651 49.9922C27.6651 50.264 27.8466 50.6332 28.1093 50.896L28.5536 51.3402H43.5037C58.373 51.3402 58.4559 51.3383 58.8975 50.9909C59.5247 50.4977 59.5247 49.4868 58.8975 48.9936C58.4559 48.6462 58.373 48.6443 43.5037 48.6443H28.5536L28.1093 49.0884ZM66.3152 49.0389C65.9875 49.3208 65.8566 49.5929 65.8566 49.9922C65.8566 50.3916 65.9875 50.6637 66.3152 50.9456C66.7135 51.2881 66.9514 51.3402 68.1201 51.3402C69.3248 51.3402 69.5098 51.2967 69.8798 50.9265C70.1406 50.6659 70.2935 50.3205 70.2935 49.9922C70.2935 49.664 70.1406 49.3186 69.8798 49.0579C69.5098 48.6878 69.3248 48.6443 68.1201 48.6443C66.9514 48.6443 66.7135 48.6964 66.3152 49.0389ZM89.333 49.9708C89.5647 50.1348 89.8909 50.5289 90.0578 50.8467C90.7123 52.0915 91.0118 51.6274 80.5072 65.6351C75.1733 72.7478 70.622 78.7433 70.3932 78.9581C69.8394 79.4786 68.6802 79.6112 67.9565 79.2368C67.5843 79.0444 66.0835 77.1785 63.1151 73.2174C58.8876 67.5763 58.4991 66.9949 58.4991 66.3083C58.4991 65.7165 59.0408 64.7925 59.5808 64.4633C60.3259 64.0089 61.5577 64.0387 62.1208 64.5246C62.3624 64.7332 63.7883 66.5339 65.2894 68.5263C68.2212 72.4174 68.623 72.7881 69.4658 72.3794C69.7797 72.2272 72.6438 68.5398 77.8897 61.5339C82.2614 55.6957 86.037 50.7012 86.2798 50.435C87.1583 49.4724 88.3687 49.2884 89.333 49.9708ZM28.7216 68.6447C28.2444 68.7369 27.6651 69.4646 27.6651 69.9718C27.6651 70.1858 27.8481 70.5736 28.0719 70.8336L28.4784 71.3064H38.9979C50.3434 71.3064 49.9099 71.3399 50.2539 70.4351C50.3414 70.2051 50.3255 69.8464 50.2137 69.5254C49.8622 68.5175 49.9358 68.5239 39.0016 68.5492C33.5542 68.5618 28.9281 68.6048 28.7216 68.6447ZM28.0788 76.3536C27.5549 76.8772 27.5526 77.475 28.0715 78.0787L28.4778 78.5515L32.3197 78.6029C34.4329 78.6311 36.333 78.6112 36.5423 78.5588C37.5552 78.3045 37.9475 76.9933 37.2162 76.3062C36.8375 75.9505 36.7057 75.9399 32.6592 75.9399H28.4923L28.0788 76.3536Z" fill="white"></path>
  </g>
</svg>
