<?xml version="1.0" encoding="UTF-8"?>
<svg xmlns="http://www.w3.org/2000/svg" width="100" height="100" viewBox="0 0 100 100" fill="none">
  <g opacity="0.8">
    <rect x="24.1875" y="32" width="38" height="3" rx="1.5" fill="white"></rect>
    <rect x="24.1875" y="39" width="38" height="3" rx="1.5" fill="white"></rect>
    <rect x="24.1875" y="46" width="38" height="3" rx="1.5" fill="white"></rect>
    <rect x="24.1875" y="53" width="28" height="3" rx="1.5" fill="white"></rect>
    <rect x="24.1875" y="60" width="21" height="3" rx="1.5" fill="white"></rect>
    <rect x="24.1875" y="25" width="38" height="3" rx="1.5" fill="white"></rect>
    <rect x="29.1875" y="18" width="28" height="3" rx="1.5" fill="white"></rect>
    <path fill-rule="evenodd" clip-rule="evenodd" d="M8.55379 0.435676L8 0.871143V45.7267C8 90.3019 8.00252 90.5846 8.42033 91.0024C8.83689 91.4189 9.12082 91.4227 39.3149 91.4227H69.7891V95.2954V99.1684L70.3581 99.6159C70.754 99.9273 71.0892 100.024 71.4614 99.9343C71.7584 99.8624 73.2312 98.5764 74.7772 97.0388L77.5586 94.2726L80.4686 97.1561C83.5912 100.25 83.9203 100.429 84.8255 99.5236L85.3415 99.0078V86.2234V73.4389L85.9443 73.0829C88.6718 71.4717 91.4485 67.3903 92.1869 63.907C93.633 57.0845 90.2207 50.1249 83.9754 47.159C82.4748 46.4463 80.3834 45.8164 79.5178 45.8164H79.0365V23.4242V1.03171L78.5205 0.51596L78.0048 0H43.5561H9.10758L8.55379 0.435676ZM76.0427 24.3083L75.9891 45.6746L74.7281 45.9366C74.0345 46.0808 73.3014 46.2647 73.0993 46.3454C72.7508 46.4841 72.7315 45.6363 72.7315 30.2964C72.7315 18.4203 72.6661 13.9576 72.4866 13.5638C72.2401 13.0226 71.626 12.766 69.9518 12.5049C68.3144 12.2494 66.4468 10.1078 66.4323 8.4691C66.4241 7.53911 66.0549 6.81509 65.4477 6.5383C65.0829 6.37227 58.7156 6.30501 43.3266 6.30501C22.1856 6.30501 21.7063 6.31384 21.1941 6.71673C20.8067 7.02147 20.6384 7.40125 20.5466 8.17655C20.4039 9.38018 19.9604 10.356 19.1674 11.2101C18.4169 12.0186 17.646 12.3912 16.2566 12.6174C15.6137 12.722 14.9116 12.9669 14.6963 13.1617C14.3178 13.5041 14.305 14.5797 14.305 45.7286V77.9415L14.8588 78.377C15.1633 78.6166 15.6488 78.8127 15.9378 78.8127C18.2435 78.8127 20.2502 80.7441 20.5468 83.2491C20.6384 84.0215 20.8072 84.4016 21.1941 84.706C21.7063 85.1089 22.1871 85.1177 43.5233 85.1177C68.4016 85.1177 66.0761 85.3136 66.4176 83.1894C66.6013 82.0474 66.9462 81.2031 67.529 80.4684C67.8487 80.0655 69.3484 79.0228 69.6084 79.0228C69.7078 79.0228 69.7891 81.1508 69.7891 83.7516V88.4804H40.3657H10.9423V45.7113V2.94234H43.5193H76.096L76.0427 24.3083ZM63.8162 10.278C64.4425 12.3994 66.5294 14.4866 68.7908 15.2533L69.7891 15.5919L69.7837 31.7024L69.7782 47.813L68.7286 48.5251C67.3556 49.4565 65.5755 51.3945 64.6632 52.951C61.8829 57.6949 61.8099 63.2796 64.4656 68.0586C65.2947 69.5506 67.5235 72.0199 68.8888 72.9593C69.7643 73.5616 69.7891 73.6104 69.7891 74.731C69.7891 75.641 69.7118 75.9096 69.4213 76.0082C66.5175 76.9918 64.6682 78.6927 63.8406 81.1411L63.5266 82.0703L43.4783 82.1239L23.43 82.1775L23.0436 81.0404C22.3 78.853 20.1907 76.7806 18.1536 76.2358L17.2474 75.9933V45.7662C17.2474 17.1614 17.2671 15.5332 17.6151 15.4271C18.5844 15.132 20.2191 14.2527 20.8847 13.6684C21.8124 12.8538 22.8042 11.3068 23.1467 10.1395L23.4095 9.24525L43.476 9.29884L63.5428 9.35244L63.8162 10.278ZM79.9822 48.8647C83.0624 49.5114 85.794 51.363 87.5079 53.9657C88.8427 55.9927 89.3639 57.5351 89.4929 59.8398C89.7084 63.6865 88.6462 66.5166 85.9936 69.1631C83.5765 71.5747 80.8588 72.7212 77.5737 72.7147C69.3568 72.6987 63.589 64.8988 66.016 57.085C67.2726 53.0395 70.8553 49.7865 75.0584 48.875C76.8325 48.4902 78.1851 48.4874 79.9822 48.8647ZM74.7484 52.108C68.2501 54.2458 66.3928 62.6723 71.4095 67.2573C76.7814 72.1668 85.1505 69.2364 86.4253 61.9997C87.0932 58.2068 84.9025 54.224 81.1926 52.4867C79.344 51.6213 76.7007 51.4659 74.7484 52.108ZM80.1924 55.2185C83.7953 57.081 84.6723 61.7366 81.9948 64.7863C81.6234 65.2092 80.7889 65.8151 80.1401 66.1324C76.0088 68.1536 71.1521 64.8279 71.5211 60.2303C71.7023 57.9742 72.8326 56.3116 74.8941 55.2687C76.0876 54.6649 76.3342 54.6159 77.7755 54.6962C78.815 54.754 79.638 54.932 80.1924 55.2185ZM73.7823 75.2218C74.1869 75.3262 74.8727 75.4719 75.306 75.5454L76.0941 75.6793V83.6085V91.5377L74.4128 93.2091L72.7315 94.8806V84.9552C72.7315 79.4961 72.8023 75.0303 72.8891 75.0309C72.9759 75.0316 73.3777 75.1175 73.7823 75.2218ZM82.3992 84.9552V94.8806L80.7178 93.2091L79.0365 91.5377V83.6171V75.6965L80.35 75.3878C81.0726 75.2178 81.8292 75.0677 82.0314 75.0543C82.3769 75.0311 82.3992 75.633 82.3992 84.9552Z" fill="white"></path>
    <path d="M40 73.0883C40.6667 74.755 42.9 77.1883 46.5 73.5883C51 69.0883 50.5 63.0883 54 65.5883C56.8 67.5883 50.8333 73.0884 47.5 75.5884L54.5 72.5884C54.6667 73.255 54.4 74.8884 52 76.0884C49 77.5884 55.5 76.5882 58 73.5883C60 71.1884 58.8333 75.5884 58 78.0884" stroke="white" stroke-linecap="round" stroke-linejoin="round"></path>
  </g>
</svg>
