<?xml version="1.0" encoding="UTF-8"?>
<svg xmlns="http://www.w3.org/2000/svg" width="70" height="70" viewBox="0 0 70 70" fill="none">
  <path fill-rule="evenodd" clip-rule="evenodd" d="M27.9522 2.4429C27.1688 2.79877 26.4537 3.4661 26.1348 4.13875C25.9848 4.45499 25.577 6.03655 25.2283 7.65325C24.8797 9.26995 24.5635 10.7003 24.5255 10.832C24.4604 11.0571 23.8358 11.0712 13.8942 11.0712C1.90506 11.0712 2.5017 11.0194 1.3627 12.1584C0.177074 13.3442 0.275512 10.8668 0.275512 39.5087C0.275512 68.1759 0.174887 65.6711 1.37528 66.8716C2.53 68.0262 0.942835 67.9462 22.6974 67.9462C44.4749 67.9462 42.8626 68.0284 44.0321 66.859C44.7299 66.1611 45.1193 65.2282 45.1193 64.254V63.7559L49.9386 64.8214C52.6594 65.4229 55.0885 65.8887 55.5173 65.8912C56.9896 65.8995 58.4548 64.7944 58.86 63.3698C58.9676 62.9918 61.461 51.7334 64.4008 38.3513C68.8046 18.3061 69.7311 13.9103 69.6607 13.398C69.4757 12.0538 68.3491 10.7156 67.1248 10.386C66.827 10.3057 60.8464 8.97942 53.8347 7.43846C46.8229 5.8975 38.5848 4.08489 35.5276 3.41059C32.2871 2.69582 29.6644 2.18573 29.2386 2.1875C28.8262 2.18915 28.2658 2.30043 27.9522 2.4429ZM43.3746 7.38569C50.9137 9.04327 59.2047 10.8624 61.799 11.4283C64.6458 12.0493 66.6512 12.5532 66.8575 12.6994C67.0455 12.8326 67.2829 13.1119 67.3849 13.3201C67.5549 13.6671 67.1206 15.746 62.1599 38.3273C56.793 62.7577 56.7461 62.959 56.3325 63.332C56.0734 63.5657 55.7608 63.7079 55.5061 63.7079C55.1926 63.7079 47.1495 62.0003 45.4287 61.5684L45.1193 61.4908V52.2929V43.0948L46.2036 42.9363C51.2698 42.1955 55.6734 38.9386 57.7834 34.3719C60.0559 29.4533 59.5517 23.8331 56.4322 19.3081C55.5514 18.0306 53.4993 16.0713 52.182 15.2502C50.2358 14.0372 47.7317 13.1765 45.6959 13.0211C44.7504 12.9489 44.6804 12.9201 44.3046 12.4455C44.087 12.1707 43.5814 11.7645 43.1811 11.5428L42.4532 11.1396L34.6261 11.1012C27.7701 11.0674 26.7989 11.0372 26.7989 10.8571C26.7989 10.7442 27.0753 9.4079 27.4128 7.88786C27.9758 5.35323 28.061 5.09278 28.4404 4.74797C28.6969 4.51487 29.0085 4.372 29.2606 4.372C29.4841 4.372 35.8354 5.72811 43.3746 7.38569ZM42.4169 13.6577L42.8634 14.0566V39.4944V64.9322L42.4843 65.3112L42.1053 65.6904H22.683H3.2609L2.86196 65.2438L2.46301 64.7973V39.4929V14.1884L2.92786 13.7236L3.3927 13.2587H22.6815H41.9704L42.4169 13.6577ZM46.8768 15.3809C46.9287 15.4328 45.2742 20.8024 45.175 20.9036C45.1444 20.9349 45.1193 19.6503 45.1193 18.0491V15.1375L45.9729 15.234C46.4424 15.2872 46.8492 15.3532 46.8768 15.3809ZM50.3735 16.7249C51.3123 17.2374 51.4831 17.3884 51.6465 17.8512C52.0104 18.8824 52.4939 20.8258 52.5836 21.6184L52.6741 22.4189L50.8449 22.4041C48.6232 22.3862 47.2314 22.1754 47.2537 21.8601C47.2904 21.3396 49.0062 16.1299 49.1404 16.1316C49.2222 16.1325 49.7771 16.3996 50.3735 16.7249ZM21.2618 19.6897C15.1165 20.647 10.3231 24.9859 8.73116 31.0322C8.34411 32.502 8.24334 35.4997 8.52663 37.1161C9.36786 41.9163 12.3068 45.875 16.6369 48.0406C19.0661 49.2555 21.2229 49.7066 24.0437 49.5894C31.7006 49.2714 37.8763 43.1989 38.3636 35.509C38.8199 28.3035 34.059 21.8319 26.9589 20.0069C25.4661 19.6232 22.6834 19.4683 21.2618 19.6897ZM55.3111 21.6178C55.4875 21.9524 55.4797 21.9848 55.204 22.0568C55.0404 22.0996 54.8942 22.1216 54.8792 22.1058C54.8642 22.0901 54.8118 21.7695 54.7627 21.3935C54.6784 20.7463 54.6855 20.7244 54.8971 20.9833C55.02 21.1337 55.2062 21.4193 55.3111 21.6178ZM22.2872 24.8927V28.05L21.5695 27.9612C19.6643 27.7256 16.9534 27.0066 16.9575 26.7381C16.9619 26.4533 18.2107 24.2605 18.9659 23.2114C19.7037 22.187 19.7469 22.1527 20.4935 21.9994C20.9161 21.9127 21.3234 21.8226 21.3986 21.7993C21.4738 21.776 21.7045 21.752 21.9113 21.7461L22.2872 21.7353V24.8927ZM26.5667 22.0582C27.0353 22.1926 27.2689 22.3929 27.8379 23.148C28.6474 24.2222 29.8621 26.457 29.7421 26.6513C29.6968 26.7244 29.0931 26.9634 28.4003 27.1824C27.3074 27.5278 26.5812 27.6865 24.8507 27.9584L24.4747 28.0175V24.8607V21.7038L25.2337 21.7986C25.6512 21.8508 26.251 21.9676 26.5667 22.0582ZM56.6527 25.0507C56.9793 26.4076 57.0824 28.4211 56.8887 29.6592C56.8009 30.22 56.7047 30.7032 56.675 30.7329C56.6328 30.7751 54.4413 30.1083 54.3185 30.0159C54.3025 30.0039 54.4109 29.4123 54.5596 28.7015C54.7082 27.9907 54.8691 26.7158 54.9173 25.8683C55.0039 24.3499 55.0103 24.3265 55.36 24.2499C55.5553 24.2073 55.7765 24.1518 55.8517 24.1266C56.3217 23.9699 56.4198 24.0829 56.6527 25.0507ZM15.3865 25.0638C15.1984 25.489 14.9977 25.8347 14.9404 25.8321C14.883 25.8293 14.6917 25.747 14.5152 25.6491L14.1942 25.4711L14.9181 24.838C15.3162 24.4896 15.6614 24.2241 15.6851 24.2478C15.7089 24.2715 15.5745 24.6388 15.3865 25.0638ZM47.9904 24.4109C48.6295 24.5263 49.9763 24.6269 50.9834 24.6344L52.8143 24.6482L52.7361 26.0287C52.632 27.8659 52.2781 29.4398 51.994 29.3307C51.8793 29.2868 50.3933 28.8143 48.6917 28.2808C46.99 27.7473 45.5777 27.2925 45.5532 27.2698C45.5182 27.2377 46.108 25.2587 46.4184 24.3671C46.493 24.1527 46.5714 24.1549 47.9904 24.4109ZM32.1777 25.5277C32.0481 25.6226 31.9044 25.7001 31.8586 25.7001C31.7796 25.7001 31.1739 24.542 31.1739 24.3908C31.1739 24.3515 31.4529 24.5525 31.7937 24.8374C32.3549 25.3065 32.3912 25.3717 32.1777 25.5277ZM13.5129 27.5702C13.8647 27.7715 14.1633 27.9414 14.1765 27.9474C14.1898 27.9535 14.0517 28.5424 13.8699 29.256C13.6879 29.9697 13.4648 31.2151 13.374 32.0234L13.209 33.4931H11.8693C10.8876 33.4931 10.53 33.4474 10.5312 33.3222C10.5372 32.7541 11.1087 30.5199 11.465 29.6719C11.8488 28.7588 12.7049 27.204 12.824 27.204C12.8512 27.204 13.1611 27.3688 13.5129 27.5702ZM34.1805 27.6124C35.0085 28.7753 36.0958 31.8567 36.0958 33.0406V33.4931H34.8841H33.6723L33.5095 32.0461C33.42 31.2502 33.1963 30.0057 33.0123 29.2806C32.8284 28.5555 32.6779 27.9203 32.6779 27.8692C32.6779 27.7506 33.5136 27.2304 33.7281 27.2154C33.817 27.2091 34.0206 27.3878 34.1805 27.6124ZM31.0912 30.5054C31.209 31.0751 31.3461 31.9804 31.396 32.5172L31.4866 33.4931H27.9765H24.4663L24.5047 31.8183L24.5431 30.1435L25.5001 30.0403C26.6047 29.921 28.8795 29.3762 29.8751 28.9923L30.5587 28.7289L30.718 29.0991C30.8056 29.3028 30.9737 29.9357 31.0912 30.5054ZM17.6333 29.3479C18.5007 29.6302 19.8539 29.8925 21.8429 30.1637L22.2872 30.2243V31.8586V33.4931H18.8488H15.4104L15.4993 32.2968C15.5482 31.6389 15.7112 30.616 15.8616 30.0236C16.0118 29.4313 16.1349 28.9173 16.1349 28.881C16.1349 28.8449 16.2425 28.8605 16.3741 28.9156C16.5058 28.9708 17.0724 29.1653 17.6333 29.3479ZM48.0226 30.3558C49.4712 30.8109 50.8549 31.2458 51.0974 31.3224L51.5385 31.4613L50.9777 32.5798C50.6692 33.1949 50.1498 34.1123 49.8233 34.6183L49.2298 35.5384L48.2153 34.8105C47.6572 34.4101 46.7327 33.8423 46.1605 33.5486L45.1205 33.0146L45.1198 31.2714C45.1195 30.2172 45.1724 29.5282 45.2541 29.5282C45.3282 29.5282 46.5739 29.9007 48.0226 30.3558ZM54.8568 32.5063L56.0494 32.881L55.7152 33.6023C55.5314 33.9989 55.1489 34.675 54.8653 35.1046C54.2827 35.9868 52.2738 38.1415 52.0337 38.1415C51.9471 38.1415 51.6539 37.8753 51.3818 37.5499L50.8873 36.9582L51.6443 35.8068C52.0607 35.1734 52.6741 34.0862 53.0073 33.3906C53.3406 32.6949 53.6247 32.1271 53.6388 32.1286C53.6527 32.1301 54.2008 32.3001 54.8568 32.5063ZM46.4348 36.2611C47.0272 36.6555 47.5734 37.0226 47.6486 37.0769C47.7869 37.1768 46.2058 38.8764 45.4952 39.3915L45.1193 39.664V37.6039C45.1193 36.471 45.1729 35.5439 45.2385 35.5439C45.304 35.5439 45.8424 35.8667 46.4348 36.2611ZM13.3315 36.33C13.4757 37.4406 13.9448 39.595 14.2102 40.3662L14.4636 41.1031L13.6618 41.5439L12.8599 41.9847L12.4048 41.2594C11.5549 39.9052 10.8443 37.9281 10.6084 36.2616L10.5261 35.6806H11.8866H13.247L13.3315 36.33ZM22.2872 37.2956V38.9107L20.8175 39.1337C20.0092 39.2562 18.7941 39.5209 18.1173 39.7216C17.4405 39.9224 16.7835 40.1166 16.6573 40.1529C16.4757 40.2053 16.3692 40.0302 16.1494 39.3183C15.8999 38.5104 15.4528 36.2891 15.4517 35.8515C15.4514 35.7193 16.2258 35.6806 18.8693 35.6806H22.2872V37.2956ZM31.3664 36.2616C31.1277 37.9092 30.5534 40.1931 30.3781 40.1914C30.3271 40.1908 29.843 40.0403 29.3024 39.8568C28.1582 39.4685 26.703 39.1583 25.3976 39.0246L24.4747 38.93V37.3054V35.6806H27.9627H31.4507L31.3664 36.2616ZM36.0485 36.5061C35.9256 37.6819 35.2092 39.7359 34.4987 40.9499C33.9139 41.9486 33.8785 41.9815 33.5917 41.7947C33.4275 41.6876 33.0991 41.5002 32.862 41.3781L32.4309 41.156L32.6997 40.2983C33.0307 39.2413 33.4982 37.0159 33.4982 36.4971C33.4982 35.717 33.5605 35.6806 34.8994 35.6806H36.1348L36.0485 36.5061ZM50.0411 39.3772C50.0411 39.478 48.6938 40.1002 48.1271 40.2611C47.8543 40.3385 47.9496 40.1898 48.5992 39.5254L49.4129 38.6928L49.7271 38.9878C49.8998 39.1501 50.0411 39.3254 50.0411 39.3772ZM22.2872 44.3047V47.4601L21.9113 47.3882C21.7045 47.3487 21.2735 47.2768 20.9534 47.2285C20.4881 47.1583 20.279 47.0267 19.9096 46.5717C18.9081 45.3384 17.2735 42.5024 17.4239 42.2591C17.5818 42.0034 20.8864 41.1953 21.9113 41.1616L22.2872 41.1493V44.3047ZM26.4202 41.3473C27.8283 41.5983 29.5333 42.1123 29.5333 42.2855C29.5333 42.7443 26.9716 46.7938 26.5414 47.0153C26.4198 47.0779 26.0743 47.1699 25.7736 47.2201C25.4728 47.2701 25.0574 47.3446 24.8507 47.3856L24.4747 47.4601V44.3047V41.1493L24.9191 41.1541C25.1634 41.1567 25.8389 41.2437 26.4202 41.3473ZM15.8496 44.236C16.1569 44.8057 16.4083 45.3009 16.4083 45.3363C16.4083 45.429 15.3306 44.6508 14.7677 44.1518C14.5045 43.9184 14.3574 43.6989 14.4407 43.664C14.5241 43.629 14.7086 43.5122 14.8508 43.4047C14.9931 43.2969 15.1502 43.2068 15.2001 43.2045C15.25 43.202 15.5422 43.6663 15.8496 44.236ZM32.1095 43.4525L32.4297 43.6989L31.7102 44.3458C31.3144 44.7017 30.8677 45.0585 30.7174 45.1389C30.4694 45.2717 30.4763 45.2301 30.7913 44.6869C30.9821 44.358 31.2401 43.8889 31.3647 43.6445C31.6257 43.1323 31.6761 43.1193 32.1095 43.4525ZM47.6223 46.8962C47.1339 47.0874 46.9395 47.5482 46.5708 49.3884C46.0645 51.915 46.1246 52.0021 48.7196 52.5L50.3375 52.8105L50.2455 53.3031C50.1948 53.5741 50.1336 53.8161 50.1092 53.8409C50.0847 53.8657 49.1264 53.6966 47.9793 53.4651C46.8322 53.2336 45.88 53.0595 45.8631 53.0782C45.8199 53.1263 45.4095 55.1575 45.4378 55.183C45.4505 55.1945 46.7083 55.4541 48.2329 55.7599C51.1913 56.3533 51.4831 56.3526 51.8677 55.7502C51.9779 55.5777 52.2254 54.6513 52.4177 53.6915C52.924 51.1649 52.864 51.0779 50.2689 50.5799L48.651 50.2694L48.743 49.7768C48.7937 49.5059 48.855 49.2639 48.8792 49.2393C48.9159 49.2017 51.905 49.7644 52.8584 49.9882C53.1161 50.0488 53.1634 49.9654 53.3105 49.1914C53.4007 48.716 53.5031 48.2285 53.538 48.1082C53.5995 47.8956 53.0023 47.7529 48.1954 46.8312C48.045 46.8025 47.7872 46.8316 47.6223 46.8962ZM9.36116 52.9694L9.02551 53.3049V57.3444V61.3837H10.1193H11.213V60.29V59.1962H13.0649C14.8489 59.1962 14.9292 59.1839 15.2524 58.8606C15.5853 58.5278 15.588 58.5039 15.588 55.915C15.588 52.4007 15.821 52.6337 12.3068 52.6337C9.71786 52.6337 9.69393 52.6364 9.36116 52.9694ZM17.0174 52.9694L16.6818 53.3049V57.3444V61.3837H17.7755H18.8693V60.29V59.1962H19.963H21.0568V60.29V61.3837H22.1505H23.2443V57.3444V53.3049L22.9086 52.9694C22.5758 52.6364 22.5519 52.6337 19.963 52.6337C17.3741 52.6337 17.3502 52.6364 17.0174 52.9694ZM24.6737 52.9694C24.3469 53.296 24.338 53.3598 24.338 55.3681C24.338 57.3764 24.3469 57.4402 24.6737 57.7668C24.9969 58.0902 25.0771 58.1025 26.8612 58.1025H28.713V58.6493V59.1962H26.5255H24.338V60.29V61.3837H27.2836C31.1265 61.3837 30.9005 61.5545 30.9005 58.6493C30.9005 56.6411 30.8916 56.5772 30.5649 56.2506C30.2417 55.9273 30.1614 55.915 28.3774 55.915H26.5255V55.3681V54.8212H28.713H30.9005V53.7275V52.6337H27.9549C25.0096 52.6337 25.0092 52.6337 24.6737 52.9694ZM32.3299 52.9694C32.0031 53.296 31.9943 53.3598 31.9943 55.3681C31.9943 57.3764 32.0031 57.4402 32.3299 57.7668C32.6531 58.0902 32.7334 58.1025 34.5174 58.1025H36.3693V58.6493V59.1962H34.1818H31.9943V60.29V61.3837H34.9399C38.7828 61.3837 38.5568 61.5545 38.5568 58.6493C38.5568 56.6411 38.5479 56.5772 38.2211 56.2506C37.8979 55.9273 37.8177 55.915 36.0336 55.915H34.1818V55.3681V54.8212H36.3693H38.5568V53.7275V52.6337H35.6112C32.6658 52.6337 32.6654 52.6337 32.3299 52.9694ZM13.4005 55.915V57.0087H12.3068H11.213V55.915V54.8212H12.3068H13.4005V55.915ZM21.0568 55.915V57.0087H19.963H18.8693V55.915V54.8212H19.963H21.0568V55.915Z" fill="white"></path>
</svg>
