<?xml version="1.0" encoding="UTF-8"?>
<svg xmlns="http://www.w3.org/2000/svg" width="150" height="150" viewBox="0 0 150 150" fill="none">
  <rect width="150" height="150" rx="75" fill="white"></rect>
  <path d="M35 64.5302C38.6354 60.3135 42.2667 56.0948 45.9042 51.8823C49.7813 47.3906 53.6646 42.9052 57.5479 38.4156C58.3708 37.4635 58.8187 37.426 59.7604 38.2364C61.5167 39.7469 63.2687 41.2615 65.0208 42.7781C65.2125 42.9448 65.3896 43.126 65.6229 43.349C62.55 44.751 59.5521 46.1219 56.5521 47.4885C54.3521 48.4906 52.15 49.4823 49.9521 50.4885C47.9958 51.3844 47.2854 53.2531 48.1792 55.224C49.9896 59.226 51.8187 63.2198 53.6396 67.2156C53.7437 67.4448 53.8375 67.6802 53.9521 67.9552C49.7646 69.574 48.2667 72.7615 48.6542 77.2135C47.9854 76.6448 47.4813 76.2177 46.9792 75.7844C43.2396 72.549 39.5 69.3135 35.7646 66.074C35.4937 65.8385 35.2542 65.5656 35.0021 65.3115C35 65.051 35 64.7906 35 64.5302Z" fill="#183052"></path>
  <path d="M115 86.7197C114.904 87.0655 114.804 87.4113 114.715 87.7572C113.637 91.8926 109.585 94.628 105.431 94.0217C101.027 93.378 97.9708 89.7155 98.1063 85.2468C98.2313 81.1176 101.573 77.5967 105.733 77.2072C110.035 76.8051 113.971 79.7217 114.833 83.9488C114.873 84.1467 114.944 84.3363 115 84.5322C115 85.2613 115 85.9905 115 86.7197ZM104.56 87.5405C103.85 86.8155 103.208 86.1384 102.542 85.4884C101.94 84.8988 101.317 84.8655 100.825 85.353C100.333 85.8426 100.365 86.4697 100.948 87.0697C101.765 87.9093 102.6 88.728 103.427 89.5551C104.323 90.4509 104.796 90.4488 105.713 89.5322C107.792 87.4572 109.869 85.378 111.946 83.2988C112.092 83.153 112.252 83.0113 112.365 82.8384C112.708 82.3113 112.675 81.7884 112.21 81.3613C111.773 80.9592 111.26 80.9592 110.788 81.3134C110.54 81.4988 110.333 81.7384 110.113 81.9592C108.281 83.7967 106.454 85.6363 104.56 87.5405Z" fill="#183052"></path>
  <path d="M97.9354 79.1511C95.1979 83.4906 94.9313 87.7969 97.9 91.8865C100.935 96.0677 105.192 97.1219 110.165 95.7844C110.165 96.8344 110.165 97.8469 110.165 98.8594C110.165 101.176 110.169 103.495 110.163 105.811C110.152 109.691 107.521 112.33 103.635 112.332C89.8896 112.339 76.1438 112.334 62.3979 112.334C60.7063 112.334 59.0125 112.343 57.3209 112.332C53.5646 112.311 50.8875 109.724 50.875 105.97C50.8438 95.7906 50.85 85.6094 50.8708 75.4302C50.8771 72.1386 53.0917 69.9615 56.375 69.9365C58.9521 69.9177 61.5334 70.0115 64.1063 69.9073C66.1188 69.8261 67.6813 70.5823 69.0563 71.9448C70.8313 73.7031 72.6271 75.4427 74.4167 77.1865C74.8084 77.5677 75.2125 77.9344 75.6146 78.3052C76.3021 78.9386 77.1083 79.1656 78.0438 79.1615C84.3188 79.1406 90.5917 79.1511 96.8667 79.1511C97.1771 79.1511 97.4875 79.1511 97.9354 79.1511ZM80.5146 105.309C87.4125 105.309 94.3104 105.309 101.208 105.309C102.465 105.309 102.988 104.986 103.002 104.201C103.017 103.397 102.502 103.059 101.248 103.059C87.4271 103.059 73.6042 103.059 59.7834 103.059C59.5229 103.059 59.2625 103.059 59.0042 103.091C58.3979 103.164 58.0542 103.549 58.0229 104.126C57.9896 104.749 58.35 105.155 58.9646 105.282C59.2146 105.334 59.4834 105.309 59.7438 105.309C66.6667 105.311 73.5917 105.309 80.5146 105.309ZM64.6083 97.6302C66.325 97.6302 68.0417 97.6344 69.7584 97.6281C70.6896 97.624 71.2313 97.1886 71.2229 96.4802C71.2146 95.8031 70.6834 95.3594 69.8084 95.3573C66.3479 95.349 62.8875 95.349 59.4292 95.3573C58.5459 95.3594 58.0208 95.7906 58.0042 96.4698C57.9854 97.1781 58.5334 97.624 59.4584 97.6281C61.175 97.6365 62.8917 97.6302 64.6083 97.6302Z" fill="#183052"></path>
  <path d="M73.8374 73.4447C72.452 72.1218 71.2479 70.703 69.7791 69.6572C68.5312 68.7697 68.2375 67.8134 68.2604 66.3801C68.3437 60.9905 68.2937 55.6009 68.2937 50.2093C68.2937 48.8801 68.6125 48.5634 69.9541 48.5634C77.6354 48.5613 85.3166 48.5634 92.9979 48.5634C93.2541 48.5634 93.5083 48.5634 93.8687 48.5634C93.8687 48.9113 93.8687 49.1884 93.8687 49.4676C93.8687 51.7593 93.8624 54.0509 93.8708 56.3426C93.8791 58.5322 95.1166 59.7634 97.3208 59.7738C99.5854 59.7843 101.852 59.7759 104.117 59.7759C104.396 59.7759 104.677 59.7759 105.006 59.7759C105.031 60.0801 105.065 60.3051 105.065 60.5301C105.069 65.1134 105.056 69.6968 105.081 74.2801C105.085 74.878 104.856 75.0197 104.323 75.1884C103.167 75.553 102.062 76.078 100.927 76.5134C100.506 76.6759 100.058 76.878 99.6229 76.8801C92.6458 76.903 85.6666 76.878 78.6895 76.9176C77.7208 76.9238 76.9854 76.678 76.3666 75.9593C76.1145 75.6655 75.802 75.4218 75.55 74.9509C75.8375 74.9509 76.1229 74.9509 76.4104 74.9509C83.5187 74.9509 90.627 74.9509 97.7354 74.9488C98.0208 74.9488 98.3124 74.9593 98.5916 74.9093C99.1749 74.8072 99.525 74.4488 99.5395 73.8447C99.5541 73.1968 99.1791 72.8384 98.577 72.7051C98.377 72.6613 98.1625 72.678 97.9541 72.678C90.4291 72.6759 82.9041 72.6822 75.3791 72.6697C74.725 72.6676 74.1937 72.8113 73.8374 73.4447ZM86.6395 64.0093C90.3624 64.0093 94.0874 64.0113 97.8104 64.0072C98.0958 64.0072 98.3874 64.0093 98.6645 63.9488C99.2124 63.8301 99.5187 63.4655 99.5354 62.9009C99.552 62.3301 99.2499 61.9572 98.7187 61.8072C98.4499 61.7322 98.152 61.7384 97.8687 61.7384C90.4208 61.7343 82.9729 61.7343 75.525 61.7384C75.2395 61.7384 74.9458 61.7343 74.6729 61.8009C74.1291 61.9363 73.827 62.328 73.8354 62.8822C73.8437 63.4322 74.1354 63.8238 74.6937 63.9447C74.9708 64.003 75.2624 64.0072 75.5458 64.0072C79.2458 64.0113 82.9416 64.0093 86.6395 64.0093ZM86.6687 69.4801C90.3875 69.4801 94.1062 69.4822 97.825 69.478C98.1104 69.478 98.402 69.478 98.677 69.4176C99.225 69.2947 99.525 68.928 99.5375 68.3634C99.55 67.7947 99.2416 67.4322 98.7124 67.2738C98.4937 67.2093 98.2499 67.2093 98.0187 67.2093C90.452 67.2072 82.8833 67.2072 75.3166 67.2093C75.0854 67.2093 74.8437 67.2197 74.625 67.2863C74.0854 67.4488 73.7312 67.8738 73.8666 68.3926C73.9645 68.7759 74.3416 69.1322 74.6791 69.3905C74.8687 69.5364 75.2291 69.4759 75.5145 69.4759C79.2312 69.4801 82.95 69.4801 86.6687 69.4801ZM82.4229 58.5405C84.6875 58.5405 86.9499 58.5426 89.2145 58.5384C89.4999 58.5384 89.7895 58.5301 90.0666 58.4718C90.6187 58.353 90.9208 57.9738 90.9312 57.4197C90.9416 56.8197 90.5979 56.4509 90.0312 56.3072C89.8333 56.2572 89.6187 56.2718 89.4104 56.2718C84.727 56.2697 80.0437 56.2697 75.3604 56.2738C75.1041 56.2738 74.7604 56.2301 74.6083 56.3697C74.2937 56.6613 73.8812 57.0676 73.8854 57.4197C73.8916 57.7697 74.3083 58.1801 74.6437 58.4363C74.852 58.5947 75.2437 58.5384 75.5541 58.5405C77.8437 58.5447 80.1333 58.5405 82.4229 58.5405Z" fill="#183052"></path>
  <path d="M66.0666 67.6677C62.9541 67.6677 59.9645 67.6573 56.9728 67.6781C56.4874 67.6823 56.252 67.5385 56.0478 67.0843C54.1499 62.8677 52.2187 58.6635 50.3041 54.4531C49.827 53.4052 49.9978 52.9489 51.0333 52.476C61.2437 47.8156 71.4562 43.1573 81.6687 38.501C82.7999 37.9843 83.2583 38.1489 83.7645 39.2552C84.8124 41.5427 85.8562 43.8302 86.9583 46.2406C86.5666 46.2573 86.2728 46.2823 85.9791 46.2823C80.6437 46.2843 75.3083 46.2823 69.9749 46.2843C67.3812 46.2864 66.0708 47.5823 66.0708 50.1531C66.0687 55.6968 66.0708 61.2406 66.0708 66.7843C66.0666 67.0677 66.0666 67.3489 66.0666 67.6677Z" fill="#183052"></path>
  <path d="M96.0979 49.4512C98.7813 52.1428 101.448 54.8158 104.106 57.4783C104.052 57.4824 103.887 57.5095 103.723 57.5095C101.592 57.5116 99.4583 57.5137 97.3271 57.5095C96.3854 57.5074 96.1042 57.2387 96.1 56.3199C96.0938 54.0178 96.0979 51.7137 96.0979 49.4512Z" fill="#183052"></path>
</svg>
