<?xml version="1.0" encoding="UTF-8"?>
<svg xmlns="http://www.w3.org/2000/svg" width="100" height="100" viewBox="0 0 100 100" fill="none">
  <g opacity="0.8">
    <path fill-rule="evenodd" clip-rule="evenodd" d="M12.4951 8.62619C11.4682 8.99213 10.8662 9.47722 10.3761 10.3342L9.95703 11.0672V32.3663V53.6654L10.3791 54.4104C10.8544 55.25 11.7368 55.9162 12.7436 56.1958C13.7224 56.4677 47.5157 56.4521 48.5144 56.1793C49.5379 55.8998 50.4056 55.2057 50.9087 54.2644L51.3292 53.4777L51.3803 32.9315C51.4165 18.3335 51.3705 12.093 51.2213 11.375C50.9475 10.0561 49.8413 8.8876 48.5615 8.56539C47.3819 8.26833 33.9927 8.25876 33.3436 8.55451C32.8976 8.75793 32.4697 9.42862 32.4697 9.92478C32.4697 10.0608 32.6448 10.3947 32.8587 10.6666L33.2475 11.1611H40.5166C46.498 11.1611 47.8504 11.2082 48.1501 11.4273C48.5057 11.6874 48.5155 12.1217 48.5641 29.6301C48.6165 48.5247 48.6414 47.936 47.8133 47.3072C47.6341 47.1712 44.9951 46.0989 41.949 44.9245L36.4105 42.7892V42.0528C36.4105 41.4303 36.5503 41.1682 37.3141 40.36C38.4278 39.1811 39.1032 38.0375 39.4973 36.6637C39.772 35.7059 39.8604 35.5942 40.4971 35.4022C41.5213 35.0937 42.59 34.1204 43.0947 33.0364C43.8006 31.5204 43.6512 30.2021 42.5823 28.5169L41.994 27.5889L42.0263 24.301C42.0441 22.4873 41.9665 20.5858 41.8531 20.0601C41.4926 18.3887 39.9071 16.9784 38.3884 16.9784C37.8815 16.9784 37.7237 16.9006 37.7224 16.65C37.7213 16.4693 37.4706 15.8857 37.1651 15.3529C36.7228 14.5821 36.4026 14.2833 35.5961 13.8885L34.5825 13.3927L28.7877 13.4497L22.993 13.5068L21.8083 14.1491C20.3474 14.9412 19.1156 16.28 18.5491 17.6912C18.1462 18.6946 18.1194 19.0239 18.1167 22.9835C18.1145 26.424 18.1676 27.3101 18.4033 27.7687C18.6761 28.2992 18.6653 28.3854 18.2156 29.2621C16.9848 31.6624 18.1612 34.5351 20.7406 35.4281C21.3638 35.6438 21.4844 35.7839 21.6698 36.5075C22.011 37.8382 22.7318 39.1147 23.7906 40.2622C24.6286 41.1706 24.7758 41.4397 24.7758 42.0631V42.7961L19.0458 45.0219C15.8945 46.246 13.2716 47.3194 13.2174 47.407C13.1632 47.4949 13.0395 47.5665 12.9423 47.5665C12.7026 47.5665 12.7094 11.916 12.9492 11.5364C13.1007 11.2964 14.2352 11.241 20.6325 11.1611C27.8608 11.0706 28.1483 11.0533 28.4212 10.6919C28.9701 9.96494 28.7605 9.03847 27.9524 8.62075C27.1885 8.22554 13.606 8.23043 12.4951 8.62619ZM34.572 16.5562C34.7283 16.7369 34.9541 17.1764 35.074 17.533C35.5484 18.9445 36.2986 19.5401 37.8889 19.7678C39.1351 19.946 39.2193 20.2112 39.2225 23.9687C39.2252 26.9877 39.2105 27.1119 38.85 27.1119C38.2901 27.1119 37.7798 26.4962 37.6365 25.6473C37.4876 24.767 37.0921 24.3489 36.2478 24.1802C35.6833 24.0672 35.5583 24.1464 34.4772 25.2997C32.7656 27.1262 32.827 27.1119 26.6718 27.1119C22.0527 27.1119 21.3878 27.0749 21.1161 26.8032C20.8462 26.5334 20.8151 26.032 20.8682 22.8155C20.9239 19.4289 20.9622 19.074 21.3493 18.3498C21.7794 17.545 22.6417 16.7662 23.4678 16.4367C23.7303 16.3318 26.1766 16.2464 29.1097 16.2396C33.8171 16.2289 34.314 16.2576 34.572 16.5562ZM37.1596 31.7024C37.1572 35.5246 36.6368 37.2206 35.0059 38.724C33.6405 39.9826 32.6857 40.3397 30.683 40.3408C29.1474 40.3417 28.8738 40.2845 27.7374 39.7249C26.2333 38.9846 25.1314 37.8099 24.5943 36.3747C24.2753 35.5218 24.2128 34.9102 24.2128 32.6407V29.9268H28.2133C32.6239 29.9268 33.5352 29.7763 34.8321 28.8339L35.566 28.3004L36.3636 28.9656L37.1611 29.631L37.1596 31.7024ZM21.3979 31.2346C21.3979 32.2821 21.3454 32.5221 21.1337 32.4408C20.9883 32.3851 20.7644 32.086 20.6362 31.7763C20.4409 31.3051 20.4529 31.1086 20.7098 30.5701C21.1834 29.5768 21.3979 29.7838 21.3979 31.2346ZM40.6568 31.07C40.7356 31.5568 40.6656 31.8339 40.3751 32.183L39.9886 32.6478L39.9822 31.2471C39.9765 29.9883 40.0051 29.8755 40.2638 30.1341C40.422 30.2923 40.5988 30.7136 40.6568 31.07ZM30.5931 43.1566C31.4704 43.1566 32.505 43.0894 32.8919 43.0074C33.5876 42.8597 33.5956 42.8648 33.5956 43.4484C33.5956 44.0964 34.6247 45.3147 35.172 45.3147C35.636 45.3147 35.5304 45.6074 34.8623 46.1724C33.9496 46.9445 32.4828 47.5513 31.2075 47.6846C29.7192 47.8401 27.8214 47.2819 26.5576 46.3167C25.7253 45.6813 25.6771 45.6035 26.004 45.4209C26.8634 44.9407 27.5906 44.0365 27.5906 43.4484C27.5906 42.8648 27.5987 42.8597 28.2943 43.0074C28.6815 43.0894 29.7158 43.1566 30.5931 43.1566ZM23.7142 47.5014C27.1766 51.4347 33.6243 51.5445 37.2608 47.7321C37.8399 47.125 38.3709 46.6285 38.4411 46.6286C38.8119 46.6301 46.3126 49.6762 46.8964 50.0624C47.939 50.7524 48.6728 51.9121 48.5166 52.6232C48.447 52.9401 48.2312 53.2845 48.037 53.3884C47.8052 53.5123 41.7424 53.5603 30.4055 53.5275C11.363 53.4727 12.7745 53.5708 12.7685 52.3008C12.7664 51.8382 12.9597 51.4762 13.5514 50.8342C13.9836 50.3653 14.5115 49.888 14.7243 49.7736C15.2264 49.5037 22.5667 46.6448 22.7817 46.6354C22.872 46.6314 23.2916 47.0212 23.7142 47.5014Z" fill="white"></path>
    <path fill-rule="evenodd" clip-rule="evenodd" d="M50.9267 18.2342C49.8999 18.6002 49.2979 19.0852 48.8077 19.9423L48.3887 20.6753V41.9744V63.2734L48.8107 64.0184C49.286 64.858 50.1684 65.5242 51.1752 65.8038C52.154 66.0757 85.9473 66.0601 86.946 65.7873C87.9695 65.5079 88.8372 64.8137 89.3403 63.8724L89.7609 63.0858L89.8119 42.5396C89.8481 27.9415 89.8022 21.701 89.653 20.983C89.3792 19.6642 88.2729 18.4956 86.9931 18.1734C85.8135 17.8764 72.4244 17.8668 71.7753 18.1625C71.3292 18.366 70.9013 19.0366 70.9013 19.5328C70.9013 19.6689 71.0764 20.0027 71.2903 20.2746L71.6792 20.7691H78.9483C84.9296 20.7691 86.2821 20.8162 86.5818 21.0354C86.9374 21.2955 86.9471 21.7297 86.9957 39.2381C87.0481 58.1328 87.0731 57.5441 86.2449 56.9152C86.0657 56.7792 83.4267 55.7069 80.3806 54.5326L74.8421 52.3972V51.6608C74.8421 51.0384 74.9819 50.7762 75.7457 49.968C76.8594 48.7891 77.5348 47.6455 77.9289 46.2717C78.2036 45.3139 78.292 45.2022 78.9287 45.0103C79.953 44.7018 81.0217 43.7284 81.5263 42.6445C82.2323 41.1284 82.0829 39.8101 81.014 38.1249L80.4257 37.197L80.458 33.909C80.4758 32.0953 80.3981 30.1938 80.2848 29.6682C79.9243 27.9967 78.3387 26.5865 76.82 26.5865C76.3132 26.5865 76.1554 26.5086 76.154 26.2581C76.1529 26.0774 75.9022 25.4937 75.5967 24.961C75.1544 24.1901 74.8343 23.8913 74.0277 23.4965L73.0142 23.0007L67.2193 23.0578L61.4246 23.1148L60.24 23.7572C58.7791 24.5493 57.5473 25.888 56.9807 27.2992C56.5778 28.3026 56.551 28.6319 56.5484 32.5915C56.5461 36.032 56.5992 36.9181 56.8349 37.3768C57.1078 37.9073 57.0969 37.9934 56.6473 38.8701C55.4164 41.2705 56.5929 44.1431 59.1722 45.0362C59.7954 45.2518 59.9161 45.392 60.1015 46.1156C60.4426 47.4462 61.1634 48.7227 62.2222 49.8702C63.0603 50.7787 63.2074 51.0478 63.2074 51.6712V52.4041L57.4775 54.6299C54.3261 55.854 51.7033 56.9274 51.649 57.0151C51.5948 57.1029 51.4711 57.1746 51.3739 57.1746C51.1343 57.1746 51.141 21.524 51.3809 21.1444C51.5323 20.9044 52.6669 20.849 59.0641 20.7691C66.2925 20.6786 66.58 20.6614 66.8528 20.3C67.4017 19.573 67.1921 18.6465 66.384 18.2288C65.6201 17.8336 52.0377 17.8385 50.9267 18.2342ZM73.0037 26.1642C73.16 26.345 73.3857 26.7844 73.5056 27.141C73.98 28.5526 74.7303 29.1482 76.3205 29.3758C77.5667 29.5541 77.651 29.8192 77.6542 33.5767C77.6568 36.5957 77.6422 36.72 77.2817 36.72C76.7217 36.72 76.2115 36.1042 76.0681 35.2553C75.9193 34.375 75.5237 33.9569 74.6794 33.7882C74.115 33.6752 73.99 33.7544 72.9089 34.9078C71.1973 36.7342 71.2586 36.72 65.1035 36.72C60.4843 36.72 59.8194 36.683 59.5477 36.4113C59.2779 36.1414 59.2467 35.64 59.2998 32.4235C59.3555 29.0369 59.3938 28.682 59.781 27.9579C60.2111 27.153 61.0734 26.3742 61.8994 26.0447C62.162 25.9398 64.6083 25.8544 67.5413 25.8477C72.2487 25.837 72.7456 25.8657 73.0037 26.1642ZM75.5913 41.3104C75.5888 45.1326 75.0684 46.8287 73.4375 48.332C72.0721 49.5906 71.1173 49.9477 69.1147 49.9488C67.5791 49.9498 67.3054 49.8925 66.169 49.333C64.6649 48.5926 63.563 47.4179 63.0259 45.9827C62.7069 45.1298 62.6444 44.5182 62.6444 42.2487V39.5348H66.6449C71.0556 39.5348 71.9669 39.3843 73.2637 38.4419L73.9977 37.9084L74.7952 38.5736L75.5928 39.2391L75.5913 41.3104ZM59.8296 40.8426C59.8296 41.8901 59.777 42.1301 59.5653 42.0489C59.4199 41.9931 59.196 41.694 59.0679 41.3844C58.8725 40.9132 58.8845 40.7167 59.1414 40.1781C59.6151 39.1848 59.8296 39.3918 59.8296 40.8426ZM79.0884 40.678C79.1673 41.1648 79.0973 41.442 78.8068 41.791L78.4202 42.2558L78.4138 40.8552C78.4082 39.5964 78.4367 39.4836 78.6955 39.7422C78.8537 39.9004 79.0305 40.3217 79.0884 40.678ZM69.0248 52.7646C69.9021 52.7646 70.9366 52.6975 71.3236 52.6154C72.0192 52.4678 72.0273 52.4728 72.0273 53.0564C72.0273 53.7044 73.0564 54.9227 73.6036 54.9227C74.0677 54.9227 73.962 55.2154 73.294 55.7805C72.3812 56.5525 70.9145 57.1594 69.6392 57.2926C68.1508 57.4482 66.2531 56.8899 64.9892 55.9248C64.1569 55.2894 64.1087 55.2115 64.4356 55.0289C65.2951 54.5487 66.0222 53.6446 66.0222 53.0564C66.0222 52.4728 66.0303 52.4678 66.726 52.6154C67.1131 52.6975 68.1475 52.7646 69.0248 52.7646ZM62.1458 57.1095C65.6083 61.0428 72.056 61.1525 75.6924 57.3401C76.2715 56.733 76.8026 56.2365 76.8728 56.2367C77.2436 56.2382 84.7442 59.2842 85.328 59.6704C86.3707 60.3604 87.1044 61.5202 86.9483 62.2312C86.8786 62.5481 86.6628 62.8925 86.4686 62.9964C86.2369 63.1203 80.174 63.1683 68.8371 63.1355C49.7946 63.0807 51.2062 63.1789 51.2002 61.9088C51.1981 61.4462 51.3914 61.0842 51.9831 60.4422C52.4152 59.9733 52.9431 59.4961 53.1559 59.3816C53.6581 59.1118 60.9983 56.2528 61.2133 56.2434C61.3036 56.2395 61.7232 56.6292 62.1458 57.1095Z" fill="white"></path>
    <path d="M22.3633 89.5547C22.1029 89.2552 22.0508 89.0111 22.207 88.8223L22.7148 88.207C22.9362 87.9401 23.1999 87.9987 23.5059 88.3828C23.8444 88.806 24.2611 89.1543 24.7559 89.4277C25.2572 89.6947 25.7812 89.8281 26.3281 89.8281C27.4023 89.8281 28.1641 89.5612 28.6133 89.0273C29.0625 88.4935 29.2871 87.7806 29.2871 86.8887C29.2871 85.9447 28.9876 85.2611 28.3887 84.8379C27.7897 84.4147 27.1191 84.2031 26.377 84.2031H25.5176C25.2246 84.2031 25.0781 84.0957 25.0781 83.8809V83.1582C25.0781 82.9303 25.2246 82.8164 25.5176 82.8164H26.2109C26.9271 82.8164 27.5391 82.582 28.0469 82.1133C28.5612 81.6445 28.8184 81.0065 28.8184 80.1992C28.8184 79.6393 28.6133 79.1803 28.2031 78.8223C27.793 78.4642 27.2168 78.2852 26.4746 78.2852C25.778 78.2852 25.2083 78.4447 24.7656 78.7637C24.3229 79.0827 24.0104 79.3594 23.8281 79.5938C23.5872 79.9062 23.3529 79.9551 23.125 79.7402L22.5488 79.1836C22.3796 79.0208 22.4544 78.7507 22.7734 78.373C23.112 77.9759 23.597 77.6178 24.2285 77.2988C24.8665 76.9798 25.625 76.8203 26.5039 76.8203C27.8516 76.8203 28.8802 77.1458 29.5898 77.7969C30.2995 78.4479 30.6543 79.291 30.6543 80.3262C30.6543 81.1465 30.4004 81.8333 29.8926 82.3867C29.3913 82.9336 28.8411 83.2721 28.2422 83.4023V83.4414C28.9388 83.5391 29.6061 83.9167 30.2441 84.5742C30.8822 85.2318 31.2012 86.0163 31.2012 86.9277C31.2012 88.2819 30.8073 89.3496 30.0195 90.1309C29.2383 90.9056 27.9948 91.293 26.2891 91.293C25.2995 91.293 24.4824 91.1009 23.8379 90.7168C23.1934 90.3262 22.7018 89.9388 22.3633 89.5547Z" fill="white"></path>
    <path d="M33.3008 89.4082C33.0534 89.0827 33.0241 88.8353 33.2129 88.666L33.8184 88.1289C34.0397 87.9336 34.2969 88.015 34.5898 88.373C34.7656 88.5879 35.0749 88.8841 35.5176 89.2617C35.9603 89.6393 36.5365 89.8281 37.2461 89.8281C38.1771 89.8281 38.877 89.5417 39.3457 88.9688C39.821 88.3958 40.0586 87.6374 40.0586 86.6934C40.0586 85.8014 39.8568 85.0983 39.4531 84.584C39.0495 84.0697 38.444 83.8125 37.6367 83.8125C37.1354 83.8125 36.7188 83.8613 36.3867 83.959C36.0547 84.0566 35.7096 84.2617 35.3516 84.5742C35.1042 84.7891 34.8438 84.8965 34.5703 84.8965H34.1113C33.8184 84.8965 33.6719 84.75 33.6719 84.457V77.5527C33.6719 77.2598 33.8184 77.1133 34.1113 77.1133H40.8496C41.1426 77.1133 41.2891 77.2598 41.2891 77.5527V78.2754C41.2891 78.5684 41.1426 78.7148 40.8496 78.7148H35.3906V82.5723C35.3906 82.7676 35.3841 82.9629 35.3711 83.1582H35.4102C35.7747 82.8522 36.2012 82.6406 36.6895 82.5234C37.1777 82.4062 37.6302 82.3477 38.0469 82.3477C39.2578 82.3477 40.2148 82.7513 40.918 83.5586C41.6211 84.3659 41.9727 85.4238 41.9727 86.7324C41.9727 88.1582 41.5495 89.2747 40.7031 90.082C39.8633 90.8893 38.7174 91.293 37.2656 91.293C36.2044 91.293 35.3483 91.0749 34.6973 90.6387C34.0527 90.196 33.5872 89.7858 33.3008 89.4082Z" fill="white"></path>
    <path d="M43.8867 91C43.4505 91 43.3659 90.8079 43.6328 90.4238L46.9629 85.5996L44.0039 81.3223C43.737 80.9382 43.8216 80.7461 44.2578 80.7461H45.2148C45.4492 80.7461 45.6217 80.8307 45.7324 81L47.8906 84.3984L50.0391 81C50.1432 80.8307 50.3158 80.7461 50.5566 80.7461H51.5234C51.9596 80.7461 52.0443 80.9382 51.7773 81.3223L48.8184 85.5996L52.1484 90.4238C52.4154 90.8079 52.3307 91 51.8945 91H50.9375C50.7031 91 50.5306 90.9154 50.4199 90.7461L47.8906 86.791L45.3613 90.7461C45.2507 90.9154 45.0781 91 44.8438 91H43.8867Z" fill="white"></path>
    <path d="M53.3203 87.543C53.0273 87.543 52.8809 87.3965 52.8809 87.1035V86.2441C52.8809 86.0358 52.959 85.8112 53.1152 85.5703L58.4766 77.2891C58.6263 77.0547 58.8086 76.9375 59.0234 76.9375H59.9121C60.2116 76.9375 60.3613 77.084 60.3613 77.377V85.9414H62.0312C62.3242 85.9414 62.4707 86.0879 62.4707 86.3809V87.1035C62.4707 87.3965 62.3275 87.543 62.041 87.543H60.3613V90.5605C60.3613 90.8535 60.2148 91 59.9219 91H59.082C58.7891 91 58.6426 90.8535 58.6426 90.5605V87.543H53.3203ZM54.6289 85.9414H58.6426V80.3262C58.6426 80.1309 58.6491 79.9355 58.6621 79.7402H58.6426L54.6289 85.9414Z" fill="white"></path>
    <path d="M64.4922 89.4082C64.2448 89.0827 64.2155 88.8353 64.4043 88.666L65.0098 88.1289C65.2311 87.9336 65.4883 88.015 65.7812 88.373C65.957 88.5879 66.2663 88.8841 66.709 89.2617C67.1517 89.6393 67.7279 89.8281 68.4375 89.8281C69.3685 89.8281 70.0684 89.5417 70.5371 88.9688C71.0124 88.3958 71.25 87.6374 71.25 86.6934C71.25 85.8014 71.0482 85.0983 70.6445 84.584C70.2409 84.0697 69.6354 83.8125 68.8281 83.8125C68.3268 83.8125 67.9102 83.8613 67.5781 83.959C67.2461 84.0566 66.901 84.2617 66.543 84.5742C66.2956 84.7891 66.0352 84.8965 65.7617 84.8965H65.3027C65.0098 84.8965 64.8633 84.75 64.8633 84.457V77.5527C64.8633 77.2598 65.0098 77.1133 65.3027 77.1133H72.041C72.334 77.1133 72.4805 77.2598 72.4805 77.5527V78.2754C72.4805 78.5684 72.334 78.7148 72.041 78.7148H66.582V82.5723C66.582 82.7676 66.5755 82.9629 66.5625 83.1582H66.6016C66.9661 82.8522 67.3926 82.6406 67.8809 82.5234C68.3691 82.4062 68.8216 82.3477 69.2383 82.3477C70.4492 82.3477 71.4062 82.7513 72.1094 83.5586C72.8125 84.3659 73.1641 85.4238 73.1641 86.7324C73.1641 88.1582 72.7409 89.2747 71.8945 90.082C71.0547 90.8893 69.9089 91.293 68.457 91.293C67.3958 91.293 66.5397 91.0749 65.8887 90.6387C65.2441 90.196 64.7786 89.7858 64.4922 89.4082Z" fill="white"></path>
  </g>
</svg>
