<?xml version="1.0" encoding="UTF-8"?>
<svg xmlns="http://www.w3.org/2000/svg" width="100" height="100" viewBox="0 0 100 100" fill="none">
  <g opacity="0.8">
    <path fill-rule="evenodd" clip-rule="evenodd" d="M29.2882 0.126739C30.5308 0.440606 31.9435 1.26404 33.1627 2.38494C34.6076 3.71326 34.9353 3.84568 37.2502 4.03729C42.2232 4.4492 44.8506 7.08475 45.2365 12.049C45.3164 13.0763 45.4461 14.0213 45.5248 14.1486C45.6338 14.3248 50.558 14.3804 66.1154 14.3814C80.4648 14.382 86.7959 14.4469 87.3441 14.5986C88.3806 14.8857 89.866 16.3711 90.1531 17.4076C90.4578 18.5084 90.4601 95.7861 90.1556 96.8998C89.8814 97.9019 88.3353 99.4328 87.3095 99.7176C86.1656 100.035 30.0418 100.007 28.9683 99.6885C27.9113 99.3744 26.4711 97.9342 26.157 96.8771C25.9904 96.3158 25.9183 94.1584 25.9183 89.7258C25.9183 83.6 25.9324 83.3603 26.3232 82.8637C26.883 82.1519 27.8834 82.1519 28.4431 82.8637C28.8338 83.3601 28.848 83.6002 28.848 89.7084V96.0387L29.3275 96.518L29.8068 96.9974H58.1449H86.483L86.9623 96.518L87.4418 96.0387V57.1537V18.2687L86.9623 17.7894L86.483 17.3099H67.2461H48.0091L48.6338 18.6283C49.1998 19.8234 49.2582 20.1201 49.2582 21.8021C49.2582 23.4748 49.1982 23.7844 48.6484 24.9445C48.3131 25.6523 47.5168 26.8072 46.8791 27.5109C45.6084 28.9131 45.2568 29.751 45.2496 31.3951C45.247 31.9734 45.1683 32.7764 45.0748 33.1791L44.9049 33.9115H60.8119C78.3691 33.9115 77.4818 33.849 78.2699 35.1418C78.6261 35.7258 78.6513 36.1596 78.6513 41.724C78.6513 47.2885 78.6261 47.7223 78.2699 48.3062C77.4771 49.6066 78.5966 49.5365 58.6429 49.5365H40.5668V51.5935C40.5668 53.9256 40.3621 54.5965 39.3693 55.5191C38.1652 56.6385 36.7754 56.7937 35.3422 55.9695L34.7074 55.6043V68.9513V82.2982L35.9281 82.5349C39.6324 83.2531 42.5924 86.2131 43.3105 89.9174L43.5472 91.1381H58.1449H72.7425L72.9793 89.9174C73.6974 86.2131 76.6574 83.2531 80.3617 82.5349L81.5824 82.2982V57.1537V32.0092L80.3617 31.7724C76.6847 31.0596 73.6922 28.067 72.9793 24.39L72.7425 23.1693H63.4816H54.2209L53.7416 22.6898C53.1304 22.0789 53.1304 21.3301 53.7416 20.7191L54.2209 20.2396L64.0443 20.2404C73.4425 20.241 73.8945 20.2576 74.4927 20.6224C75.2906 21.1088 75.6414 21.8131 75.7781 23.2035C76.081 26.2846 78.4724 28.6713 81.5601 28.9748C82.9388 29.1103 83.6439 29.4629 84.1293 30.259C84.5025 30.8709 84.5107 31.4431 84.5107 57.1537C84.5107 82.8642 84.5025 83.4365 84.1293 84.0484C83.6439 84.8445 82.9388 85.1971 81.5601 85.3326C78.4724 85.6361 76.081 88.0228 75.7781 91.1039C75.6414 92.4943 75.2906 93.1986 74.4927 93.6849C73.8863 94.0549 73.3951 94.0664 58.1449 94.0664C42.8947 94.0664 42.4035 94.0549 41.797 93.6849C40.9992 93.1986 40.6484 92.4943 40.5117 91.1039C40.2088 88.0228 37.8174 85.6361 34.7297 85.3326C33.3509 85.1971 32.6459 84.8445 32.1605 84.0484C31.7908 83.4424 31.7791 82.9523 31.7785 67.9887L31.7777 52.5541L30.3129 51.099L28.848 49.6439V63.5334C28.848 76.8131 28.832 77.4428 28.4826 77.8742C27.9748 78.5014 26.7916 78.5014 26.2838 77.8742C25.9343 77.4428 25.9183 76.8152 25.9183 63.6285V49.834L22.8422 52.8869C21.1502 54.5662 19.555 56.0474 19.2972 56.1787C17.858 56.9119 15.5902 56.1209 14.8343 54.6221C14.4015 53.7637 14.3949 53.6383 14.3949 46.2961V38.8418L13.782 38.5879C12.9445 38.241 11.2156 36.5162 10.7082 35.5215C10.1271 34.3824 9.70739 32.6553 9.70739 31.4029C9.70739 29.7562 9.35719 28.9174 8.08258 27.5109C7.44489 26.8072 6.6486 25.6523 6.31325 24.9445C5.76344 23.7844 5.70348 23.4748 5.70348 21.8021C5.70348 20.1258 5.76286 19.8213 6.31892 18.6476C6.65739 17.933 7.42965 16.8097 8.03512 16.1513C9.39371 14.6734 9.5238 14.3547 9.71598 12.0328C10.1269 7.07029 12.7482 4.45037 17.7152 4.03768C20.0334 3.8449 20.3527 3.71463 21.83 2.35643C23.4881 0.832012 25.1037 0.105645 27.0416 0.0134577C27.874 -0.0261908 28.8849 0.0247858 29.2882 0.126739ZM25.8545 3.16854C25.2912 3.36053 24.4406 3.9326 23.6394 4.65877C21.834 6.2949 20.6935 6.7783 18.2154 6.9576C16.0129 7.11678 15.0908 7.44744 14.1084 8.42967C13.1261 9.41209 12.7955 10.3342 12.6363 12.5367C12.457 15.0148 11.9736 16.1553 10.3375 17.9607C7.92223 20.6256 7.92223 22.9787 10.3375 25.6435C11.9736 27.449 12.457 28.5894 12.6363 31.0676C12.7955 33.2701 13.1261 34.1922 14.1084 35.1746C15.0908 36.1568 16.0129 36.4875 18.2154 36.6467C20.6935 36.826 21.834 37.3094 23.6394 38.9455C25.0054 40.1836 26.2076 40.7474 27.4808 40.7474C28.7541 40.7474 29.9562 40.1836 31.3222 38.9455C33.1277 37.3094 34.2681 36.826 36.7463 36.6467C38.9488 36.4875 39.8709 36.1568 40.8533 35.1746C41.8355 34.1922 42.1662 33.2701 42.3254 31.0676C42.5047 28.5894 42.9881 27.449 44.6242 25.6435C47.0394 22.9787 47.0394 20.6256 44.6242 17.9607C42.9881 16.1553 42.5047 15.0148 42.3254 12.5367C42.1662 10.3342 41.8355 9.41209 40.8533 8.42967C39.8709 7.44744 38.9488 7.11678 36.7463 6.9576C34.2672 6.77811 33.1277 6.2949 31.3187 4.65545C29.4156 2.93084 27.8236 2.49764 25.8545 3.16854ZM42.4336 37.7025C41.8519 38.1762 41.1939 38.6217 40.9715 38.6922C40.5798 38.8164 40.5668 38.9472 40.5668 42.7137V46.6068H58.1449H75.723V41.724V36.8412H59.607H43.491L42.4336 37.7025ZM35.2457 39.8082C34.7886 39.9451 33.9425 40.5181 33.1896 41.2004C32.4859 41.8381 31.331 42.6344 30.6232 42.9697C29.4631 43.5195 29.1535 43.5795 27.4808 43.5795C25.8082 43.5795 25.4986 43.5195 24.3384 42.9697C23.6306 42.6344 22.4758 41.8381 21.772 41.2004C20.4258 39.9803 19.5191 39.5756 18.132 39.5756H17.3246V46.3877C17.3246 52.309 17.3642 53.2326 17.6281 53.4515C17.8892 53.6683 18.4256 53.2088 21.4855 50.1467C23.4402 48.1906 25.1713 46.5082 25.3324 46.408C25.4935 46.3078 26.0716 46.1252 26.6174 46.0021C27.434 45.818 27.799 45.8336 28.6836 46.0908C29.681 46.3806 30.0185 46.6648 33.3924 50.0547C36.5322 53.2096 37.0681 53.6719 37.3318 53.4529C37.598 53.232 37.6371 52.3265 37.6371 46.3877V39.5756H36.8297C36.3855 39.5756 35.6728 39.6803 35.2457 39.8082ZM33.4869 14.2488C34.7228 14.5594 36.4818 15.6004 37.3357 16.5267C37.7742 17.0025 38.4113 17.9791 38.7511 18.6965C39.3109 19.8779 39.3693 20.1773 39.3693 21.8668C39.3693 23.6275 39.3283 23.8152 38.6398 25.2082C37.7613 26.9859 36.6304 28.0931 34.8146 28.9533C33.6295 29.5148 33.34 29.5709 31.6545 29.5646C30.142 29.5592 29.6095 29.4734 28.7736 29.1012L27.7482 28.6445L26.7228 29.1012C25.8857 29.474 25.355 29.5592 23.8318 29.5646C22.0646 29.5711 21.8884 29.533 20.4904 28.842C18.7127 27.9635 17.6054 26.8326 16.7453 25.0168C16.1863 23.8369 16.1271 23.5345 16.1271 21.8566C16.1271 20.1787 16.1863 19.8763 16.7453 18.6965C17.6054 16.8806 18.7127 15.7498 20.4904 14.8713C21.8884 14.1802 22.0646 14.1422 23.8318 14.1486C25.355 14.1541 25.8857 14.2392 26.7228 14.6121L27.7482 15.0687L28.7609 14.6332C29.9142 14.1371 32.2769 13.9449 33.4869 14.2488ZM30.573 17.0861C30.1904 17.1888 30.2017 17.2463 30.866 18.5847C31.5127 19.8875 31.5568 20.0967 31.5568 21.8566C31.5568 23.6166 31.5127 23.8258 30.866 25.1285C30.2017 26.467 30.1904 26.5244 30.573 26.6271C32.0015 27.0109 33.9203 26.4369 35.0775 25.2797C36.9896 23.3676 36.9883 20.3441 35.074 18.4301C33.9158 17.2719 32.005 16.7013 30.573 17.0861ZM22.181 17.2972C20.3795 17.9111 18.9591 19.9211 18.9591 21.8566C18.9591 24.8601 22.1125 27.3824 24.9234 26.6271C25.306 26.5244 25.2947 26.467 24.6304 25.1285C23.9837 23.8258 23.9396 23.6166 23.9396 21.8566C23.9396 20.0953 23.9834 19.8881 24.633 18.5795C25.4 17.0345 25.4017 17.0385 23.9256 16.9965C23.4883 16.984 22.7031 17.1193 22.181 17.2972ZM27.124 20.115C26.942 20.5894 26.7929 21.3732 26.7929 21.8566C26.7929 22.9246 27.3609 24.4933 27.7476 24.4933C28.2299 24.4933 28.7756 22.6873 28.6674 21.4488C28.5623 20.2439 28.05 19.0543 27.6879 19.1748C27.5599 19.2174 27.3062 19.6404 27.124 20.115Z" fill="white"></path>
    <rect x="37" y="71" width="20" height="3" rx="1.5" fill="white"></rect>
    <rect x="37" y="78" width="40" height="3" rx="1.5" fill="white"></rect>
    <rect x="61" y="71" width="16" height="3" rx="1.5" fill="white"></rect>
    <rect x="40" y="64" width="17" height="3" rx="1.5" fill="white"></rect>
    <rect x="61" y="64" width="16" height="3" rx="1.5" fill="white"></rect>
    <rect x="41" y="57" width="16" height="3" rx="1.5" fill="white"></rect>
    <rect x="61" y="57" width="16" height="3" rx="1.5" fill="white"></rect>
  </g>
</svg>
