<?xml version="1.0" encoding="UTF-8"?>
<svg xmlns="http://www.w3.org/2000/svg" width="70" height="70" viewBox="0 0 70 70" fill="none">
  <g clip-path="url(#clip0_946_976)">
    <path fill-rule="evenodd" clip-rule="evenodd" d="M44.2613 0.0766663C43.5546 0.308405 43.0474 0.649381 42.5347 1.23741C42.244 1.57073 37.4535 7.6569 31.8891 14.7622L21.7719 27.6811L11.4 34.6229C3.60882 39.8375 0.931729 41.6975 0.640928 42.099C0.428057 42.3929 0.185108 42.9651 0.100889 43.3706C-0.198935 44.815 -0.37708 44.5079 8.02661 57.0371C12.2633 63.3535 15.8893 68.6964 16.0847 68.91C16.8465 69.7432 18.226 70.1316 19.3483 69.8289C19.6898 69.7368 21.2796 68.7766 23.1764 67.5166C24.9606 66.3315 26.4854 65.3228 26.5651 65.275C26.6447 65.2271 27.383 65.7125 28.2058 66.3533C30.0113 67.7597 30.2809 67.9082 31.2022 68.0033C32.2172 68.1081 33.1794 67.7612 33.8725 67.0408C34.1742 66.7273 36.8073 63.4253 39.7238 59.7031L45.0265 52.9356L46.4038 51.9785C47.1614 51.4522 52.2034 48.069 57.6086 44.4604C63.0137 40.8518 67.6763 37.6833 67.97 37.4193C68.2638 37.1555 68.6161 36.6934 68.7531 36.3926C69.0531 35.7341 69.0858 34.4502 68.8189 33.8116C68.7148 33.5625 67.8192 32.1453 66.8288 30.6624C65.8383 29.1794 64.9965 27.8846 64.9582 27.7848C64.9199 27.685 65.9374 26.2705 67.2209 24.6396C69.1195 22.2267 69.5935 21.5369 69.7704 20.9286C70.1326 19.6827 69.7938 18.5355 68.7806 17.5757C68.4923 17.3025 64.0419 13.7927 58.891 9.77618C53.7402 5.75965 48.9654 2.03626 48.2803 1.5021C47.5953 0.967799 46.8316 0.425709 46.5834 0.29733C46.0702 0.0319593 44.7733 -0.0912244 44.2613 0.0766663ZM46.0469 2.4069C46.3811 2.62633 51.3606 6.48686 57.1123 10.986C63.8624 16.2659 67.6358 19.3038 67.7559 19.5548C67.9122 19.8817 67.9123 20.0185 67.7573 20.4126C67.5741 20.8782 63.8312 25.779 63.65 25.7907C63.5979 25.7941 61.2363 22.3363 58.4021 18.1065C55.568 13.8768 53.1188 10.2695 52.9596 10.0904C52.2233 9.2613 50.4513 8.8696 49.4086 9.30532C48.9102 9.51354 40.0002 15.4119 39.5112 15.8573C38.8977 16.4161 39.3314 17.5942 40.1502 17.5933C40.3439 17.5932 40.9518 17.2939 41.5012 16.9283L42.5 16.2636L43.2891 17.0528C46.4681 20.2317 51.1658 21.1683 55.4016 19.4675L56.5523 19.0055L59.2141 22.9988L61.8758 26.9919L61.1915 27.6591C59.7715 29.0433 58.6475 30.9907 58.1236 32.9746C57.9378 33.678 57.8722 34.4026 57.876 35.709C57.8818 37.6559 58.0701 38.5968 58.7575 40.1128L59.1497 40.9777L51.6718 45.9768C47.5588 48.7263 40.287 53.5908 35.5121 56.7871C30.7372 59.9833 26.7574 62.6288 26.6681 62.6661C26.5787 62.7033 26.1559 62.3842 25.7287 61.9568C22.5599 58.7881 17.3965 57.8403 13.4099 59.6956L12.5675 60.0876L9.85823 56.0637L7.14901 52.0398L7.71517 51.5306C9.91005 49.5572 11.2003 46.5717 11.2143 43.4336C11.2221 41.677 11.0052 40.56 10.3564 39.0159C10.1334 38.4851 9.96515 38.0411 9.98251 38.0292C9.99987 38.0174 15.7973 34.1463 22.8657 29.427C29.934 24.7076 35.8914 20.6616 36.1044 20.4359C36.5358 19.9785 36.5221 19.5136 36.0637 19.0464C35.5638 18.537 35.2212 18.7006 31.2663 21.3367C29.165 22.7374 27.4457 23.8522 27.4457 23.8142C27.4457 23.6827 43.8801 2.7584 44.2776 2.3838C44.7938 1.89735 45.2804 1.90364 46.0469 2.4069ZM51.2061 11.3515C51.3782 11.447 52.3791 12.8138 53.4304 14.3887L55.3416 17.252L54.6632 17.565C51.5499 19.0021 47.4372 18.2143 44.8268 15.6812L44.231 15.1029L47.1937 13.1355C50.2307 11.1185 50.5393 10.9814 51.2061 11.3515ZM51.9184 26.6592C49.2881 28.4387 49.2518 28.47 49.2092 28.989C49.1537 29.6638 49.4687 30.0352 50.0965 30.0352C50.4584 30.0352 51.1212 29.6578 53.2075 28.2644C55.4563 26.7623 55.8723 26.4314 55.9484 26.0848C56.099 25.3994 55.6169 24.83 54.901 24.8476C54.7269 24.8519 53.3847 25.6671 51.9184 26.6592ZM32.1953 26.2774C26.8875 27.2833 22.8479 31.0459 21.4821 36.2559C20.9949 38.1143 20.9631 40.7214 21.4056 42.5185C22.4699 46.8402 25.4938 50.383 29.4992 52.0009C30.66 52.4698 32.0134 52.7804 32.4349 52.6746C33.0374 52.5233 33.3339 51.3506 32.8651 50.9727C32.7795 50.9035 32.2172 50.7132 31.6157 50.5495C25.209 48.8065 21.6275 42.1293 23.7353 35.8572C24.3166 34.1269 25.1126 32.8848 26.5465 31.4707C28.7286 29.3185 30.9116 28.343 33.9399 28.1672C39.4164 27.849 44.3529 31.5506 45.6392 36.9395C46.0547 38.6807 45.9657 41.2059 45.4293 42.8867C44.3205 46.3623 41.6665 49.1165 38.3154 50.2694C37.2709 50.6287 37.016 50.8701 37.016 51.5C37.016 52.589 37.8607 52.7202 39.7616 51.9264C42.6981 50.7003 45.1645 48.3552 46.589 45.4349C47.6718 43.2153 47.8685 42.2991 47.87 39.4688C47.8712 37.2536 47.8439 36.9872 47.5016 35.8755C46.0328 31.1055 42.5176 27.7212 37.7236 26.4619C36.3211 26.0934 33.6388 26.0039 32.1953 26.2774ZM65.0448 31.6826C66.9975 34.621 67.1653 34.997 66.8146 35.6521C66.6188 36.018 60.9387 39.7943 60.7988 39.6516C60.7372 39.5887 60.5162 39.0449 60.3076 38.4434C59.9718 37.4746 59.9285 37.1544 59.9285 35.6406C59.9285 34.1251 59.9715 33.8081 60.3085 32.8393C60.5176 32.2384 60.9005 31.3977 61.1598 30.971C61.6674 30.1355 62.8019 28.8047 63.0067 28.8047C63.0756 28.8047 63.9927 30.0998 65.0448 31.6826ZM29.0365 31.6858C28.5858 32.0401 28.5605 32.6334 28.9715 33.2105L29.2668 33.6251L28.8006 34.462C28.3717 35.2318 28.3345 35.3919 28.336 36.4609C28.3374 37.3882 28.3976 37.7354 28.6338 38.1792C29.3664 39.5556 30.7796 40.2498 32.5725 40.1143L33.543 40.0409L35.0209 42.2283C35.9405 43.5892 36.4504 44.4641 36.3707 44.5438C36.3002 44.6143 35.8475 44.7372 35.3646 44.8171C34.8819 44.8969 34.356 44.9867 34.1965 45.0165C33.8401 45.0831 33.5356 45.764 33.6532 46.232C33.7005 46.4205 33.8987 46.6793 34.0938 46.8071C34.4073 47.0125 34.5734 47.0214 35.5208 46.8833C36.1104 46.7973 36.8375 46.6022 37.1365 46.4498L37.6801 46.1724L37.9755 46.6505C38.4836 47.4725 39.1244 47.6268 39.6882 47.0628C40.1153 46.6358 40.114 46.1494 39.6842 45.5171C39.3761 45.0634 39.3634 44.9915 39.5474 44.7382C40.3223 43.6711 40.501 43.1196 40.5017 41.793C40.5024 40.5588 40.478 40.4499 40.0126 39.6055C39.4595 38.6018 38.6721 37.9174 37.7964 37.6788C37.4452 37.5833 36.6727 37.5495 35.8128 37.5924L34.4046 37.6627L33.3122 36.0322C32.7115 35.1355 32.2567 34.3422 32.3018 34.2693C32.3468 34.1963 32.681 34.1367 33.0441 34.1367C33.9246 34.1367 34.3364 33.81 34.3364 33.1113C34.3364 32.2931 33.9101 32.0347 32.7094 32.1249C32.183 32.1644 31.5772 32.2768 31.3633 32.3744C31.0163 32.5327 30.9583 32.5236 30.8272 32.2894C30.3399 31.4186 29.6652 31.1911 29.0365 31.6858ZM31.4106 36.8711L32.238 38.1016H31.7131C30.9918 38.1016 30.4486 37.5351 30.3525 36.6827C30.2869 36.1006 30.3581 35.6406 30.5141 35.6406C30.5521 35.6406 30.9556 36.1943 31.4106 36.8711ZM8.58278 40.1182C9.80724 43.3549 9.14347 46.9698 6.87667 49.41L6.03189 50.3194L4.15145 47.5542C3.11731 46.0333 2.21032 44.6147 2.13622 44.4018C1.86005 43.6098 2.14716 43.3118 5.16058 41.2609C6.70208 40.2118 8.03577 39.3486 8.12437 39.3427C8.21296 39.3368 8.41927 39.6857 8.58278 40.1182ZM37.7195 39.9588C38.4833 40.6769 38.7387 41.8663 38.3333 42.817L38.1591 43.2257L37.0342 41.5467C35.5422 39.3196 35.5666 39.4168 36.5188 39.4957C37.1373 39.547 37.3819 39.6413 37.7195 39.9588ZM16.2085 50.5586C13.2021 52.5478 13.0903 52.6434 13.0903 53.2229C13.0903 53.7224 13.6016 54.2344 14.1005 54.2344C14.3981 54.2344 19.4521 50.9429 19.7509 50.5543C19.934 50.3164 19.9732 49.8677 19.8413 49.5237C19.7576 49.3058 19.1122 48.9024 18.8472 48.9024C18.7727 48.9024 17.5853 49.6476 16.2085 50.5586ZM38.003 58.5752C37.1889 59.6092 35.6165 61.6067 34.5088 63.0142C33.4011 64.4217 32.3601 65.6675 32.1956 65.7827C31.8397 66.032 31.3135 66.0459 30.9229 65.8165C30.7676 65.7252 30.1683 65.2837 29.5914 64.8356C28.8954 64.2948 28.5882 63.9748 28.6784 63.8845C28.8959 63.667 39.2608 56.7084 39.3775 56.7016C39.4356 56.6982 38.817 57.5413 38.003 58.5752ZM19.8578 61.0018C21.1951 61.2817 22.9012 62.1582 23.8897 63.0734C24.3415 63.4919 24.7114 63.8798 24.7114 63.9355C24.7114 64.1283 18.8934 67.9063 18.5965 67.9063C17.8747 67.9063 17.5595 67.5645 15.6641 64.7262C14.6191 63.161 13.7976 61.8261 13.8387 61.7597C13.9181 61.6313 15.7958 60.9875 16.3715 60.8912C17.1652 60.7586 18.9689 60.8159 19.8578 61.0018Z" fill="white"></path>
  </g>
  <defs>
    <clipPath id="clip0_946_976">
      <rect width="70" height="70" fill="white"></rect>
    </clipPath>
  </defs>
</svg>
