<?xml version="1.0" encoding="UTF-8"?>
<svg xmlns="http://www.w3.org/2000/svg" width="150" height="150" viewBox="0 0 150 150" fill="none">
  <rect width="150" height="150" rx="75" fill="white"></rect>
  <path d="M73.3674 88.3616C66.9975 87.0072 63.8173 81.3228 64.6766 76.105C65.4883 71.1705 69.9896 67.3524 75.0432 67.3786C80.1634 67.4047 84.6385 71.3157 85.3669 76.2574C86.1358 81.4728 82.8675 87.0739 76.9404 88.2069C78.3043 88.4616 79.9706 88.6092 81.5321 89.0948C87.833 91.0491 92.0796 96.8477 92.1415 103.432C92.1605 105.336 92.1582 107.24 92.1439 109.142C92.1177 112.527 89.6612 114.986 86.2643 114.991C78.7685 115.003 71.2727 115.003 63.7768 114.991C60.3348 114.986 57.8711 112.525 57.8783 109.078C57.883 106.612 57.7473 104.12 58.0425 101.685C58.9637 94.0531 65.1575 88.5592 72.8318 88.3593C73.0103 88.3569 73.1889 88.3616 73.3674 88.3616Z" fill="#183052"></path>
  <path d="M88.6923 88.6117C91.075 87.0525 93.5959 86.4193 96.3262 86.3694C93.9648 85.7933 92.0343 84.5912 90.7061 82.5488C89.3564 80.4755 88.9589 78.2118 89.5563 75.8052C90.568 71.7324 94.3528 69.0092 98.5304 69.3163C102.656 69.6186 106.036 72.9535 106.402 77.1168C106.721 80.7255 104.672 85.0959 99.5421 86.3003C100.747 86.5003 102.096 86.6074 103.379 86.9573C109.006 88.4927 112.913 93.5153 113.067 99.3401C113.105 100.828 113.113 102.316 113.065 103.803C112.975 106.622 110.92 109.059 108.095 109.197C104.093 109.39 100.075 109.247 95.9501 109.247C95.9501 107.886 96.012 106.553 95.9358 105.229C95.8168 103.189 95.8048 101.111 95.3835 99.1235C94.479 94.8745 92.1367 91.4443 88.6923 88.6117Z" fill="#183052"></path>
  <path d="M54.0768 109.264C49.992 109.264 46.0358 109.366 42.0892 109.23C39.2732 109.133 37.0237 106.695 36.9737 103.882C36.9285 101.306 36.6952 98.7067 37.4117 96.1668C39.0137 90.5063 44.0887 86.5715 49.9754 86.4406C50.1825 86.4358 50.3896 86.4406 50.6204 86.3811C48.2924 85.8074 46.381 84.6267 45.048 82.6272C43.6959 80.5991 43.2841 78.3663 43.8007 75.9835C44.6671 71.9773 48.3734 69.159 52.5462 69.3089C56.6643 69.4565 60.0277 72.5724 60.6657 76.8333C61.3012 81.0799 58.7519 84.5696 53.6912 86.3858C57.595 86.7381 59.7897 87.3927 61.1061 88.5353C59.854 89.9945 58.4829 91.3656 57.3736 92.9247C55.0861 96.1406 54.0506 99.7898 54.0768 103.739C54.0863 105.546 54.0768 107.355 54.0768 109.264Z" fill="#183052"></path>
  <path d="M66.4477 53.6033C67.1308 51.5729 66.2739 49.8542 64.7957 48.2998C64.2053 47.6785 63.7197 46.9525 63.2056 46.2598C62.0225 44.665 62.6105 42.9297 64.5267 42.3584C66.0073 41.918 67.5045 41.5372 68.9661 41.0397C69.4541 40.873 69.9563 40.5112 70.2658 40.0994C71.2108 38.8402 72.0558 37.5072 72.9604 36.217C74.103 34.5864 75.9216 34.596 77.0713 36.236C78.0092 37.5738 78.9018 38.9473 79.8611 40.2708C80.0825 40.5755 80.461 40.8397 80.8228 40.9563C82.3748 41.4586 83.953 41.8823 85.5121 42.3679C87.4284 42.963 87.9925 44.6816 86.7952 46.2836C85.8168 47.5929 84.7814 48.8616 83.8221 50.1875C83.584 50.516 83.4365 50.9873 83.4365 51.392C83.4388 52.9678 83.534 54.5436 83.5626 56.1194C83.6007 58.2951 82.1558 59.3139 80.0801 58.5926C78.6495 58.0951 77.2379 57.5381 75.7907 57.1001C75.3027 56.9525 74.6909 56.9597 74.2006 57.1096C72.7247 57.5595 71.2846 58.1261 69.8254 58.6283C67.8687 59.2996 66.4334 58.257 66.4453 56.186C66.4524 55.3791 66.4477 54.5745 66.4477 53.6033Z" fill="#183052"></path>
  <path d="M40.1873 58.3713C40.8538 56.5764 39.8564 55.0792 38.5782 53.6605C38.1806 53.2201 37.8426 52.7274 37.4879 52.2489C36.4525 50.854 36.9119 49.4163 38.5567 48.9164C39.835 48.5284 41.1275 48.1832 42.3915 47.7595C42.7533 47.6381 43.1271 47.3715 43.3532 47.0668C44.1483 45.9933 44.8695 44.865 45.6384 43.77C46.6381 42.3489 48.1402 42.3394 49.1447 43.7533C49.9183 44.8435 50.6372 45.9742 51.4322 47.0478C51.656 47.3525 52.0273 47.6167 52.3868 47.7381C53.596 48.1451 54.8314 48.4689 56.0526 48.8402C57.9426 49.4163 58.402 50.8183 57.2166 52.3751C56.4786 53.3439 55.6907 54.2794 55.0123 55.291C54.7243 55.7195 54.5363 56.2979 54.522 56.8145C54.4886 58.0594 54.6053 59.3091 54.6219 60.5588C54.6457 62.2775 53.3961 63.1892 51.7774 62.6369C50.5134 62.2061 49.2708 61.7109 47.9997 61.3039C47.6403 61.1896 47.1809 61.1825 46.8214 61.2968C45.5503 61.7014 44.3054 62.1942 43.0414 62.625C41.3965 63.1868 40.1873 62.3108 40.1873 60.585C40.1873 59.9304 40.1873 59.2758 40.1873 58.3713Z" fill="#183052"></path>
  <path d="M95.3908 58.4619C95.9573 56.6837 95.267 55.2341 94.0197 53.932C93.5079 53.3988 93.0914 52.7728 92.6534 52.1729C91.6917 50.8565 92.1535 49.4188 93.7007 48.938C95.0028 48.5309 96.3263 48.1881 97.6212 47.7573C97.9807 47.6383 98.3544 47.3693 98.5805 47.0646C99.3756 45.991 100.097 44.8627 100.868 43.7701C101.87 42.3467 103.372 42.3395 104.374 43.7535C105.129 44.8199 105.826 45.9291 106.612 46.9741C106.874 47.3217 107.29 47.6311 107.7 47.7716C108.961 48.2048 110.261 48.5285 111.532 48.9332C113.084 49.4283 113.556 50.8637 112.599 52.1681C111.842 53.1988 110.999 54.1653 110.287 55.2246C109.983 55.6768 109.787 56.2814 109.766 56.8265C109.716 58.1024 109.823 59.3807 109.828 60.659C109.835 62.28 108.616 63.1703 107.076 62.6561C105.81 62.2348 104.57 61.7254 103.296 61.3302C102.882 61.2017 102.363 61.2017 101.951 61.3302C100.704 61.7159 99.4922 62.2086 98.2568 62.6299C96.6239 63.1869 95.3932 62.2943 95.3908 60.5733C95.3908 59.8901 95.3908 59.2069 95.3908 58.4619Z" fill="#183052"></path>
</svg>
