<?xml version="1.0" encoding="UTF-8"?>
<svg xmlns="http://www.w3.org/2000/svg" width="100" height="100" viewBox="0 0 100 100" fill="none">
  <g opacity="0.8">
    <path fill-rule="evenodd" clip-rule="evenodd" d="M0 42.0234V73.0781H19.6977H39.3955L40.309 74.2408C40.8113 74.8803 41.4824 75.5887 41.8006 75.815L42.3787 76.2268L42.4295 84.6332L42.4805 93.0395L46.1668 90.09C48.1943 88.4678 49.9191 87.1406 50 87.1406C50.0809 87.1406 51.8057 88.4678 53.8332 90.09L57.5195 93.0395L57.5705 84.6332L57.6213 76.2268L58.1994 75.815C58.5176 75.5887 59.1887 74.8803 59.691 74.2408L60.6045 73.0781H68.9824H77.3602L77.3031 71.5645L77.2461 70.0508L69.5602 69.9996C62.3494 69.9518 61.8824 69.9275 62.0098 69.609C62.0846 69.4223 62.1936 68.7641 62.2523 68.1465L62.359 67.0234H78.1522H93.9453V42.0234V13.0547H50H6.05469V42.0223V67.0211L21.8262 67.0711L37.5977 67.1211L37.7178 68.1047C37.7838 68.6457 37.8996 69.2828 37.975 69.5207L38.1123 69.9531H20.6186H3.125V41.9258V9.92969H8.39844H13.6719V8.46484V7H6.83594H0V42.0234ZM16.6016 8.46484V9.92969H56.7383H96.875V41.9236V69.9488L88.623 69.9998L80.3711 70.0508L80.3141 71.5645L80.257 73.0781H90.1285H100V42.0234V7H58.3008H16.6016V8.46484ZM90.8203 41.9258V63.8984H76.5092H62.198L61.7174 62.4824C61.4531 61.7035 60.8139 60.4326 60.2969 59.6578C55.365 52.2684 44.6268 52.2934 39.6691 59.7059C39.1334 60.5068 38.4967 61.7779 38.2543 62.5303L37.8137 63.8984H23.4967H9.17969V41.9258V15.9844H50H90.8203V41.9258ZM56.0207 20.9123C54.8184 21.302 53.8063 22.0822 52.4635 23.6547C51.2811 25.0393 50.6555 25.5629 48.7799 26.7385C47.5373 27.5174 46.4766 28.1545 46.4227 28.1545C46.3688 28.1545 45.4299 27.4074 44.3359 26.4943C43.242 25.5812 42.2779 24.8342 42.1936 24.8342C42.1092 24.8342 41.6365 25.3242 41.1436 25.9232L40.2471 27.0121L41.5102 28.0838C42.2051 28.6732 42.7734 29.19 42.7734 29.2322C42.7734 29.2744 42.5576 29.6271 42.2938 30.016C41.3338 31.4305 40.9514 32.792 40.9514 34.7951C40.9514 35.976 41.0604 36.95 41.2512 37.4738L41.5512 38.2971L40.8604 38.525C39.9416 38.8283 38.5039 40.1725 38.0607 41.1428C37.6469 42.0486 37.5834 43.849 37.925 44.9891C38.2352 46.0246 39.4422 47.3504 40.5473 47.8699C41.7252 48.4236 43.5918 48.4473 44.7684 47.9234C45.9813 47.3836 47.1797 45.991 47.5613 44.6777L47.8768 43.5928L48.9873 43.707C51.2225 43.9369 54.4006 42.8482 55.8396 41.36L56.5037 40.6734L57.7928 41.7498L59.082 42.826L60.0076 41.7891C60.5166 41.2188 60.9299 40.6643 60.926 40.5568C60.9221 40.4494 60.2418 39.8088 59.4145 39.1332C58.5871 38.4578 57.6742 37.6978 57.3859 37.4447L56.8617 36.9844L57.9406 34.3838C58.8272 32.2463 59.2428 31.5152 60.2725 30.2807C60.9617 29.4543 61.699 28.3963 61.9109 27.9293C62.3852 26.8838 62.4297 24.9262 62.0021 23.9002C61.6238 22.9922 60.482 21.7939 59.5238 21.2992C58.6924 20.8701 56.7971 20.6605 56.0207 20.9123ZM58.2732 24.076C58.5367 24.1959 58.9049 24.5773 59.0912 24.9236C59.632 25.9277 59.3627 26.6625 57.7609 28.5533C56.5439 29.9898 56.215 30.552 55.3928 32.6002L54.4379 34.9789L53.3387 34.0568C52.7342 33.5498 51.5158 32.5277 50.6314 31.7854C49.7471 31.0432 49.0234 30.3715 49.0234 30.2926C49.0234 30.2137 49.9684 29.5566 51.123 28.8326C52.449 28.0012 53.4904 27.1838 53.9494 26.6145C55.751 24.3797 56.3455 23.8576 57.0887 23.8576C57.4768 23.8576 58.0098 23.9559 58.2732 24.076ZM13.6719 27.5664V29.1311H22.2738H30.8758L30.8188 27.6174L30.7617 26.1037L22.2168 26.0527L13.6719 26.002V27.5664ZM69.2709 26.1363C69.1992 26.2078 69.1406 26.9109 69.1406 27.6988V29.1311H77.7344H86.3281V27.5686V26.0061H77.8646C73.2096 26.0061 69.3424 26.0646 69.2709 26.1363ZM49.6637 34.9205C52.0508 36.923 54.0299 38.6271 54.0617 38.7074C54.1725 38.9863 52.6432 40.0674 51.69 40.384C50.4295 40.8027 48.2494 40.6752 47.168 40.1195C44.3822 38.6879 43.1814 35.2766 44.4604 32.427C44.7436 31.7959 45.0535 31.2795 45.1494 31.2795C45.2451 31.2795 47.2766 32.918 49.6637 34.9205ZM13.6719 33.6201V35.1857H19.2465H24.8211L24.7641 33.6721L24.707 32.1584L19.1895 32.1064L13.6719 32.0547V33.6201ZM75.3256 32.191C75.2539 32.2625 75.1953 32.9656 75.1953 33.7535V35.1857H80.7617H86.3281V33.6232V32.0607H80.892C77.902 32.0607 75.3971 32.1193 75.3256 32.191ZM13.6719 39.7756V41.2404H19.2383H24.8047V39.7756V38.3107H19.2383H13.6719V39.7756ZM75.1953 39.7756V41.2404H80.7617H86.3281V39.7756V38.3107H80.7617H75.1953V39.7756ZM43.8736 41.5865C44.9562 42.4635 45.0223 43.7182 44.0375 44.7029C43.4146 45.3258 43.2711 45.3816 42.5428 45.284C42.06 45.2191 41.5478 44.9863 41.2643 44.7027C40.9807 44.4191 40.7478 43.907 40.683 43.4242C40.5854 42.6959 40.6412 42.5523 41.2641 41.9295C41.8168 41.3768 42.102 41.2412 42.7051 41.2447C43.1207 41.2473 43.6434 41.4 43.8736 41.5865ZM13.6719 45.8303V47.2951H21.1914H28.7109V45.8303V44.3654H21.1914H13.6719V45.8303ZM71.2891 45.8303V47.2951H78.8086H86.3281V45.8303V44.3654H78.8086H71.2891V45.8303ZM13.6719 51.885V53.3498H24.2188H34.7656V51.885V50.4201H24.2188H13.6719V51.885ZM65.2344 51.885V53.3498H75.7812H86.3281V51.885V50.4201H75.7812H65.2344V51.885ZM53.0115 57.6428C55.3543 58.4492 57.2623 60.1242 58.3752 62.3514C60.3629 66.3287 59.2369 71.2156 55.7172 73.8887C54.0498 75.1551 52.6451 75.6562 50.4518 75.7672C48.2055 75.8809 46.4746 75.4066 44.6855 74.1877C39.8459 70.8898 39.2553 64.0809 43.4443 59.8779C44.7299 58.5885 46.4877 57.617 48.1465 57.2797C49.4883 57.0068 51.6279 57.1666 53.0115 57.6428ZM47.7152 60.5982C43.9652 62.0398 42.5207 66.7037 44.7781 70.0814C46.4322 72.5566 49.8348 73.5131 52.5361 72.2625L53.5168 71.8086L52.7068 70.5836C52.0137 69.5352 51.8377 69.3805 51.4855 69.5094C51.2594 69.5924 50.5469 69.6602 49.9023 69.6602C48.5039 69.6602 47.6656 69.167 47.0658 67.9914C46.0963 66.0908 47.0906 63.927 49.2275 63.2867C50.2148 62.991 51.299 63.2883 52.2375 64.1123C53.0225 64.8016 53.3787 65.7361 53.2879 66.8676L53.2227 67.6805L54.3875 68.1332C55.0281 68.3822 55.6594 68.5859 55.7902 68.5859C56.1414 68.5859 56.3049 67.8822 56.2957 66.4115C56.2686 62.0602 51.7953 59.0295 47.7152 60.5982ZM50 78.9309C50.9471 78.9307 53.0904 78.5748 54.1289 78.2453C54.4754 78.1353 54.4922 78.3246 54.4922 82.3424C54.4922 84.6592 54.4449 86.5547 54.3869 86.5547C54.3291 86.5547 53.3531 85.8076 52.218 84.8945C51.083 83.9814 50.0969 83.2344 50.0266 83.2344C49.9564 83.2344 48.9109 84.0277 47.7033 84.9973L45.5078 86.7602V82.4961V78.232L47.2168 78.5814C48.1568 78.7736 49.4092 78.9309 50 78.9309Z" fill="white"></path>
  </g>
</svg>
