<?xml version="1.0" encoding="UTF-8"?>
<svg xmlns="http://www.w3.org/2000/svg" width="70" height="70" viewBox="0 0 70 70" fill="none">
  <g clip-path="url(#clip0_522_828)">
    <path fill-rule="evenodd" clip-rule="evenodd" d="M8.54328 0.15791C7.9785 0.466758 7.92805 0.668828 7.92805 2.62377V4.51172H6.14387C4.29324 4.51172 3.68484 4.65473 3.50123 5.13311C3.39021 5.4224 3.39021 69.0893 3.50123 69.3786C3.74746 70.0201 3.09395 70 23.6495 70H42.9391L42.8993 68.8721L42.8597 67.7441L24.2318 67.7094L5.60383 67.6748V37.2553V6.83594H22.557H39.5101V10.9298V15.0238L39.8398 15.4074L40.1696 15.791L44.3516 15.8326L48.5335 15.8741V20.3841V24.8939L49.6614 24.8541L50.7894 24.8145V19.5148V14.2153L45.9319 9.36346L41.0744 4.51172H25.595H10.1155V3.41797V2.32422H31.5804H53.0452V14.6973V27.0703H54.2094H55.3734L55.3373 13.8651L55.3011 0.659805L54.9175 0.329902L54.5338 0L31.6753 0.00410156C15.393 0.00710937 8.73811 0.0514062 8.54328 0.15791ZM44.432 11.0059L46.9585 13.5352H44.3964H41.8343V11.0059C41.8343 9.61475 41.8503 8.47656 41.8698 8.47656C41.8894 8.47656 43.0423 9.61475 44.432 11.0059ZM9.0218 10.191V11.3587L10.1497 11.3189L11.2777 11.2793L11.3173 10.1514L11.3571 9.02344H10.1894H9.0218V10.191ZM13.5335 10.191V11.3587L14.6614 11.3189L15.7894 11.2793L15.829 10.1514L15.8688 9.02344H14.7011H13.5335V10.191ZM18.0452 10.191V11.3587L19.1732 11.3189L20.3011 11.2793L20.3407 10.1514L20.3805 9.02344H19.2128H18.0452V10.191ZM22.557 10.1855V11.35L29.9056 11.3147L37.2542 11.2793V10.1855V9.0918L29.9056 9.05639L22.557 9.02111V10.1855ZM7.92805 19.209V20.3723L22.5911 20.3376L37.2542 20.3027V19.209V18.1152L22.5911 18.0804L7.92805 18.0456V19.209ZM7.92805 23.7207V24.884L22.5911 24.8493L37.2542 24.8145V23.7207V22.627L22.5911 22.5921L7.92805 22.5574V23.7207ZM7.92805 28.2324V29.3958L22.5911 29.361L37.2542 29.3262V28.2324V27.1387L22.5911 27.1038L7.92805 27.0691V28.2324ZM49.4222 27.1757C49.2718 27.2065 48.5235 27.8646 47.7596 28.6381C45.1467 31.283 42.1613 32.8977 38.6524 33.5635C38.0338 33.6808 36.5911 33.8156 35.4465 33.8628C33.4752 33.9443 33.3491 33.9663 33.0539 34.2804L32.7425 34.6121V44.6156C32.7425 55.1616 32.7409 55.1288 33.3855 57.1484C34.1785 59.6328 35.9941 62.0338 38.2113 63.5303C39.689 64.5278 49.3902 70 49.6807 70C49.968 70 59.6816 64.5295 61.1655 63.5321C63.5053 61.9593 65.3859 59.2937 66.1996 56.3965C66.504 55.3133 66.5072 55.2033 66.5485 44.9449L66.5901 34.5872L66.2722 34.2694C65.9768 33.9738 65.807 33.9451 63.8646 33.861C58.6696 33.6361 55.0933 32.1293 51.7178 28.7433C50.3137 27.3347 49.929 27.072 49.4222 27.1757ZM52.0198 32.0749C55.1346 34.5388 59.4619 36.0834 63.2728 36.0914L64.4085 36.0938L64.3606 45.4248C64.3143 54.4641 64.3037 54.7885 64.0203 55.8009C63.3388 58.2364 61.884 60.3023 59.9077 61.6407C59.1925 62.1251 49.8036 67.5391 49.6787 67.5391C49.4832 67.5391 39.6201 61.7904 38.945 61.2829C37.8349 60.4484 36.7438 59.1058 36.0849 57.7637C35.0375 55.63 35.0815 56.1401 35.0312 45.5615L34.9862 36.0938H36.0875C39.1401 36.0938 42.9695 34.9489 45.6862 33.2242C46.9103 32.4471 48.4522 31.2257 49.2115 30.4321L49.6846 29.9377L50.5103 30.7359C50.9647 31.175 51.6439 31.7775 52.0198 32.0749ZM7.92805 32.7441V33.9062H19.2073H30.4866V32.7441V31.582H19.2073H7.92805V32.7441ZM7.92805 37.2559V38.418H19.2073H30.4866V37.2559V36.0938H19.2073H7.92805V37.2559ZM47.1818 37.5272C45.3394 37.9441 44.1818 38.4353 42.723 39.4193C40.3834 40.9973 38.6284 43.3923 37.777 46.169C37.4417 47.2624 37.4071 47.5802 37.3994 49.6289C37.392 51.5806 37.4325 52.0282 37.6994 52.9488C38.9145 57.1412 42.0722 60.3261 46.2844 61.6077C47.3818 61.9415 47.7269 61.9809 49.6273 61.9894C51.4348 61.9973 51.903 61.9536 52.8113 61.6917C57.2407 60.4145 60.4129 57.2424 61.6901 52.813C61.9519 51.9046 61.9957 51.4365 61.9877 49.6289C61.9793 47.7285 61.9399 47.3834 61.606 46.286C60.3333 42.1032 57.1457 38.924 53.0199 37.7225C51.7061 37.3398 48.4859 37.2322 47.1818 37.5272ZM51.6487 39.7292C54.0824 40.232 56.0278 41.4255 57.5988 43.3799C59.0384 45.1708 59.7632 47.2534 59.7738 49.6289C59.7819 51.4484 59.5127 52.6016 58.6887 54.2773C58.1517 55.3699 57.8536 55.7728 56.8124 56.814C55.7711 57.8553 55.3682 58.1533 54.2757 58.6904C52.5999 59.5144 51.4467 59.7836 49.6273 59.7755C42.8494 59.7454 38.0479 53.3099 39.9535 46.81C41.4177 41.8157 46.5899 38.6843 51.6487 39.7292ZM7.92805 41.7676V42.9297H19.2073H30.4866V41.7676V40.6055H19.2073H7.92805V41.7676ZM51.832 44.1943C51.7545 44.4388 51.1291 46.5151 50.4421 48.8086C49.7551 51.1021 49.166 53.006 49.1328 53.0395C49.0995 53.073 48.6265 52.6575 48.0814 52.1161L47.0905 51.1317L46.3069 51.9236L45.5234 52.7153L47.4154 54.5902C50.3658 57.5136 50.1602 57.6915 52.3629 50.3125C53.2721 47.2671 54.0445 44.6775 54.0797 44.5579C54.1293 44.3889 53.9168 44.2745 53.1277 44.0452C52.5689 43.8829 52.0805 43.75 52.0423 43.75C52.004 43.75 51.9094 43.9499 51.832 44.1943ZM7.92805 55.3027V56.4648H19.2073H30.4866V55.3027V54.1406H19.2073H7.92805V55.3027ZM7.92805 59.8145V60.9766H19.2073H30.4866V59.8145V58.6523H19.2073H7.92805V59.8145ZM7.92805 64.3262V65.4883H19.2073H30.4866V64.3262V63.1641H19.2073H7.92805V64.3262Z" fill="white"></path>
  </g>
  <defs>
    <clipPath id="clip0_522_828">
      <rect width="70" height="70" fill="white"></rect>
    </clipPath>
  </defs>
</svg>
