<?xml version="1.0" encoding="UTF-8"?>
<svg xmlns="http://www.w3.org/2000/svg" width="100" height="100" viewBox="0 0 100 100" fill="none">
  <g opacity="0.8">
    <path fill-rule="evenodd" clip-rule="evenodd" d="M14.2677 3.92754C13.2095 4.45137 12.7 5.17188 12.4566 6.48829C12.3326 7.1586 12.2816 19.8072 12.3144 41.7717L12.3654 76.0102L12.9134 76.4817C13.605 77.0766 14.0554 77.0766 14.747 76.4817L15.2951 76.0102L15.3927 41.2766L15.4904 6.54278L48.3283 6.49336L81.1664 6.44395L82.2117 6.99004C82.864 7.33086 83.4789 7.85137 83.8464 8.37403L84.4357 9.21192L84.5566 12.8578C84.6232 14.8631 84.689 16.5223 84.7031 16.5449C84.9384 16.9246 85.7 17.3826 86.0958 17.3826C86.8609 17.3826 87.4177 16.7445 87.5763 15.6859C87.832 13.9809 87.5326 9.5754 87.0785 8.36172C86.2478 6.1418 84.6447 4.61075 82.4132 3.90703C81.1913 3.52149 80.6544 3.51543 48.1359 3.51563L15.0998 3.51582L14.2677 3.92754ZM25.9865 11.74C25.5289 11.9666 24.9777 12.4002 24.7615 12.7039C24.1906 13.5059 23.9281 15.2486 24.0394 17.501C24.1556 19.8539 24.498 20.7141 25.6132 21.4527C26.3736 21.9564 26.4994 21.9744 29.7158 22.0346C31.5408 22.0688 33.2378 22.0455 33.4871 21.9828C33.7365 21.9203 34.0806 21.5977 34.2523 21.266C34.5097 20.7682 34.523 20.5633 34.3281 20.0928C34.1982 19.7793 33.9935 19.4586 33.8732 19.3805C33.7529 19.3022 32.2043 19.1941 30.4318 19.1404L27.2091 19.0428V16.699V14.3553H49.963H72.7169V16.699V19.0428L54.7796 19.1404L36.8425 19.2381L36.4691 19.6992C35.9607 20.3272 36.0003 21.0158 36.5783 21.5938L37.0605 22.076L55.2937 22.0242L73.5269 21.9725L74.3121 21.4527C75.4279 20.7143 75.7705 19.8545 75.8867 17.501C76.0568 14.058 75.499 12.4225 73.9081 11.7C73.1419 11.3522 72.1119 11.3363 49.963 11.3324L26.8185 11.3283L25.9865 11.74ZM85.1562 19.5387C84.921 19.7576 84.708 19.9555 84.6828 19.9781C84.6574 20.0008 84.5916 35.942 84.5363 55.4029L84.4357 90.7865L83.8464 91.625C83.4785 92.1487 82.8646 92.6684 82.2117 93.0096L81.1664 93.5557L48.3283 93.5063L15.4904 93.4568L15.3927 86.5549L15.2951 79.6529L14.747 79.1818C14.0552 78.5871 13.605 78.5871 12.9134 79.1822L12.3654 79.6537V86.7506C12.3654 94.7869 12.3781 94.8629 13.8953 95.8668L14.6806 96.3865L47.898 96.4383C80.7132 96.4893 81.1308 96.4852 82.3849 96.0967C84.6181 95.4049 86.1876 93.9227 87.115 91.6297L87.5607 90.5272L87.6193 56.0545C87.6515 37.0945 87.6238 21.2064 87.5578 20.7477C87.3488 19.2936 86.096 18.6631 85.1562 19.5387ZM28.5156 80.2809C28.2367 80.5406 28.088 80.9113 28.088 81.3475C28.088 81.7836 28.2367 82.1543 28.5156 82.4141C28.9402 82.8098 29.0791 82.8123 49.963 82.8123C70.847 82.8123 70.9859 82.8098 71.4105 82.4141C71.6894 82.1543 71.838 81.7836 71.838 81.3475C71.838 80.9113 71.6894 80.5406 71.4105 80.2809C70.9859 79.8852 70.847 79.8826 49.963 79.8826C29.0791 79.8826 28.9402 79.8852 28.5156 80.2809ZM28.5156 86.1402C28.2367 86.4 28.088 86.7707 28.088 87.2068C28.088 87.643 28.2367 88.0137 28.5156 88.2734C28.9318 88.6613 29.1599 88.6717 37.2677 88.6717C45.3755 88.6717 45.6037 88.6613 46.0199 88.2734C46.2988 88.0137 46.4474 87.643 46.4474 87.2068C46.4474 86.7707 46.2988 86.4 46.0199 86.1402C45.6037 85.7523 45.3755 85.742 37.2677 85.742C29.1599 85.742 28.9318 85.7523 28.5156 86.1402ZM50 86.1402C49.4253 86.6756 49.4253 87.7381 50 88.2734C50.4189 88.6637 50.6318 88.6717 60.7052 88.6717C70.7787 88.6717 70.9916 88.6637 71.4105 88.2734C71.6894 88.0137 71.838 87.643 71.838 87.2068C71.838 86.7707 71.6894 86.4 71.4105 86.1402C70.9916 85.75 70.7787 85.742 60.7052 85.742C50.6318 85.742 50.4189 85.75 50 86.1402Z" fill="white"></path>
    <path d="M30.5 30.5H69.1667V60.3022C69.1667 60.9156 68.7932 61.4672 68.2238 61.6949L49.8333 69.0511L31.4429 61.6949C30.8734 61.4672 30.5 60.9156 30.5 60.3022V30.5Z" stroke="white" stroke-width="3"></path>
    <path fill-rule="evenodd" clip-rule="evenodd" d="M54.192 52.207C53.7553 54.2638 52.9953 55.954 52.0469 56.9957C52.8015 56.8072 53.5185 56.5244 54.1849 56.1608L55.0151 57.6824C53.475 58.5227 51.7086 58.9999 49.8333 58.9999C43.8502 58.9999 39 54.1497 39 48.1666C39 42.1835 43.8502 37.3333 49.8333 37.3333C55.0087 37.3333 59.3346 40.9615 60.41 45.8124C60.5782 46.5711 60.6667 47.359 60.6667 48.1666C60.6667 48.9742 60.5782 49.7621 60.41 50.5208C60.1071 51.8872 59.5464 53.1563 58.7821 54.2741L57.3512 53.2958C57.4165 53.2004 57.4799 53.1037 57.5415 53.0058C56.677 52.7275 55.5272 52.4345 54.192 52.207ZM47.6195 39.3378C45.3404 39.9074 43.4017 41.3365 42.1676 43.2607C43.0114 43.5402 44.1518 43.839 45.4857 44.0742C45.9242 42.041 46.6792 40.3707 47.6195 39.3378ZM40.7333 48.1666C40.7333 46.9848 40.9586 45.8556 41.3685 44.8197C42.324 45.1535 43.6479 45.5112 45.2037 45.7845C45.1141 46.5478 45.0667 47.3456 45.0667 48.1666C45.0667 48.9428 45.1091 49.6983 45.1894 50.4234C43.9028 50.6483 42.6123 50.9914 41.3573 51.485C40.9545 50.4568 40.7333 49.3375 40.7333 48.1666ZM42.1459 53.0383C43.3788 54.9798 45.3269 56.4224 47.6195 56.9954C46.6603 55.9417 45.8939 54.2246 45.4597 52.1358C44.3398 52.3332 43.2253 52.6265 42.1459 53.0383ZM47.1825 51.9047C47.3951 52.8868 47.6856 53.7535 48.0265 54.4662C48.8154 56.1157 49.568 56.3999 49.8333 56.3999C50.0987 56.3999 50.8513 56.1157 51.6402 54.4662C51.9739 53.7685 52.2593 52.9232 52.4706 51.9666C52.0409 51.9196 51.5988 51.881 51.1468 51.8529C49.8749 51.7736 48.5359 51.7774 47.1825 51.9047ZM58.3271 51.4398C57.3492 51.1086 56.0195 50.7593 54.4691 50.4959C54.5547 49.7487 54.6 48.9687 54.6 48.1666C54.6 47.3925 54.5578 46.639 54.4779 45.9156C55.7676 45.7007 57.063 45.3685 58.3244 44.8862C58.4866 45.3058 58.6186 45.7405 58.7177 46.1875C58.8588 46.8238 58.9333 47.486 58.9333 48.1666C58.9333 48.8472 58.8588 49.5093 58.7177 50.1457C58.6192 50.5901 58.4881 51.0224 58.3271 51.4398ZM52.7522 50.2538C52.2664 50.1992 51.7662 50.1548 51.2546 50.1229C49.8778 50.0371 48.4074 50.0418 46.9075 50.1899C46.8377 49.5453 46.8 48.8683 46.8 48.1666C46.8 47.4258 46.842 46.7126 46.9194 46.0361C47.458 46.0997 48.015 46.151 48.5862 46.1866C49.9095 46.269 51.3191 46.2679 52.7584 46.1362C52.8287 46.7829 52.8667 47.4623 52.8667 48.1666C52.8667 48.8916 52.8264 49.5902 52.7522 50.2538ZM54.2082 44.2033C55.3335 44.0149 56.4549 43.731 57.5423 43.3285C56.3105 41.3701 54.3528 39.9142 52.0472 39.3378C53.0073 40.3925 53.7743 42.1118 54.2082 44.2033ZM48.694 44.4566C49.9108 44.5324 51.189 44.5322 52.4824 44.4206C52.27 43.4417 51.9801 42.5778 51.6402 41.8669C50.8513 40.2175 50.0987 39.9333 49.8333 39.9333C49.568 39.9333 48.8154 40.2175 48.0265 41.8669C47.6977 42.5544 47.4158 43.3851 47.2054 44.3244C47.6867 44.3798 48.1841 44.4248 48.694 44.4566Z" fill="white"></path>
  </g>
</svg>
