<?xml version="1.0" encoding="UTF-8"?>
<svg xmlns="http://www.w3.org/2000/svg" width="70" height="70" viewBox="0 0 70 70" fill="none">
  <path fill-rule="evenodd" clip-rule="evenodd" d="M15.1417 9.11573C11.8725 9.47681 8.97309 11.0164 7.05547 13.4094C6.66336 13.8986 6.28451 14.2989 6.21342 14.2989C6.14232 14.2989 5.38012 14.0732 4.51947 13.7973C2.01889 12.9957 1.88477 13.1325 1.88258 16.4864C1.88025 19.9657 2.28385 24.271 2.7733 25.9889C2.831 26.1915 2.74801 26.3237 2.45434 26.4972C1.7341 26.9227 0.886446 27.8895 0.484629 28.744C-0.481699 30.7991 0.0325003 33.3464 1.71141 34.8204C2.2792 35.319 3.72432 36.0369 4.16031 36.037C4.40545 36.0372 4.49856 36.1765 4.68572 36.8233C5.46762 39.5244 7.49188 42.363 9.73147 43.8985L10.5291 44.4454L8.83637 44.5292C6.86475 44.6267 6.05455 44.8501 4.91746 45.6094C3.75426 46.3861 2.99848 47.3564 2.41633 48.8204C2.09545 49.6271 2.0893 49.728 2.04473 54.9361L1.99934 60.2315L2.34359 60.5757C2.65818 60.8903 2.78943 60.92 3.86514 60.92H5.74219L5.60547 58.8692H4.05053L4.09318 54.3917L4.13584 49.9141L4.49309 49.1622C4.92484 48.2531 5.6768 47.4808 6.59678 47.0013C7.22691 46.6728 7.44252 46.6407 9.35617 46.5903L11.432 46.5357L11.5917 47.1289C11.9758 48.5555 12.927 49.8425 14.2102 50.6719C15.9585 51.8018 18.2716 51.9406 20.1211 51.0265C21.7504 50.2213 23.1429 48.5322 23.4273 47.0159L23.5164 46.5406L25.584 46.5868C27.5247 46.63 27.6993 46.6564 28.4327 47.0165C29.3911 47.4871 30.2149 48.3938 30.5864 49.3864C30.8445 50.0765 30.8644 50.4403 30.8644 54.4994V58.8692H20.082H5.60547L5.74219 60.92H20.7213C32.2016 60.92 32.3197 60.9172 32.6159 60.6412C32.9136 60.3638 32.9151 60.3365 32.9119 55.2066C32.9088 50.4842 32.8678 49.6669 32.5906 48.8029C32.4994 48.519 32.5385 48.5102 34.1758 48.4451C35.2193 48.4035 36.0743 48.2962 36.4352 48.1612L37.0159 47.9441L36.7579 48.4505C36.101 49.7405 36.0597 50.1506 36.0597 55.3838V60.3254L36.376 60.6227L36.6925 60.92H50.4581C64.1399 60.92 64.2254 60.9183 64.5032 60.6405C64.7765 60.3672 64.7817 60.244 64.7424 55.0692L64.7022 49.7774L64.3244 48.9705C64.1164 48.5266 63.9631 48.1468 63.9837 48.1262C64.0042 48.1057 64.3896 48.1756 64.8401 48.2816C65.3318 48.3972 66.4069 48.4752 67.5292 48.4764L69.3992 48.4786L69.693 48.1051C69.9814 47.7384 69.9859 47.6578 69.9339 43.6959C69.8777 39.4019 69.8474 39.1893 69.0761 37.6659C68.4965 36.5209 67.2944 35.2893 65.9519 34.4649C65.7514 34.3418 65.749 34.2735 65.9275 33.7813C66.1642 33.1285 66.1937 31.8061 65.9884 31.0469C65.907 30.7461 65.6814 30.225 65.4871 29.8886C65.1432 29.2938 65.1344 29.2182 65.1615 27.0859C65.205 23.6575 64.6711 20.9724 63.8736 20.609C63.3912 20.3893 63.2199 20.4094 62.8066 20.7346C62.3715 21.0768 62.3623 21.3192 62.7316 22.7194C62.9218 23.4404 63.0421 24.4273 63.0925 25.6807L63.1683 27.5606L59.697 27.5573C57.7877 27.5554 55.9617 27.4931 55.639 27.4185C53.3881 26.8994 51.8396 25.1539 51.4617 22.7102C51.3344 21.8866 51.2277 21.5958 50.9783 21.3939C50.6085 21.0945 50.4217 21.0753 49.9523 21.2893C49.5434 21.4755 49.3658 21.9062 49.2756 22.9305C49.1287 24.5963 47.8957 26.2571 46.2145 27.0535L45.2882 27.4922L41.477 27.5363L37.6658 27.5801L37.739 25.5538C37.8233 23.2131 38.0039 22.4264 38.8687 20.6331C40.621 16.9984 44.2806 14.4534 48.1176 14.2008L49.3062 14.1226L49.3978 14.4874C49.5091 14.9309 49.9421 15.2559 50.4217 15.2559C50.8252 15.2559 51.3722 14.7481 51.3722 14.3737C51.3722 14.1453 51.4736 14.1307 52.5685 14.201C54.0236 14.2944 55.088 14.5679 56.3958 15.1848C57.6939 15.7969 58.4729 16.3409 59.6707 17.4716C60.772 18.5112 61.2145 18.6422 61.739 18.0841C62.2833 17.5047 62.1442 17.0401 61.1205 16.0163C59.4989 14.3946 57.592 13.2799 55.2193 12.5667C54.0376 12.2115 53.9065 12.2017 50.4151 12.2112C50.2271 12.2117 49.3658 12.208 48.5011 12.203C46.5878 12.1918 45.2089 12.5161 43.3522 13.4139C40.1716 14.952 37.6483 17.7158 36.4823 20.9384C35.8096 22.797 35.6357 24.0426 35.6606 26.8223C35.6784 28.8128 35.6425 29.361 35.4778 29.625C35.365 29.8055 35.2121 30.069 35.1379 30.2105C35.0224 30.4311 34.9889 30.392 34.9037 29.937C34.7469 29.0995 34.1626 27.9933 33.5259 27.3287L32.9408 26.7181L32.8815 23.6189C32.8317 21.0209 32.7757 20.3498 32.5351 19.4703C31.1789 14.5137 27.5156 10.7957 22.6447 9.43237C21.5127 9.1156 21.066 9.06856 18.8331 9.03042C17.442 9.00677 15.7809 9.04519 15.1417 9.11573ZM21.1795 11.2138C25.0401 11.9686 28.1205 14.3589 29.761 17.8728C30.6277 19.7291 30.7516 20.3513 30.8268 23.2269L30.8942 25.7975L22.9154 25.7552L14.9366 25.7128L14.0235 25.3583C12.783 24.8768 11.8354 24.2452 11.0978 23.4079C10.4142 22.6317 9.74856 21.3555 9.59557 20.5274C9.4732 19.8657 8.99291 19.3575 8.48979 19.3575C7.71049 19.3575 5.83102 21.9017 5.07059 23.9862L4.68928 25.0313L4.52563 24.2949C4.25588 23.0809 4.05846 20.9414 3.97055 18.2819L3.8877 15.7707L4.21678 15.8665C4.39793 15.9191 5.04311 16.1202 5.65082 16.3133C7.09936 16.7736 7.33082 16.7084 7.96766 15.66C9.46418 13.1964 12.3116 11.4609 15.3468 11.1624C17.2254 10.9777 20.1016 11.003 21.1795 11.2138ZM8.55295 23.3652C9.83004 25.6281 12.3496 27.2966 15.0873 27.6923C15.6182 27.7691 19.2003 27.8298 23.2838 27.8313L30.5372 27.834L31.2323 28.1803C32.2667 28.6958 32.9151 29.7433 32.9151 30.8987C32.9151 32.5886 31.74 33.8737 30.0167 34.0687C29.5721 34.119 29.0936 34.2595 28.9534 34.3809C28.8054 34.5091 28.5788 35.0886 28.4127 35.7637C27.4359 39.7343 24.5686 42.6937 20.5131 43.9174C19.4691 44.2324 19.0696 44.2799 17.4659 44.2799C15.8612 44.2799 15.463 44.2325 14.4161 43.9167C12.2758 43.2709 10.8304 42.3861 9.32377 40.7996C7.84639 39.2439 6.94445 37.5713 6.47195 35.5109C6.23338 34.4705 5.9568 34.1231 5.36686 34.1231C4.75859 34.1231 3.75576 33.8017 3.25756 33.4469C2.32022 32.7794 1.82242 31.2722 2.15123 30.0975C2.49043 28.8865 3.7652 27.8439 4.91555 27.837C5.97908 27.8308 6.15545 27.6258 6.59856 25.8826C6.88525 24.7549 7.86758 22.6387 8.10438 22.6387C8.12557 22.6387 8.3275 22.9656 8.55295 23.3652ZM50.7254 26.4502C51.095 27.0759 52.4711 28.2733 53.3726 28.7535C54.7296 29.4763 55.5787 29.6071 58.9303 29.6093C62.1086 29.6115 62.5467 29.6852 63.244 30.3357C64.2027 31.23 64.3603 32.7958 63.5997 33.8724C63.1184 34.5538 62.4538 34.923 61.5069 35.0351C61.1213 35.0808 60.711 35.1876 60.5949 35.2725C60.4789 35.3574 60.2601 35.9179 60.1088 36.5181C59.0061 40.89 55.3937 43.9037 50.9124 44.1901C47.1413 44.4313 43.355 42.2994 41.6346 38.9666C41.2882 38.2953 40.8815 37.2643 40.7308 36.6755C40.4136 35.4357 40.1528 35.0804 39.559 35.0793C37.9233 35.0764 36.6998 33.8676 36.7141 32.2686C36.7214 31.4686 36.9457 30.9475 37.5172 30.4048C38.2805 29.6797 38.6586 29.6114 41.9055 29.6114C45.0845 29.6114 45.823 29.5086 47.2022 28.8736C48.123 28.4498 49.2104 27.5654 49.8283 26.7377C50.1081 26.3631 50.3719 26.0567 50.4149 26.0567C50.4578 26.0567 50.5975 26.2337 50.7254 26.4502ZM35.0224 34.2251C35.0657 34.2684 34.7339 34.5439 34.2849 34.8373C32.7418 35.8456 31.5392 37.5463 31.0719 39.3813C30.9177 39.9867 30.8644 40.9596 30.8644 43.1659V46.1359L30.1827 45.6772C28.9566 44.852 28.1225 44.6153 26.1943 44.5452L24.4636 44.4821L25.5371 43.6733C27.7465 42.0085 29.5866 39.3224 30.3027 36.7167C30.466 36.1227 30.5012 36.0908 31.1658 35.9328C32.4091 35.6375 33.8463 34.4864 34.3868 33.3534L34.6177 32.869L34.7805 33.5076C34.8702 33.8588 34.9789 34.1817 35.0224 34.2251ZM36.9415 36.3965C37.2951 36.594 37.8341 36.8294 38.1394 36.9197C38.6504 37.0705 38.7132 37.1428 38.9273 37.825C39.0553 38.2329 39.3017 38.8918 39.4748 39.2897C39.744 39.9082 39.7788 40.1652 39.7158 41.067C39.5825 42.9769 38.7488 44.4749 37.2698 45.4626C36.2139 46.1677 35.3263 46.4278 33.9753 46.4278H32.8975L32.9406 43.1124L32.9835 39.7969L33.42 38.8753C33.9888 37.6746 35.2748 36.4019 36.2817 36.0432C36.291 36.0399 36.5879 36.1989 36.9415 36.3965ZM65.1976 36.4286C65.9624 36.9135 66.7474 37.7102 67.1697 38.4297C67.7843 39.4767 67.9151 40.3722 67.9151 43.5329V46.4596L66.5821 46.4052C65.4408 46.3586 65.1179 46.2893 64.3358 45.9225C63.0723 45.3298 62.274 44.5513 61.6638 43.3166C61.2161 42.4106 61.1526 42.1522 61.1037 41.0345C61.0595 40.0233 61.0959 39.6826 61.2882 39.3108C61.42 39.0559 61.6598 38.4561 61.821 37.978C62.1069 37.1308 62.1318 37.1029 62.8014 36.8761C63.1795 36.7481 63.7002 36.5082 63.9588 36.3426C64.2173 36.1772 64.4628 36.0407 64.5045 36.0395C64.5462 36.0383 64.8581 36.2133 65.1976 36.4286ZM42.4621 43.2679C42.8885 43.6356 43.6065 44.1738 44.0577 44.4642L44.878 44.9922L42.8956 45.0775C41.8053 45.1246 40.7971 45.2113 40.6553 45.2703C40.5088 45.3313 40.4224 45.3239 40.4552 45.2532C40.487 45.1849 40.7415 44.6693 41.0208 44.1074C41.3 43.5456 41.5284 42.9765 41.5284 42.8427C41.5284 42.709 41.5641 42.5997 41.6076 42.5997C41.6511 42.5997 42.0356 42.9004 42.4621 43.2679ZM59.3019 42.9863C59.3019 43.1148 59.5432 43.7005 59.8382 44.2876C60.2255 45.0587 60.311 45.3272 60.1458 45.2545C60.02 45.199 59.0403 45.1258 57.9688 45.0919C56.8974 45.058 56.0206 44.9907 56.0206 44.9426C56.0206 44.8945 56.2821 44.7152 56.6017 44.5445C56.9212 44.3737 57.6134 43.8726 58.1397 43.4312C59.0979 42.6273 59.3019 42.5492 59.3019 42.9863ZM21.3472 46.8058C21.0272 47.8327 19.8997 49.0071 18.9113 49.3432C17.1312 49.9486 15.2057 49.3474 14.1884 47.8687C13.776 47.2693 13.3761 46.0969 13.5313 45.9419C13.5778 45.8954 14.0976 45.9685 14.6863 46.1043C16.1582 46.4439 19.0463 46.4218 20.4737 46.0599C21.0377 45.917 21.5199 45.8499 21.5453 45.9109C21.5708 45.9718 21.4816 46.3746 21.3472 46.8058ZM48.4677 46.0883C49.1073 46.1999 49.9837 46.2911 50.4151 46.2911C51.179 46.2911 53.2832 45.9784 53.7658 45.7931C53.9865 45.7085 54.0011 45.7957 53.9433 46.8505C53.8178 49.141 52.5061 50.5191 50.4449 50.5263C49.025 50.5313 47.9951 49.9331 47.3349 48.7201C47.0178 48.1377 46.9335 47.7876 46.8844 46.8522C46.8289 45.7964 46.8438 45.7085 47.0644 45.7931C47.1966 45.844 47.8281 45.9767 48.4677 46.0883ZM44.9188 47.9573C45.2621 49.8034 46.3925 51.2862 48.058 52.0752C48.9123 52.4799 49.0843 52.5118 50.4151 52.5118C51.746 52.5118 51.9179 52.4799 52.7723 52.0752C54.443 51.2838 55.5682 49.8038 55.9144 47.9422L56.0745 47.0813L57.8591 47.14C59.9331 47.2082 60.6113 47.4458 61.5836 48.4448C62.6498 49.5406 62.7198 49.926 62.7198 54.7045V58.8692H50.4151H38.1104V54.7834C38.1104 51.3278 38.146 50.5876 38.3405 49.9852C38.7357 48.7614 40.051 47.5508 41.3233 47.2396C41.5489 47.1845 42.4148 47.1331 43.2474 47.1253L44.7614 47.1114L44.9188 47.9573Z" fill="white"></path>
</svg>
