<?xml version="1.0" encoding="UTF-8"?>
<svg xmlns="http://www.w3.org/2000/svg" width="70" height="70" viewBox="0 0 70 70" fill="none">
  <path d="M14.902 0C15.4051 0.122132 15.9136 0.229679 16.4131 0.368218C23.8796 2.44082 26.4444 11.5278 21.1635 17.1824C21.0414 17.3136 20.9247 17.4485 20.7479 17.6472C21.1179 17.7238 21.4242 17.7766 21.725 17.8495C25.0973 18.6789 27.3613 21.4898 27.4415 25.0316C27.4925 27.2628 27.4633 29.4958 27.4488 31.727C27.4415 32.7661 26.9256 33.2911 25.8847 33.2929C17.7766 33.302 9.66667 33.2929 1.55855 33.3056C0.836695 33.3075 0.38098 32.9429 0 32.4033C0 29.6234 0 26.8436 0 24.0637C0.0473946 23.9179 0.10573 23.7739 0.140364 23.6226C0.665351 21.2528 1.99057 19.4846 4.17073 18.4201C4.93268 18.0482 5.78579 17.8605 6.6316 17.5761C6.51494 17.443 6.3928 17.2899 6.25791 17.1477C0.944249 11.5005 3.66397 2.21114 11.1888 0.311709C11.6481 0.195045 12.1148 0.103904 12.5778 0C13.3525 0 14.1272 0 14.902 0ZM24.7053 30.5221C24.7053 28.5625 24.7819 26.6923 24.6871 24.8311C24.5577 22.2718 22.5781 20.4015 20.0406 20.3851C15.8261 20.356 11.6099 20.3596 7.39538 20.3851C5.04388 20.3997 3.05148 22.0257 2.82545 24.3626C2.6304 26.3879 2.78535 28.4459 2.78535 30.5221C10.0805 30.5221 17.361 30.5221 24.7053 30.5221ZM6.21963 10.1844C6.21416 14.2876 9.58464 17.6399 13.7153 17.6399C17.8586 17.6399 21.2073 14.315 21.2109 10.1953C21.2145 6.07927 17.8623 2.73795 13.7262 2.7343C9.59923 2.73248 6.22692 6.07927 6.21963 10.1844Z" fill="white"></path>
  <path d="M0 42.5184C0.0729148 42.2814 0.147655 42.0445 0.218747 41.8057C0.842168 39.7367 2.59394 38.3003 4.73946 38.1034C4.94362 38.0852 5.14778 38.0688 5.35377 38.0688C15.0569 38.067 24.76 38.0578 34.4613 38.0724C37.1227 38.0761 39.1662 39.6948 39.7112 42.1757C39.8133 42.6369 39.8279 43.1254 39.8297 43.6012C39.8388 48.0417 39.8425 52.484 39.8333 56.9245C39.826 60.3133 37.6568 62.4734 34.2809 62.4806C33.5299 62.4825 32.7807 62.4806 31.944 62.4806C31.8291 63.4395 31.7216 64.3783 31.6049 65.317C31.4427 66.604 30.4419 67.0998 29.3464 66.4108C27.4579 65.2222 25.5949 63.9991 23.6991 62.8233C23.3747 62.6228 22.9463 62.4971 22.5635 62.4952C16.96 62.4752 11.3583 62.4825 5.7548 62.4806C2.6778 62.4806 0.929667 61.1609 0.083856 58.206C0.0729188 58.1659 0.0291677 58.1367 0.00182465 58.1021C1.78019e-06 52.9088 0 47.7136 0 42.5184ZM29.1057 63.0166C29.1914 62.2856 29.2425 61.6749 29.3391 61.0698C29.4831 60.162 29.9516 59.7609 30.8666 59.7518C32.0278 59.7409 33.189 59.7518 34.3501 59.7482C36.122 59.7427 37.0972 58.782 37.099 57.0011C37.1081 52.515 37.1081 48.0289 37.099 43.5429C37.0954 41.7674 36.1238 40.8031 34.3429 40.8013C24.7327 40.7976 15.1225 40.7976 5.51235 40.8013C3.70407 40.8013 2.73613 41.7838 2.73613 43.5975C2.73431 48.0162 2.73431 52.433 2.73613 56.8516C2.73613 58.8094 3.66761 59.7482 5.61261 59.75C11.3747 59.7518 17.135 59.7609 22.8971 59.7372C23.6627 59.7336 24.3061 59.9195 24.9368 60.3424C26.2748 61.2393 27.6456 62.0851 29.1057 63.0166Z" fill="white"></path>
  <path d="M43.4755 69.9982C42.7299 69.5552 42.5094 68.8917 42.5331 68.0459C42.5786 66.429 42.5239 64.8103 42.5513 63.1934C42.6151 59.3636 45.1471 56.4342 48.9222 55.7907C49.0061 55.7762 49.0881 55.7579 49.2758 55.7196C46.8113 53.2533 45.714 50.3404 46.1314 46.9407C46.4559 44.2957 47.7155 42.1229 49.7571 40.413C53.6161 37.1793 59.4183 37.3068 63.157 40.7265C65.3353 42.7189 66.4728 45.2108 66.5056 48.1657C66.5384 51.1133 65.4064 53.6033 63.2682 55.7269C65.9186 56.1097 67.8928 57.3639 69.1014 59.6498C69.5188 60.4409 69.7066 61.3523 70.0001 62.2072C70.0001 64.8048 70.0001 67.4024 70.0001 70C61.1573 69.9982 52.3164 69.9982 43.4755 69.9982ZM67.2639 67.2329C67.2639 65.9077 67.2657 64.6572 67.2639 63.4049C67.2566 60.4445 65.3134 58.4758 62.3586 58.4558C60.3771 58.4412 58.3975 58.4521 56.416 58.4521C54.2979 58.4521 52.1815 58.4321 50.0633 58.4594C47.7465 58.4868 45.7504 59.9141 45.4588 62.0487C45.2291 63.7366 45.4132 65.4811 45.4132 67.2311C52.6372 67.2329 59.9123 67.2329 67.2639 67.2329ZM56.2574 55.7105C60.3789 55.7306 63.7585 52.3874 63.7768 48.2751C63.795 44.1772 60.4336 40.8195 56.2957 40.8031C52.1669 40.7867 48.7983 44.1244 48.7892 48.2368C48.7782 52.3565 52.1122 55.6923 56.2574 55.7105Z" fill="white"></path>
  <path d="M57.0102 0C57.3985 0.123955 57.794 0.226035 58.1714 0.375511C60.264 1.20492 61.4635 3.07883 61.4671 5.55611C61.4744 11.3419 61.4726 17.1277 61.4671 22.9153C61.4671 23.8705 61.4908 24.8329 61.4051 25.7827C61.1809 28.2308 59.1976 30.2633 56.7495 30.3562C53.6561 30.4747 50.5554 30.4 47.4584 30.4419C46.9753 30.4492 46.4649 30.5549 46.0165 30.7409C44.2082 31.4864 42.4236 32.2867 40.6244 33.0541C39.3758 33.5882 38.6211 33.1707 38.3659 31.8255C38.282 31.3825 38.2055 30.9377 38.1143 30.4273C37.2448 30.4273 36.4063 30.4437 35.5696 30.4237C32.8608 30.3599 30.8466 28.8123 30.2961 26.3405C30.1794 25.8136 30.1685 25.2558 30.1685 24.7126C30.1593 18.38 30.1612 12.0473 30.163 5.71469C30.1648 2.64863 31.5046 0.898675 34.4741 0.0747383C34.516 0.0638011 34.5506 0.0273448 34.5871 0.00182465C42.0627 1.78019e-06 49.5364 0 57.0102 0ZM40.8523 29.968C42.42 29.2899 43.891 28.6282 45.3858 28.0248C45.8561 27.8352 46.3902 27.7131 46.8951 27.7094C49.9229 27.6803 52.9525 27.7076 55.9803 27.6894C57.7521 27.6784 58.7292 26.6923 58.731 24.9259C58.7383 18.4584 58.7383 11.9908 58.731 5.52329C58.7292 3.71136 57.7412 2.73613 55.9402 2.7343C49.1992 2.73248 42.4582 2.73248 35.7191 2.7343C33.8525 2.7343 32.8973 3.67855 32.8973 5.54517C32.8936 11.989 32.8936 18.4347 32.8973 24.8785C32.8991 26.736 33.847 27.6748 35.7264 27.6912C36.8876 27.7021 38.0487 27.6803 39.2099 27.7003C40.0375 27.7149 40.4586 28.0831 40.6408 28.8834C40.7174 29.2133 40.7703 29.5451 40.8523 29.968Z" fill="white"></path>
  <path d="M23.0775 54.6259C21.1634 54.6259 19.2513 54.6496 17.3372 54.6077C16.8906 54.5986 16.3857 54.4491 16.0193 54.203C15.58 53.9077 15.4798 53.3736 15.6566 52.8468C15.8297 52.3309 16.1816 52.0028 16.7339 51.9244C16.8906 51.9025 17.0511 51.8952 17.2096 51.8934C21.1507 51.8916 25.0899 51.8898 29.031 51.8952C29.9315 51.8971 30.4893 52.2945 30.615 52.9853C30.7754 53.8567 30.1939 54.5749 29.2242 54.6095C28.1323 54.6496 27.0386 54.6241 25.9448 54.6259C24.9915 54.6277 24.0345 54.6259 23.0775 54.6259Z" fill="white"></path>
  <path d="M14.0142 45.4678C15.0843 45.4678 16.1543 45.4569 17.2243 45.4715C18.1941 45.4842 18.7683 46.0019 18.7719 46.8222C18.7756 47.6443 18.2014 48.1857 17.2371 48.193C15.0733 48.2094 12.9096 48.2094 10.7477 48.193C9.7943 48.1857 9.18911 47.6334 9.18546 46.835C9.17999 46.0347 9.78701 45.4861 10.7349 45.4715C11.8268 45.4551 12.9205 45.4678 14.0142 45.4678Z" fill="white"></path>
  <path d="M11.4057 51.877C11.7904 51.8935 12.1786 51.8789 12.5578 51.9354C13.1922 52.0302 13.6442 52.577 13.6643 53.2114C13.6825 53.8403 13.2614 54.4801 12.6325 54.5403C11.8268 54.6168 11.0029 54.6186 10.199 54.5348C9.58105 54.471 9.15451 53.8038 9.18732 53.1877C9.22195 52.5533 9.68131 52.0156 10.3193 51.9317C10.6748 51.8862 11.043 51.9226 11.4039 51.9226C11.4039 51.9099 11.4039 51.8935 11.4057 51.877Z" fill="white"></path>
  <path d="M22.2499 46.804C22.2645 46.042 22.8405 45.4788 23.6025 45.4861C24.3918 45.4934 24.9806 46.1077 24.9459 46.8897C24.9131 47.6334 24.297 48.204 23.5514 48.1821C22.8004 48.1566 22.2353 47.5605 22.2499 46.804Z" fill="white"></path>
  <path d="M30.6388 46.8386C30.6315 47.5896 30.0464 48.173 29.2917 48.1748C28.517 48.1784 27.8917 47.5441 27.9191 46.7839C27.9446 46.0493 28.5698 45.4642 29.3118 45.4788C30.0591 45.4915 30.6443 46.0931 30.6388 46.8386Z" fill="white"></path>
  <path d="M47.1704 16.1798C47.1704 16.7011 47.1832 17.2225 47.1668 17.7438C47.1413 18.5933 46.6017 19.1474 45.8197 19.1529C45.0413 19.1583 44.4708 18.606 44.4434 17.7675C44.4179 16.9709 44.4343 16.1743 44.4361 15.3777C44.4379 14.1108 44.7934 13.7116 46.0421 13.5585C47.6608 13.3616 48.5886 11.701 47.885 10.2646C47.453 9.38229 46.5506 8.86825 45.6046 8.96668C44.5801 9.07423 43.8328 9.71406 43.5794 10.7112C43.5356 10.8862 43.5083 11.0666 43.4864 11.2471C43.3843 12.1512 42.8393 12.658 42.0208 12.6051C41.257 12.5559 40.7503 11.9544 40.7539 11.1086C40.7703 8.35784 43.3369 6.0027 46.0767 6.22327C48.5595 6.42378 50.4097 8.12451 50.8052 10.5708C51.1698 12.8312 49.8336 15.0678 47.5678 15.9938C47.4475 16.0485 47.3254 16.1087 47.1704 16.1798Z" fill="white"></path>
  <path d="M45.7978 24.091C45.0413 24.0874 44.4489 23.5004 44.4434 22.7549C44.4379 22.0294 45.0559 21.3968 45.7832 21.3823C46.5379 21.3677 47.1813 22.0148 47.1649 22.7731C47.1485 23.5296 46.5597 24.0947 45.7978 24.091Z" fill="white"></path>
</svg>
