<svg xmlns="http://www.w3.org/2000/svg" width="135" height="66" viewBox="0 0 135 66" fill="none">
<path d="M83.016 27.64H89.544V31H78.44V10.648H89.288V14.008H83.016V18.968H88.36V22.328H83.016V27.64ZM100.814 31L100.11 27.32H95.4698L94.7658 31H90.2538L94.8618 10.648H100.686L105.422 31H100.814ZM96.1098 23.992H99.4378L97.7738 15.384L96.1098 23.992ZM114.075 26.84V23.16C114.075 22.8827 114.011 22.6907 113.883 22.584C113.755 22.456 113.531 22.392 113.211 22.392H110.395C107.877 22.392 106.618 21.1973 106.618 18.808V14.168C106.618 11.8213 107.963 10.648 110.651 10.648H114.555C117.243 10.648 118.587 11.8213 118.587 14.168V16.824H114.01V14.808C114.01 14.2747 113.723 14.008 113.147 14.008H112.059C111.483 14.008 111.195 14.2747 111.195 14.808V18.392C111.195 18.6693 111.259 18.872 111.387 19C111.515 19.1067 111.739 19.16 112.059 19.16H114.811C116.176 19.16 117.157 19.4587 117.755 20.056C118.352 20.632 118.651 21.496 118.651 22.648V27.448C118.651 29.816 117.307 31 114.619 31H110.747C108.037 31 106.683 29.816 106.683 27.448V24.824H111.259V26.84C111.259 27.3733 111.547 27.64 112.123 27.64H113.211C113.787 27.64 114.075 27.3733 114.075 26.84ZM129.479 31H124.903V24.408L119.783 10.648H124.455L127.175 20.216L129.703 10.648H134.375L129.479 24.44V31Z" fill="#0444A5"/>
<g clip-path="url(#clip0_1_6749)">
<path d="M66.7763 46.3012C66.7257 48.4693 69.4801 48.2605 69.92 48.2605C74.365 48.2688 78.8114 48.2771 83.2564 48.255C84.3033 48.2495 85.3376 48.3504 86.3621 48.5053C87.2699 48.6435 88.1581 48.9021 88.9648 49.3598C89.5437 49.6889 90.0665 50.0968 90.4684 50.6195C90.7959 51.044 91.0278 51.5279 91.2245 52.0354C91.3903 52.4599 91.4395 52.8996 91.5547 53.3283C91.6433 53.656 91.6545 54.01 91.6531 54.3529C91.6517 55.9831 91.6377 57.612 91.618 59.2423C91.6152 59.4455 91.5562 59.6474 91.5182 59.8493C91.4929 59.9848 91.4409 60.1175 91.4353 60.2531C91.4212 60.6693 91.1978 61.0191 91.084 61.4007C90.9687 61.7879 90.7425 62.1045 90.5218 62.4101C90.2717 62.7572 89.933 63.0614 89.5845 63.32C89.2149 63.5951 88.7891 63.7956 88.3872 64.0266C88.3169 64.0667 88.2424 64.1026 88.1651 64.1275C87.8799 64.2188 87.5861 64.2879 87.3065 64.3958C86.8961 64.5548 86.4661 64.5797 86.0375 64.6322C85.6229 64.682 85.221 64.8092 84.7938 64.7995C84.011 64.7829 83.2269 64.7995 82.4427 64.7995C75.388 64.7995 68.3334 64.7995 61.2787 64.7995C61.1747 64.7995 61.0707 64.7995 60.9765 64.7995C60.888 64.5396 60.8599 60.1756 60.9386 59.635C61.044 59.6294 61.1578 59.617 61.2703 59.617C67.5295 59.617 73.7888 59.617 80.0466 59.6156C81.0992 59.6156 82.1532 59.6308 83.2044 59.599C83.6555 59.5852 84.122 59.5299 84.5479 59.3916C85.3756 59.122 85.8759 58.5979 85.904 57.6452C85.9265 56.8543 85.911 56.0633 85.9152 55.2724C85.918 54.7871 85.6707 54.3875 85.4177 54.0072C85.2969 53.8247 85.0861 53.6767 84.843 53.6062C84.5338 53.5163 84.2331 53.3933 83.9267 53.2923C83.8396 53.2633 83.7454 53.2453 83.6541 53.2425C83.151 53.2273 82.6493 53.2094 82.1462 53.2094C77.7827 53.2066 73.4192 53.1983 69.0557 53.2163C68.1732 53.219 67.3089 53.0794 66.4334 53.0393C65.9626 53.0172 65.5045 52.9204 65.0604 52.7862C64.3943 52.5857 63.7478 52.3341 63.1646 51.9372C62.736 51.6455 62.4043 51.2666 62.0629 50.8946C61.9884 50.8131 61.9589 50.6928 61.9012 50.5932C61.467 49.8451 61.1803 49.0514 61.0974 48.1872C60.9779 46.9289 60.933 45.6665 60.9723 44.404C60.9962 43.6477 61.0595 42.8927 61.1353 42.1391C61.1663 41.8349 61.2787 41.539 61.3532 41.2403C61.4867 40.7038 61.7017 40.1964 61.9687 39.7138C62.2202 39.2589 62.5421 38.8551 62.9341 38.5053C63.4316 38.0614 63.9909 37.7309 64.6205 37.4889C65.066 37.3175 65.5227 37.2152 65.9795 37.0949C67.1712 36.7838 68.3882 36.8294 69.5995 36.8238C72.2429 36.81 74.8877 36.8211 77.5311 36.8211C77.6464 36.8211 77.7602 36.8211 77.9021 36.8211V42.0368C77.7897 42.0437 77.6787 42.0575 77.5677 42.0575C75.2166 42.0603 72.8655 42.0603 70.5144 42.0644C70.0352 42.0644 69.5546 42.0617 69.0768 42.0976C68.2701 42.1585 67.545 42.3991 67.077 43.1126C67.0587 43.1416 67.0236 43.1637 67.0166 43.1941C66.9351 43.5385 66.8142 43.88 66.7889 44.2284C66.7496 44.7885 66.7749 45.3526 66.7735 45.9154C66.7735 46.0274 66.7735 46.1408 66.7735 46.3053L66.7763 46.3012Z" fill="#1E1E1E"/>
<path d="M40.1315 48.9423C40.2509 48.7653 40.3409 48.6381 40.4252 48.5054C40.5798 48.2634 40.7259 48.0159 40.8847 47.7767C41.0365 47.5485 41.4904 47.514 41.7743 47.702C41.8417 47.7463 41.9036 47.7974 41.9724 47.8389C42.4812 48.1459 42.5036 48.421 42.2142 48.9603C42.0399 49.2852 41.7813 49.5632 41.6619 49.9199C41.6281 50.0222 41.5312 50.1066 41.4623 50.1979C41.163 50.5933 41.1588 50.8851 41.4342 51.3013C41.5424 51.4644 41.6295 51.6387 41.7265 51.8088C41.9387 52.1849 42.1411 52.5679 42.3687 52.9343C42.4165 53.0104 42.5613 53.0283 42.6751 53.0781C42.7833 52.9067 42.8943 52.7698 42.959 52.6149C43.1093 52.2581 43.3412 51.9927 43.7319 51.871C43.9244 51.9705 44.1226 52.0908 44.3348 52.1752C44.5076 52.2429 44.6172 52.3563 44.7311 52.4918C44.8266 52.6052 44.8618 52.7214 44.8224 52.8389C44.755 53.0394 44.6594 53.2316 44.5596 53.4196C44.4964 53.5386 44.3994 53.6395 44.3249 53.7543C44.1085 54.0903 43.8907 54.4263 43.6827 54.7664C43.604 54.895 43.5829 55.0167 43.6841 55.1757C43.8963 55.509 44.0579 55.8713 44.2519 56.2156C44.3488 56.3884 44.5034 56.5364 44.5709 56.7175C44.7086 57.0922 44.977 57.3909 45.1231 57.7684C45.3311 58.3076 45.3241 58.8442 45.303 59.3917C45.2946 59.6047 45.2243 59.8162 45.1836 60.0278C45.1527 60.1854 45.126 60.343 45.0936 60.5007C45.0121 60.8906 44.9292 61.2805 44.8421 61.6705C44.7859 61.9263 44.7001 62.1779 44.6692 62.4365C44.6257 62.7933 44.3755 62.9841 44.1001 63.1182C43.7937 63.2662 43.5984 63.0214 43.3988 62.8265C43.1726 62.6038 42.9309 62.3964 42.6877 62.1904C42.3715 61.9208 42.0497 61.6594 41.7293 61.3967C41.4988 61.2086 41.2656 61.0247 41.0337 60.8394C41.007 60.8187 40.9676 60.8076 40.948 60.7828C40.7034 60.4633 40.3732 60.2407 40.0612 59.9932C39.849 59.8259 39.679 59.6074 39.4808 59.4221C39.4091 59.3544 39.3023 59.324 39.2265 59.2604C38.9271 59.0101 38.6362 58.7474 38.3355 58.4985C38.1008 58.3049 37.8464 58.132 37.616 57.9343C37.4178 57.7656 37.2436 57.572 37.0538 57.395C36.8613 57.2167 36.6674 57.0397 36.4664 56.871C35.9647 56.4479 35.4588 56.0275 34.9543 55.6085C34.5707 55.2905 34.1842 54.9766 33.8019 54.6572C33.6108 54.4982 33.4239 54.3336 33.192 54.1345C33.0698 54.3005 32.9616 54.4152 32.8927 54.5493C32.8042 54.7236 32.6538 54.8466 32.5723 55.0361C32.4346 55.3596 32.2125 55.6486 32.0228 55.9515C31.9497 56.0676 31.8739 56.1824 31.7952 56.2958C31.7558 56.3524 31.6968 56.3967 31.6631 56.4562C31.5436 56.6663 31.4438 56.8876 31.3131 57.0908C31.0166 57.5527 30.6681 57.9868 30.4081 58.468C30.0793 59.0751 29.6802 59.6406 29.3583 60.2504C29.312 60.3375 29.2951 60.4481 29.2937 60.5477C29.2909 60.8408 29.2712 61.1284 29.3696 61.423C29.4595 61.6898 29.4595 61.9871 29.4919 62.272C29.5228 62.5458 29.5776 62.8209 29.5635 63.0933C29.5396 63.5842 29.4989 64.0765 29.4132 64.5604C29.3485 64.9296 29.2108 65.2877 29.097 65.6486C28.9887 65.9929 28.525 66.1215 28.2594 65.8699C28.0458 65.6694 27.8645 65.4357 27.6579 65.2269C27.4766 65.043 27.2715 64.8812 27.0902 64.6987C26.8541 64.4622 26.6363 64.2078 26.4002 63.9714C26.2006 63.7709 25.9856 63.5856 25.7804 63.3906C25.6244 63.2427 25.4727 63.0906 25.3209 62.9385C25.1452 62.7615 24.9892 62.5596 24.7911 62.4102C24.6435 62.2982 24.4482 62.2111 24.2641 62.189C23.8467 62.1406 23.4799 61.9484 23.0864 61.8406C22.8616 61.7783 22.6283 61.7465 22.4063 61.6774C22.1266 61.5903 21.8638 61.452 21.5757 61.3856C21.497 61.3677 21.4225 61.3317 21.3424 61.3151C21.1485 61.2722 20.8871 61.2985 20.7775 61.1824C20.6299 61.0275 20.4627 61.069 20.3138 61.0095C20.1325 60.9362 19.9371 60.8961 19.7474 60.8381C19.7151 60.8284 19.6884 60.8021 19.6504 60.7786C19.5535 60.3735 19.6308 60.0527 20.0116 59.7858C20.547 59.4125 21.0431 58.9852 21.5617 58.5883C21.6586 58.5137 21.7865 58.4736 21.9046 58.4293C22.2376 58.3021 22.5721 58.1763 22.9094 58.0601C23.1834 57.9661 23.4588 57.8721 23.7399 57.8043C24.2781 57.6757 24.6323 57.3425 24.8529 56.8641C24.9274 56.7009 25.0553 56.5792 25.1396 56.4202C25.4502 55.8408 25.8015 55.2794 26.1725 54.7346C26.3383 54.4927 26.4789 54.2479 26.6124 53.988C26.7838 53.6547 27.0311 53.3616 27.2363 53.0449C27.5483 52.561 27.8533 52.0742 28.1554 51.5834C28.2144 51.488 28.2425 51.3732 28.2931 51.2501C28.1273 51.1658 27.9825 51.0773 27.8266 51.0164C27.3712 50.8394 26.9089 50.6791 26.4536 50.5034C26.2386 50.4205 26.032 50.3168 25.8212 50.2255C25.7467 50.1937 25.668 50.1702 25.5921 50.1398C25.3321 50.0347 25.0735 49.9296 24.815 49.8231C24.7728 49.8052 24.7335 49.7803 24.6913 49.7637C24.4102 49.66 24.1306 49.5563 23.8481 49.4567C23.6739 49.3945 23.4982 49.3336 23.3197 49.2839C23.1342 49.2327 23.012 49.0668 22.8026 49.0433C22.6367 49.0253 22.4779 48.9326 22.3191 48.869C22.1238 48.7902 21.9327 48.7045 21.7373 48.6243C21.5476 48.5469 21.3551 48.4722 21.1415 48.3878C20.7958 48.1887 20.9265 48.3159 20.7494 48.1555C20.1929 48.1196 19.7769 47.8154 19.3328 47.5969C19.0771 47.4711 18.8564 47.2692 18.6302 47.0908C18.4616 46.9581 18.2943 46.9069 18.0793 46.983C17.9641 47.0245 17.8165 47.0494 17.7069 47.012C17.3963 46.9097 17.0689 46.8544 16.7878 46.6608C16.6332 46.5543 16.4295 46.5184 16.2482 46.4506C15.9559 46.3428 15.6622 46.2377 15.3699 46.1271C15.3193 46.1077 15.2434 46.0745 15.2378 46.0386C15.1984 45.8035 15.1253 45.5449 15.2799 45.3417C15.4429 45.126 15.6565 44.9448 15.8603 44.7609C16.0809 44.5618 16.3142 44.3751 16.5433 44.1857C16.9396 43.8566 17.3106 43.486 17.7434 43.2122C18.0737 43.0034 18.4166 42.7974 18.8016 42.6578C19.3497 42.4573 19.902 42.4683 20.4613 42.4808C21.1162 42.4946 21.7711 42.5126 22.4245 42.5485C22.6325 42.5596 22.7871 42.5222 22.8995 42.3494C23.0654 42.095 23.2368 41.8433 23.3998 41.5875C23.5867 41.293 23.7624 40.9902 23.9535 40.6984C24.1236 40.4371 24.3512 40.3334 24.6337 40.4467C24.919 40.5615 25.2113 40.7026 25.4361 40.9017C25.6118 41.0565 25.5626 41.3303 25.4811 41.5502C25.4178 41.7216 25.3265 41.8834 25.2366 42.0438C24.4946 42.9689 27.3249 42.8583 27.4626 42.8029C27.887 42.8016 28.4379 42.7808 28.518 42.7476C28.8243 42.6218 28.9972 41.9664 28.7962 41.6981C28.7021 41.5723 28.6571 41.5059 28.7372 41.358C28.8285 41.192 28.8651 41.1727 28.9649 40.9998C29.0815 40.8685 29.2937 40.5878 29.3331 40.5394C29.3738 40.4882 29.5087 40.4578 29.5705 40.4855C29.8221 40.6002 30.0765 40.7205 30.2985 40.8795C30.6119 41.1036 30.6611 41.3773 30.4756 41.7133C30.3379 41.9622 30.1889 42.207 30.0245 42.4407C29.9261 42.5803 29.8952 42.702 29.9978 42.861C30.0863 42.8679 30.1776 42.879 30.269 42.8804C31.2738 42.9025 32.28 42.9205 33.2848 42.9481C33.5181 42.955 33.6221 42.796 33.7134 42.6467C33.9003 42.3383 34.069 42.0217 34.3079 41.7451C34.3711 41.6719 34.3852 41.5585 34.4371 41.4714C34.759 40.9362 35.0822 40.4011 35.4124 39.8701C35.619 39.5383 35.8411 39.2147 36.049 38.8829C36.2514 38.5621 36.4425 38.2344 36.6407 37.9108C36.7517 37.7297 36.8712 37.5541 36.9808 37.3729C37.1677 37.0646 37.3419 36.7479 37.5359 36.4437C37.7186 36.1561 37.9223 35.8823 38.112 35.5989C38.1753 35.5048 38.2146 35.3956 38.2765 35.3002C38.6053 34.801 38.9103 34.2825 39.2813 33.8137C39.4682 33.5773 39.6396 33.3159 39.9094 33.1348C40.1329 32.9841 40.3001 32.7545 40.5011 32.5693C40.6346 32.4462 40.7793 32.3328 40.9269 32.225C41.2122 32.0162 41.4834 31.7756 41.7968 31.6166C42.4769 31.2722 43.1754 30.9611 43.975 31.0081C44.2013 31.022 44.3039 31.1423 44.4191 31.322C44.7395 31.8212 44.6959 32.3743 44.7114 32.9163C44.7226 33.3063 44.7128 33.699 44.665 34.0847C44.613 34.4899 44.509 34.8895 44.4163 35.2891C44.3685 35.4993 44.3053 35.7067 44.235 35.9114C44.1914 36.0358 44.1155 36.1492 44.0607 36.2709C43.8893 36.6525 43.7558 37.0452 43.5225 37.4075C43.3117 37.7352 43.0756 38.0546 42.9224 38.4307C42.7805 38.7805 42.4966 39.0723 42.2858 39.3959C42.0905 39.6945 41.9106 40.0029 41.7237 40.3057C41.6478 40.4302 41.5705 40.5532 41.4932 40.6777C41.3667 40.8795 41.2361 41.0787 41.1138 41.2805C40.681 41.9927 40.2551 42.7089 39.8153 43.4183C39.5117 43.9078 39.1885 44.3848 38.8765 44.8688C38.7107 45.126 38.528 45.3762 38.3931 45.6486C38.3425 45.751 38.3706 45.9196 38.4212 46.0344C38.4915 46.1962 38.6236 46.3303 38.7135 46.4838C38.8091 46.6484 38.8836 46.824 38.9749 46.9913C39.1154 47.2457 39.2602 47.4987 39.4063 47.749C39.6087 48.0947 39.8139 48.439 40.0191 48.7833C40.0415 48.8206 40.0696 48.8538 40.1357 48.9451L40.1315 48.9423Z" fill="#0444A5"/>
<path d="M135 64.6906C134.926 64.84 134.784 64.7985 134.664 64.7999C134.126 64.804 133.588 64.7999 133.049 64.7999C131.388 64.7999 129.727 64.8026 128.066 64.8026C127.961 64.8026 127.857 64.8026 127.728 64.8026C127.389 64.2661 127.059 63.7227 126.709 63.1917C126.363 62.6649 125.996 62.1519 125.645 61.6306C125.556 61.4992 125.492 61.3527 125.409 61.2172C125.123 60.7498 124.847 60.2783 124.547 59.8206C124.217 59.3131 123.863 58.8195 123.524 58.3176C123.436 58.1862 123.367 58.041 123.287 57.9041C123.021 57.452 122.763 56.9943 122.484 56.549C122.154 56.0194 121.797 55.5051 121.467 54.9741C121.117 54.4099 120.811 53.8181 120.437 53.2705C120.188 52.9069 120.012 52.4976 119.716 52.1616C119.596 52.0261 119.529 51.8477 119.436 51.6887C119.154 51.2075 118.882 50.7208 118.583 50.2493C118.277 49.7667 117.942 49.3035 117.625 48.8278C117.536 48.6964 117.473 48.5485 117.391 48.4116C117.133 47.9802 116.877 47.5474 116.609 47.1215C116.44 46.8518 116.246 46.5988 116.077 46.3306C115.803 45.8964 115.549 45.4497 115.267 45.0211C114.921 44.4984 114.662 43.9218 114.249 43.4379C114.141 43.3106 114.038 43.1558 114.002 42.9995C113.953 42.7893 113.805 42.7036 113.614 42.5875C109 49.981 104.388 57.3745 99.7533 64.7999C99.5974 64.7999 99.4357 64.7999 99.2741 64.7999C97.7887 64.7999 96.3033 64.8026 94.8179 64.7999C94.7012 64.7999 92.2644 64.8483 92.0115 64.7611C92.3206 64.3339 96.4579 58.4959 96.9329 57.7161C97.1352 57.3828 97.3671 57.0676 97.5793 56.7398C97.9138 56.2227 98.2398 55.7 98.5743 55.1815C98.7907 54.8455 99.0184 54.515 99.2362 54.1776C99.4357 53.8679 99.6269 53.554 99.8236 53.2415C100.141 52.7382 100.456 52.2349 100.778 51.7357C100.982 51.4191 101.201 51.1121 101.403 50.7954C101.747 50.2534 102.079 49.7044 102.425 49.1638C102.893 48.4282 103.368 47.6967 103.84 46.9625C104.198 46.4038 104.554 45.8424 104.915 45.2852C105.3 44.6892 105.694 44.0974 106.074 43.4987C106.4 42.9857 106.71 42.4644 107.031 41.95C107.169 41.7288 107.322 41.5172 107.464 41.2988C107.685 40.9614 107.903 40.6226 108.121 40.2838C108.455 39.7625 108.77 39.2288 109.125 38.7227C109.52 38.1585 109.947 37.6137 110.501 37.1837C110.692 37.0358 110.89 36.8947 111.096 36.7675C111.597 36.4605 112.151 36.3264 112.74 36.2587C113.213 36.2033 113.683 36.1107 114.161 36.1536C114.824 36.2116 115.49 36.307 116.099 36.5629C116.62 36.7827 117.065 37.1464 117.477 37.5432C117.955 38.0051 118.333 38.5374 118.701 39.0767C119.093 39.6519 119.433 40.2603 119.797 40.8535C119.893 41.0084 119.987 41.1646 120.09 41.3167C120.327 41.6679 120.574 42.0122 120.805 42.3676C120.985 42.6442 121.138 42.9359 121.315 43.2139C121.567 43.6107 121.829 44.0006 122.084 44.3947C122.233 44.6256 122.376 44.8607 122.524 45.093C122.982 45.8176 123.441 46.5407 123.898 47.2653C124.197 47.7396 124.494 48.2166 124.795 48.6895C125.194 49.3145 125.597 49.9367 125.995 50.5631C126.315 51.0651 126.627 51.5712 126.948 52.0745C127.327 52.6704 127.713 53.2622 128.093 53.8568C128.406 54.3491 128.711 54.8469 129.026 55.3391C129.427 55.9641 129.837 56.5836 130.236 57.2086C130.544 57.6912 130.837 58.182 131.145 58.666C131.532 59.273 131.927 59.8731 132.313 60.4788C132.621 60.9614 132.922 61.4481 133.229 61.9307C133.628 62.557 134.033 63.1793 134.435 63.8029C134.623 64.096 134.809 64.3892 134.999 64.6892L135 64.6906Z" fill="#1E1E1E"/>
<path d="M21.6165 58.0822C21.3031 58.2025 21.046 58.3007 20.7902 58.4003C20.7579 58.4127 20.7242 58.4279 20.6989 58.4487C20.1887 58.8635 19.6758 59.2756 19.1699 59.6959C18.8565 59.9559 18.7961 60.744 19.087 61.0303C19.2092 61.1506 19.406 61.2114 19.5802 61.2639C20.1578 61.4368 20.7523 61.5626 21.3172 61.7673C21.7444 61.9221 22.173 62.048 22.6129 62.1558C22.8448 62.2125 23.0626 62.3259 23.2917 62.4019C23.4575 62.4572 23.6275 62.5098 23.799 62.5319C24.0013 62.5582 24.0857 62.655 24.0772 62.8306C23.6121 63.1016 23.168 63.3961 22.6944 63.6284C22.1435 63.8981 21.587 64.1718 20.9504 64.2119C20.3419 64.2507 19.7236 64.3101 19.1361 64.1442C18.7174 64.0267 18.3084 63.8262 17.943 63.5911C17.4076 63.2454 16.9481 62.796 16.5757 62.2816C16.2398 61.817 15.9405 61.3262 15.6313 60.8436C15.2743 60.2891 14.9258 59.7291 14.5717 59.1718C14.5281 59.1041 14.4818 59.0377 14.4382 58.97C14.0306 58.3353 13.6175 57.7034 13.217 57.0632C12.867 56.5018 12.5382 55.9252 12.1883 55.3638C11.8819 54.8715 11.5559 54.3889 11.2411 53.9008C11.154 53.7667 11.0767 53.6257 10.9924 53.4888C10.8364 53.2385 10.6818 52.9868 10.5202 52.7393C10.2939 52.3936 10.0578 52.0535 9.83157 51.7078C9.75709 51.593 9.70931 51.4617 9.63904 51.3455C9.34814 50.8699 9.05865 50.3914 8.7551 49.9227C8.42626 49.4138 8.08055 48.9147 7.74749 48.4086C7.67863 48.3035 7.6435 48.179 7.57745 48.0712C7.27109 47.5762 6.96614 47.0798 6.64854 46.5903C6.31969 46.0828 5.96696 45.5892 5.64233 45.0789C5.29241 44.5286 4.96778 43.9631 4.62208 43.4113C4.29604 42.89 3.95736 42.3757 3.6243 41.8585C3.57512 41.7811 3.52312 41.705 3.47393 41.6276C3.25611 41.2791 3.02845 40.9362 2.82327 40.5809C2.538 40.0872 2.19791 39.6281 1.92809 39.1234C1.66108 38.6229 1.2957 38.1735 0.980909 37.6978C0.829135 37.4683 0.69563 37.2277 0.548072 36.9968C0.417378 36.7935 0.268415 36.6027 0.144747 36.3967C0.0829135 36.2944 0.0548072 36.1699 0 36.0275C0.115236 36.0095 0.191123 35.9888 0.267009 35.9888C2.5127 35.9888 4.7598 35.9902 7.00549 35.9915C7.06451 35.9915 7.12213 35.9957 7.18115 35.9915C7.40881 35.9819 7.55215 36.0579 7.67723 36.2736C8.09741 36.994 8.55836 37.6923 8.99963 38.4017C9.42825 39.0916 9.84703 39.7885 10.2771 40.4772C10.6579 41.0883 11.05 41.6926 11.4378 42.2996C11.8145 42.8873 12.2009 43.468 12.5677 44.0612C12.9233 44.6337 13.2521 45.2227 13.6048 45.7966C13.914 46.2985 14.2428 46.788 14.559 47.2872C14.9076 47.8389 15.2336 48.4044 15.6018 48.9437C16.022 49.559 16.2974 50.2587 16.7865 50.8381C17.0549 51.1547 17.2277 51.5488 17.4498 51.9041C17.7828 52.4365 18.1257 52.9633 18.4588 53.4943C18.5979 53.7155 18.723 53.9465 18.8579 54.1705C19.094 54.5645 19.3245 54.9614 19.5704 55.3486C19.8824 55.8422 20.2084 56.3275 20.5246 56.8184C20.5921 56.9235 20.6511 57.0355 20.7045 57.1475C20.8338 57.4199 21.1176 57.5402 21.3102 57.7504C21.4085 57.8582 21.5083 57.9647 21.6179 58.0836L21.6165 58.0822Z" fill="#1E1E1E"/>
<path d="M56.6622 64.798C56.5132 64.798 56.4106 64.798 56.308 64.798C54.4488 64.7994 52.5882 64.8022 50.7289 64.8035C50.3776 64.8035 50.3495 64.7939 50.3439 64.4357C50.3326 63.6324 50.3439 62.829 50.3425 62.0256C50.3383 56.4352 50.3341 50.8447 50.3298 45.2557C50.3284 42.616 50.327 39.975 50.327 37.3353C50.327 36.7615 50.3298 36.8113 50.8639 36.8127C52.6542 36.8182 54.4432 36.8182 56.2336 36.821C56.3488 36.821 56.4654 36.821 56.6214 36.821C56.6369 36.9579 56.6608 37.0768 56.6622 37.1957C56.665 37.9769 56.6636 38.7568 56.6636 39.5381C56.6636 47.8138 56.6636 56.0909 56.6636 64.3666C56.6636 64.5007 56.6636 64.6348 56.6636 64.7994L56.6622 64.798Z" fill="#1E1E1E"/>
<path d="M91.7515 54.9585V57.9839C91.7515 57.9839 91.7388 57.9839 91.7318 57.9839V54.9723C91.7318 54.9723 91.7445 54.9626 91.7515 54.9585Z" fill="#1E1E1E"/>
</g>
<defs>
<clipPath id="clip0_1_6749">
<rect width="135" height="35" fill="white" transform="translate(0 31)"/>
</clipPath>
</defs>
</svg>