<?xml version="1.0" encoding="UTF-8"?>
<svg xmlns="http://www.w3.org/2000/svg" width="70" height="70" viewBox="0 0 70 70" fill="none">
  <path fill-rule="evenodd" clip-rule="evenodd" d="M20.6582 50.5085C20.202 50.0523 19.4647 50.0523 19.0085 50.5085L17.5 52.017L15.9915 50.5085C15.5353 50.0523 14.798 50.0523 14.3418 50.5085C13.8857 50.9647 13.8857 51.702 14.3418 52.1582L15.8503 53.6667L14.3418 55.1752C13.8857 55.6313 13.8857 56.3687 14.3418 56.8248C14.5693 57.0523 14.868 57.1667 15.1667 57.1667C15.4653 57.1667 15.764 57.0523 15.9915 56.8248L17.5 55.3163L19.0085 56.8248C19.236 57.0523 19.5347 57.1667 19.8333 57.1667C20.132 57.1667 20.4307 57.0523 20.6582 56.8248C21.1143 56.3687 21.1143 55.6313 20.6582 55.1752L19.1497 53.6667L20.6582 52.1582C21.1143 51.702 21.1143 50.9647 20.6582 50.5085ZM32.3248 50.5085C31.8687 50.0523 31.1313 50.0523 30.6752 50.5085L29.1667 52.017L27.6582 50.5085C27.202 50.0523 26.4647 50.0523 26.0085 50.5085C25.5523 50.9647 25.5523 51.702 26.0085 52.1582L27.517 53.6667L26.0085 55.1752C25.5523 55.6313 25.5523 56.3687 26.0085 56.8248C26.236 57.0523 26.5347 57.1667 26.8333 57.1667C27.132 57.1667 27.4307 57.0523 27.6582 56.8248L29.1667 55.3163L30.6752 56.8248C30.9027 57.0523 31.2013 57.1667 31.5 57.1667C31.7987 57.1667 32.0973 57.0523 32.3248 56.8248C32.781 56.3687 32.781 55.6313 32.3248 55.1752L30.8163 53.6667L32.3248 52.1582C32.781 51.702 32.781 50.9647 32.3248 50.5085ZM55.6582 38.8418C55.202 38.3857 54.4647 38.3857 54.0085 38.8418L52.5 40.3503L50.9915 38.8418C50.5353 38.3857 49.798 38.3857 49.3418 38.8418C48.8857 39.298 48.8857 40.0353 49.3418 40.4915L50.8503 42L49.3418 43.5085C48.8857 43.9647 48.8857 44.702 49.3418 45.1582C49.5693 45.3857 49.868 45.5 50.1667 45.5C50.4653 45.5 50.764 45.3857 50.9915 45.1582L52.5 43.6497L54.0085 45.1582C54.236 45.3857 54.5347 45.5 54.8333 45.5C55.132 45.5 55.4307 45.3857 55.6582 45.1582C56.1143 44.702 56.1143 43.9647 55.6582 43.5085L54.1497 42L55.6582 40.4915C56.1143 40.0353 56.1143 39.298 55.6582 38.8418ZM43.9915 27.1752C43.5353 26.719 42.798 26.719 42.3418 27.1752L40.8333 28.6837L39.3248 27.1752C38.8687 26.719 38.1313 26.719 37.6752 27.1752C37.219 27.6313 37.219 28.3687 37.6752 28.8248L39.1837 30.3333L37.6752 31.8418C37.219 32.298 37.219 33.0353 37.6752 33.4915C37.9027 33.719 38.2013 33.8333 38.5 33.8333C38.7987 33.8333 39.0973 33.719 39.3248 33.4915L40.8333 31.983L42.3418 33.4915C42.5693 33.719 42.868 33.8333 43.1667 33.8333C43.4653 33.8333 43.764 33.719 43.9915 33.4915C44.4477 33.0353 44.4477 32.298 43.9915 31.8418L42.483 30.3333L43.9915 28.8248C44.4477 28.3687 44.4477 27.6313 43.9915 27.1752ZM51.3333 31.5H53.6667V29.1667H51.3333V31.5ZM56 32.6667C56 33.3107 55.4773 33.8333 54.8333 33.8333H50.1667C49.5227 33.8333 49 33.3107 49 32.6667V28C49 27.356 49.5227 26.8333 50.1667 26.8333H54.8333C55.4773 26.8333 56 27.356 56 28V32.6667ZM39.6667 54.8333H42V52.5H39.6667V54.8333ZM44.3333 51.3333V56C44.3333 56.644 43.8107 57.1667 43.1667 57.1667H38.5C37.856 57.1667 37.3333 56.644 37.3333 56V51.3333C37.3333 50.6893 37.856 50.1667 38.5 50.1667H43.1667C43.8107 50.1667 44.3333 50.6893 44.3333 51.3333ZM39.6667 43.1667H42V40.8333H39.6667V43.1667ZM44.3333 44.3333C44.3333 44.9773 43.8107 45.5 43.1667 45.5H38.5C37.856 45.5 37.3333 44.9773 37.3333 44.3333V39.6667C37.3333 39.0227 37.856 38.5 38.5 38.5H43.1667C43.8107 38.5 44.3333 39.0227 44.3333 39.6667V44.3333ZM28 43.1667H30.3333V40.8333H28V43.1667ZM32.6667 44.3333C32.6667 44.9773 32.144 45.5 31.5 45.5H26.8333C26.1893 45.5 25.6667 44.9773 25.6667 44.3333V39.6667C25.6667 39.0227 26.1893 38.5 26.8333 38.5H31.5C32.144 38.5 32.6667 39.0227 32.6667 39.6667V44.3333ZM28 31.5H30.3333V29.1667H28V31.5ZM32.6667 32.6667C32.6667 33.3107 32.144 33.8333 31.5 33.8333H26.8333C26.1893 33.8333 25.6667 33.3107 25.6667 32.6667V28C25.6667 27.356 26.1893 26.8333 26.8333 26.8333H31.5C32.144 26.8333 32.6667 27.356 32.6667 28V32.6667ZM16.3333 43.1667H18.6667V40.8333H16.3333V43.1667ZM21 44.3333C21 44.9773 20.4773 45.5 19.8333 45.5H15.1667C14.5227 45.5 14 44.9773 14 44.3333V39.6667C14 39.0227 14.5227 38.5 15.1667 38.5H19.8333C20.4773 38.5 21 39.0227 21 39.6667V44.3333ZM16.3333 31.5H18.6667V29.1667H16.3333V31.5ZM21 32.6667C21 33.3107 20.4773 33.8333 19.8333 33.8333H15.1667C14.5227 33.8333 14 33.3107 14 32.6667V28C14 27.356 14.5227 26.8333 15.1667 26.8333H19.8333C20.4773 26.8333 21 27.356 21 28V32.6667ZM51.3333 8.16667C51.3333 8.8095 51.8572 9.33333 52.5 9.33333C53.1428 9.33333 53.6667 8.8095 53.6667 8.16667V3.5C53.6667 2.85717 53.1428 2.33333 52.5 2.33333C51.8572 2.33333 51.3333 2.85717 51.3333 3.5V8.16667ZM49 8.16667V3.5C49 1.57033 50.5703 0 52.5 0C54.4297 0 56 1.57033 56 3.5V8.16667C56 10.0963 54.4297 11.6667 52.5 11.6667C50.5703 11.6667 49 10.0963 49 8.16667ZM39.6667 8.16667C39.6667 8.8095 40.1905 9.33333 40.8333 9.33333C41.4762 9.33333 42 8.8095 42 8.16667V3.5C42 2.85717 41.4762 2.33333 40.8333 2.33333C40.1905 2.33333 39.6667 2.85717 39.6667 3.5V8.16667ZM37.3333 8.16667V3.5C37.3333 1.57033 38.9037 0 40.8333 0C42.763 0 44.3333 1.57033 44.3333 3.5V8.16667C44.3333 10.0963 42.763 11.6667 40.8333 11.6667C38.9037 11.6667 37.3333 10.0963 37.3333 8.16667ZM28 8.16667C28 8.8095 28.5238 9.33333 29.1667 9.33333C29.8095 9.33333 30.3333 8.8095 30.3333 8.16667V3.5C30.3333 2.85717 29.8095 2.33333 29.1667 2.33333C28.5238 2.33333 28 2.85717 28 3.5V8.16667ZM25.6667 8.16667V3.5C25.6667 1.57033 27.237 0 29.1667 0C31.0963 0 32.6667 1.57033 32.6667 3.5V8.16667C32.6667 10.0963 31.0963 11.6667 29.1667 11.6667C27.237 11.6667 25.6667 10.0963 25.6667 8.16667ZM16.3333 8.16667C16.3333 8.8095 16.8572 9.33333 17.5 9.33333C18.1428 9.33333 18.6667 8.8095 18.6667 8.16667V3.5C18.6667 2.85717 18.1428 2.33333 17.5 2.33333C16.8572 2.33333 16.3333 2.85717 16.3333 3.5V8.16667ZM14 8.16667V3.5C14 1.57033 15.5703 0 17.5 0C19.4297 0 21 1.57033 21 3.5V8.16667C21 10.0963 19.4297 11.6667 17.5 11.6667C15.5703 11.6667 14 10.0963 14 8.16667ZM56.3418 63.3418C55.8857 63.798 55.8857 64.5353 56.3418 64.9915C56.5693 65.219 56.868 65.3333 57.1667 65.3333C57.4653 65.3333 57.764 65.219 57.9915 64.9915L64.9915 57.9915C65.2108 57.7733 65.3333 57.4758 65.3333 57.1667V19.8333C65.3333 19.1893 64.8107 18.6667 64.1667 18.6667H5.83333C5.18933 18.6667 4.66667 19.1893 4.66667 19.8333V60.6667C4.66667 63.2403 6.75967 65.3333 9.33333 65.3333H52.5C53.144 65.3333 53.6667 64.8107 53.6667 64.1667V57.1667C53.6667 56.6382 54.187 56 54.8333 56H59.5C60.144 56 60.6667 55.4773 60.6667 54.8333C60.6667 54.1893 60.144 53.6667 59.5 53.6667H54.8333C52.969 53.6667 51.3333 55.3023 51.3333 57.1667V63H9.33333C8.0465 63 7 61.9535 7 60.6667V21H63V56.6837L56.3418 63.3418ZM64.1667 2.33333H59.5C58.856 2.33333 58.3333 2.856 58.3333 3.5C58.3333 4.144 58.856 4.66667 59.5 4.66667H64.1667C65.8677 4.66667 67.6667 6.46567 67.6667 8.16667V64.1667C67.6667 65.8677 65.8677 67.6667 64.1667 67.6667H5.83333C4.13233 67.6667 2.33333 65.8677 2.33333 64.1667V16.3333H64.1667C64.8107 16.3333 65.3333 15.8107 65.3333 15.1667C65.3333 14.5227 64.8107 14 64.1667 14H1.16667C0.522667 14 0 14.5227 0 15.1667V64.1667C0 67.165 2.835 70 5.83333 70H64.1667C67.165 70 70 67.165 70 64.1667V8.16667C70 5.16833 67.165 2.33333 64.1667 2.33333ZM0 10.5V8.16667C0 5.16833 2.835 2.33333 5.83333 2.33333H10.5C11.144 2.33333 11.6667 2.856 11.6667 3.5C11.6667 4.144 11.144 4.66667 10.5 4.66667H5.83333C4.13233 4.66667 2.33333 6.46567 2.33333 8.16667V10.5C2.33333 11.144 1.81067 11.6667 1.16667 11.6667C0.522667 11.6667 0 11.144 0 10.5Z" fill="white"></path>
</svg>
